<?xml version="1.0" encoding="UTF-8"?>
<svg id="Layer_2" data-name="Layer 2" xmlns="http://www.w3.org/2000/svg" viewBox="0 0 162.13 165.95">
  <defs>
    <style>
      .cls-1 {
        fill: #11120b;
      }

      .cls-2 {
        fill: #fff;
      }

      .cls-3 {
        fill: #c0ed08;
      }
    </style>
  </defs>
  <g id="Layer_1-2" data-name="Layer 1">
    <g>
      <g>
        <path class="cls-2" d="M117.15,38.49c-.32-.01-.64-.02-.96-.01-.05,0-.09,0-.14,0-.01,0-.03,0-.04,0,.01,0,.03,0,.04,0,.43,0,.85,0,1.28.01.07,0,.14,0,.22,0,.48.02.96.06,1.44.12-.46-.05-.92-.09-1.39-.11-.15,0-.3,0-.45-.01ZM130.19,92.54s0-.02-.01-.03c0,0,0,.02.01.03h0ZM162.1,88.78c0-2.79-.66-5.6-1.9-8.26-1.29-3.63-4.55-6.2-7.38-8.05-.21-1.99-.47-4.02-.81-6.19-1.19-7.53-3.19-14.92-6.12-22.62-1.73-4.16-3.94-8.33-6.76-12.73-5.98-9.33-13.48-16.65-22.31-21.77-8.73-4.81-18.29-7.74-28.41-8.71l-.79-.08c-1.03-.1-2.2-.22-3.39-.27-3.68-.15-6.64-.11-9.59.12-20.83,2.15-39.63,11.04-54.36,25.72-1.75,1.79-3.47,3.79-5.41,6.28-4.4,5.66-7.91,11.89-10.42,18.54-5.21,13.85-5.86,28.9-1.87,43.58,3.82,11.72,10.39,21.97,18.99,29.64.37.33.75.63,1.13.93l.91.75c.87.73,1.66,1.38,2.51,2.02.11.08.29.2.34.23,1.33.98,2.94,2.05,4.53,3.01,1.05.63,2.25.92,3.46.88.68,2.77,2.01,5.31,3.9,7.39,3.81,4.22,9.45,6.37,15.72,5.87.54-.04,1.08-.15,1.59-.34l7.6-2.71c.31.46.69.88,1.11,1.24.12.1.22.2.33.3l.74.69c4.76,4.22,7.92,8.34,11.43,13.57,2.99,5.17,8.51,8.13,15.16,8.13.42,0,.85-.01,1.2-.03h.26c.19,0,.5,0,.65-.02,6.03-.32,12.35-1.47,19.91-3.61,3.87-1.1,7.83-2.36,11.75-3.74.21-.07.41-.15.6-.25,9.8-4.64,19.88-10.01,25.93-19.96.9-1.49,1.15-3.3.66-4.98-.48-1.67-1.66-3.08-3.22-3.85-1.56-.77-2.55-1.66-2.81-2.52-.01-.12-.02-.22-.03-.28-.09-.63.02-1.33.34-2.16.87-2.24.37-4.81-1.28-6.55-1.78-1.89-2.33-2.84-2.47-3.14,0-.07,0-.15,0-.35,0-.1,0-.2,0-.29.05-.12.09-.23.14-.35.16-.44.54-.95,1.14-1.5,4.07-1.87,6.29-5.4,6.1-9.71.02-.19.06-.36.12-.5.06-.05.19-.13.43-.24.62-.29,1.11-.39,1.71-.33,2.21.21,4.37-.78,5.65-2.55,1.66-2.29,2.7-4.92,3.11-7.81.15-.46.22-1.14.24-1.5.01-.28,0-.68-.03-.95ZM159.96,90.55l-.08.3c-.35,2.59-1.27,4.95-2.75,6.99-.86,1.19-2.34,1.85-3.79,1.72-.97-.1-1.83.07-2.78.52-.72.34-1.15.69-1.34,1.08-.19.39-.32.85-.37,1.36v.08s0,.08,0,.08c.18,3.52-1.66,6.39-5.03,7.89l-.27.17c-.94.84-1.53,1.63-1.82,2.44-.04.13-.1.25-.15.38l-.08.27c-.04.27-.04.55-.01.89l-.03.37.04.15c.1.4.59,1.59,3.02,4.16,1.11,1.17,1.45,2.9.86,4.4-.45,1.16-.6,2.21-.46,3.19,0,.05.02.16.03.27l.03.16c.48,1.87,2.39,3.16,3.9,3.91,1.05.52,1.84,1.46,2.16,2.59.33,1.12.16,2.34-.44,3.34-5.76,9.47-15.53,14.66-25.06,19.18-.13.06-.26.12-.4.16-3.88,1.37-7.8,2.61-11.63,3.7-7.4,2.1-13.59,3.22-19.5,3.53-.14.01-.36.02-.47.02h-.32c-6.41.32-11.78-2.27-14.6-7.14-3.64-5.42-6.88-9.66-11.78-14l-.69-.65c-.13-.13-.27-.26-.42-.39-.45-.38-.81-.85-1.06-1.38l-.48-.8-9.18,3.27c-.34.12-.7.2-1.07.23-5.64.44-10.66-1.46-14.04-5.2-1.84-2.04-3.09-4.58-3.61-7.34l-.19-1.02-1.02.21c-1.02.21-2.1.03-3-.51-1.54-.92-3.09-1.95-4.43-2.94-.09-.05-.22-.15-.3-.2-.8-.59-1.56-1.22-2.41-1.93l-.96-.78c-.35-.28-.7-.56-1.04-.85-8.33-7.43-14.7-17.37-18.39-28.7-3.87-14.21-3.24-28.83,1.82-42.27,2.44-6.46,5.84-12.51,10.12-18.01,1.89-2.43,3.57-4.37,5.25-6.1C36.12,13.03,54.49,4.34,74.83,2.24c2.83-.22,5.73-.25,9.32-.11,1.12.05,2.26.16,3.27.26l.8.08c9.85.94,19.14,3.79,27.6,8.45,8.53,4.95,15.79,12.05,21.59,21.1,2.75,4.3,4.91,8.36,6.58,12.39,2.87,7.54,4.83,14.8,6,22.19.36,2.31.64,4.46.85,6.57l.05.49.42.27c2.64,1.69,5.83,4.05,7.01,7.37,1.15,2.48,1.74,5,1.75,7.58.02.26.04.55.03.75-.02.44-.09.78-.13.93ZM112.68,109.85c-.13,0-.26.03-.38.05,0,0,0,0,0,0,.13-.02.25-.05.39-.05,0,0,0,0,0,0,0,0,0,0,0,0ZM141.46,79.12c-.11.96-.42,1.78-.66,2.66.12-.43.26-.85.38-1.28.12-.43.23-.87.29-1.35.02-1.38-.05-2.76-.23-4.11.17,1.34.24,2.71.22,4.08ZM118.94,106.48c-.06-.17-.11-.34-.18-.51-.06-.08-.12-.16-.19-.24-.18-.24-.37-.48-.56-.72-.25-.31-.5-.62-.75-.93,0,0,0,0,.01.01.49.61.99,1.21,1.46,1.86.33.77.51,1.51.51,2.18,0-.45-.06-.92-.21-1.42-.02-.08-.06-.16-.09-.24ZM119.24,108.14h0s0,0,0,0ZM119.17,108.79s0,0,0,0c.05-.21.06-.43.06-.66,0,.23-.02.44-.06.65ZM114.77,38.55c-.15.01-.3.02-.45.04-.19.02-.38.05-.56.07.72-.09,1.43-.15,2.15-.17.03,0,.07,0,.1,0-.1,0-.19,0-.29,0-.32.01-.63.03-.95.06ZM113.15,38.74c-.07.01-.14.02-.21.03-.45.08-.91.17-1.36.28-.13.03-.26.07-.39.1-.33.08-.65.18-.97.28-.15.05-.31.1-.46.15-.16.06-.32.12-.49.18,1.41-.52,2.86-.88,4.31-1.08-.15.02-.3.03-.45.06ZM108.83,39.92c-.14.05-.27.11-.41.16-.44.18-.87.38-1.3.6,0,0,0,.01,0,.02.69-.35,1.39-.65,2.1-.92-.13.05-.26.09-.38.14ZM76.68,113.56l8.11-3.82s.01-.02.02-.03l-8.13,3.86ZM155.34,82.43c-.82-2.59-4.03-4.85-7.49-6.91-.2-2.68-.53-5.44-1-8.44-1.13-7.17-3.04-14.21-5.84-21.58-1.57-3.78-3.62-7.63-6.27-11.78-5.53-8.62-12.43-15.37-20.53-20.07-8.15-4.49-16.75-7.11-26.3-8.03l-.8-.08c-1-.1-2.04-.2-3.08-.25-3.51-.14-6.24-.11-8.98.1-19.55,2.02-37.21,10.39-51.09,24.22-1.57,1.62-3.16,3.46-4.98,5.79-4.08,5.24-7.33,11.02-9.65,17.17-4.82,12.82-5.42,26.76-1.72,40.37,3.49,10.69,9.51,20.06,17.43,27.12.28.25.58.49.88.72.19.15.38.3.56.45l.49.41c.71.6,1.45,1.22,2.22,1.79.04.03.09.06.12.08,1.43,1.05,2.9,2.02,4.36,2.9l.87.52.53-.87c.58-.95,1.09-1.86,1.59-2.74,1.37-2.41,2.56-4.49,4.4-6.48.33-.3.58-.62.8-.89l.15-.19c1.56-1.98,1.97-4.28,1.21-6.59l-.05-.24c-1.09-3.64-2.42-7.32-4.07-11.26-2.36-5.66-5-10.73-8.04-15.51-.64-1.35-1.56-2.29-2.45-3.19,2.64,1.89,4.8,4.41,7.2,7.68,3.34,5.73,6.17,11.54,8.62,17.76.25.64.52,1.27.79,1.89.47,1.1.92,2.14,1.29,3.28.89,2.55.86,4.63-.08,6.18-.34.57-.81,1.09-1.39,1.53l-.13.11c-1.64,1.74-3.05,3.68-4.43,6.09-.12.22-.25.43-.38.64-.26.43-.54.87-.79,1.41l-.07.16-.02.17c-.39,3.75.68,7.22,3,9.79,2.72,3.01,6.81,4.53,11.44,4.17l8.56-3.01.14-.06c1.61-.87,3.24-1.61,4.81-2.32l1.33-.6c5.18-2.39,9.38-3.9,13.57-4.87.72-.14,1.56-.29,2.27-.29s1.3.15,1.81.51l.24.14h.01c.57.47.99,1.59,1.3,3.41l.04.26.16.21c1.89,2.42,4.29,3.5,7.79,3.5h.27c.97.15,1.96.23,2.94.23,3.07,0,5.75-.76,8.35-1.49,1.86-.53,3.65-1.03,5.56-1.27-1.99,1.76-4.37,3.1-7.11,4.01-3.55,1.19-7.67,1.61-11.98,1.27-.67-.05-1.34-.14-2-.23l-.34-.05c-.16-.02-.33-.04-.5-.06-.17-.02-.33-.03-.48-.06-.29-.12-.55-.26-.81-.4l-.39-.21c-2.37-1.19-4.13-2.89-5.7-5.5l-.36-.6-.69.12c-4.98.86-9.73,2.53-14.52,5.1l-1.32.71,1.14.97c.23.19.43.39.63.58.17.16.34.33.53.5,5.16,4.57,8.54,8.98,12.28,14.56,2.21,3.81,5.96,5.82,10.83,5.82.38,0,.76-.01,1.26-.03.07,0,.13,0,.2,0h.16c5.78-.32,11.81-1.41,18.98-3.44,3.76-1.07,7.61-2.3,11.53-3.68,9.46-4.48,18.4-9.23,23.7-17.96l.58-.95-1-.5c-3.11-1.54-5.05-3.67-5.61-6.15-.02-.07-.04-.13-.03-.1-.01-.05-.01-.1-.01-.15,0-.11-.01-.21-.03-.32-.22-1.52,0-3.13.64-4.8l.23-.6-.45-.47c-2.72-2.87-3.99-5.01-3.89-6.53v-.07s0-.07,0-.07c-.06-.74,0-1.43.14-2.07l.04-.15c.02-.06.06-.13.09-.21.06-.12.11-.25.16-.39.53-1.49,1.57-2.83,3.27-4.22,3.27-1.2,3.8-3.5,3.64-5.27.06-1.06.31-2.03.73-2.87.51-1.05,1.43-1.87,2.83-2.53,1.45-.69,2.85-.96,4.43-.81l.58.06.34-.47c1.18-1.64,1.9-3.45,2.18-5.55.01-.09.04-.17.06-.26.05-.19.11-.43.12-.7,0-.17-.01-.32-.04-.43.03-2.18-.49-4.4-1.54-6.6ZM155.82,89.85c-.04.14-.08.29-.1.44-.24,1.78-.84,3.49-1.99,5.09,0,0,0,0,0,0-.41-.04-.8-.04-1.18-.03-.16,0-.31.02-.46.03-.26.02-.52.05-.77.09-.14.02-.29.05-.43.08-.26.06-.51.13-.76.2-.11.04-.23.07-.34.1-.35.12-.69.26-1.02.42,0,0,0,0,0,0-.35.17-.69.35-1.01.55-.64.4-1.22.89-1.68,1.48-.23.3-.44.62-.61.97-.05.1-.09.21-.14.32-.29.66-.5,1.38-.61,2.18-.04.27-.07.55-.08.84.06.61.02,1.15-.11,1.62-.06.24-.15.45-.26.66-.21.41-.5.75-.85,1.05s-.76.54-1.2.75c-.22.1-.46.2-.7.28-.65.52-1.24,1.05-1.76,1.62-.35.38-.67.77-.95,1.18-.21.31-.4.63-.57.95-.17.33-.32.67-.44,1.02-.05.13-.11.26-.17.39s-.11.26-.14.4c0,.01,0,.03,0,.04-.08.37-.14.76-.17,1.16-.03.4-.03.82,0,1.26-.04.61.08,1.25.33,1.91.08.22.18.44.29.67.29.6.68,1.22,1.13,1.85.45.63.97,1.27,1.54,1.91.28.32.58.64.88.96-.75,1.93-.94,3.7-.7,5.32.03.18.02.36.05.54,0,.04.03.07.04.11.65,2.86,2.81,5.19,6.16,6.85-5.15,8.47-14.03,13.19-23.27,17.56-3.79,1.34-7.57,2.54-11.38,3.62-4.57,1.29-9.18,2.36-13.94,2.96-1.59.2-3.19.35-4.82.44-.08,0-.16,0-.23,0-.08,0-.16,0-.24,0-.33.02-.66.03-.99.03-.07,0-.15,0-.22,0-.46,0-.92-.02-1.37-.06-.04,0-.07,0-.11-.01-.46-.05-.91-.11-1.35-.2-.01,0-.03,0-.04,0-.44-.09-.87-.21-1.28-.35-.05-.02-.1-.03-.14-.05-.4-.14-.78-.3-1.16-.49-.06-.03-.12-.06-.18-.09-.37-.19-.72-.4-1.06-.63-.06-.04-.11-.08-.17-.12-.34-.24-.67-.51-.98-.8-.05-.04-.09-.09-.14-.14-.32-.31-.62-.64-.91-1-.03-.04-.06-.08-.09-.12-.3-.39-.58-.79-.84-1.24,0,0,0,0,0,0-1.38-2.06-2.73-3.98-4.15-5.84-.95-1.24-1.94-2.45-3-3.64-1.06-1.19-2.18-2.37-3.41-3.55-.61-.59-1.25-1.18-1.92-1.77-.41-.36-.74-.72-1.17-1.09,4.39-2.36,9.09-4.12,14.21-5,1.53,2.56,3.36,4.51,6.12,5.89.23.12.45.24.68.36.23.12.46.23.72.33.01,0,.02,0,.03,0h0c.36.06.72.08,1.07.13.4.05.8.11,1.2.16.4.05.8.09,1.2.13.93.07,1.86.11,2.78.11.09,0,.18,0,.27,0,.71,0,1.42-.03,2.12-.07.17-.01.33-.02.49-.04.66-.05,1.31-.12,1.95-.21.07,0,.14-.02.2-.03.69-.1,1.38-.24,2.05-.39.16-.04.32-.08.49-.12.68-.17,1.36-.35,2.02-.57,0,0,0,0,0,0,.88-.29,1.74-.63,2.58-1.03s1.65-.84,2.44-1.34c1.57-1,3.03-2.24,4.33-3.75,0,0,0,0-.01,0h0s.02-.02.03-.03h0c-.34,0-.67,0-1,.02-.12,0-.24,0-.35.01-.39.02-.77.05-1.15.1-.04,0-.08.01-.13.02-.34.04-.67.09-1,.14-.13.02-.26.05-.39.07-.24.04-.49.09-.73.14-.14.03-.28.06-.42.09-.23.05-.46.11-.68.16-.14.03-.28.07-.42.1-.24.06-.47.12-.71.19-.12.03-.24.07-.37.1-.3.08-.59.16-.89.25-.39.11-.79.22-1.18.33-.08.02-.15.04-.23.06-.27.08-.55.15-.82.22-.13.03-.26.06-.38.1-.23.06-.47.11-.7.17-.14.03-.28.06-.42.09-.23.05-.46.1-.69.14-.14.03-.28.05-.43.08-.24.04-.49.08-.74.11-.13.02-.26.04-.39.05-.33.04-.67.07-1.01.09-.05,0-.1.01-.15.01-.39.02-.78.03-1.18.03-.3,0-.6-.02-.9-.04-.15,0-.3,0-.46-.02-.46-.04-.94-.09-1.42-.17-.29,0-.55,0-.82-.02-.19,0-.38,0-.56-.02-.21-.02-.4-.04-.6-.07-.17-.02-.34-.04-.5-.07-.19-.03-.37-.08-.55-.12-.15-.04-.3-.07-.45-.11-.18-.05-.34-.12-.51-.18-.13-.05-.27-.09-.4-.15-.17-.07-.32-.16-.48-.25-.12-.06-.24-.12-.35-.19-.16-.1-.31-.21-.46-.32-.1-.07-.2-.14-.3-.21-.16-.13-.32-.28-.48-.43-.07-.07-.15-.13-.23-.21-.22-.23-.44-.48-.65-.75-.06-.38-.14-.75-.21-1.09-.08-.34-.17-.67-.27-.97-.13-.4-.28-.76-.46-1.07-.17-.31-.37-.58-.6-.79-.11-.11-.23-.2-.36-.28-.01-.01-.03-.01-.05-.02-.02,0-.03,0-.05-.02-.17-.12-.35-.22-.53-.3-.06-.03-.12-.05-.18-.07-.12-.05-.24-.1-.37-.14-.08-.02-.15-.04-.23-.05-.12-.03-.23-.05-.35-.07-.08-.01-.17-.02-.26-.02-.12,0-.24-.02-.36-.02-.07,0-.14,0-.21,0-.33,0-.66.03-1.02.08-.05,0-.1.01-.15.02-.38.05-.77.12-1.2.21-.92.21-1.83.45-2.72.7-2.68.76-5.24,1.7-7.75,2.76-1.12.47-2.22.96-3.33,1.47-.51.24-1.03.47-1.54.7-1.03.46-2.06.93-3.1,1.44-.52.26-1.04.52-1.56.81l-4.76,1.71-3.53,1.25c-.46.04-.91.05-1.36.04-.2,0-.4-.02-.61-.03-.26-.01-.53-.02-.79-.05-.2-.02-.4-.05-.6-.08-.25-.04-.5-.07-.74-.12-.2-.04-.39-.09-.58-.14-.23-.06-.47-.12-.69-.19-.19-.06-.38-.13-.56-.19-.22-.08-.44-.16-.65-.25-.18-.08-.36-.16-.53-.25-.2-.1-.41-.2-.6-.31-.17-.09-.34-.19-.5-.3-.19-.12-.37-.24-.55-.37-.16-.11-.31-.23-.46-.34-.17-.14-.34-.28-.5-.42-.14-.13-.28-.25-.42-.39-.16-.15-.3-.31-.45-.47-.13-.14-.25-.28-.37-.43-.14-.17-.27-.35-.39-.53-.11-.15-.22-.31-.32-.46-.12-.19-.23-.38-.34-.58-.09-.16-.18-.33-.27-.5-.1-.21-.19-.42-.27-.63-.07-.17-.15-.34-.21-.52-.08-.23-.14-.46-.21-.7-.05-.18-.11-.35-.15-.54-.06-.25-.09-.52-.14-.78-.03-.18-.06-.35-.08-.53-.03-.3-.04-.6-.05-.91,0-.15-.02-.3-.02-.46,0-.47.02-.94.07-1.43,0,0,0,0,0,0,.09-.19.18-.36.27-.53.28-.51.58-.95.86-1.45.63-1.1,1.29-2.13,1.99-3.11.71-.98,1.46-1.9,2.29-2.79.72-.54,1.26-1.16,1.66-1.83.75-1.24.98-2.67.82-4.2-.09-.92-.32-1.87-.66-2.84-.05-.16-.12-.32-.17-.48-.37-1.05-.8-2.05-1.23-3.05-.24-.56-.48-1.11-.7-1.68-.61-1.54-1.24-3.07-1.91-4.58-.66-1.51-1.35-3-2.07-4.49-1.44-2.97-3-5.9-4.71-8.84-3.27-4.45-6.39-8.06-11.47-10.22,0,0,0,.01.01.02,0,0,0,0,0,0-.01,0-.02-.01-.04-.02.21.64.53,1.15.85,1.64.15.24.32.46.49.67.34.43.71.82,1.09,1.2.75.77,1.52,1.51,2.12,2.46.15.24.29.49.41.76,1.58,2.48,3.02,4.99,4.35,7.56,1.32,2.56,2.53,5.18,3.65,7.85.75,1.79,1.46,3.61,2.14,5.46s1.31,3.75,1.89,5.7c.02.07.02.13.04.19.71,2.15.29,4.05-1.02,5.71-.13.16-.26.33-.39.49-.13.16-.28.32-.44.47-.68.73-1.27,1.46-1.81,2.21-1.62,2.24-2.76,4.58-4.38,7.24-1.48-.88-2.9-1.84-4.28-2.85-.04-.03-.07-.05-.11-.07-.46-.34-.91-.7-1.35-1.06s-.88-.74-1.32-1.1c-.23-.2-.48-.38-.72-.57-.24-.19-.48-.38-.7-.58-2.94-2.62-5.6-5.55-7.96-8.74-1.57-2.13-3.01-4.37-4.31-6.72-1.95-3.52-3.57-7.27-4.86-11.22-.46-1.71-.86-3.42-1.19-5.12s-.58-3.41-.77-5.11c-.09-.85-.17-1.7-.23-2.54-.18-2.52-.21-5.02-.1-7.5.15-3.36.57-6.67,1.24-9.93.21-1.03.46-2.04.72-3.06.28-1.09.59-2.17.93-3.25s.71-2.14,1.1-3.2c.17-.45.35-.9.54-1.34.25-.63.51-1.25.79-1.86.5-1.14,1.03-2.28,1.6-3.4,1.84-3.59,4.03-7.03,6.57-10.3,1.53-1.96,3.13-3.88,4.9-5.71,5.98-5.96,12.68-10.89,19.94-14.73,2.08-1.1,4.2-2.1,6.36-3.02,2.17-.92,4.37-1.74,6.62-2.47s4.53-1.37,6.86-1.91c2.32-.54,4.68-.99,7.07-1.34,1.2-.17,2.4-.32,3.61-.45.8-.06,1.59-.1,2.39-.13.27-.01.54-.01.8-.02.52-.01,1.05-.03,1.57-.03.2,0,.41,0,.61,0,1.16,0,2.32.03,3.47.08.64.03,1.28.08,1.92.13.64.06,1.27.13,1.91.19.12.01.24.03.36.04,5.5.55,10.86,1.71,16.09,3.59,3.2,1.15,6.36,2.57,9.46,4.27,2.12,1.23,4.12,2.58,6.01,4.04,1.89,1.46,3.66,3.02,5.33,4.68,1.67,1.66,3.23,3.41,4.7,5.25,1.47,1.84,2.84,3.77,4.12,5.77,1.75,2.74,3.39,5.58,4.83,8.57.48,1,.93,2.01,1.37,3.05.67,1.77,1.3,3.53,1.88,5.29s1.11,3.52,1.59,5.28c.48,1.76.91,3.54,1.3,5.33s.72,3.6,1.01,5.44c.45,2.88.82,5.81,1.03,8.86,0,0,0,0,0,0,0,0,0,.02,0,.03,1.77,1.04,3.48,2.12,4.82,3.23s2.34,2.26,2.68,3.44c.26.54.49,1.07.67,1.6.57,1.58.82,3.12.8,4.61,0,.13.04.27.04.4,0,.15-.04.29-.08.44ZM141.24,75.04c-.74-5.88-3.34-11.32-7.26-15.65,3.92,4.33,6.52,9.77,7.26,15.65ZM81.53,117.5c-.31-2.53,1.49-3.81,3.31-7.78l-.05.02c-.49,1.05-.97,1.92-1.41,2.66-.15.26-.3.5-.44.73-.17.28-.33.54-.47.79-.18.31-.34.6-.48.89-.25.52-.42,1.01-.49,1.55-.05.35-.03.73.02,1.14,0,.02,0,.03,0,.05.02.16.03.32.07.49,0,0,0,0,.01,0-.04-.17-.06-.33-.09-.48,0-.02,0-.04,0-.06ZM128.17,42.09c.53.37,1.05.76,1.55,1.19-.5-.43-1.02-.82-1.55-1.19ZM121.05,38.98c.55.12,1.09.26,1.63.43-.27-.08-.53-.17-.81-.24-.27-.07-.55-.12-.82-.18ZM124.65,40.12c-.62-.26-1.25-.48-1.89-.68,1.21.38,2.39.88,3.52,1.49-.1-.05-.19-.12-.29-.18-.44-.23-.89-.44-1.34-.63ZM120.77,38.91c-.59-.12-1.18-.23-1.78-.29.6.07,1.19.17,1.78.29ZM122.77,39.43s-.06-.02-.09-.03c.03,0,.06.02.09.03ZM121.05,38.98c-.09-.02-.19-.04-.28-.06.09.02.19.04.28.06ZM76.59,113.61c-.23.09-.47.15-.7.23.24-.08.48-.15.72-.24l.08-.04-.08.04s-.01,0-.02,0ZM110.78,110.92c.07-.1.15-.2.23-.28-.08.09-.15.18-.23.28ZM108.62,114.41c.1-.09.21-.2.32-.31.22-.23.45-.51.67-.84.11-.17.22-.35.33-.54.08-.23.15-.44.24-.64.08-.2.17-.39.26-.56.11-.22.24-.41.37-.59-.34.45-.63,1.03-.88,1.77-.41.78-.88,1.34-1.29,1.71ZM111.01,110.64c.05-.06.1-.11.16-.16-.05.05-.11.1-.16.16ZM111.61,110.15c-.16.09-.3.21-.44.33.14-.13.28-.24.44-.33ZM73.51,114.45c-.41.07-.82.13-1.23.17-.14.01-.27.02-.41.03-.3.02-.6.04-.9.04-.16,0-.33,0-.49,0-.19,0-.39-.01-.58-.02.19.01.39.02.58.02.02,0,.03,0,.05,0,.13,0,.27,0,.4,0,.35,0,.7-.02,1.06-.05.09,0,.18,0,.26-.02.43-.04.87-.1,1.3-.18.11-.02.22-.04.32-.07.15-.03.31-.07.46-.11-.13.03-.25.06-.38.09-.15.03-.3.06-.44.09ZM130.17,92.5s0,0,0,0c-.09-.15-.18-.31-.27-.49-.09-.17-.17-.36-.25-.58,0,0,0,0,0,0,.16.43.34.75.52,1.06ZM129.64,91.43s0,.01,0,.02c.93-.14,1.8-.34,2.61-.59s1.56-.55,2.26-.89c0,0,0,0,0,0-1.4.69-3.01,1.18-4.87,1.46ZM133.64,96.43c.79-.19,1.57-.45,2.34-.79.39-.17.77-.36,1.15-.58,0,0,0,0-.01,0-1.52.86-3.08,1.37-4.67,1.6.4-.06.79-.13,1.19-.23ZM134.77,94.29c-.62-.05-1.23-.04-1.81-.09-.29-.02-.57-.06-.84-.13-.14-.03-.27-.07-.4-.12-.26-.1-.51-.24-.75-.43-.24-.19-.46-.43-.67-.74,1.69,2.49,4.28.65,6.82,2.27,0,0,0,0,0,0,0,0,.01,0,.02,0h0c-.6-.38-1.2-.58-1.79-.68-.2-.03-.39-.06-.59-.07ZM69.33,114.63c-.07,0-.13-.02-.2-.03.07,0,.13.02.2.03,0,0,.01,0,.02,0,.12.01.25.02.37.02.06,0,.12,0,.19,0-.04,0-.08,0-.12,0-.15,0-.3-.02-.45-.03ZM74.86,114.15s.03,0,.05-.01c.13-.03.25-.07.38-.1,0,0,.02,0,.03,0,.19-.06.38-.13.58-.19-.19.06-.38.13-.58.19-.15.04-.3.08-.45.12ZM74.34,114.27c.17-.04.35-.08.52-.12,0,0,0,0,0,0,0,0,0,0,0,0-.17.05-.35.08-.52.12ZM68.2,114.49s0,0,0,0c.3.05.61.09.92.12-.31-.03-.62-.07-.92-.12,0,0,0,0,0,0ZM119.02,109.26c-.03.07-.06.13-.1.2-.05.08-.1.16-.16.24-.31.42-.8.77-1.51,1.01.45-.15.83-.33,1.11-.56.11-.09.22-.19.3-.3.04-.05.07-.11.1-.16.06-.08.11-.16.16-.24.02-.03.05-.06.06-.1.02-.03.02-.07.04-.1.06-.14.11-.29.15-.45,0,0,0,0,0,0,0,.05-.03.09-.04.13-.03.11-.06.22-.11.33ZM112.7,109.84s0,0,0,0c0,0,0,0,0,0,.04,0,.1,0,.16.02.06.01.14.03.22.05.17.04.39.11.67.2.14.05.3.1.47.15.39.13.87.29,1.46.48.2.06.4.13.62.2.24-.04.45-.08.65-.14.06-.02.11-.04.17-.06-.25.08-.53.14-.84.19-2.37-.79-3.26-1.11-3.58-1.11ZM117.25,110.71s-.09.03-.14.05c.05-.01.09-.03.14-.05ZM137.62,87.67c-.17.18-.35.35-.53.52.18-.17.36-.34.53-.52ZM136.58,88.64c-.11.08-.22.16-.33.24.11-.08.22-.16.33-.24ZM136.79,88.49c.11-.09.2-.2.31-.3-.17.15-.34.31-.52.45.07-.05.14-.1.21-.15ZM136.25,88.89c-.21.16-.42.31-.65.46.23-.14.43-.3.65-.46ZM139.82,84.45c.2-.42.39-.85.55-1.3-.16.45-.35.88-.55,1.3ZM138.09,87.17c-.15.17-.31.34-.47.5.16-.17.32-.33.47-.5ZM135.6,89.35c-.34.22-.69.42-1.07.61.37-.19.73-.39,1.07-.61ZM134.52,89.96s.01,0,.02-.01c0,0,0,0-.01,0,0,0,0,0,0,0ZM138.82,86.22c-.22.33-.47.65-.73.95.26-.3.5-.62.73-.95ZM139.56,84.96c-.13.25-.27.49-.41.73.14-.24.28-.48.41-.73ZM139.14,85.69c-.11.18-.21.36-.33.53.12-.17.22-.35.33-.53ZM139.82,84.45c-.08.17-.17.35-.26.52.09-.17.18-.34.26-.52ZM62.9,112.41c-.76-.5-1.49-1.08-2.16-1.73.67.65,1.39,1.23,2.16,1.73ZM65.46,113.73c.11.04.23.07.35.12-.18-.06-.36-.13-.53-.2.06.03.12.06.18.08ZM66.52,114.08c-.24-.07-.47-.15-.71-.23.23.08.47.16.71.23ZM66.98,114.22c-.16-.04-.31-.09-.46-.13.15.05.31.09.46.13ZM68.2,114.49c-.41-.07-.82-.16-1.22-.27.4.11.81.2,1.22.27ZM65.28,113.65c-.35-.14-.7-.3-1.04-.47.34.17.69.33,1.04.47ZM81.62,118.04s0,.02,0,.03c.76-.53,1.48-1.08,2.15-1.66.67-.58,1.29-1.18,1.87-1.8.87-.93,1.64-1.92,2.33-2.95.13-.2.24-.42.36-.62-1.63,2.65-3.83,5.01-6.71,7ZM91.55,102.52c.08-.41.14-.83.2-1.25-.07.51-.16,1.01-.26,1.51.02-.09.04-.17.06-.25ZM89.21,109.54c.11-.21.19-.43.29-.65-.2.43-.42.85-.65,1.26.11-.21.25-.4.36-.61ZM90.21,107.3c.08-.2.13-.41.2-.61-.15.42-.31.83-.48,1.23.09-.21.2-.41.28-.62Z"/>
        <path class="cls-3" d="M74.35,85.05c-2.83,3.97-1.67,9.5,2.69,11.92,2.47.48,4.42-.21,5.24-1.25,1.26-1.86,1.71-3.97.94-7.01-1.88-4.52-5.64-5.89-8.87-3.65ZM118.89,68.48c-2.17,0-4.03,1.22-5.01,2.99-.33.6-.56,1.26-.65,1.97-.04.26-.08.51-.08.78,0,1.57.63,2.98,1.65,4.02.48.49,1.05.88,1.68,1.17.74.34,1.55.55,2.42.55,3.17,0,5.74-2.57,5.74-5.74s-2.57-5.74-5.74-5.74ZM155.86,89.01c.02-1.12-.12-2.26-.43-3.43-.1-.39-.23-.78-.37-1.18-.19-.53-.41-1.06-.67-1.6-.17-.59-.51-1.17-.97-1.75-.46-.57-1.04-1.14-1.72-1.69-1.35-1.11-3.05-2.19-4.82-3.23,0,0,0-.02,0-.03,0,0,0,0,0,0-.21-3.05-.58-5.98-1.03-8.86-.29-1.84-.63-3.65-1.01-5.44s-.82-3.57-1.3-5.33c-.48-1.76-1.01-3.52-1.59-5.28s-1.2-3.52-1.88-5.29c-.43-1.04-.89-2.05-1.37-3.05-.36-.75-.73-1.49-1.11-2.22-1.15-2.19-2.4-4.3-3.71-6.35-1.28-2-2.65-3.93-4.12-5.77s-3.03-3.59-4.7-5.25c-1.67-1.66-3.44-3.22-5.33-4.68-1.89-1.46-3.89-2.8-6.01-4.04-.78-.43-1.55-.84-2.34-1.23-2.34-1.17-4.72-2.19-7.12-3.05-5.23-1.88-10.59-3.03-16.09-3.59-.12-.01-.24-.03-.36-.04-.64-.06-1.27-.13-1.91-.19-.64-.06-1.28-.11-1.92-.13-1.15-.05-2.31-.07-3.47-.08-.2,0-.4,0-.61,0-.52,0-1.04.01-1.57.03-.27,0-.54,0-.8.02-.79.03-1.59.07-2.39.13-1.21.13-2.41.28-3.61.45-2.39.35-4.75.79-7.07,1.34-2.32.54-4.61,1.18-6.86,1.91s-4.45,1.55-6.62,2.47c-2.17.92-4.29,1.92-6.36,3.02-7.27,3.84-13.96,8.78-19.94,14.73-1.78,1.82-3.38,3.75-4.9,5.71-2.55,3.27-4.74,6.72-6.57,10.3-.57,1.12-1.1,2.25-1.6,3.4-.27.62-.53,1.24-.79,1.86-.18.45-.37.89-.54,1.34-.8,2.11-1.47,4.26-2.03,6.44-.26,1.01-.51,2.03-.72,3.06-.67,3.25-1.09,6.57-1.24,9.93-.11,2.48-.08,4.98.1,7.5.06.85.14,1.69.23,2.54.19,1.7.45,3.4.77,5.11s.72,3.41,1.19,5.12c1.29,3.94,2.92,7.7,4.86,11.22,1.3,2.35,2.74,4.59,4.31,6.72,2.36,3.19,5.02,6.12,7.96,8.74.23.2.47.39.7.58.24.19.48.38.72.57.44.37.88.74,1.32,1.1s.89.72,1.35,1.06c.04.03.07.05.11.07,1.38,1.01,2.8,1.96,4.28,2.85,1.61-2.66,2.76-5,4.38-7.24.54-.75,1.13-1.48,1.81-2.21.17-.15.31-.31.44-.47.13-.16.26-.33.39-.49,1.31-1.66,1.73-3.56,1.02-5.71-.02-.07-.02-.13-.04-.19-.59-1.95-1.22-3.84-1.89-5.7s-1.39-3.67-2.14-5.46c-1.12-2.68-2.33-5.29-3.65-7.85-1.32-2.56-2.76-5.08-4.35-7.56-.12-.27-.26-.52-.41-.76-.6-.95-1.37-1.7-2.12-2.46-.38-.38-.75-.78-1.09-1.2-.17-.21-.34-.44-.49-.67-.33-.49-.64-1-.85-1.64.01,0,.02.01.04.02,0,0,0,0,0,0,0,0,0-.01-.01-.02,5.07,2.15,8.2,5.77,11.47,10.22,1.71,2.93,3.27,5.86,4.71,8.84.72,1.49,1.41,2.98,2.07,4.49.66,1.51,1.3,3.03,1.91,4.58.22.57.46,1.12.7,1.68.43,1,.86,2,1.23,3.05.06.16.12.32.17.48.34.97.56,1.92.66,2.84.15,1.53-.07,2.96-.82,4.2-.4.67-.94,1.28-1.66,1.83-.83.88-1.59,1.81-2.29,2.79-.71.98-1.36,2.01-1.99,3.11-.28.5-.58.94-.86,1.45-.09.17-.18.34-.27.53,0,0,0,0,0,0-.05.49-.07.96-.07,1.43,0,.16.02.3.02.46.01.31.02.61.05.91.02.18.06.35.08.53.04.26.08.52.14.78.04.18.1.36.15.54.07.23.13.47.21.7.06.18.14.35.21.52.09.21.17.43.27.63.08.17.18.33.27.5.11.2.22.39.34.58.1.16.21.31.32.46.13.18.26.36.39.53.12.15.24.29.37.43.15.16.29.32.45.47.14.13.28.26.42.39.16.14.33.29.5.42.15.12.3.23.46.34.18.13.36.25.55.37.16.1.33.2.5.3.2.11.4.21.6.31.18.08.35.17.53.25.21.09.43.17.65.25.19.07.37.13.56.19.23.07.46.13.69.19.19.05.39.1.58.14.24.05.49.08.74.12.2.03.4.06.6.08.26.03.52.04.79.05.2,0,.4.03.61.03.45,0,.9,0,1.36-.04l3.53-1.25,4.76-1.71c.52-.28,1.04-.55,1.56-.81,1.04-.51,2.07-.98,3.1-1.44.51-.23,1.03-.46,1.54-.7,1.11-.51,2.21-1,3.33-1.47,3.35-1.41,6.77-2.61,10.47-3.47.42-.08.82-.15,1.2-.21.05,0,.1-.02.15-.02.36-.05.7-.07,1.02-.08.07,0,.14,0,.21,0,.12,0,.24.01.36.02.09,0,.17.01.26.02.12.02.24.04.35.07.08.02.16.03.23.05.13.04.25.09.37.14.06.02.12.04.18.07.18.09.35.18.53.3.01,0,.03.01.05.02.02,0,.03,0,.05.02.13.08.25.17.36.28.23.21.42.48.6.79.17.31.32.67.46,1.07.2.6.35,1.29.48,2.06.21.27.43.52.65.75.07.08.15.14.23.21.16.15.31.3.48.43.1.08.2.14.3.21.15.11.3.23.46.32.11.07.24.13.35.19.16.08.31.17.48.25.13.06.27.1.4.15.17.06.34.13.51.18.14.04.3.07.45.11.18.04.36.09.55.12.16.03.33.05.5.07.2.02.39.05.6.07.18.01.37.02.56.02.27,0,.53.02.82.02.48.08.96.14,1.42.17.16.01.31.01.46.02.3.02.61.03.9.04.4,0,.79,0,1.18-.03.05,0,.1,0,.15-.01.34-.02.67-.05,1.01-.09.13-.02.26-.04.39-.05.25-.03.5-.07.74-.11.14-.02.29-.05.43-.08.23-.04.46-.09.69-.14.14-.03.28-.06.42-.09.23-.05.47-.11.7-.17.13-.03.26-.06.38-.1.28-.07.55-.15.82-.22.08-.02.15-.04.23-.06.39-.11.79-.22,1.18-.33.3-.08.59-.17.89-.25.12-.03.24-.07.37-.1.24-.06.47-.13.71-.19.14-.04.28-.07.42-.1.23-.06.46-.11.68-.16.14-.03.28-.06.42-.09.24-.05.48-.1.73-.14.13-.02.26-.05.39-.07.33-.06.66-.1,1-.14.04,0,.08-.01.13-.02.38-.04.76-.08,1.15-.1.12,0,.24,0,.35-.01.33-.01.66-.02,1-.02h0s-.02.02-.03.03c0,0,0,0,0,0,0,0,0,0,.01,0-1.3,1.51-2.76,2.74-4.33,3.75-.78.5-1.6.95-2.44,1.34s-1.7.73-2.58,1.03c0,0,0,0,0,0-.66.22-1.34.41-2.02.57-.16.04-.32.08-.49.12-.68.15-1.36.29-2.05.39-.07.01-.14.02-.2.03-.64.09-1.3.16-1.95.21-.16.01-.33.03-.49.04-.7.05-1.41.07-2.12.07-.09,0-.18,0-.27,0-.92,0-1.85-.04-2.78-.11-.4-.03-.8-.08-1.2-.13-.4-.05-.8-.1-1.2-.16-.36-.05-.72-.07-1.07-.13h0s-.02,0-.03,0c-.26-.1-.49-.21-.72-.33-.23-.12-.45-.24-.68-.36-2.76-1.38-4.59-3.34-6.12-5.89-5.12.88-9.81,2.63-14.21,5,.43.37.77.73,1.17,1.09.67.59,1.31,1.18,1.92,1.77,1.23,1.18,2.35,2.36,3.41,3.55,1.06,1.19,2.05,2.4,3,3.64,1.43,1.86,2.78,3.79,4.15,5.84,0,0,0,0,0,0,.26.45.54.86.84,1.24.03.04.06.08.09.12.29.36.59.69.91,1,.05.05.09.09.14.14.31.29.64.56.98.8.06.04.11.08.17.12.34.23.7.45,1.06.63.06.03.12.06.18.09.38.18.76.35,1.16.49.05.02.1.03.14.05.42.14.84.26,1.28.35.01,0,.03,0,.04,0,.44.09.89.16,1.35.2.04,0,.07,0,.11.01.45.04.91.06,1.37.06.07,0,.15,0,.22,0,.33,0,.65-.01.99-.03.08,0,.16,0,.24,0,.08,0,.15,0,.23,0,1.62-.09,3.23-.24,4.82-.44,4.76-.6,9.37-1.67,13.94-2.96,3.8-1.08,7.58-2.29,11.38-3.62,9.24-4.38,18.12-9.1,23.27-17.56-3.35-1.66-5.51-3.98-6.16-6.85,0-.04-.03-.07-.04-.11-.04-.17-.03-.36-.05-.54-.24-1.62-.05-3.39.7-5.32-.3-.32-.6-.64-.88-.96-.57-.64-1.09-1.28-1.54-1.91-.45-.63-.84-1.25-1.13-1.85-.44-.9-.67-1.77-.62-2.58-.03-.44-.03-.86,0-1.26.03-.4.09-.79.17-1.16,0-.01,0-.03,0-.04.03-.14.09-.27.14-.4s.12-.25.17-.39c.25-.7.6-1.36,1.02-1.98.28-.41.6-.8.95-1.18.52-.57,1.11-1.11,1.76-1.62.24-.08.48-.18.7-.28.45-.21.86-.45,1.2-.75s.64-.64.85-1.05c.11-.2.19-.42.26-.66.06-.24.11-.49.13-.76.02-.27.02-.56-.01-.86.01-.29.04-.57.08-.84.11-.8.32-1.52.61-2.18.05-.11.09-.22.14-.32.17-.35.38-.68.61-.97.47-.59,1.04-1.08,1.68-1.48.32-.2.66-.38,1.01-.55,0,0,0,0,0,0,.33-.16.67-.29,1.02-.42.11-.04.23-.07.34-.1.25-.08.5-.15.76-.2.14-.03.29-.05.43-.08.25-.04.51-.07.77-.09.15-.01.31-.02.46-.03.38-.01.77-.01,1.18.03,0,0,0,0,0,0,1.16-1.6,1.75-3.31,1.99-5.09.02-.15.06-.29.1-.44.04-.14.07-.29.08-.44,0-.13-.04-.27-.04-.4ZM53.68,72.04c-.64.83-1.25,1.7-1.85,2.61-.3.46-.59.93-.87,1.41,0,0,0,0,0,0,0,0,0,0,0,.01,0,0,0,0-.01.02-.14.15-.28.28-.41.38-.13.11-.25.2-.37.27-.01,0-.03.03-.04.03-.13.08-.26.12-.38.14-.03,0-.06.01-.08.01-.12.01-.23,0-.34-.04,0,0-.01,0-.02-.01-.1-.04-.2-.11-.29-.19-.03-.02-.05-.05-.08-.07-.1-.1-.2-.22-.29-.36-.09-.13-.17-.25-.26-.4-.04-.07-.08-.13-.12-.22.15-.41.31-.82.47-1.23.06-.16.12-.32.18-.47.27-.72.55-1.44.84-2.15,1.36-3.33,3.02-6.53,5.44-9.22.48-.54.98-1.06,1.51-1.56.53-.5,1.09-.98,1.71-1.42.69-.48,1.34-.95,2-1.41.29-.21.58-.41.86-.6.09-.06.18-.12.27-.18.2-.13.4-.26.61-.39.11-.07.22-.13.33-.19.19-.11.37-.21.56-.31.12-.06.24-.12.36-.18.19-.09.38-.17.57-.25.12-.05.24-.1.37-.15.2-.08.41-.14.62-.2.12-.03.23-.07.35-.1.26-.06.52-.11.79-.15.08-.01.15-.03.23-.04.34-.04.7-.06,1.06-.06.41,0,.83.03,1.27.09.44.11.82.25,1.16.42s.61.36.85.58c.16.13.29.28.41.42.34.45.5.96.41,1.51,0,.17-.03.32-.07.47-.04.18-.11.35-.19.51-.12.24-.27.47-.46.67-.02.02-.01.05-.03.07-.08.08-.18.15-.29.21s-.22.12-.32.19c-.35.26-.68.54-1.12.73-2.11.67-4.09,1.52-5.96,2.58-.62.35-1.23.73-1.83,1.12-1.19.79-2.34,1.68-3.43,2.66-1.09.98-2.13,2.05-3.12,3.23-.33.39-.65.79-.97,1.2ZM91.91,99.95c-.05.44-.1.88-.17,1.32-.06.42-.12.84-.2,1.25-.3,1.66-.74,3.25-1.33,4.78-.3.76-.63,1.51-1,2.24s-.79,1.43-1.24,2.12c-.68,1.03-1.45,2.02-2.33,2.95-.58.62-1.21,1.22-1.87,1.8-.67.58-1.38,1.13-2.15,1.66,0-.01,0-.02,0-.03,0,0,0,0-.01,0-.3-1.27-.1-2.22.38-3.23.14-.29.3-.58.48-.89.15-.25.31-.52.47-.79.14-.23.29-.47.44-.73.44-.75.93-1.61,1.41-2.66l-8.11,3.82-.08.04c-.44.17-.88.31-1.32.43-.13.04-.25.07-.38.1-.34.09-.69.17-1.03.24-.11.02-.22.05-.32.07-.44.08-.87.14-1.3.18-.09,0-.18.01-.26.02-.35.03-.71.04-1.06.05-.13,0-.27,0-.4,0-.27,0-.54-.02-.81-.03-.12,0-.25-.01-.37-.02-.38-.03-.76-.08-1.14-.14,0,0,0,0,0,0-.47-.08-.94-.18-1.39-.31-.46-.13-.91-.27-1.35-.45-2.64-1.02-4.95-2.85-6.68-5.37-.22-.32-.43-.63-.64-.96-.21-.33-.4-.67-.58-1.03-5.21-10.84-3.27-23.98,5.56-32.32.08-.07.17-.13.26-.19s.18-.12.26-.18c.36-.29.74-.56,1.11-.81.13-.08.26-.16.38-.24.25-.16.5-.32.76-.46.15-.08.31-.16.46-.24.23-.12.47-.24.7-.34.17-.07.34-.14.5-.21.23-.09.46-.18.69-.26.17-.06.35-.11.52-.16.23-.07.45-.13.68-.19.18-.04.36-.08.54-.12.23-.05.46-.09.69-.12.18-.03.36-.05.54-.07.23-.03.46-.04.69-.06.18-.01.36-.02.54-.02.2,0,.41,0,.61,0,.25,0,.5.02.75.04.2.02.39.04.59.06.25.03.49.07.74.11.2.04.39.07.59.12.24.06.49.12.73.19.19.05.39.11.58.17.24.08.48.17.72.26.19.07.38.14.56.23.24.11.48.22.72.34.18.09.36.17.54.27.25.14.49.29.74.44.16.1.33.19.49.3.27.18.53.38.79.57.13.1.27.19.4.29.39.31.77.64,1.15.99.36.36.71.73,1.05,1.11.67.76,1.3,1.55,1.88,2.38.29.41.57.83.84,1.26.41.65.79,1.33,1.15,2.01.35.66.68,1.33.98,2.01.2.46.4.93.58,1.41.6,1.54,1.09,3.13,1.48,4.75.49,2.01.84,4.07,1,6.17.02,1.39-.05,2.75-.2,4.08ZM106.07,43.67c.01-.15.04-.3.07-.47,0-.03.02-.07.03-.11.14-.64.45-1.42.94-2.39,0,0,0,0,0,0,0,0,0-.01,0-.02.43-.22.86-.41,1.3-.6.14-.06.27-.11.41-.16.31-.12.62-.24.93-.34.15-.05.31-.1.46-.15.32-.1.65-.19.97-.28.13-.03.26-.07.39-.1.45-.11.9-.2,1.36-.28.07-.01.14-.02.21-.03.39-.06.78-.11,1.17-.15.15-.02.3-.03.45-.04.32-.03.63-.04.95-.06.16,0,.31-.01.47-.01.32,0,.64,0,.96.01.15,0,.3,0,.45.01.46.02.93.06,1.39.11.97.11,1.94.29,2.89.54.95.25,1.88.57,2.78.95.45.19.9.4,1.34.63.66.34,1.3.73,1.92,1.15.62.42,1.23.88,1.81,1.39.8.69,1.58,1.43,2.29,2.27-.55-.06-1.1-.12-1.64-.19-.18-.02-.35-.05-.53-.07-.37-.05-.74-.11-1.1-.16-.2-.03-.39-.06-.58-.09-.38-.06-.75-.12-1.12-.18-.62-.1-1.24-.21-1.86-.31-.02,0-.04,0-.06,0-.48-.08-.95-.15-1.42-.22-.15-.02-.3-.04-.45-.06-.35-.05-.7-.09-1.05-.13-.17-.02-.34-.04-.52-.06-.35-.04-.71-.07-1.06-.09-.15-.01-.3-.02-.45-.03-.5-.03-1-.05-1.49-.05-.39,0-.77.01-1.16.03-.11,0-.22.01-.34.02-.29.02-.59.05-.88.08-.12.01-.24.03-.36.04-.38.05-.77.11-1.16.18-.02,0-.03,0-.05,0-.4.08-.81.18-1.21.28-.12.03-.24.07-.36.1-.31.09-.61.18-.92.29-.12.04-.25.08-.37.13-.42.15-.84.32-1.27.5-.23.1-.45.18-.67.25-.06.02-.12.03-.18.05-.17.05-.34.08-.5.11-.04,0-.08.02-.12.02-.19.02-.36.03-.53.03-.23,0-.45-.03-.66-.08-.04-.01-.08-.03-.13-.04-.16-.05-.31-.11-.46-.18-.06-.03-.12-.07-.17-.1-.12-.08-.24-.17-.35-.27-.05-.04-.09-.08-.14-.13-.15-.15-.28-.31-.4-.49,0,0,0,0,0,0-.03-.04-.05-.1-.07-.15-.07-.15-.13-.3-.15-.49-.01-.13-.01-.26,0-.41ZM119.17,108.8c-.08.39-.24.75-.51,1.06-.09.1-.19.2-.3.3-.46.37-1.12.65-2.06.81-.88-.28-1.56-.51-2.08-.68-.17-.06-.33-.11-.47-.15-.28-.09-.5-.16-.67-.2-.09-.02-.16-.04-.22-.05-.06-.01-.12-.02-.16-.02-.14,0-.27.03-.39.05-.03,0-.07,0-.1.01,0,0,0,0,0,0-.77.18-1.33.72-1.78,1.6-.18.35-.34.75-.49,1.2-.11.19-.21.37-.33.54-.22.33-.45.61-.67.84-.11.12-.22.22-.32.31-.01.01-.03.03-.05.05-.1.09-.2.17-.29.24,0,0-.01.01-.02.02-.03.03-.06.04-.09.06-.06.04-.11.08-.16.11-.03.02-.05.03-.07.04-.04.02-.07.04-.1.05-.02,0-.03.01-.04.01-.02,0-.05.01-.05,0-.3.09-.58.15-.84.18-.08.01-.16.01-.24.02-.18.02-.35.02-.51.02-.08,0-.15-.01-.23-.02-.15-.02-.3-.05-.43-.08-.06-.02-.13-.03-.19-.05-.17-.06-.33-.13-.47-.22-.02-.01-.04-.02-.06-.03-.17-.11-.32-.23-.47-.37-.04-.04-.08-.09-.12-.13-.1-.11-.2-.22-.29-.35-.04-.06-.09-.12-.13-.18-.09-.13-.17-.27-.26-.41-.04-.06-.07-.12-.11-.18-.11-.21-.22-.42-.33-.66-.09-1.1-.16-2.2-.18-3.3-.02-.73-.02-1.46,0-2.18.05-1.44.19-2.86.5-4.23.53-2.4,1.53-4.66,3.31-6.65,0,0,0,0,0,0,0,0,0-.01,0-.01.81.27,1.54.6,2.26.95.35.17.71.35,1.05.53.32.18.62.37.92.56.3.2.58.4.87.61.77.54,1.48,1.14,2.17,1.76.36.32.71.65,1.05.99s.68.69,1,1.05c.42.47.84.96,1.24,1.47.5.62,1.01,1.23,1.5,1.89.43,1.01.6,1.99.41,2.83ZM141.18,80.5c-.12.43-.26.85-.38,1.28-.73,2.71-2,5.02-4.02,6.71-.67.56-1.43,1.06-2.27,1.47-.7.35-1.45.65-2.26.89s-1.68.44-2.61.59c.08.22.16.41.25.58.09.17.18.33.27.49.05.08.09.2.13.27.21.31.44.55.67.74.24.19.49.33.75.43.13.05.26.09.4.12.27.07.55.1.84.13.58.05,1.18.03,1.81.09.78.07,1.58.24,2.38.75h0s-.01,0-.02,0c0,0,0,0,0,0,0,0,0,0,.01,0-.38.21-.77.41-1.15.58-.77.34-1.56.6-2.34.79-.39.09-.79.17-1.19.23-.06,0-.12.03-.18.04-.56.07-1.13.11-1.69.11-.04,0-.07,0-.11,0-.49,0-.98-.03-1.47-.09-.08,0-.16-.02-.24-.03-.48-.06-.95-.14-1.43-.24-.09-.02-.17-.04-.26-.06-.48-.11-.96-.24-1.43-.4-.06-.02-.12-.04-.18-.06-.48-.16-.96-.34-1.44-.55-.02,0-.05-.02-.07-.03-.48-.21-.96-.44-1.44-.69-.07-.04-.15-.07-.22-.11-.46-.24-.91-.51-1.36-.79-.08-.05-.16-.1-.24-.15-.45-.29-.89-.58-1.33-.9-.06-.05-.13-.09-.19-.14-.46-.34-.91-.69-1.36-1.05-.51-.48-1-.98-1.47-1.48-.47-.51-.93-1.03-1.37-1.56-2.19-2.66-3.95-5.63-5.23-8.77-.26-.63-.49-1.26-.71-1.9-.22-.66-.43-1.32-.61-1.99s-.34-1.35-.48-2.03c-.28-1.36-.47-2.74-.57-4.12-.05-.69-.08-1.39-.08-2.08,0-.52,0-1.04.03-1.57.07-1.57.25-3.14.56-4.69.15-.47.32-.92.51-1.36.19-.44.39-.86.6-1.27,0,0,0-.01,0-.02,0-.02.01-.03.02-.05.05-.09.12-.16.17-.25.26-.46.54-.89.83-1.31.08-.11.16-.22.24-.32.27-.36.55-.7.84-1.02.04-.05.08-.1.13-.15.34-.36.69-.68,1.06-.99.09-.08.19-.15.29-.23.31-.25.64-.48.97-.69.08-.05.16-.11.24-.16.4-.24.82-.46,1.26-.65.1-.05.21-.08.31-.13.36-.15.73-.28,1.11-.39.11-.03.22-.07.33-.1.46-.12.93-.22,1.42-.29.09-.01.19-.02.28-.03.41-.05.83-.08,1.25-.08.15,0,.29,0,.44,0,.24,0,.49.02.73.04.18.01.36.02.54.04.26.03.52.07.78.11.17.03.34.05.52.09.29.06.59.13.88.21.15.04.29.07.44.11.44.13.88.28,1.33.45,0,0,.01,0,.02,0,.66.32,1.3.67,1.91,1.05.62.37,1.22.77,1.8,1.19,1.04.73,2.04,1.51,2.96,2.36.66.61,1.28,1.24,1.88,1.9,3.93,4.32,6.53,9.77,7.26,15.65.17,1.35.25,2.73.23,4.11-.06.48-.16.92-.29,1.35Z"/>
      </g>
      <path class="cls-1" d="M91.2,90.12c-.03-.14-.06-.27-.09-.41-.1-.43-.23-.85-.35-1.27-.09-.33-.17-.66-.27-.99-.26-.84-.54-1.68-.86-2.49-.18-.47-.38-.94-.58-1.41-.05-.11-.11-.22-.16-.33-.22-.47-.44-.94-.68-1.4-.05-.09-.09-.19-.14-.28-.06-.11-.13-.21-.18-.32-.17-.32-.35-.63-.53-.93-.14-.25-.28-.51-.43-.75-.27-.43-.55-.85-.84-1.26-.58-.82-1.21-1.62-1.88-2.38-.34-.38-.68-.75-1.05-1.11-.38-.35-.76-.68-1.15-.99-.13-.1-.27-.19-.4-.29-.26-.2-.53-.4-.79-.57-.16-.11-.33-.2-.49-.3-.25-.15-.49-.3-.74-.44-.18-.1-.36-.18-.54-.27-.24-.12-.48-.24-.72-.34-.19-.08-.38-.15-.56-.23-.24-.09-.48-.18-.72-.26-.19-.06-.39-.12-.58-.17-.24-.07-.48-.13-.73-.19-.2-.04-.39-.08-.59-.12-.25-.04-.49-.08-.74-.11-.2-.02-.39-.05-.59-.06-.09,0-.19,0-.28-.01-.01,0-.02,0-.03,0-.14,0-.29-.02-.43-.02-.2,0-.41-.01-.61,0-.18,0-.36.01-.54.02-.23.01-.46.03-.69.06-.08,0-.16.02-.24.03,0,0,0,0,0,0-.1.01-.19.02-.29.04-.23.03-.46.08-.69.12-.18.04-.36.07-.54.12-.23.06-.46.12-.68.19-.18.05-.35.1-.52.16-.23.08-.46.17-.69.26-.1.04-.2.08-.3.12-.02,0-.05.02-.07.03-.04.02-.09.04-.13.05-.24.11-.47.23-.7.34-.11.05-.22.11-.32.17-.01,0-.03.01-.04.02-.03.02-.07.03-.1.05-.26.14-.51.3-.76.46-.1.07-.21.12-.31.19,0,0-.02.01-.03.02-.02.01-.03.02-.05.03-.38.25-.75.52-1.11.81-.09.07-.17.12-.26.18s-.17.12-.26.19c-8.83,8.34-10.77,21.48-5.56,32.32.18.36.37.7.58,1.03.21.33.42.65.64.96,2.32,3.37,5.66,5.49,9.42,6.13,0,0,0,0,0,0,.37.06.74.11,1.12.14.15.01.3.02.45.03.23.01.47.03.7.03.16,0,.33,0,.49,0,.3,0,.6-.02.9-.04.14-.01.27-.01.41-.03.41-.04.82-.1,1.23-.17.15-.03.3-.06.44-.09.3-.06.6-.13.9-.21.15-.04.3-.08.45-.12.43-.12.85-.26,1.27-.42,0,0,.01,0,.02,0l.08-.04,8.13-3.86s-.01.02-.02.03l.05-.02c-1.95,4.25-3.87,5.42-3.22,8.32,6.07-4.2,9.16-10.03,10.12-16.77.06-.44.12-.88.17-1.32.04-.41.07-.82.1-1.23,0-.04,0-.07,0-.11.06-.9.1-1.81.09-2.74-.14-1.83-.43-3.62-.83-5.38-.03-.13-.06-.25-.08-.37ZM82.28,95.72c-.82,1.04-2.78,1.74-5.24,1.25-4.36-2.42-5.52-7.95-2.69-11.92,3.22-2.24,6.99-.87,8.87,3.65.77,3.05.32,5.16-.94,7.01ZM61.2,64.96c2.39-1.59,4.98-2.81,7.79-3.7.44-.19.76-.47,1.12-.73.1-.07.21-.13.32-.19s.21-.12.29-.21c.02-.02.01-.05.03-.07.1-.11.2-.23.28-.36.07-.1.12-.21.18-.32,0,0,0,0,0,0,.08-.16.15-.32.19-.5.04-.15.06-.31.07-.47.09-.56-.07-1.06-.41-1.51-.11-.15-.25-.29-.41-.42-.24-.21-.52-.41-.85-.58s-.72-.31-1.16-.42c-.26-.04-.5-.04-.75-.06-.08,0-.17-.02-.25-.02-.09,0-.18-.02-.27-.02-.14,0-.27.02-.41.02-.1,0-.19,0-.28.02-.12,0-.25,0-.37.02-.08,0-.15.03-.23.04-.01,0-.03,0-.04,0-.09.01-.19.04-.28.05-.16.03-.31.05-.46.09-.12.03-.24.07-.35.1-.21.06-.41.13-.62.2-.12.05-.25.1-.37.15-.19.08-.38.16-.57.25-.06.03-.12.06-.17.09,0,0-.02,0-.02.01-.05.03-.11.05-.16.08-.19.1-.38.2-.56.31-.11.06-.22.13-.33.19-.12.07-.23.15-.35.22,0,0,0,0-.01,0-.08.05-.17.1-.25.16-.09.06-.18.12-.27.18-.29.19-.58.39-.86.6-.65.46-1.3.93-2,1.41-.61.44-1.18.92-1.71,1.42-.1.09-.18.2-.28.29-.42.41-.83.83-1.22,1.26,0,0,0,0,0,0-2.42,2.69-4.09,5.89-5.44,9.22-.06.15-.12.31-.18.47-.23.56-.44,1.12-.66,1.69-.06.16-.12.32-.18.47-.16.41-.33.82-.47,1.23.04.09.08.15.12.22.02.03.04.06.06.09.07.11.13.2.2.31.1.15.19.26.29.36.03.03.05.05.08.07.1.08.19.15.29.19,0,0,.01,0,.02.01.11.04.22.05.34.04,0,0,0,0,.01,0,.02,0,.04,0,.07-.01,0,0,0,0,0,0,.12-.02.24-.06.38-.14.01,0,.03-.02.04-.03.12-.07.24-.16.37-.27.13-.11.26-.23.41-.38,0,0,0-.01.01-.02,0,0,0,0,0-.01,0,0,0,0,0,0,.29-.48.58-.95.87-1.41.59-.92,1.21-1.79,1.85-2.61.32-.41.64-.81.97-1.2,1.98-2.35,4.16-4.3,6.55-5.88ZM106.17,44.42s.02.11.04.15c.02.05.04.1.07.15,0,0,0,0,0,0,.12.18.26.34.4.49.04.04.09.08.14.13.11.1.23.19.35.27.06.04.11.07.17.1.02.01.05.02.07.03.06.03.13.06.2.08.06.02.12.05.18.07.04.01.08.03.13.04.09.02.2.02.3.04,0,0,0,0,.01,0,.11.01.22.04.34.04.17,0,.35,0,.53-.03.04,0,.08-.02.12-.02.16-.03.33-.06.5-.11.06-.02.12-.03.18-.05.22-.07.44-.14.67-.25.43-.19.85-.35,1.27-.5.12-.04.25-.09.37-.13.31-.11.62-.2.92-.29.12-.03.24-.07.36-.1.41-.11.81-.2,1.21-.28.02,0,.03,0,.05,0,.39-.07.77-.13,1.16-.18.12-.02.24-.03.36-.04.3-.03.59-.06.88-.08.11,0,.23-.02.34-.02.39-.02.78-.03,1.16-.03.5,0,1,.02,1.49.05.15,0,.3.02.45.03.35.03.71.06,1.06.09.17.02.34.04.52.06.35.04.7.09,1.05.13.15.02.3.04.45.06.47.07.94.14,1.42.22.02,0,.04,0,.06,0,.61.1,1.23.2,1.86.31.37.06.75.12,1.12.18.19.03.39.06.58.09.36.06.73.11,1.1.16.18.02.35.05.53.07.54.07,1.08.14,1.64.19-.71-.84-1.48-1.58-2.29-2.27-3.11-2.67-6.85-4.21-10.74-4.67-.48-.06-.96-.09-1.44-.12-.07,0-.14,0-.22,0-.43-.02-.85-.02-1.28-.01-.05,0-.1,0-.15,0-2.99.09-5.99.8-8.79,2.21,0,0,0,0,0,0-.39.76-.66,1.41-.82,1.96-.01.04-.02.08-.03.12-.03.1-.06.21-.08.3,0,.03-.02.07-.03.11-.04.17-.06.32-.07.47s-.01.28,0,.41c0,.1.05.18.08.27,0,.02.01.05.02.07ZM117.27,104.1s0,0-.01-.01c-.4-.5-.81-.99-1.24-1.47-.36-.4-.73-.78-1.11-1.15-.27-.27-.54-.52-.82-.77-.04-.04-.08-.08-.12-.12-.03-.03-.07-.06-.1-.09-.28-.25-.56-.5-.85-.73-.4-.33-.8-.65-1.22-.94-.29-.2-.58-.41-.87-.61-.3-.2-.6-.39-.92-.56-.34-.19-.7-.36-1.05-.53-.03-.02-.07-.03-.1-.05-.21-.1-.43-.21-.65-.3-.48-.22-.97-.43-1.5-.6,0,0,0,.01,0,.01,0,0,0,0,0,0-.76.85-1.36,1.74-1.86,2.67-.02.03-.03.06-.05.09-.14.27-.28.54-.4.82-.02.05-.04.1-.07.15-.11.26-.22.53-.32.8-.02.06-.04.11-.06.16-.1.29-.19.57-.28.87,0,.03-.02.07-.03.1-.09.33-.18.65-.25.98,0,.01,0,.03,0,.04-.14.63-.24,1.27-.32,1.91-.01.11-.02.21-.03.32-.05.52-.09,1.04-.11,1.57,0,.13-.02.26-.03.39,0,.26,0,.52,0,.78,0,.16,0,.32,0,.48,0,.31,0,.61,0,.92.03,1.1.1,2.2.18,3.3.11.23.21.45.33.66.03.06.07.12.11.18.08.14.17.28.26.41.04.06.09.12.13.18.09.12.19.24.29.35.04.04.08.09.12.13.15.14.3.27.47.37.02.01.04.02.06.03.15.09.31.16.47.22.02,0,.05.01.07.02,0,0,0,0,0,0,.04.01.07.02.11.03.14.04.28.07.43.08.03,0,.06,0,.1,0,.02,0,.05,0,.07,0,.02,0,.04,0,.06,0,.16,0,.33,0,.51-.02.08,0,.16,0,.24-.02.26-.04.54-.09.84-.18,0,.01.02,0,.05,0,.01,0,.02,0,.04-.01.03-.01.06-.03.1-.05.02-.01.05-.03.07-.04.05-.03.1-.07.16-.11.03-.02.06-.04.09-.06,0,0,.01-.01.02-.02.09-.07.19-.15.29-.24.01-.01.03-.03.05-.05.4-.37.88-.93,1.29-1.71.55-1.58,1.2-2.53,2.29-2.78,0,0,0,0,0,0,.03,0,.07,0,.1-.01,0,0,0,0,0,0,.12-.02.25-.05.38-.05,0,0,0,0,0,0,0,0,0,0,0,0s0,0,0,0c0,0,0,0,0,0,.33,0,1.21.32,3.58,1.11,1.87-.3,2.66-1.11,2.89-2.14,0,0,0,0,0,0,0,0,0,0,0,0,.17-.84,0-1.81-.44-2.84-.47-.65-.97-1.24-1.46-1.86ZM160.06,88.87c-.01-2.58-.6-5.1-1.75-7.58-1.19-3.32-4.37-5.68-7.01-7.37l-.42-.27-.05-.49c-.21-2.11-.49-4.26-.85-6.57-1.17-7.39-3.13-14.65-6-22.19-1.67-4.02-3.83-8.08-6.58-12.39-5.8-9.05-13.07-16.15-21.59-21.1-8.46-4.66-17.76-7.51-27.6-8.45l-.8-.08c-1-.1-2.14-.21-3.27-.26-3.6-.14-6.49-.11-9.32.11-20.34,2.1-38.7,10.79-53.09,25.12-1.69,1.73-3.36,3.67-5.25,6.1-4.28,5.49-7.68,11.55-10.12,18.01-5.06,13.44-5.69,28.06-1.82,42.27,3.69,11.33,10.06,21.27,18.39,28.7.33.3.68.58,1.04.85l.96.78c.84.71,1.6,1.34,2.41,1.93.08.06.21.15.3.2,1.33.99,2.88,2.01,4.43,2.94.9.54,1.98.72,3,.51l1.02-.21.19,1.02c.52,2.76,1.77,5.3,3.61,7.34,3.38,3.74,8.41,5.65,14.04,5.2.37-.03.73-.1,1.07-.23l9.18-3.27.48.8c.26.53.61,1,1.06,1.38.15.13.29.26.42.39l.69.65c4.9,4.34,8.15,8.58,11.78,14,2.82,4.88,8.19,7.47,14.6,7.14h.32c.11,0,.33,0,.47-.02,5.91-.32,12.1-1.44,19.5-3.53,3.83-1.09,7.74-2.34,11.63-3.7.14-.05.27-.1.4-.16,9.53-4.51,19.3-9.71,25.06-19.18.61-1,.77-2.22.44-3.34-.33-1.13-1.11-2.07-2.16-2.59-1.51-.75-3.42-2.04-3.9-3.91l-.03-.16c0-.11-.02-.22-.03-.27-.14-.98,0-2.03.46-3.19.59-1.5.25-3.23-.86-4.4-2.43-2.57-2.92-3.77-3.02-4.16l-.04-.15.03-.37c-.03-.34-.02-.62.01-.89l.08-.27c.06-.13.11-.25.15-.38.29-.8.88-1.6,1.82-2.44l.27-.17c3.38-1.5,5.21-4.38,5.03-7.89v-.08s0-.08,0-.08c.05-.52.18-.98.37-1.36.19-.39.62-.74,1.34-1.08.95-.45,1.81-.62,2.78-.52,1.45.13,2.93-.52,3.79-1.72,1.48-2.04,2.4-4.39,2.75-6.99l.08-.3c.04-.14.1-.49.13-.93,0-.2,0-.5-.03-.75ZM156.8,90.17c-.02.09-.05.17-.06.26-.28,2.1-1,3.92-2.18,5.55l-.34.47-.58-.06c-1.58-.15-2.98.12-4.43.81-1.4.66-2.32,1.48-2.83,2.53-.42.84-.66,1.81-.73,2.87.15,1.77-.38,4.08-3.64,5.27-1.7,1.38-2.74,2.73-3.27,4.22-.05.14-.11.26-.16.39-.04.07-.07.15-.09.21l-.04.15c-.14.64-.19,1.34-.14,2.07v.07s0,.07,0,.07c-.1,1.52,1.17,3.66,3.89,6.53l.45.47-.23.6c-.65,1.66-.87,3.28-.64,4.8.01.1.02.21.03.32,0,.05,0,.1.01.15,0-.03.02.03.03.1.56,2.48,2.5,4.61,5.61,6.15l1,.5-.58.95c-5.3,8.73-14.24,13.47-23.7,17.96-3.93,1.39-7.77,2.61-11.53,3.68-7.17,2.03-13.2,3.12-18.98,3.43h-.16c-.07,0-.14,0-.2,0-.5.02-.88.03-1.26.03-4.87,0-8.62-2.01-10.83-5.82-3.74-5.58-7.12-9.99-12.28-14.56-.19-.17-.36-.33-.53-.5-.2-.19-.4-.39-.63-.58l-1.14-.97,1.32-.71c4.79-2.58,9.54-4.25,14.52-5.1l.69-.12.36.6c1.57,2.62,3.33,4.32,5.7,5.5l.39.21c.26.14.52.28.81.4.15.02.31.04.48.06.17.02.33.04.5.06l.34.05c.67.09,1.34.18,2,.23,4.31.34,8.43-.09,11.98-1.27,2.73-.91,5.11-2.25,7.11-4.01-1.9.24-3.69.74-5.56,1.27-2.59.73-5.28,1.49-8.35,1.49-.98,0-1.97-.08-2.94-.23h-.27c-3.5,0-5.9-1.08-7.79-3.49l-.16-.21-.04-.26c-.3-1.82-.73-2.94-1.3-3.41h-.01s-.24-.14-.24-.14c-.51-.36-1.07-.51-1.81-.51s-1.55.15-2.27.29c-4.19.97-8.39,2.47-13.57,4.87l-1.33.6c-1.58.71-3.2,1.44-4.81,2.32l-.14.06-8.56,3.01c-4.64.36-8.73-1.16-11.44-4.17-2.32-2.57-3.38-6.05-3-9.79l.02-.17.07-.16c.25-.54.52-.98.79-1.41.13-.21.26-.42.38-.64,1.39-2.42,2.79-4.35,4.43-6.09l.13-.11c.58-.44,1.05-.96,1.39-1.53.94-1.55.97-3.63.08-6.18-.37-1.14-.82-2.18-1.29-3.28-.27-.63-.54-1.25-.79-1.89-2.46-6.22-5.28-12.03-8.62-17.76-2.4-3.27-4.56-5.79-7.2-7.68.89.9,1.81,1.84,2.45,3.19,3.05,4.78,5.68,9.85,8.04,15.51,1.64,3.94,2.97,7.62,4.07,11.26l.05.24c.76,2.31.35,4.61-1.21,6.59l-.15.19c-.22.28-.46.59-.8.89-1.85,1.99-3.03,4.07-4.4,6.48-.5.88-1.02,1.79-1.59,2.74l-.53.87-.87-.52c-1.46-.88-2.93-1.85-4.36-2.9-.04-.02-.08-.05-.12-.08-.77-.56-1.51-1.19-2.22-1.79l-.49-.41c-.18-.15-.37-.3-.56-.45-.3-.23-.6-.47-.88-.72-7.91-7.06-13.94-16.43-17.43-27.12-3.71-13.61-3.11-27.56,1.72-40.37,2.32-6.16,5.57-11.93,9.65-17.17,1.82-2.34,3.4-4.18,4.98-5.79,13.88-13.82,31.54-22.19,51.09-24.22,2.73-.21,5.47-.24,8.98-.1,1.05.04,2.08.15,3.08.25l.8.08c9.54.92,18.15,3.54,26.3,8.03,8.1,4.71,15.01,11.46,20.53,20.07,2.65,4.15,4.7,8,6.27,11.78,2.8,7.36,4.71,14.41,5.84,21.58.47,3,.8,5.76,1,8.44,3.46,2.06,6.67,4.32,7.49,6.91,1.06,2.2,1.57,4.42,1.54,6.6.02.12.04.26.04.43-.01.27-.07.51-.12.7ZM133.98,59.39c-.6-.66-1.22-1.3-1.88-1.9-.54-.5-1.12-.97-1.71-1.43-.3-.24-.62-.47-.94-.7-.11-.08-.21-.16-.32-.24-.21-.15-.43-.28-.65-.43-.29-.19-.56-.39-.86-.56-.71-.45-1.44-.87-2.21-1.24,0,0-.01,0-.02,0-.45-.17-.89-.32-1.33-.45-.15-.04-.29-.07-.44-.11-.29-.08-.59-.15-.88-.21-.17-.03-.35-.06-.52-.09-.26-.04-.52-.09-.78-.11-.18-.02-.36-.03-.54-.04-.25-.02-.49-.03-.73-.04-.15,0-.29,0-.44,0-.17,0-.33.02-.5.03-.02,0-.03,0-.05,0-.24.01-.48.02-.71.05-.09.01-.19.02-.28.03-.48.07-.96.17-1.42.29-.11.03-.22.07-.33.1-.16.05-.31.11-.47.17-.02,0-.04.01-.06.02-.19.07-.39.13-.58.2-.1.04-.21.08-.31.13-.21.09-.4.21-.6.31,0,0,0,0,0,0-.22.11-.44.21-.65.34-.08.05-.16.1-.24.16-.2.13-.38.27-.58.41-.05.03-.09.06-.14.1-.09.06-.18.12-.26.19-.1.08-.19.15-.29.23-.05.04-.1.09-.15.14-.14.12-.27.25-.4.37-.17.16-.35.31-.51.48-.04.05-.08.1-.13.15-.08.09-.16.2-.24.29-.05.06-.1.12-.15.18-.15.18-.31.36-.45.55-.08.11-.16.21-.24.32-.02.02-.03.05-.05.07-.28.39-.54.8-.79,1.23-.05.09-.12.16-.17.25,0,.01-.01.03-.02.05,0,0,0,.01,0,.02-.22.41-.42.83-.6,1.27-.19.44-.36.89-.51,1.36-.14.7-.24,1.4-.33,2.1,0,0,0,0,0,.01-.09.68-.15,1.36-.19,2.04,0,.02,0,.05,0,.07-.04.68-.07,1.36-.06,2.04.02,2.78.41,5.55,1.13,8.23.18.67.38,1.34.61,1.99.22.64.45,1.28.71,1.9.04.09.08.18.12.27.25.6.51,1.19.8,1.77.16.32.33.64.49.95.18.34.37.69.56,1.03.21.37.43.74.66,1.1.15.25.31.49.47.73.28.42.56.84.86,1.25.02.02.04.05.06.07.39.54.79,1.07,1.21,1.59.44.53.9,1.05,1.37,1.56.47.51.96,1,1.47,1.48.45.37.9.72,1.36,1.05.06.05.13.09.19.14.44.32.88.62,1.33.9.08.05.16.1.24.15.45.28.9.54,1.36.79.07.04.15.08.22.11.48.25.96.48,1.44.69.02,0,.05.02.07.03.15.07.31.11.46.18.22.09.45.17.67.25.1.04.21.08.31.12.06.02.12.04.18.06.06.02.11.03.17.05.22.07.44.12.67.18.2.05.4.12.6.17.09.02.17.04.26.06.03,0,.07.01.1.02.42.09.85.16,1.27.22.02,0,.03,0,.05,0,.08,0,.16.02.24.03.16.02.33.02.49.03.32.03.64.05.96.06,0,0,0,0,.01,0,.04,0,.07,0,.11,0,0,0,.02,0,.03,0,.55,0,1.11-.04,1.66-.11,0,0,0,0,0,0,.06,0,.12-.03.18-.04,1.58-.23,3.15-.74,4.67-1.6-2.54-1.62-5.13.22-6.82-2.27-.04-.06-.08-.17-.12-.25,0,0,0-.02-.01-.03,0,0,0,0,0,0-.18-.31-.36-.62-.52-1.06,0,0,0,0,0,0,0,0,0-.01,0-.02,1.86-.28,3.47-.77,4.87-1.46,0,0,0,0,0,0,0,0,0,0,0,0,3.36-1.68,5.29-4.58,6.28-8.18.24-.87.54-1.69.66-2.66.03-1.37-.05-2.74-.22-4.08-.75-5.88-3.34-11.32-7.26-15.65ZM118.89,79.97c-.87,0-1.68-.21-2.42-.55-.63-.29-1.2-.69-1.68-1.17-1.02-1.04-1.65-2.45-1.65-4.02,0-.27.04-.52.08-.78.1-.71.32-1.37.65-1.97.98-1.77,2.84-2.99,5.01-2.99,3.17,0,5.74,2.57,5.74,5.74s-2.57,5.74-5.74,5.74Z"/>
    </g>
  </g>
</svg>