<?xml version="1.0" encoding="UTF-8"?>
<svg id="Layer_2" data-name="Layer 2" xmlns="http://www.w3.org/2000/svg" viewBox="0 0 3067.8 329.52">
  <defs>
    <style>
      .cls-1 {
        fill: #d4e7d4;
        fill-rule: evenodd;
      }
    </style>
  </defs>
  <g id="Layer_1-2" data-name="Layer 1">
    <path class="cls-1" d="M3067.46,90.32c-13.42-5.3-18.69-6.22-31.45-6.14-11.01-10.52-7.55-16.48-16.51-26.96-6.87,1.02-15.59,1.48-25.2,1.86-9.62.34-20.12.61-30.62.83-10.5.2-20.97.51-30.49,1.19-4.76.34-9.28.79-13.46,1.34-4.18.52-8,1.18-11.36,2.01-6.61-4.18-16.47-4.78-27.43-4.18-.56,2.54.4,6.28-2.85,6.6-.56-3.92-3.43-3.91-6.41-2.82-2.98,1.08-6.08,3.28-7.07,3.82-.25-3.18,2.45-3.97,2.88-6.57-9.57-1.36-22.3-1.37-36.78-.28-14.49,1.06-30.76,3.01-47.4,5.86-1.61-3.91-4.71-6.19-10.47-5.77-7.72-.03-16.45,1.64-25.21,2.83-8.76,1.17-17.53,1.91-25.33-.19-.37,3.76,1,9-2.94,9.68-10.64-7.99-19.48-10.22-30.67-4.97.86-3.89-10.21-10.52-10.26-2.75,11.8.48.07,8.63,7.15,9.25-.13-4.16,9.19-4.45,10.14-.46-3.39,2.18,1.01,13.27-12.99,13.32-13.62-3.18,1.19-22.94-14.67-28.06-4.78,7.59-8.08,5.13-16.75,3.81-3.86,3.8-11.82,4.03-20.17,3.88-3.05-6.72-21.49,1.84-23.84-5.62-4.65-.03-7.38,1.71-10.05,3.49-2.67-4.12-33.23-7.16-30.33,3.92,11.18-3.66,11.56.78,23.58-3.71-1.54,3.77-3.42,7.27-6.51,9.69-5.98-8.47-16.85,6.47-20.48-5.9-3.52,3.06-.75,11.77-9.92,9.77,1.31-7.42,14.75-8.84,6.4-16.02-15.58.17-21.3,12.71-23.35,16.39-8.72-2.32-14.33-7.65-20.56-12.35-11.01,12.1-23.26,4.9-32.99,15.63,2.86-4.08.11-14.2-4.28-18.28-.92,6.71-14.86,17.49-16.81,12.87-1.1-8.37,13.13-2.61,10.02-12.8-11.43.3-14.47-5.58-20.26,3.39,5.31.24,11.72-.57,10.21,6.23-9.25.38-6.88-5.23-13.56.14.21-5.55-.84-9.88-3.49-12.67-13.78.28-21.65,1.33-29.76,2.23-8.11.88-16.45,1.68-31.21,1.16-6.92.9-6.67,8.56-13.59,9.5.82-4.55,5.58-5.37,6.8-9.51-18.43-4.63-29.35-4.39-40.75,6.23-.49-3.71.63-9.02-3.34-9.54-.78,2.44-.12,6.27-3.41,6.35-7.16-9.97-13.99-4.6-27.18-.17-9.46-9.3-41.26-6.24-50.91-3.73,3.67.79,8.09,5.3,3.31,6.37-6.91-1.03-8.96-6.5-13.45-9.71,2.42,7.07-12.72,12.88-13.68,6.16.12-5.27,9.44-1.67,10.28-6.21-14.57-.56-25.68-7.62-34.03,2.66.06-3.22-2.7-3.85-3.3-6.43-7.91,5.85-24.61-6.71-34.06,2.52,5.72,5.58,13.46-4.41,13.42,9.78-4.83-3.65-8.23-3.59-10.27,2.99,3.69.84,8.09,5.41,3.29,6.42-7.46-.62-7.15-8.15-6.51-16-6.11.28-7.89-3.34-6.59-9.69-4.46-.48-24.61-1.05-13.68,2.89,3.99.57,9.67-.33,10.14,3.41-1.05,2.8-9.51,13.69-10.35,6.14,8.67-5.8-3.3,1.81-10.2-.23.6-7.95,6.71-9.84-3.14-12.82-2.54,9.92.12,13-3.75,15.81-11.85-1.2.48-8.6-6.59-9.67-1.1,6.49-9.24,6.12-13.84,9.2-1.31-6.07-7.13-8.17-6.41-16.05-15.8-7.69-39.65,6.99-51.15,1.83,8.55,3.63,19.59-6.18,10.48-9.27-7.7,3.81-18.97-1.33-34.15,2.2.06-2.11.12-4.22.19-6.37-9.26,3.21-17.47.14-27.13-3.98,3.3,13.1-11.98,7.76-14.13,15.47-.59-5.65,13.17-18.4,3.81-12.63-4.3,8.43-17.77-.56-23.86-.75.39,6.96-3.11,10.05-10.53,9.22-4-1.69-7.63-3.63-10.04-6.71-5.19.46-21.02,1.53-33.99.14-12.97-1.41-23.06-5.26-16.73-14.61-15.61-3.49-14.47,9.67-21.05,15.17,6.55-26.16-41.01-5.57-50.65-17.77-3.17,7.32,11.45,14.12,2.83,16.02-6.35-.69-11.34-2.53-13.43-6.87.01-4.39,1.87-6.88,3.78-9.4-12.76-5.1-6.9,8.5-17.33,5.72.1-3.21,2.9-3.68,3.64-6.24-10.52,1.92-12.33-3.71-20.39-3.94-.69,8.09-1.25,16.31-10.85,15.49.34-4.02,4.56-4.24,3.79-9.4-9.49-4.64-9.22,16.52-13.92,5.83,1.13-8.73,13-6.73,17.57-12.05-13.33-5.53-24.34-9.75-34.2-1.3,8.58-1.89,13.98,14.11,6.23,16.14.12-3.18.24-6.35.36-9.53-11.66-1.79-10.63,9.14-17.58,12.06,5.62-15.06-8.04-13.6-5.87-25.69-17.41.93-32.16-1.82-34.61,8.21-4.24-1.47-6.84-4.36-6.48-9.79-44.52-1.09-59.8-7.68-96.12-.48-10.22-7.87-37.91-4.98-41.45,4.81-19.06-2.05-24.39-5.15-34.58,5.11-2-9.49-8.36-12.24-13.64-3.67-9.89-.75-5.5-13.76-16.74-13.33-11.08,1.76-6.88,10.31-10.77,12.35-7.87.64-12.9-1.2-13.55-6.82,4.12-1.41,7.91-3.13,10.55-6.02-10.65-1.44-16.71,6.8-24.09-.82-1.26,6.21,4.43,6.44,6.54,9.76-17.17-1.14,10.5,11.1-7.29,12.48-9.56,1.04-2.84-11.98-9.91-13.07-3.37,5.43-.44,17.06-10.86,15.55-3.16-14.06,11.98-10.06,11.07-21.9-18.82.26-22.64,3.64-41.35-1.34-.85,2.46-.28,6.26-3.64,6.24-4.29-4.53-14.86-3.64-24.04-3.91.01,5.48-2.89,8.07-7.17,9.33.81-6.91-2.53-10.2-10.09-9.84-.08,12.52-27.1-3.53-20.86,5.74,3.45.1,6.88.2,10.34.3-.27,4.36,1.43,7.04,3.18,9.63-11.58-8.14-26.35-1.4-30.78-10.4-.77,4.68-8.43,2.69-13.89,2.81,2.09,10.71-6.09,11.45-14.13,12.35-.4-3.78-5.97-7.36.24-9.55.29,3.9.85,7.56,6.75,6.56.08-3.18.16-6.37.25-9.53-11.71,3.96-18.22-2.17-24.26,2.56,3.48.12,4.2,5.69-.15,6.37,2.64-5.15-6.53-13.98-6.75-6.53,4,.65,3.62,5.14,3.21,9.64-7.78-6.52-3.85.7-10.42,2.94-10.44-4.34-16.98-12.12-30.79-13.44,3.76,9.45,1.78,11.87-7.25,15.79,1.26-7.38-.3-12.25-3.13-15.99,4.24-.29,8.21-.79,7.05-6.21-12.75-2.49-6.24,13.47-14.13,15.63-4.44-5.41-15.09-8.85-20.63-6.79,2.68.76,3.97,2.73,3.33,6.44-6.52-.84-7.71,3.47-13.88,2.95,2.3-23.05-27.82,9.97-30.96-10.06-10.63-.66-15.74,11-24.25,2.86.47,7.97-5.48,9.89-10.57,12.62-3.27-9.78-9.27,3.55-13.85,3.02-5.49-11.96-17.57,1.16-27.62-6.61-1.45,3.96-4.53,6.44-10.44,6.3-1.94-7.75-13-7.22-20.7-9.7.18,11.89-5.65,18.19-13.93,22.21-11.21,1.77-17.4-.99-20.73-6.4-2.8,1.4-14.25,4.03-20.77,0,3.04,10.19-5.31,9.99-10.34,12.75-7.34-3.84-10.1-11.92-20.82-12.65-5.13,3.76-9.73,8.03-13.77,12.79-28.13-.32-29.27-1.58-45.09-9.13-8.47,14.36-21.02,16.19-35.54,16.06-14.51-.18-31.01-2.08-47.17,4.5-.1-3.18,2.71-3.8,3.31-6.42-17.62,2.86-24.75-1.62-37.89,7.32-6.66-3.33-12.38-7.59-21.06-8.94.37,5.47-2.4,8.22-6.6,9.73-8.06-2.86-18.08.65-27.99,2.96-9.91,2.33-19.72,3.41-27.51-4.1-7.48,4.92,4.67,7.58-3.06,9.7-1.27-4.25-5.18-5.86-3.99-12.56-13.29,9.06-31.83,9.03-37.35,17.56-4.95-.47-6.07-4.92-10.67-5.81-.66,2.52.22,6.29-3.12,6.52-12.97,1.61-22.43.11-30.39-.3-7.95-.37-14.39.37-21.27,6.34-1.66-3.9-4.84-6.21-10.74-5.71-5.93,6.24-20.6,5.37-27.02,11.27-4.16-11.8-22.83,1.96-27.15,8.25-.98-2.4-.54-6.2-3.9-6.09-1.61,4.7-4.82,8.09-9.68,10.26-19.8-1.16-33.69,1.6-50.82,13.62-11.71-13.11-21.36,4.36-38.36-2.98-1.85,11.37-20.75,11.68-30.33,9.32-5.66,2.4-12.28,4.86-18.85,6.36-6.57,1.51-13.07,2.14-18.52.69-9.95,6.27-27.44,6.83-36.61,13.64-6.08-12.86-16.85,4.88-26.92,6.44-4.29-2.16-9.68-3.07-17.5-1.09-8.14,13.09-33.07,16.36-44.36,5.83-.44,8.19-13.95,7.37-15.24,15.03-10.22-6.87-30.08-1.86-36.87,8.55-6.67-4.59-21.49-.26-23.23,6.79,4.06-.11,9.55-2.03,10.63,1.57-.14,3.69-2.99,5.49-5.78,7.35,5.59-8.28-1.37-3.35-4.85-8.92-12.93.65-10.41,11.72-18.28,15.74-3.41-3.87-16.21,9.58-22,13.34-1.22-4.08,12.1-11.74,1.29-13.09.11,5.64-4.58,8.11-12.41,8.54.09,3.76,2.08,8.8-1.76,9.95-8.52,5.31-14.3,9.78-20.65,13.26-6.35,3.48-13.24,6-23.93,7.65.27,6.59-7.76,7.76-11.57,11.79-1.18-2.28-3.46-3.08-7.22-1.78-2.81,8.28-8.39,14.8-20.83,16.96.39,3.91.49,7.6-5.37,7.53,4.29,9.07-1.08,12.01.45,19.36,15-9.58,49.7-6.65,53.61-23.2,2.13,4.22,4.95,4.55,1.72,9.38,8.99-2.39,20.26-3.29,30.1-5.12,9.85-1.8,18.31-4.38,21.68-10.47,6.69,8.53,15.26.77,23.23-3.9,6.59-1.07,5.58,7.86,14.27,4.18,1.76-13.82,28.08-12.82,32.22-11.45,2.47,17.16-11.91,7.94-17.98,15.69,1.86-.29,4.15,1.93.49,3.15-6.53.14-10.35,2.17-14.28,4.11-3.94,1.94-7.98,3.8-14.94,3.74.49,4.97,2.2,10.79-5.07,10.48-.85-4.28.42-7.14,1.76-9.92-14.47,2.24-26.55,6.16-31.36,14.89-10.33,3.38-19.35,5.84-27.58,7.84-8.22,2.04-15.65,3.63-22.7,5.57-14.08,3.95-26.79,8.9-41.57,19.96,18.03-1.24,32.33-4.21,46.46-7.21,14.16-2.81,28.15-5.66,45.39-6.8-1.93-7.77,3.32-10.63,7.66-14.19l1.62,9.42c14.19,1.31,11.66-8.75,21.89-10.13-.14,5.27,5.81,7.71,7.1,2.04-1.84.31-4.17-1.94-.51-3.14,6.28,1.79,13.52,2.7,19.61,1.66,6.09-1.05,11.04-4.05,12.76-10.01,1.24,3.41,4.4,4.32,7.54,5.27.84-6.83,4.12-7.46,9.4-4.69-.19-3.89-.13-7.62,5.67-7.3,11.29-.74,5.54,20.33,16.41,20.16-3.33.5-3.32,6.1.92,6.31-.61-7.02,13.73-3.34,19.22-5.97,1.18-8.94-7.41-5.42-8.33-11.66,5.58-3.11,12.94-4.4,20.19-4.89,7.25-.46,14.35-.23,19.4-.52,3.24-5.22,2.4-13.46,7.86-17.1-2.56,9.77-.42,11.99,8.64,14.93,1.27-4.79,4.17-8.41,8.71-10.76,5.51,16.17,12.08-10.39,16.62-1.99.29,5.03-8.19,3.48-5.51,10.29,5.77-.94,10.42-.52,13.63,1.55.09-3.78-1.64-8.87,2.2-9.87.96,3.64.48,9.03,4.43,9.07,2.38-2.82,16.76-4.13,22.09-12.17.19,6.97,3.86,9.76,11.03,8.39,2.54-6.23-11.12-9.44-1.39-12.64,3.61,2.89,7.27,5.7,11.01,8.41,2.18-10.06,11.33.18,13.59,1.7,1.95-11.12,8.39-18.74,17.68-24.16,2.31,13.8,2.75,2.08,14.29,8.17.36,4.2-5.53,3.45-6.05,7,13.2-9.61,14.47,3.68,27.22,3.71,2.11-11.81-15.16-1.19-14.52-11.36,10.51,1.38,3.02-11.36,16.09-7.94.39,4.26.78,8.46,1.17,12.69,11.58-.61,3.87-16.54,15.24-17.32,14.57-3.41,13.75-.7,22.9-8.38,6.35,4.74-2.09,10.84,1.86,22.16,10.29,2.36,5.31-7.55,5.62-13.24,6.82-3.36,9.11-10.43,19.32-11.05-.19,3.77-5.39,7.63.74,9.47,3.32-13.04,6.99.36,16.74-1.32.57-2.5-.4-6.24,2.85-6.59.57-6.31-4.97-5.94-7.38-8.97,10.57-3.65,7.56,7.62,14.13,8.47-.09-7,14.13-2.33,19.9-4.53-2.97,8.23,12.25,13.25,13.87,5.38-2.64-.52-6.64.36-6.94-2.71,13.1.47,12.16,2.64,19.95-4.5,2.9,16.22,7.66-4.03,13.27-3.99,1.06,4.45,5.85,4.99,7.3,9.09-3.88,1.79-7.42,3.87-9.67,6.95,5.34,1.06,3.46,9.82,13.79,5.55-.25-4.23-.5-8.45-.76-12.7,9.71-1.22,8.39-5.48,23.15-7.71-2.34,10.29,5.75,9.62,10.82,12.14-1.3-13.94,9.44-1.36,13.43-.7-1.62-11.89-15.41-8.65-17.49-11.79,6.8-12.66,12.26-2.15,23.73,1.92,1.99-6.42,9.87-7.79,12.84-13.38,7.62,11.3,16.19.84,27.01-1.18.35,4.35-1.29,7.03-2.97,9.69,6.38,2.27,13.82,3.47,17.26,8.75-.32-4.36,1.28-7.03,2.98-9.64-2.26-4.35-13.01.05-13.74-5.78,9.76-.03,15.07-8.38,17,2.45,9.27,1.96,6.54-6.59,13.24-6.85,6.74,4.54-5.38,13.61,7.33,15.63.69-2.49-.14-6.25,3.15-6.45,10.96,5.58,14.09-1.38,27.11,2.19.9-9.53,1.33-19.41,9.45-22.54-5.68,6.81-1.48,26.06,7.24,15.73-4.27-1.22-7.02-3.92-7.04-9.36,4.32-.31,4.58-4.21,10.09-3.48-10.89,11.65,20.77,19.87,23.91,8.87-10.17-1.86-5.59-18.36-14.14-21.88,4.48-1.52,10.53-3.27,17.31-4.77,6.78-1.5,14.29-2.84,21.66-3.69,7.37-.84,14.6-1.19,20.84-.71,6.24.5,11.48,1.86,14.86,4.35-8.06,2.11.84,19.56-6.42,22.38,5.12.77,14.5,13.46,17.05,6.11-3.52-3.05-6.96-6.18-10.31-9.4,15.77,2.76,22.5-.71,23.88,12.38-1.32-11.06,15.74-13.59,20.21-9.81.35-3.91.94-7.56,6.74-6.43.02,6.31-9.22,4.12-6.67,12.8,12.21-5.55,19.08-16.1,30.34-22.55-.98,6.26,4.64,6.25,6.85,9.48-4.91,1.78-17.54-3.55-16.93,3.34,4.57-.6,6.9,16.1,10.21,6.28-2.65-.7-3.96-2.63-3.43-6.34,5.88,4.8,15.9-4.62,20.39,6.24,5.63-5.35,11.25-10.67,16.93-15.96,2.91,10.13-5.32,9.82-6.73,15.93,8.63-.4,11.82-5.89,16.93-9.61-6.62,1.57-12.28-15.74-.02-12.72-8.12,8.55,11.32,10.5,13.6,19.06-2.63.67-6.69.1-6.78,3.2,8.45-.41,10.5-5.97,16.98.01,3.8-9.98-3.4-17.61,10.24-22.26-.2,5.96,2.59,6.75,6.77,3.2-.13,4.38,1.59,6.98,3.38,9.54-6.96-3.68-16.2,4.95-6.79,6.36.57-3.7,5.36-3.46,10.19-3.16.59-4.78-1.19-11.73,3.44-12.72l10.2.03c-8.63,4.37,10.66,16.83,13.54,9.64-9.53-3.19,4.99-8.47-3.32-12.75,6.32,3.07,11.46-9.41,13.63.1-.75,3.84-3.79,1.92-6.83-.05.57,4.76-1.28,11.72,3.34,12.75,6.95-5.16,9.51-14.47,20.55-15.76,2.7.37,10.2,10.59,3.31,9.58-7.64-7.3-14.99,2.04-20.47,6.2,13.13,1.81,16.64-5.61,30.64-2.93-2.94-11.14,11.17-5.31,13.64-3-1.55-7.26,8.77-19.01,13.75-9.39-3.02.92-17.37,6.16-6.93,9.48.64-3.72,5.42-3.41,10.25-3.06,4.78-4,1.7-15.58,10.47-15.8,8.84,8.42,2.75-5.09,13.67-2.96-4.67,6.28-6.72,15.04-10.55,22.13,19.99,1.36-2.03-17.66,17.27-15.65-6.39,5.52.73,9.86,6.6,12.85.43-6.16,13.22,5.72,13.74-6.15-6.33-.54-11.36-2.27-13.53-6.59,9.51-5.42,17.84,3.43,27.41-5.9-.22,4.38,1.48,7.02,3.24,9.63,12.83-3.96,19.27,13.67,23.75,6.85-10.18-5.01,7.8-9.34,10.51-12.53-.3,5.5,2.45,8.19,6.61,9.7-.63-5.44,4.02-7.77,3.41.08,11.61,2.68,4.62-12.8,17.29-9.15,2.61,7.3-6.87,21.15-.3,12.74,6.77-17.26,15.2.84,30.86-5.62,2.63-9.7,2.54-6.04.41-15.86-12.22,1.93-15.21,9.37-24.01,2.6,17.9-.34,3.75-9.41,3.89-19.05,8.05,1.19,6.09,11.21,16.85,9.99,5.63-4.26,11.06-8.75,17.44-12.3,24.21,5.88,52.57,3.49,80.82,1.41,14.13-1.01,28.22-1.95,41.74-1.74,13.52.23,26.46,1.64,38.27,5.27-.07,2.17-.15,4.26-.22,6.37-21.81-1.36-33.42-6-34.54,8.41-3.98-.69-3.56-5.17-3.11-9.69-11.68,7.2-24.43-6.91-30.99,5.41.38-5.47-2.38-8.25-6.54-9.79-.73,4.76.85,11.78-3.83,12.65l.2-6.39c-17.78,1.52-21.17-1.87-34.39,5.37-9.03-6.74-13.27-.3-23.92-.69-.69-2.52.08-6.31-3.24-6.48-10.54,5.35,9.06,10.09-.35,12.76-7.53-2.71-8.86-10.83-20.24-10.1,1.37,10.03-5.2,12.28-7.34,18.86,12.2-4.76,29.2,7.28,37.74-5.36,10.02,14.41,18.21-5.07,34.07,4.2,4.17-4.59,3.39-14.1,14.06-12.27-7.93,4.66-6.66,6.4-3.89,15.75,17.65.68,22.81,5.9,30.94-5.39,1.62,9.31,5.5-4.65,10.36-2.79-.07,2.09-.14,4.22-.21,6.31,16.81-3.13,26.64-2.56,37.82-5.05.68,2.46-.12,6.23,3.2,6.42,3.21-9.2,10.94,2.3,17.09.58.67-3.7-.27-9.04,3.75-9.37,1.78,10.74,11.55,2.3,23.85,4.04-.07,2.09-.15,4.22-.23,6.3,12.92-1.07,14.49-.38,27.58-5.32,3.38,8.51,23.37,9.25,27.37,1.01-5.61.7-9.07-4.66-3.18-6.49,12.28,15.83,28.27,2.48,50.85,14.6.53-3.85,1.32-7.48,7.09-6.04.67,2.47-.14,6.22,3.18,6.43,3.26-3.42,6.41-.73,17.23-2.53-.71-8.39,7.47-7.91,14.07-8.96,3.25,4.37,9.02,6.58,9.78,13.06,13.21-.42,17.93-2.25,27.88-11.62,8.59,4.37-3.78,15.42,2.82,15.99,2.6-9.4,7.2,3.34,13.69.53,6.94-13.6,33.21-9.18,37.69,1.45.84-2.45,3.01-3.57,6.98-2.92,1.41,22.06,1.59-4,7.08-6.04.14,4.97-.88,10.96,6.51,9.75,1.56-5.41-4.78-8.34.36-9.49,6.51,10.75,11.8,3.45,20.55.78-2.48,10.09,12.19,4.79,2.96,12.8,14.24,5.46,1.16-16.41,10.89-15.47,4.26,7.94,12.89-3.05,13.59,3.7.34,4.24-11.97,11.37-3.9,12.54,2.08-4.5,5.63-7.55,10.64-9.16l-.36,9.55c17.1-7.94,25.76-5.64,41.03,4.69.69-5.9,2.65-10.54,7.33-12.48,2.61,7.65,15.15-2.09,20.69-2.39-3.11,6.12-17.62,15.25-4.1,18.92,5.7-4.23,11.18-8.63,17.6-12.13-1.71,17.64,15.87.73,16.73,13.34,11.44-5.99,22.97-6.8,30.79,4.22-.71-7.27,1.23-11.9,7.29-12.51,8.34,15.94,56.24,10.8,65.07,8.43.26,3.92.8,7.56,6.69,6.57,5.67.14,2.18-8.75,7.15-9.35,3.24,4.4,8.99,6.64,13.48,9.95,1.78-3.72,3.86-7.11,7.14-9.35.15,1.95.4,3.78,3.35,3.28-.17,4.2-6.1,2.72-7.06,6.17,10.88-1.21,13.33,4.89,20.48,6.92,2.55-6.2,9.4-8.2,17.46-9.08-.08,3.18-2.89,3.69-3.62,6.28,4.03.6,9.79-.32,10.23,3.43,9.34,2.58,7.1-6.11,13.94-5.99,6.88,9.93,19.79.62,34.3,7.14.6-3.73-.39-9.05,3.65-9.46,6.47,4.65,9.61,12.32,20.39,13.16.82-2.43.22-6.27,3.57-6.28,4.07,12.2,14.14-.26,24.01,6.82.61-3.73-.42-9.05,3.62-9.47,5.9,7.85,18.57-5.05,10.24,6.55,13-8.32,16.66,5.45,24.15.37,12.17-.74-12.07-8.79.15-9.54,13.63-4.88.97,13.77,10.15,12.88.51-5.09,8.88-2.71,12.54-4.8.36-.42.8-.86,1.33-1.34-.29.59-.76,1.02-1.33,1.34-4.47,5.1,3.06,5.28,8.13,8.27-.89-8.35,1.43-13.68,10.5-12.61-.07,4.18-6.09,2.83-6.98,6.27,5.54,4.84,25.44,5.06,31.07.34,8.97,8.26,23.51,7.72,38.45,6.3,14.94-1.4,30.28-3.88,40.98.49,0,2.11,0,4.24,0,6.37,11.82,2.37,4.41-12.92,17.28-9.53,7.31,9.14,11.55,4.28,27.7,3.11.36,3.56-5.03,4.98.02,6.37,2.13-6.81,21.27-3.09,24.23-.1,4.99-4.94,13.46-6.78,24.19-6.58-.51,7.97,5.42,9.9,10.5,12.64,1.31-5.54-5.21-8.1-.1-9.56,13.79-1.88-3.6,11.27,14,9.42,1.28-5.54-5.25-8.1-.12-9.56,8.62,7.27,9.67-1.17,13.83-3.38-1.78.92,1.98,3.24,3.48,3.13,5.33-.34,16.92-4.85,7.09,9.44,11,3.44,8.35-5.16,13.77-6.6,7.42,6.84,15.43.44,20.73-3.55.43,3.55-4.93,5.04.13,6.37.84-6.58,9.14-6.58,13.67-9.87.45,3.55-4.93,5.08.14,6.37,6.28-3.89,15.64-5.01,17.03-13.14-2.33,11.99,9.34,10.57,14.27,15.6.25-19.03,21.89-.26,27.39-13.57,5.43,7.79,15.93,10.7,24.82,15.16,6.82-7.52,17.91-7.71,24.32-.91-2.28-16.74,9.64,6.99,10.29-3.57-3.91-.52-5.54-3.35-7.19-6.11,4.63-.17,9.25-.35,13.88-.52-4.18,6.03-1.96,6.6,1.93,5.32,3.89-1.28,9.45-4.49,11.96-5.91,3.55,3.11,7.15,6.1,10.85,9.08,3.09-9.15,14.8.18,20.88-.94,1.09-5.58-5.56-7.91-.46-9.54,7.17.51,1.47,14.04,11.02,12.19-6.29-18.58,12.84,1.14,16.9-10.43-1.94.1-4.07-2.39-.17-3.18,7.19,14.88,9.25-5.17,24.31-1.3.19,3.18-2.6,3.91-3.11,6.54,7.67-2.6,11.53-3.11,14.64-2.09,3.1,1.02,5.45,3.57,10.08,6.97-1.41-7.17.11-11.99,6.16-13.11-.08,7.98,5.98,9.6,11.23,12.03,8.13-4.49,18.1-7.54,23.51-14.26.11,7.97-5.96,10.4,4.35,12.43,3.44-13.7,18.74-2.41,31.09-5.35.28-3.81-1.26-8.97,2.77-9.78-.79,3.94,10.87,10.15,10.66,2.36-2.12-.02-4.14-.17-3.69-2.9,9.7,6.67,12.44-10.13,23.52-11.47-6.13,9.1,12.91,14.23,22.44,17.36.55-2.56-.46-6.27,2.92-6.66,6.31,15.61,18.46-8.86,28.08.68-3.06-9.99,12.1-5.51,2.31-13,9.45.02,15.47-14.19,10.41-.94,15.21-3.3,27.49-14.4,33.39-16.1-7.92-3.95,2.87-9.31-8.18-11.99,4.27-3.63,9.88-6.25,12.82-10.82-14.2,5.43-37.8.24-39.97-18.4,11.8,7.41,11.34-8.87,23.98-2.4.93-9.07,15.91-7.53,22.99-11.91,4.83,2.73,12.92,1.69,17.76,4.45,6.81-7.77-7.14-9.87-8.87-18.21,10.2-2.12,11.08-11.11,26.52-9.34-4.93-9.53-1.13-7.14-2.16-18.97,7.45-.24,10.48-3.78,9.07-10.6ZM134.58,199.49c-2.02-1.36,1.79-4.38,2.87-3.67,2.02,1.36-1.81,4.4-2.87,3.67ZM145.18,201.06c-2-1.36,1.82-4.39,2.88-3.67,2.02,1.36-1.82,4.39-2.88,3.67ZM163.49,185.33c-1.98-1.35,1.85-4.39,2.93-3.68,1.98,1.37-1.85,4.41-2.93,3.68ZM113.4,299.67c.03-3.66,3.01-2.29,3.28-.55-.03,3.65-2.99,2.28-3.28.55ZM164.56,281.73c-1.97-1.35,1.77-4.4,2.81-3.66,1.97,1.35-1.78,4.4-2.81,3.66ZM197.27,251.09c1.94,1.37-1.83,4.36-2.87,3.63-1.97-1.37,1.83-4.38,2.87-3.63ZM183.37,179.17c-.22-.18-2.19,6.41-2.46,6.79-.2.28.69,3.08.46,3.15-11.75,3.69-2.39-13.95,2-9.94ZM191.47,280.82c-1.96-1.35,1.79-4.35,2.85-3.6,1.91,1.38-1.8,4.37-2.85,3.6ZM178.71,263.46c11.05.15,15.14-4.41,22.8-6.53,3.69,11.62-21.77,22.78-22.8,6.53ZM205.74,262.75c2.68-2.37,5.39-4.68,6.65-.95-.27,4.07-6.14,4.12-6.65.95ZM209.8,291.07c-1.95-1.39,1.82-4.36,2.84-3.63,1.95,1.39-1.82,4.36-2.84,3.63ZM219.01,260.85c.03-3.79,5.72-3.56,9.54-4.58-.02,3.74-5.7,3.51-9.54,4.58ZM236.49,264.85c-1.93-1.44,1.84-4.35,2.89-3.59,1.94,1.37-1.87,4.32-2.89,3.59ZM251.46,275.68c-1.94-1.42,1.85-4.33,2.89-3.59,1.94,1.41-1.87,4.34-2.89,3.59ZM265.51,280.25c-.31-3.09,3.74-2.97,6.21-4.03.3,3.09-3.72,2.99-6.21,4.03ZM302.98,256.4c2.86,3.57,4.3,6.46.37,3.12-3.8-3.27-3.51-7.14-.37-3.12ZM304.87,272.16c-1.9-1.44,1.94-4.32,2.96-3.56,1.9,1.44-1.93,4.32-2.96,3.56ZM321.46,270.16c14.56-2.3,2.38,12.33,0,0h0ZM370.67,258.33c-1.91-1.41,1.98-4.3,2.99-3.5,1.9,1.45-2,4.29-2.99,3.5ZM404.32,258.2c-1.87-1.48,2.03-4.27,3.02-3.5,1.89,1.48-2.01,4.27-3.02,3.5ZM445.49,228.88c-1.88-1.5,2.06-4.27,3.08-3.47,1.87,1.47-2.06,4.25-3.08,3.47ZM614.74,108.6c-1.9-1.52,2.23-4.2,3.24-3.36,1.87,1.56-2.25,4.2-3.24,3.36ZM630.8,85.47c-1.89-1.54,2.29-4.2,3.28-3.36,1.88,1.56-2.3,4.2-3.28,3.36ZM634.51,225.44c-1.84-1.58,2.23-4.19,3.22-3.36,1.8,1.54-2.25,4.16-3.22,3.36ZM670.72,204.58c-1.83-1.58,2.27-4.16,3.24-3.33,1.83,1.54-2.25,4.16-3.24,3.33ZM727.19,74.98c-.53,3.64-3.41,1.92-3.45.12.53-3.62,3.39-1.88,3.45-.12ZM727.75,90.88c.01,3.1-4.13,2.63-6.78,3.43,0-3.11,4.14-2.63,6.78-3.43ZM725.44,218.29c-10.53-2.81,3.47-8.76,6.43-9.79,10.55,2.83-9.59,3.35-6.43,9.79ZM728.94,221.35c-.08-2.13-.15-4.28-.23-6.37,2.24-.08,4.52-.16,6.75-.24.07,2.09.15,4.24.22,6.37-2.23.08-4.5.16-6.75.24ZM786.14,210c-.75,4.01-6.67,3.4-6.81.2,1.38-4.68,3,.22,6.81-.2ZM775.54,73.46c0-3.06,4.2-2.58,6.86-3.36-.04,3.11-4.19,2.6-6.86,3.36ZM883.65,153.96c1.8,1.63-2.42,4.11-3.37,3.24-1.78-1.61,2.43-4.09,3.37-3.24ZM857.21,205.28c.04-3.08,4.11-2.51,6.73-3.29-.04,3.08-4.14,2.52-6.73,3.29ZM874.11,201.84c-1.79-1.61,2.4-4.11,3.35-3.22,1.79,1.59-2.38,4.07-3.35,3.22ZM857.05,195.74c-.48-20.14,32.28-11.48,33.97,2.67-14.78-4.02-22.62-.11-33.97-2.67ZM918.19,194.98c-1.78-1.62,2.41-4.08,3.37-3.22,1.78,1.62-2.43,4.08-3.37,3.22ZM942,197.96c-1.78-1.65,2.42-4.06,3.38-3.2,1.75,1.61-2.42,4.06-3.38,3.2ZM996.43,89.69c1.78,1.66-2.48,4.05-3.45,3.18-1.76-1.64,2.5-4.05,3.45-3.18ZM986.16,185.08c.09-3.11,4.17-2.46,6.8-3.18-.09,3.11-4.15,2.49-6.8,3.18ZM996.37,201c-4.18-1.39-6.99-4.09-6.81-9.55,3.4,0,6.81.02,10.22.02-1.8,2.56-3.57,5.14-3.42,9.53ZM996.37,188.28c-1.76-1.64,2.46-4.05,3.42-3.18,1.74,1.66-2.47,4.05-3.42,3.18ZM1006.6,181.93c-1.75-1.64,2.48-4.05,3.43-3.18,1.72,1.66-2.48,4.09-3.43,3.18ZM1010.07,159.68c-1.77-1.64,2.46-4.05,3.42-3.18,1.72,1.66-2.49,4.07-3.42,3.18ZM1020.45,108.81c-1.77-1.66,2.49-4.03,3.45-3.18,1.76,1.66-2.5,4.07-3.45,3.18ZM1030.41,191.54c-1.77-1.64,2.49-4.05,3.41-3.18,1.76,1.66-2.49,4.05-3.41,3.18ZM1030.45,181.98c-1.77-1.64,2.49-4.05,3.42-3.18,1.77,1.66-2.49,4.09-3.42,3.18ZM1037.21,191.56c.11-3.1,4.18-2.43,6.86-3.14-.14,3.08-4.2,2.43-6.86,3.14ZM1067.9,185.42c-1.73-1.65,2.5-4.04,3.45-3.16,1.74,1.67-2.51,4.08-3.45,3.16ZM1088.32,188.77c.12-3.1,4.18-2.41,6.84-3.1-.13,3.1-4.2,2.41-6.84,3.1ZM1137.83,65.33c.14-3.1,4.23-2.41,6.93-3.07-.14,3.1-4.26,2.41-6.93,3.07ZM1143.7,132.22c-1.76-1.66,2.55-4.01,3.47-3.13,1.73,1.68-2.55,4.03-3.47,3.13ZM1153.31,173.77c.71-3.63,3.44-1.72,3.41.06-.71,3.57-3.44,1.68-3.41-.06ZM1155.04,65.61c-1.77-1.68,2.58-4.01,3.49-3.13,1.76,1.7-2.57,4.01-3.49,3.13ZM1175.98,50.04c.73-3.59,3.52-1.7,3.46.06-.72,3.61-3.49,1.7-3.46-.06ZM1179.27,59.63c-1.75-1.68,2.56-4.01,3.51-3.11,1.74,1.67-2.57,4.05-3.51,3.11ZM1186.04,66.13c-1.75-1.69,2.55-4,3.49-3.12,1.76,1.71-2.55,4-3.49,3.12ZM1197.04,31.38c-1.75-1.71,2.58-4.04,3.52-3.12,1.75,1.65-2.58,4.01-3.52,3.12ZM1248.52,45.18c1.74,1.7-2.58,4.02-3.52,3.08-1.73-1.66,2.57-3.99,3.52-3.08ZM1235.11,181.65c-3.69-.85-2.19-6.34-6.68-6.47.92-3.48,6.83-2.03,6.97-6.21,4.46,1.22,5.25,5.69,10.11,6.61-1.26,11.02-9.25-.53-10.39,6.06ZM1242.23,169.13c.92-4.01,6.86-3.06,6.83.16-1.63,4.56-3-.42-6.83-.16ZM1252.41,172.56c-1.74-1.72,2.56-4.02,3.49-3.1,1.73,1.66-2.56,3.97-3.49,3.1ZM1279.85,33.22c-1.73-1.72,2.59-4.03,3.53-3.1,1.75,1.66-2.59,3.99-3.53,3.1ZM1338.61,28.45c-1.73-1.71,2.62-4.02,3.54-3.08,1.73,1.71-2.6,3.98-3.54,3.08ZM1349.4,12.85c-.19-7.89,4.39-5.27,3.46.1,4.72,3.95.26,1.23-3.46-.1ZM1363.01,19.61c-1.74-1.71,2.61-3.96,3.54-3.08,1.73,1.71-2.62,3.98-3.54,3.08ZM1373.45,16.73c-10.76,8.39,9.7-9.38,0,0h0ZM1377.11,10.48c.18-3.1,4.27-2.33,6.97-2.97-.19,3.08-4.28,2.32-6.97,2.97ZM1380.14,23.3c-1.73-1.71,2.62-3.95,3.54-3.07,1.74,1.71-2.61,3.97-3.54,3.07ZM1387.13,20.34c-1.73-1.71,2.61-3.95,3.54-3.07,1.74,1.71-2.61,3.97-3.54,3.07ZM1388.98,71.31c-1.73-1.71,2.61-3.97,3.53-3.07,1.72,1.73-2.61,3.97-3.53,3.07ZM1404.55,14.54c1.21-4.29,8.71-2.35,13.88-2.74-1.23,6.44-7.18,8.24-10.75,12.39-12.18-.74,7.65-10.27-3.14-9.64ZM1397.06,33.4c-1.74-1.71,2.62-4.01,3.54-3.07,1.74,1.67-2.62,3.97-3.54,3.07ZM1401.3,116.25c6.65,5.51,4.37-.13,13.71.44,5,9.74-19.34,8.96-13.71-.44ZM1416.98,56.29c-1.71-1.67,2.61-3.98,3.53-3.07,1.74,1.73-2.61,3.99-3.53,3.07ZM1441.88,31.68c1.73,1.67-2.62,3.97-3.54,3.07-1.72-1.71,2.63-4.01,3.54-3.07ZM1427.4,53.44c-1.72-1.67,2.63-3.97,3.55-3.05,1.71,1.72-2.63,3.99-3.55,3.05ZM1435.22,25.08c-1.72-1.71,2.62-3.95,3.54-3.07,1.72,1.71-2.63,3.97-3.54,3.07ZM1438.02,44.26c-1.72-1.72,2.63-3.97,3.54-3.03,1.73,1.67-2.62,3.95-3.54,3.03ZM1442.34,120.78c-1.73-1.71,2.6-3.95,3.52-3.07,1.73,1.71-2.61,3.99-3.52,3.07ZM1334.23,181.01c-1.72-1.66,2.6-3.98,3.51-3.02,1.72,1.64-2.58,3.94-3.51,3.02ZM1354.94,175.31c-4.93-1.55.42-2.8.19-6.37,4.27.89,3.26,6.41-.19,6.37ZM1385.49,182.55c-1.73-1.67,2.59-3.97,3.51-3.01,1.72,1.65-2.6,3.93-3.51,3.01ZM1406.2,176.9c-1.72-1.73,2.6-3.99,3.52-3.08,1.71,1.67-2.61,3.95-3.52,3.08ZM1413.14,173.94c.76-3.62,3.49-1.69,3.41.11-.75,3.56-3.47,1.67-3.41-.11ZM1440.41,178.03c-1.72-1.74,2.59-3.99,3.51-3.07,1.72,1.67-2.61,3.95-3.51,3.07ZM1454.07,178.5c.77-3.62,3.49-1.66,3.43.12-.79,3.55-3.5,1.62-3.43-.12ZM1464.56,172.48c.77-3.62,3.49-1.68,3.42.12-.78,3.55-3.5,1.66-3.42-.12ZM1464.64,70.62c-1.72-1.71,2.63-3.97,3.55-3.07,1.71,1.74-2.63,3.97-3.55,3.07ZM1471.5,169.51c.19-3.08,4.28-2.31,6.96-2.94-.21,3.1-4.28,2.33-6.96,2.94ZM1487.48,7.79c-4.02.37-6.11-.92-6.77-3.43,4.02-.37,6.1.92,6.77,3.43,12.36,10.09-10.82,10.34,0,0ZM1492.31,65.24c-1.7-1.72,2.63-3.96,3.56-3.06,1.7,1.72-2.64,4.01-3.56,3.06ZM1503.66,132.48c-1.71-1.72,2.62-3.98,3.54-3.06,1.72,1.7-2.63,3.96-3.54,3.06ZM1517.86,24.77c.19-3.1,4.29-2.33,6.98-2.94-.22,3.1-4.31,2.33-6.98,2.94ZM1592.24,148.46c-.21,3.1-4.29,2.32-6.95,2.93.2-3.1,4.28-2.3,6.95-2.93ZM1582.69,129.01c.79-3.57,3.5-1.65,3.43.13-.79,3.57-3.51,1.65-3.43-.13ZM1590.55,11.56c.76,5.7-3.5,6.39-3.56,3.03-12.58-5.34-7.94-9.35,3.56-3.03ZM1531.94,15.74c4.96,3.93,15.25,3.32,13.27,13.22-4.96-3.95-15.24-3.34-13.27-13.22ZM1540.96,51.08c-1.71-1.72,2.63-3.96,3.55-3.06,1.71,1.72-2.63,3.98-3.55,3.06ZM1533.09,171.72c5.87,10.4-14.37-17.07,0,0h0ZM1540.06,168.79c-1.71-1.7,2.64-3.96,3.54-3.06,1.72,1.72-2.61,3.98-3.54,3.06ZM1543.72,162.55c-1.72-1.68,2.63-3.94,3.53-3.02,1.71,1.72-2.62,3.96-3.53,3.02ZM1553.64,172.48c-.97.21-2.53-.51-3.42-.13-5.31,2.21-2.48-2.08.12-3.18,4.67-1.94,7.59,2.41,3.3,3.31ZM1559.41,16.75c.79-3.59,3.5-1.63,3.43.13-.77,3.57-3.51,1.63-3.43-.13ZM1560.95,160.04c-1.71-1.72,2.63-3.98,3.55-3.06,1.69,1.72-2.62,3.96-3.55,3.06ZM1573.39,10.91c2.72,3.37-3.26,5.63-3.67,6.22-8.12,11.95,1.84-8.5,3.67-6.22ZM1570.64,176.32c-1.72-1.74,2.61-3.98,3.53-3.08,1.72,1.72-2.62,3.98-3.53,3.08ZM1570.99,166.75c-.79-7.34,10.02-3.14,10.62-9.12-11.84-6.84,12.03,1.86-.12,3.18.42,3.74,6.13,2.92,10.14,3.53,5.91,4.28-14.65,7.33-20.65,2.41ZM1587.39,186.51c.2-3.12,4.28-2.34,6.96-2.93-.21,3.08-4.28,2.28-6.96,2.93ZM1591.16,177.09c-1.69-1.74,2.64-3.98,3.55-3.08,1.71,1.72-2.64,3.98-3.55,3.08ZM1604.28,12.08c-1.72-1.72,2.62-3.98,3.54-3.05,1.7,1.72-2.62,3.98-3.54,3.05ZM1605.82,152.16c1.7-4.57,3.01.44,6.86.26-1,3.96-6.93,2.99-6.86-.26ZM1609.85,136.42c3.12-1.85,6.28-3.59,6.84.26-.99,3.96-6.92,2.92-6.84-.26ZM1627.92,22.52c1.72,1.7-2.64,3.94-3.56,3.03-1.71-1.72,2.64-3.94,3.56-3.03ZM1623.07,149.63c8.97,10.05-10.1-9.06,0,0h0ZM1618.18,187.68c-1.7-1.74,2.64-4,3.55-3.05,1.72,1.68-2.64,3.94-3.55,3.05ZM1622.1,175.06c3.12-1.83,6.27-3.59,6.84.26-1,3.98-6.92,2.97-6.84-.26ZM1634.89,19.6c3.13-1.85,6.27-3.63,6.86.26-1.01,3.96-6.95,2.94-6.86-.26ZM1646.18,172.79c-2.87,5.69-3.61-2.04-3.17-6.5,2.88-5.69,3.62,2.08,3.17,6.5ZM1648.86,13.78c-1.72-1.72,2.62-3.98,3.54-3.05,1.71,1.72-2.63,3.98-3.54,3.05ZM1650.1,160.23c.79-3.59,3.51-1.64,3.42.13-.78,3.59-3.5,1.65-3.42-.13ZM1655.83,10.86c11.23-3.5,2.22,10.39,13.46,6.87-2.43,7.67-17.38,1.01-13.46-6.87ZM1674.31,154.78c-.2,3.1-4.28,2.32-6.97,2.92.22-3.09,4.29-2.32,6.97-2.92ZM1665.37,30.31c-.78,3.57-3.5,1.65-3.41-.13.77-3.57,3.49-1.65,3.41.13ZM1663.42,170.27c-9.05,5.59,4.09-12.78,14.08-8.98,1.13,8.82-12.88,2.49-14.08,8.98ZM1676.03,21.18c-11.79,7.23,8.69-10.35,0,0h0ZM1773.48,72.65c1.7,1.72-2.62,4-3.55,3.05-1.7-1.72,2.63-3.96,3.55-3.05ZM1766.74,69.21c1.72,1.72-2.63,4-3.54,3.05-1.71-1.68,2.64-3.96,3.54-3.05ZM1757.22,49.78c1.7,1.68-2.64,3.96-3.56,3.05-1.69-1.76,2.64-4,3.56-3.05ZM1759.94,158.07c-.2,3.1-4.25,2.32-6.96,2.92.21-3.1,4.28-2.32,6.96-2.92ZM1747.32,39.83c-.79,3.57-3.51,1.65-3.43-.13.79-3.57,3.5-1.65,3.43.13ZM1710.52,16.15c1.69,1.7-2.64,3.98-3.54,3.03-1.72-1.7,2.63-3.96,3.54-3.03ZM1698.04,162.07c-1.69-1.72,2.63-3.96,3.56-3.05,1.71,1.72-2.63,3.96-3.56,3.05ZM1692.9,28.18c8.44-9.53,24.49,9.89,0,0h0ZM1704.17,181.42c-1.72-1.74,2.63-3.98,3.55-3.07,1.71,1.72-2.64,3.98-3.55,3.07ZM1720.55,22.89c-6.65,5.81-.68,7.96-.61,15.9-10.44,2-16.24-21.45.61-15.9ZM1719.21,57.85c-.78,3.57-3.51,1.64-3.43-.13.78-3.57,3.5-1.65,3.43.13ZM1714.57,178.61c-7.78-2.78-2.6-19.79,7.46-15.61,2.17,9.9-9.65,5.76-7.46,15.61ZM1738.05,192.28c-1.71-1.74,2.64-4,3.56-3.05,1.7,1.68-2.64,3.94-3.56,3.05ZM1741.85,182.86c-1.72-1.74,2.62-3.98,3.53-3.07,1.71,1.72-2.62,3.98-3.53,3.07ZM1786.75,174.98c-22.7-.73-39.69,2.88-61.53-5.53-3.84-13.77,22.92,6.42,27.65-5.28,2.69,1.78,5.42,3.54,10.14,3.58,10.56.48,24.62-8.39,23.75,7.23ZM1788.59,35.02c-1.69-1.72,2.62-3.94,3.54-3.06,1.72,1.72-2.62,3.96-3.54,3.06ZM1798.22,143.61c-1.69-1.72,2.64-3.98,3.55-3.05,1.71,1.7-2.64,3.96-3.55,3.05ZM1802.03,41.91c-1.69-1.72,2.63-3.98,3.55-3.05,1.7,1.72-2.63,3.96-3.55,3.05ZM1810.98,169.56c-1.72-1.72,2.62-3.98,3.54-3.06,1.71,1.72-2.62,3.96-3.54,3.06ZM1817.23,185.71c-1.71-1.74,2.64-3.98,3.55-3.08,1.71,1.72-2.64,3.98-3.55,3.08ZM1822.42,45.86c-1.7-1.72,2.63-4,3.54-3.06,1.71,1.72-2.63,3.96-3.54,3.06ZM1867.3,34.75c1.69,1.71-2.62,3.97-3.53,3.06-1.72-1.72,2.61-3.94,3.53-3.06ZM1866.96,44.3c1.69,1.71-2.62,3.97-3.53,3.06-1.72-1.72,2.61-4,3.53-3.06ZM1856.94,37.56c1.71,1.72-2.62,3.96-3.53,3.06-1.71-1.72,2.61-3.94,3.53-3.06ZM1836.55,33.62c1.99-4.81,3.58-.06,3.3,3.31-1.98,4.81-3.54.08-3.3-3.31ZM1861.92,184.13c-1.73-1.7,2.62-3.96,3.54-3.06,1.72,1.72-2.63,3.99-3.54,3.06ZM1872.43,178.13c-3.34-.18-2.51-3.96-3.2-6.45-9,2.84-23.15,4.73-27.29-4.18-8.09.7-2.59,14.98-14.17,12.19,5.93-6.05-.18-4.02.47-12.69,7.78,1.16,12.89-.31,13.94-5.86,3.87.76,1.78,3.25-.12,3.18,3.53,8.83,21.84,4.82,30.83,1.11,8.81,1.06-4.89,5.29-.45,12.7ZM2350.02,68.13c1.75,1.62-2.46,4.03-3.4,3.14-1.76-1.66,2.48-4.04,3.4-3.14ZM2332.89,96.62c-.66,3.6-3.42,1.76-3.39-.02.65-3.59,3.41-1.74,3.39.02ZM2322.86,67.97c1.76,1.63-2.49,4.02-3.41,3.12-1.74-1.67,2.48-4.04,3.41-3.12ZM2316.08,67.93c1.73,1.63-2.48,4.02-3.43,3.12-1.74-1.67,2.49-4.04,3.43-3.12ZM2305.71,90.1c1.74,1.65-2.5,4.08-3.44,3.14-1.73-1.67,2.5-4.04,3.44-3.14ZM2299.07,70.96c-.12,3.1-4.19,2.44-6.82,3.11.12-3.1,4.17-2.44,6.82-3.11ZM2288.61,96.29c1.76,1.7-2.49,4.03-3.42,3.15-1.74-1.67,2.49-4.03,3.42-3.15ZM2281.72,105.75c1.76,1.68-2.52,4.05-3.45,3.15-1.75-1.65,2.52-4.05,3.45-3.15ZM2271.25,127.92c1.73,1.65-2.54,4.03-3.46,3.13-1.75-1.63,2.52-4.03,3.46-3.13ZM2268.56,64.29c1.74,1.63-2.51,4.03-3.44,3.15-1.72-1.71,2.51-4.07,3.44-3.15ZM2248.06,73.57c-.7,3.59-3.45,1.72-3.4-.05.68-3.59,3.42-1.73,3.4.05ZM2251.19,92.69c-.13,3.11-4.21,2.42-6.84,3.08.12-3.1,4.18-2.41,6.84-3.08ZM2233.97,105.15c1.74,1.68-2.52,4.04-3.46,3.13-1.74-1.66,2.52-4.04,3.46-3.13ZM2227.61,76.44c1.72,1.68-2.52,4.04-3.46,3.11-1.74-1.64,2.52-4.02,3.46-3.11ZM2210.8,63.48c3.57-2.59,6.07,2.91,6.73,3.29,12.99,7.28-9.12-1.59-6.73-3.29ZM2200.43,72.83c1.73,1.69-2.54,4.02-3.47,3.12-1.72-1.67,2.54-4.01,3.47-3.12ZM2186.22,104.35c1.73,1.69-2.55,4.03-3.48,3.12-1.72-1.67,2.55-4.03,3.48-3.12ZM2172.64,100.92c1.72,1.69-2.56,4.01-3.48,3.1-1.73-1.67,2.56-3.98,3.48-3.1ZM2159.73,65.71c1.71,1.65-2.54,3.99-3.48,3.08-1.72-1.69,2.57-4.01,3.48-3.08ZM2152.44,87.8c1.71,1.68-2.57,4.04-3.5,3.09-1.71-1.69,2.56-4,3.5-3.09ZM2084.9,60.75c1.72,1.66-2.58,3.99-3.5,3.1-1.71-1.74,2.58-4.03,3.5-3.1ZM2074.68,60.48c-1.62,4.55-2.98-.45-6.8-.18.95-4.01,6.84-3.05,6.8.18ZM2070.34,95.34c1.71,1.72-2.59,3.99-3.5,3.1-1.73-1.7,2.57-3.99,3.5-3.1ZM2050.83,59.83c1.72,1.66-2.59,3.98-3.51,3.09-1.71-1.75,2.59-4.02,3.51-3.09ZM2046.97,75.6c1.74,1.73-2.58,4-3.49,3.09-1.72-1.66,2.58-3.98,3.49-3.09ZM2023.86,49.49c-.77,3.58-3.48,1.68-3.43-.1.76-3.58,3.48-1.68,3.43.1ZM2020.15,58.94c1.71,1.66-2.57,3.98-3.49,3.09-1.71-1.75,2.58-4.02,3.49-3.09ZM1973.71,124.29c-1.73-1.67,2.6-3.97,3.5-3.06,1.73,1.69-2.6,3.97-3.5,3.06ZM1976.25,44.84c1.72,1.71-2.6,3.97-3.51,3.08-1.71-1.71,2.59-4,3.51-3.08ZM1969.11,54.17c-.75,3.58-3.48,1.63-3.41-.11.77-3.62,3.49-1.67,3.41.11ZM1931.6,52.93c-.78,3.58-3.48,1.62-3.42-.11.79-3.61,3.48-1.66,3.42.11ZM1881.83,203.92c-1.71-1.67,2.62-3.96,3.54-3.06,1.71,1.72-2.63,4.01-3.54,3.06ZM1899.64,185.47c-1.73-1.7,2.6-3.97,3.54-3.06,1.71,1.72-2.62,3.99-3.54,3.06ZM1909.17,208.07c.69-3.7,6.34-2.46,10.4-2.84-.69,3.7-6.34,2.48-10.4,2.84ZM1960.55,212.98c-1.72-1.69,2.63-3.97,3.54-3.08,1.72,1.71-2.61,4.02-3.54,3.08ZM1967.63,206.83c3.1-1.85,6.26-3.61,6.85.22-.97,3.99-6.91,3.03-6.85-.22ZM1974.79,197.55c-1.71-1.73,2.63-3.99,3.54-3.08,1.72,1.67-2.61,3.95-3.54,3.08ZM1999.13,188.74c-11.07-.02-23.2-5.7-40.98-7.66.74-2.54,3.55-3.04,3.64-6.22-5.37,11.64-27.89-1.47-48.1,1.54.67-.06-10.16,5.61-10.18-3.5-5.8-1.4-6.55,2.23-7.07,6.09-6.5-1.54-5.88-9.28-16.93-6.93-3.18-24.67,24.67-11.02,34.5-5.17,3.33.03,2.79-3.8,3.63-6.25,19.86,6.01,24.68-1.07,41.33-4.99-3.02,13.27,13.23-3.89,13.41,9.99,6.8.17,4.63-8.55,13.91-5.94,12.03-.18,10.93,11.11,20.17,13.38-7.82,7.12-3.29,8.4-7.34,15.66ZM2006.52,58.54c-2.25-.07-4.53-.14-6.8-.21.07-2.15.13-4.26.2-6.37,2.27.07,4.55.14,6.8.21-.06,2.11-.13,4.22-.19,6.37ZM2003.51,45.69c.95-3.99,6.87-3.01,6.81.21-1.66,4.58-2.99-.42-6.81-.21ZM2012.09,214.59c-1.73-1.68,2.6-3.98,3.52-3.09,1.73,1.71-2.59,4.02-3.52,3.09ZM2084.04,226.15c-1.75-1.68,2.59-3.99,3.51-3.1,1.75,1.68-2.56,3.99-3.51,3.1ZM2108.13,226.77c.64-3.73,6.33-2.55,10.39-2.95-.64,3.71-6.34,2.54-10.39,2.95ZM2132.17,230.51c-2.31-.05-4.6-.11-6.9-.16.05-2.15.1-4.24.15-6.37,2.3.05,4.58.11,6.89.16-.05,2.13-.1,4.22-.14,6.37ZM2204.73,219.22c-1.75-1.66,2.57-4.02,3.51-3.13,1.74,1.68-2.57,4.06-3.51,3.13ZM2235.55,232.44c.14-3.1,4.26-2.4,6.95-3.08-.15,3.08-4.26,2.4-6.95,3.08ZM2270.27,213.76c-1.77-1.63,2.53-4.03,3.46-3.15,1.75,1.68-2.53,4.07-3.46,3.15ZM2280.53,220.25c2.3.03,4.59.05,6.88.08-.65,2.7,1.33,3.04,3.44,3.22,1.3,6.18-15.75,4.46-10.31-3.3ZM2339.27,195.26c-5.65-.22-5.9,3.17-10.34,3.14-13.79-.13-29.46-1.01-46.3-2.44-16.84-1.4-34.86-3.15-53.35-5-7.82-.99-12.92.59-13.86,6.18-5.05-1.75-8.57-4.87-13.62-6.6-11.35,2.38-26.45,6.11-42.35,7.57-15.89,1.46-32.57.54-47.03-6.26-4.55,1.03-5.55,5.46-10.48,6.15-9.44,2.05-6.75-6.53-13.59-6.75-4.71,5.17-19.47.57-24.19,5.76-12.23-.78-36.95-12.75-41.22-1.17-4.55-3.3-4.14-10.86-9.91-13.06-1.52-11.28,12.38-7.46,10.84-18.77,5.03-1.59,17.6,4.24,17.24-2.69,3.88.73,1.8,3.24-.09,3.18,4.95.86,21.52,1.71,23.65,13.41,11.3-7.42,29.37-8.26,41.55-14.85,1.21,12.4,20.34,8.99,27.08,16.55,7.1-8.27,21.5-9.45,37.94-8.75-.08,4.24-.17,8.48-.25,12.7,9.41-11.79,20.56-5.63,34.48-8.87,5.86-1.07,6.44,2.58,6.76,6.48,9.09-12.75,28.09,4.72,37.89-8.97,5.8,2.13,2.06,7.36-3.5,6.32,8.02,9.49,20.83-3.61,30.92-2.83,7.5-.5,10.9,2.73,10.19,9.63,7.22-6.79,11.11.54,17.16,3.34-1.05-10.6,10-11.52,24.11-6.18.54,6.91-12.2,1.35-17.21,3.04,10.89,6.92,35.81,1.08,48.1,6.61-1.43,10.34-14.72,3.41-20.64,3.12ZM2363.55,87.2c.86-3.45,6.77-2.16,6.82-6.36,3.99.54,2.85,5.82,3.37,9.56-5.47.9-5.84-3.01-10.19-3.2ZM2397.52,71.32c1.75,1.64-2.44,4.09-3.39,3.2-1.75-1.66,2.46-4.05,3.39-3.2ZM2394.15,80.87c-1.76-1.61,2.46-4.05,3.39-3.18,1.76,1.65-2.44,4.09-3.39,3.18ZM2407.69,71.28c-1.74-1.65,2.46-4.06,3.39-3.16,1.76,1.61-2.45,4.05-3.39,3.16ZM2411.65,239.84c-1.79-1.63,2.49-4.09,3.46-3.2,1.78,1.63-2.5,4.06-3.46,3.2ZM2526.53,82.79c-.57,3.63-3.37,1.81-3.39.06.59-3.61,3.36-1.82,3.39-.06ZM2462.22,99.57c1.76,1.66-2.43,4.08-3.39,3.22-1.76-1.64,2.43-4.08,3.39-3.22ZM2458.66,83.69c.02,2.13.04,4.24.06,6.37-2.24.02-4.51.05-6.77.07-.02-2.13-.03-4.24-.05-6.37,2.25-.02,4.52-.05,6.76-.07ZM2441.81,99.76c-1.76-1.65,2.43-4.06,3.38-3.21,1.77,1.66-2.43,4.08-3.38,3.21ZM2451.97,93.3c1.76,1.66-2.44,4.08-3.38,3.22-1.78-1.64,2.42-4.08,3.38-3.22ZM2449.68,236.46c-1.81-1.62,2.46-4.1,3.44-3.2,1.79,1.59-2.49,4.06-3.44,3.2ZM2449.45,207.87c.62-3.65,3.44-1.81,3.46-.03-.64,3.58-3.47,1.77-3.46.03ZM2506.8,124.47c-13.83-3.32-21.74-1.5-29.5-.06-7.75,1.45-15.36,2.51-28.51-2.45.32-8.11,11.37-6.4,20.39-6.58,7.39-4.95,13.75-5.08,20.18-5.16,6.43-.09,12.92-.16,20.56-4.91,10.15-.1,11.7,8.11,20.58,9.2-9.36,4.89-15.93-.21-23.7,9.95ZM2540.61,108c-.04,3.14-4.12,2.54-6.75,3.3.04-3.06,4.11-2.52,6.75-3.3ZM2537.38,117.6c-1.79-1.61,2.39-4.09,3.35-3.25,1.79,1.62-2.39,4.15-3.35,3.25ZM2563.81,82.02c-1.78-1.57,2.38-4.11,3.35-3.26,1.77,1.64-2.37,4.13-3.35,3.26ZM2611.06,74.41c-1.78-1.58,2.32-4.13,3.28-3.28,1.8,1.6-2.32,4.14-3.28,3.28ZM2629.32,115.21c-.52,3.62-3.35,1.88-3.39.1.51-3.62,3.35-1.84,3.39-.1ZM2619.29,233.25c-1.84-1.58,2.39-4.15,3.38-3.27,1.83,1.56-2.39,4.11-3.38,3.27ZM2621.21,74.1c-1.79-1.58,2.32-4.13,3.29-3.28,1.79,1.6-2.32,4.14-3.29,3.28ZM2626.33,236.23c-1.83-1.58,2.38-4.15,3.37-3.29,1.83,1.58-2.38,4.13-3.37,3.29ZM2628.07,77.07c-1.8-1.56,2.31-4.13,3.28-3.27,1.81,1.6-2.31,4.15-3.28,3.27ZM2650.7,238.61c-1.84-1.59,2.37-4.17,3.35-3.31,1.86,1.56-2.36,4.15-3.35,3.31ZM2651.65,73.07c-1.82-1.57,2.29-4.14,3.27-3.31,1.79,1.59-2.29,4.16-3.27,3.31ZM2661.91,75.85c-1.81-1.55,2.29-4.14,3.26-3.29,1.82,1.59-2.3,4.16-3.26,3.29ZM2751.15,231.08c-1.87-1.54,2.32-4.2,3.31-3.37,1.88,1.54-2.29,4.18-3.31,3.37ZM2767,77.35c-1.86-1.52,2.19-4.18,3.19-3.36,1.83,1.56-2.22,4.22-3.19,3.36ZM2785.12,216.53c-1.87-1.53,2.28-4.18,3.29-3.39,1.88,1.54-2.28,4.21-3.29,3.39ZM2814,233.89c-1.9-1.56,2.26-4.22,3.28-3.4,1.9,1.52-2.27,4.18-3.28,3.4ZM2821.55,242.99c-1.7,1.7-4.58-2.06-3.66-2.97,1.69-1.78,4.58,2.02,3.66,2.97ZM2820.94,233.46c-.1-3.1,4.1-2.72,6.75-3.61.09,3.08-4.09,2.72-6.75,3.61ZM2830.9,70.26c-1.85-1.49,2.17-4.22,3.15-3.42,1.87,1.55-2.16,4.24-3.15,3.42ZM2852.43,234.56c-.15-2.12-.29-4.25-.44-6.35,2.32-.16,4.62-.33,6.94-.49.15,2.1.3,4.23.45,6.35-2.32.16-4.63.33-6.94.49ZM2854.5,68.59c-.14-3.08,3.94-2.75,6.5-3.65.12,3.12-3.95,2.75-6.5,3.65ZM2928.62,225.57c-1.92-1.53,2.18-4.26,3.2-3.45,1.94,1.48-2.17,4.22-3.2,3.45ZM2952.73,181.96c1.92,1.45-2.13,4.24-3.17,3.48-1.93-1.51,2.15-4.31,3.17-3.48ZM2949.47,223.75c-.19-3.1,4.01-2.83,6.65-3.8.19,3.08-4.03,2.83-6.65,3.8ZM2959.32,216.47c-1.95-1.47,2.15-4.29,3.18-3.48,1.94,1.47-2.14,4.26-3.18,3.48ZM3002.81,196.37c1.96,1.47-2.1,4.28-3.14,3.52-1.93-1.45,2.11-4.29,3.14-3.52ZM2987.78,185.07c-.31,3.69-3.29,2.12-3.46.35.33-3.65,3.3-2.05,3.46-.35ZM2989.92,207.27c-3.84-.41-2.95-6.05-7.54-5.65.65-8.92,10.85-1.25,7.54,5.65ZM2976.53,176.62c1.94,1.45-2.09,4.24-3.13,3.48-1.94-1.51,2.09-4.28,3.13-3.48ZM2974.28,189.56c-1.93-1.44,2.1-4.26,3.13-3.48,1.95,1.49-2.09,4.3-3.13,3.48ZM2987.83,149.93c.25-7.4,8.42-8.2,13.38-4.54-.64,4.39-8.3,3.49-13.38,4.54ZM3031.99,110.23c-1.94-1.41,2.02-4.28,3.05-3.54,1.92,1.45-2.02,4.35-3.05,3.54ZM3049.65,114.68c.25-3.65,3.19-2.14,3.39-.37-.25,3.65-3.21,2.14-3.39.37Z"/>
  </g>
</svg>