<?xml version="1.0" encoding="UTF-8"?>
<svg id="Layer_2" data-name="Layer 2" xmlns="http://www.w3.org/2000/svg" viewBox="0 0 4322.16 369.61">
  <defs>
    <style>
      .cls-1 {
        fill: #111714;
        fill-rule: evenodd;
      }
    </style>
  </defs>
  <g id="Layer_1-2" data-name="Layer 1">
    <path class="cls-1" d="M4319.49,178.05c-1.92-10.37-4.08-17.86-6.99-26.14-1.45-4.05-3.05-8.05-4.8-11.96-.87-1.95-1.79-3.9-2.71-5.78-.72-1.46-1.47-2.91-2.23-4.35-3.07-5.76-6.49-11.39-10.21-16.75-.93-1.34-1.87-2.67-2.84-3.98l-1.19-1.59-1.06-1.39c-1.42-1.84-2.89-3.66-4.39-5.45-3-3.57-6.16-7.02-9.42-10.32l-1.82-1.8-1.76-1.7c-1.18-1.12-2.39-2.23-3.6-3.32-2.42-2.17-4.95-4.31-7.44-6.3-3.6-2.87-7.32-5.6-11.13-8.18l-2.4-1.59-2.1-1.34c-1.4-.89-2.82-1.75-4.24-2.6l-2.14-1.26-1.82-1.03-3.23-1.77-3.26-1.7-2.87-1.43c-1.68-.82-3.36-1.61-5.06-2.38l-2.29-1.02-2-.86-3.99-1.65-3.25-1.27-3.14-1.17-2.68-.96-2.61-.9-2.26-.75c-1.4-.44-2.8-.89-4.19-1.33-1.24-.37-2.47-.74-3.7-1.11-1.11-.32-2.22-.63-3.33-.95-.99-.27-1.98-.54-2.97-.81-3.76-1-7.08-1.81-9.95-2.47-5.84-1.35-10.59-2.3-14.95-3.1-4.34-.8-8.24-1.43-11.93-1.98-3.69-.55-7.17-1.01-10.48-1.41-3.33-.4-6.53-.75-9.63-1.05-6.21-.61-12.09-1.07-17.82-1.47-11.46-.81-22.4-1.41-33.65-2.33-11.25-.92-22.79-2.15-35.26-4.15.25,10.9-8.11,13.15-15.29,16.62.21-4.34.42-8.69.63-13.03-19.65-5.91-19.08,8.28-33.77,7.2,1.72-7-5.93-11.95-9.33-4.73,2.66.1,5.27,3.77-.17,4.35-16.51-8.41-39.37-12.43-47.21,2.67-.84-4.89-4.99-6.91-9.1-8.99-2.91,8.95-7.6,8.98-14.21,3.92-.7,5.29-1.71,10.23-9.63,8.42-15.76-1.63-2.72-28.65-17.86-30.92,4.74.1,6.09-7.44.23-8.7-.83,9.58-19.91,1.35-28.15,3.64-3.67,11.78,9.06,8.98,8.89,17.6-16.88,5.87-41.87.03-55.93-1.27-5.58,6.38-6.13,17.67-14.37,21.46,5.53-12.66,3.06-16.1-8.87-21.93-2.73,6.22-7.45,10.48-14.17,12.78-4.42-22.91-18.64,11.79-23.25-.41.56-6.86,11.94-3.18,9.57-12.88-8.14.2-14.47-1.24-18.52-4.64-.83,5.1.59,12.3-4.88,12.94-.65-5.1,1.03-12.3-4.42-13.1-3.81,3.38-23.92,2.45-32.64,12.52.96-9.48-3.61-13.87-13.74-13.22-4.55,8.02,13.69,14.66-.24,17.37-4.47-4.52-9.04-8.94-13.74-13.24-4.68,13.27-15.58-2.12-18.46-4.56-4.5,14.72-14.57,24.08-28.12,30.05-1.05-19.08-3.45-3.23-18.38-13.23.13-5.76,8.12-3.86,9.38-8.59-19.6,11.08-19.37-7.16-36.97-9.06-4.59,15.68,20.72,3.85,18.35,17.56-14.25-3.4-5.79,14.91-23.23,8.46.06-5.85.11-11.61.17-17.4-16.02-.72-7.62,21.96-23.31,21.5-20.41,2.7-18.94-.87-32.46,8.36-8.1-7.27,4.23-14.46.25-30.36-13.86-4.49-8.24,9.62-9.38,17.32-9.77,3.76-13.76,13.11-27.79,12.76.7-5.11,8.29-9.74.09-12.97-6.07,17.36-9.54-1.31-23.11-.16-1.06,3.33-.15,8.53-4.64,8.64-1.48,8.52,6.14,8.66,9.09,13.06-14.84,3.74-9.48-11.28-18.39-13.12-.63,9.54-19.57,1.72-27.71,4.13,4.93-10.91-15.44-19.3-18.44-8.75,3.57.98,9.13.19,9.24,4.4-17.88-1.96-16.41-4.89-27.73,4.15-2.45-22.36-10.86,4.8-18.5,4.26-1.05-6.16-7.55-7.32-9.16-13.04,5.47-2.09,10.51-4.61,13.88-8.61-7.23-1.92-3.86-13.69-18.42-8.78-.02,5.79-.05,11.55-.07,17.37-13.4.82-11.97,6.67-32.31,8.52,4.03-13.85-7.09-13.56-13.84-17.37.69,19.1-13.02,1.15-18.45-.06,1.34,16.33,20.42,12.95,23.03,17.39-10.27,16.74-16.9,2.01-32.29-4.4-3.18,8.61-14.05,9.88-18.49,17.29-9.62-15.9-22.03-2.17-36.9-.08-.21-5.96,2.2-9.51,4.65-13.04-8.57-3.49-18.67-5.6-23.07-13.01.18,5.96-2.16,9.52-4.63,12.96,2.83,6.08,17.77.74,18.42,8.73-13.32-.56-21.04,10.5-23.05-4.39-12.54-3.15-9.28,8.66-18.43,8.67-8.95-6.53,8.07-18.29-9.19-21.7-1.08,3.36-.14,8.53-4.64,8.64-14.69-8.15-19.3,1.14-36.91-4.32-1.65,12.97-2.66,26.44-13.83,30.39,8.02-9.07,3.11-35.5-9.21-21.75,5.77,1.84,9.4,5.62,9.21,13.05-5.9.25-6.41,5.56-13.87,4.35,15.32-15.48-27.56-27.94-32.23-13.05,13.79,2.93,6.98,25.28,18.46,30.42-24.55,7.65-83.31,18.28-101.43,4.42,10.97-2.72-.73-26.72,9.2-30.43-6.94-1.15-19.46-18.65-23.07-8.67,4.74,4.23,9.35,8.57,13.83,13.03-21.39-4.07-30.6.55-32.27-17.35,1.6,15.11-21.61,18.26-27.64,13.1-.53,5.34-1.37,10.31-9.22,8.72.04-8.61,12.57-5.53,9.21-17.42-16.67,7.46-26.11,21.8-41.41,30.51,1.37-8.53-6.26-8.57-9.24-13,6.68-2.39,23.79,5,23.01-4.4-6.21.78-9.26-22.04-13.83-8.67,3.6.98,5.37,3.63,4.63,8.69-7.96-6.62-21.62,6.18-27.67-8.63-7.66,7.31-15.31,14.56-23.01,21.78-3.95-13.83,7.22-13.41,9.15-21.74-11.73.54-16.06,8.04-22.99,13.11,8.99-2.14,16.65,21.5.05,17.37,11-11.67-15.37-14.36-18.49-26.02,3.56-.94,9.08-.14,9.2-4.38-11.48.54-14.23,8.21-23.06.07-5.1,13.66,4.7,24.02-13.74,30.46.23-8.13-3.56-9.19-9.19-4.32.14-5.99-2.21-9.51-4.66-13.01,9.46,4.97,21.94-6.88,9.16-8.73-.74,5.06-7.24,4.77-13.8,4.4-.75,6.53,1.73,16.01-4.54,17.39l-13.81.05c11.65-6.09-14.65-22.83-18.46-12.95,12.95,4.22-6.64,11.64,4.67,17.35-8.59-4.09-15.37,13.03-18.45.07.95-5.26,5.1-2.68,9.24-.04-.85-6.49,1.56-16.02-4.7-17.35-9.34,7.16-12.66,19.91-27.56,21.83-3.66-.47-13.99-14.29-4.66-13.03,10.48,9.84,20.26-3.02,27.62-8.78-17.83-2.25-22.45,7.86-41.45,4.52,4.19,15.15-15.01,7.5-18.4,4.4,2.25,9.88-11.43,26.15-18.39,13.13,4.06-1.32,23.35-8.81,9.15-13.09-.78,5.09-7.26,4.78-13.79,4.41-6.37,5.57-1.92,21.31-13.75,21.82-12.16-11.24-3.58,7.02-18.37,4.44,6.14-8.7,8.66-20.72,13.66-30.52-27.06-1.28,3.2,24.05-22.91,21.86,8.47-7.72-1.26-13.44-9.29-17.35-.4,8.42-18.04-7.42-18.38,8.79,8.56.55,15.41,2.77,18.47,8.61-12.67,7.69-24.2-4.2-36.81,8.89.16-5.99-2.23-9.54-4.69-13.03-17.18,5.85-26.48-17.99-32.3-8.53,13.92,6.48-10.19,13.02-13.73,17.48.21-7.52-3.61-11.11-9.28-13,1.05,7.4-5.12,10.76-4.6.03-15.77-3.19-5.74,17.66-22.97,13.18-3.81-9.86,8.44-29.14-.1-17.4-8.44,23.83-20.54-.56-41.4,8.95-3.13,13.35-3.16,8.35.13,21.66,16.37-3.18,20.11-13.42,32.23-4.54-24.11,1.19-4.67,12.99-4.46,26.15-10.88-1.29-8.66-15.06-23.1-12.94-7.4,6.06-14.51,12.43-22.93,17.57-65.66-13.94-152.14,18.66-216.42,1.49-.02-2.96-.04-5.82-.07-8.7,29.39.63,45.24,6.3,45.96-13.42,5.39.72,5.06,6.86,4.71,13.05,15.32-10.45,33.21,8.12,41.38-9.02-.23,7.49,3.62,11.13,9.29,13.01.74-6.53-1.75-16.03,4.5-17.46l.06,8.73c23.84-2.99,28.56,1.5,46-9.04,12.48,8.76,17.87-.26,32.22-.21,1.05,3.41.18,8.62,4.66,8.7,13.94-7.78-12.66-13.37-.11-17.43,10.27,3.35,12.43,14.38,27.71,12.88-2.29-13.63,6.47-16.99,9.06-26.07-16.22,7.05-39.69-8.62-50.61,9.02-14.19-19.17-24.28,7.81-46.08-4.04-5.39,6.48-3.85,19.4-18.3,17.44,10.43-6.76,8.64-9.07,4.44-21.7-23.8,0-31.02-6.85-41.37,8.99-2.67-12.61-7.15,6.63-13.79,4.36-.02-2.85-.04-5.76-.06-8.61-22.45,5.16-35.71,4.98-50.6,8.98-1.05-3.32-.19-8.5-4.67-8.58-3.8,12.74-14.85-2.52-23.02.17-.68,5.09.88,12.31-4.5,13-3.01-14.55-15.67-2.45-32.29-4.1-.02-2.85-.04-5.76-.07-8.61-17.3,2.22-19.47,1.37-36.76,8.9-5.05-11.4-31.97-11.18-36.84.3,7.49-1.3,12.47,5.8,4.67,8.66-17.47-20.85-38.13-1.64-69.21-16.74-.47,5.29-1.3,10.29-9.15,8.69-1.05-3.32-.2-8.5-4.68-8.57-4.16,4.87-8.56,1.4-22.98,4.55,1.48,11.4-9.53,11.27-18.32,13.12-4.64-5.75-12.52-8.39-13.96-17.19-17.72,1.43-23.93,4.22-36.69,17.64-11.8-5.4,4.08-21.28-4.81-21.62-2.89,12.99-9.87-4.09-18.4.17-8.45,19-43.97,14.67-50.66.47-.98,3.4-3.81,5.06-9.18,4.44-3.31-30-1.87,5.55-9.11,8.7-.51-6.78.48-15-9.35-12.88-1.74,7.47,6.94,11.06.12,12.96-9.42-14.23-16.05-3.94-27.61.26,2.69-13.92-16.65-5.74-4.78-17.27-19.45-6.54-.51,22.46-13.61,21.8-6.21-10.56-17.09,5-18.46-4.17-.72-5.76,15.33-16.28,4.43-17.36-2.51,6.27-7.07,10.66-13.69,13.18l-.13-13.05c-22.42,11.91-34.18,9.32-55.29-3.81-.55,8.08-2.9,14.55-9.05,17.49-3.98-10.27-20.18,3.79-27.58,4.54,3.79-8.54,22.66-21.89,4.34-26.06-7.37,6.12-14.45,12.46-22.84,17.63,1.22-24.17-21.31,0-23.22-17.16-14.96,8.85-30.35,10.65-41.47-3.92,1.38,9.87-.95,16.31-9.03,17.5-12.11-21.23-75.89-11.49-87.59-7.77-.56-5.33-1.48-10.27-9.31-8.6-7.6.11-2.44,12.06-9.06,13.15-4.57-5.83-12.38-8.57-18.56-12.85-2.18,5.17-4.79,9.91-9.06,13.15-.3-2.65-.73-5.13-4.65-4.3,0-5.73,8.02-4.04,9.12-8.8-14.49,2.25-18.08-5.96-27.75-8.37-3.09,8.59-12.15,11.66-22.88,13.28-.05-4.35,3.68-5.18,4.52-8.75-5.41-.62-13.07.94-13.85-4.17-12.61-3.05-9.19,8.69-18.34,8.88-9.67-13.22-26.47.07-46.16-8.15-.64,5.12.93,12.34-4.45,13.07-8.86-6.06-13.39-16.34-27.82-17.06-.98,3.35-.03,8.56-4.5,8.72-5.96-16.48-18.87.95-32.34-8.3-.67,5.12.93,12.33-4.45,13.07-8.19-10.44-24.6,7.63-13.94-8.51-17.04,11.84-22.44-6.83-32.24.38-16.21,1.46,16.43,11.56.15,13.02-18.02,7.16-1.8-18.76-14.01-17.21-.5,6.97-11.75,4.03-16.57,7.01-.47.58-1.04,1.2-1.73,1.88.37-.81.97-1.42,1.73-1.88,5.79-7.12-4.26-7.09-11.11-11.03,1.46,11.37-1.45,18.72-13.6,17.54-.04-5.7,8.04-4.05,9.11-8.78-7.55-6.44-34.08-6.12-41.46.5-24.41-21.94-77.36,4.13-106.01-7.41-.04-2.88-.07-5.79-.11-8.7-15.77-3.03-5.64,17.72-22.84,13.33-9.88-12.33-15.44-5.65-36.93-3.89-.52-4.85,6.63-6.86-.11-8.7-2.75,9.33-28.26,4.45-32.22.41-6.59,6.84-17.85,9.32-32.13,9.11.63-10.88-7.25-13.49-14.01-17.22-1.73,7.56,6.95,11.04.17,13.05-18.33,2.61,4.75-15.4-18.62-12.81-1.7,7.56,6.98,11.04.17,13.05-11.46-9.88-12.84,1.58-18.38,4.59,2.36-1.25-2.63-4.43-4.63-4.29-7.09.43-22.5,6.54-9.39-12.93-14.58-4.75-11.1,7.01-18.31,8.94-9.82-9.39-20.48-.64-27.56,4.71-.54-4.85,6.59-6.81-.11-8.7-1.18,8.97-12.19,8.86-18.25,13.29-.55-4.85,6.61-6.86-.11-8.7-8.38,5.22-20.83,6.63-22.79,17.7,3.27-16.34-12.25-14.56-18.71-21.5-.66,25.97-29.03-.15-36.61,17.89-7.03-10.78-20.89-14.94-32.55-21.31-9.23,10.04-23.95,9.93-32.23.44,2.49,22.93-12.54-9.86-13.74,4.54,5.17.83,7.22,4.76,9.32,8.57-6.15.08-12.28.17-18.42.25,11.5-16.17-11.68-3.43-18.42.25-4.59-4.4-9.23-8.63-14-12.86-4.46,12.35-19.57-.89-27.65.38-1.69,7.56,7.01,11.03.18,13.05-9.47-1.03-1.32-19.19-14.03-17.15,7.45,25.69-16.91-2.25-22.84,13.32,2.57-.04,5.26,3.48.06,4.35-8.75-20.7-12.5,6.56-32.24.45-.08-4.35,3.66-5.19,4.48-8.76-20.57,6.31-20.54,1.7-32.36-8.19,1.43,9.87-.87,16.34-8.94,17.47.6-10.88-7.3-13.48-14.07-17.15-11.01,5.61-24.38,9.11-31.99,17.8.41-10.88,8.58-13.71-4.87-17.27-5.52,18.41-24.89,1.83-41.37,4.89-.66,5.18.97,12.33-4.43,13.11,1.34-5.27-13.52-14.77-13.87-4.15,2.8.21,5.45.6,4.63,4.28-12.25-9.96-17.25,12.68-32.02,13.52,8.87-11.85-15.79-20.53-28.04-25.69-.96,3.43.03,8.59-4.46,8.77-6.84-21.91-25.15,10.17-36.89-3.8,3.03,13.91-16.49,6.26-4.34,17.46-12.45-1-21.88,17.73-13.82.21-20.37,2.79-37.8,16.42-45.8,18.07,10.02,6.29-4.85,12.33,9.47,17.26-6.07,4.44-13.79,7.35-18.22,13.24,19.44-5.75,50.16,4.04,51.11,29.65-14.92-11.44-16.08,10.75-32.23.49-2.26,12.24-22.07,8.41-32.03,13.54-6.12-4.34-17.03-3.97-23.15-8.34-10.05,9.68,8.29,14.34,9.6,25.9-13.9,1.57-16.22,13.67-36.67,9.27,5.37,13.59.58,9.85.41,26.07-10.04-.63-14.58,3.79-13.6,13.24,17.36,8.94,24.37,10.86,41.6,12.4,13.56,15.72,8.14,23.38,19.01,38.78,37.84-1.97,114.72,8.66,151.89,2.07,8.61,6.29,21.99,7.99,36.97,8.14.98-3.4-.01-8.59,4.44-8.74.87,10.78,15.64,1.05,18.42-.27.08,4.35-3.66,5.23-4.46,8.74,25.84,5.19,69.37,3.91,115.04-1.65,1.95,5.42,6.05,8.78,13.92,8.5,21.04.92,47.96-7.28,69-.96.68-5.12-.94-12.33,4.45-13.08,14.11,11.36,26.08,14.78,41.53,8.1-1.33,5.27,13.51,14.79,13.87,4.16-16.05-1.08.23-11.75-9.39-12.89.02,5.68-12.68,5.68-13.81.19,4.7-2.83-.83-18.15,18.17-17.62,18.38,4.78-2.47,31.27,18.94,38.78,6.77-10.21,11.17-6.74,22.95-4.66,5.38-5.07,16.22-5.08,27.57-4.67,3.98,9.24,29.28-2.03,32.31,8.21,6.33.14,10.08-2.17,13.75-4.53,3.56,5.77,45.13,10.33,41.32-4.84-15.26,4.84-15.7-1.18-32.13,4.72,2.17-5.11,4.78-9.84,9.02-13.11,8,11.64,22.99-8.61,27.75,8.33,4.83-4.13,1.18-16.06,13.61-13.2-1.85,10.11-20.16,11.88-8.9,21.79,21.21-.03,29.12-17.05,31.91-22.09,11.81,3.21,19.4,10.51,27.85,16.96,15-16.49,31.64-6.52,44.82-21.24.26-.38.56-.72.89-1.02-.29.36-.59.69-.89,1.02-3.86,5.59-.13,19.38,5.84,24.94,1.25-9.17,20.12-23.93,22.78-17.64,1.53,11.42-17.81,3.61-13.56,17.52,15.52-.45,19.7,7.57,27.52-4.7-7.22-.3-15.93.83-13.9-8.47,12.56-.55,9.37,7.11,18.41-.23-.25,7.58,1.21,13.49,4.83,17.29,37.44-1.01,42.71-6.19,82.75-5.39,9.37-1.36,8.89-11.81,18.26-13.22-1.03,6.23-7.47,7.44-9.05,13.11,25.08,5.96,39.94,5.49,55.13-9.33.75,5.05-.64,12.32,4.75,12.94,1-3.35,0-8.56,4.48-8.76,9.94,13.44,19.1,5.93,36.85-.45,13.08,12.44,56.08,7.23,69.06,3.52-5-.96-11.14-6.99-4.7-8.59,9.38,1.19,12.35,8.55,18.54,12.78-3.52-9.57,16.75-18.05,18.29-8.92.04,7.2-12.71,2.63-13.69,8.86,19.74.22,35.05,9.45,45.96-4.89.05,4.41,3.81,5.15,4.72,8.64,10.45-8.31,33.57,8.11,45.97-4.88-7.97-7.37-18.02,6.59-18.56-12.78,6.69,4.78,11.28,4.56,13.75-4.51-5.02-.99-11.15-7.05-4.71-8.62,10.1.53,10.01,10.82,9.48,21.56,8.25-.63,10.82,4.23,9.33,12.94,6.07.5,33.32.3,18.37-4.56-5.42-.59-13.06.91-13.86-4.19,1.31-3.86,12.24-19.12,13.71-8.86-11.45,8.32,4.38-2.62,13.79-.16-.44,10.88-8.62,13.74,4.83,17.34,2.98-13.65-.77-17.73,4.34-21.74,16.06,1.09-.25,11.76,9.36,12.89,1.18-8.91,12.2-8.78,18.26-13.2,2.06,8.23,10.02,10.79,9.44,21.59,21.73,9.67,53.2-11.52,68.97-5.11-11.72-4.47-26.13,9.44-13.66,13.2,10.2-5.59,25.67.79,45.97-4.85.03,2.88.06,5.76.09,8.7,12.32-4.88,23.58-1.13,36.84,3.92-5.18-17.69,15.72-11.27,18.17-21.92,1.12,7.67-16.71,25.86-4.41,17.45,5.32-11.75,23.99-.25,32.21-.34-.94-9.48,3.62-13.88,13.65-13.19,5.48,2.06,10.49,4.5,13.91,8.56,13.93-1.87,85.06-9.63,69.18,16.66,21.23,3.8,18.88-14.09,27.39-22-7.18,36.11,55.5,5.01,69.23,21.04,3.81-10.18-16.29-18.54-4.82-21.68,8.59.54,15.41,2.73,18.49,8.52.26,5.99-2.08,9.51-4.49,13.07,17.47,6.13,8.73-12.03,22.91-8.92.07,4.38-3.67,5.2-4.5,8.74,14.01-3.3,16.81,4.27,27.65,4.06.41-11.08.64-22.32,13.59-21.82-.2,5.51-5.85,6.07-4.49,13.06,13.04,5.73,11.32-23.13,18.32-8.85-.96,11.99-17.02,10.02-22.82,17.56,18.28,6.69,33.29,11.72,46-.43-11.4,3.13-19.66-18.35-9.4-21.61.04,4.35.08,8.67.12,13.02,15.76,1.69,13.68-13.15,22.82-17.59-6.58,20.91,11.66,18.03,9.53,34.66,23.31-2.39,43.24.39,45.89-13.44,5.78,1.73,9.45,5.51,9.31,12.94,59.74-1.38,80.6,6.63,128.74-5.47,14.17,10.08,51,4.44,55.14-9.13,25.61,1.63,32.91,5.53,45.92-9.07,3.23,12.83,11.88,16.21,18.43,4.21,13.26.44,8.14,18.44,23.13,17.19,14.69-3.05,8.59-14.47,13.67-17.48,10.47-1.32,17.29.91,18.46,8.53-5.42,2.16-10.38,4.71-13.74,8.8,14.29,1.36,21.91-10.22,32.18-.24,1.34-8.54-6.26-8.54-9.27-12.95,22.98.59-14.64-14.55,9.04-17.44,12.7-1.96,4.45,16.18,13.95,17.27,4.2-7.6-.34-23.3,13.65-21.82,4.97,19-15.45,14.38-13.58,30.49,25.09-1.4,29.99-6.18,55.19-.39,1-3.4.05-8.56,4.54-8.7,5.96,5.95,20,4.18,32.23,4.1-.29-7.48,3.45-11.15,9.09-13.08-.74,9.47,3.87,13.79,13.92,12.93-.49-17.09,36.26,3.49,27.51-8.85-4.6.03-9.18.06-13.79.09.15-5.96-2.23-9.53-4.69-12.99,15.82,10.52,35.18.68,41.49,12.75.81-6.42,11.1-4.05,18.37-4.47-3.25-14.53,7.61-15.89,18.29-17.49.69,5.14,8.26,9.78.08,13.05-.55-5.31-1.45-10.27-9.27-8.64.03,4.35.05,8.7.08,13.02,15.43-5.94,24.34,2.2,32.19-4.52-4.64-.03-5.82-7.59-.05-8.7-3.31,7.14,9.25,18.82,9.24,8.65-5.35-.73-5.03-6.86-4.66-13.02,10.63,8.58,5.09-1.1,13.76-4.43,14.07,5.51,23.08,15.83,41.49,17.17-5.34-12.77-2.8-16.14,9.08-21.8-1.42,10.12.83,16.72,4.71,21.72-5.63.54-10.88,1.36-9.16,8.72,17.02,2.96,7.83-18.6,18.24-21.82,6.1,7.23,20.36,11.56,27.66,8.55-3.59-.94-5.37-3.59-4.64-8.68,8.71.92,10.14-4.97,18.37-4.44-2.39,31.54,36.72-14.42,41.45,12.85,14.13.58,20.64-15.41,32.14-4.5-.81-10.87,7.05-13.62,13.77-17.46,4.56,13.28,12.25-5.05,18.36-4.43,7.53,16.18,23.35-1.91,36.83,8.55,1.87-5.43,5.91-8.87,13.78-8.75,2.68,10.55,17.38,9.65,27.62,12.94-.37-16.24,7.31-24.88,18.29-30.43,14.9-2.51,23.15,1.22,27.61,8.58,3.71-1.93,18.93-5.62,27.6-.08-4.07-13.91,7.04-13.64,13.73-17.41,9.77,5.25,13.42,16.29,27.66,17.3,6.83-5.13,12.96-10.96,18.35-17.41,37.39.7,38.91,2.43,59.82,12.9,22.88-38.91,66.95-9.06,110.3-26.17.03,4.35-3.71,5.11-4.59,8.67,23.5-3.43,32.79,3.01,50.57-8.68,8.72,4.8,16.14,10.85,27.59,13.03-.26-7.49,3.53-11.13,9.18-13.02,21.15,8.6,53.77-17.1,73.58,4.43,10.2-6.25-5.77-10.63,4.62-13.04,1.44,5.88,6.53,8.32,4.56,17.38,18.14-11.52,42.74-10.36,50.64-21.58,6.54,1,7.72,7.16,13.76,8.71,1.05-3.39.15-8.59,4.6-8.66,34.67-2.44,49.75,10.99,69-4.1,1.86,5.46,5.88,8.89,13.74,8.73,8.41-7.99,27.77-5.52,36.84-12.84,4.38,16.49,30.42-.34,36.83-8.46,1.05,3.37.07,8.5,4.54,8.7,2.62-6.23,7.24-10.55,13.93-12.93,26.16,3.9,44.82,1.67,69.04-12.51,13.88,19.35,28.92-3.11,50.48,9.13,3.99-15.3,29.15-12.84,41.49-8.24,15.69-4.83,36.62-9.43,50.58-3.74,14.19-6.82,37.44-4.77,50.78-12.3,5.79,18.51,23.15-3.51,36.83-3.75,5.29,3.74,12.24,5.92,22.96,4.76,13.26-16.04,47.11-15.35,59.76,1.23,2.31-11,19.98-6.83,23.37-16.86,12.01,11.59,39.24,9.27,50.71-2.99,7.71,7.82,28.26,5.73,32.35-3.28-5.4-.89-13.13.31-13.66-4.8,1.1-4.91,5.32-6.61,9.49-8.4-9.49,9.7.98,4.84,4.17,13.2,17.23,2.43,16.77-13.07,28.28-16.4,3.46,6.11,24.09-8.31,32.91-11.67.43,5.78-19.35,12.26-5.41,17.12,1.43-7.57,8.37-9.54,18.88-7.85.99-5.04-.2-12.34,5.27-12.76,12.94-4.66,22.08-8.72,31.73-11.29,9.66-2.57,19.8-3.68,34.94-2.16,1.97-8.78,13.43-7.6,20.34-11.33.78,3.45,3.61,5.37,9.45,5.19,3.69-4.83,8.24-8.8,14.52-11.14,3.15-1.17,6.73-1.93,10.97-2.13,4.27-.19,9.1.13,15.46,1.44.91-2.54,1.85-4.99,4.24-6.25.61-.31,1.3-.55,2.09-.69.84-.13,1.81-.16,2.91-.08.58.05,1.22.14,1.89.26.33.07.68.13,1.03.2.39.09.78.19,1.19.29.84.22,1.63.45,2.69.8,1.04.34,2.02.69,3.36,1.2-.31-.96-.54-1.85-.66-2.67-.09-.81-.1-1.55-.03-2.24.13-1.38.55-2.53,1.21-3.52.63-1,1.6-1.8,2.77-2.47.58-.34,1.2-.64,1.86-.92.34-.14.64-.28,1.03-.4.39-.11.79-.21,1.19-.32,1.63-.4,3.22-.8,5.31-.97.99-.12,1.97-.23,2.92-.34,1.1-.06,2.22-.11,3.26-.19.52-.04,1.03-.09,1.53-.14.25-.03.49-.06.73-.09.23-.04.47-.07.77-.08,1.11-.06,2.11-.18,3-.37,1.77-.38,3.03-1.06,3.53-2.24-1.19-.49-2.39-.96-3.61-1.43l-.91-.35-.82-.3-1.48-.51c-.99-.33-1.99-.66-3-1-.85-.25-1.7-.51-2.55-.76-.83-.24-1.67-.47-2.51-.71-.71-.18-1.43-.36-2.16-.55-.71-.17-1.43-.35-2.15-.53-.63-.14-1.26-.28-1.9-.42-5.04-1.09-9.01-1.73-12.64-2.29-3.64-.56-6.77-.96-9.82-1.36-2.8-.36-5.68-.72-8.6-1.09-5.04-.61-10.24-1.24-15.47-1.88-4.9-.56-9.6-1.05-14.08-1.38-8.95-.66-17.08-.7-23.74.69-6.66,1.4-11.83,4.24-14.7,9.42-1.48-6.31-5.37-7.72.94-12.99-27.28.04-64.15-9.94-77,4.35-6.68-13.31-20.76-5.4-32.9-1.37-9.29-.41-5.49-12.06-18.39-9.39-6.11,18.04-41.6,10.03-46.93,7.19.86-23.66,18.23-7.68,28.54-16.52-2.62-.09-5.2-3.65.14-4.35,18,2.95,23.15-6.93,42.35-2.83.72-6.78-.03-15.05,9.98-12.58-.05,5.96-2.62,9.42-5.26,12.76,20.62,1.08,38.56-.6,48.06-10.81,15.56-1.33,29.19-1.57,41.76-1.46,12.57.11,24.07.59,35.6.79,5.77.1,11.57.15,17.63.07,3.12-.06,6.23-.12,9.36-.18,3.37-.1,6.75-.21,10.16-.32,3.58-.12,7.37-.25,11.61-.34,4.26-.08,8.92-.13,14.77.12l2.24.11c.73.03,1.62.11,2.43.16l1.24.09c.4.03.84.06,1.31.11.92.09,1.85.18,2.78.27,3.96.45,8.35,1.03,14.38,2.32,1.66.38,3.34.78,5.02,1.2.38.09.91.24,1.42.38l1.52.43,3.04.89c.46.13,1.12.35,1.75.55l1.88.63,3.75,1.31c1.56.59,3.16,1.22,4.73,1.86,1.63.67,2.93,1.19,5.18,2.24,2.03.94,4.06,1.91,6.07,2.92.85.42,2.39,1.24,3.68,1.95,1.33.73,2.66,1.48,3.97,2.25,1.32.77,2.62,1.55,3.92,2.35,1.75,1.1,3.54,2.28,5.28,3.47,1.75,1.19,3.48,2.42,5.19,3.68l1.28.95,1.47,1.13c1.18.92,2.35,1.86,3.51,2.82,2.32,1.91,4.59,3.89,6.81,5.92,1.11,1.02,2.21,2.05,3.29,3.09,1.47,1.43,3.02,3.01,4.48,4.56,2.96,3.12,5.81,6.37,8.53,9.72l2.01,2.53.99,1.28,1.33,1.78c1.78,2.42,3.51,4.9,5.17,7.43,3.33,5.06,6.39,10.32,9.13,15.69l1.21,2.43,1.27,2.68c.84,1.8,1.64,3.61,2.42,5.45,1.55,3.67,2.97,7.41,4.26,11.19,1.29,3.78,2.43,7.6,3.44,11.43.24.91.5,1.96.78,3.11l.77,3.36c.49,2.25.93,4.52,1.33,6.8,1.59,9.13,2.42,18.47,2.47,27.65,0-9.87-.89-19.94-2.67-29.75ZM2332.84,112.8c2.4,2.19-3.3,5.56-4.59,4.29-2.4-2.16,3.29-5.5,4.59-4.29ZM2305.24,121.59c6.71,1.88-.43,3.84.06,8.7-5.79-1.01-4.71-8.59-.06-8.7ZM2263.76,113.26c2.41,2.18-3.29,5.56-4.57,4.3-2.39-2.16,3.29-5.5,4.57-4.3ZM2236.18,122.07c2.41,2.27-3.29,5.59-4.57,4.38-2.39-2.19,3.3-5.53,4.57-4.38ZM2227,126.49c-.83,4.98-4.6,2.49-4.59.03.82-4.89,4.58-2.46,4.59-.03ZM2190.11,122.41c2.41,2.27-3.27,5.59-4.55,4.38-2.41-2.19,3.29-5.53,4.55-4.38ZM99.33,120.57c-2.43-2.22,3.24-5.59,4.54-4.42,2.4,2.2-3.26,5.59-4.54,4.42ZM118,137.69c.81-4.99,4.58-2.5,4.62-.07-.82,4.93-4.6,2.41-4.62.07ZM117.54,107.24c5.03,1,3.25,8.57,9.35,8.56-1.8,12.06-14.48.44-9.35-8.56ZM22.65,225.99c.8-4.93,4.57-2.5,4.6-.07-.8,4.93-4.56,2.5-4.6.07ZM45.86,238.68c-2.4-2.22,3.26-5.65,4.53-4.42,2.43,2.17-3.24,5.56-4.53,4.42ZM95.77,190.12c1.34-5.9,11.48-3.79,18.36-4.63-1.14,10.04-12.15,10.18-18.36,4.63ZM136.35,133.06c2.41,2.17-3.22,5.58-4.52,4.42-2.43-2.23,3.22-5.64,4.52-4.42ZM132.03,150.44c-2.43-2.17,3.22-5.56,4.52-4.42,2.42,2.25-3.22,5.61-4.52,4.42ZM154.32,102.37c-2.41-2.19,3.24-5.59,4.54-4.42,2.43,2.2-3.26,5.61-4.54,4.42ZM164.18,145.61c-2.41-2.17,3.24-5.56,4.55-4.42,2.41,2.25-3.28,5.64-4.55,4.42ZM163.41,93.53c.05-4.21,5.59-3.44,9.14-4.49-.05,4.24-5.56,3.45-9.14,4.49ZM195.65,93.06c-2.43-2.19,3.24-5.56,4.54-4.42,2.4,2.25-3.26,5.61-4.54,4.42ZM277.12,313.4c.08-4.27,5.59-3.44,9.13-4.48-.05,4.21-5.58,3.44-9.13,4.48ZM292.35,91.65c-.04-2.88-.08-5.79-.13-8.7,3.07-.04,6.13-.09,9.2-.13.04,2.91.08,5.82.12,8.7-3.07.04-6.13.09-9.2.13ZM313.95,312.87c-2.43-2.25,3.24-5.61,4.54-4.42,2.41,2.17-3.26,5.59-4.54,4.42ZM333.8,91.05c.08-4.21,5.59-3.44,9.15-4.48-.07,4.24-5.59,3.44-9.15,4.48ZM342.77,73.53c2.35-2.21,5.91,3.11,4.65,4.28-2.35,2.32-5.92-3.05-4.65-4.28ZM347.6,90.86c-2.41-2.2,3.26-5.55,4.56-4.42,2.41,2.25-3.26,5.61-4.56,4.42ZM384.81,116.4c-2.41-2.23,3.26-5.58,4.56-4.41,2.39,2.2-3.26,5.58-4.56,4.41ZM401.31,307.28c-2.39-2.23,3.26-5.64,4.52-4.41,2.44,2.17-3.21,5.58-4.52,4.41ZM430.62,98.39c-2.41-2.2,3.25-5.58,4.55-4.41,2.41,2.2-3.28,5.61-4.55,4.41ZM544.09,313.98c-2.43-2.23,3.26-5.61,4.54-4.39,2.41,2.17-3.25,5.58-4.54,4.39ZM557.93,318.14c-2.39-2.23,3.25-5.61,4.56-4.41,2.42,2.2-3.25,5.58-4.56,4.41ZM564.11,92.2c-2.42-2.2,3.25-5.58,4.54-4.41,2.39,2.23-3.26,5.61-4.54,4.41ZM600.93,91.71c2.4,2.2-3.27,5.61-4.56,4.41-2.4-2.2,3.27-5.58,4.56-4.41ZM590.12,313.36c-2.42-2.23,3.25-5.61,4.54-4.39,2.41,2.17-3.25,5.58-4.54,4.39ZM593.96,256.86c.8-4.93,4.58-2.49,4.58-.06-.79,4.93-4.57,2.43-4.58.06ZM599.36,317.58c-2.39-2.23,3.26-5.61,4.55-4.41,2.39,2.2-3.26,5.58-4.55,4.41ZM605.65,100.31c-2.39-2.17,3.27-5.55,4.56-4.38,2.41,2.2-3.27,5.61-4.56,4.38ZM613.18,317.39c-2.41-2.23,3.25-5.61,4.54-4.41,2.39,2.2-3.25,5.58-4.54,4.41ZM677.45,307.87c-2.38-2.26,3.28-5.61,4.59-4.41,2.39,2.17-3.28,5.58-4.59,4.41ZM718.21,255.21c2.41,2.2-3.27,5.58-4.56,4.41-2.41-2.23,3.26-5.64,4.56-4.41ZM713.77,268.29c.08-4.27,5.59-3.43,9.15-4.47-.07,4.18-5.58,3.43-9.15,4.47ZM835.83,92.98c2.42,2.2-3.25,5.61-4.56,4.38-2.39-2.17,3.29-5.55,4.56-4.38ZM836.33,132.02c-.8,4.98-4.59,2.49-4.62.06.83-4.9,4.62-2.43,4.62-.06ZM732.65,302.79c.8-4.95,4.58-2.46,4.6-.06-.82,4.93-4.57,2.46-4.6.06ZM810.32,258.37c-19.94,13.56-34.37.83-55.06,13.73-13.73.09-15.78-11.12-27.77-12.66,12.67-6.64,21.52.37,32.05-13.47,37.32,9.26,42.72-10.1,78.28,3.35-.38,11.08-15.31,8.78-27.5,9.05ZM819.8,279.94c-2.39-2.26,3.27-5.58,4.57-4.41,2.39,2.23-3.27,5.58-4.57,4.41ZM824.7,301.6c-.04-2.91-.07-5.79-.11-8.7,3.04-.04,6.11-.08,9.17-.12.04,2.91.07,5.79.11,8.7-3.05.04-6.12.08-9.17.12ZM833.7,288.47c-2.39-2.26,3.28-5.58,4.56-4.41,2.42,2.23-3.25,5.58-4.56,4.41ZM842.87,284c-2.41-2.26,3.25-5.58,4.54-4.41,2.39,2.23-3.25,5.58-4.54,4.41ZM881.87,92.4c-2.39-2.2,3.27-5.58,4.56-4.41,2.41,2.2-3.27,5.61-4.56,4.41ZM889.38,322.45c-2.4-2.17,3.27-5.55,4.56-4.35,2.39,2.23-3.28,5.58-4.56,4.35ZM912.17,304.85c2.4,2.17-3.27,5.58-4.54,4.38-2.41-2.23,3.25-5.61,4.54-4.38ZM907.73,317.93c-2.4-2.23,3.25-5.61,4.54-4.41,2.4,2.23-3.27,5.58-4.54,4.41ZM1595.97,114.69c2.4,2.18-3.27,5.57-4.56,4.4-2.4-2.24,3.28-5.63,4.56-4.4ZM1573.21,140.96c2.42,2.21-3.25,5.57-4.56,4.4-2.4-2.24,3.27-5.6,4.56-4.4ZM1559.09,110.71c-.7,5.09-8.35,3.73-13.76,4.49.7-5.09,8.34-3.76,13.76-4.49ZM1489.98,107.08c2.4,2.21-3.28,5.57-4.56,4.4-2.4-2.23,3.26-5.63,4.56-4.4ZM1480.85,115.88c-4.05,2.7-8.17,5.28-9.18.1,1.07-5.49,9.08-4.53,9.18-.1ZM1471.8,128.94c2.39,2.26-3.3,5.6-4.57,4.4-2.4-2.18,3.27-5.54,4.57-4.4ZM1420.9,107.82c2.41,2.2-3.26,5.57-4.54,4.4-2.41-2.23,3.25-5.63,4.54-4.4ZM1324.06,95.83c2.42,2.21-3.27,5.57-4.54,4.4-2.42-2.2,3.23-5.57,4.54-4.4ZM1291.81,96.19c-.68,5.12-8.34,3.77-13.75,4.51.68-5.09,8.36-3.76,13.75-4.51ZM1268.75,92.1c.03,2.94.07,5.79.1,8.7-3.08.03-6.13.07-9.22.1-.03-2.91-.07-5.76-.1-8.7,3.09-.03,6.14-.07,9.22-.1ZM1163.04,110.72c2.4,2.2-3.28,5.57-4.56,4.4-2.39-2.23,3.27-5.63,4.56-4.4ZM1121.38,93.8c-.08,4.24-5.6,3.43-9.16,4.46.09-4.21,5.6-3.43,9.16-4.46ZM1075.64,120.45c2.42,2.17-3.26,5.58-4.53,4.4-2.39-2.23,3.26-5.63,4.53-4.4ZM1061.73,111.92c-3.07.04-6.13.07-9.19.11.79-3.71-1.86-4.1-4.69-4.29-1.91-8.4,20.9-6.58,13.87,4.18ZM944.38,304.45c-5.41-.67-3.97-7.89-4.74-12.99,7.39-1.34,7.96,4,13.85,4.18-1.09,4.73-9.13,3.08-9.11,8.81ZM972.22,321.42c-2.41-2.17,3.25-5.55,4.54-4.35,2.42,2.23-3.27,5.58-4.54,4.35ZM994.74,282.11c.81-4.93,4.59-2.49,4.58-.06-.79,4.92-4.57,2.46-4.58.06ZM1009.03,320.97c-2.42-2.17,3.27-5.55,4.54-4.35,2.41,2.23-3.25,5.58-4.54,4.35ZM1018.21,320.86c-2.39-2.18,3.26-5.55,4.56-4.35,2.4,2.23-3.27,5.58-4.56,4.35ZM1031.67,290.33c-2.4-2.2,3.27-5.63,4.56-4.38,2.39,2.23-3.27,5.58-4.56,4.38ZM1041.18,316.29c.07-4.24,5.6-3.46,9.14-4.46-.07,4.24-5.58,3.46-9.14,4.46ZM1054.58,281.38c-2.42-2.26,3.24-5.58,4.53-4.4,2.4,2.23-3.24,5.58-4.53,4.4ZM1063.61,268.25c-2.42-2.23,3.27-5.6,4.56-4.41,2.41,2.2-3.27,5.6-4.56,4.41ZM1077.04,237.66c-2.39-2.2,3.29-5.58,4.56-4.38,2.4,2.18-3.26,5.58-4.56,4.38ZM1082.69,324.43c-2.41-2.18,3.27-5.58,4.56-4.41,2.39,2.29-3.27,5.63-4.56,4.41ZM1110.14,311.11c.83-4.92,4.6-2.48,4.6-.05-.79,4.93-4.57,2.48-4.6.05ZM1105.25,285.13c.08-4.24,5.6-3.46,9.13-4.46-.06,4.24-5.56,3.45-9.13,4.46ZM1128.05,267.48c-2.4-2.23,3.26-5.6,4.55-4.4,2.4,2.2-3.26,5.6-4.55,4.4ZM1137.69,306.44c-2.39-2.23,3.26-5.6,4.56-4.38,2.42,2.18-3.26,5.57-4.56,4.38ZM1160.92,323.51c-4.73,3.67-8.33-3.75-9.23-4.24-17.84-9.45,12.4,1.83,9.23,4.24ZM1174.57,310.35c-2.41-2.23,3.27-5.6,4.56-4.4,2.39,2.2-3.27,5.57-4.56,4.4ZM1192.48,266.73c-2.41-2.23,3.27-5.6,4.56-4.4,2.39,2.2-3.27,5.6-4.56,4.4ZM1210.92,270.84c-2.39-2.23,3.27-5.57,4.57-4.37,2.4,2.2-3.28,5.55-4.57,4.37ZM1229.88,318.36c-2.39-2.18,3.26-5.55,4.57-4.35,2.4,2.23-3.29,5.57-4.57,4.35ZM1238.74,287.89c-2.39-2.21,3.29-5.63,4.58-4.37,2.39,2.23-3.27,5.57-4.58,4.37ZM1331.16,321.57c-2.4-2.18,3.28-5.57,4.57-4.4,2.4,2.29-3.28,5.63-4.57,4.4ZM1344.97,321.41c1.96-6.29,4.05.46,9.19-.1-1.07,5.52-9.08,4.51-9.19.1ZM1349.04,273.63c-2.39-2.26,3.28-5.57,4.55-4.4,2.42,2.23-3.26,5.57-4.55,4.4ZM1377.19,321.06c-2.4-2.18,3.28-5.57,4.56-4.4,2.4,2.29-3.28,5.63-4.56,4.4ZM1381.56,299.34c-2.43-2.26,3.26-5.6,4.53-4.4,2.4,2.18-3.26,5.58-4.53,4.4ZM1407.85,177.45c-6.67,2.45-23.84-4.82-22.98,4.6-5.24-.79-2.58-4.32-.05-4.35-6.69-.89-28.97-1.18-32.42-17.04-14.77,10.7-38.96,12.77-54.99,22.36-2.22-16.87-27.71-11.32-37.09-21.33-9.13,11.63-28.4,13.91-50.5,13.63-.07-5.79-.13-11.58-.2-17.34-12.12,16.47-27.33,8.57-45.87,13.53-7.81,1.67-8.73-3.29-9.32-8.59-11.72,17.74-37.81-5.4-50.48,13.64-7.85-2.73-3.02-9.96,4.48-8.75-11.07-12.67-27.8,5.58-41.36,4.84-10.04.91-14.69-3.38-13.95-12.83-9.48,9.5-14.91-.38-23.09-4.07,1.7,14.44-13.1,15.98-32.14,9.04-.89-9.43,16.31-2.15,22.98-4.58-14.77-9.2-48-.52-64.57-7.91,1.7-14.15,19.62-4.9,27.56-4.69,7.57.16,7.82-4.48,13.76-4.55,36.92-.37,83.96,3.53,133.64,7.13,10.51,1.06,17.28-1.28,18.33-8.95,6.83,2.21,11.66,6.33,18.49,8.51,30.21-7.42,80.29-22.97,119.65-5.72,6.05-1.62,7.18-7.71,13.73-8.88,12.54-3.28,9.36,8.57,18.53,8.52,6.05-7.3,26.06-1.76,32.1-9.09,16.41.47,50.18,15.41,55.27-.6,6.27,4.25,6.13,14.59,13.99,17.28,2.66,15.31-16.19,10.85-13.52,26.19ZM1414.12,333.71c.84-4.92,4.6-2.48,4.63-.05-.83,4.93-4.6,2.48-4.63.05ZM1418.61,320.61c-2.4-2.18,3.25-5.57,4.53-4.4,2.4,2.29-3.26,5.63-4.53,4.4ZM1432.59,337.86c1.98-6.35,4.05.41,9.19-.1-1.06,5.49-9.1,4.51-9.19.1ZM1437.11,329.11c-.03-2.88-.06-5.76-.09-8.7,3.04-.03,6.11-.07,9.18-.1.03,2.94.06,5.82.09,8.7-3.07.03-6.14.07-9.18.1ZM1472.91,233.19c-2.42-2.2,3.26-5.57,4.53-4.37,2.42,2.18-3.26,5.57-4.53,4.37ZM1478.59,337.37c-2.42-2.23,3.28-5.57,4.55-4.4,2.4,2.24-3.26,5.6-4.55,4.4ZM1487.67,324.22c.8-4.93,4.59-2.42,4.6-.05-.83,4.98-4.6,2.48-4.6.05ZM1538.27,323.69c.83-4.93,4.59-2.42,4.61-.05-.85,4.98-4.59,2.47-4.61.05ZM1555.06,167.19c-4.47.16-3.52,5.34-4.49,8.74-26.99-7.01-33.04,2.94-55.15,9.28,3.28-18.28-17.53,6.06-18.57-12.86-9.14.16-5.72,11.93-18.32,8.9-16.14.94-15.29-14.53-27.8-17.1,10.08-10.17,3.94-11.65,8.97-21.79,14.84-.61,31.41,6.44,55.36,8.11-.84,3.51-4.58,4.34-4.52,8.69,6.53-16.17,37.49.34,64.4-4.97-.9.12,13.28-8.27,13.86,4.15,7.86,1.56,8.65-3.45,9.11-8.74,8.81,1.69,8.44,12.29,23.12,8.41,5.79,33.44-32.43,16.57-45.96,9.17ZM1623.87,140.45c2.42,2.21-3.27,5.57-4.55,4.4-2.42-2.24,3.28-5.6,4.55-4.4ZM1625.91,344.55c-2.38-2.24,3.28-5.57,4.55-4.4,2.41,2.24-3.27,5.54-4.55,4.4ZM1630.33,327.1c2.41,2.24-3.27,5.63-4.55,4.4-2.38-2.24,3.28-5.57,4.55-4.4ZM1639.67,340.06c-2.4-2.24,3.28-5.57,4.55-4.4,2.4,2.24-3.27,5.54-4.55,4.4ZM1667.33,344.14c-2.37,6.69-4.81.3-4.64-4.3,2.36-6.69,4.75-.33,4.64,4.3ZM1670.12,161.69c-10.5-1.09-17.27,1.24-18.33,8.88-5.24-.8-2.6-4.32-.04-4.35-5.29-11.81-29.59-5.19-41.42.41-11.89-.9,6.23-7.52-.17-17.35,4.49.04,3.62,5.25,4.69,8.6,11.9-4.42,30.76-7.91,36.86,3.98,10.81-1.46,2.54-20.59,18.25-17.52-7.57,8.63.5,5.47.17,17.34ZM1679.12,139.9c-2.4-2.24,3.29-5.6,4.57-4.42,2.4,2.26-3.29,5.6-4.57,4.42ZM1680.99,330.95c-2.4-2.24,3.28-5.57,4.57-4.4,2.4,2.24-3.28,5.63-4.57,4.4ZM1688.53,161.51c-2.4-2.24,3.27-5.57,4.56-4.4,2.42,2.24-3.27,5.6-4.56,4.4ZM1707.29,196.07c-2.4-2.21,3.29-5.57,4.57-4.39,2.38,2.24-3.29,5.6-4.57,4.39ZM1708.63,335.03c-2.4-2.24,3.28-5.57,4.57-4.39,2.38,2.24-3.28,5.6-4.57,4.39ZM1845.08,160.03c2.38,2.24-3.28,5.57-4.58,4.39-2.4-2.24,3.27-5.57,4.58-4.39ZM1835.63,134.04c2.42,2.27-3.27,5.6-4.56,4.42-2.4-2.24,3.29-5.6,4.56-4.42ZM1789.47,121.42c2.4,2.27-3.29,5.62-4.58,4.39-2.39-2.18,3.29-5.54,4.58-4.39ZM1784.97,134.51c2.42,2.27-3.26,5.6-4.54,4.42-2.4-2.24,3.26-5.6,4.54-4.42ZM1727.13,343.56c-2.41-2.24,3.27-5.57,4.56-4.39,2.38,2.24-3.27,5.54-4.56,4.39ZM1749.58,286.88c-2.4-2.24,3.27-5.63,4.57-4.39,2.4,2.24-3.27,5.57-4.57,4.39ZM1758.85,291.14c-2.41-2.24,3.27-5.62,4.56-4.39,2.4,2.18-3.29,5.57-4.56,4.39ZM1762.3,169.5c.07-4.24,5.56-3.44,9.14-4.43-.09,4.24-5.59,3.44-9.14,4.43ZM1772.87,317.02c-2.38-2.18,3.29-5.57,4.59-4.39,2.39,2.29-3.28,5.62-4.59,4.39ZM1786.8,329.94c.83-4.92,4.6-2.47,4.61-.04-.84,4.93-4.59,2.47-4.61.04ZM1771.4,160.71c-3.73-2.25-7.5-4.48-13.83-4.22-14.19.02-32.49,13.02-32.32-8.34,30.5-.46,53.05-6.49,82.9,3.57,6.03,18.53-31.16-7.28-36.75,8.99ZM1812.85,160.33c-3.54-13.36,12.57-8.48,9-21.78,10.62,3.29,4.75,26.82-9,21.78ZM1827.98,303.51c-.82,4.92-4.59,2.47-4.61.04.82-4.92,4.6-2.47,4.61-.04ZM1823.81,351.32c8.55-8.35.4-10.91-.2-21.72,13.87-3.4,23.15,28.21.2,21.72ZM1837.69,359.87c-2.38-2.21,3.29-5.6,4.56-4.36,2.41,2.21-3.27,5.57-4.56,4.36ZM1860.54,342.31c-10.71,13.54-33.47-11.9,0,0h0ZM1950.65,119.97c2.4,2.27-3.29,5.62-4.58,4.39-2.41-2.18,3.29-5.54,4.58-4.39ZM1909.53,159.45c-.84,4.95-4.61,2.47-4.6.04.82-4.95,4.6-2.47,4.6-.04ZM1901.89,337.59c-.81,4.92-4.58,2.47-4.58.04.82-4.92,4.59-2.47,4.58-.04ZM1883.6,350.78c15.35-10.62-10.99,14.67,0,0h0ZM1877.39,168.44c.07-4.24,5.59-3.44,9.16-4.43-.1,4.24-5.61,3.44-9.16,4.43ZM1872.7,159.78c-2.08-11.96,17.12-4.22,18.32-13.16,11.79-8.21-4.68,17.7-18.32,13.16ZM1911.33,363.56c-14.83,5.5-3.63-14.03-18.46-8.51,2.77-10.62,23.21-2.49,18.46,8.51ZM1914,142.07c3.49-7.94,4.97,2.55,4.66,8.66-3.51,7.94-4.99-2.61-4.66-8.66ZM1915.94,363.52c-2.4-2.24,3.27-5.59,4.54-4.39,2.41,2.24-3.26,5.59-4.54,4.39ZM1929.61,350.37c1.1-5.46,9.12-4.46,9.21-.08-4.07,2.72-8.17,5.35-9.21.08ZM1936.98,137.52c1.09-5.49,9.1-4.49,9.2-.08-4.07,2.69-8.2,5.29-9.2.08ZM1946.48,172.18c-12.67-13.14,14.12,11.71,0,0h0ZM1947.98,345.86c-2.41-2.21,3.29-5.54,4.58-4.36,2.4,2.24-3.29,5.54-4.58,4.36ZM1955.84,189.44c1.09-5.46,9.1-4.43,9.2-.08-4.07,2.72-8.19,5.3-9.2.08ZM1960.26,167.71c1.09-5.46,9.12-4.51,9.22-.08-1.99,6.35-4.07-.42-9.22.08ZM1992.07,119.62c-.07,4.27-5.6,3.47-9.17,4.43.09-4.21,5.61-3.38,9.17-4.43ZM1975.73,363c-2.38-2.24,3.26-5.59,4.54-4.39,2.41,2.24-3.26,5.59-4.54,4.39ZM1983.02,137.13c-2.4-2.24,3.29-5.59,4.58-4.42,2.38,2.27-3.29,5.59-4.58,4.42ZM1987.93,171.83c.09-4.24,5.61-3.44,9.15-4.43-.08,4.24-5.6,3.41-9.15,4.43ZM1997.33,197.79c.84-4.92,4.61-2.47,4.61-.04-.84,4.92-4.59,2.47-4.61.04ZM1998.68,358.46c-1.37-7.73,4.28-8.93,4.57-4.36,17.17,6.5,11.2,12.25-4.57,4.36ZM2001.62,158.66c16.32,8.59-16.26-1.78-.04-4.35-.8-5.08-8.41-3.6-13.84-4.18-8.21-5.47,19.21-10.92,27.57-4.58,1.52,9.96-13.26,4.91-13.7,13.11ZM2010.65,136.9c-2.42-2.24,3.28-5.59,4.55-4.42,2.41,2.27-3.26,5.59-4.55,4.42ZM2065.91,136.44c-8.51-13.83,20.33,22.41,0,0h0ZM2029.21,154.09c2.4,2.24-3.29,5.59-4.58,4.39-2.38-2.24,3.28-5.56,4.58-4.39ZM2021.68,358.26c-3.84-4.43,4.01-7.89,4.52-8.71,10.13-16.81-1.93,11.71-4.52,8.71ZM2035.42,349.48c.81-4.92,4.59-2.44,4.6-.04-.84,4.95-4.58,2.44-4.6.04ZM2042.91,140.98c-6.15,2.93-10.34-2.83-4.64-4.31,1.29-.35,3.43.54,4.6-.04,7-3.33,3.46,2.68.04,4.35ZM2047.63,153.93c-2.4-2.24,3.28-5.56,4.56-4.33,2.42,2.18-3.29,5.54-4.56,4.33ZM2052.16,145.25c-2.41-2.24,3.27-5.59,4.57-4.38,2.4,2.21-3.31,5.56-4.57,4.38ZM2062.62,301.49c2.39,2.24-3.28,5.56-4.56,4.39-2.39-2.24,3.28-5.59,4.56-4.39ZM2076.81,349.14c-6.87-5.06-20.59-3.59-18.54-17.22,6.87,5.09,20.59,3.62,18.54,17.22ZM2085.93,340.4c.11-4.24,5.62-3.43,9.16-4.42-.08,4.24-5.59,3.43-9.16,4.42ZM2103.19,192.58c-2.41-2.21,3.3-5.56,4.56-4.39,2.4,2.24-3.28,5.59-4.56,4.39ZM2122.3,283.65c-2.38-2.24,3.29-5.62,4.59-4.39,2.38,2.24-3.29,5.56-4.59,4.39ZM2136.67,357.35c-17.1-13.03,13.86-14.74,0,0,5.35-.75,8.21.9,9.24,4.28-5.34.75-8.2-.9-9.24-4.28ZM2139.6,140.22c.11-4.24,5.61-3.43,9.18-4.42-.08,4.21-5.62,3.4-9.18,4.42ZM2153.36,131.38c.84-4.89,4.62-2.46,4.6-.03-.83,4.98-4.6,2.49-4.6.03ZM2159.04,274.7c-2.38-2.27,3.3-5.56,4.58-4.39,2.4,2.24-3.3,5.56-4.58,4.39ZM2171.71,122.54c-.83,4.98-4.6,2.46-4.62.03.86-4.89,4.62-2.41,4.62-.03ZM2186.14,205c-2.41-2.24,3.28-5.59,4.55-4.38,2.41,2.24-3.27,5.53-4.55,4.38ZM2200.69,304.78c2.39,2.24-3.3,5.56-4.57,4.33-2.41-2.19,3.28-5.53,4.57-4.33ZM2196.22,322.15c-2.41-2.18,3.28-5.56,4.57-4.38,2.39,2.24-3.3,5.62-4.57,4.38ZM2200.91,335.17c-2.4-2.24,3.3-5.56,4.56-4.38,2.4,2.24-3.28,5.53-4.56,4.38ZM2209.8,296.01c-2.38-2.24,3.3-5.59,4.58-4.36,2.39,2.19-3.3,5.56-4.58,4.36ZM2245.98,204.57c-9.2-7.17-5.86.41-18.41.13-7.23-13.03,25.47-13.26,18.41-.13ZM2223.61,291.59c-2.42-2.27,3.27-5.59,4.55-4.38,2.38,2.19-3.28,5.56-4.55,4.38ZM2246.96,343.51c-1.39,5.91-11.49,3.67-18.37,4.48,1.29-8.85,9.14-11.62,13.68-17.47,16.29.36-9.67,14.42,4.69,12.99ZM2251.4,321.76c-2.41-2.18,3.3-5.56,4.57-4.38,2.41,2.24-3.28,5.61-4.57,4.38ZM2260.25,269.61c-2.39-2.27,3.29-5.56,4.57-4.38,2.41,2.24-3.28,5.56-4.57,4.38ZM2265.33,339.06c-2.41-2.24,3.28-5.56,4.57-4.38,2.39,2.24-3.28,5.53-4.57,4.38ZM2279.07,330.26c2.39,2.24-3.3,5.53-4.56,4.38-2.41-2.24,3.28-5.56,4.56-4.38ZM2274.63,352.02c.1-4.21,5.59-3.4,9.14-4.41-.08,4.24-5.58,3.4-9.14,4.41ZM2288.32,338.9c13.93-11.99-12.45,13.28,0,0h0ZM2297.53,338.84c-2.39-2.24,3.3-5.56,4.57-4.38,2.41,2.24-3.28,5.53-4.57,4.38ZM2315.95,343.04c-6.49-5.15-.4-1.66,4.61-.03.64,10.76-5.6,7.41-4.61.03ZM2329.63,325.57c-2.39-2.24,3.28-5.56,4.58-4.38,2.39,2.25-3.3,5.62-4.58,4.38ZM2407.78,316.38c-2.41-2.19,3.29-5.56,4.57-4.38,2.38,2.27-3.29,5.61-4.57,4.38ZM2438.84,125.1c-2.39-2.19,3.29-5.53,4.58-4.38,2.41,2.27-3.29,5.58-4.58,4.38ZM2448.06,125.05c2.01-6.28,4.05.46,9.2-.05-1.09,5.51-9.11,4.46-9.2.05ZM2453.64,294.41c-2.39-2.25,3.29-5.58,4.57-4.35,2.37,2.19-3.28,5.55-4.57,4.35ZM2466.48,124.94c-6.06-1.49-7.29-7.56-13.87-8.62,1.27-15.09,12.48.35,13.77-8.69,5,1.02,3.19,8.57,9.25,8.56-1.11,4.78-9.12,3.05-9.16,8.75ZM2518.15,315.75c-2.39-2.19,3.31-5.56,4.59-4.37,2.39,2.28-3.31,5.61-4.59,4.37ZM2531.72,267.94c-2.41-2.28,3.28-5.55,4.56-4.37,2.39,2.25-3.28,5.55-4.56,4.37ZM2540.94,276.56c-2.37-2.22,3.31-5.61,4.59-4.35,2.39,2.25-3.29,5.55-4.59,4.35ZM2545.6,285.24c.85-4.95,4.6-2.42,4.61-.02-.86,4.92-4.63,2.43-4.61.02ZM2576.97,115.65c-.86,4.98-4.59,2.45-4.6.02.86-4.89,4.59-2.39,4.6-.02ZM2573.12,267.73c-2.4-2.28,3.31-5.55,4.58-4.37,2.4,2.25-3.33,5.55-4.58,4.37ZM2586.47,176.48c-2.38-2.25,3.31-5.58,4.58-4.37,2.4,2.22-3.32,5.55-4.58,4.37ZM2591.51,267.64c.11-4.24,5.62-3.42,9.17-4.39-.11,4.24-5.59,3.42-9.17,4.39ZM2655.2,97.98c.11-4.24,5.63-3.39,9.19-4.39-.11,4.24-5.6,3.38-9.19,4.39ZM2687.44,102.19c-2.38-2.25,3.32-5.61,4.62-4.37,2.37,2.22-3.32,5.55-4.62,4.37ZM2724.24,93.35c.16-4.21,5.65-3.38,9.24-4.38-.11,4.24-5.63,3.38-9.24,4.38ZM2742.68,88.93c2.41,2.22-3.32,5.55-4.59,4.37-2.41-2.25,3.32-5.55,4.59-4.37ZM2738.15,106.35c-2.41-2.25,3.32-5.61,4.58-4.37,2.41,2.22-3.32,5.55-4.58,4.37ZM2752.3,206.18c-2.37-2.25,3.32-5.58,4.6-4.37,2.38,2.25-3.31,5.52-4.6,4.37ZM2765.86,136.65c-2.34-2.25,3.32-5.58,4.59-4.37,2.4,2.22-3.29,5.55-4.59,4.37ZM2770.36,106.24c-2.34-2.25,3.32-5.61,4.62-4.37,2.37,2.22-3.33,5.55-4.62,4.37ZM2788.73,75.76c5.67,1.87,9.49,5.54,9.26,12.99-4.6.01-9.22.03-13.84.04,2.42-3.51,4.8-7.05,4.58-13.04ZM2784.18,97.49c-2.37-2.25,3.32-5.55,4.61-4.36,2.39,2.22-3.31,5.55-4.61,4.36ZM2789.21,227.75c-2.38-2.25,3.3-5.55,4.6-4.36,2.37,2.23-3.32,5.55-4.6,4.36ZM2793.43,101.81c.11-4.24,5.6-3.44,9.19-4.38-.11,4.24-5.63,3.38-9.19,4.38ZM2857.86,84.23c-2.37-2.2,3.3-5.54,4.59-4.36,2.4,2.26-3.3,5.54-4.59,4.36ZM2890.13,88.51c-2.4-2.22,3.33-5.54,4.6-4.36,2.4,2.23-3.3,5.54-4.6,4.36ZM2977.66,70.98c-.12,4.21-5.64,3.34-9.21,4.36.12-4.21,5.67-3.37,9.21-4.36ZM2954.64,75.37c2.4,2.23-3.33,5.57-4.6,4.33-2.4-2.2,3.31-5.51,4.6-4.33ZM2940.93,140.55c-2.4-2.25,3.33-5.57,4.59-4.35,2.37,2.23-3.35,5.54-4.59,4.35ZM2931.62,79.72c20,5.76,30.71.57,46.06,4.28.22,27.51-43.94,15.06-46.06-4.28ZM3074.46,257.66c.16-4.24,5.67-3.39,9.25-4.32-.13,4.18-5.68,3.36-9.25,4.32ZM3074.44,66.57c1.17-5.45,9.21-4.38,9.28,0-2.05,6.33-4.07-.42-9.28,0ZM3143.65,53.55c3.04,0,6.15,0,9.21,0,0,2.91,0,5.85,0,8.7-3.06,0-6.17,0-9.21,0,0-2.85,0-5.79,0-8.7ZM3148.08,253.37c.88-4.94,4.63-2.45,4.59,0-.88,4.91-4.59,2.4-4.59,0ZM3148.1,231.65c.13-4.24,5.64-3.38,9.21-4.34-.15,4.24-5.65,3.38-9.21,4.34ZM3148.24,70.95c-14.23-4.39,13.22-4.08,9.24-13.04,14.21,4.36-5.17,11.77-9.24,13.04ZM3226.6,84.09c-2.39-2.21,3.33-5.53,4.62-4.34,2.39,2.27-3.36,5.53-4.62,4.34ZM3272.23,249.25c-2.38-2.27,3.35-5.56,4.59-4.34,2.4,2.24-3.34,5.56-4.59,4.34ZM3277.37,58.15c-2.35-2.24,3.38-5.5,4.64-4.34,2.39,2.29-3.35,5.55-4.64,4.34ZM3295.33,218.93c-2.37-2.27,3.32-5.55,4.58-4.33,2.42,2.21-3.29,5.55-4.58,4.33ZM3535.78,72.64c-2.35-2.25,3.37-5.51,4.65-4.31,2.37,2.28-3.37,5.53-4.65,4.31ZM3596.21,38.51c-2.38-2.28,3.38-5.5,4.67-4.3,2.35,2.29-3.41,5.5-4.67,4.3ZM3642.42,43.35c-2.38-2.26,3.43-5.52,4.66-4.26,2.4,2.23-3.41,5.49-4.66,4.26ZM3716.71,31.35c-20.45.48-1.07-17.13,0,0h0ZM3735.17,36c-2.34-2.3,3.45-5.48,4.74-4.27,2.34,2.3-3.47,5.48-4.74,4.27ZM3739.55,53.39c-3.24-5.36-4.7-9.54.07-4.29,4.59,5.13,3.48,10.31-.07,4.29ZM3786.32,32.55c.21-4.23,5.73-3.28,9.37-4.17-.21,4.23-5.76,3.25-9.37,4.17ZM3809.36,41.71c-2.37-2.31,3.49-5.47,4.74-4.25,2.37,2.31-3.45,5.47-4.74,4.25ZM3827.6,59.42c-2.37-2.26,3.49-5.43,4.74-4.25,2.33,2.34-3.46,5.49-4.74,4.25ZM3841.32,68.43c.85-5.04,8.57-3.44,14.06-4.02-.89,5.09-8.61,3.49-14.06,4.02ZM3864.66,64.64c1.3-5.42,9.36-4.14,9.31.24-4.21,2.57-8.44,5.07-9.31-.24ZM3870.2,30.05c-2.37-2.32,3.53-5.45,4.78-4.23,2.37,2.32-3.53,5.45-4.78,4.23ZM3954.43,167.25c2.32,2.34-3.51,5.41-4.76,4.18-2.32-2.34,3.54-5.44,4.76-4.18ZM3940.74,162.43c2.31,2.34-3.53,5.42-4.76,4.19-2.34-2.34,3.53-5.43,4.76-4.19ZM3897.84,43.84c2.37,2.27-3.51,5.44-4.78,4.19-2.3-2.29,3.52-5.47,4.78-4.19ZM3882.81,82.51c-2.33-2.29,3.52-5.44,4.76-4.22,2.36,2.3-3.52,5.47-4.76,4.22ZM3884.76,182.5c.24.29,4.38-8.13,4.84-8.57.33-.33-.2-4.3.12-4.35,16.48-2.25-.1,19.32-4.96,12.92ZM3912.55,178.94c2.3,2.3-3.5,5.43-4.76,4.21-2.3-2.33,3.5-5.47,4.76-4.21ZM3911.11,70.24c-15.08-2.93-21.77,2.38-32.72,3.44-2.41-16.5,35.31-25.65,32.72-3.44ZM3930.34,53.48c-2.36-2.31,3.57-5.45,4.81-4.2,2.37,2.31-3.58,5.45-4.81,4.2ZM4006.35,38.93c1.12-4.87,4.86-2.19,4.75.21-1.13,4.87-4.89,2.19-4.75-.21Z"/>
  </g>
</svg>