<?xml version="1.0" encoding="UTF-8"?>
<svg id="Layer_2" data-name="Layer 2" xmlns="http://www.w3.org/2000/svg" viewBox="0 0 4218.15 474.64">
  <defs>
    <style>
      .cls-1 {
        fill: #e8f0e8;
      }
    </style>
  </defs>
  <g id="Layer_1-2" data-name="Layer 1">
    <path class="cls-1" d="M265.3,206.6c-.44,7.75,8.07,11.44,20.8,13.26-7.69-12.24,20.34-9.39,20.34-18.4-72.71,3.76-20.78-12.02-20.99-26.73-42.21-1.31-53.68,10.3-71.85,19.1,7.24-7.43-48.7-6.6-41.23.61,35.91,1.81,41.37,17.47,92.93,12.17ZM325.95,124.51c-5.56-27.78,50.74-6.2,72.07-5.51-.11-7.54-.21-15.08-.32-22.56-41.01,4.47-76.25-5.65-92.75,1.32,1.24,11.54,6.14,21.44,21,26.76ZM407.94,91.73c1.41-5.3,18.23-10.48-.19-13.5,7.56,12.16-48.64-2.56-41.09,9.59,19.48-1.29,22.82,4.76,41.28,3.91ZM429.12,132.09c31.3,5.19,53.23-15.74,30.68-18.48-2.91,9.19-27.77,9.23-30.68,18.48ZM438.6,73.25c.02-2.46-8.41-4.99-10.3.14.02,2.54,8.43,5.03,10.3-.14ZM480.59,126.83c0,2.54,8.41,5,10.3-.14-.02-2.48-8.45-5-10.3.14ZM275.99,233.53c2.87,1.2,15.58-2.43,10.23-4.67-2.87-1.2-15.61,2.4-10.23,4.67ZM59.79,245.76c-12.12.89-29.24-.37-30.85,4.99,12.14-.89,29.25.31,30.85-4.99ZM121.87,262.87c22.47.48,32.72-4.19,30.7-13.99-27.75-2.69-19.78,9.62-30.7,13.99ZM701.08,435.19c-2.87-1.21-15.61,2.38-10.27,4.65,2.89,1.23,15.61-2.38,10.27-4.65ZM1266.7,374.14c-2.87-1.21-15.63,2.35-10.26,4.61,2.87,1.21,15.6-2.33,10.26-4.61ZM659.84,431.22c-2.87-1.2-15.61,2.38-10.25,4.66,2.87,1.23,15.59-2.38,10.25-4.66ZM91.17,276.86c17.57-7.58,25.3-19.25,20.05-36.43,11.17-1.22,24.61-7.8,10.16-9.14-15.36,5.48-24.98,13.4-51.32,14.31,12.65,7.86,2.3,26.21,21.1,31.26ZM490.58,104.18c-7.98,1.1-20.34.39-20.55,4.75,7.98-1.13,20.32-.39,20.55-4.75ZM195.29,352c-2.87-1.2-15.57,2.41-10.23,4.67,2.87,1.2,15.61-2.41,10.23-4.67ZM448.85,68.62c2.87,1.23,15.61-2.36,10.26-4.63-2.87-1.2-15.63,2.39-10.26,4.63ZM2479.83,70.17c3.29-5.53-1.82-27.81-10.37-13.44-3.25,5.56,1.82,27.84,10.37,13.44ZM2778.92,46.29c.03-2.48-8.4-5.08-10.35.03-.03,2.52,8.42,5.12,10.35-.03ZM3833.33,101.48c.06-2.54-8.31-5.33-10.38-.23-.09,2.46,8.3,5.3,10.38.23ZM3885.21,111.74c2.8,1.34,15.87-1.74,10.54-4.21-2.84-1.35-15.87,1.74-10.54,4.21ZM1891.8,38.39c2.87,1.27,15.64-2.26,10.29-4.55-2.87-1.24-15.63,2.31-10.29,4.55ZM1954.22,101.06c-13.63.06-9.49-7.83-20.71-8.89-11.71,9.4,16.39,21.41,20.71,8.89ZM1483.41,421.37c8-1.07,20.31-.35,20.57-4.71-8,1.07-20.31.33-20.57,4.71ZM521.81,126.26c-24.71,15.51,34.42-11.35,0,0h0ZM541.17,35.8c-24.71,15.48,34.44-11.4,0,0h0ZM541.84,85.39c-.18-4.52-18.13-5.43-20.59.28,2.24,5.45,11.49,2.64,20.59-.28ZM521.5,103.75c-2.39,6.42-16.87,7.83-20.42,13.81,10.31-.14,20.61-.28,30.91-.42-1.68-5.29,1.59-12.85-10.49-13.39ZM1623.4,4.88c2.87,1.22,15.61-2.36,10.25-4.62-2.87-1.24-15.61,2.33-10.25,4.62ZM1592.59,18.72c-.17-4.55-18.11-5.49-20.62.21,2.24,5.43,11.48,2.65,20.62-.21ZM592.6,26.09c2.87,1.21,15.63-2.41,10.25-4.66-2.89-1.23-15.59,2.36-10.25,4.66ZM551.8,58.19c2.87,1.23,15.59-2.39,10.24-4.69-2.87-1.18-15.62,2.44-10.24,4.69ZM2521.43,128.61c12.13-.74,29.24.64,30.92-4.68-12.17.8-29.31-.61-30.92,4.68ZM3478.76,408c.1,4.55,17.89,5.81,20.51.15-11.53.39-15.91-6.68-20.51-.15ZM3520.07,376.71c-.48,4.83,4.7,11.51,10.19,4.63.5-4.8-4.72-11.51-10.19-4.63ZM3489.13,394.51c-2.85-1.24-15.58,2.06-10.31,4.47,2.85,1.26,15.6-2.09,10.31-4.47ZM1596.79,433.75c7.98-1.1,20.31-.35,20.52-4.73-7.96,1.1-20.28.32-20.52,4.73ZM3211.76,465.45c-3.28-10.43,1.68-17.28,10.29-22.52-33.08,6.49-57.03,16.94-71.89,31.5,32.34,2.21,23.24-13.85,61.6-8.98ZM3222.07,433.92c-28.02,13.67,31.29-12.28,0,0h0ZM3806.58,385.18c-2.78-1.3-15.51,1.8-10.3,4.28,2.78,1.3,15.53-1.85,10.3-4.28ZM573.14,112.06c0-2.51-8.43-5-10.31.14.02,2.48,8.41,5,10.31-.14ZM3888.7,360.07c-2.76-1.35-15.48,1.78-10.28,4.21,2.73,1.34,15.47-1.75,10.28-4.21ZM583.57,120.93c-1.42,12.76,29.29,10.93,41.46,17.49,1.44-12.76-29.27-10.91-41.46-17.49ZM409.26,186.49c-2.87-1.2-15.58,2.42-10.24,4.67,2.87,1.2,15.62-2.39,10.24-4.67ZM3078.25,406.71c-2.81-1.24-15.56,2.18-10.26,4.49,2.84,1.27,15.56-2.18,10.26-4.49ZM347.9,218.97c-2.37,6.45-16.85,7.84-20.41,13.82,21.27,3.62,46.07-12.38,20.41-13.82ZM1017.1,174.02c2.87,1.21,15.61-2.36,10.25-4.62-2.85-1.21-15.61,2.36-10.25,4.62ZM4216.66,248.86l-.37-1.6-.37-1.41c-.26-.94-.54-1.86-.84-2.79-.6-1.84-1.28-3.66-2.03-5.42-.38-.88-.77-1.75-1.18-2.6l-.53-1.07-.5-.97c-.68-1.28-1.4-2.54-2.16-3.76-.76-1.23-1.55-2.42-2.37-3.57l-.62-.86-.46-.61-.94-1.2c-1.27-1.59-2.59-3.1-3.96-4.54-.77-.81-1.18-1.2-1.69-1.7-.51-.48-1.02-.95-1.52-1.43-1.02-.93-2.07-1.83-3.09-2.67-.76-.61-1.52-1.2-2.28-1.77s-1.53-1.12-2.29-1.65c-.6-.4-1.19-.8-1.77-1.19-.57-.36-1.13-.72-1.68-1.07-.52-.32-1.03-.63-1.53-.93-1.65-.99-3.46-1.99-4.55-2.58-2.12-1.15-4.02-2.17-5.71-3.08-.68-.39-1.32-.76-1.92-1.1-.55-.33-1-.63-1.45-.94-.44-.3-.86-.6-1.23-.88-.33-.27-.63-.53-.91-.79-.54-.52-1.01-1.04-1.34-1.52-.61-.96-.9-1.9-.94-2.82-.24-3.71,3.48-7.14,3.5-10.84-4-1.04-7.08-1.66-9.88-2.19-2.79-.52-5.17-.89-7.45-1.22-4.46-.63-8.24-1.04-11.67-1.35-6.84-.61-12.31-.85-17.14-.97-9.59-.21-16.49.09-23.06.42-13.08.7-24.76,1.48-50.25.72-2.58-10.12-20.18-14.81-38.58-18.96-18.41-4.17-37.64-7.83-44-16.47-10.77,13.44-27.69-6.19-41.64-5.95-3.23,3.93-28.77,18.91-31.53,8.11,9.43-7.8,29.41-10.61,21.67-26.44-32.49-4.84-72.5,18.85-52.15-1.43-39.27,1-44.45,17.71-83.31,7.2-2.37,3.43-.48,8.89-10.55,8.82-65.91-6.71-64.86.26-124.28,2.63,27.23-9.6-31.9-15.39.34-27.09-24.37-5.35-26.2,5.39-51.85,8.47,1.27-.16-10.27-5.56-20.63-4.73-15.18,1.18-38.86,11.92-51.79,13.03-40.3,3.51-79.34,3.15-134.33,3.63-2.26-3.51-.25-8.9-10.28-9.06-2.74,7.02-22.65,3.03-30.96-.14-1.34,25.01-76.1,17.61-113.64,26.7-5.71-11.06-39.9-9.68-30.9-27.12-60.63-2.9-123.37-29.8-165.08-13.65,10.94-16.79-38.71-7.09-30.99-22.49,17.76-1.82,26.46,6.62,30.98-.02-28.69-2.5-28.91-17.44-41.31-27.06-32.35-2.08-46.07,3.96-41.26,18.1,20.3,1.32,20.46-6.13,30.93-9.08-2.28,8.53,11.65,9.96,10.36,18.07-13.76.02-27.55.03-41.27.05,11.53,21.53-32.1,19.06-20.57,40.59-25.83-.69-32.29,7.01-41.22,13.64,21.43,8.65,49.94,14.11,72.19,22.41,2.6,9.77,37.92,28.03,20.66,31.58-41.75-9.64-72.52-6.06-123.67.22,8.82-14.43-16.27-13.91-20.67-22.51-52.69-3.87-86.95-15.86-103.2-35.78,27.59-1.2,39.16-19.17,61.83-9.24.73-7.85-2.37-14-10.38-18.02,32.57,2.13,36.41-8.19,72.2-4.69,14.34,2.73,1.58,17.37,20.67,18,3.06-9.21,20.63-12.08,30.92-18.11-31.95-12.14-9.76-39.92,20.6-18.06,11.41-14.2,4.81-11.96-10.39-22.55-47.84-2.82-63.83,8.3-82.49,18.23-4.26-5.67-13.34-9.2-30.96-8.98-1.01-7.06,1.32-15.62-20.71-13.44-16.47,6.38-26.3,15.65-30.84,27.19,33.13,3.81,21.34-11.79,41.22-13.72-3.04,11.93,40.05,3.47,30.98,17.96-4.19,5.72-13.25,9.3-30.9,9.16,6.28-4.23,23.97-16.74-10.37-13.5-30.87,3.03,9.92,9.6.06,18.02-39.96.61-40.24,15.13-72.18.25-2.31-14.51,18.16-19.13,10.16-36.14,11.93-1.46,48.56-14.13,20.57-18.13-23.23,12.48-72.49,13.69-103.07,22.95-5.02-5.26-11.03-10.18-20.69-13.41,1.79,9.79-36.61,2.21-51.57,4.76-2.67,13.46,29,27.31-10.14,31.63-25.12-3.86,8.98-31.43-10.38-18-12.04.82-11.18,7.2-10.26,13.55-46.31.1-62.55,19.09-113.44.63.08-5.93,18.05-4.2,20.57-9.1-79,3.99-175.34,22.02-267.85,33.36-54.36-8.92-139.27-4.18-195.97-11.98-17.55,2.97-16.84,13.73-30.77,18.31-48.28-6.7-34.22,4.02-82.43,5.21.01-4.52-8.39-5.29-10.37-8.92,20.83-4.65,31.78-40.45,20.13-54.33-1.25,18.77-6.8.99-20.62.18-1.58,5.33,1.88,12.81-10.2,13.59-7.8-21.26,11.31-31.09,9.88-49.66-36.58,7.34-6.36-15.28-31.07-13.25-13.47,11.99-33.73,14.12-61.8,9.58-.89,7.1,1.55,15.61-20.48,13.72-22.85-16.73,20.9-10.03-.21-22.54-43.74-1.25-8.86,19.63-10.07,27.1-14.17,0-22.6,2.39-30.87,4.84,3.97-6.48,12.3-7.72-.13-13.53-32.63-.42-34.37,12.34-72.09,9.69-5.58,6.64,12.3,23.24-10.07,22.7-50.53-2.4-48.44-.3-103.07,1.05-16.55,10.94-7.44,32.79-40.88,36.53-12.84-16.45-61.92,11.59-72.17-3.78-.03-2.99-.07-6.02-.1-8.98,62.59,5.48,87.85-28.33,71.7-41.39-27.92,7.73-60.77,27.34-72.09,5.29-13.17,6.08-13.05,16.78.24,22.54-25.54,2.59-36.59,11.41-51.35,18.64-71.29-.37-74.12,28.34-133.63,33.08-16.43-10.72-55.25-11.34-82.65-17.09,5.73-.07,11.66-3.84-.05-4.52-4.13,7.73-13.29-.8-30.9.36-37.58,9.51-67.85,22.11-92.32,37.18-.76-16.26-54.33-8.66-72.36-17.14,4.94-5.4,10.88-10.36,20.44-13.78,26.29-3.83,47.6,17.07,61.9,3.74-61.65-9.9-83.17-37.97-175.63-33.92-11.28-16.1-27.08-30.11-62.31-35.28-1.09,5.52-2.96,10.71-20.52,9.27-27.5-10.61-51.44,2.39-72.07,5.46-9.69,1.43-13.04-4.94-20.67-4.25-4.15.39-9.81,10.78-20.49,9.28-4.31-5.59-13.42-9.03-31.06-8.6-19.29,8.34-47.54,12.87-61.53,23.4,25.37,8.13-20.34,26.29,31.28,26.61,3.96-7.77-15.45-11.32-.18-13.5,10.34-.11,12.22-3.81,20.53-4.83,27.29,14.86,61.19,26.7,62.58,53.32,27.13,1.88,35.01,24.43,62,12.75,15.19,14.27,29.51,28.96,72.52,30.65-10.8,17,25.74,12.49,20.95,26.82-38.77,2.44-47.05-8.95-62.06-17.31-44.94,3.8-58.12-6.9-103.08-3.12,1.4-13.15-41.94-13.17-51.65-8.35-4.49-8.55-29.53-7.74-20.89-22.29-38.71-2.87-22.25,17.56-51.28,18.75-11.58-9.84-40.93-11.65-51.81-21.83-.5,4.75-13.16,3.74-10.36-4.38-38.56-4.3-29.22,11.62-61.71,9.87-2.57-6.37-17.07-7.36-20.8-13.24,16.19-.62,35.74.09,30.78-9.44-26.89-7.82-31.06,2.35-61.89-3.62-2.26,3.51-.15,8.9-10.18,9.13-38.85,4.76-48.37.97-72.06,5.55-10.42-5.84-10-16.61-31.17-17.57-13.59,8.13-77.72,20.74-30.53,27.51-3.26-11.85,14.07-15.01,41.04-14.16-30.91,27.71,51.79,12.59,62.27,30.72,5.97-9.44,19.6-15.68,40.95-18.63,19.66,14.89-46.43,15.43-9.98,22.68,29.65-25.65,51.21,10.86,103.1,3.07-11.61,14.37,16.33,10.73,20.85,17.76,6.03,22.35,3.96,58.9-50.96,41.33.67,7.73-7.77,11.66-20.41,13.82-34.47-8.08-16.32-13.78-41.52-22.01-32.48-4.68-24.92,7.47-41.07,9.65,2.97-7.39-14.1-11.97-20.67-4.22,23,.35-13.21,11.55.32,22.54-50.92,3.98-62.03,24.71-92.17,37.44-36.68-7.43-51.64,11.66-113.23,6.21,1.35-11.24,1.56-21.92-20.94-22.25,18.4,18.42-20.95,38.79,31.58,44.66,7.4,15.03-20.95,15.09-30.55,23.01-37.57-12.53-56.08,12.95-82.04,19.32,27.3,13.23,99.31,6.09,134.06,16-24.45-17.77,3.28-28.36,30.35-36.56-16.79,2.29-17.18-24.38-.33-22.54,19.87,10.61,45.93,18.42,82.71,21.33,27.49-.37,22.18-14.59,51.31-14.27,8.32-12.89-14.7-11.48-10.62-22.42,21.1,8.74,27.46.79,41.13-5.08,31.2,3.96,61.17,8.48,82.64,16.88-23.01,2.25-3.85,22.29-9.85,31.7,45.87,10.94,74.91,29.49,124.13,38.87-.5,5.8-13.11,6.45-10.11,13.7,32.74-1.12,45.16-10.84,82.24-10.13-2.39,15.43-54.41,9.89-61.46,23.38,29.17-2.32,28.37,32.04,61.95,12.69-22.39-6.9,46.98-12.75,61.54-18.85-8.02-.91-20.33.13-20.67-4.27,45.36-1.76,28.8-29.71,50.92-41.27,17.27,10.34,57.67,10.15,51.93,30.9-32.32,5.59-25.1-6.74-41.3-8.5,9.84,16.93.85,21.2,10.69,31.47,38.54-9.38,22.49,3.97,51.61,8.34,57.1-38.18,188.72-18.48,246.47-52.73,15.56,12.32,42.01-8.33,51.53,3.89-.88,17.55-64.6,8.55-71.79,23.41,44.32-3.42,33.58,18.09,82.54,12.56,14.01-10.45-26.75-16.66-.22-18.05,10.09,4.48,20.44,8.88,31.03,13.16,31.51-24.02,59.02-49.77,102.17-68.88,7.06,18,66.4,12.34,113.43,12.24.03,3,.07,6.04.1,9.01,24.83,1.62,22.31-8.47,51.45-5.06-8.89,16.62-2.66,36.27,31.41,49.29-5.3-2.03,5.98-1.36,10.31-.11,5.29,1.55,6.27,6.71,20.64,4.3-20.12,8.66-5.74,21.78,31.04,17.72,3.2-10.54-1.82-17.3-10.5-22.46,27.54-3.26,39.01-13.35,61.57-18.7,20.5,5.89-2.92,31.53,31.23,31.26-5.76-21.75,8.53-17.24,30.77-9.33l-.18-18.05c45.2,4.29,33.65-15.59,71.94-14.28,10.37,5.91,17.1,13.47,31.04,17.74-4.98-17.13,59.86-.1,72.11,3.85,21.35-10.26,43.33-8.94,61.76-.58-16.89-26.71,32.07-25.27,51.16-36.57,2.34,3.45.35,8.89,10.36,8.92,17.02-14.36-38.44-18.07-10.48-22.48.22,7.46,28.57,2.29,30.95,8.74-3.76,15.31,18.03,19.1,31.12,26.82-3.29-18.39,21.49-2.59,41.15-4.85,2.27-3.55.2-8.9,10.22-9.13,27.03,7.54,35.36-7.39,72.02-5.12,32.6,16.2-21.3,36.02.37,45.11,29.65-20.24,43.61-47.21,81.86-63.81,38.69-8.21,46.94,5.41,61.77-.47-19.57-.28,6.26-17.65,20.46-18.17,30.93,12.74,54.84-2.87,72-9.58,61.47-.25,100.93,9.31,113.46,30.87,72.61-.89,37.31-24.4,40.88-49.85,29.04,12.94,28.15-6.94,51.43-9.33-3.1,10.41,29.81,4.84,30.98,13.36-2.46,6.45-16.93,7.72-20.52,13.61,32.31,2,27.12-12.26,51.42-13.77,5.73,12.51,39.84,12.43,61.8,17.75,1.63-5.32-1.82-12.79,10.27-13.58,41.61-3.38,58.78,4.07,51.58,22.32,48.99-6.64,25.61,18.73,72.07,13.25-15.18-17.74-24.53-24.43,10.19-36.1,21.17,1.17,9.75,16.77,30.92,17.95,1.59-5.32-1.82-12.79,10.27-13.56,19.41,6.46,53.48,6.46,61.8,17.85-.92,7.15-26.24,3.6-20.55,13.58,54.52-5.98,32,21.98,82.33,17.87,6.19,16.85,44.6,19.5,61.77,31.51,14.29,2.73,1.55,17.34,20.58,18,13.48-20.06,111.25-15.57,102.82-31.61,13.13.26,14.23,5.8,30.82,4.54-1.29-8.1,10.24-10.56,30.86-8.98-1.3-20.18,52.32-16.08,71.99-26.96,23.24,19.92,53.22,36.87,112.9,40.97,1.62-5.27-1.72-12.8,10.31-13.46,23.35,3.36,30.64,13.71,40.95,22.75-26.58,10.76-28.86,32.36-61.73,40.29-36.52,1.86-45.01,16.18-71.91,22.28,46.25,6.41,51.31-17.34,82.07-4.19,8.92-6.54,15.41-14.26,41.08-13.36-13.39-14.05,2.86-12.81.17-31.55,13.67-10.98,38.15,5.19,41.06-4.28-25.21-8.63,27.83-20.45,20.75-35.96,19.57-1.79,25.91-9.54,51.4-8.63.04-4.49.07-9.04.11-13.53,33.32-1.61,32.78-18.48,61.81-21.99,2.25,3.5,8.53,5.31,20.49,4.7,15.31-5.2,16.16-16.86,31.07-22.2,46.58,14.57,122.56,16.87,153.26,38.37,18.59-3.48,28.4-11.06,51.38-12.47,3.49-10.4-1.24-17.32-9.71-22.76,30.99-2.23,37.51-15.86,46.01-28.6,8.49-12.72,18.98-24.6,57.9-22.86,10.56-13.28,37.04-18.88,32.24-39.53,40.33-3.58,76.15-9.02,110.6-14.71,17.26-2.82,34.11-5.74,51.58-8.19,8.79-1.2,17.63-2.32,27.59-2.88,2.49-.14,5.11-.22,7.89-.22,2.79,0,5.74.08,9.21.4.9.09,1.73.16,2.73.31l1.45.2,1.59.26c2.11.36,4.59.89,7.71,1.84.84.27,1.58.49,2.5.82.99.36,1.97.74,2.95,1.13,1.13.47,2.41,1.06,3.59,1.63l.45.22.58.3,1.15.62c.77.42,1.53.85,2.28,1.3.32.18.92.57,1.39.87l1.48.98,1.45,1.01c.5.36.87.62,1.6,1.19,1.29,1.01,2.55,2.07,3.76,3.17l.91.83.49.46.61.61c.81.82,1.61,1.66,2.38,2.52.77.86,1.52,1.74,2.25,2.64l.54.68.63.83c.48.64.94,1.29,1.4,1.95.91,1.32,1.77,2.68,2.58,4.07.41.69.8,1.39,1.18,2.1l.56,1.06.68,1.4c.89,1.89,1.69,3.83,2.4,5.81.35.99.68,1.99.99,2.99l.44,1.51c.14.52.26.96.41,1.58,1.13,4.67,1.75,9.6,1.79,14.41,0-4.57-.52-9.21-1.48-13.61ZM369.65,299.85c-.06-4.49-.13-9.01-.19-13.53,29.93-7.06,30.31,19.74.19,13.53ZM410.72,290.26c-28.53-1.55-.73-14.17,20.47-9.33,2.23-8-10.68-22.45,20.35-18.33.08,6.04.17,12.03.25,18.05-19.17.89-34.38,3.44-41.07,9.61ZM462.17,285.02c-5.36-2.24,7.37-5.87,10.24-4.66,5.36,2.27-7.38,5.86-10.24,4.66ZM482.58,271.21c-5.38-2.27,7.36-5.89,10.24-4.66,5.36,2.27-7.39,5.86-10.24,4.66ZM544.61,288.41c-32.01,2.55-36.96-10.85-20.83-17.77,18.14.83,23.59,7.45,20.83,17.77ZM628.22,377.49c10.94-4.35,2.99-16.68,30.73-13.91,1.99,9.77-8.26,14.46-30.73,13.91ZM689.8,363.17c1.93-3.67,10.31-4.63,10.21-9.17,6.86-.09,13.7-.18,20.59-.27.06,4.49.12,9.04.18,13.53-8.33-2.26-16.78-4.47-30.98-4.08ZM873.31,211.93c6.62-4.69,23.62-4.99,20.43-13.82,30.92-4.93,18.37,9.83,20.83,17.79-18.48.79-21.83-5.26-41.26-3.98ZM905.16,288.2c46.45-13.32-22.41-.99-10.56-22.41,35.75,3.48,70.44,7.4,72.41,26.16-39.86-2.53-36.62.45-61.85-3.75ZM1008.17,286.92c-28.28-13.36,31.49,11.93,0,0h0ZM1069.06,209.52c-31.57-2.93-30.23,8.13-61.77,5.24-7.6-4.12-18.8-6.61-31.01-8.63.4-14.81,29.09-17.61,20.15-36.35-25.56-.85-64.33-18.87-72.29-12.67-27.93,3.6,7.12-21.36-20.83-17.79-25.54-9.28,32.74.86,41.27,4.01,32.57-1.11,34.59,11.55,72.25,8.15,6.21,9.27,20.01,15.12,41.43,17.55-7.96,4.11-10.95,10.33-10.07,18.17-23.89,5.29-27.61-.68-51.44,9.63,18.32,7.46,68.59-9.62,82.22-19.04,24.21,1.18,38.76,6.69,72.17,3.67-10.73,16.4-67.08,13.45-82.08,28.06ZM1153.25,361.88c-5.34-2.25,7.38-5.82,10.24-4.61,5.37,2.28-7.36,5.85-10.24,4.61ZM1194.24,343.39c-5.35-2.28,7.4-5.85,10.23-4.64,5.37,2.28-7.36,5.85-10.23,4.64ZM1596.06,361.56c-.03-2.99-.06-5.99-.09-9.01,6.88-.07,13.75-.14,20.58-.21.03,3.02.06,6.02.09,9.01-6.83.07-13.69.14-20.57.21ZM1893.12,187.29c.25-4.38,12.59-3.59,20.57-4.73-.22,4.44-12.56,3.64-20.57,4.73ZM1924.07,191.54c-.03-3.05-.05-6.02-.08-9.07,6.9-.06,13.76-.12,20.63-.18.03,3.05.05,6.02.08,9.07-6.87.06-13.72.12-20.62.18ZM2068.04,154.24c-26.36-2.19-36.11-5.69-51.47,4.94-31.22-9.34,29.36-17.05,30.68-27.34,15.33,3.72,22.26,11.17,20.79,22.4ZM2110.49,311.8c-5.33-2.3,7.42-5.82,10.28-4.57,5.35,2.28-7.42,5.82-10.28,4.57ZM2172.39,324.83c-5.35-2.25,7.4-5.82,10.26-4.54,5.35,2.25-7.42,5.82-10.26,4.54ZM2398.65,282.73c5.34,2.28-7.43,5.81-10.27,4.58-5.34-2.31,7.41-5.84,10.27-4.58ZM2368.02,323.48c-6.86.04-13.74.09-20.59.13-.04-6.02-.08-12.03-.12-17.99,9.19,2.71,18.44,5.33,20.59-.13,16.66-3.35,16.82,21.17.11,17.99ZM2357.58,301.03l-.12-18.05c16.68,7.63,43.15,10.94,82.43,8.5.87,23.47-38.02,3.64-82.32,9.54ZM2542.79,272.87c2.5-5.69,20.43-4.63,20.59-.1-9.17,2.81-18.4,5.55-20.59.1ZM2624.6,146.15c-46.41-3.54-26.97,21.36-82.39,13.93-8.46-15.52,19.15-19.14-.14-27.06-26.32,21.66-81.42,30.91-133.78,41.37-8.19-15.57,9.52-19.92,30.78-22.75-14.75-5.93-14.87-25.48-.19-31.58,28.92,4.27-14.9,12.12,10.42,17.99,16.64-6.88,27.65-28.07,61.77-13.91l-.1-18.05c17.2-.09,34.37-.18,51.57-.27,2.77,13.88,22.41,20.23,31.1,31.46,17.78-7.32,30.08-17.03,41.12-27.25,28.95,8.51-14.09,23.53-10.17,36.12ZM2769.3,267.41c22.86-2.56,14.68,8.57,30.96,8.91-4.16,11.25-39.92.41-30.96-8.91ZM2892.92,262.55c1.94-5.12,10.31-2.51,10.28-.02-1.93,5.11-10.34,2.51-10.28.02ZM2903.31,316.68c.3-4.41,12.59-3.55,20.56-4.56-.25,4.38-12.54,3.53-20.56,4.56ZM2923.85,303.11c2.57-5.68,20.49-4.61,20.6-.04-9.15,2.79-18.39,5.48-20.6.04ZM2965.07,325.58c-22.32.8-4.66-15.98-10.31-22.53,8.26,2.36,16.7,4.67,30.87,4.45,12.75,14.59-33.28,3.49-20.56,18.07ZM3098.84,361.61c.68-12.15,23.55-21.69,41.14-13.54,3.09,11.9-14.23,14.81-41.14,13.54ZM3191.42,343.64c-5.32-2.33,7.45-5.75,10.28-4.53,5.32,2.38-7.41,5.75-10.28,4.53ZM3304.62,321.32c-5.35-2.31,7.42-5.74,10.29-4.43,5.31,2.31-7.46,5.73-10.29,4.43ZM3367.17,132.13c-5.29-2.34,7.53-5.73,10.36-4.47,5.33,2.37-7.53,5.75-10.36,4.47ZM3863.13,160.84c35.05-10.02-25.47,14.5,0,0h0ZM3211.88,397.82c2.88-10.3-2.46-16.98-20.52-18.08-1.75,5.25-16.27,4.86-30.85,4.45-3.72,19.43,25.54,17.45,51.38,13.63ZM1956.89,412.33c-.01,2.51,8.37,5.04,10.29-.09.03-2.52-8.37-5.07-10.29.09ZM2018.44,384.75c-2.86-1.22-15.6,2.25-10.27,4.58,2.86,1.22,15.62-2.3,10.27-4.58ZM2800.45,339.45c-2.87-1.21-15.63,2.28-10.29,4.58,2.87,1.21,15.62-2.22,10.29-4.58ZM1781.83,404.89c-3,2.77-25.47,17.58.17,18.02-14.23-10.12,26.37-17.2-.17-18.02ZM2111.3,415.55c-2.84-1.22-15.58,2.3-10.24,4.6,2.86,1.25,15.58-2.3,10.24-4.6ZM1678.91,410.36c0,2.48,8.42,5.06,10.31-.1-.02-2.51-8.38-5.03-10.31.1ZM1720.13,414.49c-27.95,13.97,31.22-12.62,0,0h0ZM1843.67,413.33c-.03,2.51,8.38,5.03,10.28-.09.03-2.52-8.38-5.07-10.28.09ZM2656.32,335.49c-5.3,7.14-39.49,24.35-10.14,31.62-3.15-8.86,13.85-8.99,20.52-13.62-36.12-1.06,25.77-16.89-10.39-18ZM2584.44,367.4c-2.87-1.23-15.62,2.28-10.28,4.57,2.87,1.23,15.62-2.25,10.28-4.57ZM2738.8,366.75c9.81,2.31,34.23,20.13,41.18,8.87-20.45,2.38-23.66-24.78-41.18-8.87ZM2512.24,340.68c-.02,2.54,8.39,5.13,10.31-.06.02-2.48-8.39-5.04-10.31.06ZM2584.33,344.86c-10.55.56-20.92-19.36-30.88-4.4,17.55,1.81-2.16,5.86.07,13.56,6.83-.03,13.71-.07,20.55-.1-.02-4.52,8.33-5.41,10.26-9.06ZM2327.13,368.88c-22.35-3.1-65.48,5.07-20.57,4.66,29.6.71,52.29-1.47,61.71-9.41-21.07-8.93-20.2,2.11-41.14,4.76Z"/>
  </g>
</svg>