<?xml version="1.0" encoding="UTF-8"?>
<svg id="Layer_2" data-name="Layer 2" xmlns="http://www.w3.org/2000/svg" viewBox="0 0 4172.54 289.68">
  <defs>
    <style>
      .cls-1 {
        fill: #d4e7d4;
        fill-rule: evenodd;
      }
    </style>
  </defs>
  <g id="Layer_1-2" data-name="Layer 1">
    <path class="cls-1" d="M4171.64,164.31c-.14-.39-.28-.78-.45-1.15-.16-.39-.34-.76-.48-1.01-.3-.57-.63-1.13-.99-1.67-.39-.59-.67-.93-.97-1.31-.31-.37-.63-.74-.96-1.09-.58-.6-1.06-1.04-1.63-1.53-1.95-1.6-3.31-2.33-4.57-3.04-2.36-1.25-4.14-1.97-5.8-2.66-3.01-1.18-5.8-2.28-8.34-3.28-4.79-1.93-8.44-3.74-11.03-5.77-5.14-4.02-6.07-8.87-1.32-14.88-6.39-3.37-16.03-5.79-26.8-7.61-10.79-1.83-22.76-3.08-34.11-4.4-22.69-2.62-42.95-5.48-46.3-13.82-13.69,4.29-19.9.26-26.2-4.93-6.29-5.19-12.65-11.54-26.44-11.72-6.33-8.72-11.65,6.19-30.47,1.78-17.59-11.99-43.09-21.19-67.44-30.69-51.21,1.66-134.25-9.34-189.02-15.13-47.73,23.27-141.24,6.94-203.89,9.34-12.05,16.6-52.67,8.14-67.99,19.59-27.28-7.47-1.58-19.02-14.93-28.7-37.76.76-52.68-6.98-90.44-6.16-12.62-8.6-34.46-13.73-52.72-20.22-79.31,1.29-141.15-3.9-195.98-11.66-24.65,3.99-49.98,7.76-82.88,8.59-29.3-1.63-57.4-9.46-75.36.12,2.58-10.49-27.47-8.56-45.19-11.31-13.35,2.55-22.02,9.15-37.69,2.98,2.32,7.54-15.7,7.42-30.1,8.62-22.45-.92-38.24-4.39-52.79-8.35-13.86,10.1-61.12,22.66-82.76,20.38,7.94-.18,5.93-3.73-7.55-2.85-8.67,4.28-8.65,7.27.05,11.47-22.63,2.89-33.54,10.29-67.71,8.93,8.26-11.14-26.69-10.09-7.62-17.16-12.57.06-25.11.13-37.67.19-10.1,8.1,39.94,6.97,15.13,11.36-53.36,4.37-63.84-7.85-97.91-10.91-34.8,12.32-78.64,3.91-120.46,9.33,2.24-5.67-10.17-5.61-15.09-8.49-43.76-4.85-90.23,4.97-135.55-1.93-18.72-.31-23.29,4.66-37.61,6.02-30.47-17.11-80.08.34-112.86,6.63-14.63-2.14-45.71-12.59-60.26-5.23,12.27-1.43,12.41,15.54.12,14.35-23.71-9.91-82.9-5.98-120.54-10.41-24.85,7.23-67.23-6.67-105.4.98-2.45-6.73-23.34-6.19-30.21-11.21-27.81,6.09-44.84-1.49-82.79.81-9.96.1-6.94-4.93-15.14-5.61-4.91,3.95-16.03,5.53-30.04,6.07-73.69-1.48-80.22.4-158.07,1.65.11,13.39-35.12,13.68-60.03,17.85-12.19-5.74-40.72-5.06-37.83-16.78-37.7-3.37-81.5-4.34-113-10.19-19.29,14.74-71.69-6.77-105.36,4.14-15.69-5.55-78.01-9.58-90.31,1.08-10.26-7.5-42.25-6.38-60.34-10.79-1.63,2.28-6.28,3.41-15.01,3.1-24.79,6.01,18.81,12,.18,14.32-35.01,1.37-50.29-5.08-82.88-4.67-8.29,9.28-26.24,15.05-52.45,17.84-10.05-2.75-28.05-2.35-30.22-8.23,15.66-6.53,5.65-19.14-7.83-22.81-23.74-1.11-16.91,9-45.06,6.32-22.77-2.53-44.96-5.26-67.86-7.72-47.92,3.26-68.87,8.15-120.37,4.5-6.14,8.16,10.69,7.25,7.69,14.25-19.48,7.1-33.27,16.36-59.94,20.88-10.03.14-20.04.28-30.09.42-29.15,7.01-59.35,7.18-105.2,12.95-25.32-7.27-74.7-4.92-90.57-15.9-54.7,2.52-79.8-6.72-120.57-9.75-18.69,4.29-17.78,8.46-22.41,11.86-8.86.58-21.37-.19-22.55,3.19,23.11,2.48-3.22,9.68-7.34,11.58,13.25.45,17.21,4.65,15.22,11.24-18.56-.12-36.26.1-45.11,3.57.89-5.18-7.57-6.61-22.67-5.41,13.41,6.06-.61,18.57,7.84,19.96,5.11-5.76,19.96-7.96,37.49-9.19,3.98,4.2,11.25,7.06,15.22,11.21-32.11,4.16-6.29,11.62-29.84,17.69-1.59,5.45,8.59,6.2,7.71,11.32-25.25-4.47-31.1.25-45.06,6.46,34.29,4.7,10.43,8.34.27,17.2,43.01,5.89,56.42,23.66,90.81,32.99-9.55,8.53-18.41,17.26-22.28,20.42-44.17,1.04-78.02-6.04-97.66,7.24,22.53,1.54-7.1,6.24.18,11.47,43.09.08,49.02,15.05,83.01,18.77.23,5.08,35.41-5.11,45.18,2.17-6.28,3.43-9.82,7.86-7.31,14.43,102.89-8.57,119.17,32.38,203.31,14.25,35.91,12.62,107.86,10.9,158.18,17.83,1.55-12.11-11.81-18.34-15.41-28.46,26.28-4.66,42.34-13.04,67.45-18.1,8.98,7.45,6.62,8.81,30.17,5.29,2.29,5.82,20.43,5.35,22.72,11.16-8.75.57-8.12,4.66-7.41,8.72,13.09-.4,23.41.31,30.11,2.42-9.52-13.86-9.86-21.79,7.11-31.59,39.92-5.42,79.67,12.02,128.05,12.66,18.36-1.85,15.91-11.31,45.03-9.2,16.42,10.07,60.62,17.11,97.94,10.2,10.12,14.25,44.49,18.91,97.95,16.02,24.06,7.78,52.2,13.94,82.99,19.05,19.45-3.91-5.99-17.08,7.32-17.29,14.43,8.75,32.6-4.85,52.61-3.48,40.05-1.4,67.33,2.21,90.34,7.54,18.7.21,23.23-4.79,37.54-6.17,5.26,5.59,20.12,7.43,37.69,8.19,16.12-4.56,42.3-5.36,52.52-12.05,9.64,3.88,35.52,1.36,45.16,5.24-16.25,6.14,1.01,9.25,7.68,14.24,56.89-2.96,79.84-.86,127.78-7.09,4.17-14.84-14.38-24.43-.3-28.67,24.09-.84,12.4,12.41,37.73,11.05,10.71-5.45,55.25-1.32,82.74,2.08,7.54-5.78,12.89-12.39,29.94-14.65,25.03,12.24,93.14,7.58,98.03,27.73,38.6-5.36,56.37-2.08,90.17-6.56.89,3.47,2.32,6.76,15.12,5.6,25.93-12.43,57.07-5.36,97.65-12.32,15.83,2.44,33.44,4.18,45.17,8.24,6.29-8.47,24.24,1.52,37.6-.31-.99-13.72,9.21-23.27,37.4-26.12,50.75,1.3,67.86,15.66,120.44,16.29,1.25-4.27-2.77-10.54,7.43-11.49,15.34.71,14.82,7.63,30.14,8.37,10.43-1.85,1.07-11.05,14.95-11.57,67.74.67,91.89,19.6,165.51,10.41,18.81,2.24,29.53,7.68,52.64,8.29,26.02,2.15,31.72-3.37,45.07-5.98,14.38,1.14,13.67,8.12,37.64,5.54-.08-8.53,12.86-11.96,37.53-17.36-3.36-10.77,15.8-13.15,29.98-17.37-2.46-6.71-11.97-10.68-7.61-20.02,13.09.17,23.35-.78,30.04-2.99,13.07,3.53,19.76,9.61,45.16,8.4,6.82,5.03,16.84,8.81,30.1,11.36,15.01-.65,32.16,12.03,37.64,5.58-23.98-8.28,23.96-13.64,37.53-17.29,12.13,5.84,37.7,6.53,67.69,5.56-.53,5,1.71,8.92,7.55,11.42,13.09-.23,23.38.63,30.06,2.85-.05,9.57,30.2,7.49,37.6,14.26,35.05-.03,70.14-.06,105.2-.09,18.21,3.58,36.48,7.06,60.08,8.59,16.58,7.05,20.95,18.77,52.59,20.13,27.46,1.9,28.82-6.17,52.57-5.65,42.68,3.79,74.79,11.75,105.02,20.37,1.26-3.33,11.86-3.06,22.53-2.79,10.38-1.71,1.16-11.04,15-11.37,5.05.02,10.03.05,15.01.07,2.84-15.21,43.79-15.59,75.13-19.64,20.96,7.43,56.35,9.45,74.91,17.78,44.95-.31,126.29-.75,172.19,2.02,14.26-1,18.87-5.9,37.44-5.13,33.64-1.23,63.59,9.03,89.53,1.77,3.56,3.47,7.77,6.68,14.73,8.96,5.85-4.34,21.1-4.78,34.73-5.85,13.63-1.07,25.64-2.77,25.12-9.75-13.15-7.65-27.84-14.8-66.66-13.24,4.31-10.08-26.21-7.66-21.97-17.73,29.96-1.22,65.05-.26,89.67-3.42,15,3.32,27.19,5.15,40.63,7.05,13.43,1.91,28.11,3.88,47.89,7.63-.77-8.11,10.55-10.91,21.16-13.95,10.61-3.05,20.53-6.33,17.14-15.69-18.02-.18-27.43-3.12-34.92-6.73-7.5-3.6-13.11-7.83-23.66-10.38.3-5.68,20.49-2.8,15.38-10.81-25.02.81-36.81,7.43-60.15,9.19,2.53-6.57-21.5-3.88-22.17-9.29-2.33-13.36-28.19-18.51-36.67-29.71,10.29-6.4,27.14-10.04,45.51-13.04-7.59-.26-9.3-5.31.18-5.76,13.57,3.85,5.44,15.15,14.37,20.55,18.76,3.86,51.44,3.22,52.09,13.34,25.88-3.31,45.84-.32,60.06-2.75-27.6-3.9-1.06-10.16,8.32-13.88,18.98.15,28.14,3.53,36.21,7.21,8.06,3.72,15.14,7.65,29.69,9.83,7.52-3.52,16.96-5.85,25.1-8.33,2.14-.66,4.15-1.28,5.97-1.84,1.95-.6,3.83-1.22,5.92-1.62.51-.12,1.08-.16,1.63-.23.56-.06,1.19-.02,1.79-.02,1.3.16,2.71.43,4.24,1.39.38.24.75.48,1.1.72.35.23.73.64,1.07.95.68.69,1.29,1.26,1.82,1.98,1.07,1.34,1.91,2.32,2.81,2.44,0-1.86-.36-3.88-.9-5.32ZM128.77,202.06c3.26-4.26,6.58.16,15.04-.23-1.82,3.62-14.93,3.1-15.04.23ZM676.71,105.48c-3.9-1.45,5.4-3.74,7.49-2.98,3.9,1.44-5.4,3.74-7.49,2.98ZM706.76,102.2c-3.91-1.42,5.4-3.72,7.51-2.95,3.9,1.45-5.4,3.74-7.51,2.95ZM797.21,112.52c-38.14,1.65-55.08-5.11-75.38-10.52.18-2.77,9.19-2.32,14.99-3.05,13.44.08,27.39,3.06,37.7,5.25,5.93,1.25,29.06,2.85,22.68,8.32ZM940.01,96.37c-7.31.18-5.8,3.6-7.46,5.83-11.76-4.57-35.13-.81-45.09,3.42-23.96-5.32-54.96,5.02-67.84-7.73,72.6,6.14,94.06-12.8,157.92-10.56,10.44,1.62,1.27,11.03,15.17,11.25-5.62,5.69-24.09-7.48-52.7-2.21ZM1022.91,106.77c1.45-.54-4.23-1.22-10.25-1.75-3.01-.26-6.11-.48-8.45-.63-1.17-.07-2.15-.12-2.83-.16-.68-.03-1.07-.04-1.06-.02-2.18-4.52,40.57-4.51,22.59,2.55ZM1053.05,109.34c-14.1-1.75,21.72-8.88,22.42-14.62,14.35,1.07,18.97,5.93,37.67,5.29-13.59,5.47-45.35,4.27-60.08,9.33ZM1354.14,114.45c-17.17-1.87-38.5-2.15-52.75-5.18,8.04-5.72,62.38-5.55,52.75,5.18ZM1625.69,180.41c-3.91-1.46,5.4-3.73,7.52-2.99,3.9,1.46-5.41,3.73-7.52,2.99ZM1722.54,79.12c19.13.15,29.22,3.84,30.18,11.15-29.55,3.19-43.72-5.91-30.18-11.15ZM1768.64,181.87c-10.2-.81-6.28-7.11-7.6-11.45,26.24-2.73,12.92,9.28,7.6,11.45ZM1783.7,181.73c-3.9-1.49,5.42-3.69,7.5-2.92,3.91,1.4-5.4,3.67-7.5,2.92ZM1775.58,118.73c-8.05-2.58-2.43-10.54-22.67-8.37,0-7.63-2.99-16.33,7.37-20.15,30.3-1.16,42.57,19.63,60.31,13.76,20.99,7.07-18.8,15.76-45.01,14.77ZM1888.41,111.99c-25.09.22-25.76-9.12-52.75-8.17,2.18-1.74,18.62-11.19-.1-11.44,3.17-7.97,23.65-.36,15.11,5.54,20.26,1.88,14.47-6.01,22.47-8.76,27.54-2.11,28.96,5.96,52.75,5.27-7.72,7.64-29.75,9.92-37.47,17.56ZM2385.06,105.32c-18.13,1.27-16.4-5.15-37.66-2.61-1.25-3.35,1.62-5.12,7.49-5.78-.24-2.8-9.23-2.17-15.08-2.84,4.92-3.82,16.03-5.39,30.06-5.87-7.96,10.76,18.74,8.04,15.19,17.11ZM2392.61,108.15c1.09-7.15,25.49-1,30.09-.18-4.88,8.62-16.12-2.67-30.09.18ZM2972.04,65.71c3.31-4.15,6.62.3,15.07-.02-1.89,3.59-15,2.9-15.07.02ZM2994.62,74.27v-5.76c5.03,0,10.07,0,15.07-.01v5.76c-4.99,0-10.03,0-15.07.01ZM3220.47,117.35c3.29-3.55,9.67-5.86,22.58-5.68-5.59-6.49-42.22-1.19-60.19-2.97.94-5.14-9.2-6.05-7.51-11.5,10.64-.21,21.32-.42,22.6,2.94,16.13-.51,14.37-7.97,22.58-8.63,38.97-2.8,48.78,18.98,82.74,23.22-9.04,14.14-65.45,13.81-82.79,2.63ZM3700.7,226.92c1.03-8.26-3.8-18.81,7.86-22.82,9.98.16,20.01.32,30,.48,10.09,5.82,6.86,16.5,14.57,23.19l-52.44-.84Z"/>
  </g>
</svg>