<?xml version="1.0" encoding="UTF-8"?>
<svg id="Layer_2" data-name="Layer 2" xmlns="http://www.w3.org/2000/svg" viewBox="0 0 4143.33 432.54">
  <defs>
    <style>
      .cls-1 {
        fill: #111714;
      }
    </style>
  </defs>
  <g id="Layer_1-2" data-name="Layer 1">
    <path class="cls-1" d="M1262.25,377.47c-2.32-1.92-12.64,3.36-8.33,6.97,2.31,1.92,12.64-3.36,8.33-6.97ZM1220.62,370.63c-27.36-5.01-12.74,13.78.03,13.87-.48-21.15,29.93-16.72,24.87-41.68-21.94-2.02-27.26,9.66-24.89,27.81ZM1187.37,391.53c-.03,3.82,6.75,7.82,8.33-.01,0-3.84-6.78-7.93-8.33.01ZM1045.87,336.09c-2.3-1.95-12.63,3.33-8.33,6.92,2.3,1.92,12.63-3.39,8.33-6.92ZM1303.79,370.44c-2.31-1.91-12.58,3.4-8.29,6.94,2.29,1.92,12.63-3.37,8.29-6.94ZM1287.17,370.48c-2.31-1.91-12.62,3.4-8.31,6.94,2.31,1.92,12.62-3.36,8.31-6.94ZM1312.1,363.44c-3.48,15.32,25.02,38.26,33.37,20.75-16.09-2.78-.84-31.77-33.37-20.75ZM912.61,391.47c-2.3-1.95-12.65,3.31-8.35,6.9,2.3,1.93,12.67-3.36,8.35-6.9ZM837.63,391.26c.02-4.66.03-9.29.05-13.92-8.34.03-9.88-5.63-16.65-6.98.77,10.88-1.17,24.07,16.61,20.91ZM854.22,419.02c-2.3-1.93-12.68,3.35-8.35,6.92,2.28,1.96,12.61-3.29,8.35-6.92ZM1336.98,328.68c-6.46,1.54-16.44.25-16.63,7.02,6.43-1.63,16.41-.3,16.63-7.02ZM1020.87,363.79c0,7.01,6.77,8.31,8.32,13.9-21.31,7.53-39.64-21.1-49.93-.04,13.76.13,4.65,19.27,16.65,20.86,7.06-10.33,26.78-10.04,41.62-13.87,1.29-9.26-13.06-38.31-16.66-20.85ZM1045.85,391.62c-2.3-1.95-12.64,3.33-8.34,6.92,2.3,1.92,12.64-3.39,8.34-6.92ZM870.96,391.36c-2.3-1.95-12.66,3.3-8.36,6.9,2.3,1.93,12.66-3.35,8.36-6.9ZM929.36,356.73c-6.81,33.77,14.71,39.15,41.56,27.86-1.02-19.94-10.39-33-41.56-27.86ZM1353.68,356.37c-2.31-1.91-12.61,3.43-8.27,6.97,2.31,1.91,12.58-3.37,8.27-6.97ZM1869.02,325.97c-2.39,4.25-20.48,26.86.19,27.74,2.41-4.25,20.5-26.86-.19-27.74ZM1727.83,347.73c-.37,11.92,6.52,17.76,16.77,20.72.37-11.92-6.52-17.75-16.77-20.72ZM1927.51,367.22c.15,6.98,14.63,8.62,16.63-.12-1.82-8.38-9.27-4.2-16.63.12ZM2052.22,366.28c-2.32-1.9-12.59,3.46-8.27,6.99,2.32,1.9,12.59-3.43,8.27-6.99ZM2152.03,372.39c19.36-2.48,35.76-7.42,41.39-21.2-27.99-4.56-27.14,14.52-41.39,21.2ZM2059.97,296.76c-2.31-1.9-12.57,3.52-8.25,7.01,2.31,1.9,12.59-3.43,8.25-7.01ZM1694.42,320.14c-2.31-1.91-12.58,3.4-8.26,7,2.31,1.91,12.61-3.41,8.26-7ZM745.92,390.86c-2.3-1.96-12.64,3.27-8.35,6.88,2.3,1.93,12.68-3.32,8.35-6.88ZM1486.74,355.88c2.53,13.66-11.14,13.83-16.51,20.92,16.55,11.51,10.54-.66,33.23-.14l-.06-13.9c-8.34.09-9.92-5.52-16.66-6.88ZM1412.02,383.97c6.43-1.61,16.4-.23,16.59-7.01-6.46,1.61-16.41.23-16.59,7.01ZM1361.98,349.45c.01,4.58.03,9.21.04,13.84,5.52-.02,11.07-.04,16.62-.06-.02-4.63-.03-9.26-.05-13.84-5.55.02-11.1.04-16.62.06ZM1628.18,369.12c-2.31-1.91-12.6,3.43-8.25,6.97,2.31,1.91,12.57-3.4,8.25-6.97ZM1644.85,375.95c0,3.84,6.78,7.87,8.32-.05,0-3.84-6.78-7.79-8.32.05ZM1677.91,341.08c-2.39,4.25-20.52,26.87.16,27.76.05-9.18,14.55-6.44,16.55-14.02-10.98,0-7.66-12.1-16.71-13.74ZM76.1,307.46c38.17-36.72-12.99-20.66,0,0h0ZM66.45,320.78c2.33,2.09,13.52-2.54,9.21-6.39-2.26-2.06-13.49,2.45-9.21,6.39ZM229.5,293.19c-2.26-1.99-12.85,3.02-8.59,6.69,2.25,1.99,12.78-2.95,8.59-6.69ZM169.65,318.98c2.27,2.01,12.95-2.85,8.71-6.63-2.26-2-12.94,2.85-8.71,6.63ZM320.89,323.32c6.54-1.44,16.52.18,16.86-6.59-6.5,1.45-16.48-.18-16.86,6.59ZM320.59,337.22c9.39-.53,12.84,10.33,16.73.35.07-7-14.46-9.06-16.73-.35ZM245.06,335.35c-1.62-.84-7.74-12.93-16.6-7.41-5.97,3.69,48.58,23.78,16.6,7.41ZM304.17,322.95c-.16,3.84,6.57,8.03,8.35.19.12-3.84-6.6-8.03-8.35-.19ZM202.71,341.02c-2.27-1.99-12.91,2.9-8.7,6.6,2.28,2,12.95-2.9,8.7-6.6ZM155.88,242c-1.42-8.43-9.09-4.62-16.73-.72-.21,7.01,14.3,9.39,16.73.72ZM2168.36,337.56c22.53-21.32-25.12,19.14,0,0h0ZM160.94,325.63c-2.26-2.04-13.05,2.81-8.77,6.57,2.28,2.02,12.99-2.87,8.77-6.57ZM126.57,331.08c-2.25-2.02-13.13,2.7-8.91,6.53,2.29,2.04,13.2-2.77,8.91-6.53ZM101.95,308.97c2.28,2.05,13.15-2.65,8.92-6.49-2.25-2.03-13.15,2.64-8.92,6.49ZM73.03,223.75c1.56,8.97,4.71,15.92,3.56,20.49-1.17,4.55-6.62,6.79-22.48,6,6.54-4.58,8.54-9.95,6.03-14.23-2.52-4.29-9.52-7.47-21.29-7.98-6.16,21.35,8.23,29.29,22.79,36.74,3-12.05,15.78-14.73,34.9-11.72,8.56-21.81-11.7-22.34-23.51-29.31ZM135.74,317.58c6.65-1.28,16.77.55,17.28-6.21-6.64,1.31-16.73-.55-17.28,6.21ZM587.36,396.64c-2.29-1.94-12.71,3.21-8.39,6.87,2.29,1.94,12.68-3.24,8.39-6.87ZM679.49,348.8c-49.91-6.23-6.03,56.12,8.11,34.74-18.06,1.07-3.6-24.65-8.11-34.74ZM662.34,418.05c20.34-23.13-28.15,16.57,0,0h0ZM612.57,376.02c-6.07,10.4-6.61,29.24-.3,34.69,1.88-5.35,7.07-7.96,16.78-6.75-1.05-12.94-5.31-23.23-16.48-27.93ZM345.84,330.82c6.5-1.48,16.52.07,16.88-6.65-6.52,1.4-16.5-.12-16.88,6.65ZM695.68,425.23c-2.3-1.94-12.69,3.31-8.4,6.89,2.3,1.94,12.69-3.25,8.4-6.89ZM721.03,376.8c-2.28-1.93-12.71,3.26-8.39,6.9,2.3,1.94,12.64-3.26,8.39-6.9ZM695.82,404.44c-2.3-1.93-12.68,3.25-8.4,6.84,2.3,1.94,12.68-3.25,8.4-6.84ZM637.64,376.23c-.07,3.84,6.64,7.96,8.33.06.03-3.84-6.73-7.88-8.33-.06ZM421.63,297.38c-2.28-1.96-12.71,3.21-8.46,6.81,2.28,1.96,12.71-3.13,8.46-6.81ZM421.08,332.15c.07-4.66.15-9.29.22-13.92-8.36-.08-9.83-5.81-16.6-7.22.64,10.92-1.48,24.05,16.38,21.14ZM446.43,311.66c-2.28-1.95-12.71,3.15-8.42,6.83,2.28,1.96,12.68-3.15,8.42-6.83ZM503.98,381.86c-.12,3.84,6.64,7.93,8.36.1.04-3.84-6.7-7.99-8.36-.1ZM537.29,389.22c-2.29-1.97-12.69,3.19-8.41,6.83,2.29,1.95,12.72-3.25,8.41-6.83ZM729.22,397.69c-2.3-1.93-12.68,3.26-8.36,6.9,2.26,1.93,12.65-3.29,8.36-6.9ZM479.42,339.91c-.29,11.47-23.22,3.53-25.23,13.5,22.83-.31,16.67,11.81,33.41.45-2.66,11.27,11.05,18.9,16.63,7.16-19.3,1.91-9.06-20.14-24.81-21.1ZM1453.47,356.01c-2.31-1.91-12.58,3.44-8.3,6.98,2.31,1.91,12.65-3.38,8.3-6.98ZM3895.53,227.01c5.13,1.96,32.23,16.82,33.23-.49-15.37,6.92-28.06-20.38-33.23.49ZM3211.6,14.08c-.17-7-14.65-8.57-16.6.21,9.32-.85,13.05,9.95,16.6-.21ZM3953.18,191.5c-5.14,16.27,49.49,31.56,41.62,6.3-23.39,6.06-21.66-9.45-41.62-6.3ZM2235.21,378.62c-2.32-1.9-12.59,3.45-8.24,7.05,2.32,1.88,12.57-3.47,8.24-7.05ZM4126.74,133.33c5.52-.09,11.06-.17,16.59-.26-.07-4.66-.15-9.29-.22-13.92-5.53.09-11.07.17-16.59.26.07,4.63.14,9.26.22,13.92ZM4068.72,141.15c.02,3.84,6.86,7.75,8.31-.13-.04-3.9-6.86-7.81-8.31.13ZM4126.85,140.25c-2.33-1.88-12.55,3.53-8.2,7.08,2.33,1.88,12.55-3.59,8.2-7.08ZM3945.38,226.28c16.31-2.33,16.61,9.13,25.13,13.53,7.07-14.4-22.01-30.86-25.13-13.53ZM3572.03,266.29c-2.33-1.89-12.57,3.5-8.22,7.06,2.32,1.89,12.57-3.56,8.22-7.06ZM3356.46,303.83c12.58,10.85,34.06,4.7,41.46-7.49-12.02,3.94-43.04-7.49-41.46,7.49ZM3372.54,262.01c-6.42,1.61-16.38.35-16.53,7.14,6.44-1.64,16.39-.44,16.53-7.14ZM3821.18,255.91c.07,4.6.13,9.23.2,13.87,5.53-.08,11.07-.16,16.62-.24-.07-4.63-.13-9.26-.2-13.87-5.54.08-11.09.16-16.62.24ZM3588.93,286.86c.02,3.84,6.84,7.82,8.3-.11-.02-3.84-6.84-7.76-8.3.11ZM3804.55,256.14c-2.33-1.89-12.55,3.49-8.2,7.04,2.33,1.89,12.58-3.54,8.2-7.04ZM3729.59,243.28c-1.78,5.39-.03,13.67-8.12,14.04-1.94-5.43-.41-13.75-8.5-13.81,2.04,13.08-9.15,15.44-7.93,27.91,8.32-.12,16.62-.23,24.93-.35,2.37-4.33,20.28-27.07-.39-27.79ZM3978.91,246.63c6.43-1.68,16.39-.44,16.51-7.19-6.42,1.68-16.37.41-16.51,7.19ZM51.17,190.3c6.14,5.37,15.14,8.81,31.99,6.32,1.71-10.08-2.59-15.7-6.84-21.33-4.25-5.63-8.43-11.27-6.65-21.31,8.07.58,9.97-4.97,16.57-5.81.19,15.17,19.53,16.15,39.9,16.11,3.83-30.06-13.28-39.16-13.73-49.41-.81,7.32-10.6,4.9-7.61-7.32-13.83,1.4-22.71,5.08-28.94,10.13-6.22,5.04-9.76,11.45-12.73,18.21-5.91,13.48-9.42,28.52-27.14,36.08,5.66,5.63,9.03,12.95,15.17,18.34ZM45.88,152.03c-2-2.1-12.09,2.16-8.47,6.16,1.95,2.15,12.21-2.24,8.47-6.16ZM113.15,101.04c9.58-10.23,23.9-15.92,33.44-26.19-11.7-3.46-24.86.59-32.72,6.73-7.84,6.14-10.47,14.43-.73,19.46ZM7.75,159.32c.33.15.66.3.98.45l.49.23.24.12.35.18c.48.25.95.51,1.41.78.23.13.46.27.68.4l.37.23.49.32c.65.44,1.27.88,1.86,1.34.3.23.59.46.88.68.36.3.81.69,1.19,1.04,1.63,1.53,2.75,2.59,4.62,5.03.81,1.07,1.54,2.14,2.19,3.18.17.28.33.55.5.82.19.35.39.69.58,1.02.37.68.71,1.35,1.03,2.01,1.28,2.71,2.07,4.88,2.81,7.43,1.33,4.79,1.59,7.66,2.11,7.65.51-2.71.7-6.16.23-9.99-.06-.45-.12-.9-.18-1.36-.06-.42-.12-.86-.2-1.29-.15-.87-.34-1.77-.57-2.69-.23-.92-.5-1.85-.82-2.79-.16-.47-.33-.94-.51-1.42-.16-.43-.33-.86-.5-1.29-.55-1.46-1.23-2.96-2.05-4.46-.41-.75-.85-1.5-1.32-2.24l-.18-.28-.12-.21-.24-.4c-.17-.26-.34-.53-.51-.8-.7-1.07-1.48-2.13-2.34-3.17l-.66-.77-.44-.54c-.3-.36-.61-.71-.94-1.06-.65-.7-1.34-1.39-2.08-2.05-.47-.47-.97-.92-1.49-1.36l-.8-.64-.75-.57c-.36-.28-.74-.55-1.13-.81-.37-.25-.84-.53-1.15-.71-.27-.16-.54-.31-.82-.44-.28-.14-.56-.26-.85-.38-.25-.1-.39-.14-.6-.2-1.7-.49-2.22,0-2.81.64-.43.69-.75,1.63-1.05,2.55-.17.57-.41,1.36-.69,2.32-.19.61-.16,1.11-.19,1.47.22.82.78,1.09,2.99,2.04ZM.62,195.1c.9,1.16,4.12.9,6.62-.25,2.5-1.14,4.26-3.12,2.5-5.2-.94-1.12-4.01-.79-6.45.29-2.42,1.08-4.33,2.94-2.67,5.15ZM168.9,124.42c2.19,2.01,12.5-2.85,8.41-6.63-2.18-2-12.52,2.93-8.41,6.63ZM17.41,141.71c5.76-5.03,7.43-9.13,6.8-11.98-.59-2.85-3.26-4.49-5.54-4.73-2.37-.25-4.04.96-4.84,3.67-.41,1.36-.61,3.08-.31,5.22.37,2.15,1.38,4.75,3.89,7.82ZM2190.73,38.87c2.31,1.88,12.55-3.47,8.23-7.05-2.32-1.9-12.57,3.44-8.23,7.05ZM1361.04,57.89c2.3,1.91,12.58-3.4,8.25-6.97-2.3-1.91-12.54,3.37-8.25,6.97ZM1742.68,56.07c2.31,1.91,12.56-3.44,8.25-7-2.31-1.91-12.58,3.41-8.25,7ZM2091.18,46.63c2.31,1.9,12.57-3.49,8.25-6.99-2.31-1.93-12.57,3.44-8.25,6.99ZM129.97,183.22c.8,8.01,7.14,12.36,19.93,2.97-6.35-1.82-16.28-.92-16.2-7.71,11.31.87,18.25-2.46,25.03-5.86-1.6,17.74-6.06,32.89-18.34,40.94-14.12.69-17.02-7.16-21-14.13-3.99-7-9.05-13.09-27.56-9.25-2.15,21.44,8.15,33.71,13.85,49.45,28.4-5.35,46.87-19.78,76.24-24.39-.34,9.26-.68,18.46-1.02,27.72,24.37,2.71,26.15-14.79,50.46-12.23-1.54,12.9-6.18,23.05-17.55,27.27-10.13-7.53-18.74-4.04-28.89-.71-10.15,3.33-21.86,6.5-38.01-1.77-13.32,30.21,27.67,19.3,23.52,42.62,26.61-7.42,35.96-30.05,76.37-25.23-2.93,8.37.13,42.87,7.78,20.99-3.3-21.84,21.53-18.97,34.14-26.87.26,8.88,10.43,9.85,7.86,21.04-11.85-8.08-20.2-8.01-25.27,6.27,25.67-4.33,30.31,7.86,50.01,8.13-9.11-20.51-4.35-25.85,17.4-34.33-2.8,9.35-12.15,13.03-8.92,27.56,26.72,6.65,11.94-22.63,33.82-20.09,9.44,10.43,9.32,17.6-.52,27.7,5.57.1,11.14.2,16.68.31.4,4.27,1.11,8.27,8.23,7.09,1.1-8.46,2.77-16.39,16.91-13.61,4.29-21.68-22.11-18.68-24.39-35.11,24.56-22.77,21.56,1.07,58.3.95,3.68,44.13,40.95,34.27,74.41,42.63,7.34-10.09,12.69-21.83,33.51-20.41-3.38,11.88,12.18,17.92-.22,20.79-13.87-18.05-36.75,14.87-41.97,27.35,33.04,7.48,32.04,42.74,49.37,63.01,21.4-17.8-18.69-56.57,17.41-69.26,36.4-3.05,17.51,21.58,49.92,7.43-.03,6.92-6.82,8.16-8.46,13.8,14.53-.44,25.94,1.74,33.33,7.16,5.04-12.28-24.22-29,.27-34.69,16.53.24,10.43,19.01,33.18,14.16-12.46-27.45,38.28-36.78,41.85-27.56-3.5,8.74-10.85,14.12-25.08,13.75.04,20.67-1.05,42.34,24.76,41.79,3.32-11.9-12.28-17.87.12-20.79,20.83-1.04,25.97,10.76,33.18,20.97-9.8,1.08-23.66-1.31-25.03,6.84,16.1,7.46,21.65,23.59,33.16,34.89,14.77-10.21-15.49-36,25.19-34.6-1.25,8.19-14.92,15.67-.09,20.85.15-11.49,23.11-3.83,25.02-13.82-25.15-2.19-15.4-29.27.14-34.69,17.95,10.55,30.33,25.65,41.54,41.78,22.71.69,16.78-11.53,33.28.1,13.01-24.65-28.25-4.26-24.92-20.92,3.45-8.69,10.78-14.15,25.01-13.77.79,10.91-1.13,24.06,16.62,20.86,18.75-2.7-1.16-43.3,25.04-20.76,6.06-18.97-16.53-14.04-16.61-27.83,15.87-2.91,15.07-19.8,41.6-13.82-6.87,19.65,11.73,18.04,8.28,34.76,27.81-2.28,46.74-11.93,58.26-27.74,10.68,27.8,17.23-1.91,41.63.01-5.35,27.57,10.56,37.46,24.94,48.58,3.44,16.72-15.19,15.09-8.3,34.75,42.31,1.26,1.82-23.42,33.28-27.78,7.53,23.36,18.62.81,33.3,13.84-6.08-18.92,16.54-13.97,16.59-27.81-8.49-6.77-16.81-13.65-24.94-20.74,30.06,3.9,44.74-.53,74.86,13.77,24.01-3.15,19.63-29.89,41.52-34.83-2.6,16.11,1.41,26.66,8.42,34.73,15.9-2.97,35.78-2.63,33.18-20.93-.79-10.93-21.21-5.37-16.68-20.8,25.74-3.57,45.79-5.06,66.54-.18.89-8.48,2.38-16.44,16.57-13.89,6.93,19.58-11.66,18.03-8.21,34.71,24.14,5.23,21.66,32.81,58.33,27.54,1.81-5.37.15-13.67,8.24-13.87,7.58,18.78,18.55-15.94,33.21-14.03-2.39,12.44,32.28.32,24.91-14-34.79-4.26-32.85,26.12-49.9.2.49,11.92-6.32,17.82-16.53,20.94.5-11.95-42.71,7.64-41.68-20.73,5.15,2.05,32.08,17.18,33.29-.12-26.85-16.06,41.87-10.88,49.78-20.98,17.6,12.16,24.62,15.55,49.9,6.68-.57,12.09,1.97,21.63,8.43,27.76-11.43.36-18.25-3.2-24.96-6.84-6.63,46.81,56.31,23.42,58.22-.26,10.62.35,11.54,8.87,24.96,6.83,1.33-10.4-3.08-25.63,8.15-27.83,1.46,8.16,13.21,7.5,25,6.82,1.34,8.19-1.32,19.73,8.43,20.8-.05-3.84,6.66-7.91,8.32-.04.02,4.66.05,9.29.07,13.9-17.36-7.7-17.7-7.42-8.28,6.99-11.42-.28-18.25,3.31-24.93,7.02-.85-7.71,12.07-10.85-.07-13.84-1.34,8.09-13.09,7.58-24.9,7.07-1.09,19.5,20.47,19.9,41.69,20.61-2.07-27.07,51.34-8.26,58.04-28.08-7.79-7.36-30.66-2.01-25.05-20.71,38.07-1.14,61.34-38.99,91.39-7.47.36-23.45-15.16-29.51,8.07-41.68,26.36,7.92,58.55,10.96,66.7,34.27-10.97,17.13-25.16-12.32-33.2,7.16,9.85,3.33,18.88,7.28,25.03,13.74-59.21,10.43-24.84-26.56-41.83-41.37-8.98,15.59-13.55,34.83-24.65,48.76,55.01-2.91,35.19,53.2,75.05,34.22-34.53-.76-1.7-4.59-.09-13.92-6.45-1.48-16.39-.06-16.67-6.79,33.4-3.83,9.23-17.01,24.77-27.95,8.9,6.44,2.76,25.57,25.07,20.68,16.14-9.77,25.37-25.14,49.68-28.14-9.92-33.49,33.61-22.95,41.26-41.93.2,11.47,23.07,3.73,25.04,13.72-20.38,10.83-56.42,8.77-57.93,35.1,25.72-2.78,32.11-23.84,49.87-.36-7.38,4.12-47.31,14.92-24.79,21.03,1.36-8.15,13.09-7.66,24.89-7.1-6.41-19.07,19.73-23.96,24.68-34.95,4.44-9.81-19.38-27.65,8.1-27.8,2.39,14.27,31,6.26,33.39,20.59-48.88-2.11-6.45,17.28-8.03,34.75-15.71,1.64-18.41-7.71-33.3-6.7-1.75,14.7-20.85,45.69,25.24,41.45-23.9-44.39,31.66-12.9,41.41-21.11-8.25-8.81,15.5-22.78-.38-48.58,8.34-.06,9.85-5.73,16.57-7.08,29.89-4.42,24.65,20.99,50.03,20.39,10.76-21.61-24.95-38.27-.4-48.58-9.55,28.95,65.55-14.61,66.64,20.32-10.62,9.61-36.04,7.11-58.11,7.41,5.81,32.32-29.71,30.75-41.15,48.95-1.37-8.21,1.26-19.73-8.48-20.81,1.96,13.09-9.25,15.38-8.08,27.86,10.06,17.09,28.66,26.89,50.15,34.28-4.21-31.43-.45-51.4,32.96-34.96,4.47-10.15-10-35.76,8.01-34.81,23.12,18.79,7.73-10.23,24.82-14.05,34.8,6.17,32.94,4.35,49.73-14.3,20.87,8.66,25.99-3.82,33.3,6.63-16.34,33.6,98.1,14.71,50.29,48.16,20.79,17.63,29.57-4.99,41.43-14.31-4.67,17.5,33.62,53.81,58.58,41.08-15.33-7.93-28.33-17.84-41.82-27.32,3.93-26.64,70.02-2.38,57.78-42.21,8.3-.08,16.62-.16,24.92-.24,1.32-10.41-3.21-25.62,8.05-27.87,8.03,20.26,12.68,25.64,16.96,34.52,16.99-6.72,22.81-22.6,32.89-35.01.23,11.46,23.08,3.7,25.05,13.67-7.3,12.33-33.64,9.12-24.57,34.9,53.95,6.47,10.24-31.17,41.19-35.07,25.07,13.62,22.65,50.65,58.74,54.94,6.91-19.9,28.52-63.48,57.74-42.27-9.01,1.73-19.83,11.62-8.17,13.93,10.25-21.46,25.07,7.48,8.46,13.81,11.08-.12,22.15-.23,33.24-.35-.76-12.08,1.63-21.6,8.01-27.83-9.79-1.03-23.57,1.47-24.99-6.68,14.06-17.89-9.77-24.19,7.93-34.83,17.31,3.71,17.73,10.66,8.54,20.76,22.12,3.66,42.02-29.04,58.07-7.57-2.17,24.2-22.47-.29-24.76,14.19,3.35,6.26,11.79,47.75,8.6,27.62,2.84-34.32,36.34-.79,49.87-.54,19.18,1.94,9.01-20.15,24.69-21.06,16.16,13.27,33.35-7.69,58.08-7.57,16.5-.16,10.8,18.81,33.39,13.49-3.39-30.41-44.16-69.16-9.34-90.18,10.69,9.54,40.73,2.59,41.78,20.37-13.01,3.14-6.85,21.89-33.07,14.22-8.57,33.09,21.59,33,33.79,48.26.26-9.61-4.1-15.21-8.56-20.75,51.09-5.79,79.2-3.23,124.37-22.3-6.83,22.23,7.55,26.29,17.03,34.57-15.35,1.2-4.82,23.53-16.29,27.91,27.89-10.56,23.86-21.07,49.6-21.38-11.42-31.16-15.19-27.73-33.9-55.13,4.53-10.05,12.76-17.07,24.68-21.14,12.01,3.78,20.39,10.6,25.16,20.54-19.38-1.91-35.96-14.42-41.44,7.39,31.1-5.57,18.42,26.33,41.86,27.29,5.98-32.45,54.56-44.85,66.2-21.66-31.3-.8-3.54,31.12,16.8,13.69-5.16,25.49,18.32,26.44,17.22,48.37-12.94-.4-5.51,20.29.09,6.95-3.97-26.11,37.68-15.1,49.5-28.36-24.45-5.6,10.58-17.65-.44-34.74-20.79,1.19-25.85,13.6-33.32-6.53,12.24-3.77,20.8-10.49,33.05-14.26-23.08,10.57,20.69,29.57,25.09,13.53-9.33-1.35-13.02-7.52-16.79-13.63,20.78-1.17,25.84-13.6,33.31,6.47-12.25,6.09-17.64,17.74-16.17,34.95,41.27,5.69,33.9-23.26,24.4-41.95,23.56,5.44,21.39-10.1,41.43-7.48,18.54,18.12,35.82,10.61,66.56,6.08,2.73,9.35,11.99,13.07,8.66,27.63-15.45,1.16-27.71,4.94-33.05,14.33,11.26,16.86,30.82-8.03,33.32,6.54-28.91,2.41.94,18.72-16.34,20.98-8.31.16-9.95-5.46-16.71-6.68-8.08,20.95,18.67,12.02,33.41,13.41,14.1-18.15-12.49-21.64,24.75-14.17-3.55-34.7-21.73-53.16,24.09-62.81,1.41,8.15-1.16,19.71,8.59,20.68,30.07-14.52,6.23,58.73,33.97,55.08-6.22-31.16,16.84-18.73,24.82-7.28-3.62-16.67,14.99-15.29,7.85-34.79-9.8-.94-23.56,1.5-25.02-6.62,3.93-8.24,8.64-15.82,16.33-21.07-.95,21.94,46.38,2.31,33.7,34.29,32.79,2.27,25.47,4.57,58.35,13.1,4.59-21.45,1.45-49.18,32.56-49.1,7.14,19.59-11.46,18.18-7.82,34.86,32.66,10.51,16.94-18.26,32.94-21.3,25.41,18.52,56.12-9.66,74.85,5.9.05,9.15-14.46,6.53-16.42,14.13,28.59,10.92,24.95-1.2,41.35-14.48,24.06,39.35,69.22-20.06,91.59,12.58-11.5.79-8.48,17.84,8.5,13.78,8.51-26.06-20.91-19.53-17.22-41.45,14.61-1.85,18.79-12.2,16.21-27.95,19.83-4.5,37.76-10.58,66.34-7.95.96-12.95,5.13-23.3,16.2-28.04,2.14,9.91,13.88,11.54,16.92,20.6-9.75,1.22-23.59-.81-24.8,7.32,17.84,10.76,53.22,21.36,66.44-.99-27.49-3.71-33.81-29.55-8.93-41.5,3.53,8.65,10.93,14.04,25.12,13.46,19.29-20.63-16.34-25.52-.53-34.68,32.17,2.5,29.66,7.2,49.71-7.71-9.13,10.14-8.69,17.09,8.63,20.74-6.19-17.28,36.08-29.09,7.65-41.79-4.4,14.42-32.26-8.88-25.32-27.4-14.33-2.52-21.12,10.6-24.91.38,4.61-16.57,12.22-32.48-17.13-34.43,21.41,35.38-26.24,17.46-33.2.5-13.16,5.28,2.4,33.92-24.49,28.11,14.74-12.59-10.01-27.02-17.22-41.36-20.24,11.07-56.85,18.1-91.3,1.34-34.84,6.7-108.34,16.62-133.13-18.94-23.36,8.44-29.87,30.62-57.61,35.53-.95-7.78,11.91-11.01-.19-13.87-7.29,18.89-29.2-6.68-41.61-6.4-13.53,9.06-44.8,18.58-58.02,7.77,6,18.54-16.98,13.59-24.61,21.1-2.04-13.05,9.15-15.44,7.92-27.85-24.12,6.49-28.51,9.26-41.59-6.39,6.15,27.88-41.14,12.3-49.44,28.46,4.61-.09,9.5,5.47.09,6.89-.9-10.89-21.25-5.11-16.88-20.54-36.85-7.17-41.14,12.27-66.23,14.74,3.19,11.77-6.32,13.13-16.44,14.06,1.46-5.9-3.31-6.51-8.39-6.84,1.23-8.15,15.06-6.02,24.82-7.22-20.45-8.97,8.78-25.99-8.67-27.68-5.8,33.47-94.75,3.99-90.88,35.86-16.64-6.71-13.48-30.51-41.85-27.21-8.02,7.22-16.24,14.27-24.65,21.16-9.33-1.32-13.02-7.55-16.78-13.66-27.5,1.39-35.83,14.71-49.9-6.36-21.17,6.42-57.22,2.51-83.1-5.94-5.58,13.8-21.92,18.82-41.27,21.34-51.58-24.33-106.42-39.65-182.95-25.65-7.11,10.22-12.18,22.15-32.97,21.22-1.53-10.41,2.67-25.7-8.62-27.73,1.67,24.33-28.96,22.19-41.11,35.2.04-21.07-29.32-16.97-50.05-20.3-1.8,5.39-.07,13.67-8.14,14.01-12.68-10.23-36.55-10.82-58.26-13.3-.85,8.48-2.31,16.47-16.46,14.1,6.62-30.88-77.67-7.24-50.16-34.25-45.07,2.1-58.87,29.81-99.25,35.78-9.31.74-13.02-10.01-16.6.16,10.47,2.72,17.06,8.73,16.81,20.6-28.93,12.8-62.17,2.02-41.79-27.33-30.99-7.04-26.64,14.92-41.29,21.25-25.6-4.95-15.78,19.19-41.38,14.24,14.21-35.39-5.51-.06-8.55-27.63-34.43-1.57-32.27,9.37-58.11.54,1.82,19.84,1.38,37.81-24.59,34.89-17.08-1.77-16.73-18.38-25.14-27.51-26.14-3.1-32.37,10.17-49.68,14.28-9.69-5.74-22.34-8.96-41.57-6.54,7.09-16.16-42.37-15.63-16.66-6.81,10.88.05,10.74,19.17.17,20.79-25.16.44-8.33-34.85-33.49-34.41-5.5,20.78-9.72,42.57-32.8,48.85.4-8.87,10.56-9.69,8.12-20.91-12.42-1.06-30.61,2.73-33.25-6.63,28.22-7.68-23.1-2.02-8.46-20.78-19.82,4.4-60.27-8.23-66.33,7.49,13.37,2.07-.57,9.87-16.55,7.05-.3,9.55,4.01,15.22,8.45,20.73-26.91-8.39-6.18,22.53-33.1,14.14,17.04-21.31,10.82-21.83,24.55-48.77-34.67-.98-35.13,26.25-57.84,35.11-.03-4.63-.07-9.21-.1-13.84-40.76-1.24-31.64-4.29-66.49-13.41-7.16,22.34,27.42,9.31,25.08,27.54-26.16-7.73-20.09,11.04-33.11,14.12-9.31-1.41-12.97-7.6-16.69-13.78,15.75-8.21,19.12-17.53-.18-27.71-14.49,31.14-35.18-11.89-49.74,7.24,6.48,1.48,9.71,5.76,8.39,13.79-38.06-10.66-15.17,28.97-41.33,28.05-1.01-13.1-27.47-4.61-25.03-20.7,29.91,6.54,16-31.28-.16-27.71-1.54,19.53-34.84,5.85-32.95,41.8,9.83,3.33,18.89,7.32,24.99,13.75-11.2,2.3-15.8,10.01-33.16,7.17-1.25,8.11,1.53,19.68-8.19,20.81-14.3-23.71,11.08-44.89-16.94-62.39,14.27-2.79,21.33,10.22,24.9-.14-17.27-3.74-17.63-10.66-8.42-20.71-22.62-.49-16.63,11.65-33.19.18-10.33,31.95,15.27,33.56,25.17,48.42-51.03-28.93-25.96,35.39-66.23,35.04-1.72-19.82-1.2-37.84,24.75-34.81-11.72-19.88,22.44-35.34-.22-41.64-21.45,17.29-24.75,6.68-49.69,21.04-11.3,15.87,21.5,25.99.14,27.79-8.15-16.34-23.73-26.44-33.39-41.48-25.2,12.32,22.77,21.36.13,27.74-28.55-18-57.32-13.3-83.08-20.49,2.39,15.86-1.89,26.11-16.47,27.86-10.51-21.09-6.45-26.98,8.11-41.67-33.77-4.98-27.93,22.93-41.32,34.84-1.78-7.79-9.25-10.76-16.66-13.84,5.9,25.68-13,30.72-41.37,27.93,2.34,15.81-1.95,26.11-16.53,27.79,1.82-13.11-9.4-15.28-8.38-27.72,11.05-6.98,25.02-11.54,33.16-20.94-29.4-.65,17.55-22.99-8.37-20.77-7.46,12.23-18.5,21.52-33.14,27.83.45-8.87,10.64-9.63,8.25-20.87-32.06,3.08-29.48,7.73-49.75-6.77-1.39,10.34,3.01,25.59-8.26,27.76-8.92-26.59-18.85-9.17-33.23-27.67-11.5,4.26-1.2,26.73-16.52,27.77-30.84,7.34-16.3-23.36-33.25-27.69-12.35,16.17,2.84,29.91-8.26,34.7-21.75-17.38-28.55-7.03-58.06-20.8-10.92,14.01-27.19,23.51-49.72,27.8-2.51-13.67,11.19-13.78,16.55-20.85-24.94-6.32-84.87-8.56-82.92,27.78,26.07,3.5,33.89-16.36,41.44,6.95-22.59-5.1-16.68,13.8-33.16,13.82-20.91-12.56-17.37-45.61-41.43-55.58-2.12,16.27-36.4,3.98-41.41-.08-11.51,4.27-1.34,26.72-16.66,27.76-26.05,3.21-21.84-18.76-41.36-20.96-1.05,17.71-12.16,26.91-33.28,27.71,12.54-35.85-48.36-10.56-49.54-34.98-20.59,9.45-52.5,34.22-74.66,20.43-4.08,17.83-43.1,41.97-58.15,27.38-2.33-18.32,32.15-5.24,25.03-27.61-41.29,2.13-73.23,12.18-99.59,26.94,2.66-16.16,17.93-29.76-7.93-34.83-15.74,12.23-33.64,22.56-66.39,20.11-14.43,17.53,9.19,24.41-8.73,34.55-27.67-11.05,19.27-40.42-15.98-41.85-1.91,5.34-.41,13.67-8.45,13.78-9.44-29.01-28.35,4.93-49.71,6.19-7.95-7.22-16.1-14.34-24.4-21.27-20.47,7.82,16.43,26.51-8.86,34.53-23.08,2.73,7.15-37.69-15.87-34.99-6.06,21.58-25.34,11.13-32.95-.67-4.84,9.93-13.21,16.66-25.16,20.28-3-12.05,12.6-17.56.49-20.84-13.15,6.7-29.65,7.65-49.67,12.63,4.19-8.35-4.87-14.35-14.48-17.13-9.61-2.78-19.76-2.35-17.88,2.26,19.29,21.22,15.92,50.61-18.25,54.96,21.86-26.84-21.21.4-33.09,5.76,2.97-13.59-10.52-14.24-15.53-21.53,8.18-20.35,13.7-24.81,25.57-26.73-15.2-2.29,5.03-11.28-7.57-14.2-2.04,8.29-9.23,3.87-16.21-.67-14.91,12.47-7.93,45.51-11.19,69.01-9.05,5.42-13.71,17.11-12.9,25.13ZM4067.77,78.7c10.95,2.26,13.24,11.97,25.12,13.49-3.11,17.34-32.19.89-25.12-13.49ZM3992.94,72.86c4.38,3.49-5.86,8.96-8.19,7.1-4.35-3.58,5.86-8.99,8.19-7.1ZM3993.66,121.44c1.25,12.41-9.94,14.78-7.88,27.91-11.22-4.41-15.7-14.63-17.02-27.54,8.29-.12,16.61-.25,24.9-.37ZM3951.95,108.15c4.34,3.58-5.88,8.96-8.21,7.07-4.35-3.49,5.88-8.96,8.21-7.07ZM3944.35,156.86c.07,4.63.14,9.26.21,13.92-5.53.08-11.07.16-16.61.24-.07-4.66-.14-9.29-.2-13.92,5.54-.08,11.08-.16,16.61-.24ZM3894.32,143.75c-1.92,8.73-16.4,7.27-16.61.24,7.34-4.4,14.73-8.63,16.61-.24ZM3845.6,220.78c1.22-8.13,15.06-6.04,24.83-7.31-1.23,8.21-15.07,6.09-24.83,7.31ZM3811.97,193.55c-1.62-15.06,29.41-3.61,41.44-7.57-20.55,19.22-22.83,13.49-15.91,48.82-19.82-20.39-14.06-19.06-41.64-6.35-.85-10.95,3.63-26.49-8.71-27.62-9.23-13.26,51.65,10.03,24.83-7.28ZM3762.43,215.02c4.34,3.55-5.89,8.96-8.22,7.07-4.34-3.5,5.89-8.96,8.22-7.07ZM3637.64,202.91c4.34,3.53-5.88,8.95-8.2,7.06-4.36-3.56,5.88-8.95,8.2-7.06ZM3544.02,37.57c4.37,3.5-5.88,8.89-8.2,7-4.34-3.5,5.88-8.89,8.2-7ZM3529.37,183.53c51.78-1.48,61.44,12.9,100.16,33.33-12.27,15.08-20.36-4.64-41.45,7.52,9.69-36.8-42.35-15.58-58.34-13.06,13.66-14.02-.86-8.86-.37-27.79ZM3446.41,191.58c6.72,3.58,13.58,7.05,25.02,6.65-2.32,19.13-28.66,14.98-25.02-6.65ZM3396.57,192.23c-.15,6.73-10.1,5.5-16.52,7.19.13-6.81,10.09-5.58,16.52-7.19ZM3338.51,199.96c-4.34-3.59,5.9-8.97,8.23-7.08,4.34,3.56-5.9,8.95-8.23,7.08ZM3346.47,172.03c-1.23,8.15-15.07,6.07-24.83,7.29,1.25-8.18,15.07-6.04,24.83-7.29ZM3278.36,41.03c-1.95,8.73-16.43,7.16-16.6.21,3.55-10.16,7.29.59,16.6-.21ZM3263.42,173.09c6.74,1.27,8.37,6.9,16.7,6.77-4.24,16.44-39.25,4.71-16.7-6.77ZM3214.36,236.19c4.34,3.56-5.91,8.94-8.23,7.05-4.34-3.5,5.91-8.94,8.23-7.05ZM3188.74,181c9.05,1.61,5.8,13.69,16.78,13.66-1.75,10.02-24.76,2.74-24.75,14.21-32.38-7.74-2.47-18.1,7.97-27.87ZM3172.05,174.23c-.15,6.78-10.1,5.55-16.52,7.18.14-6.75,10.09-5.49,16.52-7.18ZM3064.07,175.54l.17,13.9c-5.53.07-11.07.13-16.61.2l-.17-13.9c5.54-.07,11.08-.13,16.61-.2ZM2948.36,225.49c8.6,20.81-18.37,12.53-33.07,14.28,1.85-12.23,14.12-15.98,33.07-14.28ZM2937.64,17.36c-1.94,8.78-16.42,7.22-16.6.19,7.35-4.32,14.75-8.59,16.6-.19ZM2904.52,24.69c-1.48,7.87-8.29,3.94-8.29.09,1.48-7.93,8.28-3.94,8.29-.09ZM2879.54,18.03c4.33,3.57-5.91,8.94-8.23,7.04-4.33-3.57,5.91-8.94,8.23-7.04ZM2873.83,247.19c-.14,6.78-10.12,5.48-16.54,7.14.16-6.73,10.12-5.48,16.54-7.14ZM2807.06,220.19c-4.34-3.57,5.92-8.93,8.24-7.04,4.33,3.54-5.92,8.93-8.24,7.04ZM2821.82,53.36l.15,13.9c-17.69,3.47-15.92-9.71-16.84-20.61,6.75,1.23,8.35,6.86,16.68,6.71ZM2790.68,241.17c9.04,1.65,5.78,13.81,16.77,13.71-1.48,7.87-8.29,3.93-8.3.09-16.51.3-10.35,19.04-33.09,14.29-7.51-22.26,21.41-14.67,24.63-28.1ZM2616.36,256.93c6.76,1.23,8.35,6.86,16.69,6.77.05,4.66.1,9.26.15,13.9-17.7,3.4-15.92-9.78-16.83-20.67ZM2649.59,256.59c-4.33-3.57,5.92-8.93,8.24-7.04,4.33,3.57-5.92,8.93-8.24,7.04ZM2674.15,221.64c-5.33,7.12-19.02,7.38-16.39,20.97-16.46-4.63-22.35-18.3-25.29-34.4,26.44-6.24,25.8,10.63,41.69,13.43ZM2616.22,243.04c24.79-7.6-45.59,13.24-16.26,34.92-31.2,5.57-6.11-36.83-41.83-27.37,6.05-25.37,26.53.41,58.09-7.55ZM2565.03,111.7c-.15,6.72-10.11,5.47-16.54,7.06.15-6.7,10.12-5.47,16.54-7.06ZM2557.7,208.98c-1.23,21.91-5.39,41.44-32.81,41.94,27.95-12.43-10.7-39.44,32.81-41.94ZM2433.25,224.08c19.32,2.21,38.97,4.08,33.5,27.41-12.42-8.07-37.17-5.63-33.5-27.41ZM2423.66,92.26c4.33,3.52-5.91,8.93-8.23,7.06-4.34-3.6,5.91-8.95,8.23-7.06ZM2408.66,259.01c-1.5,7.87-8.3,3.92-8.3.08,1.5-7.93,8.3-3.92,8.3-.08ZM2408.92,286.8c-.16,6.72-10.13,5.46-16.55,7.05.17-6.7,10.12-5.46,16.55-7.05ZM2392.11,266.11c-.16,6.72-10.13,5.46-16.55,7.13.17-6.81,10.12-5.55,16.55-7.13ZM2350.94,308.14c.17-6.72,10.13-5.46,16.57-7.1-.17,6.78-10.13,5.52-16.57,7.1ZM2366.93,238.56c-10.25-2.9-17.15-8.71-16.82-20.63,17.7-3.44,15.95,9.74,16.82,20.63ZM2250.86,267.41l-.12-13.9c5.55-.05,11.09-.1,16.62-.15l.12,13.9c-5.53.05-11.07.1-16.62.15ZM2308.52,211.38c12.68-32.97,41.06-9.67,0,0h0ZM2308.83,246.04c19.55,10.36,44.15,41.29,25.49,62.25-18.8,4.24-30.63-47.71-33.37-13.59-17.99,1.35-3.98-24.54-8.61-34.61-26.62,6.34-17.39-17.87-33.42-20.55,14.46-27.3,35.47,33.86,49.91,6.5ZM2265.92,93.72c4.32,3.52-5.92,8.92-8.23,7.05-4.32-3.61,5.92-8.95,8.23-7.05ZM2257.44,72.95c2.73,21.67-24.14-17.41-24.85,7.17-29.25-11.44,19.17-20.62,24.85-7.17ZM2207.94,108.13c19.12-2.32,9.4,20,25.08,20.57-7.27,18.82-33.73-2.93-25.08-20.57ZM2192.58,254.02c-.65,1.08-2.62,19.68-8.2,13.97-6.74-6.92,19.86-33.84,8.2-13.97ZM2182.84,87.5c-24.95,25.89-28.15-20.83,0,0h0ZM2149.58,80.83c-1.5,7.95-8.28,3.91-8.31.07,1.52-7.87,8.31-3.91,8.31-.07ZM2132.86,67.08c-.18,6.78-10.12,5.53-16.54,7.09.16-6.72,10.1-5.45,16.54-7.09ZM2074.92,88.4c-11.07.09-22.13.18-33.21.26,5.05-6.2,9.93-12.51-.11-13.9,2.5-14.71,39.34-1.78,33.31,13.63ZM2024.73,40.23c7.05-1.38,7.86,2.65,8.36,6.86.04,4.63.07,9.26.11,13.84-8.31.06-16.6.13-24.91.19,2.87-9.12,14.54-11.01,16.44-20.89ZM2025.17,95.74c-15.61-13.49-30.42-1.88-49.81.38,10.82-12.23,49.56-36.93,49.81-.38ZM1984.35,186.27c4.32,3.58-5.95,8.95-8.26,7.04-4.32-3.55,5.95-8.94,8.26-7.04ZM1933.59,61.68c4.35,3.58-5.93,8.91-8.24,7.01-4.31-3.53,5.93-8.91,8.24-7.01ZM1942.97,207.43c-1.28,8.15-15.1,5.99-24.88,7.16,1.29-8.17,15.12-6.01,24.88-7.16ZM1859.05,83.06c12.17,5.96,32.19,5.31,25.09,27.62-12.18-5.96-26.38-10.21-25.09-27.62ZM1885.01,235.58c3.64,14.5-5.55,18.46-8.1,27.85-1.5,5.94,3.29,6.53,8.35,6.89-13.59,7.95-27.77,1.27-58.16.4,13.98-16.08,20.64-38.21,57.91-35.14ZM1809.25,83.39c-9.03-1.64-5.73-13.75-16.69-13.79,3.44-19.23,26.1-.48,16.69,13.79ZM1784.39,90.5c-4.36,5.62-8.59,11.3-8.16,20.9-10.93-2.42-13.13-12.18-25-13.74,2.51-9.42,20.75-5.89,33.16-7.16ZM1751.96,215.7c4,14.75-11.78,13.27-24.84,14.02,3.58-8.61,10.56-14.36,24.84-14.02ZM1627.73,285.82c-25.16,19.06,22.58-21.25,0,0h0ZM1660.59,216.23c4.33,3.51-5.95,8.88-8.26,6.97-4.31-3.56,5.95-8.9,8.26-6.97ZM1626.77,105.35c-27.78,16.9,19.94-23.41,0,0h0ZM1643.93,209.35c-1.79,21.54-29.34,21.8-49.7,28,17.54-8.51,24-26.22,49.7-28ZM1594.42,272.1c.02,4.66.05,9.26.07,13.9l-16.64.08c-.02-4.63-.05-9.24-.07-13.9l16.63-.08ZM1527.91,265.47c-4.31-3.6,5.98-8.9,8.28-6.99,4.33,3.6-5.98,8.9-8.28,6.99ZM1536.32,286.28c7.09,1.21,7.83-2.75,8.29-6.96,9.74,1.06,7.06,12.59,8.42,20.72-14.16,2.67-15.72-5.29-16.71-13.76ZM1527.68,216.91c5.43-9.34,17.72-13.05,33.16-14.08.05,9.26.09,18.56.14,27.79-12.29-3.56-20.97-10.18-33.29-13.71ZM1568.81,133.36c-21.91,2.25-21.48-14.36-25.03-27.59,27.67-7.17,27.27,9.44,25.03,27.59ZM1510.49,92c1.55-1.31,13.94,20.27,24.99,13.81-2.02,7.5-16.49,4.74-16.55,13.95-6.01,2.23-13.87-23.16-8.44-27.76ZM1485.6,92.11c-1.38.8-12.69-6.67-16.59-6.88.46.06-.53,6.67.03,6.95-35.25-20.87,36.74-11.4,16.56-.07ZM1435.99,140.9c4.34,3.6-5.95,8.89-8.25,6.98-4.3-3.6,5.95-8.89,8.25-6.98ZM1427.66,127.03c4.31,3.6-5.98,8.89-8.28,6.98-4.3-3.52,5.98-8.89,8.28-6.98ZM1386.03,92.5c11.07-.04,22.15-.08,33.19-.12-4.37,5.61-8.64,11.27-8.2,20.88-5.54.02-11.06.04-16.61.06-4.41-5.58-8.68-11.27-8.38-20.82ZM1377.77,106.45c4.33,3.55-5.98,8.86-8.28,6.95-4.27-3.6,6-8.86,8.28-6.95ZM1361.66,252.23c-1.55,7.91-8.34,3.87-8.32.03-19.29,3.11-22.16,30.74-41.52,14.02-2.36-22.25,36.31-25.36,49.83-14.05ZM1220.17,127.63c1.57-7.86,8.35-3.86,8.27-.02-1.54,7.91-8.3,3.91-8.27.02ZM1278.29,141.4c.01,4.63.02,9.27.03,13.9-5.51.01-11.04.03-16.57.04-.01-4.63-.02-9.26-.03-13.9,5.52-.01,11.06-.03,16.57-.04ZM1270.22,231.69c4.27,3.55-6,8.83-8.29,6.91-4.34-3.55,5.98-8.83,8.29-6.91ZM1262.03,280.33c2.53,18.27-17.36,17.95-33.26,20.83,7.22-10.13,12.41-22,33.26-20.83ZM1228.38,92.92c4.33,3.61-5.96,8.88-8.26,6.96-4.29-3.61,5.96-8.88,8.26-6.96ZM1203.53,92.97c4.26,3.61-5.99,8.88-8.29,6.96-4.33-3.61,5.99-8.88,8.29-6.96ZM1203.82,266.52c21.86-11.05,28.94-5.14,8.3,6.93-19.71,5.74-38.3-9.71-8.3-6.93ZM1187.16,252.64c4.3,3.61-6.01,8.88-8.31,6.96-4.3-3.55,6.01-8.88,8.31-6.96ZM1178.89,287.4l16.64-.02c-1.55,5.88,3.26,6.55,8.33,6.93,3.31,13.44-37.87,10.17-24.98-6.91ZM1079.14,343.01c-4.3-3.59,5.99-8.87,8.31-6.92,4.33,3.53-6.01,8.84-8.31,6.92ZM1137.41,349.93c-4.43,5.54-8.69,11.25-8.31,20.82-14.97.92-17.58-8.49-33.33-6.96,4.4-5.56,8.7-11.24,8.32-20.79,17.4-2.95,22.04,4.73,33.31,6.92ZM1145.51,155.53c-1.58,7.88-8.34,3.85-8.28,0,1.55-7.88,8.3-3.85,8.28,0ZM1112.41,322.15c-1.06-12.43,10.18-14.61,8.3-27.74,17.28,6.93,22.83,30.66-8.3,27.74ZM1129,245.76c-1.58,7.91-8.33,3.93-8.32,0,1.55-7.85,8.32-3.85,8.32,0ZM1120.7,273.56c-22.35,9.11-18.83,39.79-49.88,41.65-2.4-28.78,21.1-60.62,49.88-41.65ZM1087.4,162.54c-26.53,24.38-44.4-14.31,0,0h0ZM1062.52,266.64c-7.27,12.26-27.85,21.46,0,27.79-5.48,20.79-17.8-6.67-33.3,0,.76-25.99,9.35-19.83.02-41.69,16.5.12,10.6,18.99,33.28,13.91ZM1037.59,190.25c4.29,3.62-6.02,8.9-8.32,6.97-4.25-3.59,6.02-8.89,8.32-6.97ZM971.24,127.72l-.02,13.9c-7.05-1.25-7.83,2.7-8.31,6.94-17.21-3.92-17.54-10.87-8.27-20.86l16.6.02ZM962.97,106.94c-.21,6.69-10.13,5.35-16.58,6.9.25-6.78,10.17-5.38,16.58-6.9ZM979.51,162.5c0-4.66.01-9.29.02-13.92,20.51,17.65-28.41,36.07-49.85,41.56,12.8-12.41,13.77-34.71,49.83-27.63ZM887.78,321.95c-4.25-3.63,6.05-8.86,8.35-6.93,4.32,3.63-6.05,8.86-8.35,6.93ZM904.39,342.84c-4.43,10.67-8.67.38-8.31-6.94,4.43-10.69,8.67-.46,8.31,6.94ZM904.52,287.31c7.07-1.29,7.85,2.73,8.31,6.97,0,4.58-.02,9.21-.03,13.84-16.49-11.56-10.59.6-33.29-.08-2.48-15.96,24.07-7.62,25.01-20.73ZM830.26,120.49c8.62-5.73,14.96,6.15,16.59,6.95,31.86,15.58-22.35-3.12-16.59-6.95ZM846.35,280.22c-4.32-3.66,6.04-8.88,8.33-6.95,4.25,3.57-6.05,8.85-8.33,6.95ZM871.19,308.01c-5.2,28.46-22.9,13.83-49.99,13.73,1.24-33.1,18.93-9.13,49.99-13.73ZM772.17,134.09c8.3.04,16.6.07,24.87.11l-.09,20.85c-11.04-.05-22.11-.1-33.18-.15,4.42-5.54,8.69-11.26,8.4-20.81ZM796.69,217.55c-21.12-.96-32.16-10.29-33.09-27.97,9.68,10.47,34.49,8.35,33.09,27.97ZM796.48,266.11c-.02,4.63-.04,9.29-.06,13.92-11.07-.05-22.17-.1-33.27-.15-8.29-20.97,18.6-12.25,33.33-13.77ZM746.47,286.72c-17.76,3.12-15.79-10.03-16.5-20.94,6.74,1.34,8.25,6.99,16.58,7.04-.02,4.66-.05,9.26-.07,13.9ZM738.71,189.45l-.08,13.9c-17.76,3.12-15.79-9.95-16.47-20.94,6.68,1.42,8.2,7.05,16.54,7.04ZM696.93,230.89c19.74-22.25,33.46,24.61,0,0h0ZM688.79,203.05c-1.61,7.9-8.34,3.79-8.31-.06,1.64-7.81,8.37-3.79,8.31.06ZM672.28,189.04c-1.63,7.9-8.35,3.84-8.29-.06,1.64-7.84,8.38-3.78,8.29.06ZM621.79,271.98c-4.27-3.65,6.1-8.82,8.38-6.88,4.27,3.65-6.1,8.82-8.38,6.88ZM647.68,154.17c-.29,6.72-10.23,5.29-16.66,6.85.26-6.77,10.2-5.37,16.66-6.85ZM631.3,126.24c-1.65,7.9-8.33,3.83-8.29-.07,1.65-7.84,8.32-3.77,8.29.07ZM639.17,181.84c-1.42,8.15-15.19,5.75-24.99,6.74,1.42-8.12,15.18-5.69,24.99-6.74ZM613.47,271.91c-.96,17.71-31.17,16.11-41.64,6.59-1.27-15.12,29.55-2.91,41.64-6.59ZM572.71,188.2c-.3,6.78-10.25,5.32-16.69,6.81.31-6.75,10.22-5.26,16.69-6.81ZM538.88,243.39c.31-6.72,10.27-5.26,16.71-6.77-.27,6.78-10.24,5.32-16.71,6.77ZM532.15,104.53c13.29,6.93,18.83,18.71,7.95,27.8-9.35-1.4-4.5-7,.08-6.95-6.06-13.17-24.63-5.05-8.02-20.85ZM490.17,152.59c4.24,3.61-6.11,8.82-8.38,6.87-4.23-3.7,6.12-8.82,8.38-6.87ZM473.3,173.21c4.27,3.62-6.12,8.73-8.38,6.78-4.22-3.62,6.11-8.73,8.38-6.78ZM447.64,228.39c-2.19,8.67-16.62,6.71-16.59-.25,7.42-4.18,14.98-8.19,16.59.25ZM391.29,123.31c4.56-10.6,8.65-.25,8.12,7.09-4.56,10.6-8.62.3-8.12-7.09ZM247.21,259.01c-27.59-8.2.08-21.08-15.43-42.1,34.25,4.27,22.95-31.85,34.47-47.63,27.08,13.33,6.15,25.36,15.17,55.94-26.68-2.21-20.88,24.21-34.22,33.8ZM264.05,252.51c1.57-8.09,15.34-5.42,25.19-6.31-1.55,8.1-15.33,5.5-25.19,6.31ZM372.36,254.9c-32.81,7.34-30.98.95-66.77,5.58,9-32.58,43.33.43,50.64-33.63,11.07,4.74,15.21,15.09,16.13,28.05ZM323.14,219.23c4.22,3.68-6.21,8.74-8.47,6.76-4.22-3.71,6.21-8.73,8.47-6.76ZM331.42,219.41c1.52-8.1,15.26-5.56,25.08-6.42-1.51,8.08-15.26,5.49-25.08,6.42ZM308.45,135.55c15.62,13.88,50.41,8.39,41.68-19.9,11.65,8.76,15.2,24.14,15.74,41.98-11.77-8.02-20.04-7.93-24.99,6.43-9.33-1.55-4.43-7.1.14-6.92,3.01-18.37-46.44,5.47-32.57-21.58ZM299.21,176.99c6.55,3.83,13.25,7.6,24.68,7.51-1.57,15.17-21.22,14.47-41.77,12.93,5.58-6.92,19.23-6.71,17.09-20.44ZM283.85,128.02c-.66,1.06-3.25,19.59-8.6,13.68-6.45-7.11,20.83-33.16,8.6-13.68ZM258.94,134.32c-1.55,8.04,1.49,12.42,7.86,14.11-7.26,10.15-26.84,9.33-41.61,12.71,1.54-17.64,12.8-26.56,33.75-26.83ZM189.96,222.5c-4.13-3.76,6.33-8.65,8.56-6.65,4.21,3.73-6.32,8.66-8.56,6.65ZM200.65,153.42c4.17,3.68-6.27,8.63-8.48,6.63-4.09-3.73,6.27-8.65,8.48-6.63ZM200.18,167.29c-7.46,19.36,11.06,18.35,7.11,34.95-8.3-.29-16.6-.58-24.86-.87-1.05-8.12,2.28-12.29,8.75-13.56-5.83-6.68-14.62-11.07-24.21-14.84,2.92-9.26,20.8-4.91,33.2-5.68ZM170.82,75.87c-2.16-2-12.44,2.83-8.38,6.62,2.16,2.01,12.39-2.84,8.38-6.62ZM416.52,95.99c-2.26-1.96-12.55,3.13-8.38,6.84,2.25,1.93,12.59-3.21,8.38-6.84ZM226.48,119.47c-16.41-9.95-26.88-5.97-28.05-1.47-1.17,4.49,7.01,9.52,28.05,1.47ZM3380.68,247.98c1.69-13.13-9.56-15.16-8.67-27.69-5.53.07-11.07.14-16.61.21-24.81,10.71,6.52,31.05,25.29,27.47ZM2667.16,346.62c25-23.65-30.94-20.69,0,0h0ZM2633.48,305.34c-42.56,17.22,28.79,17.67,0,0h0ZM2592.44,354.35c-2.32-1.9-12.58,3.52-8.25,7.06,2.32,1.9,12.58-3.49,8.25-7.06ZM2708.8,353.13c-10.52-22.32,26.83-5.6,16.32-27.89-18.49-4.97-33.95,25.93-16.32,27.89ZM2533.91,320.26c6.49,1.46,9.71,5.72,8.44,13.81-4.6-.01-9.36,5.71.07,6.95.43-4.24,1.17-8.26,8.25-7.03,11.13,8.87,31.02,8.84,33.17-7.26-10.69-3.42-49.87-17.09-49.93-6.47ZM2725.42,352.95c-2.32-1.9-12.58,3.53-8.25,7.07,2.32,1.9,12.58-3.5,8.25-7.07ZM2716.27,276.72c-2.32-1.9-12.56,3.47-8.22,7.04,2.32,1.9,12.59-3.53,8.22-7.04ZM2692.1,346.36c-2.32-1.9-12.58,3.52-8.24,7.04,2.32,1.9,12.58-3.47,8.24-7.04ZM2260.04,364.53c10.98.02,7.7,12.11,16.75,13.72,20.17-8.2-9.58-32.59-16.75-13.72ZM2459.04,314.06c1.28,12.92,5.7,23.16,16.89,27.63-.07-6.95-.14-13.87-.21-20.84,9.78-1.17,23.6.95,24.87-7.19-20.69-.53-25.86-12.71-41.56.41ZM2259.73,329.84c-7.34-10.13-6.85-26.83-33.42-20.58-7.09,22.38,21.67,14.22,25.17,27.58-8.3.07-16.62.15-24.92.22-1.39,15.15,6.99,22.03,25.11,20.57-1.98-13.09,9.23-15.39,8.07-27.78ZM2276.29,322.72c-2.83-8.56-13.92-2.25-8.26,7.05,3.16,5.14,14.74,10.41,8.32-.07-1.07-1.83.56-5.06-.06-6.98ZM2326.34,343.11c-.44,4.24-1.18,8.2-8.26,6.97.04,4.63.09,9.26.13,13.92,14.28-2.87,21.42,10.11,24.94-.23-13.73-.01-4.83-19.25-16.81-20.66ZM2434.26,328.22c-.53,9.72,2.12,26.5,8.43,13.79.53-9.78-2.12-26.53-8.43-13.79ZM2417.5,314.46c-2.32-1.9-12.58,3.45-8.25,7.03,2.32,1.9,12.58-3.45,8.25-7.03ZM3023.95,294.04c-26.64,6.42-11.66-22.71-33.48-20.4-1.78,5.39-6.87,8.13-16.55,7.14-1.92-5.4-.38-13.72-8.46-13.77,6.45,21.25-28.55,8.78-16.21,34.85,19.12,4.58,53.64,3.9,74.7-7.82ZM3032.66,328.68c33.88,24,19.33-22.6,0,0h0ZM3139.84,257.96c-13.06.78-28.82-.56-24.76,14.2,5.54-.07,11.09-.13,16.61-.2-.09-7,6.63-8.39,8.15-14ZM3032.33,300.89c4.39,13.73-45.66,16.42-16.29,27.99-4.39-13.73,45.66-16.42,16.29-27.99ZM3298.4,311.52c7.18-25.34,47.08,13.86,49.77-7.58-17.35-3.84-27.05-14.23-41.82-20.31,1.37,9.25-33.49,21.39-7.95,27.9ZM3123.82,306.74c-5.5,18.74,17.34,13.23,25.17,20.54,5.52-18.77-17.34-13.24-25.17-20.54ZM2974.48,329.36c9.78-1.25,23.61.91,24.86-7.21-9.76,1.16-23.6-.94-24.86,7.21ZM2758.28,317.91c0,9.15-14.5,6.49-16.47,14.08,11.9,2.58,14.1,8.15,24.92-.27-1.92-5.4-.37-13.7-8.45-13.81ZM3148.31,271.75c-14.31,14.3,6.37,13.54-7.96,27.84,22.51-4.57,38.74-14.26,49.51-28.35-28.41,1.82-24.69,23.19-41.55.51ZM3048.53,266.03c-16.63-8.25-35.55-5.31-41.53.49,16.59,4.41,35.76,23.5,41.53-.49ZM2766.88,345.55c11.93-3.8,20.59,26.83,25.02,6.67-5.08-.34-9.85-.91-8.38-6.86,44.65-14.51-1.43-19.98-16.64.18ZM2758.13,304.01c-2.32-1.9-12.57,3.47-8.24,7.04,2.32,1.9,12.58-3.47,8.24-7.04ZM2924.39,309.1c-5.53.06-11.07.13-16.62.19-12.72,17.21,28.48,20.07,25.02,6.66-5.08-.34-9.85-.9-8.4-6.85ZM3339.4,269.36c-5.52.07-11.07.14-16.61.21.06,4.63.12,9.21.18,13.84,5.54-.07,11.09-.14,16.61-.21-.06-4.63-.12-9.21-.18-13.84ZM2915.77,281.45c-2.32-1.89-12.57,3.48-8.24,6.99,2.32,1.89,12.57-3.48,8.24-6.99Z"/>
  </g>
</svg>