<?xml version="1.0" encoding="UTF-8"?>
<svg id="Layer_2" data-name="Layer 2" xmlns="http://www.w3.org/2000/svg" viewBox="0 0 3090.81 391.82">
  <defs>
    <style>
      .cls-1 {
        fill: #e8f0e8;
        fill-rule: evenodd;
      }
    </style>
  </defs>
  <g id="Layer_1-2" data-name="Layer 1">
    <path class="cls-1" d="M3043.43,194.7c-5.62-2.15-11.67-5-20.85-3.24-4.09,1.33-7.96,2.82-12.32,3.95-4.36,1.15-9.22,1.93-15.29,1.79-12.27-2.73-24.34-5.64-36.67-8.25-12.34-2.62-24.95-5.11-38.3-6.72-37.71,5.98-68.08,8.77-101.62,11.57-4.19.35-8.43.71-12.75,1.07-4.31.34-8.7.68-13.17,1.02-8.95.71-18.26,1.47-28.11,2.33-9.85.87-20.23,1.68-31.3,2.71-11.08,1.05-22.86,2.17-35.51,3.38-5.86,7.07-20.83,6.78-31.1,10.31-14.11-6.2-24.21,5.48-31.61-5.11,11.17-.31,22.06-1.71,32.73-3.75,10.67-2.03,21.13-4.56,31.44-6.88,10.31-2.29,20.48-4.52,30.59-5.83,10.11-1.32,20.18-1.73,30.28-.6.75-6.04-4.99-5.83-7.42-8.83,9.5-6.61,14-6.19,27.67-4.45,6.72-5.26,14.11-5.54,21.28-5.79,7.17-.23,14.11-.56,19.86-5.72,11.51.73,24.12.77,37.05-.47,12.93-1.28,26.18-3.7,38.98-7.65,14.95,2.22,25.57.83,36.25-.7,5.34-.77,10.7-1.6,16.63-2.08,5.92-.54,12.42-.73,20.05-.18,24.31-13.86,58.66-15.05,78.25-19.82-15.03-5.04-40.45.92-49.71-10.32,12.76-2.66,27.8-5.61,43.64-8.34,15.82-2.87,32.43-5.56,48.38-7.48-6.86-13.61-17.09-11.05-28.32-6.26-5.61,2.39-11.47,5.34-17.25,7.1-5.78,1.75-11.49,2.22-16.76-.19,4.17-8.28,14.57-11.97,22.35-17.68-9.39,1.36-15.97-.51-21.02-4.01-5.04-3.5-8.55-8.65-11.84-14.04,12.61-12.54,18.37-5.23,33.32-9.6,3.65-8.08-14.39-7.98-4.7-11.74,13.06,7.94,22.5-4.61,22.31-14.72-5.4-2.94-8.88-2.56-13.5,1.49-3.42-4.1-6.09-9.05-14.45-7.6-6.13,1.21-13.67,1.27-20.49,1.89-6.83.61-12.95,1.74-16.3,4.91-3.68-1.65-10.66-4-17.51-5.11-6.86-1.17-13.6-1.08-16.81,2.26,5.96.56,26.17,2.48,17.73,7.59-11.3,2.99-19.51-.32-37.47.29-3.18-.19-6.97.3-10.86.84-3.89.53-7.88,1.17-11.45,1.36-7.14.38-12.61-1.01-12.27-8.52,6.95-5.26,13.75-4.55,20.96-2.94,7.2,1.61,14.78,4,23.21,2.29,8.98.11,1.61-12.03,12.69-10.32,12.6-4.22,23.21-4.01,33.8-3.64,5.29.19,10.58.41,16.08.11,5.5-.31,11.23-1.11,17.38-3.12-6.78-.71-5.82-9.59-8-11.38-1.42-1.21-8.12,1.62-10.05,1-6.89-2.31-15.96-4.56-24.08-3.73-.73-3.67-1.69-7.07-7.27-5.38-5.07,0-12.26,2.24-13.69-1.78-11.27,7.28-23.41,5.02-39.69,9.69-5.53,1.52-8.24,6.45-12.94,7.16-.08,0-1.51-.71-3.49-1.35-1.99-.64-4.53-1.2-6.85-.89-21.1,2.97-46.41-.55-63.99,4.74-8.26-6.71-11.17-3.95-23.82-1.53-.62-4.77-.21-10.58-7.31-8.71-7.87-.67-16.84,1.47-26.13,3.02-9.29,1.54-18.86,2.62-27.81.05-4.48.26-2.83,5.52-6.45,6.45-3.11-4.35-8.83-6.08-17.2-5.27-15.08-3.34-28.63,11.44-33.94-1.51,5.64-2.45,29.41-4.81,19.88-10.05-3.54,2.29-8.46,3.42-14.15,4.02-5.69.61-12.16.69-18.84.8-13.34.26-27.44.95-37.66,7.16-9.16-3.42-17.99-5.01-24.01-8.42-11.89,11.72-27.84-10.84-33.78,3.99-6.51-1.15-6.35-8.57-17.1-5.71-6.52.24-12.79.47-18.77.69-5.99.18-11.71.35-17.12.52-10.82.27-20.41.36-28.56-.01-14.68-.68-39.79,3.89-44.18,3.53-9.81-.89-6.72-8.92-13.63-2.97-3.18,2.74-24.12,3.74-34.05,3.21-5.65-.29-26.35.09-40.91-.02-6.5,1.31-8.6,6.59-17.1,6.06-16.03-6.64-26.05.31-44.4-3.35-15.04,4.25-31.8,6.97-49.71,8.62-17.93,1.57-36.98,2.19-56.64,2.13-19.66-.04-39.87-.6-60.13-1.27-20.24-.62-40.51-1.33-60.22-1.52-29.35,5.87-60.28,10.31-96.88,9.34-6.88-.18-4.67,8.16-14.02,5.64-14.26-5.56-28.13-3.99-42.76-1.81-14.63,2.17-30.02,4.91-47.26,1.75-10.39,5.51-29.81,9.26-48.95,10.4-24.74,1.46-49.85.03-58.84-5.26-2.93,10.88-26.57,2.23-35.05,7.81-10.77,1.86-6.34-8.63-17.13-6.76-4.6,4.07-16.47,1.25-21.09,5.3-20.34-8.87-54.5,5.79-87.06-.29-92.92,7.72-164.06.92-258.84,12.47-6.62-1.52-6.06-8.92-17.3-6.61-6.69,1.12-6.57,8.54-17.64,5.63-6.53-3.57-16.42-4.31-24.33-6.76-24.22,3.09-46.46-13.42-59.52-1.4-12.2-13.92-34.43-2.63-55.93-10.22-25.95,4.7-62.09-2.24-98.37,1.78-15.1-4.58-32.59-3.16-49.88-1.23-17.29,1.9-34.32,4.06-48.61.91-12.28,2.25-23.08,3.78-33.24,4.89-10.17,1.17-19.69,1.94-29.42,2.61-19.45,1.3-39.75,2.51-67.53,5.96-8.35,9.04-30.78,6.39-38.4,16.05-3.22-10.79-8.65-.21-21.19-2.54-4.63.18-3.06,5.43-6.86,6.3-9.91-2.61-20.46.65-32,4.33-11.55,3.76-24.07,7.95-37.99,7.11-8.2,5.99-16.35,7.54-24.91,8.63-8.55,1.07-17.5,1.66-27.22,5.77-10.27-3.72-32.99,4.29-52.58,2.68-13.72,4.22-27.79,7.35-42.27,9.71-7.24,1.16-14.58,2.24-22.03,3.19-7.45.95-15,1.77-22.67,2.52-30.67,3.07-63.19,5.3-97.74,10.33-10.97-1.31-5.96,8.84-16.93,7.65-8.07-1.64-16.55-1.72-25.16-1.05-8.6.68-17.33,2.07-25.88,3.57-8.55,1.47-16.95,2.88-24.92,3.42-7.97.55-15.52.2-22.39-1.68-1.8,4.3-6.77,6.5-13.2,7.69-5.89-1.51-13.29-1.35-21.23-.59-1.98.19-4,.42-6.04.67-2.03.28-4.09.57-6.15.86-4.11.59-8.24,1.19-12.27,1.67-5.51.45-3.7-7.36-11.22-4.66-4.68,5.12-10.67,6.07-18.11,6.39-7.43.39-16.32.19-26.75,2.91-5.29,2.96-12.48,4.71-20.35,6.02-7.87,1.37-16.4,2.38-24.4,3.69-6.9,1.11-3.12,8.92-12.93,8.18-3.67-.02-7.47.2-11.37.62-3.9.45-7.9,1.12-11.97,1.92-8.15,1.61-16.61,3.81-25.16,6.22-4.27,1.22-8.58,2.43-12.86,3.75-4.29,1.31-8.57,2.62-12.83,3.92-8.51,2.56-16.92,4.95-25.01,6.8-1.94,3.29-4.52,5.43-7.39,7.01-2.87,1.59-6.03,2.57-9.15,3.45-6.25,1.76-12.34,3.1-15.53,8.07-4.06-1.44-18.14-8.59-21.18,1.04,16.35-2.33,22.68,8.26,37.16,8.27.97-1.41,5.42-4,9.98-5.45,4.55-1.45,9.22-1.64,10.55,1.55-5.59-.11-8.78,1.57-10.3,4.02-1.53,2.44-1.4,5.6-.4,8.5,2.02,5.79,7.56,10.46,10.63,6.08-13.49-1.84,9.94-2.26,5.72-7.24-4.77-9.06,3.52-10.33,8.07-13.84,9.15.03,23.52,3.13,16.38,12.51,15.64-5,17.69,7.18,29.37,7.28-5.22-9.51,9.82-6.47,16.07-8.86,2.13-4.97,10.29-6.21,16.09-8.9,8.95,4.76,18.44-8.6,27.88-1.23-10.68,6.7-4.92,15.82-6.98,22.67-8.93.16-15.28,1.91-20.76,4.33-5.48,2.42-10.11,5.36-15.66,7.74-7.94-9.18-14.25.65-24.77-2.03-10.35,5.23-18.66,11.84-32.3,15.08,1.44,5.29-2.06,7.63-9.04,7.84,3.17,12.55-5.8,17.7-1.13,31.15,11.29-3.67,21.71-6.9,32.11-8.66,5.21-.87,10.4-1.42,15.71-1.39,5.32.05,10.73.59,16.36,1.76.06,4.59-15.37,18.56-.79,15.59,7.24-2.8,13.59-5.11,19.5-6.97,5.91-1.84,11.38-3.3,16.91-4.18,11.05-1.83,22.22-1.98,37.25-.69,4.54-2.03,9.59-3.62,14.65-5.23,5.06-1.61,10.12-3.23,14.7-5.19,8.17-1.05,16.19-2.07,24.1-3.09,7.92-.97,15.74-1.94,23.51-2.89,7.77-.97,15.48-1.93,23.19-2.89,7.72-.88,15.44-1.76,23.21-2.64,7.77-.86,15.58-1.76,23.5-2.56,7.93-.73,15.96-1.47,24.14-2.22,8.18-.7,16.5-1.46,25.04-2.03,8.54-.57,17.29-1.12,26.28-1.62,4.46-.9,13.56,8.95,13.84,1.69-1.89.19-4.1-2.09-.28-3.03,3.4-.34,3.8-2.85,6.49-3.67,9.8-.73,19.64-1.43,28.87-2.58,4.61-.57,9.08-1.26,13.31-2.12,4.24-.83,8.25-1.81,11.95-3.03,56.36-1.6,104.84-13.7,170.39-17.15,6.91-5.21,22.64-3.12,30.55-7.48,8.13-.04,15.47-.57,22.27-1.31,6.8-.71,13.07-1.6,19.03-2.46,11.93-1.68,22.66-3.19,34.13-2.15-8.78,4.05-18.99,7.01-29.11,9.96-10.12,2.99-20.16,5.95-28.54,10.41-20.78,2.8-40.68,8.24-60.22,13.1-9.78,2.4-19.48,4.54-29.2,6.06-9.71,1.57-19.42,2.45-29.26,2.2-6.77.45-3.82,8.58-13.24,6.89-11.58-1.3-21.71-1.11-31.12-.18-9.4.94-18.08,2.59-26.7,4.52-8.63,1.89-17.22,3.88-26.52,5.31-9.3,1.4-19.27,2.39-30.66,2.19-10.63-1.35-5.78,8.92-16.35,7.55-3.76-2.06-9.28-2.31-14.17-3.08-4.9-.79-9.21-2.22-10.62-6.83-.83,5.34,5.75,7.27.88,9.1-8.16-1.27-18.74,1.54-29.06,4.73-10.32,3.2-20.36,6.95-27.56,7.23-6.42-1.32-14.15-1.16-21.95-.92-7.79.3-15.65.74-22.4-.16-5.98,1.66-11.85,3.47-17.67,5.28-5.8,1.81-11.55,3.6-17.26,5.38-11.42,3.45-22.73,6.29-34.28,7.36-8.88.88-17.85.78-26.95.31-4.55-.23-9.12-.55-13.72-.85-4.6-.31-9.24-.62-13.88-.75-9.29-.3-18.69-.2-28.17,1.02-4.74.61-9.5,1.48-14.27,2.76-4.76,1.31-9.54,3-14.32,5.14-6.94-.05-13.53.59-19.91,1.71-3.19.56-6.32,1.24-9.42,2.01-3.1.77-6.14,1.7-9.18,2.66-12.13,3.87-23.96,8.78-36.68,13.01,13.56,15.58-22.97,15.75-21.12,32.02,10.66-2.57,18.68-4.19,26.92-6.04,8.26-1.77,16.73-3.82,28.27-7.38,6.33,1.63,9.81,6.81,20.77,2.47,1.98,11.62,26.85,6.82,19.99,18.27-1.82.31-3.32,3.07.51,3.02,10.78-6.34,16.54-16.07,26.53-22.94,18.27,2.38,27.42-10.16,32.05-11.15.01,0,.12.07.31.2.19.13.46.31.8.54.68.44,1.61,1.03,2.69,1.61,2.15,1.17,4.82,2.27,7.01,2.17,5.72-.29,16.23-11.14,26.45-3.78-5.71-1.42-13.49,8.07-5.73,6.99,4.83-1.92,9.83-3.58,14.97-5.04,5.14-1.47,10.42-2.73,15.84-3.77,10.84-2.13,22.17-3.73,33.86-5.31,11.69-1.56,23.78-2.91,36.06-4.88,6.15-.95,12.34-2.11,18.61-3.32,6.26-1.22,12.57-2.64,18.91-4.31,4.4-.44,3.61,4.98,7.31,5.32,4.64-1.83,10.57-3.39,17.1-4.68,6.54-1.24,13.67-2.23,20.7-3.02,14.06-1.59,27.7-2.39,35.4-2.63,7.29-3.27,14.24-4.98,21.29-5.88,7.06-.89,14.22-1.01,22-.93,7.98-1.63,15.83-3.12,23.58-4.52,7.75-1.39,15.38-2.71,22.95-3.84,15.14-2.3,29.9-4.46,44.49-6.5,14.6-2,29-4.12,43.37-6.52,14.39-2.33,28.74-5.03,43.24-8.4,11.31-.5,22.63-.99,33.96-1.49,3.81-2.72,10.3-3.29,16.37-4.13,6.07-.84,11.71-2.05,13.82-6.21,11.19.65,22.3-.37,33.44-2.23,11.15-1.83,22.31-4.6,33.56-7.61,11.24-3.05,22.6-6.18,34.08-8.94,11.49-2.74,23.11-5.1,34.94-6.18,6.99,6.1-1.4,6-3.21,12.23,16.23-3.06,31.91-6.71,47.34-10.11,15.43-3.39,30.57-6.78,45.68-9.38,15.12-2.58,30.19-4.56,45.47-5.24,15.28-.63,30.75-.06,46.63,2.36-3.11,5.32-12.68,4.99-13.78,12.14,10.81,1.52,7.78-9.35,20.66-5.99,11.29,2.23,4.7,20.12,23.93,15.4,4.17-1.34-.76-13.12,10.45-15.15,9.26-2.62,20.88-.39,32.53,1.83,11.65,2.22,23.35,4.48,32.85,2.04,6.8,6.32-1.61,5.95-3.62,12.13,7.17,1.87,9.69,7.73,20.53,6.43.86-7.97-19.5-13-10.03-18.45,14.7-1.55,22.76,2.53,34.41,3.63,11.94-1.33,24.77-1.85,38.98-1.94,14.22-.05,29.82.35,47.29.8,7.96,7.21,34.16-.75,37.72,10.15,16.06-.17,38.95.59,61.91,1.42,22.99.9,46.04,1.89,62.51,2.41,7.37-4.55,23.02-1.33,31.32-5.04,8.22,2.17,25.26-2.91,27.6,4.05,47.97-4.43,93.55,1.16,128.64-4.38,22.67,3.31,73.7,4.74,97.74-8.44,27.63,4,67.66-7.54,97.99-11.55,1.18,5.3-5.46,7.62-.34,9.14,15.48-5.61,30.82-7.71,52.82-13.31,21.81,4.61,47.27-5.41,69.47,8.48.95-9.58,11.79-9.85,24.71-8.34-.18,4.03-6.21,2.58-7.17,5.88,14.8,8.81,28.07.58,41.58,10.46,16.59-8.5,35.91,1.19,52.39,1.53,11.03.19,34.76-5.05,38.59-5.09,4.86-.04,6.3,3.94,13.89,3.4,45.27-3.13,81.87-3.21,118.65-2.82,9.19.13,18.39.27,27.74.41,9.35.11,18.85.22,28.62.33,19.55.22,40.25.1,63.15-.39,9.57,2.27,7.09-6.04,14.05-6.06,11.67,11.41,14.05-1.76,31.54.04,15.21,3.93,31.35,2.82,48.31,1.3,16.97-1.54,34.78-3.75,53.4-1.96,16.39,7.66,28.91-.07,45.74,5.38.74-2.39,0-6,3.4-6.16,10.64,4.54,22.96,4.73,33.95,5.46,11,.73,20.68,1.95,26.15,8.38,18.52-1.88,18.45-7.98,35.21-1.05,1.32-3.88,4.35-6.33,10.35-6.45,4.3,3.36,12.57,2.99,21.23,2.25,14.99-2.96,14.37-.05,28.04-4.13,10.39,3.81,24.85.84,40-2.46,15.16-3.35,30.99-7.14,44.3-4.72,31.37-8.31,60.15-12.46,88.53-16.38,7.09-.98,14.16-1.85,21.23-2.88,7.07-1.02,14.14-2.06,21.25-3.19,7.11-1.13,14.26-2.34,21.47-3.7,7.21-1.39,14.48-2.99,21.85-4.77,12.2,4.56,27.84-7.3,49.07-4.62,3.8-3.89,12.04-4.68,20.71-5.13,5.15-5.71,9.79-11.86,15.86-17-3.67,2.34-6.8,3.16-9.72,3.14-2.91-.05-5.61-.95-8.42-2.02ZM3049.65,50.82c-4.33.3-8.69.64-12.02-.17-3.33-.82-5.63-2.82-5.83-7.09,9.6-1.59,18.36-2.41,17.85,7.26ZM3018.89,51.02c5.63-1.75,6.62,1.69,7.39,5.33,2.78-2.66,7.32-3.96,13.22-4.41,4.41,10.68-14.29,4.57-16,10.8-9.02.88-19.27,3.11-24.03-.63.45-8.15,7.07-11.73,19.42-11.09ZM3008.05,79.61c2.25,10.05-14.27,6.56-19.56,11.1-2.2-10.04,14.3-6.47,19.56-11.1ZM571.22,189.2c-8.64.06-18-.91-20.6,5.81-8.04-1.88-14.43-1.69-20.35-.76-5.92.96-11.37,2.62-17.56,3.57-8.48,1.08-16.56,1.76-20.93-1.4-7.47-.34-4.85,5.19-9.83,6.9-11.38,3.89-31.41,2.42-44.41,6.98-8.06-4.75-15.23-10.43-25.55-12.79-.25,10.33,15.03,4.01,15.22,13.8-9,.69-17.79,1.52-26.39,2.41-4.3.45-8.56.88-12.77,1.37-4.21.51-8.37,1.01-12.5,1.51-16.49,2.04-32.37,3.84-47.79,5.31-5.6.51-5.49,3.78-9.91,4.27-2.93.31-5.78-2.6-10.64-1.81-3.05.49-4.84,3.94-9.89,4.27-6.54.43-15.22-3.65-21.29-3.39-4.93.21-4.82,3.62-6.43,3.91-2.53.46-4.01-2.44-7.22-2.12.98-.11-1.11,5.11-3.03,3.46-3.13-2.65-8.58-2.39-14.46-1.79-5.88.63-12.2,1.53-17.12.02,1.11-5.66,7.08-8.13,13.86-10.08,6.78-1.95,14.38-3.22,18.74-6.73,16.76-1.76,33.95-4.58,49.59-6.35,15.63-1.83,29.66-3.05,40.07-1.58,12.67-5.44,20.73-1.66,33.77-9.8,16.8-2.1,36.48-1.99,47.99-7.84,17.54-2.24,34.47-2.49,50.59-3.55,16.14-.9,31.49-2.55,45.94-7.64,7.53,4.74,17.44,3.26,27.94,1.57,10.49-1.68,21.56-3.62,31.32.53.19,10.87-7.74,11.84-16.38,11.94ZM598.35,182.7c-11.14,8.05,7.73-10.71,0,0h0ZM636.38,180.49c-2.91.69-3.33-1.03-3.64-2.88-12.13-1.82-13.04,5.34-24.01,4.47-1.49-14.69,16.99-13.94,33.91-14.14,9.3,2.7,21.47,2.5,34.84,1.28-1.13,13.68-34.89,1.59-41.1,11.27ZM693.85,147.18c-16.57,2.1-14.63,1.92-31.31,1.46-.7-5.47,3.93-6.67,2.91-12.35-7.81-1.29-4.68,6.02-10.16,6.6-10.28-3.53-15.29-1.35-19.93,2.01-4.65,3.37-8.94,7.87-17.83,9.17,1.31-7.7,8.68-10.73,9.42-18.86,9.3,0,18.44-1.09,27.42-2.64,8.98-1.54,17.81-3.58,26.51-5.3,8.69-1.74,17.24-3.3,25.65-4.03,4.2-.36,8.37-.52,12.5-.39,4.13.14,8.22.6,12.28,1.42-3.79,15.13-35.56,1.27-37.45,22.93ZM828.05,78.6c1.86,1.53-2.43,3.94-3.45,3.12-1.84-1.55,2.48-3.94,3.45-3.12ZM734.83,124.12c2.31-.08,4.63-.17,6.96-.25l.22,6.08c-2.32.08-4.64.17-6.95.25l-.23-6.08ZM843.05,120.94c-8.92,1.54-15.98,4.63-20.74,9.62-11.15-3.97-20.86,8.09-24.43.67-3.38.16-2.59,3.78-3.28,6.16-10.03-1.41-16.72-1.49-24.09-.99-7.37.54-15.42,1.69-28.17,2.69-3.65-11.81,18.28-2.87,20.6-9.89,8.11-1.31,14.28-4.1,20.75-6.73,10.64,1.6,29.95-4.78,34.97,2.07,14.84-1.61,14.42-15.87,31.1-15.95,4.52,9.77-11.27,2.58-6.7,12.35ZM848.94,69c-1.85-1.51,2.48-3.94,3.47-3.14,1.85,1.55-2.48,3.94-3.47,3.14ZM858.71,208.98c-1.8-1.54,2.43-3.94,3.41-3.12,1.81,1.53-2.43,3.94-3.41,3.12ZM1207.14,109.61c7.33.81,15.43,2.89,23.28,2.7,46.35-5.6,84.33,14.47,125.29,9.14,5.8,7.15,15.94,10.65,31.07,10.07-2.11,3.62-22.7,5.56-20.98,2.46-18.01.06-28.83.19-40.18.3-11.36.13-23.25.27-43.41.5-13.15-3.41-28.87-8.24-45.16-12.27-16.29-4.05-33.15-7.44-48.54-7.94,4.75-5.27,11.31-5.76,18.63-4.97ZM1034.99,103.97c11.23,6.05-18.22,11.38-20.97,6.01-3.08,1.33-6.2,2.68-6.97,6.09-14.46-6.18-30.39,1.02-45.36,3.21,13.57-14.56,51.67-7.95,73.3-15.32ZM883.78,263.39c-5.07-13.35,20.48-.35,20.42-9.45,10.41,4.03,12.24-1.64,27.44-.32-12.74,4.91-32.46,16.8-47.86,9.77ZM1613.68,209.52c-34.46,10.32-73.99,5.6-115.18,14.08-45.21-5.03-80.47,3.2-110.92-3.64-16.44,5.44-36.12,5.88-56.6,6.32-10.24.21-20.69.38-31.04,1.12-10.35.77-20.6,2.11-30.44,4.61-18.88.4-32.29-3.58-46.79-7.49-14.5-3.93-30.08-7.66-53.22-6.64-33.08-13.49-66.9-7.82-96.63-22.38-13.75,3.93-32.93.45-51.9,5.92-50.19-2.25-99.59,3.01-151.9,7.35,12.61-11.21,43.86-6.62,55.04-19.05,8.87,1.14,20.72-.32,33.08-2.56,12.36-2.24,25.23-5.12,36.08-7.03,5.8.12,11.5.05,17.11-.15,5.61-.18,11.13-.47,16.55-.85,10.85-.75,21.33-1.79,31.44-2.65,20.23-1.61,38.99-2.55,56.24,1.09,1.65,10.58-20.38-.19-27.8,8.89-4.05.47-6.16-.71-6.92-3.09-4.64-5.92-19.44,4.89-27.74,5.94,3.35,6.64,19.98-.31,24.26-2.92,6.78,6.11,19.77,2.09,27.71.2,10.86,5.74,27.16,6.83,44.97,6.62,24.55,3.49,58.4,16.22,89.88,10.71-11.62-1.32-36.85-3.27-51.78-10.12-5.75-.09-11.55-.19-17.31-.28-8.1-1.1-14.27-3.9-20.71-6.41-6.52-1.42-20.9,3.89-17.27-6.29,16.27-.29,19.73-.42,27.77-2.69,16.06,6.07,26.52-1.2,38.07,6.7,56.32,3.6,128.23,13.67,179.81,22.65,16.28-2.67,32.35-2.62,48.02-1.95,15.67.66,30.96,1.98,45.71,1.91,66.79-.41,120.65-2.54,173.91-2.81.86,12.37-21.78,2.55-31.5,4.89ZM1665.89,208.46c-3.45-.13-6.93-.27-10.41-.4-.33-6.62,12.37-.89,17.49-2.37-.19,2.93-4.35,2.19-7.07,2.77ZM1683.26,209.13c-1.73-1.66,2.67-3.81,3.59-2.91,1.73,1.66-2.66,3.79-3.59,2.91ZM1714.67,207.29c1.02-5.34,6.24-6.69,14.12-5.56-1.04,5.32-6.25,6.71-14.12,5.56ZM1845.2,254.91c-1.74-1.64,2.66-3.77,3.6-2.91,1.74,1.64-2.66,3.79-3.6,2.91ZM1998.83,251.1c-1.75-1.65,2.64-3.81,3.59-2.95,1.75,1.65-2.64,3.81-3.59,2.95ZM2004.25,190.3c-18.91-1.43-35.31-.57-51.41.56-16.11,1.15-31.92,2.53-49.65,2.12-34.05,6.81-73.15,8.77-105.11,17.5-2.97.43-3.24-1.32-3.36-3.19-29.72,1.48-30.54.16-62.68.67,15-10.03,45.92-4.94,66.5-9.65,7.57.82,11.16-2.09,10.79-8.77,7.72,7.62,11.03,5.07,24.22,3.98,39.96-8.55,80.97-16.06,126-19.91-.8,6.58,12.28,1.78,17.28,3.6,8.9.19,4.17,2.42,3.28,6.21,10.62,2.62,6.96-8.14,17.58-5.55-.64,16.78,24.89-3.4,27.63,6.97-.76,9.48-7.99,2.87-21.06,5.44ZM2032.16,188.11c.78-3.41,3.56-1.59,3.48.1-.77,3.47-3.55,1.61-3.48-.1ZM2844.27,41.09c-1.23,4.51-3-.13-6.79.42.59-3.87,6.54-3.49,6.79-.42ZM2725.08,38.46c9.84,5.96,30,.7,37.16-4.81,6.55,5.16,24.28-.8,27.59,7.69,2.63-1.85,5.94-2.97,9.6-3.64,3.66-.68,7.69-.87,11.78-.8,8.17.14,16.56,1.33,22.68,1.79-.98,6.92-17.97,1.19-19.95,7.33-4.99.19-10.77.61-16.73,1.01-5.96.37-12.09.77-17.76,1.01-11.33.48-20.81.34-23.39-1.85-10.25,4.49-32.86,8.56-30.98-7.72ZM2446.29,197.4c-12.03-2.37-14.7,3.46-20.89,6.17-14.66-7.97-20.67-1.04-34.84-6.09-50.63,9.94-110.19,6.12-167.16,1.42-71.12-5.96-122.55-.08-180.8-10.49.89-14.48,8.02-3.82,21.05-5.45,1.3,8.87,26.35-1.98,27.65,6.83,50.19-6.39,98.29-2.2,160.24-8.74,19.67,1.9,20.8.87,41.72.56,8.12.09,16.23.18,24.34.27,6.58-1.28,20.94,4.28,17.44-5.95,6.15,2.73,8.77,8.54,20.81,6.21,15.56-2,31.31-.8,47.03,0,15.72.82,31.42,1.01,46.81-3.04,9.99,2.38,18.49,6.11,27.88,8.99,11.96-4.04,23.04-4.33,33.86-3.55,10.82.77,21.37,2.52,32.24,2.71,8.77.11,18.95-3.79,27.77-3.58,9.27.25,18.18,1.1,27.12,2.14,4.47.55,8.95,1.11,13.48,1.67,4.53.55,9.12,1.09,13.8,1.59,9.37.99,19.16,1.79,29.73,2,10.57.22,21.92-.3,34.43-1.73,21.15-7.48,38.09-3.39,55.39-8.41,8.8.86-2.92,8.81-10.13,6.52-4.73,6.97-8.69-3.44-10.33,3.53-4.92-3.2-10.12-1.92-15.84.08-5.71,1.97-11.94,4.67-18.86,4.4-29.9,4.94-43.21,4.87-65.87,14.37-57.59-3.35-116.13-13.13-178.06-12.43ZM2922.86,218.67c-.13-2.98,4.1-2.72,6.76-3.59.14,2.94-4.09,2.69-6.76,3.59ZM3009.52,201.95c-1.97-1.4,2.15-4.14,3.19-3.38,1.97,1.4-2.15,4.12-3.19,3.38ZM3041.26,201.84c.32-3.5,3.32-2.02,3.5-.35-.31,3.5-3.34,2.04-3.5.35Z"/>
  </g>
</svg>