<?xml version="1.0" encoding="UTF-8"?>
<svg id="Layer_2" data-name="Layer 2" xmlns="http://www.w3.org/2000/svg" viewBox="0 0 75 76.74">
  <defs>
    <style>
      .cls-1 {
        fill: #11120b;
      }

      .cls-2 {
        fill: #fff;
      }

      .cls-3 {
        fill: #c0ed08;
      }
    </style>
  </defs>
  <g id="Layer_1-2" data-name="Layer 1-2">
    <g>
      <g>
        <path class="cls-2" d="M54.18,17.8c-.15,0-.3,0-.44,0h-.08.02c.2,0,.39,0,.59,0h.1c.22,0,.44.03.67.06-.21-.02-.43-.04-.64-.05-.07,0-.14,0-.21,0ZM60.21,42.79s0,0,0-.01c0,0,0,0,0,.01h0ZM74.97,41.06c0-1.29-.31-2.59-.88-3.82-.6-1.68-2.1-2.87-3.41-3.72-.1-.92-.22-1.86-.37-2.86-.55-3.48-1.48-6.9-2.83-10.46-.8-1.92-1.82-3.85-3.13-5.89-2.77-4.32-6.23-7.7-10.32-10.07-4.04-2.22-8.46-3.58-13.14-4.03l-.37-.04c-.48-.05-1.02-.1-1.57-.12-1.7-.07-3.07-.05-4.44.06-9.63.99-18.33,5.11-25.14,11.9-.81.83-1.6,1.75-2.5,2.9-2.03,2.62-3.66,5.5-4.82,8.57-2.41,6.41-2.71,13.37-.86,20.16,1.77,5.42,4.81,10.16,8.78,13.71.17.15.35.29.52.43l.42.35c.4.34.77.64,1.16.93.05.04.13.09.16.11.62.45,1.36.95,2.1,1.39.49.29,1.04.43,1.6.41.31,1.28.93,2.46,1.8,3.42,1.76,1.95,4.37,2.95,7.27,2.71.25-.02.5-.07.74-.16l3.51-1.25c.14.21.32.41.51.57.06.05.1.09.15.14l.34.32c2.2,1.95,3.66,3.86,5.29,6.28,1.38,2.39,3.94,3.76,7.01,3.76.19,0,.39,0,.55-.01h.12c.09,0,.23,0,.3,0,2.79-.15,5.71-.68,9.21-1.67,1.79-.51,3.62-1.09,5.43-1.73.1-.03.19-.07.28-.12,4.53-2.15,9.19-4.63,11.99-9.23.42-.69.53-1.53.31-2.3-.22-.77-.77-1.42-1.49-1.78s-1.18-.77-1.3-1.17c0-.06,0-.1-.01-.13-.04-.29,0-.62.16-1,.4-1.04.17-2.22-.59-3.03-.82-.87-1.08-1.31-1.14-1.45v-.3c.02-.06.04-.11.06-.16.07-.2.25-.44.53-.69,1.88-.86,2.91-2.5,2.82-4.49,0-.09.03-.17.06-.23.03-.02.09-.06.2-.11.29-.13.51-.18.79-.15,1.02.1,2.02-.36,2.61-1.18.77-1.06,1.25-2.28,1.44-3.61.07-.21.1-.53.11-.69,0-.13,0-.31-.01-.44h-.01Z"/>
        <path class="cls-3" d="M34.39,39.33c-1.31,1.84-.77,4.39,1.24,5.51,1.14.22,2.04-.1,2.42-.58.58-.86.79-1.84.43-3.24-.87-2.09-2.61-2.72-4.1-1.69h0ZM54.99,31.67c-1,0-1.86.56-2.32,1.38-.15.28-.26.58-.3.91-.02.12-.04.24-.04.36,0,.73.29,1.38.76,1.86.22.23.49.41.78.54.34.16.72.25,1.12.25,1.47,0,2.65-1.19,2.65-2.65s-1.19-2.65-2.65-2.65h0ZM72.08,41.16c0-.52-.06-1.05-.2-1.59-.05-.18-.11-.36-.17-.55-.09-.25-.19-.49-.31-.74-.08-.27-.24-.54-.45-.81-.21-.26-.48-.53-.8-.78-.62-.51-1.41-1.01-2.23-1.49h0c-.1-1.42-.27-2.78-.48-4.11-.13-.85-.29-1.69-.47-2.52s-.38-1.65-.6-2.47-.47-1.63-.74-2.44-.55-1.63-.87-2.45c-.2-.48-.41-.95-.63-1.41-.17-.35-.34-.69-.51-1.03-.53-1.01-1.11-1.99-1.72-2.94-.59-.92-1.23-1.82-1.91-2.67s-1.4-1.66-2.17-2.43-1.59-1.49-2.47-2.16c-.87-.68-1.8-1.29-2.78-1.87-.36-.2-.72-.39-1.08-.57-1.08-.54-2.18-1.01-3.29-1.41-2.42-.87-4.9-1.4-7.44-1.66-.06,0-.11-.01-.17-.02-.3-.03-.59-.06-.88-.09-.3-.03-.59-.05-.89-.06-.53-.02-1.07-.03-1.6-.04h-.28c-.24,0-.48,0-.73.01-.12,0-.25,0-.37,0-.37.01-.74.03-1.11.06-.56.06-1.11.13-1.67.21-1.11.16-2.2.37-3.27.62-1.07.25-2.13.55-3.17.88s-2.06.72-3.06,1.14c-1,.43-1.98.89-2.94,1.4-3.36,1.78-6.46,4.06-9.22,6.81-.82.84-1.56,1.73-2.27,2.64-1.18,1.51-2.19,3.11-3.04,4.76-.26.52-.51,1.04-.74,1.57-.12.29-.25.57-.37.86-.08.21-.17.41-.25.62-.37.98-.68,1.97-.94,2.98-.12.47-.24.94-.33,1.42-.31,1.5-.5,3.04-.57,4.59-.05,1.15-.04,2.3.05,3.47.03.39.06.78.11,1.17.09.79.21,1.57.36,2.36s.33,1.58.55,2.37c.6,1.82,1.35,3.56,2.25,5.19.6,1.09,1.27,2.12,1.99,3.11,1.09,1.48,2.32,2.83,3.68,4.04.11.09.22.18.32.27.11.09.22.18.33.26.2.17.41.34.61.51s.41.33.62.49c.02.01.03.02.05.03.64.47,1.29.91,1.98,1.32.74-1.23,1.28-2.31,2.03-3.35.25-.35.52-.68.84-1.02.08-.07.14-.14.2-.22.06-.07.12-.15.18-.23.61-.77.8-1.65.47-2.64,0-.03,0-.06-.02-.09-.27-.9-.56-1.78-.87-2.64s-.64-1.7-.99-2.53c-.52-1.24-1.08-2.45-1.69-3.63-.61-1.18-1.28-2.35-2.01-3.5-.06-.12-.12-.24-.19-.35-.28-.44-.63-.79-.98-1.14-.18-.18-.35-.36-.5-.55-.08-.1-.16-.2-.23-.31-.15-.23-.3-.46-.39-.76,0,0,0,0,.02,0h0s0,0,0,0c2.34.99,3.79,2.67,5.3,4.73.79,1.36,1.51,2.71,2.18,4.09.33.69.65,1.38.96,2.08.31.7.6,1.4.88,2.12.1.26.21.52.32.78.2.46.4.92.57,1.41.03.07.06.15.08.22.16.45.26.89.31,1.31.07.71-.03,1.37-.38,1.94-.18.31-.43.59-.77.85-.38.41-.74.84-1.06,1.29-.33.45-.63.93-.92,1.44-.13.23-.27.43-.4.67-.04.08-.08.16-.12.25h0c-.02.23-.03.44-.03.66,0,.07,0,.14,0,.21,0,.14,0,.28.02.42,0,.08.03.16.04.25.02.12.04.24.06.36.02.08.05.17.07.25.03.11.06.22.1.32.03.08.06.16.1.24.04.1.08.2.12.29.04.08.08.15.12.23.05.09.1.18.16.27.05.07.1.14.15.21.06.08.12.17.18.25.06.07.11.13.17.2.07.07.13.15.21.22.06.06.13.12.19.18.07.06.15.13.23.19.07.06.14.11.21.16.08.06.17.12.25.17.07.05.15.09.23.14.09.05.18.1.28.14.08.04.16.08.25.12.1.04.2.08.3.12.09.03.17.06.26.09.11.03.21.06.32.09.09.02.18.05.27.06.11.02.23.04.34.06.09.01.18.03.28.04.12.01.24.02.37.02.09,0,.18.01.28.01.21,0,.42,0,.63-.02l1.63-.58,2.2-.79c.24-.13.48-.25.72-.37.48-.24.96-.45,1.43-.67.24-.11.48-.21.71-.32.51-.24,1.02-.46,1.54-.68,1.55-.65,3.13-1.21,4.84-1.6.19-.04.38-.07.55-.1.02,0,.05,0,.07,0,.17-.02.32-.03.47-.04h.1c.06,0,.11,0,.17,0,.04,0,.08,0,.12,0,.06,0,.11.02.16.03.04,0,.07.01.11.02.06.02.12.04.17.06.03,0,.06.02.08.03.08.04.16.08.25.14,0,0,.01,0,.02,0,0,0,.01,0,.02,0,.06.04.12.08.17.13.11.1.19.22.28.37.08.14.15.31.21.49.09.28.16.6.22.95.1.12.2.24.3.35.03.04.07.06.11.1.07.07.14.14.22.2.05.04.09.06.14.1.07.05.14.11.21.15.05.03.11.06.16.09.07.04.14.08.22.12.06.03.12.05.18.07.08.03.16.06.24.08.06.02.14.03.21.05.08.02.17.04.25.06.07.01.15.02.23.03.09,0,.18.02.28.03.08,0,.17,0,.26,0,.12,0,.25,0,.38,0,.22.04.44.06.66.08.07,0,.14,0,.21,0,.14,0,.28.01.42.02.18,0,.37,0,.55-.01.02,0,.05,0,.07,0,.16,0,.31-.02.47-.04.06,0,.12-.02.18-.02.12-.01.23-.03.34-.05.06,0,.13-.02.2-.04.11-.02.21-.04.32-.06l.19-.04c.11-.02.22-.05.32-.08.06-.01.12-.03.18-.05.13-.03.25-.07.38-.1.04,0,.07-.02.11-.03.18-.05.37-.1.55-.15.14-.04.27-.08.41-.12.06-.01.11-.03.17-.05.11-.03.22-.06.33-.09.06-.02.13-.03.19-.05.11-.03.21-.05.31-.07l.19-.04c.11-.02.22-.05.34-.06.06,0,.12-.02.18-.03.15-.03.31-.05.46-.06.02,0,.04,0,.06,0,.18-.02.35-.04.53-.05.06,0,.11,0,.16,0,.15,0,.31,0,.46,0h0s0,0-.01.01h0c-.6.7-1.28,1.27-2,1.73-.36.23-.74.44-1.13.62s-.79.34-1.19.48h0c-.31.1-.62.19-.93.26-.07.02-.15.04-.23.06-.31.07-.63.13-.95.18-.03,0-.06,0-.09.01-.3.04-.6.07-.9.1-.07,0-.15.01-.23.02-.32.02-.65.03-.98.03h-.12c-.43,0-.86-.02-1.29-.05-.18-.01-.37-.04-.55-.06-.18-.02-.37-.05-.55-.07-.17-.02-.33-.03-.49-.06h-.01c-.12-.05-.23-.1-.33-.15s-.21-.11-.31-.17c-1.28-.64-2.12-1.54-2.83-2.72-2.37.41-4.54,1.22-6.57,2.31.2.17.36.34.54.5.31.27.61.55.89.82.57.55,1.09,1.09,1.58,1.64.49.55.95,1.11,1.39,1.68.66.86,1.29,1.75,1.92,2.7h0c.12.21.25.4.39.57.01.02.03.04.04.06.13.17.27.32.42.46l.06.06c.14.13.3.26.45.37.03.02.05.04.08.06.16.11.32.21.49.29.03.01.06.03.08.04.18.08.35.16.54.23.02,0,.05.01.06.02.19.06.39.12.59.16h.02c.2.04.41.07.62.09.02,0,.03,0,.05,0,.21.02.42.03.63.03h.1c.15,0,.3,0,.46-.01h.22c.75-.04,1.49-.11,2.23-.2,2.2-.28,4.33-.77,6.45-1.37,1.76-.5,3.51-1.06,5.26-1.67,4.27-2.03,8.38-4.21,10.76-8.12-1.55-.77-2.55-1.84-2.85-3.17,0-.02-.01-.03-.02-.05-.02-.08-.01-.17-.02-.25-.11-.75-.02-1.57.32-2.46-.14-.15-.28-.3-.41-.44-.26-.3-.5-.59-.71-.88-.21-.29-.39-.58-.52-.86-.2-.42-.31-.82-.29-1.19-.01-.2-.01-.4,0-.58s.04-.37.08-.54v-.02c.01-.06.04-.12.06-.18s.06-.12.08-.18c.12-.32.28-.63.47-.92.13-.19.28-.37.44-.55.24-.26.51-.51.81-.75.11-.04.22-.08.32-.13.21-.1.4-.21.55-.35s.3-.3.39-.49c.05-.09.09-.19.12-.31.03-.11.05-.23.06-.35,0-.12,0-.26,0-.4,0-.13.02-.26.04-.39.05-.37.15-.7.28-1.01.02-.05.04-.1.06-.15.08-.16.18-.31.28-.45.22-.27.48-.5.78-.68.15-.09.31-.18.47-.25h0c.15-.07.31-.13.47-.19.05-.02.11-.03.16-.05.12-.04.23-.07.35-.09.06-.01.13-.02.2-.04.12-.02.24-.03.36-.04.07,0,.14,0,.21-.01.18,0,.36,0,.55.01h0c.54-.74.81-1.53.92-2.35,0-.07.03-.13.05-.2.02-.06.03-.13.04-.2,0-.06-.02-.12-.02-.18h0Z"/>
      </g>
      <path class="cls-1" d="M42.18,41.68c-.01-.06-.03-.12-.04-.19-.05-.2-.11-.39-.16-.59-.04-.15-.08-.31-.12-.46-.12-.39-.25-.78-.4-1.15-.08-.22-.18-.43-.27-.65-.02-.05-.05-.1-.07-.15-.1-.22-.2-.43-.31-.65-.02-.04-.04-.09-.06-.13-.03-.05-.06-.1-.08-.15-.08-.15-.16-.29-.25-.43-.06-.12-.13-.24-.2-.35-.12-.2-.25-.39-.39-.58-.27-.38-.56-.75-.87-1.1-.16-.18-.31-.35-.49-.51-.18-.16-.35-.31-.53-.46-.06-.05-.12-.09-.18-.13-.12-.09-.25-.18-.37-.26-.07-.05-.15-.09-.23-.14-.12-.07-.23-.14-.34-.2-.08-.05-.17-.08-.25-.12-.11-.06-.22-.11-.33-.16-.09-.04-.18-.07-.26-.11-.11-.04-.22-.08-.33-.12-.09-.03-.18-.06-.27-.08-.11-.03-.22-.06-.34-.09-.09-.02-.18-.04-.27-.06-.12-.02-.23-.04-.34-.05-.09,0-.18-.02-.27-.03-.04,0-.09,0-.13,0h-.01c-.06,0-.13,0-.2,0-.09,0-.19,0-.28,0-.08,0-.17,0-.25,0-.11,0-.21.01-.32.03-.04,0-.07,0-.11.01h0s-.09,0-.13.02c-.11.01-.21.04-.32.06-.08.02-.17.03-.25.06-.11.03-.21.06-.31.09-.08.02-.16.05-.24.07-.11.04-.21.08-.32.12-.05.02-.09.04-.14.06,0,0-.02,0-.03.01-.02,0-.04.02-.06.02-.11.05-.22.11-.32.16-.05.02-.1.05-.15.08,0,0-.01,0-.02,0-.01,0-.03.01-.05.02-.12.06-.24.14-.35.21-.05.03-.1.06-.14.09,0,0,0,0-.01,0,0,0-.01,0-.02.01-.18.12-.35.24-.51.37-.04.03-.08.06-.12.08s-.08.06-.12.09c-4.08,3.86-4.98,9.93-2.57,14.95.08.17.17.32.27.48.1.15.19.3.3.44,1.07,1.56,2.62,2.54,4.36,2.84h0c.17.03.34.05.52.06.07,0,.14,0,.21.01.11,0,.22.01.32.01h.23c.14,0,.28,0,.42-.02.06,0,.12,0,.19-.01.19-.02.38-.05.57-.08.07-.01.14-.03.2-.04.14-.03.28-.06.42-.1.07-.02.14-.04.21-.06.2-.06.39-.12.59-.19h0l.04-.02,3.76-1.79s0,0,0,.01h.02c-.9,1.96-1.79,2.5-1.49,3.84,2.81-1.94,4.24-4.64,4.68-7.76.03-.2.06-.41.08-.61.02-.19.03-.38.05-.57v-.05c.03-.42.05-.84.04-1.27-.06-.85-.2-1.67-.38-2.49-.01-.06-.03-.12-.04-.17h0Z"/>
    </g>
  </g>
</svg>
