<?xml version="1.0" encoding="UTF-8"?>
<svg id="Layer_2" data-name="Layer 2" xmlns="http://www.w3.org/2000/svg" viewBox="0 0 75 75">
  <defs>
    <style>
      .cls-1 {
        fill: #11120b;
      }

      .cls-2 {
        fill: #fff;
      }

      .cls-3 {
        fill: none;
      }

      .cls-4 {
        fill: #c0ed08;
      }
    </style>
  </defs>
  <g id="Layer_2-2" data-name="Layer 2">
    <g>
      <g id="Layer_1-2" data-name="Layer 1-2">
        <g>
          <g>
            <path class="cls-2" d="M53.8,17.39c-.14,0-.29,0-.43,0h-.08.02c.19,0,.38,0,.58,0h.1c.22,0,.43.03.65.05-.21-.02-.42-.04-.63-.05-.07,0-.14,0-.2,0ZM59.7,41.82s0,0,0-.01c0,0,0,0,0,.01h0ZM74.12,40.12c0-1.26-.3-2.53-.86-3.73-.58-1.64-2.06-2.8-3.34-3.64-.09-.9-.21-1.82-.37-2.8-.54-3.4-1.44-6.74-2.77-10.22-.78-1.88-1.78-3.77-3.06-5.75-2.7-4.22-6.09-7.53-10.08-9.84-3.95-2.17-8.27-3.5-12.84-3.94l-.36-.04c-.47-.05-.99-.1-1.53-.12-1.66-.07-3-.05-4.33.05-9.42.97-17.91,4.99-24.57,11.63-.79.81-1.57,1.71-2.45,2.84-1.99,2.56-3.58,5.37-4.71,8.38-2.35,6.26-2.65,13.06-.85,19.7,1.73,5.3,4.7,9.93,8.58,13.4.17.15.34.28.51.42l.41.34c.39.33.75.62,1.13.91.05.04.13.09.15.1.6.44,1.33.93,2.05,1.36.47.28,1.02.42,1.56.4.31,1.25.91,2.4,1.76,3.34,1.72,1.91,4.27,2.88,7.11,2.65.24-.02.49-.07.72-.15l3.44-1.22c.14.21.31.4.5.56.05.05.1.09.15.14l.33.31c2.15,1.91,3.58,3.77,5.17,6.13,1.35,2.34,3.85,3.67,6.85,3.67.19,0,.38,0,.54-.01h.12c.09,0,.23,0,.29,0,2.73-.14,5.58-.66,9-1.63,1.75-.5,3.54-1.07,5.31-1.69.09-.03.19-.07.27-.11,4.43-2.1,8.99-4.52,11.72-9.02.41-.67.52-1.49.3-2.25-.22-.75-.75-1.39-1.46-1.74s-1.15-.75-1.27-1.14c0-.05,0-.1-.01-.13-.04-.28,0-.6.15-.98.39-1.01.17-2.17-.58-2.96-.8-.85-1.05-1.28-1.12-1.42v-.29c.02-.05.04-.1.06-.16.07-.2.24-.43.52-.68,1.84-.85,2.84-2.44,2.76-4.39,0-.09.03-.16.05-.23.03-.02.09-.06.19-.11.28-.13.5-.18.77-.15,1,.09,1.98-.35,2.55-1.15.75-1.04,1.22-2.22,1.41-3.53.07-.21.1-.52.11-.68,0-.13,0-.31-.01-.43h-.01ZM73.15,40.92l-.04.14c-.16,1.17-.57,2.24-1.24,3.16-.39.54-1.06.84-1.71.78-.44-.05-.83.03-1.26.24-.33.15-.52.31-.61.49s-.14.38-.17.61v.07c.08,1.59-.75,2.89-2.27,3.57l-.12.08c-.42.38-.69.74-.82,1.1-.02.06-.05.11-.07.17l-.04.12c-.02.12-.02.25,0,.4v.17s0,.07,0,.07c.05.18.27.72,1.37,1.88.5.53.66,1.31.39,1.99-.2.52-.27,1-.21,1.44,0,.02,0,.07.01.12v.07c.23.85,1.09,1.43,1.78,1.77.47.24.83.66.98,1.17.15.51.07,1.06-.2,1.51-2.6,4.28-7.02,6.63-11.33,8.67-.06.03-.12.05-.18.07-1.75.62-3.53,1.18-5.26,1.67-3.34.95-6.14,1.46-8.81,1.6-.06,0-.16,0-.21,0h-.14c-2.9.14-5.32-1.03-6.6-3.23-1.65-2.45-3.11-4.37-5.32-6.33l-.31-.29c-.06-.06-.12-.12-.19-.18-.2-.17-.37-.38-.48-.62l-.22-.36-4.15,1.48c-.15.05-.32.09-.48.1-2.55.2-4.82-.66-6.35-2.35-.83-.92-1.4-2.07-1.63-3.32l-.09-.46-.46.09c-.46.09-.95.01-1.36-.23-.7-.42-1.4-.88-2-1.33-.04-.02-.1-.07-.14-.09-.36-.27-.71-.55-1.09-.87l-.43-.35c-.16-.13-.32-.25-.47-.38-3.77-3.36-6.64-7.85-8.31-12.97-1.75-6.42-1.46-13.03.82-19.11,1.1-2.92,2.64-5.65,4.57-8.14.85-1.1,1.61-1.98,2.37-2.76C17.18,5.88,25.48,1.96,34.67,1.01c1.28-.1,2.59-.11,4.21-.05.51.02,1.02.07,1.48.12l.36.04c4.45.42,8.65,1.71,12.48,3.82,3.86,2.24,7.14,5.45,9.76,9.54,1.24,1.94,2.22,3.78,2.97,5.6,1.3,3.41,2.18,6.69,2.71,10.03.16,1.04.29,2.02.38,2.97l.02.22.19.12c1.19.76,2.64,1.83,3.17,3.33.52,1.12.79,2.26.79,3.43,0,.12.02.25.01.34,0,.2-.04.35-.06.42h0ZM51.78,49.65c-.06,0-.12.01-.17.02h0c.06,0,.11-.02.18-.02h0ZM64.79,35.76c-.05.43-.19.8-.3,1.2.05-.19.12-.38.17-.58.05-.19.1-.39.13-.61,0-.62-.02-1.25-.1-1.86.08.61.11,1.22.1,1.84ZM54.61,48.12c-.03-.08-.05-.15-.08-.23-.03-.04-.05-.07-.09-.11-.08-.11-.17-.22-.25-.33-.11-.14-.23-.28-.34-.42h0c.22.28.45.55.66.85.15.35.23.68.23.99,0-.2-.03-.42-.09-.64,0-.04-.03-.07-.04-.11h0ZM54.72,49.17h0c.02-.09.03-.19.03-.3,0,.1,0,.2-.03.29h0ZM52.73,17.42c-.07,0-.14,0-.2.02-.09,0-.17.02-.25.03.33-.04.65-.07.97-.08h.05-.13c-.14,0-.28.01-.43.03ZM51.99,17.51s-.06,0-.09.01c-.2.04-.41.08-.61.13-.06.01-.12.03-.18.05-.15.04-.29.08-.44.13-.07.02-.14.05-.21.07-.07.03-.14.05-.22.08.64-.24,1.29-.4,1.95-.49-.07,0-.14.01-.2.03h0ZM50.04,18.04c-.06.02-.12.05-.19.07-.2.08-.39.17-.59.27h0c.31-.15.63-.28.95-.41-.06.02-.12.04-.17.06h0ZM35.51,51.32l3.67-1.73s0,0,0-.01l-3.67,1.74h0ZM71.06,37.25c-.37-1.17-1.82-2.19-3.39-3.12-.09-1.21-.24-2.46-.45-3.81-.51-3.24-1.37-6.42-2.64-9.75-.71-1.71-1.64-3.45-2.83-5.32-2.5-3.9-5.62-6.95-9.28-9.07-3.68-2.03-7.57-3.21-11.89-3.63l-.36-.04c-.45-.05-.92-.09-1.39-.11-1.59-.06-2.82-.05-4.06.05-8.84.91-16.82,4.7-23.09,10.95-.71.73-1.43,1.56-2.25,2.62-1.84,2.37-3.31,4.98-4.36,7.76-2.18,5.79-2.45,12.1-.78,18.25,1.58,4.83,4.3,9.07,7.88,12.26.13.11.26.22.4.33.09.07.17.14.25.2l.22.19c.32.27.66.55,1,.81.02.01.04.03.05.04.65.47,1.31.91,1.97,1.31l.39.24.24-.39c.26-.43.49-.84.72-1.24.62-1.09,1.16-2.03,1.99-2.93.15-.14.26-.28.36-.4l.07-.09c.71-.89.89-1.93.55-2.98l-.02-.11c-.49-1.65-1.09-3.31-1.84-5.09-1.07-2.56-2.26-4.85-3.63-7.01-.29-.61-.71-1.04-1.11-1.44,1.19.85,2.17,1.99,3.25,3.47,1.51,2.59,2.79,5.22,3.9,8.03.11.29.24.57.36.85.21.5.42.97.58,1.48.4,1.15.39,2.09-.04,2.79-.15.26-.37.49-.63.69l-.06.05c-.74.79-1.38,1.66-2,2.75-.05.1-.11.19-.17.29-.12.19-.24.39-.36.64l-.03.07v.08c-.19,1.7.3,3.26,1.35,4.43,1.23,1.36,3.08,2.05,5.17,1.88l3.87-1.36.06-.03c.73-.39,1.46-.73,2.17-1.05l.6-.27c2.34-1.08,4.24-1.76,6.13-2.2.33-.06.71-.13,1.03-.13s.59.07.82.23l.11.06h0c.26.21.45.72.59,1.54l.02.12.07.09c.85,1.09,1.94,1.58,3.52,1.58h.12c.44.07.89.1,1.33.1,1.39,0,2.6-.34,3.77-.67.84-.24,1.65-.47,2.51-.57-.9.8-1.98,1.4-3.21,1.81-1.6.54-3.47.73-5.41.57-.3-.02-.61-.06-.9-.1l-.15-.02c-.07,0-.15-.02-.23-.03s-.15-.01-.22-.03c-.13-.05-.25-.12-.37-.18l-.18-.09c-1.07-.54-1.87-1.31-2.58-2.49l-.16-.27-.31.05c-2.25.39-4.4,1.14-6.56,2.31l-.6.32.52.44c.1.09.19.18.28.26.08.07.15.15.24.23,2.33,2.07,3.86,4.06,5.55,6.58,1,1.72,2.69,2.63,4.9,2.63.17,0,.34,0,.57-.01h.16c2.61-.14,5.34-.64,8.58-1.55,1.7-.48,3.44-1.04,5.21-1.66,4.28-2.02,8.32-4.17,10.71-8.12l.26-.43-.45-.23c-1.41-.7-2.28-1.66-2.54-2.78,0-.03-.02-.06-.01-.05,0-.02,0-.05,0-.07,0-.05,0-.09-.01-.14-.1-.69,0-1.41.29-2.17l.1-.27-.2-.21c-1.23-1.3-1.8-2.26-1.76-2.95v-.06c-.03-.33,0-.65.06-.94l.02-.07s.03-.06.04-.09c.03-.05.05-.11.07-.18.24-.67.71-1.28,1.48-1.91,1.48-.54,1.72-1.58,1.65-2.38.03-.48.14-.92.33-1.3.23-.47.65-.85,1.28-1.14.66-.31,1.29-.43,2-.37l.26.03.15-.21c.53-.74.86-1.56.99-2.51,0-.04.02-.08.03-.12.02-.09.05-.19.05-.32,0-.08,0-.14-.02-.19.01-.99-.22-1.99-.7-2.98h.01ZM71.28,40.61c-.02.06-.04.13-.05.2-.11.8-.38,1.58-.9,2.3h0c-.19-.02-.36-.02-.53-.01-.07,0-.14,0-.21.01-.12,0-.24.02-.35.04-.06,0-.13.02-.19.04-.12.03-.23.06-.34.09-.05.02-.1.03-.15.05-.16.05-.31.12-.46.19h0c-.16.08-.31.16-.46.25-.29.18-.55.4-.76.67-.1.14-.2.28-.28.44-.02.05-.04.09-.06.14-.13.3-.23.62-.28.99-.02.12-.03.25-.04.38.03.28,0,.52-.05.73-.03.11-.07.2-.12.3-.09.19-.23.34-.38.47s-.34.24-.54.34c-.1.05-.21.09-.32.13-.29.24-.56.47-.8.73-.16.17-.3.35-.43.53-.09.14-.18.28-.26.43-.08.15-.14.3-.2.46-.02.06-.05.12-.08.18s-.05.12-.06.18v.02c-.04.17-.06.34-.08.52s-.01.37,0,.57c-.02.28.04.57.15.86.04.1.08.2.13.3.13.27.31.55.51.84.2.28.44.57.7.86.13.14.26.29.4.43-.34.87-.42,1.67-.32,2.4.01.08,0,.16.02.24,0,.02.01.03.02.05.29,1.29,1.27,2.35,2.78,3.1-2.33,3.83-6.34,5.96-10.52,7.94-1.71.61-3.42,1.15-5.14,1.64-2.07.58-4.15,1.07-6.3,1.34-.72.09-1.44.16-2.18.2h-.21c-.15,0-.3.01-.45.01h-.1c-.21,0-.42,0-.62-.03-.02,0-.03,0-.05,0-.21-.02-.41-.05-.61-.09h-.02c-.2-.04-.39-.09-.58-.16-.02,0-.05-.01-.06-.02-.18-.06-.35-.14-.52-.22-.03-.01-.05-.03-.08-.04-.17-.09-.33-.18-.48-.28-.03-.02-.05-.04-.08-.05-.15-.11-.3-.23-.44-.36-.02-.02-.04-.04-.06-.06-.14-.14-.28-.29-.41-.45-.01-.02-.03-.04-.04-.05-.14-.18-.26-.36-.38-.56h0c-.62-.93-1.23-1.8-1.88-2.64-.43-.56-.88-1.11-1.36-1.65s-.99-1.07-1.54-1.6c-.28-.27-.57-.53-.87-.8-.19-.16-.33-.33-.53-.49,1.98-1.07,4.11-1.86,6.42-2.26.69,1.16,1.52,2.04,2.77,2.66.1.05.2.11.31.16s.21.1.33.15h.01c.16.03.33.04.48.06.18.02.36.05.54.07.18.02.36.04.54.06.42.03.84.05,1.26.05h.12c.32,0,.64-.01.96-.03.08,0,.15,0,.22-.02.3-.02.59-.05.88-.09.03,0,.06,0,.09-.01.31-.05.62-.11.93-.18.07-.02.14-.04.22-.05.31-.08.61-.16.91-.26h0c.4-.13.79-.28,1.17-.47s.75-.38,1.1-.61c.71-.45,1.37-1.01,1.96-1.7h0s0,0,.01-.01h0c-.15,0-.3,0-.45,0-.05,0-.11,0-.16,0-.18,0-.35.02-.52.05-.02,0-.04,0-.06,0-.15.02-.3.04-.45.06-.06,0-.12.02-.18.03-.11.02-.22.04-.33.06l-.19.04c-.1.02-.21.05-.31.07-.06.01-.13.03-.19.05-.11.03-.21.05-.32.09-.05.01-.11.03-.17.05-.14.04-.27.07-.4.11-.18.05-.36.1-.53.15-.04,0-.07.02-.1.03-.12.04-.25.07-.37.1-.06.01-.12.03-.17.05-.1.03-.21.05-.32.08l-.19.04c-.1.02-.21.05-.31.06-.06.01-.13.02-.19.04-.11.02-.22.04-.33.05-.06,0-.12.02-.18.02-.15.02-.3.03-.46.04-.02,0-.05,0-.07,0-.18,0-.35.01-.53.01-.14,0-.27,0-.41-.02-.07,0-.14,0-.21,0-.21-.02-.42-.04-.64-.08-.13,0-.25,0-.37,0-.09,0-.17,0-.25,0-.09,0-.18-.02-.27-.03-.08,0-.15-.02-.23-.03-.09-.01-.17-.04-.25-.05-.07-.02-.14-.03-.2-.05-.08-.02-.15-.05-.23-.08-.06-.02-.12-.04-.18-.07-.08-.03-.14-.07-.22-.11-.05-.03-.11-.05-.16-.09-.07-.05-.14-.09-.21-.14-.05-.03-.09-.06-.14-.09-.07-.06-.14-.13-.22-.19-.03-.03-.07-.06-.1-.09-.1-.1-.2-.22-.29-.34-.03-.17-.06-.34-.09-.49-.04-.15-.08-.3-.12-.44-.06-.18-.13-.34-.21-.48-.08-.14-.17-.26-.27-.36-.05-.05-.1-.09-.16-.13,0,0-.01,0-.02,0,0,0-.01,0-.02,0-.08-.05-.16-.1-.24-.14-.03-.01-.05-.02-.08-.03-.05-.02-.11-.05-.17-.06-.04,0-.07-.02-.1-.02-.05-.01-.1-.02-.16-.03-.04,0-.08,0-.12,0-.05,0-.11,0-.16,0h-.09c-.15,0-.3.01-.46.04-.02,0-.05,0-.07,0-.17.02-.35.05-.54.09-.42.09-.83.2-1.23.32-1.21.34-2.37.77-3.5,1.25-.51.21-1,.43-1.51.66-.23.11-.47.21-.7.32-.47.21-.93.42-1.4.65-.24.12-.47.24-.71.37l-2.15.77-1.6.57c-.21.02-.41.02-.61.02-.09,0-.18,0-.28-.01-.12,0-.24,0-.36-.02-.09,0-.18-.02-.27-.04-.11-.02-.23-.03-.33-.05-.09-.02-.18-.04-.26-.06-.1-.03-.21-.05-.31-.09-.09-.03-.17-.06-.25-.09-.1-.04-.2-.07-.29-.11-.08-.04-.16-.07-.24-.11-.09-.05-.19-.09-.27-.14-.08-.04-.15-.09-.23-.14-.09-.05-.17-.11-.25-.17-.07-.05-.14-.1-.21-.15-.08-.06-.15-.13-.23-.19-.06-.06-.13-.11-.19-.18-.07-.07-.14-.14-.2-.21-.06-.06-.11-.13-.17-.19-.06-.08-.12-.16-.18-.24-.05-.07-.1-.14-.14-.21-.05-.09-.1-.17-.15-.26-.04-.07-.08-.15-.12-.23-.05-.09-.09-.19-.12-.28-.03-.08-.07-.15-.09-.24-.04-.1-.06-.21-.09-.32-.02-.08-.05-.16-.07-.24-.03-.11-.04-.24-.06-.35-.01-.08-.03-.16-.04-.24-.01-.14-.02-.27-.02-.41,0-.07,0-.14,0-.21,0-.21,0-.42.03-.65h0c.04-.09.08-.16.12-.24.13-.23.26-.43.39-.66.28-.5.58-.96.9-1.41.32-.44.66-.86,1.04-1.26.33-.24.57-.52.75-.83.34-.56.44-1.21.37-1.9-.04-.42-.14-.85-.3-1.28-.02-.07-.05-.14-.08-.22-.17-.47-.36-.93-.56-1.38-.11-.25-.22-.5-.32-.76-.28-.7-.56-1.39-.86-2.07-.3-.68-.61-1.36-.94-2.03-.65-1.34-1.36-2.67-2.13-4-1.48-2.01-2.89-3.64-5.18-4.62,0,0,0,0,0,0h0s0,0-.02,0c.09.29.24.52.38.74.07.11.14.21.22.3.15.19.32.37.49.54.34.35.69.68.96,1.11.07.11.13.22.19.34.71,1.12,1.37,2.26,1.97,3.42.6,1.16,1.14,2.34,1.65,3.55.34.81.66,1.63.97,2.47s.59,1.7.85,2.58c0,.03,0,.06.02.09.32.97.13,1.83-.46,2.58-.06.07-.12.15-.18.22-.06.07-.13.14-.2.21-.31.33-.57.66-.82,1-.73,1.01-1.25,2.07-1.98,3.27-.67-.4-1.31-.83-1.93-1.29-.02-.01-.03-.02-.05-.03-.21-.15-.41-.32-.61-.48s-.4-.33-.6-.5c-.1-.09-.22-.17-.33-.26s-.22-.17-.32-.26c-1.33-1.18-2.53-2.51-3.6-3.95-.71-.96-1.36-1.98-1.95-3.04-.88-1.59-1.61-3.29-2.2-5.07-.21-.77-.39-1.55-.54-2.31s-.26-1.54-.35-2.31c-.04-.38-.08-.77-.1-1.15-.08-1.14-.09-2.27-.05-3.39.07-1.52.26-3.01.56-4.49.09-.47.21-.92.33-1.38.13-.49.27-.98.42-1.47s.32-.97.5-1.45c.08-.2.16-.41.24-.61.11-.28.23-.57.36-.84.23-.52.47-1.03.72-1.54.83-1.62,1.82-3.18,2.97-4.66.69-.89,1.41-1.75,2.21-2.58,2.7-2.69,5.73-4.92,9.01-6.66.94-.5,1.9-.95,2.87-1.37.98-.42,1.98-.79,2.99-1.12s2.05-.62,3.1-.86c1.05-.24,2.12-.45,3.2-.61.54-.08,1.08-.14,1.63-.2.36-.03.72-.05,1.08-.06.12,0,.24,0,.36,0,.24,0,.47-.01.71-.01h.28c.52,0,1.05.01,1.57.04.29.01.58.04.87.06.29.03.57.06.86.09.05,0,.11.01.16.02,2.49.25,4.91.77,7.27,1.62,1.45.52,2.87,1.16,4.28,1.93.96.56,1.86,1.17,2.72,1.83s1.65,1.37,2.41,2.12,1.46,1.54,2.12,2.37,1.28,1.7,1.86,2.61c.79,1.24,1.53,2.52,2.18,3.87.22.45.42.91.62,1.38.3.8.59,1.6.85,2.39s.5,1.59.72,2.39.41,1.6.59,2.41.33,1.63.46,2.46c.2,1.3.37,2.63.47,4h0c.8.48,1.57.97,2.18,1.47s1.06,1.02,1.21,1.55c.12.24.22.48.3.72.26.71.37,1.41.36,2.08,0,.06.02.12.02.18,0,.07-.02.13-.04.2v.03ZM64.69,33.91c-.33-2.66-1.51-5.12-3.28-7.07,1.77,1.96,2.95,4.42,3.28,7.07ZM37.7,53.11c-.14-1.14.67-1.72,1.5-3.52h-.02c-.22.48-.44.88-.64,1.21-.07.12-.14.23-.2.33-.08.13-.15.24-.21.36-.08.14-.15.27-.22.4-.11.24-.19.46-.22.7-.02.16-.01.33,0,.52v.02c0,.07.01.14.03.22h0c-.02-.08-.03-.15-.04-.22v-.03h0ZM58.78,19.02c.24.17.47.34.7.54-.23-.19-.46-.37-.7-.54ZM55.57,17.61c.25.05.49.12.74.19-.12-.04-.24-.08-.37-.11-.12-.03-.25-.05-.37-.08h0ZM57.19,18.13c-.28-.12-.57-.22-.85-.31.55.17,1.08.4,1.59.67-.05-.02-.09-.05-.13-.08-.2-.1-.4-.2-.61-.28ZM55.44,17.58c-.27-.05-.53-.1-.8-.13.27.03.54.08.8.13ZM56.34,17.82s-.03,0-.04-.01c.01,0,.03,0,.04.01ZM55.57,17.61s-.09-.02-.13-.03c.04,0,.09.02.13.03ZM35.47,51.35c-.1.04-.21.07-.32.1.11-.04.22-.07.33-.11l.04-.02-.04.02h0ZM50.92,50.13s.07-.09.1-.13c-.04.04-.07.08-.1.13ZM49.95,51.71s.09-.09.14-.14c.1-.1.2-.23.3-.38.05-.08.1-.16.15-.24.04-.1.07-.2.11-.29.04-.09.08-.18.12-.25.05-.1.11-.19.17-.27-.15.2-.28.47-.4.8-.19.35-.4.61-.58.77h0ZM51.03,50s.05-.05.07-.07c-.02.02-.05.05-.07.07ZM51.3,49.78c-.07.04-.14.09-.2.15.06-.06.13-.11.2-.15ZM34.08,51.73c-.19.03-.37.06-.56.08-.06,0-.12,0-.19.01-.14,0-.27.02-.41.02h-.22c-.09,0-.18,0-.26,0,.09,0,.18,0,.26,0h.2c.16,0,.32,0,.48-.02.04,0,.08,0,.12,0,.19-.02.39-.05.59-.08.05,0,.1-.02.14-.03.07-.01.14-.03.21-.05-.06.01-.11.03-.17.04-.07.01-.14.03-.2.04h0ZM59.69,41.81h0c-.04-.07-.08-.14-.12-.22-.04-.08-.08-.16-.11-.26h0c.07.19.15.34.24.48h0ZM59.45,41.32h0c.42-.05.81-.14,1.18-.26s.71-.25,1.02-.4h0c-.63.31-1.36.53-2.2.66ZM61.26,43.58c.36-.09.71-.2,1.06-.36.18-.08.35-.16.52-.26h0c-.69.39-1.39.62-2.11.72.18-.03.36-.06.54-.1ZM61.77,42.61c-.28-.02-.56-.02-.82-.04-.13,0-.26-.03-.38-.06-.06-.01-.12-.03-.18-.05-.12-.05-.23-.11-.34-.19s-.21-.19-.3-.33c.76,1.13,1.93.29,3.08,1.03h0c-.27-.17-.54-.26-.81-.31-.09-.01-.18-.03-.27-.03h0ZM32.19,51.81s-.06,0-.09-.01c.03,0,.06,0,.09.01h0c.05,0,.11,0,.17,0h.09-.05c-.07,0-.14,0-.2-.01h0ZM34.69,51.59s.01,0,.02,0c.06-.01.11-.03.17-.05h.01c.09-.03.17-.06.26-.09-.09.03-.17.06-.26.09-.07.02-.14.04-.2.05h0ZM34.45,51.65c.08-.02.16-.04.24-.05h0c-.08.02-.16.04-.24.05ZM31.68,51.74h0c.14.02.28.04.42.05-.14-.01-.28-.03-.42-.05h0ZM54.65,49.38s-.03.06-.05.09c-.02.04-.05.07-.07.11-.14.19-.36.35-.68.46.2-.07.38-.15.5-.25.05-.04.1-.09.14-.14.02-.02.03-.05.05-.07.03-.04.05-.07.07-.11,0-.01.02-.03.03-.05,0-.01,0-.03.02-.05.03-.06.05-.13.07-.2h0s-.01.04-.02.06c-.01.05-.03.1-.05.15ZM51.79,49.64h0s.05,0,.07,0c.03,0,.06.01.1.02.08.02.18.05.3.09.06.02.14.05.21.07.18.06.39.13.66.22.09.03.18.06.28.09.11-.02.2-.04.29-.06.03,0,.05-.02.08-.03-.11.04-.24.06-.38.09-1.07-.36-1.47-.5-1.62-.5h0ZM53.85,50.04s-.04.01-.06.02c.02,0,.04-.01.06-.02ZM63.06,39.62c-.08.08-.16.16-.24.24.08-.08.16-.15.24-.24ZM62.59,40.06s-.1.07-.15.11c.05-.04.1-.07.15-.11ZM62.68,39.99s.09-.09.14-.14c-.08.07-.15.14-.24.2.03-.02.06-.05.09-.07ZM62.44,40.17c-.09.07-.19.14-.29.21.1-.06.19-.14.29-.21ZM64.05,38.17c.09-.19.18-.38.25-.59-.07.2-.16.4-.25.59ZM63.27,39.4c-.07.08-.14.15-.21.23.07-.08.14-.15.21-.23ZM62.14,40.38c-.15.1-.31.19-.48.28.17-.09.33-.18.48-.28ZM61.65,40.66s0,0,0,0h0ZM63.6,38.97c-.1.15-.21.29-.33.43.12-.14.23-.28.33-.43ZM63.93,38.4c-.06.11-.12.22-.19.33.06-.11.13-.22.19-.33ZM63.74,38.73c-.05.08-.09.16-.15.24.05-.08.1-.16.15-.24ZM64.05,38.17c-.04.08-.08.16-.12.24.04-.08.08-.15.12-.24ZM29.28,50.8c-.34-.23-.67-.49-.98-.78.3.29.63.56.98.78ZM30.44,51.4s.1.03.16.05c-.08-.03-.16-.06-.24-.09.03.01.05.03.08.04ZM30.92,51.56c-.11-.03-.21-.07-.32-.1.1.04.21.07.32.1ZM31.13,51.62c-.07-.02-.14-.04-.21-.06.07.02.14.04.21.06ZM31.68,51.74c-.19-.03-.37-.07-.55-.12.18.05.37.09.55.12ZM30.36,51.36c-.16-.06-.32-.14-.47-.21.15.08.31.15.47.21ZM37.74,53.35h0c.34-.23.67-.47.97-.74s.58-.53.85-.81c.39-.42.74-.87,1.05-1.33.06-.09.11-.19.16-.28-.74,1.2-1.73,2.26-3.03,3.16ZM42.23,46.33c.04-.19.06-.38.09-.57-.03.23-.07.46-.12.68,0-.04.02-.08.03-.11h0ZM41.17,49.51c.05-.09.09-.19.13-.29-.09.19-.19.38-.29.57.05-.09.11-.18.16-.28ZM41.63,48.49c.04-.09.06-.19.09-.28-.07.19-.14.38-.22.56.04-.09.09-.19.13-.28Z"/>
            <path class="cls-4" d="M34.46,38.44c-1.28,1.79-.75,4.29,1.22,5.39,1.12.22,2-.09,2.37-.57.57-.84.77-1.79.42-3.17-.85-2.04-2.55-2.66-4.01-1.65h0ZM54.59,30.95c-.98,0-1.82.55-2.26,1.35-.15.27-.25.57-.29.89-.02.12-.04.23-.04.35,0,.71.28,1.35.75,1.82.22.22.47.4.76.53.33.15.7.25,1.09.25,1.43,0,2.59-1.16,2.59-2.59s-1.16-2.59-2.59-2.59h0ZM71.3,40.23c0-.51-.05-1.02-.19-1.55-.05-.18-.1-.35-.17-.53-.09-.24-.19-.48-.3-.72-.08-.27-.23-.53-.44-.79-.21-.26-.47-.52-.78-.76-.61-.5-1.38-.99-2.18-1.46h0c-.09-1.39-.26-2.72-.47-4.02-.13-.83-.28-1.65-.46-2.46s-.37-1.61-.59-2.41-.46-1.59-.72-2.39-.54-1.59-.85-2.39c-.19-.47-.4-.93-.62-1.38-.16-.34-.33-.67-.5-1-.52-.99-1.08-1.94-1.68-2.87-.58-.9-1.2-1.78-1.86-2.61s-1.37-1.62-2.12-2.37-1.55-1.46-2.41-2.12c-.85-.66-1.76-1.27-2.72-1.83-.35-.19-.7-.38-1.06-.56-1.06-.53-2.13-.99-3.22-1.38-2.36-.85-4.79-1.37-7.27-1.62-.05,0-.11-.01-.16-.02-.29-.03-.57-.06-.86-.09-.29-.03-.58-.05-.87-.06-.52-.02-1.04-.03-1.57-.04h-.28c-.24,0-.47,0-.71.01-.12,0-.24,0-.36,0-.36.01-.72.03-1.08.06-.55.06-1.09.13-1.63.2-1.08.16-2.15.36-3.2.61-1.05.24-2.08.53-3.1.86s-2.01.7-2.99,1.12c-.98.42-1.94.87-2.87,1.37-3.29,1.74-6.31,3.97-9.01,6.66-.8.82-1.53,1.7-2.21,2.58-1.15,1.48-2.14,3.04-2.97,4.66-.26.51-.5,1.02-.72,1.54-.12.28-.24.56-.36.84-.08.2-.17.4-.24.61-.36.95-.66,1.93-.92,2.91-.12.46-.23.92-.33,1.38-.3,1.47-.49,2.97-.56,4.49-.05,1.12-.04,2.25.05,3.39.03.38.06.76.1,1.15.09.77.2,1.54.35,2.31s.33,1.54.54,2.31c.58,1.78,1.32,3.48,2.2,5.07.59,1.06,1.24,2.07,1.95,3.04,1.07,1.44,2.27,2.77,3.6,3.95.1.09.21.18.32.26.11.09.22.17.33.26.2.17.4.33.6.5s.4.33.61.48c.02.01.03.02.05.03.62.46,1.27.89,1.93,1.29.73-1.2,1.25-2.26,1.98-3.27.24-.34.51-.67.82-1,.08-.07.14-.14.2-.21.06-.07.12-.15.18-.22.59-.75.78-1.61.46-2.58,0-.03,0-.06-.02-.09-.27-.88-.55-1.74-.85-2.58s-.63-1.66-.97-2.47c-.51-1.21-1.05-2.39-1.65-3.55-.6-1.16-1.25-2.3-1.97-3.42-.05-.12-.12-.24-.19-.34-.27-.43-.62-.77-.96-1.11-.17-.17-.34-.35-.49-.54-.08-.09-.15-.2-.22-.3-.15-.22-.29-.45-.38-.74,0,0,0,0,.02,0h0s0,0,0,0c2.29.97,3.71,2.61,5.18,4.62.77,1.32,1.48,2.65,2.13,4,.33.67.64,1.35.94,2.03.3.68.59,1.37.86,2.07.1.26.21.51.32.76.19.45.39.9.56,1.38.03.07.05.14.08.22.15.44.25.87.3,1.28.07.69-.03,1.34-.37,1.9-.18.3-.42.58-.75.83-.38.4-.72.82-1.04,1.26-.32.44-.61.91-.9,1.41-.13.23-.26.42-.39.66-.04.08-.08.15-.12.24h0c-.02.22-.03.43-.03.65,0,.07,0,.14,0,.21,0,.14,0,.28.02.41,0,.08.03.16.04.24.02.12.04.24.06.35.02.08.05.16.07.24.03.1.06.21.09.32.03.08.06.16.09.24.04.09.08.19.12.28.04.08.08.15.12.23.05.09.1.18.15.26.05.07.09.14.14.21.06.08.12.16.18.24.05.07.11.13.17.19.07.07.13.14.2.21.06.06.13.12.19.18.07.06.15.13.23.19.07.05.14.1.21.15.08.06.16.11.25.17.07.05.15.09.23.14.09.05.18.09.27.14.08.04.16.08.24.11.09.04.19.08.29.11.09.03.17.06.25.09.1.03.21.06.31.09.09.02.18.05.26.06.11.02.22.04.33.05.09.01.18.03.27.04.12.01.24.02.36.02.09,0,.18.01.28.01.2,0,.41,0,.61-.02l1.6-.57,2.15-.77c.24-.13.47-.25.71-.37.47-.23.94-.44,1.4-.65.23-.1.47-.21.7-.32.5-.23,1-.45,1.51-.66,1.51-.64,3.06-1.18,4.73-1.57.19-.04.37-.07.54-.09.02,0,.05,0,.07,0,.16-.02.32-.03.46-.04h.09c.05,0,.11,0,.16,0,.04,0,.08,0,.12,0,.05,0,.11.02.16.03.04,0,.07.01.1.02.06.02.11.04.17.06.03,0,.05.02.08.03.08.04.16.08.24.14,0,0,.01,0,.02,0,0,0,.01,0,.02,0,.06.04.11.08.16.13.1.09.19.22.27.36.08.14.14.3.21.48.09.27.16.58.22.93.09.12.19.24.29.34.03.04.07.06.1.09.07.07.14.14.22.19.05.04.09.06.14.09.07.05.14.1.21.14.05.03.11.06.16.09.07.04.14.08.22.11.06.03.12.05.18.07.08.03.15.06.23.08.06.02.14.03.2.05.08.02.16.04.25.05.07.01.15.02.23.03.09,0,.18.02.27.03.08,0,.17,0,.25,0,.12,0,.24,0,.37,0,.22.04.43.06.64.08.07,0,.14,0,.21,0,.14,0,.28.01.41.02.18,0,.36,0,.53-.01.02,0,.05,0,.07,0,.15,0,.3-.02.46-.04.06,0,.12-.02.18-.02.11-.01.23-.03.33-.05.06,0,.13-.02.19-.04.1-.02.21-.04.31-.06l.19-.04c.1-.02.21-.05.32-.08.06-.01.12-.03.17-.05.13-.03.25-.07.37-.1.04,0,.07-.02.1-.03.18-.05.36-.1.53-.15.14-.04.27-.08.4-.11.05-.01.11-.03.17-.05.11-.03.21-.06.32-.09.06-.02.13-.03.19-.05.1-.03.21-.05.31-.07l.19-.04c.11-.02.22-.05.33-.06.06,0,.12-.02.18-.03.15-.03.3-.05.45-.06.02,0,.04,0,.06,0,.17-.02.34-.04.52-.05.05,0,.11,0,.16,0,.15,0,.3,0,.45,0h0s0,0-.01.01h0c-.59.68-1.25,1.24-1.96,1.7-.35.23-.72.43-1.1.61s-.77.33-1.17.47h0c-.3.1-.61.19-.91.26-.07.02-.14.04-.22.05-.31.07-.61.13-.93.18-.03,0-.06,0-.09.01-.29.04-.59.07-.88.09-.07,0-.15.01-.22.02-.32.02-.64.03-.96.03h-.12c-.42,0-.84-.02-1.26-.05-.18-.01-.36-.04-.54-.06-.18-.02-.36-.05-.54-.07-.16-.02-.33-.03-.48-.06h-.01c-.12-.05-.22-.09-.33-.15s-.2-.11-.31-.16c-1.25-.62-2.07-1.51-2.77-2.66-2.31.4-4.43,1.19-6.42,2.26.19.17.35.33.53.49.3.27.59.53.87.8.56.53,1.06,1.07,1.54,1.6.48.54.93,1.08,1.36,1.65.65.84,1.26,1.71,1.88,2.64h0c.12.2.24.39.38.56.01.02.03.04.04.05.13.16.27.31.41.45l.06.06c.14.13.29.25.44.36.03.02.05.04.08.05.15.1.32.2.48.28.03.01.05.03.08.04.17.08.34.16.52.22.02,0,.05.01.06.02.19.06.38.12.58.16h.02c.2.04.4.07.61.09.02,0,.03,0,.05,0,.2.02.41.03.62.03h.1c.15,0,.29,0,.45-.01h.21c.73-.04,1.46-.11,2.18-.2,2.15-.27,4.24-.75,6.3-1.34,1.72-.49,3.43-1.04,5.14-1.64,4.18-1.98,8.19-4.11,10.52-7.94-1.51-.75-2.49-1.8-2.78-3.1,0-.02-.01-.03-.02-.05-.02-.08-.01-.16-.02-.24-.11-.73-.02-1.53.32-2.4-.14-.14-.27-.29-.4-.43-.26-.29-.49-.58-.7-.86-.2-.28-.38-.57-.51-.84-.2-.41-.3-.8-.28-1.17-.01-.2-.01-.39,0-.57s.04-.36.08-.52v-.02c.01-.06.04-.12.06-.18s.05-.11.08-.18c.11-.32.27-.61.46-.89.13-.19.27-.36.43-.53.24-.26.5-.5.8-.73.11-.04.22-.08.32-.13.2-.09.39-.2.54-.34s.29-.29.38-.47c.05-.09.09-.19.12-.3.03-.11.05-.22.06-.34,0-.12,0-.25,0-.39,0-.13.02-.26.04-.38.05-.36.14-.69.28-.99.02-.05.04-.1.06-.14.08-.16.17-.31.28-.44.21-.27.47-.49.76-.67.14-.09.3-.17.46-.25h0c.15-.07.3-.13.46-.19.05-.02.1-.03.15-.05.11-.04.23-.07.34-.09.06-.01.13-.02.19-.04.11-.02.23-.03.35-.04.07,0,.14,0,.21-.01.17,0,.35,0,.53.01h0c.52-.72.79-1.5.9-2.3,0-.07.03-.13.05-.2.02-.06.03-.13.04-.2,0-.06-.02-.12-.02-.18h0ZM25.11,32.56c-.29.38-.57.77-.84,1.18-.14.21-.27.42-.39.64h0s0,0,0,.01c-.06.07-.13.13-.19.17-.06.05-.11.09-.17.12,0,0-.01.01-.02.01-.06.04-.12.05-.17.06-.01,0-.03,0-.04,0-.05,0-.1,0-.15-.02,0,0,0,0,0,0-.05-.02-.09-.05-.13-.09-.01,0-.02-.02-.04-.03-.05-.05-.09-.1-.13-.16-.04-.06-.08-.11-.12-.18-.02-.03-.04-.06-.05-.1.07-.19.14-.37.21-.56.03-.07.05-.14.08-.21.12-.33.25-.65.38-.97.61-1.51,1.37-2.95,2.46-4.17.22-.24.44-.48.68-.71s.49-.44.77-.64c.31-.22.61-.43.9-.64.13-.09.26-.19.39-.27.04-.03.08-.05.12-.08.09-.06.18-.12.28-.18.05-.03.1-.06.15-.09.09-.05.17-.09.25-.14.05-.03.11-.05.16-.08.09-.04.17-.08.26-.11.05-.02.11-.05.17-.07.09-.04.19-.06.28-.09.05-.01.1-.03.16-.05.12-.03.24-.05.36-.07.04,0,.07-.01.1-.02.15-.02.32-.03.48-.03.19,0,.38.01.57.04.2.05.37.11.52.19s.28.16.38.26c.07.06.13.13.19.19.15.2.23.43.19.68,0,.08-.01.14-.03.21-.02.08-.05.16-.09.23-.05.11-.12.21-.21.3,0,0,0,.02-.01.03-.04.04-.08.07-.13.09s-.1.05-.14.09c-.16.12-.31.24-.51.33-.95.3-1.85.69-2.69,1.17-.28.16-.56.33-.83.51-.54.36-1.06.76-1.55,1.2s-.96.93-1.41,1.46c-.15.18-.29.36-.44.54h-.01ZM42.39,45.17c-.02.2-.05.4-.08.6-.03.19-.05.38-.09.57-.14.75-.33,1.47-.6,2.16-.14.34-.28.68-.45,1.01s-.36.65-.56.96c-.31.47-.66.91-1.05,1.33-.26.28-.55.55-.85.81-.3.26-.62.51-.97.75h0s0-.01,0-.01c-.14-.57-.05-1,.17-1.46.06-.13.14-.26.22-.4.07-.11.14-.24.21-.36.06-.1.13-.21.2-.33.2-.34.42-.73.64-1.2l-3.67,1.73-.04.02c-.2.08-.4.14-.6.19-.06.02-.11.03-.17.05-.15.04-.31.08-.47.11-.05,0-.1.02-.14.03-.2.04-.39.06-.59.08-.04,0-.08,0-.12,0-.16.01-.32.02-.48.02h-.18c-.12,0-.24,0-.37-.01-.05,0-.11,0-.17,0-.17-.01-.34-.04-.52-.06h0c-.21-.04-.42-.08-.63-.14-.21-.06-.41-.12-.61-.2-1.19-.46-2.24-1.29-3.02-2.43-.1-.14-.19-.28-.29-.43s-.18-.3-.26-.47c-2.35-4.9-1.48-10.84,2.51-14.61.04-.03.08-.06.12-.09s.08-.05.12-.08c.16-.13.33-.25.5-.37.06-.04.12-.07.17-.11.11-.07.23-.14.34-.21.07-.04.14-.07.21-.11.1-.05.21-.11.32-.15.08-.03.15-.06.23-.09.1-.04.21-.08.31-.12.08-.03.16-.05.24-.07.1-.03.2-.06.31-.09l.24-.05c.1-.02.21-.04.31-.05.08-.01.16-.02.24-.03.1-.01.21-.02.31-.03.08,0,.16,0,.24,0h.28c.11,0,.23,0,.34.02.09,0,.18.02.27.03.11.01.22.03.33.05.09.02.18.03.27.05.11.03.22.05.33.09.09.02.18.05.26.08.11.04.22.08.33.12.09.03.17.06.25.1.11.05.22.1.33.15.08.04.16.08.24.12.11.06.22.13.33.2.07.05.15.09.22.14.12.08.24.17.36.26.06.05.12.09.18.13.18.14.35.29.52.45.16.16.32.33.47.5.3.34.59.7.85,1.08.13.19.26.38.38.57.19.29.36.6.52.91.16.3.31.6.44.91.09.21.18.42.26.64.27.7.49,1.41.67,2.15.22.91.38,1.84.45,2.79,0,.63-.02,1.24-.09,1.84h0ZM48.79,19.73c0-.07.02-.14.03-.21,0-.01,0-.03.01-.05.06-.29.2-.64.42-1.08h0c.19-.11.39-.19.59-.28.06-.03.12-.05.19-.07.14-.05.28-.11.42-.15.07-.02.14-.05.21-.07.14-.05.29-.09.44-.13.06-.01.12-.03.18-.05.2-.05.41-.09.61-.13.03,0,.06,0,.09-.01.18-.03.35-.05.53-.07.07,0,.14-.01.2-.02.14-.01.28-.02.43-.03.07,0,.14,0,.21,0,.14,0,.29,0,.43,0,.07,0,.14,0,.2,0,.21,0,.42.03.63.05.44.05.88.13,1.31.24s.85.26,1.26.43c.2.09.41.18.61.28.3.15.59.33.87.52.28.19.56.4.82.63.36.31.71.65,1.04,1.03-.25-.03-.5-.05-.74-.09-.08,0-.16-.02-.24-.03-.17-.02-.33-.05-.5-.07-.09-.01-.18-.03-.26-.04-.17-.03-.34-.05-.51-.08-.28-.05-.56-.09-.84-.14h-.03c-.22-.04-.43-.07-.64-.1-.07,0-.14-.02-.2-.03-.16-.02-.32-.04-.47-.06-.08,0-.15-.02-.24-.03-.16-.02-.32-.03-.48-.04-.07,0-.14,0-.2-.01-.23-.01-.45-.02-.67-.02-.18,0-.35,0-.52.01-.05,0-.1,0-.15,0-.13,0-.27.02-.4.04-.05,0-.11.01-.16.02-.17.02-.35.05-.52.08h-.02c-.18.04-.37.08-.55.13-.05.01-.11.03-.16.05-.14.04-.28.08-.42.13-.05.02-.11.04-.17.06-.19.07-.38.14-.57.23-.1.05-.2.08-.3.11-.03,0-.05.01-.08.02-.08.02-.15.04-.23.05-.02,0-.04,0-.05,0-.09,0-.16.01-.24.01-.1,0-.2-.01-.3-.04-.02,0-.04-.01-.06-.02-.07-.02-.14-.05-.21-.08-.03-.01-.05-.03-.08-.05-.05-.04-.11-.08-.16-.12-.02-.02-.04-.04-.06-.06-.07-.07-.13-.14-.18-.22h0s-.02-.05-.03-.07c-.03-.07-.06-.14-.07-.22,0-.06,0-.12,0-.19h0ZM54.72,49.17c-.04.18-.11.34-.23.48-.04.05-.09.09-.14.14-.21.17-.51.29-.93.37-.4-.13-.71-.23-.94-.31-.08-.03-.15-.05-.21-.07-.13-.04-.23-.07-.3-.09-.04,0-.07-.02-.1-.02s-.05,0-.07,0c-.06,0-.12.01-.18.02-.01,0-.03,0-.05,0h0c-.35.08-.6.33-.8.72-.08.16-.15.34-.22.54-.05.09-.09.17-.15.24-.1.15-.2.28-.3.38-.05.05-.1.1-.14.14l-.02.02s-.09.08-.13.11h0s-.03.03-.04.04c-.03.02-.05.04-.07.05-.01,0-.02.01-.03.02-.02,0-.03.02-.05.02,0,0-.01,0-.02,0,0,0-.02,0-.02,0-.14.04-.26.07-.38.08-.04,0-.07,0-.11,0-.08,0-.16,0-.23,0-.04,0-.07,0-.1,0-.07,0-.14-.02-.19-.04-.03,0-.06-.01-.09-.02-.08-.03-.15-.06-.21-.1,0,0-.02,0-.03-.01-.08-.05-.14-.1-.21-.17-.02-.02-.04-.04-.05-.06-.05-.05-.09-.1-.13-.16-.02-.03-.04-.05-.06-.08-.04-.06-.08-.12-.12-.19-.02-.03-.03-.05-.05-.08-.05-.09-.1-.19-.15-.3-.04-.5-.07-.99-.08-1.49,0-.33,0-.66,0-.99.02-.65.09-1.29.23-1.91.24-1.08.69-2.11,1.5-3.01h0c.37.12.7.27,1.02.42.16.08.32.16.47.24.14.08.28.17.42.25.14.09.26.18.39.28.35.24.67.52.98.8.16.14.32.29.47.45s.31.31.45.47c.19.21.38.43.56.66.23.28.46.56.68.85.19.46.27.9.19,1.28h0ZM64.66,36.38c-.05.19-.12.38-.17.58-.33,1.22-.9,2.27-1.82,3.03-.3.25-.65.48-1.03.66-.32.16-.66.29-1.02.4s-.76.2-1.18.27c.04.1.07.19.11.26s.08.15.12.22c.02.04.04.09.06.12.09.14.2.25.3.33.11.09.22.15.34.19.06.02.12.04.18.05.12.03.25.05.38.06.26.02.53.01.82.04.35.03.71.11,1.08.34h0,0c-.17.09-.35.19-.52.26-.35.15-.71.27-1.06.36-.18.04-.36.08-.54.1-.03,0-.05.01-.08.02-.25.03-.51.05-.76.05h-.05c-.22,0-.44-.01-.66-.04-.04,0-.07,0-.11-.01-.22-.03-.43-.06-.65-.11-.04,0-.08-.02-.12-.03-.22-.05-.43-.11-.65-.18-.03,0-.05-.02-.08-.03-.22-.07-.43-.15-.65-.25,0,0-.02,0-.03-.01-.22-.09-.43-.2-.65-.31-.03-.02-.07-.03-.1-.05-.21-.11-.41-.23-.61-.36-.04-.02-.07-.05-.11-.07-.2-.13-.4-.26-.6-.41-.03-.02-.06-.04-.09-.06-.21-.15-.41-.31-.61-.47-.23-.22-.45-.44-.66-.67-.21-.23-.42-.47-.62-.71-.99-1.2-1.79-2.54-2.36-3.96-.12-.28-.22-.57-.32-.86-.1-.3-.19-.6-.28-.9s-.15-.61-.22-.92c-.13-.61-.21-1.24-.26-1.86-.02-.31-.04-.63-.04-.94,0-.24,0-.47.01-.71.03-.71.11-1.42.25-2.12.07-.21.14-.42.23-.61.09-.2.18-.39.27-.57h0s0-.02,0-.03c.02-.04.05-.07.08-.11.12-.21.24-.4.38-.59.04-.05.07-.1.11-.14.12-.16.25-.32.38-.46.02-.02.04-.05.06-.07.15-.16.31-.31.48-.45.04-.04.09-.07.13-.1.14-.11.29-.22.44-.31.04-.02.07-.05.11-.07.18-.11.37-.21.57-.29.05-.02.09-.04.14-.06.16-.07.33-.13.5-.18.05-.01.1-.03.15-.05.21-.05.42-.1.64-.13.04,0,.09,0,.13-.01.19-.02.38-.04.57-.04h.2c.11,0,.22,0,.33.02.08,0,.16,0,.24.02.12.01.24.03.35.05.08.01.15.02.24.04.13.03.27.06.4.09.07.02.13.03.2.05.2.06.4.13.6.2h0c.3.14.59.3.86.47.28.17.55.35.81.54.47.33.92.68,1.34,1.07.3.28.58.56.85.86,1.78,1.95,2.95,4.42,3.28,7.07.08.61.11,1.23.1,1.86-.03.22-.07.42-.13.61h0Z"/>
          </g>
          <path class="cls-1" d="M42.07,40.73c-.01-.06-.03-.12-.04-.19-.05-.19-.1-.38-.16-.57-.04-.15-.08-.3-.12-.45-.12-.38-.24-.76-.39-1.13-.08-.21-.17-.42-.26-.64-.02-.05-.05-.1-.07-.15-.1-.21-.2-.42-.31-.63-.02-.04-.04-.09-.06-.13-.03-.05-.06-.09-.08-.14-.08-.14-.16-.28-.24-.42-.06-.11-.13-.23-.19-.34-.12-.19-.25-.38-.38-.57-.26-.37-.55-.73-.85-1.08-.15-.17-.31-.34-.47-.5-.17-.16-.34-.31-.52-.45-.06-.05-.12-.09-.18-.13-.12-.09-.24-.18-.36-.26-.07-.05-.15-.09-.22-.14-.11-.07-.22-.14-.33-.2-.08-.05-.16-.08-.24-.12-.11-.05-.22-.11-.33-.15-.09-.04-.17-.07-.25-.1-.11-.04-.22-.08-.33-.12-.09-.03-.18-.05-.26-.08-.11-.03-.22-.06-.33-.09-.09-.02-.18-.04-.27-.05-.11-.02-.22-.04-.33-.05-.09,0-.18-.02-.27-.03-.04,0-.09,0-.13,0h-.01c-.06,0-.13,0-.19,0-.09,0-.19,0-.28,0-.08,0-.16,0-.24,0-.1,0-.21.01-.31.03-.04,0-.07,0-.11.01h0s-.09,0-.13.02c-.1.01-.21.04-.31.05-.08.02-.16.03-.24.05-.1.03-.21.05-.31.09-.08.02-.16.05-.24.07-.1.04-.21.08-.31.12-.05.02-.09.04-.14.05,0,0-.02,0-.03.01-.02,0-.04.02-.06.02-.11.05-.21.1-.32.15-.05.02-.1.05-.14.08,0,0-.01,0-.02,0-.01,0-.03.01-.05.02-.12.06-.23.14-.34.21-.05.03-.09.05-.14.09,0,0,0,0-.01,0,0,0-.01,0-.02.01-.17.11-.34.24-.5.37-.04.03-.08.05-.12.08s-.08.05-.12.09c-3.99,3.77-4.87,9.71-2.51,14.61.08.16.17.32.26.47.09.15.19.29.29.43,1.05,1.52,2.56,2.48,4.26,2.77h0c.17.03.33.05.51.06.07,0,.14,0,.2.01.1,0,.21.01.32.01h.22c.14,0,.27,0,.41-.02.06,0,.12,0,.19-.01.19-.02.37-.05.56-.08.07-.01.14-.03.2-.04.14-.03.27-.06.41-.09.07-.02.14-.04.2-.05.19-.05.38-.12.57-.19h0l.04-.02,3.67-1.74s0,0,0,.01h.02c-.88,1.91-1.75,2.44-1.46,3.75,2.74-1.9,4.14-4.53,4.57-7.58.03-.2.05-.4.08-.6.02-.19.03-.37.05-.56v-.05c.03-.41.05-.82.04-1.24-.06-.83-.19-1.64-.38-2.43-.01-.06-.03-.11-.04-.17h0ZM38.04,43.26c-.37.47-1.26.79-2.37.57-1.97-1.09-2.5-3.59-1.22-5.39,1.46-1.01,3.16-.39,4.01,1.65.35,1.38.14,2.33-.42,3.17h0ZM28.51,29.36c1.08-.72,2.25-1.27,3.52-1.67.2-.09.34-.21.51-.33.05-.03.09-.06.14-.09s.09-.05.13-.09c0,0,0-.02.01-.03.05-.05.09-.1.13-.16.03-.05.05-.09.08-.14h0c.04-.07.07-.14.09-.23.02-.07.03-.14.03-.21.04-.25-.03-.48-.19-.68-.05-.07-.11-.13-.19-.19-.11-.09-.24-.19-.38-.26s-.33-.14-.52-.19c-.12-.02-.23-.02-.34-.03-.04,0-.08,0-.11,0-.04,0-.08,0-.12,0-.06,0-.12,0-.19,0-.05,0-.09,0-.13,0-.05,0-.11,0-.17,0-.04,0-.07.01-.1.02h-.02s-.09.02-.13.02c-.07.01-.14.02-.21.04-.05.01-.11.03-.16.05-.09.03-.19.06-.28.09-.05.02-.11.05-.17.07-.09.04-.17.07-.26.11-.03.01-.05.03-.08.04,0,0,0,0,0,0-.02.01-.05.02-.07.04-.09.05-.17.09-.25.14-.05.03-.1.06-.15.09-.05.03-.1.07-.16.1h0s-.08.05-.11.07c-.04.03-.08.05-.12.08-.13.09-.26.18-.39.27-.29.21-.59.42-.9.64-.28.2-.53.42-.77.64-.05.04-.08.09-.13.13-.19.19-.38.38-.55.57h0c-1.09,1.22-1.85,2.66-2.46,4.17-.03.07-.05.14-.08.21-.1.25-.2.51-.3.76-.03.07-.05.14-.08.21-.07.19-.15.37-.21.56.02.04.04.07.05.1l.03.04s.06.09.09.14c.05.07.09.12.13.16.01.01.02.02.04.03.05.04.09.07.13.09,0,0,0,0,0,0,.05.02.1.02.15.02h0s.02,0,.03,0h0c.05,0,.11-.03.17-.06,0,0,.01,0,.02-.01.05-.03.11-.07.17-.12.06-.05.12-.1.19-.17,0,0,0,0,0,0h0c.13-.22.26-.43.39-.64.27-.42.55-.81.84-1.18.14-.19.29-.37.44-.54.89-1.06,1.88-1.94,2.96-2.66h0ZM48.84,20.07s0,.05.02.07c0,.02.02.05.03.07h0c.05.08.12.15.18.22.02.02.04.04.06.06.05.05.1.09.16.12.03.02.05.03.08.05,0,0,.02,0,.03.01.03.01.06.03.09.04.03,0,.05.02.08.03.02,0,.04.01.06.02.04,0,.09,0,.14.02h0s.1.02.15.02c.08,0,.16,0,.24-.01.02,0,.04,0,.05,0,.07-.01.15-.03.23-.05.03,0,.05-.01.08-.02.1-.03.2-.06.3-.11.19-.09.38-.16.57-.23.05-.02.11-.04.17-.06.14-.05.28-.09.42-.13.05-.01.11-.03.16-.05.19-.05.37-.09.55-.13h.02c.18-.03.35-.06.52-.08.05,0,.11-.01.16-.02.14-.01.27-.03.4-.04.05,0,.1,0,.15,0,.18,0,.35-.01.52-.01.23,0,.45,0,.67.02.07,0,.14,0,.2.01.16.01.32.03.48.04.08,0,.15.02.24.03.16.02.32.04.47.06.07,0,.14.02.2.03.21.03.42.06.64.1h.03c.28.05.56.09.84.14.17.03.34.05.51.08.09.01.18.03.26.04.16.03.33.05.5.07.08,0,.16.02.24.03.24.03.49.06.74.09-.32-.38-.67-.71-1.04-1.03-1.41-1.21-3.1-1.9-4.85-2.11-.22-.03-.43-.04-.65-.05h-.1c-.19,0-.38,0-.58,0h-.07c-1.35.04-2.71.36-3.97,1h0c-.18.34-.3.64-.37.89,0,.02,0,.04-.01.05-.01.05-.03.09-.04.14,0,.01,0,.03-.01.05-.02.08-.03.14-.03.21s0,.13,0,.19c0,.05.02.08.04.12,0,0,0,.02,0,.03h.01ZM53.86,47.05h0c-.18-.23-.37-.45-.56-.67-.16-.18-.33-.35-.5-.52-.12-.12-.24-.24-.37-.35l-.05-.05s-.03-.03-.05-.04c-.13-.11-.25-.23-.38-.33-.18-.15-.36-.29-.55-.42-.13-.09-.26-.19-.39-.28-.14-.09-.27-.18-.42-.25-.15-.09-.32-.16-.47-.24-.01,0-.03-.01-.05-.02-.09-.05-.19-.09-.29-.14-.22-.1-.44-.19-.68-.27h0c-.34.39-.61.79-.84,1.21,0,.01-.01.03-.02.04-.06.12-.13.24-.18.37,0,.02-.02.05-.03.07-.05.12-.1.24-.14.36,0,.03-.02.05-.03.07-.05.13-.09.26-.13.39,0,.01,0,.03-.01.05-.04.15-.08.29-.11.44v.02c-.06.28-.11.57-.14.86,0,.05,0,.09-.01.14-.02.24-.04.47-.05.71,0,.06,0,.12-.01.18v.99c.01.5.05.99.08,1.49.05.1.09.2.15.3.01.03.03.05.05.08.04.06.08.13.12.19.02.03.04.05.06.08.04.05.09.11.13.16.02.02.04.04.05.06.07.06.14.12.21.17,0,0,.02,0,.03.01.07.04.14.07.21.1,0,0,.02,0,.03,0h0s.03,0,.05.01c.06.02.13.03.19.04h.1c.07,0,.15,0,.23,0,.04,0,.07,0,.11,0,.12-.02.24-.04.38-.08,0,0,0,0,.02,0,0,0,0,0,.02,0,.01,0,.03-.01.05-.02,0,0,.02-.01.03-.02.02-.01.05-.03.07-.05.01,0,.03-.02.04-.03h0s.09-.08.13-.12l.02-.02c.18-.17.4-.42.58-.77.25-.71.54-1.14,1.04-1.26h0s.03,0,.05,0h0c.05,0,.11-.02.17-.02h0c.15,0,.55.14,1.62.5.85-.14,1.2-.5,1.31-.97h0c.08-.38,0-.82-.2-1.28-.21-.29-.44-.56-.66-.84h0ZM73.2,40.16c0-1.17-.27-2.31-.79-3.43-.54-1.5-1.98-2.57-3.17-3.33l-.19-.12-.02-.22c-.09-.95-.22-1.93-.38-2.97-.53-3.34-1.41-6.62-2.71-10.03-.75-1.82-1.73-3.65-2.97-5.6-2.62-4.09-5.91-7.3-9.76-9.54-3.82-2.11-8.03-3.39-12.48-3.82l-.36-.04c-.45-.05-.97-.09-1.48-.12-1.63-.06-2.93-.05-4.21.05-9.19.95-17.49,4.88-24,11.35-.76.78-1.52,1.66-2.37,2.76-1.93,2.48-3.47,5.22-4.57,8.14-2.29,6.07-2.57,12.68-.82,19.11,1.67,5.12,4.55,9.61,8.31,12.97.15.14.31.26.47.38l.43.35c.38.32.72.61,1.09.87.04.03.09.07.14.09.6.45,1.3.91,2,1.33.41.24.89.33,1.36.23l.46-.09.09.46c.24,1.25.8,2.4,1.63,3.32,1.53,1.69,3.8,2.55,6.35,2.35.17-.01.33-.05.48-.1l4.15-1.48.22.36c.12.24.28.45.48.62.07.06.13.12.19.18l.31.29c2.21,1.96,3.68,3.88,5.32,6.33,1.27,2.21,3.7,3.38,6.6,3.23h.14s.15,0,.21,0c2.67-.14,5.47-.65,8.81-1.6,1.73-.49,3.5-1.06,5.26-1.67.06-.02.12-.05.18-.07,4.31-2.04,8.72-4.39,11.33-8.67.28-.45.35-1,.2-1.51-.15-.51-.5-.94-.98-1.17-.68-.34-1.55-.92-1.76-1.77v-.07s-.02-.1-.03-.12c-.06-.44,0-.92.21-1.44.27-.68.11-1.46-.39-1.99-1.1-1.16-1.32-1.7-1.37-1.88l-.02-.07v-.17c0-.15,0-.28.02-.4l.04-.12c.03-.06.05-.11.07-.17.13-.36.4-.72.82-1.1l.12-.08c1.53-.68,2.35-1.98,2.27-3.57v-.07c.02-.24.08-.44.17-.61.09-.18.28-.33.61-.49.43-.2.82-.28,1.26-.24.66.06,1.32-.24,1.71-.78.67-.92,1.08-1.98,1.24-3.16l.04-.14c.02-.06.05-.22.06-.42,0-.09,0-.23-.01-.34h0ZM71.72,40.75s-.02.08-.03.12c-.13.95-.45,1.77-.99,2.51l-.15.21-.26-.03c-.71-.07-1.35.05-2,.37-.63.3-1.05.67-1.28,1.14-.19.38-.3.82-.33,1.3.07.8-.17,1.84-1.65,2.38-.77.62-1.24,1.23-1.48,1.91-.02.06-.05.12-.07.18-.02.03-.03.07-.04.09l-.02.07c-.06.29-.09.61-.06.94v.06c-.05.69.53,1.65,1.76,2.95l.2.21-.1.27c-.29.75-.39,1.48-.29,2.17,0,.05,0,.09.01.14,0,.02,0,.05,0,.07,0-.01,0,.01.01.05.25,1.12,1.13,2.08,2.54,2.78l.45.23-.26.43c-2.4,3.95-6.44,6.09-10.71,8.12-1.78.63-3.51,1.18-5.21,1.66-3.24.92-5.97,1.41-8.58,1.55h-.16c-.23,0-.4.01-.57.01-2.2,0-3.9-.91-4.9-2.63-1.69-2.52-3.22-4.52-5.55-6.58-.09-.08-.16-.15-.24-.23-.09-.09-.18-.18-.28-.26l-.52-.44.6-.32c2.17-1.17,4.31-1.92,6.56-2.31l.31-.05.16.27c.71,1.18,1.51,1.95,2.58,2.49l.18.09c.12.06.24.13.37.18.07,0,.14.02.22.03.08,0,.15.02.23.03l.15.02c.3.04.61.08.9.1,1.95.15,3.81-.04,5.41-.57,1.23-.41,2.31-1.02,3.21-1.81-.86.11-1.67.33-2.51.57-1.17.33-2.39.67-3.77.67-.44,0-.89-.04-1.33-.1h-.12c-1.58,0-2.67-.49-3.52-1.58l-.07-.09-.02-.12c-.14-.82-.33-1.33-.59-1.54h0l-.11-.06c-.23-.16-.48-.23-.82-.23s-.7.07-1.03.13c-1.89.44-3.79,1.12-6.13,2.2l-.6.27c-.71.32-1.45.65-2.17,1.05l-.06.03-3.87,1.36c-2.1.16-3.95-.52-5.17-1.88-1.05-1.16-1.53-2.73-1.36-4.43v-.08s.04-.07.04-.07c.11-.24.24-.44.36-.64.06-.09.12-.19.17-.29.63-1.09,1.26-1.97,2-2.75l.06-.05c.26-.2.47-.43.63-.69.42-.7.44-1.64.04-2.79-.17-.52-.37-.99-.58-1.48-.12-.28-.24-.57-.36-.85-1.11-2.81-2.39-5.44-3.9-8.03-1.08-1.48-2.06-2.62-3.25-3.47.4.41.82.83,1.11,1.44,1.38,2.16,2.57,4.45,3.63,7.01.74,1.78,1.34,3.44,1.84,5.09l.02.11c.34,1.04.16,2.08-.55,2.98l-.07.09c-.1.13-.21.27-.36.4-.84.9-1.37,1.84-1.99,2.93-.23.4-.46.81-.72,1.24l-.24.39-.39-.24c-.66-.4-1.32-.84-1.97-1.31-.02,0-.04-.02-.05-.04-.35-.25-.68-.54-1-.81l-.22-.19c-.08-.07-.17-.14-.25-.2-.14-.1-.27-.21-.4-.33-3.58-3.19-6.3-7.43-7.88-12.26-1.68-6.15-1.41-12.46.78-18.25,1.05-2.78,2.52-5.39,4.36-7.76.82-1.06,1.54-1.89,2.25-2.62,6.27-6.25,14.26-10.03,23.09-10.95,1.23-.09,2.47-.11,4.06-.05.47.02.94.07,1.39.11l.36.04c4.31.42,8.2,1.6,11.89,3.63,3.66,2.13,6.78,5.18,9.28,9.07,1.2,1.88,2.12,3.62,2.83,5.32,1.27,3.33,2.13,6.51,2.64,9.75.21,1.36.36,2.6.45,3.81,1.56.93,3.01,1.95,3.39,3.12.48.99.71,2,.7,2.98,0,.05.02.12.02.19,0,.12-.03.23-.05.32h-.01ZM61.41,26.84c-.27-.3-.55-.59-.85-.86-.24-.23-.51-.44-.77-.65-.14-.11-.28-.21-.42-.32-.05-.04-.09-.07-.14-.11-.09-.07-.19-.13-.29-.19-.13-.09-.25-.18-.39-.25-.32-.2-.65-.39-1-.56h0c-.2-.08-.4-.14-.6-.2-.07-.02-.13-.03-.2-.05-.13-.04-.27-.07-.4-.09-.08-.01-.16-.03-.24-.04-.12-.02-.24-.04-.35-.05-.08,0-.16-.01-.24-.02-.11,0-.22-.01-.33-.02h-.2c-.08,0-.15,0-.23.01h-.02c-.11,0-.22,0-.32.02-.04,0-.09,0-.13.01-.22.03-.43.08-.64.13-.05.01-.1.03-.15.05-.07.02-.14.05-.21.08,0,0-.02,0-.03,0-.09.03-.18.06-.26.09-.05.02-.09.04-.14.06-.09.04-.18.09-.27.14h0c-.1.05-.2.09-.29.15-.04.02-.07.05-.11.07-.09.06-.17.12-.26.19-.02.01-.04.03-.06.05-.04.03-.08.05-.12.09-.05.04-.09.07-.13.1-.02.02-.05.04-.07.06-.06.05-.12.11-.18.17-.08.07-.16.14-.23.22-.02.02-.04.05-.06.07-.04.04-.07.09-.11.13-.02.03-.05.05-.07.08-.07.08-.14.16-.2.25-.04.05-.07.09-.11.14,0,0-.01.02-.02.03-.13.18-.24.36-.36.56-.02.04-.05.07-.08.11,0,0,0,.01,0,.02h0c-.1.19-.19.38-.27.58-.09.2-.16.4-.23.61-.06.32-.11.63-.15.95h0c-.04.31-.07.62-.09.93v.03c-.02.31-.03.61-.03.92,0,1.26.19,2.51.51,3.72.08.3.17.61.28.9.1.29.2.58.32.86.02.04.04.08.05.12.11.27.23.54.36.8.07.14.15.29.22.43.08.15.17.31.25.47.09.17.19.33.3.5.07.11.14.22.21.33.13.19.25.38.39.57,0,0,.02.02.03.03.18.24.36.48.55.72.2.24.41.47.62.71.21.23.43.45.66.67.2.17.41.33.61.47.03.02.06.04.09.06.2.14.4.28.6.41.04.02.07.05.11.07.2.13.41.24.61.36.03.02.07.04.1.05.22.11.43.22.65.31,0,0,.02,0,.03.01.07.03.14.05.21.08.1.04.2.08.3.11.05.02.09.04.14.05.03,0,.05.02.08.03s.05.01.08.02c.1.03.2.05.3.08.09.02.18.05.27.08.04,0,.08.02.12.03.01,0,.03,0,.05,0,.19.04.38.07.57.1h.02s.07,0,.11.01c.07,0,.15,0,.22.01.14.01.29.02.43.03h.07c.25,0,.5-.02.75-.05h0s.05-.01.08-.02c.71-.1,1.42-.33,2.11-.72-1.15-.73-2.32.1-3.08-1.03-.02-.03-.04-.08-.05-.11,0,0,0,0,0-.01h0c-.08-.14-.16-.28-.24-.48h0c.84-.14,1.57-.36,2.2-.67h0c1.52-.76,2.39-2.07,2.84-3.7.11-.39.24-.76.3-1.2.01-.62-.02-1.24-.1-1.84-.34-2.66-1.51-5.12-3.28-7.07h.01ZM54.59,36.14c-.39,0-.76-.09-1.09-.25-.28-.13-.54-.31-.76-.53-.46-.47-.75-1.11-.75-1.82,0-.12.02-.24.04-.35.05-.32.14-.62.29-.89.44-.8,1.28-1.35,2.26-1.35,1.43,0,2.59,1.16,2.59,2.59s-1.16,2.59-2.59,2.59h0Z"/>
        </g>
      </g>
      <rect class="cls-3" width="75" height="75"/>
    </g>
  </g>
</svg>