<?xml version="1.0" encoding="UTF-8"?>
<svg id="Layer_2" data-name="Layer 2" xmlns="http://www.w3.org/2000/svg" viewBox="0 0 394.86 366.3">
  <defs>
    <style>
      .cls-1 {
        fill: #e0e7e0;
      }

      .cls-2 {
        fill: #c0ed08;
      }

      .cls-3 {
        fill: #98a49b;
      }

      .cls-4 {
        fill: #bccaba;
      }

      .cls-5 {
        fill: #2f3b33;
      }
    </style>
  </defs>
  <g id="Layer_1-2" data-name="Layer 1">
    <g>
      <path class="cls-4" d="M165.37,364.18c.56.84-.22,1.68-.8,1.88-.98.34-4.56.3-5.58,0-.59-.17-1.47-.94-.89-1.88,2.16.11,5.04,0,7.27,0Z"/>
      <path class="cls-4" d="M216.29,89.69c-2.1.15-4.2.09-6.3,0-.5-2.2,2-2.02,3.65-2,1.18.01,3.22.13,2.66,2Z"/>
      <path class="cls-4" d="M224.25,89.8l-5.25-.09c-.66-1.88,1.32-1.99,2.62-2.03,1.43-.04,3.24.28,2.63,2.12Z"/>
      <path class="cls-4" d="M236.26,364.2c.64.65-.04,1.65-.69,1.95-.62.29-1.85.09-2.26-.51-.22-.32-.25-.84-.36-1.35l3.32-.09Z"/>
      <path class="cls-4" d="M197.34,364.19c.57.68-.06,1.66-.7,1.99s-1.16-.06-1.48-.5c-.36-.51-.64-1-.17-1.48h2.35Z"/>
      <g>
        <path class="cls-5" d="M202.24,69.69c-.01,2.11-.02,4.18.04,6.29.14,4.36-.48,8.75.06,13.54,2.82.47,5.27.08,7.64.18,2.1.09,4.2.15,6.3,0,.89-.06,1.82,0,2.72.02l5.25.09,73.56.13c.47,1.25,2.26.66,3.31.73,6.92,1.04,13.33,4.14,20.4,8.45l6.95-19.23c-9.42-8.99-11.76-20.91-6.88-32.61,4.5-10.79,14.81-18.06,26.01-19.14,11.92-1.15,28.34,4.9,29.3,15.57l.14,1.53c.05.56.93,1.49,1.72.91,1.04,8.83,4.81,18.13.07,26.43-5.28,9.25-12.92,15.95-24.2,17.28l-3.13,22.6c-.83-.67-1.33.45-1.44.96-.13.57-.07,1.07-.06,1.51.07,2.86-.85,5.96-1.27,8.76-1.74.29-1.39,1.52-.99,2.86.38,1.27,1.08,1.93,2.09,2.21,2.15,3.89,4.06,8.46,5.13,12.75-.01,1.09-.41,3,.99,3.32-.21.81.24,1.8.07,2.64-.13.65-.14,1.4.33,2.22.2.35.59.84,1.15.28-.19,1.85-.72,4.41.58,6.56.96,1.58,4.04,1.25,5.55,1.2.91,1.36,2.91.88,4.34.93l3.69.92c.36.91,1.4,1.04,2.27,1.09,11.72,6.29,20.11,18.44,20.31,32.48l.64,45.45c-4.49,18.96-16.32,31.96-37.46,32.82-2.84,27.75-27.22,59.6-56.77,62.27-6.69,14.7-9.22,10.17-13.06,14.22-2.09,2.21,1.34,12.41-2.98,15.83l-48.33.49-3.32.09-35.6-.1h-2.35s-29.62-.01-29.62-.01c-2.23,0-5.11.12-7.27,0s-7.68.67-8.36-2.21l-.56-28.33c-3.06-.76-6-.19-8.7-.26-2.46-.07-5.16-.79-7.28.71l-33.6-.8c-.79-1.52-2.95-.98-4.39-.9-12.61-.87-23.78-7.68-34.08-15.9-13.6-10.85-21.35-27.2-22.75-44.99C16.25,272.77-1.09,254.48.05,232.46c.46-8.81.5-17.12.25-25.95-.27-9.79.11-19.17,4.22-27.93,6.19-13.2,18.42-21.04,33-20.85,1.9-.29.21-4.09,1.07-4.89,1.47-1.37.5-3.67.68-5.4.47-4.63,1.28-9.93,3.67-14.19,3.87-6.9,6.39-13.44,12-19.29,11.46-11.95,26.15-23.45,43.57-23.61l76.52-.72,4.35.02c3.39.02,6.9.66,10.67-1.05l.04-31.77c-15.52-3.62-26.21-18.93-22.05-34.16C171.53,9.89,182.11.27,195,0c15.48-.32,27.43,10.44,29.63,24.85s-7.48,28.25-22.32,31.9l-.07,12.92ZM181.49,20.07c-5.54,7.14-2.48,17.67,4.5,22.65,8.06,5.75,18.88,3.2,24.32-4.23,3.01-4.1,1.68-6.16,1.92-10.48.38-6.88-4.18-13.68-10.31-15.53-8.76-2.64-16.13-.05-20.43,7.58ZM371.25,59.04c0-11.39-9.23-20.62-20.62-20.62s-20.62,9.23-20.62,20.62,9.23,20.62,20.62,20.62,20.62-9.23,20.62-20.62ZM340.7,112.19l3.13-22.67c.32-2.29-6.23-3.53-7.05-1.11-1.89,5.61-4.7,11.39-4.59,17.39,3.96,3.54,7.55,13.37,8.52,6.39ZM95.31,320.1c4.08,1.11,8.13,1.83,13.1,1.83l25.9-.03c9.94-.01,19.37.27,28.93.21l33.63-.21c.15-9.88,7.21-15.5,16.42-15.47l22.82.08c3.62-5.77,9.09-8.59,15.96-7.9,6.33.63,12.35-.55,18.15-.17l17.14,1.12c1.43-2.97,3.01-6.25,3.72-9.63l4.55-21.42c.17-.79-.33-1.95-.57-2.72-.38-1.25,1.89-.92,2.34-1.93,7.71-17.1,13.75-34.83,15.6-53.14.99-.16.73-1.62.78-2.37.94-13.19,1.49-26.34,1.13-39.56-.06-2.06,0-3.41-.83-5.26s.06-4.59-.18-6.6l-.18-1.56c-.06-.51-.54-1.73-1.43-1.03-.47-14.09-10.38-29.92-18-41.53-.21-3.2.64-6.41,1.33-10.44-12.94-1.44-25.27-.69-37.95-.51l-12.86.18-36-.11-42.98.07c-8.62.01-16.81-.4-25.53.13-6.56.4-13.21-1.28-19.71.06-1.76.37-18.16-1.05-25.9.99-23.19,6.14-44.02,28.31-44.13,52.51l-.41,90.67c-.11,24.56-1.02,42.48,18.08,60.11,7.84,7.24,17.39,10.99,27.07,13.63ZM315.08,127.6c1.13,4.44,4.46,8.44,5.11,13.38.77,5.86,2.69,11.43,3.14,17.34,1.68,21.95,1.32,43.91-3.06,65.36-3.7,18.11-8.88,34.85-16.87,51.31-1.73,3.56.13,8.01-.52,11.28-2.69,9.18,1.07,7.14-6.33,18.39-.04,4.25,7.39,8.17,5.99,16.15,6.77-1,12.02-3.7,17.75-7.34,13.17-10.75,23.02-25.76,24.27-43.49,1.9-26.89,1.01-53.81.81-81.06-.04-5.5-.86-10.52-.1-15.93,1.29-9.16-2.09-36.28-9.67-42.32,1.46-2.03-15.16-18.89-16.78-17.76l-.93-1.04c-.59-.65-1.3-.82-1.98-1.2-1.43-.81-10.82-8.06-10.98-3.82-.32,8.85,8.62,14.7,10.16,20.78ZM12.76,204.64c-.06,10.39-.53,20.83.02,31.66.38,7.45,3.78,15.12,10.72,18.25,3.19,3.7,8.35,5.28,13.8,4.44.4-8.24.16-15.87.12-24.4-.04-7.71.08-15.5-.72-24.07-.34-3.58,1.86-14.58.27-24.94-.16-1.08-.37-2.97-.17-4.95l1.1-11.09c-8.91-.5-16.31,3.53-20.65,10.86s-5.14,15.43-4.48,24.23ZM357.87,195.53l-.5,62.76c2.67.95,4.42.45,6.54-.81.33.22.92-.24,1.82.07,1.52.54,1.96-1.44,3.17-1.97,11.84-5.2,13.46-15.26,13.04-27.98,1.87-2.33.38-5.36.5-8.27.15-3.55.56-6.82.23-10.97-.1-1.17-.33-2.8-.14-4.88.49-5.39.17-10.35-1.78-15.74-6.97-19.22-22.59-19.26-23.65-17.48-.43.72.24,1.74.26,2.73l.53,22.53ZM249.97,311.21c-5.32-.42-9.64,4.05-10.15,10.06-.33.41-.77.94-.67,2.09l.19,2.03c.45,4.93,3.83,11.88,9.76,12.25,10.96.68,21.77,1.16,32.86-.21,6.99-.87,12.76-11.09,9.93-17.16-2.34-5.02-6.06-10.07-12.83-9.08-1.41-1.42-4.56-1.44-6.07-.13-.54-.35-1.63.04-2.99.1.2-.54-.35-.84-1.07-.84l-17.85.06c-.74,0-1.54.24-1.12.85ZM226.1,320.29c1.1,0,2.49-.12,2.71-.7,1.88-5-4.4-3.23-14.71-3.31-2.53-.02-4.95,1.25-4.78,4.04l16.78-.04ZM229.04,331.99c-.56-1.3-1.9-1.97-3.52-1.29-6.91,2.91-12.26-2.33-18.26-.02-.79.31-1.91,2.4-.82,3.29,2.3,1.89,6.39,1.27,9.24.66,5.56-1.2,15.66,2.68,13.36-2.65ZM178.11,353.22l4.26-.02h2.68s3.26,0,3.26,0l38.56-.02c.79,0,1.59-.09,2.38-.09h45.75c.73-.01,1.42-.25,1.63-.56.16-.25,0-.7.14-1.08s.5-1.13.22-1.74c-.3-.66-1.54-.52-2.19-.42-.28-.09-.63-.02-.9-.14-3.11-1.41-6.62-.37-10.19-.4-6.45-.07-12.59.07-18.67-.4l-3.75-.29c.41-1.41-1.08-1.76-2.15-2.01-.61-.17-1.14-.87-1.83-.93-.64-3.59-4.11.15-6.29.15l-9.8.02c-2.15,0-4.21.62-6.07.63-5.63.02-11.29-.01-16.93.32-2.68-2.24-5.76-4.15-5.05-7.92.21-1.1.67-3.18-.57-3.96-1.01-.64-2.84-.02-4.1-.13-.28-.03-.61-.53-1-.66-.53-.18-1.04.47-1.46.6-4.51.8-22.39-1.88-24.44-.26-1.54,1.22.72,14.62-.28,19.12l16.82.18Z"/>
        <path class="cls-4" d="M140.48,333.38c1.95,2.93-8.56,2.15-7.28.71,2.12-1.5,4.82-.78,7.28-.71Z"/>
        <path class="cls-4" d="M202.29,75.98c-.07-2.11-.06-4.18-.04-6.29,2.2-.49,2.06,1.96,2.02,3.63-.03,1.16-.1,3.23-1.97,2.66Z"/>
        <path class="cls-4" d="M348.72,123.68c.11,1.74.56,3.42,1.11,5.07-1.01-.28-1.71-.94-2.09-2.21-.4-1.34-.75-2.58.99-2.86Z"/>
        <path class="cls-4" d="M39.28,147.45c-.18,1.73.79,4.03-.68,5.4-1.3-.4-1.13-2.25-1.15-3.63-.01-.75.48-2.3,1.83-1.77Z"/>
        <path class="cls-4" d="M179.38,89.66l-4.35-.02c-.63-1.78,1.19-2,2.69-1.92,1,.05,2.25.55,1.66,1.94Z"/>
        <path class="cls-4" d="M99.6,333.3c-.72.57-1.66,1.07-2.66,1.07-1.07,0-2.35-.69-1.73-1.97,1.44-.08,3.6-.61,4.39.9Z"/>
        <path class="cls-4" d="M367.94,158.63c-1.43-.05-3.43.43-4.34-.93.79-.03,1.5-1.66,2.71-1.21.98.36,1.66.92,1.63,2.14Z"/>
        <path class="cls-4" d="M355.94,144.81c-1.4-.31-1-2.22-.99-3.32.78.22,1.88.46,1.95,1.61.05.73-.81,1.13-.96,1.7Z"/>
        <path class="cls-4" d="M301.13,90.65c-1.05-.06-2.84.53-3.31-.73.42-.51.95-1.13,1.68-1.16,1.04-.05,1.56.97,1.63,1.89Z"/>
        <path class="cls-4" d="M357.48,149.95c-.56.57-.94.08-1.15-.28-.47-.82-.46-1.57-.33-2.22.85-.67,1.71.24,1.65.86l-.17,1.63Z"/>
        <path class="cls-4" d="M351.49,112.45c-.09.64.53,1.53-.15,2.3-.33.37-.84.63-1.36.17-.01-.43-.07-.94.06-1.51.11-.51.61-1.63,1.44-.96Z"/>
        <path class="cls-4" d="M378.76,46.14c-.79.58-1.67-.35-1.72-.91l-.14-1.53c.84-.64,1.61.29,1.67.86l.19,1.58Z"/>
        <path class="cls-4" d="M373.91,160.63c-.87-.05-1.91-.18-2.27-1.09.44-.05.92-1.16,1.51-.74.64.45.64,1.28.76,1.83Z"/>
        <path class="cls-4" d="M294.29,112.8c7.62,11.61,17.53,27.44,18,41.53.02.7-.69,1.63.18,2.35.39.32.9.68,1.43.25.23,2.01-.65,4.73.18,6.6-1.39.37-.55,2.2-.89,3.21-.41,1.22.2,2.65,1.72,2.05.36,13.22-.19,26.38-1.13,39.56-.59-.55-1.46-.04-1.84.75-.23.48.65,1.24,1.05,1.63-1.84,18.31-7.88,36.04-15.6,53.14-.45,1-2.72.68-2.34,1.93.23.78.74,1.93.57,2.72-1.04-.14-1.76-.97-2.97-2.04-3.24,3.62-5.24,7.87-7.52,12.27-3.17,6.11-8.46,10.44-12.72,15.63-.52.64.79,2.48-.13,3.01-.57.33-1.31.82-2.07,1.07-5.8-.38-11.82.8-18.15.17-6.86-.69-12.34,2.13-15.96,7.9l-22.82-.08c-9.21-.03-16.27,5.59-16.42,15.47l-33.63.21c-9.56.06-18.99-.23-28.93-.21l-25.9.03c-4.98,0-9.02-.71-13.1-1.83l11.18-.32c-9.06-2.48-18.82-3.79-26.24-10.26-15.74-13.73-19.79-24.22-19.63-46.19l.65-92.65c.07-9.97-.17-19.58,5.27-28.31,8.71-13.99,23.53-27.72,41.12-27.86l114.87-.9,61.06-.37c3.75-.02,7.94,2.06,10.71-.45ZM90.37,198.33c-.06,2.05-1.15,4.19.05,6.46-.78.53-1.5.45-3.17,1.12,2.44,1.66,2.21,4.85,3.86,7.13,2.72,3.75,6.54,6.73,9.9,9.93,6.93,6.6,18.5,8.06,18.53,8.03.57-.64.4-1.98.75-2.66,10.88,1.36,21.89-3.65,28.79-11.74,12.47-14.62,11.83-35.28-2.82-48.24-15.86-14.03-41.17-9.52-52.16,8.82-3.95,6.59-3.53,14.1-3.75,21.15ZM262.03,227.14c.15.43.45.83.82,1.19.62.6,1.38-.17,2.36-.91,14.09,1.82,25.6-2.86,33.73-15.8,2.58-.26,1.42-1.26,1.85-2.3,7.49-18.27,1.03-39.85-18.13-47.16-10.39-3.96-21.44-2.81-30.77,3.39-7.78,5.17-13.6,13.98-14.83,24.92-1.43,12.69,5.89,25.8,16.52,33.15,2.54,1.76,5.97,1.27,8.46,3.53ZM180.1,281.36c-1.31,1.51-2.62-.6-5.74.35,1.62,5.23,34.76,4.04,40.99,2.1-1.36-1.89-3.23-1.18-4.27-2.26,7.15-2.09,23.17-5.92,29.02-11.18,4.1-3.7,9.67-6.46,12.25-11.6,1.12-2.23-.81-4.59-2.14-5.35-8.57-4.91-5.29,5.9-27.77,12.6-4.46,1.33-8.94,3.19-13.65,3.83-41.13,5.57-56.19-15.82-59.84-17.14-2.53-.91-4.52.31-5.91,1.92-1.24,1.44-2.84,4.23-1.05,6.15,10.42,11.2,24.03,16.59,38.1,20.58Z"/>
        <path class="cls-1" d="M294.29,112.8c-2.77,2.51-6.96.43-10.71.45l-61.06.37-114.87.9c-17.58.14-32.41,13.87-41.12,27.86-5.43,8.73-5.2,18.34-5.27,28.31l-.65,92.65c-.15,21.97,3.89,32.46,19.63,46.19,7.42,6.47,17.17,7.78,26.24,10.26l-11.18.32c-9.69-2.64-19.24-6.39-27.07-13.63-19.09-17.63-18.19-35.55-18.08-60.11l.41-90.67c.11-24.2,20.94-46.37,44.13-52.51,7.74-2.05,24.13-.63,25.9-.99,6.5-1.35,13.15.34,19.71-.06,8.72-.53,16.91-.12,25.53-.13l42.98-.07,36,.11,12.86-.18c12.69-.18,25.02-.93,37.95.51-.69,4.04-1.54,7.25-1.33,10.44Z"/>
        <path class="cls-3" d="M318.81,116.75c4.95,1.81,2.03,3.72,12.99,12.02,1.36,1.03,2.28,3.43,3.8,1.86,7.59,6.04,10.97,33.17,9.67,42.32-.76,5.41.06,10.43.1,15.93.21,27.25,1.09,54.18-.81,81.06-1.25,17.73-11.11,32.74-24.27,43.49-5.73,3.64-10.98,6.35-17.75,7.34,1.4-7.98-6.03-11.89-5.99-16.15,7.41-11.24,3.65-9.2,6.33-18.39,1.48.08,3.46-1.16,4.04-2.91,1.16-3.5,3.97-5.19,5.84-8.08,9.69-14.97,9.77-22.2,14.2-38.64,1.77-6.58,3.54-28.55,3.71-35.06.32-11.91.44-23.82.04-35.74-.05-1.45-.22-2.11-.75-3.39-1.38-3.36-.59-7.28-1.4-10.71-2.33-9.8-5.8-19.77-11.48-28-1.63-2.36-3.79-4.86-4.21-7.7l.38-1.3,5.55,2.03Z"/>
        <path class="cls-4" d="M36.79,180.63c-.19,1.97,0,3.87.17,4.95-3.13,3.05-.79,8.24-2.16,12.13-3.05-1.06-8.94-.22-10.33,3.13-.93,2.25-1.44,6.97-.1,8.7,2.37,2.24,6.32.95,9.11,1.89,1.06-2.18-2.3-9.18-.11-10.43.45-.26,1.24-.25,1.87-.38.09,1.47,0,12.07,1.45,9.9.8,8.57.69,16.36.72,24.07-2.58-.81-4.92,1.34-7.56,1.59-.55-.39-.34-2.46-.36-3.15-.03-.91-1.08-.27-1.82.2-2.04,1.29,2.26,4.88-4.47,8.89-.92.55-1.72,1.73-2.79,1.04-.79-.51-.38-2.19-2.39-2.93-2.47,8.45,7.02,9.92,5.47,14.33-6.94-3.13-10.34-10.8-10.72-18.25-.55-10.83-.08-21.27-.02-31.66,3.75-1.26,7.13-3.78,10.68-6.11.65-.43.55-1.27.8-1.53.34-.35.47-1.4-.52-1.47-2.63-.19-1.81,4.91-4.64,2.96-.36-.25-1.7-11.58,1.01-15.36,3.19-4.46,7.11-9.18,14.22-7.3.65.17.26,2.61.28,3.23.03.95.78,1.91,2.2,1.59Z"/>
        <path class="cls-2" d="M291.9,320.27c2.83,6.07-2.95,16.29-9.93,17.16-11.09,1.38-21.91.89-32.86.21-5.94-.37-9.31-7.32-9.76-12.25,2.27-.02,2.37-2.5,3.31-4.63,4.73-10.63,21.06-4.8,31.49-6.76,16.13-3.03,15.93,14.23,17.76,6.26Z"/>
        <path class="cls-4" d="M328.56,151.72c-1.19-.32-3.67.9-3.24,2.95,2,9.51,1.54,18.78,1.06,28.24-.22,4.36,1.53,8.82-.16,13.27-1.31,3.47-1.91,7.15-.92,10.43,1.66-1.55.04-3.71,1.39-4.62,1.01-.68,2.81-.24,3.98-.43-.18,6.52-1.94,28.48-3.71,35.06-4.43,16.45-4.51,23.68-14.2,38.64-1.87,2.89-4.68,4.58-5.84,8.08-.58,1.75-2.57,2.98-4.04,2.91.66-3.26-1.21-7.71.52-11.28,7.99-16.46,13.17-33.2,16.87-51.31,4.38-21.44,4.74-43.41,3.06-65.36-.45-5.91-2.37-11.48-3.14-17.34-.65-4.93-3.98-8.94-5.11-13.38l2.4-.09c-.23-1.63-.43-2.65-.41-3.78,5.69,8.22,9.16,18.19,11.48,28Z"/>
        <path class="cls-1" d="M371.25,59.04c0,11.39-9.23,20.62-20.62,20.62s-20.62-9.23-20.62-20.62,9.23-20.62,20.62-20.62,20.62,9.23,20.62,20.62ZM360.29,61.48c1.38-5.86-2.52-10.72-7.63-12-4.84-1.21-9.51,1.46-11.89,6.51-2.78,5.91,1.48,11.42,7.61,13.72,5.31,1.99,10.45-2.05,11.91-8.23Z"/>
        <path class="cls-3" d="M377.9,204.63c-.16.76-.05,1.87.05,2.65-.19-1.45,0,22.61.04,23.09.67,7.2.12,13.22-4.93,18.57-1.69,1.79-2.4,4.81-5.57,5.32-.72.12-1.4.63-1.75.98-.6.61-.38,1.59-.02,2.31-.9-.32-1.49.15-1.82-.07-1.75-4.09-1.38-8.34-.5-13.02.21-1.13-2.01-2.44-1.65-3.85,2.95-11.55-3.58-8.44.38-14.03-.08-5.43-.23-10.79,0-16.43.18-4.42-1.28-8.78-.3-13.27,2.63-.99,15.61,4.71,16.05,7.76Z"/>
        <path class="cls-4" d="M186.01,334.18c-.28.93.82,1.25,1.65.98.46-.15,1.04-.27.82-.92,1.26.11,3.09-.5,4.1.13,1.24.78.77,2.86.57,3.96l-15.94-1.7c-3.05-.33-5.85.81-9.05-.14-2-.59-4.67.48-4.7,2.93s-1.18,6.99.58,8.83c2.13,2.23,6.5,1.15,9.22,1.08l17.78-.5c2.62-.07,5.17-1.56,7.17-2.57,5.64-.33,11.3-.3,16.93-.32.09,1.76,2.03,1.29,3.47,1.37,1.13.07,3.34-.1,2.6-2l9.8-.02c.02.46-.06,1.06.1,1.44.96,2.29,3.49-1.97,6.19-1.59.69.06,1.22.76,1.83.93-.15.73-.27,1.77.53,2.03.58.19,1.17-.06,1.62-.03l3.75.29c-.35.98.16,1.38.77,1.53,6.39,1.51,11.05,1.59,17.55,1,3.73-.33,7.73.82,10.54-1.73.27.12.62.05.9.14-.14.72.16,1.38.68,1.96.42.46.73.79,1.29.19-.15.38.02.83-.14,1.08-.2.31-.9.55-1.63.55h-45.75c.48-.69-.11-1.64-.69-1.88-.74-.3-1.19.1-1.47.51-.35.51-.6.98-.21,1.47l-38.56.02c.49-.68,0-1.82-.65-1.96-.86-.19-1.92-.29-2.47.44-.33.44-.58,1.02-.14,1.52h-2.68c.63-1.87-1.05-2.15-2.66-2.07-1.12.06-2.17.61-1.6,2.08l-16.82-.18c1.01-4.5-1.26-17.9.28-19.12,2.05-1.62,19.93,1.06,24.44.26Z"/>
        <path class="cls-4" d="M377.9,204.63c-.44-3.06-13.42-8.76-16.05-7.76-.98,4.49.48,8.85.3,13.27-.23,5.65-.08,11.01,0,16.43-3.96,5.6,2.57,2.49-.38,14.03-.36,1.41,1.86,2.72,1.65,3.85-.88,4.68-1.25,8.93.5,13.02-2.12,1.26-3.88,1.76-6.54.81l.5-62.76c9.01,2.26-1.5-10.17,6.13-18.79,8.64-.84,13.97,7.83,13.98,15.65,0,4.48.71,8.41-.09,12.24Z"/>
        <path class="cls-3" d="M193.15,338.34c-.71,3.78,2.38,5.69,5.05,7.92-1.99,1.02-4.55,2.5-7.17,2.57l-17.78.5c-2.72.08-7.09,1.15-9.22-1.08-1.76-1.84-.61-6.29-.58-8.83s2.7-3.52,4.7-2.93c3.2.94,6-.19,9.05.14l15.94,1.7Z"/>
        <path class="cls-3" d="M295.63,268.51l-4.55,21.42c-.72,3.37-2.29,6.66-3.72,9.63l-17.14-1.12c.76-.25,1.5-.74,2.07-1.07.91-.53-.4-2.37.13-3.01,4.26-5.19,9.54-9.52,12.72-15.63,2.29-4.4,4.28-8.65,7.52-12.27,1.21,1.07,1.93,1.9,2.97,2.04Z"/>
        <path class="cls-3" d="M37.41,234.59c.04,8.53.28,16.16-.12,24.4-5.45.84-10.61-.74-13.8-4.44,1.54-4.41-7.94-5.88-5.47-14.33,2.01.75,1.6,2.42,2.39,2.93,1.07.69,1.87-.49,2.79-1.04,6.73-4,2.43-7.59,4.47-8.89.73-.47,1.79-1.1,1.82-.2.02.7-.2,2.77.36,3.15,2.64-.25,4.98-2.39,7.56-1.59Z"/>
        <path class="cls-1" d="M382.52,203.49c-2.94.01-1.55,3.5-4.57,3.79-.1-.77-.21-1.89-.05-2.65.8-3.83.09-7.76.09-12.24-.02-7.82-5.34-16.49-13.98-15.65-7.63,8.62,2.88,21.04-6.13,18.79l-.53-22.53c-.02-.99-.69-2.01-.26-2.73,1.06-1.78,16.69-1.74,23.65,17.48,1.95,5.38,2.27,10.35,1.78,15.74Z"/>
        <path class="cls-1" d="M36.79,180.63c-1.41.32-2.17-.64-2.2-1.59-.02-.62.37-3.06-.28-3.23-7.11-1.88-11.02,2.84-14.22,7.3-2.71,3.78-1.37,15.11-1.01,15.36,2.82,1.95,2.01-3.15,4.64-2.96,1,.07.86,1.12.52,1.47-.26.26-.16,1.11-.8,1.53-3.55,2.33-6.94,4.86-10.68,6.11-.66-8.8.23-17.02,4.48-24.23s11.74-11.36,20.65-10.86l-1.1,11.09Z"/>
        <path class="cls-1" d="M340.7,112.19c-.96,6.98-4.56-2.85-8.52-6.39-.11-6,2.7-11.78,4.59-17.39.82-2.42,7.37-1.19,7.05,1.11l-3.13,22.67Z"/>
        <path class="cls-4" d="M249.97,311.21c6.68.11,13.37.22,20.04-.06,1.37-.06,2.46-.45,2.99-.1,2.04,1.34,4.21.4,6.07.13,6.77-.98,10.49,4.07,12.83,9.08-1.83,7.98-1.63-9.28-17.76-6.26-10.42,1.96-26.76-3.87-31.49,6.76-.94,2.12-1.04,4.61-3.31,4.63l-.19-2.03c1.06.12.63-1.44.67-2.09.51-6.01,4.83-10.48,10.15-10.06Z"/>
        <path class="cls-4" d="M382.52,203.49c-.19,2.07.05,3.7.14,4.88-.61-.57-1.87.18-1.87,1.14l-.03,16.02c0,1.06.37,2.28,1.18,2.08.42,12.72-1.2,22.78-13.04,27.98-1.21.53-1.64,2.51-3.17,1.97-.35-.72-.58-1.7.02-2.31.35-.36,1.03-.87,1.75-.98,3.17-.51,3.88-3.53,5.57-5.32,5.05-5.35,5.6-11.37,4.93-18.57-.04-.48-.23-24.54-.04-23.09,3.02-.29,1.63-3.78,4.57-3.79Z"/>
        <path class="cls-1" d="M315.9,110.64c.22.88,1.19,1.07,1.98,1.2l.93,1.04v3.87s-5.56-2.03-5.56-2.03c-.18-.51-.47-.93-.55-1.31-.15-.68-1.98-1.03-2.27-.31-.71,1.75,1.6,2.35,2.44,2.92.42,2.84,2.58,5.34,4.21,7.7-.03,1.14.18,2.15.41,3.78l-2.4.09c-1.54-6.07-10.48-11.93-10.16-20.78.15-4.24,9.55,3.01,10.98,3.82Z"/>
        <path class="cls-4" d="M229.04,331.99c2.3,5.33-7.8,1.45-13.36,2.65-2.85.61-6.94,1.23-9.24-.66-1.09-.9.03-2.99.82-3.29,6-2.31,11.35,2.93,18.26.02,1.62-.68,2.96,0,3.52,1.29Z"/>
        <path class="cls-4" d="M335.59,130.64c-1.52,1.57-2.44-.83-3.8-1.86-10.96-8.3-8.04-10.21-12.99-12.02v-3.87c1.63-1.13,18.25,15.73,16.79,17.76Z"/>
        <path class="cls-4" d="M226.1,320.29l-16.78.04c-.17-2.8,2.25-4.06,4.78-4.04,10.3.08,16.59-1.69,14.71,3.31-.22.58-1.61.7-2.71.7Z"/>
        <path class="cls-3" d="M273.89,349.17c-2.81,2.55-6.81,1.39-10.54,1.73-6.5.58-11.16.51-17.55-1-.61-.15-1.12-.55-.77-1.53,6.08.48,12.22.33,18.67.4,3.57.04,7.07-1.01,10.19.4Z"/>
        <path class="cls-1" d="M36.69,210.52c-1.44,2.16-1.36-8.44-1.45-9.9-.05-.86-.31-2.11-.44-2.91,1.37-3.89-.97-9.08,2.16-12.13,1.58,10.36-.61,21.36-.27,24.94Z"/>
        <path class="cls-3" d="M382.66,208.37c.34,4.15-.08,7.42-.23,10.97-.12,2.9,1.37,5.94-.5,8.27-.8.2-1.18-1.02-1.18-2.08l.03-16.02c0-.97,1.26-1.71,1.87-1.14Z"/>
        <path class="cls-3" d="M270.01,311.15c-6.67.29-13.36.17-20.04.06-.42-.6.37-.84,1.12-.85l17.85-.06c.72,0,1.27.3,1.07.84Z"/>
        <path class="cls-3" d="M237.3,345.13c-2.69-.38-5.23,3.88-6.19,1.59-.16-.38-.08-.97-.1-1.44,2.18,0,5.64-3.74,6.29-.15Z"/>
        <path class="cls-3" d="M221.21,345.31c.74,1.9-1.47,2.07-2.6,2-1.44-.08-3.38.38-3.47-1.37,1.86,0,3.93-.62,6.07-.63Z"/>
        <path class="cls-3" d="M314.91,168.78c-1.52.6-2.12-.83-1.72-2.05.33-1.01-.5-2.84.89-3.21.82,1.86.77,3.21.83,5.26Z"/>
        <path class="cls-3" d="M182.37,353.21l-4.26.02c-.57-1.48.48-2.03,1.6-2.08,1.62-.08,3.29.21,2.66,2.07Z"/>
        <path class="cls-3" d="M279.07,311.19c-1.86.27-4.03,1.21-6.07-.13,1.51-1.31,4.66-1.29,6.07.13Z"/>
        <path class="cls-3" d="M188.32,353.22h-3.26c-.43-.5-.19-1.08.14-1.52.54-.72,1.6-.62,2.47-.44.64.14,1.14,1.28.65,1.96Z"/>
        <path class="cls-3" d="M188.48,334.25c.22.65-.36.77-.82.92-.83.27-1.93-.05-1.65-.98.42-.13.93-.77,1.46-.6.4.13.72.64,1,.66Z"/>
        <path class="cls-3" d="M276.76,351.46c-.56.6-.87.27-1.29-.19-.52-.58-.82-1.24-.68-1.96.66-.1,1.89-.25,2.19.42.27.61-.07,1.36-.22,1.74Z"/>
        <path class="cls-3" d="M229.25,353.1c-.79,0-1.59.09-2.38.09-.39-.5-.14-.97.21-1.47.29-.41.74-.81,1.47-.51.58.24,1.17,1.19.69,1.89Z"/>
        <path class="cls-3" d="M313.78,208.34c-.05.75.21,2.22-.78,2.37-.4-.38-1.28-1.14-1.05-1.63.37-.78,1.25-1.29,1.84-.75Z"/>
        <path class="cls-3" d="M313.91,156.92c-.53.43-1.05.08-1.43-.25-.87-.72-.16-1.65-.18-2.35.89-.7,1.37.52,1.43,1.03l.18,1.56Z"/>
        <path class="cls-3" d="M241.28,348.07c-.45-.04-1.04.22-1.62.03-.8-.27-.68-1.31-.53-2.03,1.07.25,2.56.6,2.15,2.01Z"/>
        <path class="cls-2" d="M239.16,323.37c-.11-1.15.34-1.68.67-2.09-.04.64.39,2.21-.67,2.09Z"/>
        <path class="cls-4" d="M317.88,111.84c-.79-.13-1.76-.32-1.98-1.2.68.38,1.39.55,1.98,1.2Z"/>
        <path class="cls-5" d="M300.78,209.31c-.79-.68-1.4.26-1.64.86-.2.5-.24.99-.21,1.44-8.13,12.95-19.64,17.62-33.73,15.8.18-.86-1.09-.77-1.64-.86-.46-.08-1.58-.31-1.54.58-2.48-2.26-5.92-1.77-8.46-3.53-10.63-7.35-17.95-20.46-16.52-33.15,1.23-10.94,7.06-19.75,14.83-24.92,9.33-6.2,20.38-7.35,30.77-3.39,19.16,7.31,25.62,28.89,18.13,47.16ZM292.51,193.96c0-12.05-9.77-21.82-21.82-21.82s-21.82,9.77-21.82,21.82,9.77,21.82,21.82,21.82,21.82-9.77,21.82-21.82Z"/>
        <path class="cls-5" d="M120.31,228.33c-11.75-1.47-23.17-9.73-26.92-20.55-.22-.63.11-1.52-.58-2.23-.34-.35-.69-.76-1.28-.24.02-.24-.02-.5-.05-.73-.22-2.09.62-4.76-1.11-6.25.21-7.06-.2-14.56,3.75-21.15,10.99-18.34,36.3-22.86,52.16-8.82,14.64,12.96,15.29,33.62,2.82,48.24-6.9,8.09-17.91,13.1-28.79,11.74ZM117.38,172.5c-9.55,2.87-16.01,11.77-15.77,21.74.23,9.97,7.1,18.56,16.77,20.98s19.77-1.92,24.67-10.61c4.9-8.69,3.39-19.58-3.68-26.6-5.77-5.73-14.21-7.84-21.99-5.5Z"/>
        <path class="cls-5" d="M211.08,281.55c-.87-.66-2.82.49-3.76-.05-1.61-.93-2.98.65-4.29.71-5.87.28-11.9.2-17.75-.08,0-1.02-1.56-.67-2.24-.69l-2.95-.09c-14.07-3.99-27.68-9.37-38.1-20.58-1.79-1.92-.19-4.71,1.05-6.15,1.39-1.61,3.38-2.83,5.91-1.92,3.65,1.32,18.71,22.71,59.84,17.14,4.71-.64,9.19-2.5,13.65-3.83,22.48-6.7,19.19-17.51,27.77-12.6,1.33.76,3.26,3.12,2.14,5.35-2.58,5.14-8.15,7.9-12.25,11.6-5.85,5.27-21.87,9.09-29.02,11.18Z"/>
        <path class="cls-1" d="M91.48,204.58c.02.24.07.5.05.73-.04.48-.16,1.03.07,1.57.25.58,1.03,1.53,1.79.9,3.75,10.82,15.17,19.08,26.92,20.55-.35.68-.19,2.02-.75,2.66-.03.04-11.6-1.43-18.53-8.03-3.36-3.2-7.18-6.18-9.9-9.93-1.65-2.27-1.42-5.47-3.86-7.13,1.66-.67,2.39-.6,3.17-1.12.28-.19.75-.06,1.06-.2Z"/>
        <path class="cls-1" d="M180.1,281.36l2.95.09c-.38.43-.19.85.13,1.4.26.45.74.63,1.21.31.31-.22.64-.64.9-1.02,5.85.28,11.88.36,17.75.08.02,1.26,1.58,1.14,2.61,1.25s2.26-.67,1.68-1.96c.94.54,2.89-.61,3.76.05,1.04,1.08,2.91.36,4.27,2.26-6.23,1.94-39.38,3.13-40.99-2.1,3.12-.94,4.42,1.16,5.74-.35Z"/>
        <path class="cls-3" d="M91.48,204.58c-.31.14-.78.01-1.06.2-1.2-2.27-.12-4.4-.05-6.46,1.74,1.49.9,4.17,1.11,6.25Z"/>
        <path class="cls-3" d="M265.21,227.42c-.98.74-1.74,1.51-2.36.91-.38-.36-.67-.76-.82-1.19-.04-.9,1.09-.66,1.54-.58.54.09,1.82,0,1.64.86Z"/>
        <path class="cls-3" d="M300.78,209.31c-.43,1.04.73,2.04-1.85,2.3-.03-.45.01-.94.21-1.44.23-.59.85-1.53,1.64-.86Z"/>
        <path class="cls-1" d="M328.56,151.72c.81,3.43.02,7.35,1.4,10.71-1.31-.16-1.3,1.57-1.05,2.63.13.54,1.08,1.35,1.8.75.41,11.92.29,23.83-.04,35.74-1.17.19-2.97-.25-3.98.43-1.35.91.27,3.07-1.39,4.62-.99-3.28-.39-6.96.92-10.43,1.69-4.45-.07-8.92.16-13.27.48-9.46.94-18.73-1.06-28.24-.43-2.05,2.05-3.27,3.24-2.95Z"/>
        <path class="cls-4" d="M313.26,114.72l-.38,1.3c-.84-.56-3.14-1.17-2.44-2.92.29-.72,2.12-.38,2.27.31.08.38.37.8.55,1.31Z"/>
        <path class="cls-4" d="M330.72,165.82c-.72.6-1.68-.21-1.8-.75-.24-1.06-.25-2.8,1.05-2.63.52,1.27.7,1.94.75,3.39Z"/>
        <path class="cls-3" d="M34.8,197.71c.13.8.38,2.06.44,2.91-.63.12-1.42.12-1.87.38-2.2,1.25,1.17,8.25.11,10.43-2.79-.95-6.74.35-9.11-1.89-1.34-1.73-.83-6.45.1-8.7,1.39-3.35,7.29-4.19,10.33-3.13Z"/>
        <path class="cls-5" d="M360.29,61.48c-1.46,6.18-6.6,10.22-11.91,8.23-6.13-2.3-10.39-7.8-7.61-13.72,2.37-5.05,7.04-7.72,11.89-6.51,5.11,1.27,9.01,6.14,7.63,12Z"/>
        <circle class="cls-2" cx="270.69" cy="193.96" r="21.82"/>
        <path class="cls-2" d="M117.38,172.5c-.52,1.29-2.94,1.02-2.41,3.39,18.37-5.01,14.12,4.3,24.41,2.11,7.07,7.03,8.58,17.92,3.68,26.6-4.9,8.69-15,13.03-24.67,10.61s-16.54-11.01-16.77-20.98c-.23-9.97,6.22-18.87,15.77-21.74Z"/>
        <path class="cls-4" d="M139.37,178c-10.28,2.18-6.04-7.12-24.41-2.11-.52-2.37,1.9-2.1,2.41-3.39,7.79-2.34,16.23-.23,21.99,5.5Z"/>
        <path class="cls-3" d="M93.39,207.79c-.76.63-1.54-.32-1.79-.9-.23-.54-.11-1.09-.07-1.57.59-.52.94-.11,1.28.24.68.71.36,1.6.58,2.23Z"/>
        <path class="cls-4" d="M207.32,281.5c.58,1.29-.65,2.06-1.68,1.96s-2.59,0-2.61-1.25c1.31-.06,2.68-1.65,4.29-.71Z"/>
        <path class="cls-4" d="M185.28,282.14c-.26.38-.59.8-.9,1.02-.47.33-.95.14-1.21-.31-.32-.56-.51-.97-.13-1.4.68.02,2.24-.33,2.24.69Z"/>
        <g>
          <path class="cls-2" d="M212.23,28.02c-.24,4.32,1.09,6.38-1.92,10.48-5.44,7.42-16.26,9.98-24.32,4.23-6.98-4.98-10.04-15.51-4.5-22.65.68,3.03,9.24-2.71,10.66-5.1,13.64-1.9,14.96,6.2,20.08,13.04Z"/>
          <path class="cls-4" d="M212.23,28.02c-5.12-6.84-6.43-14.95-20.08-13.04-1.43,2.39-9.99,8.13-10.66,5.1,4.3-7.63,11.68-10.22,20.43-7.58,6.13,1.85,10.68,8.64,10.31,15.53Z"/>
        </g>
      </g>
    </g>
  </g>
</svg>