<?xml version="1.0" encoding="UTF-8"?>
<svg id="Layer_2" data-name="Layer 2" xmlns="http://www.w3.org/2000/svg" viewBox="0 0 419.21 402.46">
  <defs>
    <style>
      .cls-1 {
        fill: #bcc9bb;
      }

      .cls-2 {
        fill: #e3eae3;
      }

      .cls-3 {
        fill: #323e37;
      }
    </style>
  </defs>
  <g id="Layer_1-2" data-name="Layer 1">
    <g>
      <path class="cls-1" d="M143.56,401.36c-.72.16-1.59,1.33-2.66,1.05-.96-.25-1.6-.93-1.69-2,1.42-.07,3.62-.61,4.35.95Z"/>
      <path class="cls-1" d="M160.51,400.4c.59,1.27-.56,1.99-1.71,2.03-.96.04-1.93-.7-2.66-1.2.9-1.39,2.94-.77,4.37-.83Z"/>
      <path class="cls-1" d="M281.36,400.32c-.12,1.08-.73,1.88-1.79,2.1s-1.95-.77-2.67-1.21c.92-1.4,2.99-.81,4.45-.89Z"/>
      <path class="cls-1" d="M258.34,401.23c-.48.24-1.09,1.36-1.63,1.04-.82-.5-1.39-1.32-.85-1.95.85.18,2.1-.09,2.48.92Z"/>
      <path class="cls-1" d="M218.21,38.9c-.04.68.23,2.18-.71,2.24-.41-.22-.91-.52-1.11-.84-.43-.68-.05-1.01.35-1.27.58-.37,1.04-.54,1.47-.13Z"/>
      <g>
        <path class="cls-1" d="M201.12,339.55c-.56.35-.86-.46-.87-1.18l.28-34.09c.6-.56,1.7.32,1.7,1.23l.14,31c0,1.54-.92,2.22-1.25,3.03Z"/>
        <path class="cls-1" d="M200.43,270.75c-.02-8.07-1.17-16.38.64-24.24.77-.16,1.21.99,1.2,2.07l-.04,21c0,.96-1.18,1.8-1.81,1.18Z"/>
        <path class="cls-1" d="M200.56,293.77c-.58-6.77-.11-13.61-.13-20.4.63-.64,1.8.23,1.8,1.19v17.94c0,.89-1.06,1.87-1.68,1.27Z"/>
        <path class="cls-1" d="M272.3,1.98c-6.47-.22-12.91.37-19.32,1.06-3.72-2.9,23.45-4.56,19.32-1.06Z"/>
        <path class="cls-1" d="M201.14,74.14c-1.67-1.5-1.1-13.42.03-17.3,1.55-3.05,1.67,19.27-.03,17.3Z"/>
        <path class="cls-1" d="M201.09,114.03c0-5.42-2.5-11.86.05-17.25,1.61-3.46,1.67,20.74-.05,17.25Z"/>
        <path class="cls-1" d="M217.23,86.86v10.18c-2.96,3.35-2.96-13.54,0-10.18Z"/>
        <path class="cls-1" d="M222.01,373.35c-3.02-.61-2.41-4.38-2.87-6.83,1.5,2.06,2.22,4.44,2.87,6.83Z"/>
        <path class="cls-1" d="M200.43,350.59c-.26-2.44-.75-5.17.65-7.29,1.54-1.2,2.13,9.28-.65,7.29Z"/>
        <path class="cls-1" d="M200.52,302.72c-.41-2.47-.4-4.98.03-7.45,2.09-.24,1.76,2.33,1.77,3.74s.31,3.97-1.81,3.71Z"/>
        <path class="cls-1" d="M217.24,107.84v5.14c-1.9.62-2.14-1.09-2.13-2.57s.18-3.2,2.13-2.57Z"/>
        <path class="cls-1" d="M217.23,123.78c-.11,1.71-.01,3.46,0,5.17-1.9.63-2.14-1.09-2.13-2.57,0-1.4.19-3.22,2.12-2.6Z"/>
        <path class="cls-1" d="M200.56,87.2c-.29-1.77-.14-3.7,0-5.48,1.67-.47,1.8,1.58,1.8,2.74,0,1.16-.13,3.21-1.8,2.74Z"/>
        <path class="cls-1" d="M217.23,163.67l.02,5.18c-1.92.62-2.15-1.06-2.13-2.56.01-1.38.21-3.24,2.12-2.62Z"/>
        <path class="cls-1" d="M201.16,46.22c-1.23-.5-.71-2.29-.75-3.36,1.08-.63,2,.48,1.9,1.66-.05.6-.86,1.17-1.15,1.7Z"/>
        <path class="cls-1" d="M217.23,198.63v2.17c-.69.45-1.69.06-2.01-.61s.04-1.2.51-1.48c.49-.3,1.02-.41,1.5-.08Z"/>
        <path class="cls-1" d="M201.08,240.76c-.68.35-.68-.21-.74-.7-.07-.66-.19-1.9.71-1.52.4.3.98.81.81,1.34-.13.41-.63.65-.79.89Z"/>
        <path class="cls-1" d="M16.46,272.37l.05,2.37c-.68-.07-1.55-.2-1.83-.76-.27-.53-.04-1.06.46-1.3.33-.16.81-.22,1.32-.3Z"/>
        <path class="cls-1" d="M17.52,279.72c-.58.55-1.5,0-1.84-.74-.22-.47.49-1.25.94-1.65,1.04.12.76,1.63.9,2.39Z"/>
        <path class="cls-1" d="M217.23,102.82v2.19c-.67-.09-1.71-.11-2.01-.62-.36-.62.01-1.2.58-1.33.37-.09.85-.18,1.43-.24Z"/>
        <path class="cls-1" d="M201.13,94.09c-.98-.13-.68-1.68-.58-2.39.59-.54,1.4.13,1.65.85.19.53-.61,1.21-1.07,1.54Z"/>
        <path class="cls-1" d="M217.23,134.75v2.23c-.63.49-1.47.11-2-.62-.34-.47-.12-1.15.57-1.33.36-.09.87-.21,1.43-.27Z"/>
        <path class="cls-1" d="M164.5,399.41c-.17.52-.22,1.43-.86,1.71-.57.24-1.2-.33-1.51-.79.08-1.08,1.63-.72,2.38-.92Z"/>
        <g>
          <path class="cls-3" d="M272.3,1.98c5.62.19,12.3.62,17.17,3.98l10.4,7.17c-.16.72.12,1.46.74,1.93.37.28.85.39,1.34.24l8.92,14.05c18.89-1.71,35.44,8.74,43.84,25.04,8.31,16.14,1.64,20.99,5.32,23.84,1.05.81,2.69-.02,4.01.56,25.35,11.2,37.35,39.77,27.65,65.92,21.72,14.77,31.06,39.44,26.33,65.07-2.68,14.52-8.95,27.07-20.83,36.47,9.76,18.12,7.05,38.88-5.85,53.74-5.36,6.17-10.86,10.84-19.89,12.28,2.61,4.33,2.05,7.95,1.99,11.67-.18,12.84-6.28,22.31-15.14,30.85-10.43,10.05-23.25,15.57-38.21,11.38-1.71,10.68-10.13,16.05-11.29,19.26-1.4.22-2.38,1.3-2.66,2.67-7.26,5.89-15.47,10.83-24.77,12.21-1.46.09-3.53-.51-4.45.89-5.38,1.31-12.34-.26-18.57.02-.39-1.01-1.63-.73-2.48-.92-12.79-2.75-30.43-14.35-33.85-26.96-.65-2.4-1.37-4.77-2.87-6.83l-1.74-9.27-.16-156.45v-2.17s0-29.78,0-29.78l-.02-5.18v-26.69s0-2.23,0-2.23c.23-1.93.03-3.87,0-5.8-.02-1.71-.12-3.46,0-5.17.23-3.6,0-7.2,0-10.79v-5.14c0-.94.11-1.89,0-2.83v-2.19c.22-1.93,0-3.86,0-5.79v-10.18s.27-45.73.27-45.73c.94-.06.67-1.56.71-2.24.28-5.34,3.13-10.1,5.2-14.97,1.38-.78,2.12-2.21,2.66-3.65,4.88-2.14,2.28-6.29,12.07-11.09,1.73-.29,4.33-.73,4.24-2.87,3.65-.77,6.81-2.87,10.58-3.28,6.41-.69,12.85-1.28,19.32-1.06ZM229.31,46.06c-.25.93-1.15,2.25-1.13,3.95l.91,70.77c0,.74-.44,1.63.1,2.36.5.69,1.4.46,2.13.46l30.81.04.13-40.09c-11.43-4.26-18.97-16.78-13.97-28.49,4.08-9.56,14.34-15.36,24.38-12.6,6.71,1.84,13.04,7.01,15.45,13.6,3.23,8.81-.7,19.31-8.14,24.32-2.18,1.47-4.83,1-6.72,2.95l-.27,44.28c-.02,3.98-3.13,6.48-6.84,6.43l-37.37-.54c-1.18,5.89.14,11.39.3,17.26.09,3.4-1.89,6.77.21,9.99l61.67-.06c5.09-6.83,10.75-12.22,16.97-17.96,1.06-.98,3-2.99,2.1-4.67-4.86-9.1-2.97-19.84,4.2-26.62,7.12-6.72,18.51-7.34,27.22-1.62,6.9,4.54,9.74,13.69,8.37,22.06-1.56,9.55-15.21,22.47-30.13,14.91-2.75-1.39-3.78,2.31-5.12,3.53-5.42,4.91-10.41,9.53-14.61,15.4-1.56,2.17-4.76,2.94-6.06,5.07l-2.68.08c-1.11.03-2.23-.05-3.33.06-10.44.97-20.95.7-31.89.3-6.09-.22-11.93.45-17.68-.33-1.11-.15-2.29-.1-3.4-.09-1.64.01-3.5-.47-5.44.23-.84.3-1.02,2.57-.4,2.86-1.11,1.23-.45,3.21-.07,5.04,1.04,4.98-.98,9.84-.47,14.96.81,2.23,5.34.92,7.7.93l95.62.1c.95,0,4.1,1.53,4.5.22,2.92-9.57,10.27-15.04,20.2-16.09,6.35-.67,12.69,1.51,16.84,5.84,7.06,7.35,7.8,19.15,1.01,28.54-4.97,6.88-13.69,9.4-21.79,7.51-7.55-1.76-13.71-6.81-16.44-15.51l-107.21-.08c.18,8.63.39,16.27-.76,24.3-.24,1.68,1.44,2.79,3,2.8l61.83.2c3.77.01,7.1,3.17,9.31,5.55l14.33,15.39c9.26-5,20.88-2.92,27.04,4.92,5.84,7.43,7.17,15.9,3.19,23.7-8.08,15.84-28.62,12.53-34.21,6.73-8-8.32-9.37-17.96-3.23-28.44-6.62-5.83-12.58-11.34-17.71-18.38-21.33.73-41.8.94-63.16.04-.51,7.53,1.08,14.49.04,21.83-.22,1.57-.6,3.04.2,4.46s2.73.4,4.53.37l29.85-.39c3.11-.04,9.31,1.12,9.51,5.29.73,15.38.16,30.41-.1,45.75,8.29,2.38,13.8,7.81,15.56,14.47,2.24,8.42-.42,15.53-6.01,21.49-8.55,9.1-21.59,9.02-29.93-.18-6.39-7.06-8.53-16.79-3.4-25.02,3.09-4.97,7.43-8.42,12.98-10.16.72-11.33.34-23.38.4-34.48.01-2.2,1.08-4.43-.24-7.11l-30.87-.03c-2.2,0-2.8,1.46-2.81,2.94l-.09,27.1.38,31.01c.07,5.55-1.7,11.25.6,15.88.27.54.03,1.47.1,2.07.5,4.67,1.35,10.23,4.49,14.46,5.4,7.27,12.66,13.39,21.43,16.26,24.04,7.87,48.91-6.01,56.88-29.51,2.96-8.74,6.65-21.72,1.97-30.3.38-1.49,3.06-2.05,4.34-1.82,7.47,1.37,5.84,22.98,4.79,29.61,14.68,1.75,28.94-6.15,34.91-19.31,8.36-18.43.92-30.11.91-29.9.27-9.51,16.95,2.89,29.21-23.39,4.99-10.7,4.9-24.12-2.4-34.03-2.57.14-5.44,1.6-7.8.26-1.75-1-4.81-2.96-4.11-6.1,1.44-6.46,15.27,3.32,26.81-19.96.25-.5.28-1.23.42-1.77.58.59.9.04,1.11-.29.51-.8.48-1.51.57-2.17l.23-1.78c2.02-1.69,2.55-4.38,2.51-6.93,1.91-1.86.2-6.04,1.38-7.95,1.72-2.77.45-4.55-.01-7.26-.59-3.44.14-7.18-1.13-10.6-.29-.77-.7-1.67-.91-2.44-3.11-11.12-9.94-21.16-19.32-28.49-1.56-1.22-3.23-1.34-4.71-.97-1.64.42-1.53,2.57-2.11,3.59-2.26,1.3-3.19,5.73-5.83,6.79s-4.46-1.44-5.16-3.17c-1.48-3.64,3.1-15.34,5.59-16.78,2.12-1.23,4.88-.21,6.58-2.02,1.95-2.08,1.42-4.36,2.05-6.78,3.61-13.72-1.21-28.19-11.52-37.92-10.69-10.1-25.65-13.11-39.67-9.05-.57-2.28-2.58-3.89-1.78-5.99,2.38-6.31,7.08-5.57,13.04-5.93,1.06-.06,3.41.92,4.91-.29,1.26-10.45-4.47-21.71-12.36-27.79-9.3-7.16-21.22-8.73-32.77-4.42-3.52-22.79-25.35-35.76-46.81-29.37-15.09,4.49-25.35,16.68-25.75,32.11ZM277.16,68.36c3.13-3.38,1.85-8.49-.28-11.69s-6.46-4.94-10.85-4.44c-6.58.74-9.17,7.61-7.8,13.95.89,4.11,4.98,6.31,8.57,6.79s7.46-1.47,10.36-4.6ZM333.26,136.68c4.62-1.91,6.94-7.62,5.76-12.13-1.54-5.89-6.39-9.09-12.59-7.86-6.41,1.28-10,7.07-8.56,12.99,1.77,7.28,8.42,10.34,15.39,6.99ZM368.83,198.57c.21-4.23-3.1-6.92-5.87-8.35-3.69-1.91-7.06-1.42-10.73.74-4.93,2.91-6.91,9-4.57,14.37,1.99,4.55,8.04,7.18,12.88,5.74,5.51-1.63,7.95-5.89,8.28-12.5ZM338.31,274.25c1.22-4.16-1.42-8.25-3.92-10.61-2.73-2.57-6.89-3.41-10.15-1.88-5.61,2.63-8.48,6.81-7.78,11.91.81,5.93,4.64,9.44,10.21,9.9,5.28.44,9.88-3.29,11.64-9.33ZM278.16,336.87c-2.01-5.05-6.86-7.08-11.49-6.7-3.99.33-8.65,2.84-9.82,7.63s1.2,9.68,4.5,11.72c4.31,2.66,8.87,2.39,12.99-.49,3.17-2.22,5.76-7.3,3.82-12.17Z"/>
          <path class="cls-1" d="M242.39,6.31c.09,2.14-2.51,2.58-4.24,2.87.42-.81.31-1.97,1.25-2.39,1.06-.48,2.05-.28,2.99-.48Z"/>
          <path class="cls-1" d="M226.08,20.28c-.54,1.45-1.28,2.87-2.66,3.65.7-1.64.87-2.87,2.66-3.65Z"/>
          <path class="cls-1" d="M308.79,385.44c-.49,1.37-1.63,1.83-2.66,2.67.28-1.37,1.26-2.45,2.66-2.67Z"/>
          <path class="cls-1" d="M301.95,15.29c-.49.15-.97.04-1.34-.24-.62-.47-.9-1.2-.74-1.93.49.34,1.71-.23,1.98.63.16.53.08,1.13.1,1.54Z"/>
          <path class="cls-1" d="M342.07,75.82c-5.96.36-10.67-.38-13.04,5.93-.79,2.1,1.21,3.7,1.78,5.99-1.61.16-1.93.94-.25,1.71,4.63,9.46,5.99-2.16,27.05,8.6,5.96,3.04,12.1,6.19,16.25,11.8,8.2,11.09,2.87,24.35,8.14,24.87-.64,2.42-.1,4.7-2.05,6.78-1.7,1.81-4.47.79-6.58,2.02-2.49,1.45-7.07,13.14-5.59,16.78.7,1.73,2.39,4.28,5.16,3.17s3.57-5.49,5.83-6.79l6.69,1.71c3.21.82,11.14,12.64,13.94,19.52,1.93,4.74,2.95,9.81,4.21,14.83,2.1,8.37-3.79,18.56-1.12,23.22,1.25-2.42,1.78-3.91,3.09-5.18.04,2.56-.49,5.24-2.51,6.93-.75-.44-1.72-.72-2.45-.11.01-.01-2.98,4.33-2.27,5.59.38.67,1.56.46,2.4.52-11.54,23.28-25.37,13.5-26.81,19.96-.7,3.14,2.36,5.1,4.11,6.1,2.36,1.34,5.23-.11,7.8-.26,7.3,9.91,7.4,23.32,2.4,34.03-12.26,26.28-28.94,13.87-29.21,23.39,0-.21,7.44,11.47-.91,29.9-5.97,13.17-20.23,21.07-34.91,19.31,1.05-6.62,2.67-28.24-4.79-29.61-1.28-.24-3.97.32-4.34,1.82,4.68,8.58.99,21.56-1.97,30.3-7.97,23.49-32.83,37.38-56.88,29.51-8.77-2.87-16.03-8.99-21.43-16.26-3.14-4.23-3.99-9.79-4.49-14.46,3.72,2.6.74-11.85,2.37-17.08,2.1-6.75,1.7-16.82.88-24.08-.94-8.38-.55-25.78,1.33-34.07,8.12-.44,16.02-1.99,23.66-.02,1.49.38,2.24,4.78,4.68,3.37-.05,11.1.32,23.15-.4,34.48-5.55,1.74-9.88,5.19-12.98,10.16-5.13,8.23-2.99,17.97,3.4,25.02,8.34,9.2,21.38,9.28,29.93.18,5.59-5.96,8.25-13.07,6.01-21.49-1.77-6.66-7.27-12.1-15.56-14.47.26-15.34.83-30.38.1-45.75-.2-4.17-6.4-5.33-9.51-5.29l-29.85.39c-1.8.02-3.73,1.04-4.53-.37s-.42-2.88-.2-4.46c1.04-7.34-.55-14.31-.04-21.83,21.36.9,41.83.69,63.16-.04,5.13,7.04,11.09,12.55,17.71,18.38-6.14,10.49-4.77,20.13,3.23,28.44,5.58,5.8,26.13,9.11,34.21-6.73,3.98-7.81,2.65-16.27-3.19-23.7-6.16-7.84-17.78-9.93-27.04-4.92l-14.33-15.39c-2.21-2.37-5.54-5.54-9.31-5.55l-61.83-.2c-1.56,0-3.24-1.12-3-2.8,1.14-8.04.94-15.67.76-24.3l107.21.08c2.73,8.7,8.89,13.75,16.44,15.51,8.1,1.89,16.82-.64,21.79-7.51,6.79-9.4,6.05-21.19-1.01-28.54-4.16-4.33-10.5-6.51-16.84-5.84-9.92,1.05-17.27,6.51-20.2,16.09-.4,1.32-3.55-.21-4.5-.22l-95.62-.1c-2.36,0-6.89,1.3-7.7-.93-.51-5.11,1.51-9.98.47-14.96-.38-1.83-1.04-3.82.07-5.04,1.28.61.76,4.14,1.91,4.61,2.22.92,1.64-3.25,2.55-3.87,4.98-2.97,64.49,4.53,60.36-3.84,1.29-2.13,4.5-2.89,6.06-5.07,4.21-5.87,9.19-10.49,14.61-15.4,1.35-1.22,2.37-4.92,5.12-3.53,14.92,7.56,28.56-5.36,30.13-14.91,1.37-8.37-1.47-17.52-8.37-22.06-8.71-5.73-20.1-5.11-27.22,1.62-7.18,6.78-9.06,17.52-4.2,26.62.9,1.69-1.04,3.7-2.1,4.67-6.22,5.74-11.88,11.12-16.97,17.96l-61.67.06c-2.1-3.22-.12-6.59-.21-9.99-.15-5.87-1.48-11.37-.3-17.26l37.37.54c3.7.05,6.81-2.45,6.84-6.43l.27-44.28c1.88-1.96,4.54-1.48,6.72-2.95,7.44-5.01,11.38-15.51,8.14-24.32-2.41-6.58-8.75-11.76-15.45-13.6-10.04-2.76-20.3,3.04-24.38,12.6-5,11.71,2.54,24.23,13.97,28.49l-.13,40.09-30.81-.04c.01-1.43,2.08-1.6,2.71-2.21-1.01-1.06-1.78-1.91-2.19-3.59-1.12,1.04-1.64,2.22-2.74,2.97l-.91-70.77c-.02-1.7.88-3.01,1.13-3.95,2.42,2.12.12,5.24,2.03,8.59.77-9.7,9.5-21.69,17.45-27.08,4.56-3.09,10.25-4.18,15.61-5.18,8.92-1.66,16.6,1.46,23.31,6.92,3.84,3.13,7.01,6.02,6.93,11.61-.14,10.4,15.59,5.86,23.4,7.32,12.09,2.27,26.52,13.77,24.04,27.58ZM268.19,230.17c-9.11-.92-17.59-.76-26.11-.07,9.08,1.47,17.58.6,26.11.07ZM274.08,230.21c-2.36-.89-3.49-.97-4.06.18,1.78.42,3,.61,4.06-.18Z"/>
          <path class="cls-2" d="M342.07,75.82c2.48-13.81-11.96-25.31-24.04-27.58-7.81-1.46-23.54,3.08-23.4-7.32.07-5.59-3.09-8.48-6.93-11.61-6.71-5.46-14.39-8.58-23.31-6.92-5.36,1-11.05,2.09-15.61,5.18-7.95,5.39-16.68,17.38-17.45,27.08-1.9-3.35.39-6.47-2.03-8.59.4-15.43,10.66-27.61,25.75-32.11,21.46-6.39,43.29,6.58,46.81,29.37,11.54-4.32,23.47-2.74,32.77,4.42,7.89,6.08,13.62,17.34,12.36,27.79-1.5,1.21-3.86.22-4.91.29Z"/>
          <path class="cls-2" d="M382.01,134.72c-5.27-.53.07-13.79-8.14-24.87-4.15-5.6-10.29-8.75-16.25-11.8-21.06-10.75-22.43.86-27.05-8.6-1.68-.77-1.36-1.55.25-1.71,14.02-4.06,28.99-1.04,39.67,9.05,10.3,9.74,15.13,24.21,11.52,37.92Z"/>
          <path class="cls-1" d="M338.31,274.25c-1.77,6.04-6.36,9.77-11.64,9.33-5.57-.47-9.4-3.97-10.21-9.9-.7-5.1,2.17-9.28,7.78-11.91,3.27-1.53,7.43-.69,10.15,1.88,2.49,2.35,5.14,6.44,3.92,10.61Z"/>
          <path class="cls-1" d="M368.83,198.57c-.33,6.6-2.78,10.87-8.28,12.5-4.84,1.43-10.89-1.19-12.88-5.74-2.34-5.36-.36-11.46,4.57-14.37,3.66-2.16,7.04-2.65,10.73-.74,2.77,1.44,6.09,4.12,5.87,8.35Z"/>
          <path class="cls-1" d="M278.16,336.87c1.94,4.86-.65,9.94-3.82,12.17-4.11,2.88-8.67,3.15-12.99.49-3.3-2.04-5.63-7.1-4.5-11.72s5.83-7.3,9.82-7.63c4.63-.39,9.48,1.64,11.49,6.7Z"/>
          <path class="cls-1" d="M277.16,68.36c-2.9,3.14-6.87,5.07-10.36,4.6s-7.68-2.68-8.57-6.79c-1.37-6.34,1.22-13.21,7.8-13.95,4.39-.49,8.81,1.38,10.85,4.44s3.41,8.31.28,11.69Z"/>
          <path class="cls-1" d="M326.43,116.7c.2.58.58,1.55,1.92,1.69,4.96.51,9.85,5.75,8.14,10.9-.9,2.72-4.01,4.54-3.22,7.4-6.97,3.35-13.63.29-15.39-6.99-1.44-5.92,2.15-11.72,8.56-12.99Z"/>
          <path class="cls-2" d="M262.22,285.59c-2.44,1.4-3.2-2.99-4.68-3.37-7.64-1.97-15.54-.42-23.66.02-1.88,8.28-2.27,25.69-1.33,34.07.81,7.26,1.22,17.33-.88,24.08-1.63,5.23,1.36,19.68-2.37,17.08-.06-.6.17-1.54-.1-2.07.59.13.81-.36.82-1.06l.18-15.75c.05-4.14.67-7.18.35-11.23-.61-7.69.21-44.29-.91-45.79-.28-.38-.85-.54-1.33-.16,0-1.49.6-2.95,2.81-2.94l30.87.03c1.32,2.68.25,4.91.24,7.11Z"/>
          <path class="cls-2" d="M404.9,182.55c-.94-.29-1.42,1.05-1.05,1.68.4.7,1.33,1.34,1.96.75,1.27,3.42.55,7.16,1.13,10.6-1.83,1.71-1.87,5.58.01,7.26-1.18,1.91.53,6.1-1.38,7.95-1.31,1.27-1.83,2.75-3.09,5.18-2.67-4.66,3.22-14.85,1.12-23.22-1.26-5.02-2.28-10.09-4.21-14.83-2.8-6.88-10.73-18.7-13.94-19.52l-6.69-1.71c.58-1.02.47-3.17,2.11-3.59,1.47-.38,3.15-.25,4.71.97,9.38,7.33,16.2,17.36,19.32,28.49Z"/>
          <path class="cls-2" d="M234.92,170.79c-.58,1.17.52,2.12,1.73,2.05,1.04-.06,2.29-.66,1.68-1.96,5.75.78,11.59.11,17.68.33,10.93.4,21.45.67,31.89-.3-.61,1.28.58,1.93,1.68,1.94,1.18.01,2.24-.73,1.66-2l2.68-.08c4.13,8.37-55.38.87-60.36,3.84-.91.62-.33,4.79-2.55,3.87-1.15-.47-.63-4-1.91-4.61-.62-.3-.44-2.56.4-2.86,1.94-.7,3.79-.22,5.44-.23Z"/>
          <path class="cls-1" d="M229.19,355.39c-2.3-4.63-.53-10.33-.6-15.88l-.38-31.01.09-27.1c.49-.38,1.05-.22,1.33.16,1.12,1.5.3,38.1.91,45.79.32,4.05-.3,7.09-.35,11.23l-.18,15.75c0,.7-.23,1.19-.82,1.06Z"/>
          <path class="cls-2" d="M333.26,136.68c-.79-2.86,2.32-4.68,3.22-7.4,1.71-5.15-3.18-10.39-8.14-10.9-1.34-.14-1.72-1.11-1.92-1.69,6.2-1.23,11.05,1.96,12.59,7.86,1.18,4.51-1.14,10.22-5.76,12.13Z"/>
          <path class="cls-2" d="M403.06,217.73l-.23,1.78c-.77-.63-1.59.15-1.82.82-.2.59.26,1.17.14,1.64-.14.54-.17,1.27-.42,1.77-.84-.06-2.02.15-2.4-.52-.71-1.26,2.28-5.6,2.27-5.59.72-.61,1.7-.33,2.45.11Z"/>
          <path class="cls-2" d="M231.31,123.59c-.73,0-1.62.23-2.13-.46-.54-.74-.09-1.62-.1-2.36,1.1-.76,1.62-1.93,2.74-2.97.41,1.68,1.18,2.52,2.19,3.59-.63.6-2.69.77-2.71,2.21Z"/>
          <path class="cls-1" d="M406.96,202.85c-1.88-1.68-1.84-5.55-.01-7.26.46,2.71,1.73,4.49.01,7.26Z"/>
          <path class="cls-1" d="M238.32,170.88c.61,1.29-.64,1.89-1.68,1.96-1.21.08-2.3-.88-1.73-2.05,1.12,0,2.3-.06,3.4.09Z"/>
          <path class="cls-1" d="M291.22,170.86c.58,1.27-.47,2.01-1.66,2-1.1-.01-2.29-.66-1.68-1.94,1.11-.1,2.23-.02,3.33-.06Z"/>
          <path class="cls-1" d="M402.83,219.51c-.08.66-.06,1.36-.57,2.17-.21.33-.53.88-1.11.29.12-.47-.34-1.05-.14-1.64.22-.67,1.04-1.45,1.82-.82Z"/>
          <path class="cls-1" d="M405.81,184.98c-.64.58-1.56-.05-1.96-.75-.37-.63.11-1.97,1.05-1.68.22.77.63,1.67.91,2.44Z"/>
          <path class="cls-2" d="M268.19,230.17c-8.54.53-17.03,1.4-26.11-.07,8.52-.69,17.01-.85,26.11.07Z"/>
          <path class="cls-2" d="M274.08,230.21c-1.05.79-2.27.6-4.06.18.57-1.15,1.7-1.07,4.06-.18Z"/>
        </g>
        <g>
          <path class="cls-3" d="M199.41,36.87c0,.75-.11,2.28.86,2.41l.14,3.58c.04,1.07-.47,2.86.75,3.36-.56,3.37.97,7.31,0,10.62-1.13,3.88-1.69,15.8-.03,17.3l-.58,7.58c-.14,1.78-.29,3.71,0,5.48.25,1.5.19,3,0,4.5-.09.71-.4,2.26.58,2.39-.26.78.35,1.95,0,2.69-2.55,5.39-.05,11.83-.05,17.25l-.03,124.5c-.91-.38-.79.86-.71,1.52.06.5.06,1.05.74.7-.29,1.75.39,4-.02,5.75-1.81,7.86-.66,16.17-.64,24.24v2.62c.02,6.79-.45,13.63.13,20.4.04.48.08,1.03,0,1.51-.44,2.47-.44,4.97-.03,7.45.08.5,0,1.06,0,1.56l-.28,34.09c.01.72.31,1.53.87,1.18-.4,1.13.21,2.59-.03,3.76-1.4,2.12-.91,4.84-.65,7.29,1.33,12.62-2.76,24.68-11.87,34.05-6.79,6.99-14.82,12.75-24.06,14.77-.75.2-2.3-.17-2.38.92l-1.62.08c-1.43.07-3.47-.56-4.37.83-3.93.39-8.57.14-12.57.13-.73-1.55-2.93-1.02-4.35-.95-15.73-1.57-36.17-17.56-40.95-33.9-11.56,2.79-22.14.36-31.97-6.11-12.72-8.37-20.21-22.77-19.92-37.73.07-3.5-.34-7.05.87-10.86-2.62-1.49-5.12-1.51-7.55-2.2-9.46-6.38-18.16-14.82-21.07-25.98-.1-.84-.05-2.02-1.03-2.3-.06-.54.02-1.1-.07-1.63-.13-.76.14-2.28-.9-2.39l-.12-2.6-.05-2.37c-.08-.53.04-1.07,0-1.61-.06-.75.27-2.22-.74-2.38-.04-1.13.13-2.49-.04-3.6,1.49-.89.76-2.93.85-4.37.11-1.83.58-3.66.47-5.5.84.7,1.23-.51,1.38-.99.17-.53.07-1.05.16-1.48.42-2.02,1.47-3.7,3.17-6.31-31.62-23.03-27.72-82.28,5.23-102.08-1.22-6.06-3.49-11.08-2.83-16.67.93-7.9,1.47-15.93,5.26-22.78,13.42-24.24,32.48-27.54,32.54-27.61.66-.84.47-1.78.53-2.86.14-2.44.13-4.86-.02-7.3-.27-4.46,2.09-8.38,3.27-12.61,2.16.1,2.55-2.5,2.9-4.24.05-.23.06-.52.04-.76.75.16,1.39-.18,1.7-.78.23-.46.07-1.08.29-1.45.31-.53.99-1.06,1.02-1.74,1.41.03,2.56-.94,2.9-2.29,9-7.95,20-13.25,32.82-11.91,3.28-6.05,5.88-11.82,10.56-16.45,20.44-20.24,57.95-18.23,74.46,6.34,3.37,5.01,6.99,10.06,7.03,15.92ZM126.35,41c4.23-.75,8.79,1.15,13.18,1.68,4.92.59,8.03,2.87,11.65,5.49,8.78,6.33,13.07,15.85,11.56,26.81-.56,4.05-.86,8.32-4.88,10.43-2.62,1.38-4.68,1.05-6.44-.82-2.1-2.24-.85-3.45.06-6.48,1.2-3.97,1.57-9.92-.38-14-4.27-8.93-14.1-12.86-23.67-12.2-4,.28-7.66.3-10.79-1.12-1.8-2.85-5.24-7.99-9.39-8.39-27.75-2.63-38.64,30.15-33.16,34.3-.8-.61,11.14-2.48,10.34-2.56l10.99,1.16c5.62.6,9.88,3.69,14.23,6.38,26.35,16.34,16.73,56,7.89,52.19-6.49-2.8-.77-8.69-1.95-23.91-.17-2.25-1.59-3.55-2.1-5.03-5.44-16.03-24.19-22.94-40.59-18.85-5.07,1.26-8.84,2.12-13.54,4.41-12.57,6.14-21.48,17.49-23.34,31.79-.8,6.11-1.23,12.62,2.25,18.21,1.17,1.38,4.65-.43,6.22-.54,2.89.88,5.12,3.2,5.04,6.88-.19,8.33-.34,16.4.17,24.57.93,14.78,11.73,25.73,26.89,25.33,6.41-.17,13.59.53,19.21,3.91,10.48,6.31,15.66,18.71,14.22,30.59-.82,6.77-4.02,12.83-9.47,16.39-2.52,1.65-4.85.79-6.57-.95-5.27-5.32,5.07-5.78,5.71-18.06.56-10.71-6.75-21.4-18.26-21.76-10.07-.32-21.14-1.1-29.18-7.9-11.26-9.5-14.74-24.76-13.94-39.03.17-3.08.85-5.58-1.24-8.56-26.72,13.63-31.74,51.54-17.53,76.12,4.12,7.12,11.05,12.79,18.77,13.83,3.71.5,6.6-3.1,10.74-2.84,1.79,4.98-1.7,10.43-6.92,10.87l-10.23.87c-9.99,18.4-2.2,42.15,16.91,51.02,3.79,1.76,9.3-1.78,12.22,3.15,1.55,2.61-.91,3.79-1.74,5.91-4.91,12.61-.34,26.17,8.65,35.61,7.1,7.46,16.01,12.02,27.16,10.71-1.61-13.41-1.61-35.61,11.3-42.53,2.5-1.34,5.83-.56,6.72,1.22,1.22,2.46.42,4.48-1.42,6.64-5.26,6.16-9.06,14.75-7.89,23.24,1.51,10.94,5.91,21.42,13.01,29.81,3.9,4.62,9.34,8.21,14.9,11.07,16.6,8.54,37.39,3.54,49.63-10.46,5.94-6.8,8.57-15.08,8.58-24.31l.17-96.31c-7.28-.14-13.74.48-20.41-2.25-15.23-6.23-24.53-31.86-13.65-33.72,9.69-1.65,1.29,16.62,18.43,24.38,4.87,2.2,10.77,1.82,15.88.54-1.43-5.62-.6-10.03-.61-14.89l-.04-40.02c-.01-11.93-1.27-23.56.28-35.53.13-.99-.59-2.5-.82-3.18-.21-.61-14.67-3.2-21.24,9.15-5.46,10.27-15.54,21.44-28.24,22.72,1.3,12.36-12.76,29.17-19.96,22.57-2.17-1.99-2.24-6.32.81-7.81,5.23-2.56,9.14-7.61,8.48-13.47-5.54-2.67-11.03-.57-16.72-1.92-8.82-2.09-17.92-7.65-23.44-14.79-10.9-14.1-11.55-40.09-2.16-37.86,8.93,2.12-1.23,15.17,9.59,29.9,7.24,9.85,18.16,13.96,30.12,13.24,16.62-1,17.53,2.05,28.64-12.62,2.14-2.83,4.47-5.42,6.29-8.47,10.04-16.89,28.01-8.24,28.43-12.4.86-8.48.3-16.88.28-25.58-2.66-1.44-5.4-.17-7.92-1.05-16.69-5.82-23.26,14.94-30.44,9.12-1.21-.98-2.17-3.62-.96-5.44,8.81-13.28,24.33-18.32,39.6-12.51l-.33-57.93c-.01-2.17-.46-4.94-2.39-5.19-4.14-21.47-27.96-33.16-48.88-25.47-12.05,4.43-22.99,18.04-18.11,24.53,1.51,2,2.94,2.47,5.7,1.98Z"/>
          <path class="cls-1" d="M46.38,322.69c-2.88,1.44-1.83-6.16-.98-8.87-2.46-.97-3.99-3.03-5.7-4.18,2.43.68,4.94.7,7.55,2.2-1.21,3.81-.81,7.36-.87,10.86Z"/>
          <path class="cls-1" d="M62.43,66.84c.15,2.44.16,4.86.02,7.3-.88.56-1.59-.29-1.77-.88-.23-.78-.92-7.93,1.75-6.42Z"/>
          <path class="cls-1" d="M16.53,260.42c-.08,1.44.65,3.48-.85,4.37-.43-.79-1.24-1.55-1.18-2.66s.71-2.3,2.03-1.71Z"/>
          <path class="cls-1" d="M68.6,49.99c-.36,1.74-.74,4.34-2.9,4.24.26-.92-.03-2,.54-2.98.47-.81,1.22-1.49,2.37-1.26Z"/>
          <path class="cls-1" d="M74.54,42.97c-.34,1.35-1.49,2.32-2.9,2.29.04-.71-.24-1.65.51-2.07.7-.4,1.81,0,2.39-.21Z"/>
          <path class="cls-1" d="M200.27,39.28c-.97-.13-.86-1.66-.86-2.41.66-.57,1.34,0,1.81.77.38.62-.96,1.13-.94,1.64Z"/>
          <path class="cls-1" d="M18.55,252.45c-.09.43,0,.95-.16,1.48-.16.49-.54,1.69-1.38.99-.04-.68-.55-1.56.13-2.32.33-.37.93-.55,1.41-.15Z"/>
          <path class="cls-1" d="M16.46,270.76c-.63.58-1.37-.02-1.8-.76-.36-.63,1.02-1.12,1.07-1.62,1.01.16.68,1.63.74,2.38Z"/>
          <path class="cls-1" d="M18.62,283.66c-.56-.13-1.48-.13-1.82-.79-.28-.54.31-1.21.79-1.51.97.29.93,1.46,1.03,2.3Z"/>
          <path class="cls-1" d="M70.62,47c-.22.37-.05,1-.29,1.45-.31.6-.95.94-1.7.78-.07-.66-.22-1.69.45-2.1.45-.27,1.12-.12,1.54-.13Z"/>
          <path class="cls-1" d="M187.64,39.95c1.93.25,2.38,3.02,2.39,5.19l.33,57.93c-15.27-5.81-30.79-.77-39.6,12.51-1.21,1.83-.25,4.47.96,5.44,7.18,5.82,13.75-14.95,30.44-9.12,2.52.88,5.26-.38,7.92,1.05.02,8.71.58,17.1-.28,25.58-.42,4.16-18.39-4.49-28.43,12.4-1.81,3.05-4.14,5.64-6.29,8.47-11.11,14.68-12.03,11.62-28.64,12.62-11.96.72-22.88-3.38-30.12-13.24-10.82-14.73-.66-27.78-9.59-29.9-9.39-2.23-8.74,23.76,2.16,37.86,5.52,7.14,14.62,12.7,23.44,14.79,5.69,1.35,11.17-.74,16.72,1.92.66,5.85-3.25,10.91-8.48,13.47-3.05,1.49-2.98,5.82-.81,7.81,7.21,6.6,21.26-10.21,19.96-22.57,12.7-1.28,22.78-12.45,28.24-22.72,6.56-12.34,21.03-9.76,21.24-9.15.23.68.95,2.18.82,3.18-1.55,11.97-.3,23.6-.28,35.53l.04,40.02c0,4.86-.82,9.27.61,14.89-5.11,1.28-11.01,1.66-15.88-.54-17.15-7.76-8.74-26.03-18.43-24.38-10.88,1.86-1.58,27.48,13.65,33.72,6.66,2.73,13.13,2.11,20.41,2.25l-.17,96.31c-.02,9.23-2.64,17.51-8.58,24.31-12.24,14-33.03,19.01-49.63,10.46-5.56-2.86-10.99-6.45-14.9-11.07-7.09-8.39-11.5-18.87-13.01-29.81-1.17-8.49,2.63-17.07,7.89-23.24,1.84-2.16,2.64-4.18,1.42-6.64-.88-1.77-4.22-2.56-6.72-1.22-12.9,6.92-12.91,29.13-11.3,42.53-11.14,1.31-20.05-3.26-27.16-10.71-9-9.44-13.56-23.01-8.65-35.61.83-2.12,3.28-3.31,1.74-5.91-2.92-4.93-8.43-1.39-12.22-3.15-19.11-8.87-26.89-32.62-16.91-51.02l10.23-.87c5.23-.44,8.71-5.89,6.92-10.87-4.14-.26-7.03,3.34-10.74,2.84-7.72-1.04-14.66-6.71-18.77-13.83-14.22-24.58-9.19-62.49,17.53-76.12,2.08,2.98,1.41,5.48,1.24,8.56-.81,14.28,2.68,29.53,13.94,39.03,8.05,6.79,19.11,7.57,29.18,7.9,11.5.37,18.82,11.05,18.26,21.76-.64,12.29-10.98,12.74-5.71,18.06,1.72,1.74,4.05,2.59,6.57.95,5.45-3.57,8.65-9.63,9.47-16.39,1.44-11.88-3.73-24.28-14.22-30.59-5.62-3.38-12.8-4.08-19.21-3.91-15.16.41-25.96-10.55-26.89-25.33-.52-8.16-.36-16.23-.17-24.57.08-3.68-2.15-6.01-5.04-6.88.88-1.7-2.78-3.57-2.63-4.95.83-7.54,5.65-20.82,11.53-26.22,3.54-3.25,7.31-6.97,11.53-9.2,9.31-4.93,20.08-5.17,30.46-5.68,4.75-.23,7.59,1.62,10.07,5.28,1.1,1.62,3.49,2.31,3.92,4.94.17,1.04,1.55,1.89,2.45,1.8.56-.05,1.19-.54,1.68-.99.5,1.49,1.92,2.78,2.1,5.03,1.18,15.23-4.54,21.12,1.95,23.91,8.84,3.81,18.46-35.85-7.89-52.19-4.35-2.7-8.6-5.79-14.23-6.38l-10.99-1.16c-.67-11.32,14.37-21.81,26.62-22.36,2.11-.09,4.1.05,5.59-.99,3.14,1.42,6.8,1.4,10.79,1.12,9.57-.66,19.4,3.27,23.67,12.2,1.95,4.07,1.58,10.03.38,14-.92,3.02-2.16,4.24-.06,6.48,1.76,1.87,3.82,2.2,6.44.82,4.02-2.11,4.32-6.38,4.88-10.43,1.51-10.96-2.78-20.47-11.56-26.81-3.62-2.61-6.74-4.9-11.65-5.49-4.39-.53-8.95-2.43-13.18-1.68.6-6.65,5.95-10.81,11.66-14.46,10.07-6.44,22.08-5.44,32.79-.1,4.62,2.3,7.64,6.11,10.91,10.4s2.93,9.54,5.71,14.95c1.07-4.19.91-8.24.22-11.84ZM187.28,56.52c0-.28-.22-.5-.5-.5s-.5.22-.5.5.22.5.5.5.5-.22.5-.5ZM156.46,339.72c-17.86-11.62-.09-30.44-17.59-52.92,10.22-2.7,25.33-18.23,19.07-24.14-1.5-1.42-3.81-2.37-6.38-1.36-1.76.69-1.91,3.22-3.34,5.66-2.79,4.76-11.1,12.89-17.47,11.91-8.75-1.34-15.97-5.94-25.44-4.36-12.87,2.15-25.4-6.7-28.02-19.42-.45-2.17-2.08-3.39-3.38-3.64-1.73-.33-4.26-.27-4.91,1.79-4.79,15.29,15.65,33.84,37.39,31.37,8.48-.96,14.98,1.28,21.21,6.79,4.73,4.18,9.19,8.86,8.78,16.21-.16,2.94,1.29,6.8.77,9.55-2.4,12.77,2.05,24.29,12.95,31.48,8.53,5.62,21.18,7.15,22.92-.94s-10.1-3.79-16.55-7.98Z"/>
          <path class="cls-2" d="M113.51,104.92c-.49.45-1.13.93-1.68.99-.89.09-2.28-.76-2.45-1.8-.43-2.63-2.82-3.32-3.92-4.94-2.48-3.65-5.32-5.51-10.07-5.28-10.38.5-21.15.75-30.46,5.68-4.22,2.23-7.99,5.95-11.53,9.2-5.88,5.4-10.7,18.68-11.53,26.22-.15,1.38,3.51,3.25,2.63,4.95-1.56.11-5.05,1.92-6.22.54-3.49-5.58-3.05-12.09-2.25-18.21,1.86-14.29,10.76-25.65,23.34-31.79,4.7-2.29,8.47-3.15,13.54-4.41,16.41-4.09,35.16,2.82,40.59,18.85Z"/>
          <path class="cls-2" d="M187.64,39.95c.69,3.6.85,7.65-.22,11.84-2.79-5.41-2.49-10.74-5.71-14.95s-6.29-8.09-10.91-10.4c-10.71-5.34-22.72-6.34-32.79.1-5.71,3.65-11.06,7.81-11.66,14.46-2.76.49-4.19.02-5.7-1.98-4.88-6.49,6.06-20.1,18.11-24.53,20.92-7.69,44.74,4,48.88,25.47Z"/>
          <path class="cls-2" d="M116.66,50.79c-1.5,1.04-3.48.9-5.59.99-12.25.55-27.29,11.04-26.62,22.36.81.09-11.14,1.96-10.34,2.56-5.48-4.15,5.41-36.93,33.16-34.3,4.15.39,7.59,5.54,9.39,8.39Z"/>
          <path class="cls-3" d="M156.46,339.72c6.45,4.2,18.28-.05,16.55,7.98s-14.39,6.56-22.92.94c-10.9-7.19-15.35-18.71-12.95-31.48.52-2.75-.94-6.61-.77-9.55.41-7.35-4.06-12.03-8.78-16.21-6.23-5.51-12.73-7.76-21.21-6.79-21.74,2.47-42.18-16.09-37.39-31.37.65-2.06,3.18-2.12,4.91-1.79,1.31.25,2.94,1.47,3.38,3.64,2.62,12.73,15.14,21.57,28.02,19.42,9.47-1.58,16.69,3.02,25.44,4.36,6.38.97,14.68-7.15,17.47-11.91,1.44-2.45,1.59-4.97,3.34-5.66,2.57-1.01,4.88-.06,6.38,1.36,6.26,5.91-8.84,21.45-19.07,24.14,17.5,22.48-.28,41.3,17.59,52.92Z"/>
          <circle class="cls-2" cx="186.78" cy="56.52" r=".5"/>
        </g>
      </g>
    </g>
  </g>
</svg>