<?xml version="1.0" encoding="UTF-8"?>
<svg id="Layer_2" data-name="Layer 2" xmlns="http://www.w3.org/2000/svg" viewBox="0 0 404.25 358.93">
  <defs>
    <style>
      .cls-1 {
        fill: #e3e9e3;
      }

      .cls-2 {
        fill: #2f3c35;
      }

      .cls-3 {
        fill: #98a499;
      }

      .cls-4 {
        fill: #b8c5b7;
      }
    </style>
  </defs>
  <g id="Layer_1-2" data-name="Layer 1">
    <g>
      <path class="cls-4" d="M188.15,279.25c1.24,1.67-12.31,4.67-11.05,3.14,3.55-1.24,7.26-3.11,11.05-3.14Z"/>
      <path class="cls-4" d="M155.55,283.52c.61.8-.2,1.59-.83,1.77-1.36.38-7.16-1.8-5.6-2.65,2.16.13,4.28.41,6.42.87Z"/>
      <path class="cls-4" d="M180.58.3c-.33,1.81-1.99,1.45-3.45,1.52-.62-.91.32-1.65.93-1.76.78-.15,1.87.03,2.53.25Z"/>
      <path class="cls-4" d="M144.59,282.38c-.51-.03-1.02,1.3-1.63.93-.78-.48-1.38-1.14-.78-1.8.74-.04,2.31-.09,2.41.87Z"/>
      <path class="cls-4" d="M64.75,229.51c-.48.21-1.07,1.19-1.59.91-.81-.43-1.37-1.14-.78-1.78.74-.04,2.32-.12,2.38.87Z"/>
      <path class="cls-4" d="M73.73,230.4c-.37.31-.88.91-1.42.7-.4-.15-.65-.63-.9-.78-.33-.66.26-.78.71-.79.75-.02,1.84.04,1.61.87Z"/>
      <path class="cls-4" d="M133.64,280.15c-.69,0-1.54.33-2.23-.34-.37-.36-.63-.85-.18-1.36l1.52.14c.61.06,1.64.71.89,1.57Z"/>
      <g>
        <path class="cls-2" d="M329.94,44.82c.3.52.01,1.46.69,2.05.35.3.68.64,1.23.2.2.95.79,1.79,1.11,2.69.22.61-.02,1.43.63,2.08.35.34.67.74,1.23.22.62,1.64.95,4.66,3.18,5.47,9.68,3.52,18.32,8.93,23.86,17.22.5,2.18,1.58,4.89,4.03,5.15,4.41,3.78,1.94,11.54,5.4,15.42l13.25,14.8c7.27,8.13,10.03,18.28,10.48,29.64.14,3.43,16.2,24.28,5.61,44.61-2.08,4-.97,4.46.15,8.27,4.19,14.33-.53,29.18-7.39,42.14-5.39,10.19-14.53,16.59-25.56,20.97-1.53,10.36-3.88,20.63-10.2,29.32-18.12,24.92-41.13,31.17-71.87,30.17l6.2,27.01c1.28,5.58-1.54,9.72-6.12,12.77-6.5,4.34-14.2,4.09-21.81,3.74-5.92-.27-10.55-1.39-13.52-7.27-2.62-5.19-5.95-10.67-8.15-16.29-1.91-4.9-4.22-8.56-7.66-12.46-4.35-4.92-6.42-12.03-11.51-16.42-5.61-4.84-16.27-1.12-31.11-25.47-1.35-2.21-2.11-1.62-3.94-1.6-3.79.03-7.5,1.9-11.05,3.14-7.21.82-14.4,2.7-21.55,1.13-2.14-.47-4.26-.75-6.42-.87l-4.53-.26c-.09-.96-1.67-.91-2.41-.87-2.95.17-5.61-1.37-8.55-1.36.75-.85-.28-1.51-.89-1.57l-1.52-.14c-12.46-1.13-40.08-27.06-38.4-49.17-7.02,1.28-13.13,1.38-19.11,1.12.23-.83-.86-.88-1.61-.87-.45.01-1.03.13-.71.79-2.01-.07-4.69-.53-6.66-.82-.05-.99-1.64-.91-2.38-.87-5.49.27-10.88-1.55-16.63-2.71-6.99-1.41-12.15-5.73-17.85-9.56-13-8.72-24.21-27.02-21.94-42.62.53-3.61-.2-4.57-1.62-7.69-8.52-18.63-4.01-39.47,9.69-54.84,2.12-5.84,1.4-13.13,3.95-19.08,5.61-13.08,15.15-23.07,27.02-30.85,5-3.27,11.29-4.39,16.88-6.11,13.03-29.57,48.02-42.32,78.34-37.27l4.29-4.05c2.73-.62,5.67-1.94,6.82-4.6,3.22-1.03,5.68-3.3,9.02-4.08.38,1.45,2.01.39,2.76.02.85-.41,1.7-.93,1.51-1.91,1.54.68,4.18-1.04,5.71-1.11-.11.91.78.92,1.43.65.48-.2,1.01-.16.78-.78l4.6-.22c1.46-.07,3.12.3,3.45-1.52,14.32-.32,31.4.33,44.64,8.15,9.78-2.76,19.38-3.28,29.1-2.01,8.47,1.1,14.49,5.46,21.49,9.43,5.13,2.91,17.01.29,32.74,9.58,8.55,5.05,16.6,10.94,21.39,19.37ZM156.45,30.24l.81,1.72c-.18,2.71-1.28,5.07-4.08,7.34-15.96-16.93-42.75-10.16-60.77-.78-7.87,4.1-15.2,10.33-18.6,19.53,4.7,1.43,15.27,1.27,17.26,6.69.46,1.25.79,5.51-.91,5.67-10.96,1.01-19.08,7.5-22.26,18.07-3.89,12.95,4.91,30.54,12.57,31.28,2.03.2,3.86,3.16,6.94,1.66,2.55-11.03,9.62-28.75,21.7-31.26,7.96-1.65,15.34-4.18,23.2-1.04-.11-6.34,2.62-14.8,3.86-19.6.38-1.33,3.23-3.45,1.83-5.34-14.12-4.85-12.14-3.48-24.64-1.58-.93-2.42-2.84-4.58-1.09-6.87,2.67-2.56,5.95-4.37,10.17-4.54l8.91-.36c.52.58,1.24.91,2,1.04.75,1,1.77,2.08,3.06,1.97l2.2-.19c2.27-.11,4.37,1.18,7.09.56,3.57-4.48,17.05-21.88,22.22-17.34,3.88,3.41-2.99,12.53-4.67,13.94-11.03,9.23-18.68,21.66-20.97,35.85-.71,4.42,1.33,5.89,3.86,8.26,7.56,7.04,9.15,16.79,8.39,26.82-.28,3.66-.64,9.57-5.46,9.33-6.81-.34-1.56-14.11-5.02-20.74-5.94-11.37-17.45-16.01-29.61-11.32s-18.24,17.76-16.02,30.56c.22,1.28-1.35,4.73-2.84,4.1-13.06-5.54-25.35.03-33.02,10.93-2.4-.24-3.99-2.09-4.15-4.9-.18-3.17,1.02-5.43,3.07-7.14.29-.24.63-.83.98-.91,1.65-.38,2.18-1.9,3.15-3.01.73-.84,2.2-1.04,2.57-1.92,1.32-3.15-10.85-14.58-11.74-23.43l-.97-9.61c-.04-.43.01-1.32.09-1.75.88-1.79,1.06-4.35,1.44-6.31.91-.81,1.16-2.63,1.74-3.63,3.09-5.28,6.56-10.24,12.28-13.88-4.04-6.57-26,7.35-30.56,11.6-7.81,7.27-12.95,18.19-12.8,28.83.06,4.47.12,6.98-3.16,10.06-5.07,4.76-9.41,11.07-10.16,17.75-.84-.68-1.28.48-1.43.98-.16.53-.09,1.06-.13,1.48-.44,4.34-2.15,8.73-.16,12.79.56,1.15-.99,4.33,1.14,4.95,1.79.52,2.74-1.77,3.06-2.65l.38-1.04c3-.93,6.62-8.6,11.51-9.16,3.22-.37,4.8,4.61,3.89,6.98s-2.8,5.36-4.88,6.89c-16.08,11.78-8.82,34.82,1.1,42.93,4.05,3.31,7.32,8.71,12.5,9.36.25,1.18,1.42,1.28,2.35,1.68,2.59,1.12,4.99,2.73,7.86,2.73,4.56,3.64,35.22,6.35,41.76,3.9.17-5.36,1.63-10.31,3.14-15.47-8.37.15-16.44,1.36-24.24-.67-10.79-2.82-20.18-7.75-27.67-15.44-5.1-5.25-5.74-13.3-9.67-19.17l-.15-8.84c-.05-2.8.77-5.09,2.02-7.02,1.59-.41,3.11-.92,4.52-1.06,7.43-.74,2.01,8.73,6.15,17.19.82,1.68.11,4.17,1.72,6.33,7.28,9.7,17.63,16.88,29.39,18.28,4.32.52,8.66.28,13.26.22,7.05-.08,13.81-1.86,17.2-9.39-6.77-7.5-14.93-12.94-24.39-16.39-2.94-1.08-4.43-3.07-4.06-5.58.5-3.4,3.22-4.34,6.69-3.03l11.66,4.42c6.72,2.55,11.23,8.2,16.84,13.32,10.26-8.5,14.25-6.1,12.89-16.26-.51-3.85,1.36-8.5-1.15-12.05,2.13-17.08-11.77-18.32-7.5-24.8,2.71-4.12,12.31.59,16.36,15.98s-.31,21.92,7.07,21.03l19.94-2.39c5.68-.68,10.28-4.6,14.37-8.16,7-6.09,3.25-10.7,6.6-12.15,4.85-2.09,2.83,4.37,18.03,3.85,8.93-.3,16.87-5.35,18.92-14.21,3.99-17.29-5.22-23.82,1.7-26.9,2.1-.93,4.77,0,6.23,1.94.08.83.21,1.83,1.07,2.19l.07,1.62c.05,1.14-.39,2.78.84,3.38,0,1.96.21,5.53.38,7.66.34,4.26-1.73,7.57-.92,12.84,8.73-1.28,17.95,1.72,26.31-.15,6.83-1.53,9.32-10.13,11.08-15.65l3.12-9.8,2.3-.45c1.69-.11,2.55,2.11,3.87,2.54.38,7.94-.34,15.73-3.96,22.85-2.03,1.53-4.57,2.85-5.58,6.15,5.21,2.25,16.93,3.42,16.31,9.69-.39,1.38-1.29,2.62-2.21,3.18-1.8,1.09-3.71.79-5.37-.4-8.05-5.74-23.04-7.6-32.2-7.95.28-.97-1.1-.77-1.6-.75-.6.03-1.88-.12-1.65.82-24.4,1.76-19.44,16.13-51.33,10.1-9.81,17.04-17.44,17.97-36.32,19.16-9.6.6-17.21,5.55-24.43,11.16-11.62,9.02-11.73,9.66-19.5,22.43-2.96.95-3.36,4.69-3.65,7.41l-1.02,9.62c-.37,3.46-.93,6.22-.29,10.11,2.4,14.64,12.48,29.94,26.11,34.16.81,1.01,2.03,2.54,3.81,2.01,2.23-.66,3.32,1.88,5.31,2.5,15.37,4.83,32.28,4.63,46.62-1.63,4.04.21,7.73-1.86,11.62-3.73l20.13-9.65c3.9-1.87,8.49-.61,11.97-2.71,1.85.6,4.06,1.09,5.98,1.07.09.93,1.58.8,2.29.79,18.9-.4,17.7,1.66,38.76-4.81,3.85-1.18,6.99-3.71,10.73-5.08,3.34-1.23,6.77-1.8,9.23-3.85,25.08,1.61,39.8,10.88,65.08,4.76,8.89-2.15,18.07-7.29,20.93-16.59,1.24-.09,1.29-1.63,1.96-2.18,1.05-.87.39-2.16.98-3.08s.55-2.19,1-3c3.67-6.73,4.21-15.47,1.95-23.25-.59-1.67-4.28-.89-5.99-1.33-2.32-.6-3.63-6.13-1.35-7.4,8.01-4.48,11.24-11.78,10.41-21.1-.68-7.55-4.8-14.21-10.15-20,2.1-15.24-4.49-29.87-17.24-38.29-2.18-1.44-8.01.66-6.69,3.16,4.95,9.39,7.43,18.34,5.59,28.7-3.06,17.24-9.21,16.5-9.55,20.07-.26,2.71,8.58,6.22,11.12,9.52,1.87,2.43,3.81,5.29,5.28,8.48l4.42,9.54c.51,5.59-.67,11.49.98,16.93-2.52,1.28-2.7,14.29-13.85,17.57-1.5.44-2.6-1.63-2.92-2.56-1.96-5.69,7-5.35,6.47-21.01-.09-2.49.62-5.52-1.53-6.81-.02-5.53-2.37-10.05-6.16-13.41-2.45-2.16-4.16-5.19-7.46-7.34s-6.61-2.81-10.41-4.66l-19.17-9.32c-2.63-1.28-4.11,3.36-3.91,5.37-3.45,6.43-7.62,6.45-14.19,13.7,4.2,2.57,15.21,10.32,12.95,15.49-.59,1.35-1.99,4.02-4.2,3.54-1.55-.34-2.81-2.29-4.25-1.87.88-2.18-10.72-11.14-12.76-10.37-10.01,6.41-21,9.75-33.04,9.35-4.94-.16-10.15.78-14.72-1.18-1.54-.66-2.49-2.24-3.97-2.04-6.91.91-2.57,6.35-20.87,14.28-14.37,6.23-22.18-1.65-29.76,5.17-4.31,3.88-8.94,7.99-14.48,10.33-9.87,4.16-24.28,3.23-24.68,9.06-.6,8.67-4.31,16.88-10.42,22.56l-5.16.13c-.67-1.51-3.55-2.98-2.69-4.9l2.8-6.25c6.71-5.36,6.89-24.19.96-30.88-.17-1.66-.19-4.31.62-5.8.67-1.24,3.38-2.75,5.04-1.62,4.3,2.92,4.8,8.1,7,13.11,18.24-3.42,22.85-1.78,36.79-15.08,1.47-3.07.46-14.92,5.01-14.95,1.67-.01,4.08,1.32,4.38,3.42.36,2.46-.01,4.49.05,7.37,16.45,4.61,34.23-4.81,37.71-21.84.47-2.3,1.92-4.35,1.18-6.45,1.37-.74,1.85-2.27,2.11-3.73,1.06-2.55,3.61-1.92,5.36-1.15,6.11,2.68-1.07,8.7.52,15.8-.33.44-1.07,1-.9,1.48.81,2.34,2.25.31,6.55,1.87,13.53,4.91,28.59.36,40.42-8.27,20.45-14.91,18.08-15.32,25.31-38.64,4.05-13.08-.38-17.74,5.07-17.13.91.1,2.67.69,3.29,2.03,5.91,12.79-1.88,22.64-1.94,28.27-.02,1.75,2.32,1.47,3.8,1.96,5.87,1.95,10.51,5.19,16.55,7.59,11.91-10.75,15.28-23.3,7.65-38.02-11.34-21.88-23.77-18.23-19.13-26.56.91-1.63,4.08-3.36,6.08-1.31s4.73,2.79,6.8,4.47c4.1,3.32,7.57,7.69,11.02,12.12,5.32-6.48,1.81-12.1.16-17.6-1.83-6.1-4.56-10.32-10.54-14.47-15.33-10.64-32.23-11.18-43.84,5,1.93,7.31,7.49,20.79,2.61,27.52-1.25.59-2.83,1.18-3.98.54-5.42-3.04-2.64-5.9-6.94-17.84-2.74-7.61-10.48-12.22-17.86-13.71-14.58-2.93-21.36,5-31.14,12.99-1.83.02-3.1-1.29-3.82-2.79-2.21-4.61,1.76-7.61,5.01-11.42.93-1.09,3.02-1.53,3.89-2.76,1.45-.11,3.06-.16,3.04-1.59l-.08-4.51c-.13-7.01,3.89-13.56,5.31-20.68l.61-3.06c1.72-.73,2.21-3.67,4.25-2.67,2.42,1.18,3.44,3.28,3.04,5.6-.28,1.61-1.31,3.06-1.41,4.72-3.68,3.37-3.42,9.99-1.79,14.35,1.17,3.14,3.37.4,6,.7l10.8,1.23,10.09,4c.54.64,1.09,1.48,1.75,1.69,1.36.43,2.48-.54,3.49-1.6l7.72-7.99c-2.53-6.77-8.23-10.21-12.97-14.49-1.5-1.36-.56-4.04-.11-5.67,6.15-2.79,9.26,2.44,13.75,4.05.33,1.78,1.51,3.56,2.78,5.35,1.73,2.43,1.28,5.53,3.64,7.95,4.48-3.03,14.54-1.65,14.44-4.08-.16-3.78-4.54-4.96-5.67-7.13-1.87-3.59-4.23-5.8-8.06-8.23-4.62-2.93-9.05-6.4-14.71-7.92-9.32-2.5-18.8-3.96-28.06-4.16.07-.69-.76-1.17-.88-1.72.57-5.98-9.83-7.54-13.84-8.42-7.01-1.55-12.8-.24-19.28,1.88-7.41,2.43-13.5,5.93-17.25,13.05-7.03,13.35,2.2,14.54,1.36,19.2-1.76,9.85-9.54,3.62-25.77,21.09-1.91,2.06-3.36,2.86-2.95,6.2.28,2.35-.9,5.32-1.3,7.64s-2.08,5.01.04,7.29c-.03.55.17,1.13.11,1.68-.19,1.61,1.6,11.55,3.97,10.2.14.47.41,1.29.29,1.75l-.97,3.86c-1.29.8-2.26,2.24-3.84,2.38-5.69.53-8.43-11.72-9.47-15.2-.65-2.2.97-5.18-1.09-6.82.76-9.68,1.56-19.84,9.07-27.55,4.99-5.12,10.5-9.63,17-13.42.47-3.09-.77-5.54-.97-8.23-.29-4,1.8-7.86,1.33-11.55,4.13-4.52,7.85-9.33,13.31-14.28-13.29-5.37-26.33-4.15-39.74-2.23-8.77,1.25-17.8,3.46-23.73,10.62-.23,2.18,3.07,4.6,5.01,5.09ZM331.91,265.47c3.62,1.51,7.64.8,12.03,1.05,2.45.14,5.91,1.89,8.19-.01,2.05-1.71,1.96-5.32,3.06-8.75-7.1.88-12.98.57-19.98.67-5.64-2.38-12.07-2.09-18.26-3.6-8.15-1.99-18.83-5.72-24.99.37,12.79,4.68,27.46,8.66,39.96,10.28ZM294.93,268.15c1.97.19,3.89,2.17,6.08,1.49.06,1.85,2.08,1.2,3.12,1.72,10.66,5.26,22.83,7.08,34.61,8.75,1.21,1.57.84,3.38-.03,5.13-2.62.27-5.13-.54-7.67-.85-5.38-.65-10.58-2.27-16.02-2.39-8.39-2.6-17.01-4.85-25.04-8.49-11.09-5.03-17.13-16.77-26.44-9.35l17.71,11.95c2.09,1.41,3.83,2.18,5.75,2.96l16.65,6.75c2.52,1.02,3.95,1.47,6.28,1.58,1.88.09,4,1.36,6.09,1.64l9.75,1.28c.4,1.28,2.21.89,3.27,1.05.61.09,1.23.13,1.85.19.68.7,1.6.89,2.54.87,1.08-.02,1.58-.94,1.8-1.79,2.13.29,2.6-2.51,3.79-3.31,4.45-2.97,8.01-7.9,10.92-13.1-.85-2.35-4.37-1.35-6.35-1.29-11.61.38-22.45-2.42-33.55-5.62-3.18-.92-5.89-2.56-8.94-2.03-.89-.79-1.95-1.33-3.04-1.78.26-.65-.62-.85-1.09-.98-1.53-.44-3.36-.46-4.82-1.14-4.03-1.87-2.93-6.52-13.68-1.67,2.14,3.45,5.72,2.69,7.52,4.78,2.65,3.06,5.46,3.33,8.94,3.67ZM272.24,299.23c5.68,2.25,13.62,4.29,18.62,4.26-.63.97.31,1.66.9,1.76,1.05.17,2-.23,2.68-.36,2.58-.48,5.22-.29,7.59-1.46,1.02-.5,2.54-.12,3.03-1.96-1.41-.36-2.25-.07-3.11-.17-6.72-.77-13.18-2.98-19.81-4.27.06-1.74-1.97-1.81-3.5-2.47-9.38-4.09-16.89-10.56-23.75-17.91-3.34-3.58-6.81-6.51-9.11-10.92-.52-1-1.66-1.7-2.31-1.93-.82-.29-3.43.58-3.22,1.57,1.11,5.41,4.63,9.24,7.47,13.54,6.15,9.31,14.6,16.39,24.53,20.33ZM287.1,291.57c2.19,1.56,5.22,3.51,8.33,4.13l12.69,2.52c-.03,1.14-.75,2.29-1.19,3.53,3.14,1.74,5.06-.78,7.1-1.37,3.33-.97,7.96,1.38,11.14-3.71-6.43-1.16-12.07-1.06-17.8-3.68-2.92-1.33-6.18-2.19-9.03-1.99.61-.83-.95-1.69-1.91-1.87-8.58-1.55-25.16-12.69-23.07-11.99l-5.36-1.8-9.27-9.53c-1.18-1.22-2-2.09-3.15-2.39-1.24-.33-4.12.26-3.65,1.79,8.69,10.95,21.86,23.67,35.17,26.37ZM219.1,266.56c-5.4,1.75-10.68,3.63-16.41,6.87,4.19,9.85,12.1,18.51,22.38,20.85,2.13.48,4.28-1.75,6.1-.5,4.79,3.29.34,5.49,10.71,18.9,1.94,2.51,3.06,5.64,5.06,7.95,5.29,6.11,7.75,13.27,11.91,19.6,1.14,1.73.38,4.75,2.71,6.82,6.2.17,12.72,1.27,18.67-1.91-1.8-15.37-7.36-18.84-6.33-32.31-5.18-1.36-10.47-3.87-14.78-6.34-1.08-1.61-3.02-2.89-4.96-4.22-10.63-7.32-16.53-18.34-23.77-28.12-3.34-.87-1.36-6.62-3.83-10.74-3.04,1.83-5.17,2.41-7.45,3.15Z"/>
        <path class="cls-4" d="M151.32,9.26c-1.15,2.67-4.09,3.98-6.82,4.6.81-2.86,4.1-3.74,6.82-4.6Z"/>
        <path class="cls-4" d="M164.6,3.29c.19.98-.66,1.5-1.51,1.91-.75.37-2.37,1.43-2.76-.02,1.45-.34,1.93-2.92,4.26-1.89Z"/>
        <path class="cls-4" d="M365.91,79.89c-2.45-.26-3.53-2.97-4.03-5.15,2.82.04,2.51,3.84,4.03,5.15Z"/>
        <path class="cls-4" d="M331.86,47.07c-.55.44-.88.1-1.23-.2-.68-.58-.39-1.52-.69-2.05.76-.28,1.56,0,1.81.67.2.55.01,1.12.11,1.57Z"/>
        <path class="cls-4" d="M172.52,2.04c.23.62-.3.59-.78.78-.65.27-1.54.26-1.43-.65.42-.02.6-1.26,1.27-.9.39.21.68.68.95.76Z"/>
        <path class="cls-4" d="M334.84,52.06c-.56.52-.88.12-1.23-.22-.66-.65-.42-1.46-.63-2.08.75-.6,1.49.16,1.79.76.26.52-.09,1.12.07,1.54Z"/>
        <path class="cls-4" d="M201.6,31.04c.47,3.69-1.62,7.55-1.33,11.55.2,2.69,1.43,5.14.97,8.23-6.5,3.79-12.01,8.31-17,13.42-7.35-2.89-11.64,17.23-11.38,20.96l.75,10.59c.62-1.55,1.48-3.05,1.56-4.01,2.07,1.64.44,4.62,1.09,6.82-3.79.99-2.91,6.22-1.5,9.49,2.37,5.49,7.81,10.15,14.1,8.72,1.99-.45,2.97-3.54,4.24-4.7-1.2-1.02-2.67-1.23-3.53-.69l.97-3.86c1,.38,3.28,1.87,4.05.92,3.41-4.16-7.02-8.13-.18-23.89,3.39-7.82,10.25-13.37,17.8-16.88,5.06-2.35,8.87-5.13,12.7-9.83,4.64-5.69-10.44-11.46-.33-21.5,1.93-1.92,3.86-2.36,5.64-3.46-.02.63,0,1.4.85,1.82l7.2-4.75c-1.15-.83-2.12-.64-2.93-1.03,2.8-4.99,20.77-3.2,26.84-1.88,1.29.28,2.42-.6,2.98-1.06.12.55.95,1.04.88,1.72-1.26,1.4-1.17,3.34-.61,5.38,1.04,3.77,17.58,3.6,20.61,5.85.73.5.3,3.25,1.9,2.93-.45,1.63-1.39,4.31.11,5.67-.91-.34-2.37-.34-2.85.8-1.65,3.92,2.97-.39,7.97,9.56.7,1.4,3.84,2.54,2.7,4.79-4.09,8.12-4.94,4.6-7.82,7.25l-10.09-4-10.8-1.23c.47-1.8-2.06-2.59-2.57-4.19-1.08-3.36,1.69-6.43,5.01-7.17.93-2.85,1.5-6.45-.17-9-.88-1.34-3.96.2-5.07.58.41-2.32-.62-4.42-3.04-5.6-2.04-1-2.53,1.94-4.25,2.67-10.31,4.38-11.8,23.21-12.77,32.61-3.26,3.81-7.22,6.81-5.01,11.42.72,1.51,2,2.82,3.82,2.79-.42.95-1.27,3.33-.49,4.38,6.03,8.09,14.46-5.4,18.45-7.31,9.44-4.52,19.98-1.15,28.12,4.37.98.31,2.2-.7,2.92-.72,4.3,11.94,1.51,14.8,6.94,17.84,1.15.65,2.73.05,3.98-.54-.02,1.44.1,2.81.55,4.87,4.94.78,9.15-3.09,14.36-5.88-2.38-5.53-5.58-10.45-6.83-16.11-1.44-6.48,1.49-12,7.49-14.32,1.98-.77,3.85-2.15,6.33-1.66,20.84,4.13,14.18,2.23,26.62,12.29,1.22.99,1.26,3.41,3.25,2.75,1.65,5.5,5.16,11.12-.16,17.6-3.46-4.44-6.93-8.8-11.02-12.12-2.07-1.67-4.77-2.39-6.8-4.47s-5.17-.33-6.08,1.31c-4.64,8.34,7.79,4.69,19.13,26.56,7.63,14.73,4.26,27.27-7.65,38.02-6.04-2.4-10.68-5.64-16.55-7.59-1.48-.49-3.82-.21-3.8-1.96.06-5.62,7.85-15.47,1.94-28.27-.62-1.34-2.38-1.93-3.29-2.03-5.45-.61-1.01,4.04-5.07,17.13-7.22,23.32-4.86,23.73-25.31,38.64-11.83,8.63-26.9,13.17-40.42,8.27-.85-2.33-3.41-2.87-5.65-3.35-1.6-7.1,5.58-13.12-.52-15.8-1.75-.77-4.31-1.4-5.36,1.15-.9.3-1.99.66-2.61,1.61s.23,1.32.51,2.12c.74,2.11-.71,4.16-1.18,6.45-3.48,17.03-21.27,26.45-37.71,21.84-.07-2.88.3-4.9-.05-7.37-.3-2.1-2.72-3.43-4.38-3.42-4.54.03-3.54,11.88-5.01,14.95-13.93,13.3-18.54,11.66-36.79,15.08-2.2-5.01-2.69-10.19-7-13.11-1.66-1.13-4.37.38-5.04,1.62-.81,1.49-.79,4.14-.62,5.8-.59.13-1.83.73-1.49,1.88,5.76,19.52-1.27,27.27-.79,28.07.24.39.91.64,1.32.93l-2.8,6.25c-.86,1.92,2.03,3.39,2.69,4.9-.24,1.35-1.5,1.52-2.44,1.82-2.01.62-1.74-2.45-2.8-3.3-8.19-6.62-14.14-14.5-17.35-24.67-.65-2.05-3.87-2.19-5.22-3.14l7.72-14.14c4.95-9.06,14.07-15.27,22.36-21.43,5.98-4.44,12.4-5.99,19.48-7.79l12.35-3.14c5.36-1.36,16.65-3.18,19.04-11.97,1.95-7.19,14.86-2.84,23-4.93,5.72-1.47,10.57-3.7,15.51-6.33,4.11-2.18,8.92-2.49,13.26-3.87,6.54-2.08,12.97-.43,19.42,1.11,9.46,2.26,4.44,7.48,22.98,4.53l1.21-5.8c.26-1.23-.99-1.73-1.74-1.79.61-6.27-11.11-7.44-16.31-9.69,1.01-3.29,3.55-4.62,5.58-6.15.8-.6,2.55.22,3.22-1.79,1.64-4.96,11.59-7.04,9.31-12.11-.96-2.13-3.88-3.61-4.75-6.04-.8-2.22-2.36-2.45-3.81-2.92-1.31-.42-2.18-2.65-3.87-2.54-.24-.45-.23-1.61-.84-1.68-.73-.09-1.35.05-1.47.55-.13.54.15,1.16,0,1.59l-3.12,9.8c-4.88.14-6.84,5.64-10.99,7.94-5.03,2.78-13.64,1.09-18.63-.96-2.76-1.13-4.1-4.04-6.85-4.03-.17-2.12-.38-5.7-.38-7.66.03-.73,1.8-1.57,1.06-2.66-.41-.61-1.16-1.26-1.9-.72l-.07-1.62c.5-.29,1.17-1.04.92-1.63-.34-.83-1.52-.43-2-.56-1.47-1.94-4.13-2.87-6.23-1.94-6.93,3.08,2.28,9.61-1.7,26.9-2.04,8.87-9.99,13.91-18.92,14.21-15.2.52-13.18-5.94-18.03-3.85-3.35,1.44.4,6.06-6.6,12.15-4.09,3.56-8.69,7.47-14.37,8.16l-19.94,2.39c-7.38.89-2.86-5.05-7.07-21.03s-13.65-20.1-16.36-15.98c-4.27,6.48,9.63,7.72,7.5,24.8-5.94,2.61-1.59,14.7-16.6,18.74.27,2.39,2.22,3.61,3.53,4.26,2.28,1.13,4.49-.51,6.19-1.62,11.52-7.51,2.25-7.77,8.02-9.33,1.36,10.15-2.63,7.76-12.89,16.26-5.61-5.12-10.12-10.77-16.84-13.32l-11.66-4.42c-3.48-1.32-6.19-.37-6.69,3.03-.37,2.51,1.12,4.5,4.06,5.58,9.46,3.46,17.62,8.89,24.39,16.39-3.38,7.53-10.14,9.31-17.2,9.39-4.6.05-8.94.29-13.26-.22-.59-5.48,3.74.24,12.6-2.92,3.49.37,7.58-.63,10.46-2.7,2.23-1.61,1.01-4.72-.03-6.55-4.33-7.64-10.26,3.07-20.84,1.27-6.57-1.12-13.47-2.54-19.18-5.61-11.02-5.91-8.1-8.69-14.13-8.1-4.14-8.46,1.28-17.93-6.15-17.19-1.41.14-2.93.65-4.52,1.06-.38-2.24-2.46-1.26-4.12-.88.91-2.37-.66-7.35-3.89-6.98-4.89.56-8.51,8.23-11.51,9.16-1.49-4.37-.52-6.96,2.01-10.58,17.63-25.21,19.58-11.82,15.87-26.87-3.09-12.58,9.5-23.19,15.79-30.38,2.26-2.58,4.68-3.99,7.86-3.03-.58.99-.83,2.82-1.74,3.63.79-4.36-3.36,2.99-3.4,4.54-.03,1.14.72,2.05,1.96,1.76-.08.42-.13,1.32-.09,1.75-2.78.78-3.07,5.15-2,7.96,2.36,6.2,4.27,12.09,5.92,18.44.49,1.91,3.43,1.87,4.71,3.08.96.9.59,2.82-.31,3.28l-2.33,1.18c-1.27.64-1.72,2.05-1.64,3.37.04.67.65,1.6,1.67,1.58-2.05,1.71-3.25,3.96-3.07,7.14.16,2.81,1.75,4.66,4.15,4.9-1.22,2.21,1.47,7.33,3.73,7.97,3.08.88,4.44-2.71,6.05-4.16,12.46-11.23,16.73-4.03,25.91-6.22,3.66-.87,8.45-3.94,7.49-8.19-1.33-5.91-.73-10.83,1.41-16.19,1.64-4.1,3.91-5.06,7.17-7.34,4.01-2.8,7.1-5.65,12.65-5.08,7.85.8,12.14,10.7,16.56,18.56,1.25,2.22-1.31,7.21,1.79,8.86,2.44,1.3,8.75,1.58,11.12-.12,2.82-12,5.13-2.23,3-18.42-.38-2.92-.1-4.52,3.05-6.52-1.63-1.75-4.02-.34-5.07-2.06-2.18-3.57-5.51-7.54-5.88-12.02-1.5-18.25,9.18-28.53,20.92-39.48,2.86-2.67,3.37-5.29,3.23-9.01-.1-2.73,2.77-6.05.93-8.79-1.46-2.17-4.04-4.02-6.03-5.57l-3.2,1.73c-3.58-.42-6.83-.7-10.12-.61l-.81-1.72c1.99.47,3.03-1.67,4.93-2.48,17.02-7.18,8.88-1.22,18.6-4.32,8.19-2.62,16.45-2.56,24.81-.08-3.29,3.33-3.54,4.9-3.19,7.68ZM211.94,134.7c.82-4.12,1.95-4.3,4.19-6.08,3.41-2.71,2.05-8.37,3.01-11.96.64-2.39,2.52-5.01-1.62-6.21.79,15.13-6.01,18.04-16.39,25.54,3.03,2.99,10.19,1.8,10.81-1.3ZM342.27,150.07c7.36-6.25,11.75-15.85,7.03-25.23-4.59,5.31-6.48,11.08-10.73,15.49-2.32,2.41-6.49,3.67-6.48,7.71,11.81,1.46,4.74,6.65,10.18,2.04ZM148.97,155.56c2.55,1.25,4.85-.89,6.65-.51,6.77,1.42,12.57-.81,17.62-5.64,2.16-2.07,3.67-5.29,1-8.35-5.71,5.83-12.96,8.93-20.59,9.15-5.29.16-11.48-4.69-11.44-1.06s3.2-.85,6.76,6.41ZM267.12,176.9l11.39-3.45c4.31-1.3,10.91-.55,11.42-7.23-2.63-3.78-12.6,4.96-18.72,4.5-6.43,6.12-18.47,1.58-23.6,3.46-.64.23-.39,2.1.18,2.32,9.97,3.94,12.23,2.55,19.32.4ZM232.55,171c-7.73,6.32-14.66,12.56-22.74,18.21-.98.68-4.58-.2-3.61,2.29,10.66,3.67,26.81-12.51,26.36-20.51Z"/>
        <path class="cls-3" d="M363.93,190.7c2.16,1.29,1.45,4.32,1.53,6.81.54,15.65-8.42,15.32-6.47,21.01.32.93,1.41,3.01,2.92,2.56,11.15-3.29,11.33-16.29,13.85-17.57,2.91-1.48,6.06-3.7,5.35-7.92,2.55.28,4.53,1.96,5.7,3.6,2.73,3.81-2.92,14.98-2.86,20.3,1.11-.5,2.02-1.12,3.02-1-.44.81-.42,2.12-1,3-.61.19-1.4-1.26-1.71-.87-.76.93-.45,2.01-.46,2.49-.01.55.38,1.61,1.19,1.46-.67.55-.72,2.09-1.96,2.18-1.95-.18-3.01,1.09-4.54,2.53l-8.1,7.64c-1.73,1.64-2.63,3.73-5.57,3.58-.96-.05-2.14,0-2.62.69-.35.5-.04,1.52-.11,2.15-25.29,6.12-40-3.16-65.08-4.76-1.15-.75-2.73-1.91-4.61-1.72-1.24.12-2.13,1.53-3.62,2.39-2.36,1.35-5.25-.12-7.74.71-1,.33-.68,2.98-1.54,3.5-1.11.67-2.53.36-3.67.88-6.39,2.88-12.58,4.35-19.7,3.92.78.05-19.29.12-15.97.55-1.55-.2-10.48-1.85-10.12,1.67-3.48,2.1-8.07.84-11.97,2.71l-20.13,9.65c-3.89,1.87-7.58,3.94-11.62,3.73.19-.7-.15-.86-.64-.9-6.41-.5-18.04,6.14-39.93,1.19-4.69-1.06-12.78-3.88-11.36-1.17-1.77.53-2.99-1.01-3.81-2.01,1.23.16.92-.99-.14-1.27-11.75-9.46-21.04-16.85-22.36-32.91-.26-3.12-2.12-6.03-1.49-9.01.73.13,2.15-.77,2.81-.3,1.35.96,4.57,1.09,5.22,3.14,3.21,10.17,9.15,18.05,17.35,24.67,1.06.85.79,3.92,2.8,3.3.94-.29,2.21-.47,2.44-1.82l5.16-.13c.93.28,1.76,1.16,2.94,1.05,10.86-.99,28.57,10.9,40.99-6.96,2.17.73,5.86-.73,7.85,1.99-.46.72-1.89.51-2.13,2.72,3.86-1.2,27.05,4.29,25.15-3.77,5.7-2.43,11.52-4.27,15.88-8.78-1.39,3.32,22.01-.4,25-3.24l14.99-14.21c2.49-.01,11.94,3.24,12.05.2,10.93,2.01,22.1.13,33.6.91,9.07.61,16.22,15.58,21.51,13.81,1.58-.53,4.69-3.11,3.39-5.55-3.35-6.36-10.04-9.45-16.01-14.31l8.35-6.57c3.06,3.07,7.49,4.98,11.85,3.64,2.53-.78,4.45-2.85,6.01-5.92,6.63-13.02,1.84-18.8,5.53-18.03,2.83.59.31,1.8,4.57,4.35Z"/>
        <path class="cls-4" d="M357.77,177.29c3.79,3.36,6.14,7.88,6.16,13.41-4.26-2.55-1.73-3.77-4.57-4.35-3.7-.77,1.09,5.01-5.53,18.03-1.56,3.07-3.49,5.14-6.01,5.92-4.36,1.34-8.8-.57-11.85-3.64.5-1.69,5.77-7.98.95-9.78-1.2-.45-4.68-1.24-5.67.07-6.63,8.74-16.3,12.97-27.16,12.44-4.07-.2-7.44.66-11.61-.21l-13.12-2.73c-1.72-.36-3.58-.26-4.56.26-1.46.78-3.26,2.6-2.41,4.76,1.01,2.54,4.24,3.78,6.44,4.05-.48.52-.11,1,.26,1.34.63.59,1.55.72,2.22.45,1.48-.6,2.63.84,3.82,1.06-.11,3.04-9.56-.22-12.05-.2l-14.99,14.21c-2.99,2.83-26.39,6.55-25,3.24,3.87-4.34,14.67-10.84,11.47-16.04-.68-1.11-2.57-1.32-4.31-1.02-5.23.9-23.03,21.26-42.06,17.03l-15.87-3.53c-1.69-.37-3.65.04-4.56,1.29-.61.84-.59,3.04.72,4.05l7.85,6.06c-12.42,17.86-30.13,5.97-40.99,6.96,4.57-4.46,12.62-14.18,15.66-20.12,4.11-8.02,15.5-2.35,27.73-9.59,6.38-3.78,11.78-10.01,19.68-11.2,9.07-1.37,28.76-4.19,34.24-11.39,3.61-4.74,7.47-3.49,12.66-2.78s11.16.74,16.54.56c4.27-.14,9.53-2.6,13.07-4.61,2.6-1.48,3.61-3.46,6.8-4.36,11.46-3.21,10.59,6.67,15.39,5.28,1.44-.42,2.7,1.53,4.25,1.87,2.21.48,3.61-2.19,4.2-3.54,2.26-5.17-8.75-12.92-12.95-15.49,6.57-7.25,10.74-7.27,14.19-13.7,6.13-1.59,18.75,3.76,21.94,9.75,1.69,3.16,9.21-1.74,14.97,4.77,1.13,1.28,2.68,1.93,4.05,1.43ZM323.83,200.02c4.94-1.39.53-7.35,6.21-8.25-.71-1.69-1.62-1.54-2.18-1-.35.34-1.17,1.41-1.95,1.37-1.7-.08-1.33-2.2-4.41-3.37.1,4.85-2.88,4.55-5.19,6.06-2.62,1.71-4.08,4.68-8.36,3.47.86,2.79,1.75,4.77,3.58,5.57s4.62,1.27,6.08-.66.45-4.96,2.2-6.07c1.18-.75,2.6-.7,2.94.18.15.39.09,1.02,1.08,2.69ZM202.53,232.6c4.09-.81,7.08.3,10.1-.82,13.38-4.97,11.69-7.18,12.47-7.84.7-.59-1.22-3.1-1.82-2.45-2.9,3.15-14.38,10.67-19.19,8.67-.71.84-2.02,1.19-1.56,2.44Z"/>
        <path class="cls-1" d="M157.26,31.95c3.29-.09,6.54.2,10.12.61l3.2-1.73c1.99,1.55,4.58,3.4,6.03,5.57,1.84,2.74-1.03,6.05-.93,8.79.14,3.73-.37,6.34-3.23,9.01-11.74,10.95-22.42,21.23-20.92,39.48.37,4.48,3.7,8.45,5.88,12.02,1.05,1.72,3.44.32,5.07,2.06-3.16,2-3.44,3.6-3.05,6.52,2.12,16.19-.18,6.42-3,18.42-2.37,1.7-8.68,1.42-11.12.12-3.1-1.65-.54-6.65-1.79-8.86-4.42-7.86-8.71-17.76-16.56-18.56-5.55-.57-8.65,2.28-12.65,5.08-3.25,2.27-5.52,3.24-7.17,7.34-2.15,5.36-2.74,10.29-1.41,16.19.96,4.25-3.83,7.32-7.49,8.19-9.18,2.19-13.45-5.01-25.91,6.22-1.61,1.45-2.98,5.05-6.05,4.16-2.26-.65-4.95-5.77-3.73-7.97,7.67-10.89,19.96-16.46,33.02-10.93,1.49.63,3.06-2.82,2.84-4.1-2.22-12.8,4.03-25.94,16.02-30.56s23.67-.05,29.61,11.32c3.47,6.63-1.79,20.41,5.02,20.74,4.82.24,5.18-5.67,5.46-9.33.77-10.03-.83-19.78-8.39-26.82-2.53-2.36-4.57-3.84-3.86-8.26,2.28-14.18,9.93-26.62,20.97-35.85,1.68-1.4,8.55-10.53,4.67-13.94-5.17-4.54-18.66,12.85-22.22,17.34-2.72.62-4.83-.67-7.09-.56-.1-.54-.2-.98-.34-1.31-.21-.51-.89-.8-1.38-.5-.73.45-.53,1.32-.49,2-1.29.11-2.31-.97-3.06-1.97-.39-8.53,10.69,2.66,12.07-7.03.27-1.88-1.27-4.63-3.86-5.35-11.07-3.07-22.86-1.49-33.27,2.19l-7.82,2.76c-7.07,2.5-16.16,9.83-14.95,11.92.52.91,2.03.21,2.72.61,6.88,3.97,7.29,11.53,4.35,18.15-1.38,3.1-1.26,7.29-5.49,8.07-17.33,3.18-15,23.25-14.07,23.95,2.53,1.91,3.18,3.81,4.53,6.59,1.01,2.07,4.2,3.32,2.9,6-7.66-.74-16.46-18.33-12.57-31.28,3.18-10.57,11.3-17.06,22.26-18.07,1.7-.16,1.37-4.42.91-5.67-1.99-5.43-12.56-5.26-17.26-6.69,3.4-9.2,10.73-15.43,18.6-19.53,18.02-9.38,44.81-16.15,60.77.78,2.8-2.27,3.9-4.64,4.08-7.34Z"/>
        <path class="cls-4" d="M145.41,44.86c-1.38,9.69-12.46-1.5-12.07,7.03-.76-.13-1.47-.46-2-1.04.26-.7.75-1.65.29-2.03-.59-.48-1.7-1.71-2.58-1.6-2.36.28-26.06,3.72-16.79,8.53-1.75,2.28.16,4.45,1.09,6.87-4.63-.24,3.85,6.93,1.84,5.93,2.1,1.04,13.37-5.78,20.97.98-1.24,4.8-3.97,13.26-3.86,19.6-7.85-3.14-15.23-.61-23.2,1.04-12.08,2.51-19.16,20.23-21.7,31.26-3.08,1.5-4.91-1.47-6.94-1.66,1.3-2.68-1.9-3.93-2.9-6-1.35-2.78-2.01-4.68-4.53-6.59-.93-.7-3.26-20.77,14.07-23.95,4.23-.78,4.11-4.96,5.49-8.07,2.94-6.62,2.53-14.18-4.35-18.15-.7-.4-2.2.3-2.72-.61-1.21-2.09,7.88-9.42,14.95-11.92l7.82-2.76c-.44,5.16,5.2-1.45,10.2.39,5.92-3.01,12.3-2.9,18.6-1.12,2.39,2.49,5.37,3.68,8.33,3.9ZM94.11,93.61c.54.78,1.94,1.15,3.28.2,9.07-6.44,19.61-8.5,30.3-9.95,1.53,1.34,6.6-15.71,2.54-12.09,1.04,2.22-9.82,8.7-12.11,8.93-3.89.4-6.85,3.3-10.26,4.48-2.91,1.01-16.51,4.4-13.75,8.42Z"/>
        <path class="cls-3" d="M219.1,266.56c-.5.95.05,1.7.72,1.85,2.59.6,4.1-.29,5.44.38s-.45,1.36,3.07,5.95c.51.66,1.34.49,2.05-.59,7.24,9.78,13.14,20.8,23.77,28.12,1.93,1.33,3.88,2.6,4.96,4.22,1.71,7.64,8.42,5.52,11.84,10,.5,7.92,1.69,14.83,5.04,22.01.68,1.45.7,4.06-.39,4.81-.97.67-2.94-.27-4.1.29-4.25,2.04-8.62,1-10.74-3.41-.35-.73-.46-1.14-1.04-1.03-.72.14-1.08.44-.87,1.07-4.16-6.32-6.62-13.49-11.91-19.6-2-2.31-3.12-5.44-5.06-7.95-10.37-13.41-5.92-15.61-10.71-18.9-1.82-1.25-3.97.99-6.1.5-10.28-2.34-18.19-11.01-22.38-20.85,5.74-3.24,11.01-5.12,16.41-6.87Z"/>
        <path class="cls-1" d="M241.01,139.54c.42.41.94,1.05,1.64,1.05s1.18-.77,1.61-1.12c9.16.35,24.14,2.21,32.2,7.95,1.66,1.18,3.57,1.48,5.37.4.92-.56,1.82-1.8,2.21-3.18.75.06,1.99.56,1.74,1.79l-1.21,5.8c-18.54,2.95-13.52-2.27-22.98-4.53-6.46-1.54-12.88-3.19-19.42-1.11-4.34,1.38-9.15,1.69-13.26,3.87-4.94,2.63-9.79,4.86-15.51,6.33-8.15,2.09-21.06-2.26-23,4.93-2.38,8.8-13.68,10.61-19.04,11.97l-12.35,3.14c-7.08,1.8-13.51,3.34-19.48,7.79-8.28,6.16-17.41,12.37-22.36,21.43l-7.72,14.14c-.66-.47-2.08.44-2.81.3.15-.69-1.36-1.21-1.84-1.08l1.02-9.62c2.72-1.02,3.49-4.7,3.65-7.41,7.77-12.77,7.87-13.41,19.5-22.43,7.22-5.6,14.83-10.55,24.43-11.16,18.88-1.19,26.5-2.12,36.32-19.16,31.88,6.03,26.93-8.35,51.33-10.1Z"/>
        <path class="cls-3" d="M44.5,186.59c7.48,7.69,16.88,12.63,27.67,15.44,7.79,2.03,15.86.82,24.24.67-1.51,5.15-2.97,10.1-3.14,15.47-6.53,2.45-37.2-.26-41.76-3.9,2.92-1.7-6.33-6.19-7.74-5.01-6.29-5.72-15-9.99-17.82-18.83-.49-1.53-1.41-2.86-1.22-4.18.18-1.25,1.48-1.66,3.1-2.89-3.88-1.05-4.71-3.8-5.02-6.9-.35-3.5,1.04-5.1,3.15-7.59,1.03-1.22,2.24-5.37,5.29-3.43-1.67,6.51,4.05,7.08,1.64,12.78,8.61.14,3.56,5.23,9.99,9.81.63.04,1.22-.96,1.62-1.44ZM31.04,179.06c.93-.93-1.04-3.37-2.1-2.32s1.29,3.13,2.1,2.32Z"/>
        <path class="cls-3" d="M43.76,209.27c.14.76.08,1.53-.12,2.28-.93-.4-2.09-.5-2.35-1.68.79-.31,1.6-.97,2.47-.6Z"/>
        <path class="cls-1" d="M265.16,26.01c-.56.46-1.69,1.34-2.98,1.06-6.07-1.32-24.04-3.1-26.84,1.88-2.26.25-3.53,2.99-5.11,3.97-1.78,1.1-3.71,1.54-5.64,3.46-10.11,10.04,4.97,15.82.33,21.5-3.84,4.7-7.64,7.48-12.7,9.83-7.55,3.51-14.41,9.06-17.8,16.88-6.83,15.77,3.59,19.73.18,23.89-.77.95-3.05-.54-4.05-.92.12-.46-.15-1.29-.29-1.75-.86-2.91-2.78-5.39-2.12-9.09.17-.93-1.21-1.75-1.85-1.11.06-.55-.14-1.13-.11-1.68,1.81-1.73,1.87-5.61-.04-7.29.41-2.32,1.59-5.29,1.3-7.64,2.74-.24,2.35-4.04,2.95-6.2,16.23-17.47,24.02-11.24,25.77-21.09.83-4.66-8.39-5.85-1.36-19.2,3.75-7.12,9.84-10.62,17.25-13.05,6.47-2.12,12.26-3.43,19.28-1.88,4.01.89,14.4,2.44,13.84,8.42Z"/>
        <path class="cls-1" d="M307.11,192.21c-4.81,1.39-3.93-8.49-15.39-5.28-3.19.89-4.2,2.88-6.8,4.36-3.54,2.01-8.79,4.47-13.07,4.61-5.38.18-11.27.16-16.54-.56s-9.05-1.96-12.66,2.78c-5.48,7.2-25.17,10.02-34.24,11.39-7.9,1.2-13.3,7.42-19.68,11.2-12.23,7.24-23.62,1.56-27.73,9.59-3.04,5.94-11.09,15.66-15.66,20.12-1.18.11-2.01-.78-2.94-1.05,6.12-5.68,9.82-13.89,10.42-22.56.4-5.82,14.82-4.89,24.68-9.06,5.53-2.34,10.17-6.44,14.48-10.33,7.57-6.82,15.38,1.06,29.76-5.17,18.29-7.93,13.95-13.37,20.87-14.28,1.48-.2,2.43,1.38,3.97,2.04,4.57,1.97,9.79,1.02,14.72,1.18,12.05.4,23.03-2.95,33.04-9.35,2.04-.76,13.64,8.19,12.76,10.37Z"/>
        <path class="cls-4" d="M386.98,218.49c-1-.12-1.92.5-3.02,1-.06-5.32,5.58-16.49,2.86-20.3-1.17-1.64-3.14-3.32-5.7-3.6.7,4.22-2.44,6.44-5.35,7.92-1.65-5.44-.47-11.34-.98-16.93,6.56-6.14,8.93.08,13.66-11.81,1.61-4.04-.45-7-.48-10.11-.07-6.1-1.34-9.95-6.8-13.68-4.35-2.97,1.14-13.8-4.61-24.74-1.62-3.08-3.53-6.36-7.66-6.63l.26,12.61c.07,3.47-2.1,7.05-.48,10.46,3.16,6.68,5.9,14.34,2.85,21.58-1.01,2.39-4.57,3.29-6.44,4.29-2.54-3.31-11.38-6.81-11.12-9.52.34-3.57,6.49-2.83,9.55-20.07,1.84-10.36-.64-19.31-5.59-28.7-1.32-2.5,4.5-4.61,6.69-3.16,12.75,8.43,19.35,23.05,17.24,38.29,5.34,5.79,9.47,12.45,10.15,20,.84,9.33-2.39,16.63-10.41,21.1-2.28,1.27-.97,6.8,1.35,7.4,1.72.44,5.4-.33,5.99,1.33,2.26,7.78,1.72,16.52-1.95,23.25Z"/>
        <path class="cls-1" d="M58.72,82.01c-3.18-.96-5.6.44-7.86,3.03-6.3,7.19-18.89,17.8-15.79,30.38,3.7,15.05,1.75,1.67-15.87,26.87-2.53,3.62-3.5,6.21-2.01,10.58l-.38,1.04-4.21-2.29c-1.98-4.05-.27-8.45.16-12.79.81.57,1.61-.14,1.74-.81.12-.64-.23-1.21-.18-1.65.76-6.68,5.09-12.99,10.16-17.75,3.28-3.08,3.22-5.59,3.16-10.06-.15-10.63,4.98-21.55,12.8-28.83,4.57-4.25,26.53-18.17,30.56-11.6-5.72,3.64-9.19,8.6-12.28,13.88Z"/>
        <path class="cls-3" d="M374.78,186.58l-4.42-9.54c-1.48-3.18-3.42-6.05-5.28-8.48,1.87-1,5.43-1.9,6.44-4.29,3.05-7.23.31-14.89-2.85-21.58-1.62-3.41.55-6.99.48-10.46l-.26-12.61c4.14.27,6.04,3.55,7.66,6.63,5.75,10.93.26,21.76,4.61,24.74,5.46,3.73,6.73,7.59,6.8,13.68.03,3.11,2.09,6.07.48,10.11-4.73,11.89-7.1,5.67-13.66,11.81Z"/>
        <path class="cls-1" d="M354.82,88.8c-1.99.66-2.03-1.77-3.25-2.75-12.44-10.06-5.78-8.16-26.62-12.29-2.48-.49-4.35.89-6.33,1.66-5.99,2.32-8.92,7.84-7.49,14.32,1.25,5.66,4.45,10.58,6.83,16.11-5.21,2.79-9.42,6.66-14.36,5.88-.46-2.06-.57-3.43-.55-4.87,4.89-6.73-.67-20.21-2.61-27.52,11.61-16.18,28.51-15.65,43.84-5,5.97,4.15,8.71,8.37,10.54,14.47Z"/>
        <path class="cls-1" d="M201.6,31.04c-.35-2.78-.1-4.35,3.19-7.68-8.36-2.48-16.62-2.53-24.81.08-9.71,3.1-1.58-2.86-18.6,4.32-1.91.8-2.94,2.95-4.93,2.48-1.94-.49-5.23-2.91-5.01-5.09,5.93-7.16,14.96-9.36,23.73-10.62,13.41-1.92,26.45-3.14,39.74,2.23-5.46,4.95-9.17,9.76-13.31,14.28Z"/>
        <path class="cls-3" d="M78.48,192.3c-11.77-1.4-22.11-8.58-29.39-18.28-1.61-2.15-.9-4.65-1.72-6.33,6.02-.59,3.1,2.19,14.13,8.1,5.71,3.06,12.61,4.49,19.18,5.61,10.58,1.81,16.51-8.91,20.84-1.27,1.04,1.83,2.25,4.94.03,6.55-2.88,2.08-6.97,3.07-10.46,2.7-8.86,3.16-13.19-2.56-12.6,2.92Z"/>
        <path class="cls-1" d="M292.13,89.55c-.72.02-1.94,1.03-2.92.72-8.14-5.53-18.68-8.89-28.12-4.37-3.99,1.91-12.42,15.4-18.45,7.31-.78-1.04.08-3.43.49-4.38,9.78-7.99,16.56-15.92,31.14-12.99,7.38,1.48,15.12,6.1,17.86,13.71Z"/>
        <path class="cls-1" d="M316.88,48.04l-1.84,2.69c-2.54-.95-3.9-3.65-6.6-4.28-1.19-2.04-3.73-2.83-6.15-3.56-.45,1.44-.42,2.21-.59,3.06-4.49-1.61-7.6-6.84-13.75-4.05-1.6.32-1.17-2.43-1.9-2.93-3.03-2.25-19.57-2.08-20.61-5.85-.56-2.04-.65-3.99.61-5.38,9.26.21,18.74,1.66,28.06,4.16,5.65,1.52,10.08,4.98,14.71,7.92,3.83,2.43,6.19,4.63,8.06,8.23Z"/>
        <path class="cls-4" d="M51.51,214.27c-2.87,0-5.27-1.61-7.86-2.73.2-.74.26-1.52.12-2.28,1.41-1.18,10.66,3.31,7.74,5.01Z"/>
        <path class="cls-4" d="M34.83,167.43c3.93,5.87,4.57,13.92,9.67,19.17-.39.49-.98,1.49-1.62,1.44-6.43-4.58-1.39-9.67-9.99-9.81,2.41-5.7-3.31-6.27-1.64-12.78-3.04-1.94-4.26,2.21-5.29,3.43-2.11,2.49-3.51,4.09-3.15,7.59.31,3.09,1.14,5.85,5.02,6.9-1.63,1.24-2.92,1.65-3.1,2.89-.19,1.33.73,2.65,1.22,4.18,2.82,8.84,11.53,13.11,17.82,18.83-.87-.37-1.68.28-2.47.6-5.18-.65-8.45-6.06-12.5-9.36-9.93-8.11-17.18-31.15-1.1-42.93-.53,1.14.39,1.91,1.07,1.77.48-.1,2.15-.75,2.32-.32.94,2.34,1.61,10.96,3.73,8.41ZM29.75,162.62c0-.61-.5-1.11-1.11-1.11s-1.11.5-1.11,1.11.5,1.11,1.11,1.11,1.11-.5,1.11-1.11Z"/>
        <path class="cls-3" d="M282.15,297.03c-3.2-.62-6.84,1.68-9.9,2.2-9.93-3.94-18.38-11.02-24.53-20.33-2.84-4.3-6.35-8.12-7.47-13.54-.2-.98,2.4-1.86,3.22-1.57.66.23,1.79.93,2.31,1.93,2.3,4.41,5.78,7.34,9.11,10.92,6.85,7.35,14.37,13.83,23.75,17.91,1.53.67,3.56.73,3.5,2.47Z"/>
        <path class="cls-3" d="M267.99,113.66c-1.76,5.52-4.25,14.11-11.08,15.65-8.36,1.88-17.58-1.13-26.31.15-.81-5.26,1.27-8.58.92-12.84,2.74-.02,4.09,2.9,6.85,4.03,5,2.05,13.61,3.74,18.63.96,4.15-2.3,6.11-7.8,10.99-7.94Z"/>
        <path class="cls-3" d="M335.21,258.41c-.43,2.32,1.98,2.46,4.28,3.99-.79,2.12-7.88-.66-7.58,3.06-12.5-1.62-27.17-5.6-39.96-10.28,6.16-6.09,16.85-2.36,24.99-.37,6.19,1.51,12.63,1.22,18.26,3.6Z"/>
        <path class="cls-3" d="M298.33,291c-4.6.32-7.18-3.09-11.24.57-13.31-2.7-26.48-15.42-35.17-26.37-.47-1.53,2.41-2.12,3.65-1.79,1.16.31,1.97,1.17,3.15,2.39l9.27,9.53,5.36,1.8c-2.09-.7,14.49,10.44,23.07,11.99.96.17,2.52,1.03,1.91,1.87Z"/>
        <path class="cls-3" d="M339.02,287.31l-.31-2.08c.87-1.75,1.24-3.56.03-5.13-.29-.71.38-2.28-.55-2.55l-2.84-.85c-5.28-1.58-11.81-.04-16.45-2.95-3.22-2.02-6.37-4.06-10.61-3.56-1.05.12-2.22-3.42-3.83-1.79-.66.67-.36,1.97-.33,2.95-1.04-.52-3.06.13-3.12-1.72.38-1.43.45-2.92.09-4.36,3.05-.53,5.76,1.11,8.94,2.03,11.11,3.2,21.94,6,33.55,5.62,1.98-.07,5.51-1.06,6.35,1.29-2.91,5.2-6.47,10.13-10.92,13.1Z"/>
        <path class="cls-4" d="M297.03,238.58c-2.45,2.06-5.89,2.63-9.23,3.85-3.74,1.37-6.88,3.9-10.73,5.08-21.05,6.48-19.86,4.41-38.76,4.81.35-.43.17-.85-.12-1.39-.24-.47-.75-.61-1.2-.33-.32.2-.66.67-.97.94-1.91.02-4.13-.47-5.98-1.07-.36-3.52,8.57-1.87,10.12-1.67-3.31-.43,16.75-.5,15.97-.55,7.12.43,13.31-1.05,19.7-3.92,1.15-.52,2.56-.21,3.67-.88.86-.51.54-3.17,1.54-3.5,2.49-.82,5.38.65,7.74-.71,1.49-.86,2.38-2.27,3.62-2.39,1.89-.18,3.47.97,4.61,1.72Z"/>
        <path class="cls-4" d="M258.85,340.23c-.21-.63.15-.93.87-1.07.58-.11.69.3,1.04,1.03,2.12,4.41,6.49,5.45,10.74,3.41,1.16-.56,3.14.38,4.1-.29,1.09-.75,1.07-3.36.39-4.81-3.35-7.18-4.54-14.09-5.04-22.01-3.42-4.48-10.12-2.36-11.84-10,4.31,2.47,9.6,4.99,14.78,6.34-1.03,13.47,4.53,16.94,6.33,32.31-5.95,3.18-12.47,2.08-18.67,1.91-2.33-2.08-1.57-5.09-2.71-6.82Z"/>
        <path class="cls-1" d="M357.77,177.29c-1.37.51-2.92-.15-4.05-1.43-5.76-6.5-13.29-1.61-14.97-4.77-3.2-5.99-15.82-11.33-21.94-9.75-.2-2.02,1.28-6.65,3.91-5.37l19.17,9.32c3.81,1.85,7.08,2.48,10.41,4.66s5.02,5.18,7.46,7.34Z"/>
        <path class="cls-3" d="M289.98,273.5c-1.92,1.39-4.03,3.07-2.98,5.56-1.92-.78-3.66-1.55-5.75-2.96l-17.71-11.95c9.31-7.42,15.35,4.32,26.44,9.35Z"/>
        <path class="cls-4" d="M315.02,281.99c-1.22,1.41-3.1.66-4.95,1.57.47.85,1.84,1.34,1.69,2.23-.1.59-1.65.94-1.83,1.6-2.33-.11-3.76-.56-6.28-1.58l-16.65-6.75c-1.05-2.49,1.07-4.17,2.98-5.56,8.03,3.64,16.65,5.89,25.04,8.49Z"/>
        <path class="cls-4" d="M298.33,291c2.85-.2,6.11.65,9.03,1.99,5.74,2.62,11.37,2.52,17.8,3.68-3.18,5.1-7.81,2.74-11.14,3.71.05-3.15-3.83-1.74-5.9-2.15l-12.69-2.52c-3.11-.62-6.14-2.58-8.33-4.13,4.06-3.67,6.64-.25,11.24-.57Z"/>
        <path class="cls-3" d="M128.57,159.62c-5.77,1.57,3.5,1.82-8.02,9.33-1.7,1.11-3.91,2.75-6.19,1.62-1.32-.65-3.26-1.87-3.53-4.26,15-4.03,10.65-16.12,16.6-18.74,2.51,3.55.64,8.2,1.15,12.05Z"/>
        <path class="cls-4" d="M106.62,220.49c-.63,2.98,1.23,5.89,1.49,9.01,1.31,16.06,10.6,23.45,22.36,32.91,1.06.28,1.36,1.43.14,1.27-13.63-4.22-23.71-19.52-26.11-34.16-.64-3.89-.07-6.65.29-10.11.48-.13,1.98.39,1.84,1.08Z"/>
        <path class="cls-4" d="M186.33,266.57c-14.35,6.26-31.25,6.46-46.62,1.63-1.98-.62-3.07-3.16-5.31-2.5-1.42-2.72,6.67.11,11.36,1.17,21.89,4.94,33.52-1.69,39.93-1.19.49.04.83.2.64.9Z"/>
        <path class="cls-1" d="M136.16,69.53c-7.6-6.76-18.88.06-20.97-.98,2.01,1-6.47-6.17-1.84-5.93,12.5-1.9,10.52-3.27,24.64,1.58,1.4,1.89-1.45,4.01-1.83,5.34Z"/>
        <path class="cls-3" d="M257.09,42.02l-.61,3.06c-1.42,7.13-5.43,13.67-5.31,20.68l-1.68-7.01c-.63,4.82-1.46,8.91-1.28,13.11-.87,1.23-2.96,1.67-3.89,2.76.97-9.4,2.45-28.23,12.77-32.61Z"/>
        <path class="cls-4" d="M331.91,265.47c-.31-3.72,6.79-.94,7.58-3.06-2.31-1.53-4.71-1.67-4.28-3.99,7-.09,12.88.21,19.98-.67-1.1,3.43-1.01,7.04-3.06,8.75-2.28,1.9-5.74.15-8.19.01-4.39-.24-8.41.46-12.03-1.05ZM351.06,263.61c-3.23-.81-5.53-2.96-8.84-1.56,2.44,2.93,6.08,3.03,8.84,1.56Z"/>
        <path class="cls-4" d="M308.44,46.44c-.8.31-1.68.03-2.61,1.15,2.79.27,3.88,9.75,8.25,6.84,1.22-.82,1-2.49.97-3.7l1.84-2.69c1.13,2.17,5.51,3.34,5.67,7.13.1,2.43-9.96,1.04-14.44,4.08-2.36-2.42-1.91-5.52-3.64-7.95-1.27-1.78-2.45-3.57-2.78-5.35.17-.85.14-1.62.59-3.06,2.42.72,4.96,1.51,6.15,3.56Z"/>
        <path class="cls-1" d="M55.46,93.69l.97,9.61c.89,8.85,13.07,20.28,11.74,23.43-.37.88-1.84,1.08-2.57,1.92-.94-.04-2.34-.3-2.91.67-.41.69-.19,1.65-.24,2.34-.35.08-.69.67-.98.91-1.01.02-1.63-.91-1.67-1.58-.07-1.32.37-2.73,1.64-3.37l2.33-1.18c.91-.46,1.27-2.38.31-3.28-1.28-1.2-4.22-1.17-4.71-3.08-1.65-6.35-3.56-12.24-5.92-18.44-1.07-2.81-.78-7.18,2-7.96Z"/>
        <path class="cls-1" d="M273.31,128.8c3.62-7.13,4.34-14.91,3.96-22.85,1.45.47,3.02.7,3.81,2.92.87,2.43,3.8,3.91,4.75,6.04,2.28,5.07-7.67,7.15-9.31,12.11-.66,2.01-2.42,1.19-3.22,1.79Z"/>
        <path class="cls-4" d="M282.15,297.03c6.62,1.28,13.09,3.5,19.81,4.27l.08,2.12c-2.37,1.17-5.02.98-7.59,1.46.75-1-.63-1.26-1.17-1.43-.63-.2-1.86.03-2.41.04-5,.03-12.94-2-18.62-4.26,3.06-.52,6.71-2.82,9.9-2.2Z"/>
        <path class="cls-4" d="M338.74,280.1c-11.78-1.67-23.95-3.49-34.61-8.75-.03-.98-.33-2.29.33-2.95,1.61-1.63,2.79,1.92,3.83,1.79,4.24-.5,7.39,1.54,10.61,3.56,4.64,2.91,11.17,1.37,16.45,2.95l2.84.85c.93.28.26,1.84.55,2.55Z"/>
        <path class="cls-1" d="M267.18,64.72c-2.63-.3-4.82,2.44-6-.7,1.58-4.47,1.04-9.58,1.79-14.35.1-1.66,1.13-3.11,1.41-4.72,1.11-.38,4.19-1.92,5.07-.58,1.67,2.54,1.09,6.15.17,9-3.32.74-6.09,3.81-5.01,7.17.51,1.6,3.04,2.38,2.57,4.19Z"/>
        <path class="cls-1" d="M138.31,207.46c5.93,6.69,5.75,25.51-.96,30.88-.41-.28-1.08-.54-1.32-.93-.48-.8,6.55-8.54.79-28.07-.34-1.15.9-1.75,1.49-1.88Z"/>
        <path class="cls-1" d="M176.26,98.61c1.04,3.48,3.77,15.73,9.47,15.2,1.57-.15,2.55-1.58,3.84-2.38.87-.54,2.34-.33,3.53.69-1.28,1.16-2.26,4.25-4.24,4.7-6.28,1.43-11.72-3.23-14.1-8.72-1.41-3.27-2.29-8.5,1.5-9.49Z"/>
        <path class="cls-1" d="M184.24,64.24c-7.52,7.71-8.32,17.86-9.07,27.55-.08.96-.93,2.46-1.56,4.01l-.75-10.59c-.26-3.73,4.03-23.86,11.38-20.96Z"/>
        <path class="cls-1" d="M288.06,47.56c4.74,4.28,10.44,7.72,12.97,14.49l-7.72,7.99c-1.02,1.05-2.14,2.03-3.49,1.6-.66-.21-1.21-1.05-1.75-1.69,2.88-2.65,3.73.87,7.82-7.25,1.13-2.25-2-3.38-2.7-4.79-5-9.95-9.63-5.64-7.97-9.56.48-1.14,1.94-1.13,2.85-.8Z"/>
        <path class="cls-4" d="M338.71,285.23l.31,2.08c-1.19.8-1.66,3.6-3.79,3.31-1.49-.26-3.82-1-4.34.92-.61-.06-1.24-.1-1.85-.19.68-1.07-.31-2.19-1.48-2.08-.57.05-1.22.77-1.79,1.03l-9.75-1.28c2.1-5.5,11.06-.66,14.96-2.02-.48-.24-1.91-1.15-1.58-1.81.19-.38,1.56-.22,1.64-.82,2.54.31,5.05,1.12,7.67.85Z"/>
        <path class="cls-3" d="M292.14,261.38c-1.06-.05-1.32.79-1.15,1.56.7,3.23,2.45,2.05,3.94,5.21-3.48-.33-6.3-.61-8.94-3.67-1.8-2.08-5.38-1.32-7.52-4.78,10.74-4.84,9.64-.2,13.68,1.67Z"/>
        <path class="cls-4" d="M383.05,226.76c-2.86,9.29-12.04,14.44-20.93,16.59.08-.63-.24-1.65.11-2.15.48-.68,1.66-.74,2.62-.69,2.94.16,3.84-1.94,5.57-3.58l8.1-7.64c1.53-1.44,2.58-2.71,4.54-2.53Z"/>
        <path class="cls-3" d="M331.04,284.38c-.08.6-1.45.43-1.64.82-.33.66,1.11,1.57,1.58,1.81-3.9,1.36-12.86-3.48-14.96,2.02-2.09-.27-4.21-1.55-6.09-1.64.18-.66,1.73-1.01,1.83-1.6.15-.89-1.22-1.38-1.69-2.23,1.86-.91,3.74-.16,4.95-1.57,5.43.11,10.64,1.74,16.02,2.39Z"/>
        <path class="cls-1" d="M36.7,151.56c-1.25,1.93-2.07,4.22-2.02,7.02l.15,8.84c-2.13,2.55-2.79-6.06-3.73-8.41-.18-.43-1.84.21-2.32.32-.69.15-1.61-.63-1.07-1.77,2.08-1.52,3.99-4.57,4.88-6.89,1.66-.38,3.74-1.36,4.12.88Z"/>
        <path class="cls-1" d="M131.34,50.85l-8.91.36c-4.22.17-7.5,1.98-10.17,4.54-9.27-4.81,14.43-8.25,16.79-8.53.88-.1,1.99,1.12,2.58,1.6.46.38-.03,1.32-.29,2.03Z"/>
        <path class="cls-4" d="M296.96,262.52c.21.46.62.8,1.09.98,1.1.44,2.15.99,3.04,1.78.36,1.44.3,2.93-.09,4.36-2.19.68-4.1-1.3-6.08-1.49-1.49-3.17-3.24-1.99-3.94-5.21-.17-.77.09-1.61,1.15-1.56,1.46.68,3.29.7,4.82,1.14Z"/>
        <path class="cls-4" d="M230.38,274.15c-.71,1.08-1.55,1.25-2.05.59-3.52-4.59-1.79-5.31-3.07-5.95s-2.85.21-5.44-.38c-.67-.15-1.21-.9-.72-1.85,2.28-.74,4.41-1.32,7.45-3.15,2.48,4.12.5,9.87,3.83,10.74Z"/>
        <path class="cls-3" d="M262.97,49.67c-.74,4.77-.2,9.88-1.79,14.35-1.63-4.36-1.9-10.98,1.79-14.35Z"/>
        <path class="cls-4" d="M251.17,65.76l.08,4.51c.03,1.43-1.58,1.48-3.04,1.59-.18-4.2.65-8.29,1.28-13.11l1.68,7.01Z"/>
        <path class="cls-3" d="M314.02,300.38c-2.04.59-3.96,3.11-7.1,1.37.44-1.23,1.16-2.38,1.19-3.53,2.07.41,5.95-1,5.9,2.15Z"/>
        <path class="cls-4" d="M190.25,105.81c-2.37,1.35-4.16-8.58-3.97-10.2.64-.64,2.01.17,1.85,1.11-.66,3.7,1.26,6.18,2.12,9.09Z"/>
        <path class="cls-4" d="M186.18,93.94c-2.12-2.28-.45-4.93-.04-7.29,1.91,1.68,1.85,5.56.04,7.29Z"/>
        <path class="cls-4" d="M16.8,153.91c-.32.88-1.27,3.17-3.06,2.65-2.13-.62-.58-3.8-1.14-4.95l4.21,2.29Z"/>
        <path class="cls-4" d="M109.45,202.39c-.16,2.71-.93,6.39-3.65,7.41.29-2.72.69-6.46,3.65-7.41Z"/>
        <path class="cls-1" d="M249.73,179.88c-4.31-1.56-5.75.47-6.55-1.87-.17-.48.57-1.04.9-1.48,2.24.48,4.8,1.02,5.65,3.35Z"/>
        <path class="cls-1" d="M56.99,85.64c-.38,1.95-.56,4.52-1.44,6.31-1.24.29-1.99-.63-1.96-1.76.04-1.56,4.18-8.9,3.4-4.54Z"/>
        <path class="cls-4" d="M187.44,79.01c-.4-3.34,1.04-4.14,2.95-6.2-.6,2.16-.21,5.96-2.95,6.2Z"/>
        <path class="cls-3" d="M238.19,161.88c-.25,1.46-.74,2.99-2.11,3.73-.28-.8-1.15-1.14-.51-2.12s1.71-1.31,2.61-1.61Z"/>
        <path class="cls-3" d="M335.23,290.62c-.22.85-.72,1.78-1.8,1.79-.95.01-1.87-.18-2.54-.87.53-1.92,2.85-1.18,4.34-.92Z"/>
        <path class="cls-4" d="M385.99,221.49c-.59.92.07,2.21-.98,3.08-.82.15-1.21-.92-1.19-1.46.01-.49-.29-1.56.46-2.49.31-.38,1.1,1.07,1.71.87Z"/>
        <path class="cls-3" d="M231.13,108.96c-1.23-.6-.8-2.25-.84-3.38.74-.53,1.49.11,1.9.72.74,1.09-1.03,1.93-1.06,2.66Z"/>
        <path class="cls-4" d="M244.26,139.47c-.43.36-.91,1.12-1.61,1.12s-1.22-.65-1.64-1.05c-.23-.94,1.05-.8,1.65-.82.49-.02,1.87-.22,1.6.75Z"/>
        <path class="cls-4" d="M65.61,128.65c-.97,1.11-1.5,2.63-3.15,3.01.05-.7-.17-1.66.24-2.34.57-.97,1.97-.71,2.91-.67Z"/>
        <path class="cls-3" d="M329.04,291.35c-1.06-.16-2.88.23-3.27-1.05.58-.26,1.23-.98,1.79-1.03,1.17-.1,2.16,1.01,1.48,2.08Z"/>
        <path class="cls-3" d="M294.44,304.88c-.68.13-1.63.54-2.68.36-.59-.1-1.52-.79-.9-1.76.55,0,1.78-.23,2.41-.04.53.17,1.92.43,1.17,1.43Z"/>
        <path class="cls-3" d="M302.03,303.42l-.08-2.12c.86.1,1.7-.2,3.11.17-.49,1.84-2.01,1.45-3.03,1.96Z"/>
        <path class="cls-3" d="M238.32,252.33c-.71.01-2.2.14-2.29-.79.32-.26.65-.74.97-.94.46-.28.96-.14,1.2.33.28.55.46.96.12,1.39Z"/>
        <path class="cls-3" d="M273.4,103.41l-2.3.45c.14-.43-.14-1.05,0-1.59.12-.5.74-.64,1.47-.55.61.08.59,1.24.84,1.68Z"/>
        <path class="cls-3" d="M230.23,103.96c-.86-.36-.99-1.36-1.07-2.19.48.13,1.66-.27,2,.56.24.59-.43,1.34-.92,1.63Z"/>
        <path class="cls-4" d="M14.32,136.37c-.05.44.31,1.01.18,1.65-.13.68-.93,1.38-1.74.81.04-.42-.02-.96.13-1.48.15-.49.59-1.66,1.43-.98Z"/>
        <path class="cls-4" d="M138.6,53.67l-2.2.19c-.04-.69-.24-1.55.49-2,.49-.3,1.17-.01,1.38.5.14.33.24.77.34,1.31Z"/>
        <path class="cls-3" d="M298.05,263.5c-.47-.19-.88-.52-1.09-.98.47.13,1.35.33,1.09.98Z"/>
        <path class="cls-3" d="M342.27,150.07c-5.44,4.62,1.63-.58-10.18-2.04,0-4.04,4.16-5.3,6.48-7.71,4.25-4.41,6.14-10.18,10.73-15.49,4.73,9.39.33,18.99-7.03,25.23Z"/>
        <path class="cls-3" d="M267.12,176.9c-7.09,2.15-9.36,3.54-19.32-.4-.57-.22-.81-2.09-.18-2.32,5.13-1.88,17.17,2.66,23.6-3.46,6.11.46,16.08-8.28,18.72-4.5-.52,6.68-7.12,5.93-11.42,7.23l-11.39,3.45Z"/>
        <path class="cls-3" d="M148.97,155.56c-3.57-7.26-6.72-2.76-6.76-6.41s6.14,1.21,11.44,1.06c7.64-.22,14.88-3.32,20.59-9.15,2.68,3.06,1.17,6.28-1,8.35-5.05,4.83-10.85,7.07-17.62,5.64-1.81-.38-4.1,1.76-6.65.51Z"/>
        <path class="cls-3" d="M232.55,171c.46,7.99-15.7,24.18-26.36,20.51-.97-2.49,2.64-1.61,3.61-2.29,8.08-5.66,15.02-11.9,22.74-18.21Z"/>
        <path class="cls-3" d="M211.94,134.7c-.62,3.11-7.78,4.3-10.81,1.3,10.38-7.5,17.18-10.42,16.39-25.54,4.14,1.19,2.26,3.82,1.62,6.21-.96,3.58.4,9.25-3.01,11.96-2.24,1.78-3.37,1.96-4.19,6.08Z"/>
        <path class="cls-3" d="M230.23,32.92c1.58-.98,2.86-3.71,5.11-3.97.81.39,1.78.21,2.93,1.03l-7.2,4.75c-.86-.42-.87-1.18-.85-1.82Z"/>
        <path class="cls-2" d="M335.96,206.66l-8.35,6.57c5.97,4.86,12.65,7.95,16.01,14.31,1.29,2.45-1.81,5.02-3.39,5.55-5.29,1.77-12.44-13.2-21.51-13.81-11.51-.78-22.67,1.1-33.6-.91-1.19-.22-2.34-1.66-3.82-1.06.7-.87-.32-1.53-.89-1.6l-1.58-.2c-2.2-.27-5.43-1.51-6.44-4.05-.86-2.16.94-3.98,2.41-4.76.98-.52,2.84-.62,4.56-.26l13.12,2.73c4.17.87,7.54.01,11.61.21,10.87.52,20.53-3.71,27.16-12.44.99-1.31,4.47-.51,5.67-.07,4.82,1.79-.45,8.09-.95,9.78Z"/>
        <path class="cls-2" d="M233.08,235.61c-4.35,4.51-10.18,6.36-15.88,8.78-1.24.51-2.25-.18-2.82.13-.82.08-2.03-.13-2.35.83l-17.85.08c-2-2.72-5.68-1.26-7.85-1.99l-7.85-6.06c-1.31-1.01-1.33-3.21-.72-4.05.91-1.25,2.87-1.66,4.56-1.29l15.87,3.53c19.03,4.23,36.83-16.13,42.06-17.03,1.74-.3,3.62-.09,4.31,1.02,3.2,5.2-7.6,11.69-11.47,16.04Z"/>
        <path class="cls-4" d="M217.2,244.4c1.9,8.06-21.29,2.57-25.15,3.77.24-2.21,1.67-2,2.13-2.72l17.85-.08c.25.25.53.69.96.87.62.26,1.15-.33,1.39-1.71.57-.31,1.58.37,2.82-.13Z"/>
        <path class="cls-3" d="M323.83,200.02c-.99-1.66-.93-2.29-1.08-2.69-.34-.88-1.76-.93-2.94-.18-1.75,1.11-.77,4.18-2.2,6.07s-4.33,1.43-6.08.66-2.72-2.79-3.58-5.57c4.28,1.2,5.74-1.76,8.36-3.47,2.31-1.51,5.29-1.21,5.19-6.06,3.07,1.17,2.7,3.28,4.41,3.37.79.04,1.6-1.04,1.95-1.37.56-.54,1.47-.69,2.18,1-5.68.9-1.28,6.86-6.21,8.25Z"/>
        <path class="cls-3" d="M202.53,232.6c-.46-1.25.85-1.59,1.56-2.44,4.81,2,16.3-5.52,19.19-8.67.6-.65,2.52,1.86,1.82,2.45-.78.66.91,2.86-12.47,7.84-3.01,1.12-6,0-10.1.82Z"/>
        <path class="cls-3" d="M281.29,217.31c-.67.27-1.59.14-2.22-.45-.37-.35-.73-.82-.26-1.34l1.58.2c.57.07,1.59.73.89,1.6Z"/>
        <path class="cls-3" d="M145.41,44.86c-2.96-.21-5.95-1.41-8.33-3.9-6.3-1.77-12.67-1.88-18.6,1.12-5-1.84-10.64,4.77-10.2-.39,10.41-3.68,22.2-5.26,33.27-2.19,2.6.72,4.13,3.47,3.86,5.35Z"/>
        <path class="cls-3" d="M94.11,93.61c-2.75-4.02,10.84-7.41,13.75-8.42,3.41-1.18,6.36-4.08,10.26-4.48,2.29-.24,13.15-6.72,12.11-8.93,4.07-3.63-1.01,13.42-2.54,12.09-10.69,1.44-21.24,3.51-30.3,9.95-1.34.95-2.74.59-3.28-.2Z"/>
        <path class="cls-4" d="M31.04,179.06c-.81.81-3.14-1.28-2.1-2.32s3.03,1.39,2.1,2.32Z"/>
        <path class="cls-3" d="M308.44,46.44c2.7.63,4.07,3.33,6.6,4.28.03,1.22.26,2.89-.97,3.7-4.36,2.91-5.46-6.57-8.25-6.84.93-1.12,1.81-.84,2.61-1.15Z"/>
        <circle class="cls-3" cx="28.64" cy="162.62" r="1.11"/>
        <path class="cls-3" d="M351.06,263.61c-2.76,1.46-6.4,1.37-8.84-1.56,3.31-1.4,5.61.75,8.84,1.56Z"/>
        <path class="cls-3" d="M214.38,244.53c-.24,1.37-.77,1.96-1.39,1.71-.43-.18-.71-.63-.96-.87.32-.96,1.53-.76,2.35-.83Z"/>
      </g>
    </g>
  </g>
</svg>