<?xml version="1.0" encoding="UTF-8"?>
<svg id="Layer_2" data-name="Layer 2" xmlns="http://www.w3.org/2000/svg" viewBox="0 0 398.34 404.23">
  <defs>
    <style>
      .cls-1 {
        fill: #929d91;
      }

      .cls-2 {
        fill: #c4cdc2;
      }

      .cls-3 {
        fill: #39433c;
      }

      .cls-4 {
        fill: #e3eae3;
      }
    </style>
  </defs>
  <g id="Layer_1-2" data-name="Layer 1">
    <g>
      <path class="cls-2" d="M66.31,124.89c-2.29.01-6.8,1.63-7.31-2.05,2.37.74,5.45.11,7.31,2.05Z"/>
      <path class="cls-2" d="M16.36,403.36c-2.43,1.19-6.94-.2-7.06-3.26,2.41.89,5.04,1.64,7.06,3.26Z"/>
      <path class="cls-2" d="M7.13,389.12c.14,1.78-.19,3.58-.02,5.33-1.83.61-1.97-1.32-2.04-2.69s.67-2.43,2.06-2.64Z"/>
      <path class="cls-2" d="M390.54,2.09c-1.33.35-3.07-.46-4.36,0-.57-1.35.64-2,1.72-2.07,1.58-.11,2.8.34,2.64,2.08Z"/>
      <path class="cls-2" d="M53.12,386.18c-.13.92-.38,2.04-1.24,2.4-.96.41-2,.64-2.94.58-.03-2.14,2.41-2.69,4.19-2.99Z"/>
      <path class="cls-2" d="M210.84,271.5l-2.42-.06c-.79-.02-.39-1.37-.52-2.09.69-.08,1.47-.1,2.22.29.6.32.83,1.11.72,1.86Z"/>
      <path class="cls-2" d="M25.4,402.28c-.1.78-.41,1.59-.96,1.81-.9.37-1.89-.15-2.55-.17-.59-.95.51-1.36,1.04-1.5.84-.23,1.83-.23,2.46-.14Z"/>
      <path class="cls-2" d="M306.8,34.21c.53.55.2.91-.22,1.23-.65.5-1.36.67-2.04.62.12-.59.04-1.78.71-1.81l1.55-.05Z"/>
      <path class="cls-2" d="M397.35,10.32c-.72-.55-.91-1.45-.97-2.31.44.21,1.6-.08,1.92.71.26.67-.6,1.24-.94,1.6Z"/>
      <path class="cls-2" d="M9.27,399.36c-.73.6-1.63-.02-1.91-.72-.21-.53.05-1.11,0-1.57.55-.53.92-.2,1.26.22.54.65.62,1.38.64,2.08Z"/>
      <g>
        <path class="cls-2" d="M117.97,240.87c-.31,1.39-1.35,2.43-2.78,2.61.65-1.92,1.63-1.47,2.78-2.61Z"/>
        <path class="cls-2" d="M108.11,251.56c.09.48.03.98-.22,1.39-.39.64-1.12,1.15-1.87.78.2-.62-.11-1.56.65-1.92.45-.21,1.07-.14,1.44-.25Z"/>
        <path class="cls-2" d="M102.12,258.53c.08.48.01.98-.24,1.42-.37.64-1.09,1.15-1.85.81.04-.64.03-1.54.66-1.94.41-.26,1.09-.13,1.42-.28Z"/>
        <g>
          <path class="cls-2" d="M60.84,307.5c-.97,1.28-.99,4.08-3.48,3.95,1.01-1.29.96-3.9,3.48-3.95Z"/>
          <path class="cls-2" d="M134.98,222.58c-.85,1.21-1.5,2.65-3.08,3.1.13-.85-.33-2.39.69-2.94.74-.4,1.66-.22,2.39-.17Z"/>
          <path class="cls-2" d="M45.17,391.27c.18.8-.07,1.8-.68,1.86l-2.36.24c-.06-1.9,2.11-1.4,3.05-2.1Z"/>
          <g>
            <path class="cls-2" d="M260.46,222.56c-1.77-.88-2.75-2.15-3.65-3.73,2.1.14,2.35,2.65,3.65,3.73Z"/>
            <path class="cls-2" d="M301.3,267.54c-1.79.04-2.01-1.71-2.87-2.74,1.91-.04,2.43,1.22,2.87,2.74Z"/>
            <path class="cls-2" d="M267.74,230.66c-1.06-.8-2.5-1.32-2.17-3.03.49.34,1.73-.14,2.01.68s.27,1.63.16,2.35Z"/>
            <path class="cls-2" d="M308.43,275.74c-.55.48-.9.18-1.3-.23-.54-.57-.82-1.26-.68-1.98.45.34,1.72-.23,1.94.65.14.56-.09,1.18.03,1.56Z"/>
            <path class="cls-2" d="M279.52,242.8c-.52.3-.94.11-1.32-.22-.59-.53-.87-1.24-.7-1.97.51.3,1.92-.22,1.95.64l.07,1.55Z"/>
            <path class="cls-2" d="M287.61,251.79c-.52.29-.95.07-1.32-.23-.65-.51-1-1.22-.76-1.97.46.33,1.69-.19,1.89.67.12.55.17,1.11.2,1.52Z"/>
            <path class="cls-1" d="M234.56,222.48c-.43,2.01,2.82-.45,3.32.12l33.56,38.18c2.86,3.25,4.63,6.84,8.28,8.7,1.94,2.75,4.07,6.3,7.05,8.15.88,2.31,2.1,5.07,4.64,5.73.24.72,9.45,12.06,12.49,14.12.62,3.21,3.7,4.73,5.86,6.71,2.98,2.73,4.25,7.1,7.85,9.21-.62,1.83,1.18,2.17,2.04,3.07,6.45,6.72,11.97,14.22,18.21,21.57l12.79,15.07c4.99,5.88,9.05,12.1,13.92,17.51.22,2.75,6.43,15.03,10.21,12.59,1.22.51,2.36,1.36,2.43,2.93l-2.37-.58-1.38,5.49c-6.07-1.37-11.24-5.43-16.54-9.27l-17.26-12.5c-2.94-2.13-5.33-3.68-8.13-5.96l-25.87-21.05-11.41-9.6-9.68-9.22c-7.56-7.2-15.1-13.9-22.88-20.86l-18.59-16.63-18.13-16.57-19.19-17.94,23.2-23.7c2-2.05,2.99-4.76,5.6-5.28ZM223.23,250.29c.44-3.69,1.81-6.77-.92-10.31l-7.65,7.57c-1.57,1.56-2.54,3.65-1.57,5.19.64,1.02,3.53,3.01,4.14,1.82,1.35-2.64,1.92-4.48,6.01-4.26Z"/>
            <path class="cls-4" d="M287.5,270.37c1.88.39,3.11,2.73,4.11,4.12-.05.7-.24,1.58.18,2.35.33.62,1.31.7,2.01.71.42.27.59.92,1.01,1.17-.04.88-1.38,3.07-.32,3.97,7.49,6.42,6.02,8.22,9.99,7.54,3.79,4.16,8.2,8.05,11.11,13.03.31.52-.19,1.71.59,2.08.46.22,1.02.23,1.47.16.32.37.66.96,1.05,1.24.6,4.16,4.13,7.79,7.82,9.64.18.48.77.8.98,1.27.15,2.44,1.62,4.67,4.2,4.64.05.33.14.66.15,1,.06,2.12,1.54,3.62,3.6,3.97,2.29,2.09,4.32,4.54,6.01,7.13-.07.72-.09,1.49.2,2.35.27.79,1.33.43,1.92.72,2.62,1.27,3.25,4.45,5.08,6.91,4.26,5.72,9.78,10.35,12.87,16.91,1.6,3.38,3.84,5.99,5.01,9.09-.6.35-1.3.37-1.98.29-4.86-5.4-8.92-11.62-13.92-17.51l-12.79-15.07c-6.24-7.36-11.76-14.86-18.21-21.57.11-.71.09-1.45-.2-2.31-.25-.76-1.28-.43-1.85-.76-3.6-2.11-4.87-6.48-7.85-9.21-.28-3.23-3.31-4.97-5.86-6.71-3.03-2.06-12.24-13.4-12.49-14.12-.97-2.9-2.49-4.39-4.64-5.73-2.98-1.86-5.12-5.4-7.05-8.15.4-.4,1.61-2.24,2.48-1.68,2.05,1.33,3.37,2.16,5.3,2.56Z"/>
            <path class="cls-2" d="M287.5,270.37c-1.93-.4-3.25-1.24-5.3-2.56-.86-.56-2.08,1.28-2.48,1.68-3.65-1.86-5.42-5.45-8.28-8.7l-33.56-38.18c-.5-.57-3.75,1.89-3.32-.12,2.55-.5,2.18-3.9,5.53-5.53,1.9,4.21,5.41,6.26,8.06,9.15l11.94,13.02c7.09,7.73,14.13,15.13,21.02,23.09,2.41,2.78,5.33,4.88,6.39,8.16Z"/>
            <path class="cls-2" d="M366.54,370.34c4.05,2.96,6.23,8.42,8.23,12.88-3.78,2.44-9.99-9.84-10.21-12.59.68.08,1.38.06,1.98-.29Z"/>
            <path class="cls-2" d="M304.48,290.22c-3.97.68-2.5-1.12-9.99-7.54-1.05-.9.28-3.08.32-3.97,4.47,2.56,6.39,7.91,9.67,11.51Z"/>
            <path class="cls-2" d="M326.52,316.37c-3.69-1.85-7.22-5.48-7.82-9.64,3.28,2.45,6.34,5.81,7.82,9.64Z"/>
            <path class="cls-2" d="M377.2,386.14c.05,1.13.86,2.84-.36,3.97-.71.66-2.15,1.22-3.4.94l1.38-5.49,2.37.58Z"/>
            <path class="cls-2" d="M331.7,322.27c-2.58.03-4.05-2.2-4.2-4.64,2.21.57,3.83,2.39,4.2,4.64Z"/>
            <path class="cls-2" d="M335.45,327.23c-2.06-.35-3.54-1.85-3.6-3.97,2.06.16,3.27,2.04,3.6,3.97Z"/>
            <path class="cls-2" d="M343.59,337.43c-.6-.29-1.66.07-1.92-.72-.29-.85-.27-1.63-.2-2.35,1.33.45,2.21,1.65,2.12,3.06Z"/>
            <path class="cls-2" d="M293.8,277.54c-.7,0-1.68-.08-2.01-.71-.41-.77-.23-1.64-.18-2.35,1.31.48,2.22,1.64,2.19,3.05Z"/>
            <path class="cls-2" d="M317.65,305.48c-.45.07-1.01.06-1.47-.16-.78-.37-.29-1.56-.59-2.08.77-.2,1.37.22,1.71.79.26.45.07,1.13.35,1.45Z"/>
            <path class="cls-3" d="M223.23,250.29c-4.09-.22-4.65,1.62-6.01,4.26-.61,1.19-3.5-.79-4.14-1.82-.97-1.54,0-3.63,1.57-5.19l7.65-7.57c2.73,3.54,1.36,6.62.92,10.31Z"/>
            <path class="cls-2" d="M309.75,304.19c-2.16-1.98-5.24-3.5-5.86-6.71,2.55,1.73,5.58,3.47,5.86,6.71Z"/>
            <path class="cls-2" d="M291.41,283.37c-2.53-.67-3.76-3.42-4.64-5.73,2.15,1.34,3.67,2.83,4.64,5.73Z"/>
            <path class="cls-2" d="M319.65,316.47c-.86-.9-2.66-1.24-2.04-3.07.56.33,1.59,0,1.85.76.29.86.31,1.6.2,2.31Z"/>
          </g>
          <g>
            <path class="cls-1" d="M237.88,164.4c7.17,4.4,13.42,10.66,18.37,18.26-6.25,5.37-10.59,11.21-15.85,16.72l-19.01,19.91-9.54,10.36-14.02,13.9c-5.71,5.67-11.36,11.26-17.38,16.56-2.81,2.47-4.72,5.09-7.28,7.7-9.21,9.37-18.11,18.22-28.06,26.9l-52.66,45.92c-9.11,7.95-17.61,15.59-27.44,22.57l-22.7,16.11c-4.17,2.96-19.74,15.53-23.42,10.85-2.21-2.8,3.95-12.24,5.46-14.81.67.49,1.6,1.05,2.21.79.82-.35,2.1-.95,2.72-1.81,8-11.07,16.85-20.64,25.58-31.12l34.51-41.46c3.98-4.78,8.52-8.63,12.22-13.7,3.26-4.47,19.29-22.91,23.52-25.46,1.85-1.11,1.96-3.52,2.75-4.82,1.46-1.16,3.63-1.93,4.11-4.05.75.39,1.49-.13,1.86-.77.25-.43.3-.94.22-1.42,3.21-2.07,4.48-6.17,7.09-8.89,5.12-5.33,10.42-9.99,15.36-15.69,6.16-7.1,13.73-12.81,19.25-20.29.67-.9,2.72-1.18,2.16-2.99,1.16-1.06,16.04-16.44,15.68-16.16,5.56-4.26,10.22-8.96,14.81-14.21,3.41-3.9,7.67-6.77,10.86-10.91,1.89-2.46,3.67-4.93,6.4-5.73l9.59,7.53c.79.62,1.99.11,2.63.19Z"/>
            <path class="cls-2" d="M127.86,257.78c-.79,1.3-.91,3.7-2.75,4.82-4.23,2.55-20.26,20.99-23.52,25.46-3.7,5.08-8.24,8.92-12.22,13.7l-34.51,41.46c-8.72,10.48-17.58,20.04-25.58,31.12-.62.86-1.9,1.46-2.72,1.81-.61.26-1.54-.3-2.21-.79,7.6-12.93,16.76-25.12,26.4-37.27l22.57-28.45c6.36-8.02,12.7-15.72,19.45-23.3l15.55-17.47c2.56-2.87,5.53-4.8,7.59-8.35.8-1.39,2.45-3.41,4.01-3.13,1.79.32,3.47-2.3,4.74-1.53l3.2,1.93Z"/>
            <path class="cls-4" d="M227,152.87l-1.34,3.8c-2.73.8-4.52,3.27-6.4,5.73-3.18,4.14-7.44,7.02-10.86,10.91-4.6,5.25-9.25,9.95-14.81,14.21.36-.28-14.52,15.1-15.68,16.16-.6.12-1.6.08-1.86.69-.36.83-.33,1.6-.3,2.3-5.52,7.48-13.09,13.19-19.25,20.29-4.94,5.7-10.25,10.36-15.36,15.69-2.61,2.72-3.88,6.82-7.09,8.89-.5.32-1.56-.02-1.83.74-.18.51-.15,1.03-.24,1.44-.48,2.12-2.64,2.89-4.11,4.05l-3.2-1.93c-1.27-.77-2.95,1.85-4.74,1.53-1.42-1.67,7.11-8.39,9.23-11.05.77.13,1.65.88,2.57,1.64,2.4-1.13,4.06-4.74,2.01-7.01.47-.16.66-1.08,1.12-1.31.67.05,1.61.03,2-.64.24-.42.11-1.03.04-1.45.45-.9,1.67-1.3,2.17-2.11,12.75-5.57,11.23-13.91,23.95-21.77,4.72-2.92,6.92-9.07,11.45-12.28,2.84-2.02,13.82-9.25,9.45-12.99,2.74-2.11,3.6-7.18,7.71-6.99.46.89.35,2.11.94,2.93,5.65-12.11,8.51-6.5,7.89-13.33,6.62-7.28,13.66-14.58,21.5-21.2,1.8-1.52,3.93,2.1,5.05,3.05ZM130.07,250.58c0-.61-.5-1.11-1.11-1.11s-1.11.5-1.11,1.11.5,1.11,1.11,1.11,1.11-.5,1.11-1.11Z"/>
            <path class="cls-2" d="M183.91,188.42c4.37,3.73-6.61,10.97-9.45,12.99-4.53,3.21-6.73,9.36-11.45,12.28-12.73,7.86-11.2,16.2-23.95,21.77,4.96-8.1,12.42-14.25,19.08-21.46,8.41-9.11,16.34-18.29,25.77-25.57Z"/>
            <path class="cls-2" d="M237.88,164.4c-.64-.08-1.84.43-2.63-.19l-9.59-7.53,1.34-3.8c1.08.92,11.47,10.64,10.88,11.52Z"/>
            <path class="cls-2" d="M191.62,181.42c.59-4.96,5.79-7.06,8.83-10.4.62,6.83-2.23,1.21-7.89,13.33-.59-.82-.48-2.04-.94-2.93Z"/>
            <path class="cls-2" d="M129.15,246.33c1.4-1.76,2-4.5,4.58-5.37,2.05,2.27.39,5.88-2.01,7.01-.92-.76-1.8-1.51-2.57-1.64Z"/>
            <path class="cls-2" d="M136.89,237.56c.07.42.2,1.04-.04,1.45-.39.67-1.33.69-2,.64-.03-1.2.83-2.1,2.04-2.09Z"/>
            <path class="cls-2" d="M177.91,203.69c.56,1.8-1.5,2.08-2.16,2.99-.02-.7-.06-1.47.3-2.3.26-.61,1.26-.56,1.86-.69Z"/>
            <path class="cls-2" d="M134.04,251.55c.08.47.03.98-.22,1.42-.37.64-1.1,1.16-1.86.77.09-.41.06-.94.24-1.44.27-.76,1.33-.42,1.83-.74Z"/>
            <circle class="cls-2" cx="128.96" cy="250.58" r="1.11"/>
          </g>
        </g>
        <g>
          <path class="cls-3" d="M292.81,57.22c.85.74,1.49-.29,1.58-.89l.22-1.49,5.93-14.07c.87-2.08,2.6-3.57,3.99-4.7.68.04,1.39-.12,2.04-.62.43-.33.75-.68.22-1.23l23.61-9.15c1.62-.63,4.56-.39,4.35-2.8,1.59-.07,3.54-.54,5.4-1.36,15.45-6.75,30.54-13.33,46.04-18.81,1.29-.45,3.02.36,4.36,0,2.28,1.46,4.69,3.49,5.84,5.91.06.86.25,1.77.97,2.31.72,4.11-.64,8.23-2.1,12.4l-13.53,38.73c-4.53,12.97-8.18,25.76-14.56,38.34l-21.68,10.25c-6.26,2.96-11.85,5.96-18.3,8.82-4.28,1.9-9.51,4.69-13.21,7.24-3.56,7.99-8.65,13.63-13.62,20.28l-7.73,10.34c-12.41,16.6-26.2,31.21-40.94,45.98-1.39,1.39-5.01,4.48-3.64,6.28,2.81,3.71,6.66,6.17,8.77,9.85.9,1.58,1.88,2.84,3.65,3.73,1.88,1.56,3.09,3.69,5.1,5.08-.32,1.71,1.12,2.23,2.17,3.03,3.75,2.83,5.65,7.51,9.76,9.95-.17.72.11,1.44.7,1.97.37.34.8.53,1.32.22.13,2.92,3.55,5.03,6.01,6.79-.24.74.11,1.46.76,1.97.38.29.8.52,1.32.23l10.81,13.01c.86,1.03,1.09,2.78,2.87,2.74.73,2.49,3.16,4.48,5.15,6-.15.72.14,1.41.68,1.98.39.41.75.71,1.3.23,1.21,3.78,4.74,6.32,7.4,9.47l11.81,13.96,10.92,13.26c12.79,15.53,25.32,30.66,36.34,47.63,6.41,9.86,20.54,28.4,12.44,38.73-5.97,7.62-17.63,4.75-26.05-.56-23.62-14.88-44.99-32.12-66.09-50.44-8.42-7.31-16.27-14.08-24.2-21.72-6.22-5.99-12.67-11.11-18.95-16.97l-14.47-13.5-17.35-15.55c-3.26-2.92-5.7-8.46-9.4-8.56.11-.74-.12-1.54-.72-1.86-.74-.39-1.52-.37-2.22-.29-.6-3.51-6.11-4.31-9.36-9.71-4.11,1.75-6.57,4.73-9.85,8.04-30.87,31.19-62.82,60.72-97.26,88.07l-38.31,30.44c-1.78.29-4.22.85-4.19,2.99-1.72-.1-2.61,1.24-3.77,2.11-.93.7-3.11.19-3.05,2.1-5.67.58-10.8,6.75-16.72,8.91-.63-.09-1.62-.09-2.46.14-.53.15-1.63.55-1.04,1.5-1.86-.06-3.69-.4-5.54-.57-2.02-1.62-4.65-2.38-7.06-3.26l-.03-.73c-.03-.69-.11-1.42-.64-2.08-.34-.41-.71-.75-1.26-.22l-.25-2.62c-.17-1.75.16-3.55.02-5.33,1.54-7.51,4.64-15.02,8.98-21.98,12.43-19.92,27.12-37.56,41.25-55.69,2.49.13,2.51-2.67,3.48-3.95l9.18-12.08,30.02-34.65c.76.34,1.48-.17,1.85-.81.25-.43.31-.94.24-1.42,1.36-1.4,3.28-2.85,3.9-4.8.75.37,1.48-.13,1.87-.78.25-.41.31-.92.22-1.39,2.5-2.21,5.94-4.74,7.08-8.08,1.42-.18,2.47-1.23,2.78-2.61,4.8-4.76,9.65-10.02,13.93-15.2,1.58-.45,2.23-1.89,3.08-3.1,2.54-3.61,13.97-12.64,11.49-15.13-7.78-7.8-17.04-19.76-22.29-23.83.08-.69.1-1.47-.3-2.22-.31-.6-1.11-.83-1.86-.72l-5.32-6.72c-8.03-10.15-16.15-19.65-23.82-30.08-4.76-6.47-10.21-11.7-14.23-19.07l-12.35.08c-1.85-1.94-4.94-1.31-7.31-2.05-2.16-.67-4.68-.85-7-1.96-2.71-1.31-4.92-3.11-7.65-3.17.65-.77-.25-1.39-.84-1.64-.47-.2-.96-.26-1.41-.24-15.73-10.23-28.19-27.48-33.92-45.85C4.4,57.86,1.45,46.31.69,33.66.14,24.55-.49,15.56.59,6.54.89,4.04,3.11,2.24,4.79,1.96c6.7-1.1,10.55,13.23,22.29,20.22,25.42,15.13,54.09,8.63,73.43,34.11,16.46,21.68,4.86,35.13,15.05,37.1l31.32,25.49,24.67,20.2c6.81,5.58,14.02,10.4,19.63,17.34.83,1.03,1.1,2.75,2.32,3.01.98.21,2.5-.48,3.43-1.49,7.49-8.18,15.74-14.72,23.86-22.23,11.54-10.67,22.89-20.83,35.44-30.27,4.85-3.65,8.33-7.57,14.03-10.33,2.71-1.31,6.47-4.54,8.34-6.99,3.25-4.24,12.26-25.32,14.2-30.91ZM370.65,19.67c-9.17,3.03-26.36,11.1-35.21,15.11-9.42,4.27-16.04,6.41-24.56,10.83-7.06,17.22-15.23,33.75-24.04,50.4-.22,3.28,4.65,5.27,6.71,6.28,2.25,4.23,7.24,8.01,10.91,11.55,1.49,1.44,1.69,3.73,3.95,3.02,1.32-.42,2.57-1.2,2.46-2.77.23.06.52-.04.76-.05,1.19-.02,2.51-.36,3.87-1.16,8.9-5.22,17.84-9.5,27.27-13.56,1.46-.63,2.78-2.16,2.53-3.41,4.76.28,11.29-1.23,14.3-5.55.96-1.37,12.67-36.34,14.18-40.92,1.17-3.53,1.37-6.31,1.81-9.44.54-3.84,9.18-16.6,6.75-18.4-4.51,2.22-5.91,6.78-8.91,9.69-1.7,1.64-3.28,2.07-3.91,4.67-.39,1.62-4.17,2.9-4.25,5.02-1.53.21-2.64,1.39-2.74,2.92-5.19,5.29-10.78,10.78-15.53,16.89-.26,3.75,1.21,8.91.28,12.24l-3.86,5.72c-.76-.18-1.41.83-1.9,1.16-5.19,1.14-11.44,1.99-16.05-1.94-1.48-1.26-1.98-3.55-3.82-3.94-.6-2.21-.45-4.67-1.95-6.5l-.03-1.45c1.95-1.2,1.96-3.75,2.09-5.86.52.36.93.19,1.22-.21.46-.63.65-1.33.76-2.03l.99-.98c1.75.11,3.73-.62,3.95-2.54,1.01.01,2.01-.72,2.86-1.17,2.82,1.01,5.82,1.15,9.42,3.13l20.55-22.65c2.88-3.18,8.61-7.34,10.64-10.99.64-1.01,4.09-1.56,3.15-3.82-.99-2.38-3.42.28-4.66.69ZM15.06,52.86c4.75,23.73,18.01,49.57,42.86,58.16,4.92,1.7,9.35,3.45,14.29,2.84,3.67-.45,7.71.03,11.23-3.02-1.17-2.67-3.64-1.48-5.31-1.91-12.34-3.23-23.59-8.34-32.91-17.1.61-2.34-13.81-15.67-10.85-16.92,2.11-.24,3.08,1.79,4.53,3.31l11.72,12.24c2.78,2.9,6.44,4.82,9.42,7.43,3.31,2.91,7.3,3.02,11.08,3.88l13.1,2.97c1.61.36,3.47.48,4.36-.91.69-1.07,1.32-4.18-.49-4.77-7.37-2.39-12.81-6.81-18.32-11.64l-12.86-11.27c-2.07-1.81-3.68-4.02-2.23-6.8,7.88,3.82,12.4,9.91,18.51,13.58,3.88,5.04,10.36,10.52,16.9,11.95,1.09.24,3.74.42,4.48-.43,2.04-2.36-1.13-4.02-2.28-5.04-4.06-8.75-10.55-17.73-17.87-24.64-3.72-3.52-8.49-4.71-11.19-8.49l.76-1.4c6.19.93,11.3,5.2,16.9,7.95,1.45.71,2.24,2.86,4.01,3.18-.07,1.42.89,2.55,2.22,2.99l.88.97c.3.33.09.97.29,1.44.27.62.88,1.04,1.64.77.03.79,1.08,1.25,1.28,1.89.67,2.18,1.64,4.44,3.5,5.78.31,1.01.92,2.29,1.39,3.27,1.08,2.25,1.17,5.16,4.35,7.07,1.2-5.58-.8-10.65-2.48-15.38-3.69-10.4-10.65-19.8-21.02-23.87-1.18-2.76-4.61-1.89-6.77-2.89-3.78-1.76-7.94-2.54-12.12-3.14-1.17-1.85-3.61-1.31-5.87-1.86-10.01-2.44-19.48-5.78-28.64-10.3-4.99-2.46-7.82-7.22-12.88-11.13-1.6,11.12,2.38,21.15,4.4,31.26ZM339.78,67.65c.07-2.58-1.73-4.94-3.2-5.41-1.62-.51-4.58-.3-5.82,1-2.71,2.84-1.2,6.41,1.98,8.11,2.53,1.35,6.94.58,7.05-3.71ZM97.05,111.98c-1.05,1.34-8.24,7.66-7.21,10.02,1.21,2.77,4,7.6,6.96,8.69,3,2.15,3.62,7.38,6.98,9.1,2.82,1.44,2.62,2.68,4.08,5.03,2.99,4.82,7.11,9.16,10.66,13.5l10.86,13.27,20.48-19.78c1.68-1.62,3.4-1.62,2.89-4.12.74-.89,6.64-3.57,4.43-5.93-4.49-5-36.12-30.67-39.24-32.15-.05-1.75-1.57-2.05-2.81-2.62-2.64-1.2-4.8-5.84-8.22-5.78-4.54,1.84-7.09,7.22-9.88,10.77ZM283.66,112.95c-.22,1.95,1.77,2.01,2.73,2.85,4.16,3.65,7.69,8.12,12.34,11.13.05.19.36,1.73.78,1.62,2.83-.73,2.53-2.9,2.05-4.47-.75-2.47-2.21-4.9-4.78-5.23.15-.74-.2-1.36-.76-1.7-.41-.25-1.15-.12-1.43-.39-5.02-5.05-9.45-10.73-15.43-15.45-1.42-1.12-4.72,2.62-3.29,4.09,2.72,2.79,4.65,6.07,7.77,7.56ZM279.63,126.73c.85.95,1.21,2.66,3,2.22.36,2.17,3.07,2.66,4.56,4.34,1.89,2.13,3.54,4.39,6.37,3.55.73-.22,1.79-.86,2.02-1.57.52-1.53-1.23-1.9-2.07-2.44-1.95-1.27-5.22-2.69-6-5.16-.68-2.16-1.61-1.5-2.95-2.63-6.12-5.15-14.18-17.07-17.11-15.95-6.82,2.62,4.69,9.28,12.17,17.64ZM242.75,153.78c4.04,5.59,9.84,9.57,15.18,15.05,1.7,1.75,2.51,4.62,6,5.23l22.01-26.83c3.03-3.7-3.96-7.23-7.05-9.23.18-1.14-15.01-16.88-16.78-16.29-.01-1.55-1.5-4.45-3.56-4.71l-28.53,24.84c3.52,5.23,8.52,7.66,12.73,11.93ZM157.77,151.94c-2.02.07-2.58,2.24-4,3.66-27.53,27.68-15.17,23.69-14.42,22.56,2.33-3.51,6.8-4.44,8.6-8.35.14-.23.61-.59,1.25-1.12,1.22-.17,2.23-.95,2.53-2.76.92-.32,1.58-1.34,2.19-2.03.46-.51,2.17-.12,2.04-2.17l7.92-7.86c1.21-1.2,2.95-1.96,2.52-3.65s-2.26-3.5-4.41-2.64c-1.95.78-2.87,2.56-4.22,4.35ZM200.45,171.02c-3.04,3.34-8.24,5.44-8.83,10.4-4.11-.18-4.97,4.88-7.71,6.99-9.43,7.28-17.36,16.46-25.77,25.57-6.66,7.22-14.12,13.37-19.08,21.46-.5.81-1.72,1.21-2.17,2.11-1.21-.01-2.07.89-2.04,2.09-.46.23-.65,1.15-1.12,1.31-2.58.87-3.18,3.61-4.58,5.37-2.12,2.66-10.65,9.38-9.23,11.05-1.57-.28-3.21,1.75-4.01,3.13-2.06,3.55-5.03,5.48-7.59,8.35l-15.55,17.47c-6.74,7.58-13.08,15.28-19.45,23.3l-22.57,28.45c-9.64,12.15-18.81,24.34-26.4,37.27-1.52,2.58-7.67,12.01-5.46,14.81,3.69,4.68,19.26-7.9,23.42-10.85l22.7-16.11c9.83-6.98,18.33-14.63,27.44-22.57l52.66-45.92c9.96-8.68,18.85-17.53,28.06-26.9,2.57-2.61,4.47-5.23,7.28-7.7,6.02-5.29,11.67-10.89,17.38-16.56l14.02-13.9,9.54-10.36,19.01-19.91c5.26-5.51,9.59-11.35,15.85-16.72-4.95-7.6-11.2-13.87-18.37-18.26.59-.89-9.8-10.61-10.88-11.52s-3.25-4.58-5.05-3.05c-7.85,6.63-14.88,13.92-21.5,21.2ZM165.85,166.74c-1.58-.73-2.06,2.46-3.01,3.05-2.39.21-2.63,2.71-4.78,4.17-5.27,3.57-8.78,9.22-13.93,13.29,1.66,4.73,5.22,6.64,9.12,8.98.7.42.78,2.07,1.43,2.25.98.27,2.49.39,3.46-.64,4.89-5.18,9.28-10.46,14.54-15.33,2.7-2.5,4.31-5.81,7.07-8.44l7.08-6.74c-3.88-1.97-6.25-6.96-10.4-8.43s-8.43,4.37-10.58,7.84ZM234.56,222.48c-2.61.51-3.6,3.23-5.6,5.28l-23.2,23.7,19.19,17.94,18.13,16.57,18.59,16.63c7.78,6.96,15.32,13.66,22.88,20.86l9.68,9.22,11.41,9.6,25.87,21.05c2.8,2.28,5.19,3.83,8.13,5.96l17.26,12.5c5.3,3.84,10.47,7.9,16.54,9.27,1.25.28,2.68-.28,3.4-.94,1.22-1.13.41-2.85.36-3.97-.07-1.56-1.21-2.42-2.43-2.93-2-4.46-4.18-9.92-8.23-12.88-1.16-3.11-3.41-5.71-5.01-9.09-3.1-6.56-8.61-11.19-12.87-16.91-1.83-2.45-2.46-5.64-5.08-6.91.08-1.42-.79-2.61-2.12-3.06-1.69-2.59-3.73-5.04-6.01-7.13-.33-1.92-1.54-3.81-3.6-3.97,0-.33-.1-.67-.15-1-.36-2.25-1.99-4.06-4.2-4.64-.22-.47-.8-.79-.98-1.27-1.48-3.83-4.54-7.19-7.82-9.64-.39-.29-.73-.88-1.05-1.24-.28-.32-.09-.99-.35-1.45-.33-.57-.93-.99-1.71-.79-2.91-4.98-7.32-8.87-11.11-13.03-3.28-3.6-5.2-8.95-9.67-11.51-.42-.24-.59-.9-1.01-1.17.03-1.41-.88-2.57-2.19-3.05-1-1.39-2.23-3.73-4.11-4.12-1.06-3.28-3.98-5.37-6.39-8.16-6.9-7.96-13.93-15.36-21.02-23.09l-11.94-13.02c-2.65-2.89-6.16-4.95-8.06-9.15-3.35,1.63-2.98,5.03-5.53,5.53Z"/>
          <path class="cls-2" d="M334.75,22.26c.22,2.41-2.73,2.17-4.35,2.8-.15-2.44,2.42-2.71,4.35-2.8Z"/>
          <path class="cls-2" d="M294.61,54.84l-.22,1.49c-.09.6-.73,1.63-1.58.89.21-.6-.48-1.64.41-2.22.43-.28.88-.64,1.39-.16Z"/>
          <path class="cls-4" d="M370.65,19.67c.78-.09,1.3.46,1.45,1.02.21.79.17,1.46.06,2.11-2.02,3.65-7.75,7.81-10.64,10.99-.89-1.46-4.43-1.2-6.15-.05-7.65,5.11-15.44,9.1-24.08,12.13,2.3-.81-8.6,3.75-5.32,5.24,1.7.77,3.78-.61,4.79.18.6.47.65,1.38.79,2.02-.85.44-1.85,1.18-2.86,1.17-1.8-.02-3.48.66-3.95,2.54l-.99.98c-.73-.11-1.83-.24-2.07.59-.17.61.12,1.19.09,1.65-.13,2.11-.13,4.66-2.09,5.86-2.94-1.77.5-6.31-.82-9.08-3.79,1.92-3.63,5.29-4.85,8.36l-3.73,9.44c-3.39,8.58-8.69,15.61-13.87,23.05-1.1,1.58-.69,4.24-2.85,4.44-2.07-1.01-6.94-3-6.71-6.28,8.81-16.65,16.98-33.18,24.04-50.4,8.52-4.41,15.14-6.56,24.56-10.83,8.85-4.01,26.04-12.09,35.21-15.11Z"/>
          <path class="cls-2" d="M319.68,66.08l.03,1.45c-1.33-.7-2.39.51-2.16,1.91.17,1,1.95,4.55,2.63,5.11.35.29.99-.07,1.48-.53,1.84.4,2.34,2.68,3.82,3.94,4.61,3.92,10.86,3.08,16.05,1.94,1.03,1.91.31,3.81-1.27,6.35,3.08,1.19,4.84-.98,7.25-1.07-.3,1.72-2.07,3.26-4.15,3.41-3.48.26-4.29,2.84-6.53,4.52l-9.85,7.41c-3.4.19-17.68,10.4-15.36,13.5-.24,0-.54.11-.76.05-.73-.19-1.81-.46-2.24.38-.37.73-.27,1.66-.22,2.39-2.26.71-2.46-1.58-3.95-3.02-3.66-3.54-8.66-7.32-10.91-11.55,2.16-.2,1.74-2.85,2.85-4.44,5.19-7.44,10.48-14.47,13.87-23.05l3.73-9.44c1.21-3.07,1.05-6.44,4.85-8.36,1.33,2.77-2.12,7.31.82,9.08Z"/>
          <path class="cls-2" d="M278.89,138c-4.72,9.74-17.41,18-21.66,24.21-1.21,1.77,4.72,6.69.71,6.62-5.34-5.49-11.14-9.46-15.18-15.05.3-1.78,1.16-3.48.98-5.69-1.06-.97-2.52-.91-3.44-2.31l16.54-16.82c2.27-2.31,4.77-4.26,5.28-7.26,1.77-.59,16.96,15.16,16.78,16.29Z"/>
          <path class="cls-4" d="M375.6,40c-2.14-.77-3.47.69-5.13,2.03-5.2,4.18-7.31,9.87-8.02,16.09-.18,1.6-.47,3.37-.83,4.93-.49.45-1.4.86-1.78,1.67-.36.76.45,1.46.59,2.08l-1.05,4.02c-1.9.24-2.34,1.66-2.82,3.18-1.42,4.51-4.99,8.77-9.05,11.19-2.41.09-4.17,2.26-7.25,1.07,1.58-2.54,2.3-4.44,1.27-6.35.48-.33,1.13-1.34,1.9-1.16.45,3.27,5.11-4.58,4.59-3.56.37-.72-.29-1.55-.73-2.16.93-3.32-.54-8.49-.28-12.24,4.75-6.12,10.34-11.61,15.53-16.89.96-.98,2.67-.96,2.74-2.92.08-2.12,3.85-3.4,4.25-5.02,2.31-.39,3.92-2.33,3.91-4.67,3-2.91,4.39-7.47,8.91-9.69,2.42,1.8-6.22,14.56-6.75,18.4Z"/>
          <path class="cls-1" d="M257.94,168.83c4.01.07-1.92-4.85-.71-6.62,4.25-6.21,16.94-14.47,21.66-24.21,3.09,2.01,10.09,5.54,7.05,9.23l-22.01,26.83c-3.49-.62-4.29-3.49-6-5.23Z"/>
          <path class="cls-1" d="M345.31,95.91c.25,1.25-1.08,2.79-2.53,3.41-9.44,4.06-18.37,8.34-27.27,13.56-1.36.8-2.69,1.14-3.87,1.16-2.32-3.1,11.96-13.31,15.36-13.5l9.85-7.41c2.24-1.68,3.05-4.26,6.53-4.52,2.07-.15,3.84-1.69,4.15-3.41,4.05-2.42,7.63-6.69,9.05-11.19.95,0,1.95-.28,2.44-1.02.46-.71.21-1.5.38-2.16l1.05-4.02c.66-.38.87-1.4,2.48-1.77.77,5.16-4.57,30.56-14.53,25.7-.84,2.16-3.47,3.14-3.06,5.19Z"/>
          <path class="cls-4" d="M262.11,121.71c-.5,3-3.01,4.95-5.28,7.26l-16.54,16.82c.92,1.4,2.38,1.34,3.44,2.31.18,2.2-.68,3.91-.98,5.69-4.22-4.27-9.21-6.71-12.73-11.93l28.53-24.84c2.05.26,3.54,3.16,3.56,4.71Z"/>
          <path class="cls-2" d="M375.6,40c-.44,3.13-.64,5.91-1.81,9.44-1.52,4.58-13.23,39.55-14.18,40.92-3.01,4.32-9.53,5.83-14.3,5.55-.41-2.04,2.23-3.03,3.06-5.19,9.96,4.86,15.31-20.54,14.53-25.7-1.61.38-1.82,1.4-2.48,1.77-.14-.62-.95-1.32-.59-2.08.38-.81,1.3-1.22,1.78-1.67.47.28.98.78,1.41.7.28-.05,6.16-5.67,2.63-8.85-1.35,1.43-1.69,3.1-3.21,3.21.7-6.22,2.82-11.91,8.02-16.09,1.66-1.34,2.99-2.8,5.13-2.03Z"/>
          <path class="cls-2" d="M361.53,33.78l-20.55,22.65c-3.6-1.98-6.6-2.12-9.42-3.13-.14-.64-.19-1.55-.79-2.02-1.01-.79-3.09.59-4.79-.18-3.28-1.49,7.63-6.05,5.32-5.24,8.64-3.03,16.43-7.02,24.08-12.13,1.72-1.15,5.26-1.41,6.15.05Z"/>
          <path class="cls-4" d="M294.6,116.75c-.14.73-.04,1.81.65,1.9l1.53.2c2.56.33,4.03,2.76,4.78,5.23-.81,1.08-1.6,2.23-2.83,2.85-4.65-3.01-8.18-7.48-12.34-11.13.29-2.05-1.39-2.21-2.73-2.85-3.12-1.49-5.04-4.77-7.77-7.56-1.44-1.47,1.87-5.21,3.29-4.09,5.97,4.72,10.41,10.4,15.43,15.45Z"/>
          <path class="cls-2" d="M284.57,125.05c.27,1.48,1.45,2.51,2.95,2.63.78,2.47,4.05,3.89,6,5.16l.04,4.01c-2.82.84-4.48-1.41-6.37-3.55-1.49-1.69-4.2-2.18-4.56-4.34-.12-.7.09-1.67-.66-2.02-.8-.37-1.62-.28-2.34-.2-7.48-8.36-18.99-15.01-12.17-17.64,2.93-1.13,10.99,10.8,17.11,15.95Z"/>
          <path class="cls-2" d="M339.78,67.65c-.11,4.28-4.52,5.05-7.05,3.71-3.18-1.7-4.69-5.27-1.98-8.11,1.24-1.3,4.2-1.52,5.82-1,1.47.47,3.27,2.83,3.2,5.41Z"/>
          <path class="cls-2" d="M372.16,22.79c.1-.64.15-1.31-.06-2.11-.15-.56-.67-1.11-1.45-1.02,1.24-.41,3.67-3.08,4.66-.69s-2.51,2.81-3.15,3.82Z"/>
          <path class="cls-4" d="M319.71,67.53c1.5,1.83,1.35,4.29,1.95,6.5-.49.46-1.13.82-1.48.53-.68-.57-2.47-4.11-2.63-5.11-.23-1.4.83-2.61,2.16-1.91Z"/>
          <path class="cls-2" d="M369.54,35.95c.63-2.59,2.22-3.03,3.91-4.67,0,2.34-1.6,4.28-3.91,4.67Z"/>
          <path class="cls-1" d="M298.74,126.93c1.23-.62,2.02-1.77,2.83-2.85.48,1.58.78,3.74-2.05,4.47-.41.11-.72-1.43-.78-1.62Z"/>
          <path class="cls-2" d="M328.69,54.46c-.22,1.91-2.2,2.64-3.95,2.54.47-1.87,2.16-2.56,3.95-2.54Z"/>
          <path class="cls-2" d="M343.43,78.75l3.86-5.72c.44.61,1.09,1.44.73,2.16.52-1.02-4.14,6.83-4.59,3.56Z"/>
          <path class="cls-1" d="M286.4,115.8c-.96-.84-2.95-.9-2.73-2.85,1.34.64,3.02.8,2.73,2.85Z"/>
          <path class="cls-1" d="M287.52,127.67c-1.5-.11-2.68-1.15-2.95-2.63,1.34,1.13,2.27.47,2.95,2.63Z"/>
          <path class="cls-2" d="M365.29,40.97c-.07,1.97-1.78,1.94-2.74,2.92.11-1.54,1.22-2.72,2.74-2.92Z"/>
          <path class="cls-1" d="M293.56,136.84l-.04-4.01c.84.55,2.58.91,2.07,2.44-.24.7-1.29,1.35-2.02,1.57Z"/>
          <path class="cls-1" d="M310.87,114.08c.11,1.57-1.14,2.36-2.46,2.77-.05-.74-.15-1.66.22-2.39.43-.84,1.5-.58,2.24-.38Z"/>
          <path class="cls-1" d="M282.63,128.95c-1.79.44-2.14-1.26-3-2.22.72-.08,1.55-.17,2.34.2.75.35.54,1.32.66,2.02Z"/>
          <path class="cls-2" d="M323.75,57.98c-.11.7-.29,1.4-.76,2.03-.29.4-.7.57-1.22.21.03-.46-.27-1.05-.09-1.65.24-.82,1.34-.69,2.07-.59Z"/>
          <path class="cls-1" d="M296.79,118.85l-1.53-.2c-.69-.09-.79-1.17-.65-1.9.27.28,1.02.15,1.43.39.56.34.9.96.76,1.7Z"/>
          <g>
            <path class="cls-2" d="M124.18,183.62c-1.38-1.07-1.23-1.77-2.15-2.94.75-.12,1.54.12,1.86.72.39.75.37,1.52.3,2.22Z"/>
            <path class="cls-2" d="M44.35,117.71c-.65-.01-1.56.23-1.99-.49-.24-.4-.19-1-.26-1.39.45-.02.93.04,1.41.24.6.25,1.49.87.84,1.64Z"/>
            <path class="cls-2" d="M58.05,44.89c.14,1.73-8.92-1.27-5.44,2.23,2.8,2.82,6.91,1.05,7.6,5.69-.59.15-1.37.23-1.78.95-.47.8.54,1.62.81,2.24,0,3.24,1.88,7.64,5.25,9.42,4.84,2.56,8.36,6.2,12.64,9.32,3.73,2.72,7.33,5.29,7.88,9.91-5.27-.12-7.69-4.44-11.83-1.74-6.11-3.67-10.63-9.76-18.51-13.58-1.44,2.78.16,4.99,2.23,6.8l12.86,11.27c5.51,4.83,10.94,9.24,18.32,11.64,1.82.59,1.18,3.7.49,4.77-.89,1.39-2.75,1.27-4.36.91l-13.1-2.97c.32-.81-.03-1.37-1.2-1.66-17.08-4.11-6.67-4.32-14.29-9.69-14.24-10.02-14.78-20.81-22.18-22.1-2.2,1.48.77,4.82.93,6.59-2.96,1.26,11.45,14.58,10.85,16.92-5.2,2.03-19.89-17.02-14.73-24.11-2.57-6.88-7.4-10.03-9.71-15.56-2.25-.3-3.89.7-5.72.7-2.02-10.11-6-20.14-4.4-31.26,5.05,3.92,7.88,8.68,12.88,11.13,9.16,4.51,18.64,7.86,28.64,10.3,2.26.55,4.7.01,5.87,1.86ZM45.26,74.33l4.68-8.64c.64-1.18,4.86-2.57,2.64-4.13-2.99-.96-5.77,3.08-7.77,5.08-.51.51-3.09-.61-3.17.66-.14,2.37,1.51,5.18,3.62,7.03ZM70.87,94.63c-2.11-4.23-6.05-5.99-9.53-9.08-1.55-1.38-5.23-6.11-6.72-2.74-1.25,2.83,4.34,2.94,5.33,4.24,1.38,1.8,2.75,4.05,5.14,5.11,1.72.76,2.34,4.37,5.78,2.46ZM73.3,97.12c-.89,1.22.26,2.12,1.25,1.81.41-.13,1.15.3,1.52-.54.32-.72-.14-1.52-.55-1.48-.63.07-1.82-.34-2.21.2Z"/>
            <path class="cls-2" d="M152.76,147.68c.5,2.5-1.22,2.5-2.89,4.12l-20.48,19.78-10.86-13.27c-3.55-4.34-7.67-8.68-10.66-13.5-1.46-2.35-1.26-3.59-4.08-5.03-3.36-1.72-3.98-6.95-6.98-9.1,1.56.04,4.9.38,5.8,2.66,1.58,4.02,5.55,5.93,7.61,8.82,1.52,2.13,1.32,3.95,4.03,5.79,2,1.36,3.19,5.03,5.57,7.01,1.59,1.31,1.46,6.48,5.31,4.59.85-.42.91-3.07,2.25-2.82.95.18,3.23.44,3.39,2.34l-2.62,2.62c-.86.86-.29,3.52.71,5.23,3.24-2.66,6.74-4.61,10.53-8.43l-18.38-18.69c-1.68-1.71-3.32-3.08-4.99-4.98l-9.81-11.16c-.1-.12-8.55-7.85-9.65-7.81-2.04.08-2.81,6.96-6.73,6.14-1.03-2.35,6.15-8.68,7.21-10.02.41.7,1.09,1.21,1.68,1.32,2.72.52,2.85-4.08,5.84-4.56,1.37-.22,3.46.52,4.51,1.9,3.41,4.48,8.47,6.26,12.39,9.74,3.03,2.69,5.52,5.64,8.71,8.32l9.78,8.2c4.42,3.71,8.58,7.39,12.8,10.78ZM149.92,148.3c0-.28-.22-.5-.5-.5s-.5.22-.5.5.22.5.5.5.5-.22.5-.5Z"/>
            <path class="cls-1" d="M45.22,91.81c9.32,8.76,20.58,13.87,32.91,17.1.68,2.99-7.01.69-9.34,2.82l3.42,2.11c-4.94.61-9.37-1.14-14.29-2.84-24.85-8.59-38.11-34.42-42.86-58.16,1.84,0,3.47-1.01,5.72-.7,2.31,5.52,7.14,8.68,9.71,15.56-5.16,7.09,9.53,26.13,14.73,24.11Z"/>
            <path class="cls-1" d="M96.8,130.68c-2.96-1.08-5.75-5.92-6.96-8.69,3.92.81,4.68-6.06,6.73-6.14,1.1-.04,9.54,7.69,9.65,7.81l9.81,11.16c1.66,1.89,3.3,3.27,4.99,4.98l18.38,18.69c-3.79,3.81-7.29,5.77-10.53,8.43-1.01-1.71-1.57-4.37-.71-5.23l2.62-2.62c-.17-1.9-2.45-2.16-3.39-2.34-1.34-.25-1.4,2.4-2.25,2.82-3.85,1.89-3.73-3.27-5.31-4.59-2.38-1.97-3.57-5.65-5.57-7.01-2.71-1.84-2.51-3.66-4.03-5.79-2.06-2.89-6.03-4.79-7.61-8.82-.9-2.28-4.23-2.62-5.8-2.66Z"/>
            <path class="cls-1" d="M179.75,174.07c-2.76,2.63-4.37,5.93-7.07,8.44-5.26,4.88-9.65,10.15-14.54,15.33-.97,1.03-2.48.91-3.46.64-.65-.18-.73-1.83-1.43-2.25-3.9-2.34-7.47-4.25-9.12-8.98,5.15-4.07,8.66-9.72,13.93-13.29-.16.56.11,1.4.55,1.48.54.1,4.42-1.95,4.68-3.4.12-.64.01-1.56-.45-2.25.94-.58,1.43-3.78,3.01-3.05,3.8,2.65,4.09-3.08,7.41-2.74,1.2.12,1.69,2.03,2.84,2.55.76-.21.99-2.79,2.98-1.56-1.75,2.72-2.16,11.23.66,9.08ZM176.72,175.74c0-.47-.38-.86-.86-.86s-.86.38-.86.86.38.86.86.86.86-.38.86-.86Z"/>
            <path class="cls-4" d="M115.14,106.99c-.23,1.97,1.53,2.01,2.81,2.62,3.12,1.49,34.75,27.16,39.24,32.15,2.21,2.36-3.69,5.03-4.43,5.93-4.22-3.39-8.37-7.07-12.8-10.78l-9.78-8.2c-3.2-2.68-5.68-5.63-8.71-8.32-3.92-3.48-8.98-5.26-12.39-9.74-1.05-1.38-3.13-2.12-4.51-1.9-2.99.48-3.12,5.08-5.84,4.56-.59-.11-1.28-.63-1.68-1.32,2.79-3.55,5.34-8.94,9.88-10.77,3.42-.06,5.58,4.58,8.22,5.78Z"/>
            <path class="cls-4" d="M63.22,56.25c2.7,3.78,7.47,4.97,11.19,8.49,7.32,6.91,13.81,15.89,17.87,24.64l-2.14.35-5.13-5.09c-.55-4.62-4.15-7.2-7.88-9.91-4.28-3.11-7.8-6.76-12.64-9.32-3.37-1.78-5.25-6.18-5.25-9.42,1.32.19,2.65.28,3.98.25Z"/>
            <path class="cls-4" d="M97.96,74.79c-2.72.15,2.34,9.76-1.86,8.31-.47-.98-1.09-2.27-1.39-3.27.08-1.33.39-3.01-.58-4.44-.49-.73-1.83-1.06-2.92-1.34-.2-.64-1.25-1.1-1.28-1.89-.02-.66.16-1.62-.48-2.06-.41-.29-1.04-.19-1.45-.14l-.88-.97c.04-.72.13-1.54-.21-2.34s-1.33-.53-2.01-.65c-1.77-.32-2.55-2.47-4.01-3.18.4-1.71.59-3.11-.11-4.05-1.38-1.87-4.05-2.23-5.39-3.09.77-.99,2.65-2.83,1.55-4.75,10.36,4.07,17.32,13.48,21.02,23.87Z"/>
            <path class="cls-2" d="M157.77,151.94c-.97,7.52-12.58,12.84-6.04,13.99-.31,1.82-1.31,2.59-2.53,2.76.11-.88-.83-1.99-1.6-1.69-.61.24-1.79,1.17-1.45,2.07.17.45,1.55.43,1.8.73-1.8,3.9-6.27,4.83-8.6,8.35-.75,1.13-13.11,5.12,14.42-22.56,1.42-1.42,1.98-3.59,4-3.66Z"/>
            <path class="cls-1" d="M71.12,101.75c-3.78-.86-7.77-.97-11.08-3.88-2.97-2.61-6.64-4.53-9.42-7.43l-11.72-12.24c-1.45-1.52-2.42-3.55-4.53-3.31-.15-1.77-3.12-5.11-.93-6.59,7.4,1.29,7.95,12.09,22.18,22.1,7.63,5.37-2.78,5.58,14.29,9.69,1.17.28,1.52.85,1.2,1.66Z"/>
            <path class="cls-2" d="M179.75,174.07c-2.83,2.16-2.41-6.35-.66-9.08-1.99-1.23-2.22,1.34-2.98,1.56-1.15-.52-1.64-2.43-2.84-2.55-3.32-.34-3.62,5.39-7.41,2.74,2.15-3.47,6.25-9.38,10.58-7.84s6.52,6.46,10.4,8.43l-7.08,6.74Z"/>
            <path class="cls-2" d="M76.95,50.91c1.1,1.91-.78,3.76-1.55,4.75,1.34.86,4.01,1.22,5.39,3.09.7.94.51,2.34.11,4.05-5.61-2.75-10.72-7.02-16.9-7.95-.53-.63-1-1.49-1.77-1.89,3.16-2.91,7.78-1.81,11.99-1.29-.07-2.63-2.19-1.33-3.25-1.95-.5-.29-.94-.9-.78-1.7,2.16,1.01,5.6.13,6.77,2.89Z"/>
            <path class="cls-1" d="M85.01,84.65l5.13,5.09c.21,1.7.17,3.42-.05,5.13-6.54-1.43-13.03-6.91-16.9-11.95,4.14-2.71,6.55,1.61,11.83,1.74Z"/>
            <path class="cls-4" d="M155.96,161.74c-.71-.16-1.64-.06-1.9.62-.21.55-.18,1.1-.14,1.55-.61.69-1.27,1.71-2.19,2.03-6.54-1.15,5.07-6.48,6.04-13.99,1.35-1.79,2.28-3.57,4.22-4.35,2.15-.86,3.98.94,4.41,2.64s-1.31,2.45-2.52,3.65l-7.92,7.86Z"/>
            <path class="cls-4" d="M58.05,44.89c4.18.59,8.34,1.38,12.12,3.14-.15.8.29,1.41.78,1.7,1.06.62,3.18-.68,3.25,1.95-4.2-.52-8.82-1.61-11.99,1.29-.56-.29-1.42.04-2.01-.15-.68-4.64-4.8-2.88-7.6-5.69-3.48-3.5,5.58-.51,5.44-2.23Z"/>
            <path class="cls-2" d="M96.1,83.09c4.2,1.45-.86-8.16,1.86-8.31,1.68,4.73,3.68,9.8,2.48,15.38-3.17-1.91-3.27-4.82-4.35-7.07Z"/>
            <path class="cls-2" d="M72.21,113.85l-3.42-2.11c2.33-2.13,10.02.16,9.34-2.82,1.67.44,4.14-.75,5.31,1.91-3.52,3.05-7.56,2.57-11.23,3.02Z"/>
            <path class="cls-2" d="M92.28,89.39c1.15,1.02,4.32,2.69,2.28,5.04-.74.85-3.39.67-4.48.43.22-1.7.26-3.42.05-5.13l2.14-.35Z"/>
            <path class="cls-2" d="M162.84,169.79c.47.69.57,1.6.45,2.25-.26,1.45-4.15,3.5-4.68,3.4-.44-.08-.71-.92-.55-1.48,2.15-1.46,2.39-3.97,4.78-4.17Z"/>
            <path class="cls-1" d="M60.21,52.81c.59.2,1.46-.13,2.01.15.76.39,1.23,1.26,1.77,1.89l-.76,1.4c-1.33.03-2.66-.06-3.98-.25-.27-.62-1.28-1.44-.81-2.24.42-.71,1.19-.8,1.78-.95Z"/>
            <path class="cls-2" d="M94.7,79.82c-1.86-1.34-2.83-3.59-3.5-5.78,1.09.28,2.43.61,2.92,1.34.97,1.43.65,3.11.58,4.44Z"/>
            <path class="cls-4" d="M149.2,168.7c-.63.52-1.11.89-1.25,1.12-.25-.3-1.63-.28-1.8-.73-.34-.9.84-1.83,1.45-2.07.77-.3,1.71.8,1.6,1.69Z"/>
            <path class="cls-2" d="M117.95,109.61c-1.28-.61-3.04-.65-2.81-2.62,1.24.56,2.76.87,2.81,2.62Z"/>
            <path class="cls-2" d="M87.12,68.97c-1.32-.44-2.28-1.57-2.22-2.99.68.12,1.69-.12,2.01.65s.24,1.62.21,2.34Z"/>
            <path class="cls-2" d="M89.93,72.15c-.76.27-1.37-.15-1.64-.77-.21-.47,0-1.11-.29-1.44.41-.04,1.04-.14,1.45.14.64.44.46,1.4.48,2.06Z"/>
            <path class="cls-2" d="M155.96,161.74c.13,2.05-1.58,1.65-2.04,2.17-.04-.44-.07-1,.14-1.55.26-.67,1.19-.78,1.9-.62Z"/>
            <path class="cls-1" d="M45.26,74.33c-2.11-1.85-3.76-4.66-3.62-7.03.08-1.27,2.66-.15,3.17-.66,2-2,4.78-6.04,7.77-5.08,2.22,1.56-2,2.95-2.64,4.13l-4.68,8.64Z"/>
            <path class="cls-1" d="M70.87,94.63c-3.44,1.9-4.06-1.7-5.78-2.46-2.39-1.06-3.76-3.3-5.14-5.11-.99-1.3-6.58-1.41-5.33-4.24,1.49-3.37,5.17,1.36,6.72,2.74,3.48,3.09,7.42,4.85,9.53,9.08Z"/>
            <path class="cls-1" d="M73.3,97.12c.39-.54,1.58-.13,2.21-.2.41-.05.87.76.55,1.48-.37.84-1.11.41-1.52.54-.98.31-2.14-.59-1.25-1.81Z"/>
            <circle class="cls-4" cx="149.42" cy="148.3" r=".5"/>
            <circle class="cls-2" cx="175.86" cy="175.74" r=".86"/>
          </g>
          <path class="cls-1" d="M361.63,63.05c.36-1.56.65-3.33.83-4.93,1.52-.11,1.86-1.78,3.21-3.21,3.53,3.17-2.35,8.79-2.63,8.85-.43.08-.94-.42-1.41-.7Z"/>
          <path class="cls-2" d="M359.39,70.82c-.17.66.08,1.45-.38,2.16-.49.75-1.49,1.03-2.44,1.02.48-1.53.92-2.95,2.82-3.18Z"/>
        </g>
      </g>
    </g>
  </g>
</svg>