<?xml version="1.0" encoding="UTF-8"?>
<svg id="Layer_2" data-name="Layer 2" xmlns="http://www.w3.org/2000/svg" viewBox="0 0 370.61 421.18">
  <defs>
    <style>
      .cls-1 {
        fill: #2a352a;
      }

      .cls-2 {
        fill: #c0ed08;
      }

      .cls-3 {
        fill: #bdcabc;
      }

      .cls-4 {
        fill: #404b42;
      }

      .cls-5 {
        fill: #9aa698;
      }
    </style>
  </defs>
  <g id="Layer_1-2" data-name="Layer 1">
    <g>
      <path class="cls-3" d="M63.24,398.15c.65.09,1.33,0,2,0h3.99l14.93.08c.73,0,1.51.13,1.16.76-2.85,2.52-22.52.91-27.06.16v-1c1.5.32,3.43-.21,4.99,0Z"/>
      <path class="cls-3" d="M20.31,393.28c-2.91-1.41-6.5-2.08-6.78-5.85l1.2.3,5.58,5.55Z"/>
      <path class="cls-3" d="M242.2.86c.65-1.32,2.66-.86,3.52-.35.63.37,1.47,1.28.47,2.41-.59.67-1.59,1.38-2.69.75-.64-.36-2.06-1.28-1.3-2.81Z"/>
      <path class="cls-3" d="M36.44,399c-2.43-.25-7.48,3.07-8.19-1.87,2.53,1.23,5.65.7,8.19,1.87Z"/>
      <path class="cls-3" d="M22.22,19.85c-1.31.63-2.31,1.7-3.11,2.9-.31-1.17-.22-2.24,1.1-3.42.6-.53,2.01-1.65,2.01.52Z"/>
      <path class="cls-3" d="M3.37,359.23c.03.59.22,1.19.21,1.78,0,.47-.33.92-.36,1.39-1.88.63-1.82-1.39-2.03-2.69-.17-1.04,1.21-1.83,1.25-2.68.8.42.88,1.37.93,2.19Z"/>
      <path class="cls-3" d="M3.27,348.07l.13,4.3-.95.17c0-.83-1.55-1.63-1.25-2.77.27-1.03.66-2.34,2.07-1.7Z"/>
      <path class="cls-3" d="M202.12,396.3c.59,1.27-.55,1.93-1.67,1.93s-2.25-.66-1.67-1.93c1.06-.15,2.27,0,3.33,0Z"/>
      <path class="cls-3" d="M119.22,397.24c.68.67-.09,1.77-.66,1.87-.87.15-1.9.28-2.44-.44-.32-.42-.59-.92-.17-1.43,1.09,0,2.18-.09,3.27,0Z"/>
      <path class="cls-3" d="M4.59,366.12l-.32,2.26c-.61-.12-1.36-.29-1.71-.86-.45-.72.89-1.06.89-1.52l1.15.12Z"/>
      <path class="cls-3" d="M10.46,384.2c-.32-.29-1.42.3-1.84-.48-.22-.41.53-1.15.66-1.57,1.03,0,1.02,1.29,1.17,2.05Z"/>
      <circle class="cls-3" cx="238.37" cy="1.48" r=".5"/>
      <g>
        <path class="cls-1" d="M353.54,17.99c.91.63,2.7.89,3.19,2.09-.31,1.6.98,2.61,3.34,2.88.84,1.87-1.91,2.76-2.11,4.34-.38,2.96,1.16,6.44,3.61,8.71,1.59-1.85,1.93-4.06,3.98-4.21.37,1.61,1.63,3.06,1.29,4.85-.14.71-.34,1.59.36,2.25.38.36.92.62,1.41.16l.13,1.68c-1.26.03-1.09,1.63-1.22,2.65-.13,1.11.73,2.18,2.03,1.65-.05.55.01,1.42.08,1.94-.74,1.64-1.36,3.35-2.9,4.38,1.75,1.18,2.43,2.4,3.85,2.53,0,.6.04,1.22.04,1.82-.94-.58-1.72.31-1.9.91-.21.71-.62,5.19.48,6.22.29.28.91.5,1.42.12v5.78c-2.34-.51-2.25,2.06-2.09,3.61.13,1.27-.24,3.17,1.23,3.63-.94,3.01-.94,6.25-3.02,8.83-1.08-.12-2.03.35-2.42,1.24-.45,1.03-.47,2.04-.5,3.02,0,.28-.02.75-.16.98-1.24.27-2.11,1.22-4.3.76.59-3.11,2.46-5.73,4.41-8.27.16-2.37-2.4-2.38-2.35.04-.12,1.41-.44,1.87-1.27,1.33-.43-.28-1.31-1.3-1.81-1.32,2.11-5.22,3.28-10.57,3.19-16.74l-.19-12.71c-.02-1.51,1-3.19-.01-5.05-.29-.53-1.49-.05-1.83-.09-.06-.48,0-1.48.23-1.9,1.53-2.44.87-7.44-2.07-8.38-.24-1.19-.5-2.39-.53-3.61-.01-.63-.04-1.26-.25-2.01-.24-.88-1.64-.56-2.14-1.03-1.71-1.7-3.5-4.02-6.08-5.01-3.3-1.27-5.79.48-6.78,3.02-.48,1.22-2.15,2.25-2.19,3.76-.32.28-1.57-.03-1.88.72-.28.66.67,1.16.86,1.59-.23,2.03-1.17,4.46-1.13,6.57-.67.11-1.42.35-1.74.94-.54.99.44,1.86.94,2.47-1.09,6.76-1.45,13.95-1.44,20.82-4.43,2.32.04,10.64-2.28,17.27-.27.78-.43,1.38-.3,2.02.21,1.01,1.45.26,2.01.56.87.46,1.68,1.21,2.77,1.11.06.53.11,1.02.25,1.37.21.55.74.81,1.36.51.52-.25.65-1.18.73-1.86l8.93-.28c1.56-.05,3.12,0,4.68-.15.43.91,1.15,1.74,1.15,3.37-4.26-.8-7.68,1.82-8,5.52-.96.31-2.1-.54-2.39-1.12-.48-.98,1.47-1.6,1.52-2.91.03-2.85-2.96-.83-4.52-.81-3.17.06-1.72,3.33-9,7.57,1.21,3.7,1.12,26.01-.82,25.45-1.67-.48-3.07-.81-3.85-1.22-.92-.48-2.36-18.4-1.15-23.49.58-2.44.17-3.58,0-6.16l-.86-12.69c-.17-2.46.77-5.47.19-7.98.48.45,1.01.18,1.5-.16.72-.49.6-1.48.46-2.46-.08-.57-1.15-1.16-1.87-.69l.74-19.62c.03-1.05,1.36-2.14.97-3.4-.25-.83.17-1.79.06-2.64,1.74-1.57,1.64-4.18,1.84-6.38.54-1.4.53-3.87,2.21-4.72.6-.31,1.82.14,1.98-.68.21-1.08-.15-1.89-.24-2.62-.07-.61.22-1.27.36-1.84,1.38-.17,2.74-.97,3.54-1.93,1.78-2.17-4.17-5.34-1.2-7.43.89-.62,2.11,1.01,3.05,1,13.25-.12,1.85,3.65,14.45-.43Z"/>
        <path class="cls-1" d="M138.09,19.96c.61-.43,2.11-.03,2.85-.03-.62,1.88,1.24,2.13,2.63,2.12s3.27-.26,2.66-2.11c1.3,0,2.6.21,3.89.21,2.04,3.19,6.24,2.14,9.97,1.83,2.35-.2,5.21,1.57,6.08-.94.48-.19,1.17,0,1.62-.24-.36.92.8,1.37,1.71,1.13.43-.11.93-.49.68-1.1l6.93.3,4.62,6.05c1.5-1.53,1.73-3.94,3.52-3.98l40.03-.84c-.34,1.94-.58,3.2-.37,3.98.19.69,1.99,1.5,3.59.55,1.41-.84.19-4.28.44-5.73l18.75-.35c-1.81,1.3,11.73,2.33,9.29-.76,3.13.65,6.66-.39,9.86-.15.15,1.19-.06,3.7,1.99,4.53,4.54-4.01,12.3-6.44,16.9-2.49.12,2.26-1.71,5.78,1.16,7.29,3.1-1.89,5.92-5.49,9.97-5.26,1.66.1.23,2.98-.14,3.67l-1.96.28c-.66-.55-3.01-1.44-2.78-.45.43,1.85.2,2.79.83,3.31.09,1.89-.93,4.04-3.01,4.23-.49-2.36-3.26-2.33-5.25-1.99-.77-2.24-3.72-3.17-4.8-4.21-.87-2.28-2.01-6.37-5.91-5.61-1.03.2-.72,2.82-.68,3.73-3.02,1.1-6.03,1.43-9.24,1.9-1.21-1.02-1.51-2.45-3.44-3.3-1.47,1.36-.44,2.86-.68,4.16-.54-.04-1.3-.02-1.82.13-3.52-3.24-12.1,2.72-13.46-4.53-3.2.82-7.13-1.48-10.39.61,3.76,2.47,7.38-.36,11.06,2.4-3.72,1.25-22.44,2.56-25.91.2-1.11.28-2.53,2.02-3.76,1.64-1.5-.46-4.01-.59-3.42-2.98.27-1.09.97-2.12.68-2.63-.52-.92-3.04-.95-3.23.03-.28,1.42.29,2.97-.55,3.99-1.3,1.58-3.19,1.21-5.18,1.04-4.74-.42-9.98,1.66-14.45-.24-2.9-1.23-3.95.12-6.87.2l-9.84.27c-.45.01-.6.67-.57,1.02l-3.01-.02c.63-.7-.06-1.89-1.07-1.88l-10.03.13c-3.34.04-6.28-.46-9.05.44l-1.99-.46c.35-5.22-3.42,1.88-11.45-1.82-1.72-.79-2.98-3.63-3.62-6.16,2.65-1.18,4.47.1,6.2-1.13Z"/>
        <path class="cls-1" d="M332.59,137.66c-.53,3.18-2.01,5.25-5.56,8.04,4.74,2.65,5.56,6.33,5.76,10.9l.79,18.13c.04.9-1.21,1.92-.8,3.01-3.69,2.9.37,4.73-1.62,16.67-.2,1.22-2.26,1.86-2.1,3.02.34,2.54,1.44,4.7.8,6.91-.6.33-1.22,1.89-2.13,1.66-1.5-.38-2.64.45-4.19,1.44-.81-.34-.95-2.74-2.24-2.39-1.12.3-2.04.99-2.61-.25-1.23-2.64,3.67-1.57,3.98-3.62.07-.47-.31-1.15-.09-1.53l1.22-2.1c1.41-.26,2.81-.92,2.95-2.5.12-1.37-.43-2.83-1.87-3.25-.07-1.21-.02-2.65-1.09-3.39.06-1.19.05-2.45.04-3.64.83.59,1.46-.15,1.78-.83-.84,1.79,1.71-26.31-1.83-22.44,0-2.49.59-5.87-.78-8.35-1.01-1.83-3.94-2.53-5.42-3.71,0-.86-.07-1.79-.6-2.56-.5-.71-1.43-.97-2.29-1.06-.38-1.21-1.89-2.51-.98-4.05.93-.43,7.77-1.16,6.28-3.06.8.13,1.79-.56,2.61-.6.92-.04,1.67.41,3.08.52l-1-3.8c-.25-.95.17-2.03.17-3.02,4.02-.12,7.05,1.77,7.74,5.85ZM325.69,145.18c0-.28-.22-.5-.5-.5s-.5.22-.5.5.22.5.5.5.5-.22.5-.5ZM326.8,201.56c0-.61-.5-1.11-1.11-1.11s-1.11.5-1.11,1.11.5,1.11,1.11,1.11,1.11-.5,1.11-1.11Z"/>
        <path class="cls-4" d="M353.54,17.99c-12.6,4.08-1.2.3-14.45.43-.94,0-2.16-1.62-3.05-1-2.97,2.09,2.97,5.26,1.2,7.43-.79.97-2.15,1.76-3.54,1.93.02-.53.01-.98-.29-1.18-1.82-1.17-31.96,1.36-36.66,2.03.36-.69,1.8-3.57.14-3.67-4.05-.24-6.87,3.36-9.97,5.26-2.87-1.51-1.04-5.03-1.16-7.29-4.6-3.95-12.36-1.52-16.9,2.49-2.06-.83-1.84-3.34-1.99-4.53,4.61.34,11.98-2.63,15.76-.85,5.11,2.42,5.8-.16,10.03-.96,12.33-2.34,25.34-1.39,38.05-2.39,8.04-.64,16.54-2.09,22.86,2.28Z"/>
        <path class="cls-4" d="M22.14,36.75c-8.59-1.31-10.44,9.12-11.85,14.91-.11.44-.92.8-.67,1.42.13.33.48.66.6.92l-.07,5.76c-1.73,1.84-.29,3.41.08,5.23.59,2.94-.47,6.25,1.21,8.97l-.17,1.91c-1.07-.24-2.11-.85-3.55-.65-.72,1.99-1.7,3.55-3.44,3.73-.59-.75-.84-2.24-1.23-3.1,1.55-1.49,4.47-2.28,4.85-4.04.57-2.65.97-5.71-1.06-7.51l-5.47,5.61c-4.14-15.6,2.36-29.6,2.17-31.8.81.5,1.31-.21,1.6-.81.22-.43.08-1.08.32-1.44,1.33-1.99,3.22-4.2,4.85-5.85.7.09,1.42-.1,2.01-.65.38-.35.6-.76.21-1.29.96,0,1.92-.09,2.88-.15,1.21,1.34,2.55-.18,3.7-.98.7.13,1.99.02,2.43.87.51,1-.95,2.22-1.19,3.41-.47,2.32,1.79,3.55,1.78,5.53Z"/>
        <path class="cls-4" d="M353.42,86.48c1.16-1.62,2.88-3.52,4.88-3.9.5.02,1.38,1.04,1.81,1.32.84.54,1.15.07,1.27-1.33-.05-2.42,2.51-2.41,2.35-.04-1.95,2.54-3.83,5.16-4.41,8.27,2.19.46,3.06-.5,4.3-.76-3.66,6.01-11.32,8.7-18.57,7.29-3.52-.68-7.23-1.07-10.38.4l-.42,26.99c-.03,2.03-1.66,3.75-.73,6.03,1.12,2.73-.63,5-.95,6.91-.7-4.07-3.73-5.96-7.74-5.85v-41.64c-1.68-3.62-.86-7.1.66-10.2l.86,12.69c.17,2.58.59,3.72,0,6.16-1.22,5.1.22,23.02,1.15,23.49.78.4,2.17.73,3.85,1.22,1.95.56,2.04-21.74.82-25.45,7.28-4.23,5.84-7.51,9-7.57,1.56-.03,4.55-2.04,4.52.81-.05,1.32-2,1.93-1.52,2.91.29.58,1.42,1.44,2.39,1.12.32-3.7,3.73-6.32,8-5.52,0-1.63-.72-2.45-1.15-3.37Z"/>
        <path class="cls-4" d="M228.95,21.16c-.25,1.46.97,4.9-.44,5.73-1.61.96-3.41.14-3.59-.55-.21-.78.03-2.05.37-3.98l-40.03.84c-1.79.04-2.03,2.44-3.52,3.98l-4.62-6.05,51.84.03Z"/>
        <path class="cls-4" d="M46.08,147.7c-1.34-.11-1.56-1.37-1.64-2.95l-1.88-38.04c1.63-1.86,2.95,7.88,1.99,10.4-1.44,3.8,1.9,4.81,3.08,7.21,2.07,4.19-.79,9.88-1.42,14.18-.51,3.53.74,6.44-.13,9.2Z"/>
        <path class="cls-4" d="M113.33,397.23c-5.69,2.22-19.76-.16-28.02,1.76.36-.63-.42-.76-1.16-.76l-14.93-.08c0-.43-.19-1.13.03-1.46.31-.46,1.08-.73,1.96-.63,9.15,1.02,17.82.78,26.94.17.66-.04,17.78-.64,15.17,1Z"/>
        <path class="cls-4" d="M138.09,19.96c-1.73,1.23-3.54-.05-6.2,1.13.64,2.53,1.9,5.37,3.62,6.16,8.04,3.7,11.8-3.4,11.45,1.82-5.38,1.45-11.71,1.11-16.89-.96-.48-3.41-.78-6.84-3.78-8.85,3.89.3,8.08-.97,11.8.71Z"/>
        <path class="cls-4" d="M365.54,31.79c-2.05.16-2.39,2.36-3.98,4.21-2.45-2.28-3.99-5.76-3.61-8.71.2-1.58,2.95-2.47,2.11-4.34-2.36-.27-3.65-1.28-3.34-2.88,4.26,2.06,7.71,6.98,8.82,11.72Z"/>
        <path class="cls-4" d="M334.63,306.45c2.1,6.82.03,14.09,1.23,21.04.3,1.72-.13,2.22-.14,3.8-.43.08-.88-.04-1.13-.29-.41-.42-.23-1.01-.26-1.74l-.87-20.35c-.03-.67-.43-1.19-.3-1.75s.82-.7,1.46-.71Z"/>
        <path class="cls-4" d="M26.2,19.86c.37.45.87,1.04,1.51,1.03.47,0,.76-.51.6-.95,1.89.28,3.89,4.04,2.33,5.15l-4.44,3.16c-2.83-2.62-2.24-5.57-1.69-8.54l1.69.15Z"/>
        <path class="cls-1" d="M3.06,75.86c-.89-1.95-1.14-3.91-1.68-5.93l5.47-5.61c2.03,1.8,1.63,4.86,1.06,7.51-.38,1.76-3.3,2.55-4.85,4.04ZM6.58,69.91c-.26-1.5-2.28-1.5-2.35,0-.11,2.68,2.26,2.68,2.35,0Z"/>
        <path class="cls-4" d="M41.73,26.82c.45,1.2,2.93,2.44,4.04,3.79.87,1.07,2.56-1.54,3.29-1.75,2.14.2,3.44-1.46,5.27-3.02.8-.3,1.51,1.87.33,2.01-1.96.23-2.78,7.25-5.44,6.97-1.99-.63-3.74-3.46-6.45-3.11l-1.05-4.89Z"/>
        <path class="cls-4" d="M92.34,16.84c2.52.93-21.94,3.37-19.02-.9,6.33.07,12.82-.35,19.02.9Z"/>
        <path class="cls-4" d="M166.17,21.04c-.87,2.52-3.73.75-6.08.94-3.73.31-7.93,1.36-9.97-1.83l13.97-.07c1.02,0,1.71.49,2.08.96Z"/>
        <path class="cls-4" d="M44.51,308.46c-.36-4.38.62-8.68.76-13.03,1.13,1.17,2.82.46,4.48,1.69-5.77,1.87,1.57,9.43-5.24,11.34Z"/>
        <path class="cls-4" d="M48.12,168.7c-2.25,2.17-3.1-12.88-2.13-16.04,1.2-2.21,1.95,15.64,2.13,16.04Z"/>
        <path class="cls-4" d="M118.3,18.85c2.84,2.2-22.52.62-18.32-1.79-.11.03,18.67.84,18.32,1.79Z"/>
        <path class="cls-4" d="M335.57,368.31c-.46,4.59-1.15,9.29-3.77,13.07-.74.33-1.21-1.01-.83-1.86,3.31-7.59.57-10.72,4.61-11.21Z"/>
        <path class="cls-4" d="M32.21,97.91c-.04,2.47-2.18,2.97-4.36,2.98-1.81,0-3.51-.08-4.28-1.9,2.63-1.56,5.71-.98,8.65-1.08Z"/>
        <path class="cls-4" d="M20.17,92.56c-3.89,1.96-5.95-1.86-8.65-3.58,3.15.35,7.95-.03,8.65,3.58Z"/>
        <path class="cls-4" d="M43.49,327.41c-.4-2.75.06-5.43.75-8.07.99.05,1.89.45,2.41,1.24,1.64,2.48-.86,5.58-3.16,6.84Z"/>
        <path class="cls-4" d="M49.21,225.43c-.95-2.11-1.66-3.03-1.67-5.85,1.2.32,2.41,1.06,3.11,2.03,1.1,1.51-.12,2.99-1.44,3.82Z"/>
        <path class="cls-4" d="M257,20.05c2.44,3.09-11.1,2.07-9.29.76,2.93-.05,5.94-1.46,9.29-.76Z"/>
        <path class="cls-4" d="M370.57,53.88c-1.42-.13-2.1-1.34-3.85-2.53,1.54-1.03,2.16-2.74,2.9-4.38,1.35,1.97.93,4.58.95,6.91Z"/>
        <path class="cls-4" d="M46.29,274.35c-1.32-1.42-.06-3.26-.04-4.92.94.17,2.05.4,2.43,1.05.51.86.87,2.21.4,3.31-.35.81-2.02.45-2.8.57Z"/>
        <path class="cls-4" d="M370.6,68.72c0,2.71-.11,4.82-.86,7.24-1.46-.47-1.09-2.36-1.23-3.63-.16-1.55-.25-4.12,2.09-3.61Z"/>
        <path class="cls-4" d="M328.61,385.36c-.41,2.7-2.76,4.08-4.76,5.63.2-2.76,2.38-4.48,4.76-5.63Z"/>
        <path class="cls-4" d="M370.61,55.7v7.24c-.52.38-1.13.16-1.43-.12-1.09-1.03-.69-5.51-.48-6.22.18-.6.96-1.49,1.9-.91Z"/>
        <path class="cls-4" d="M69.2,15.95c-.45.71-.79,1.58-1.28,2.26-.38.53-2.12.57-2.32-.02-.22-.65-.23-1.85-.32-2.22,1.32-.02,2.67-1.43,3.93-.01Z"/>
        <path class="cls-4" d="M336.3,353.06v4.41c-1.41.92-2.72-.09-2.52-1.72.18-1.46.76-2.71,2.52-2.69Z"/>
        <path class="cls-3" d="M18.96,25.01c.04.65-.14,1.31.17,1.94-1.15.81-2.48,2.32-3.7.98.91-1.34,1.6-4.16,3.53-2.92Z"/>
        <path class="cls-4" d="M146.23,19.94c.61,1.86-1.28,2.11-2.66,2.11s-3.25-.24-2.63-2.12h5.29Z"/>
        <path class="cls-4" d="M45.41,291.37c.03-.89.21-1.93.11-2.83l3.52,1.2c1.65.56-2.36,1.63-3.63,1.63Z"/>
        <path class="cls-4" d="M336.3,346.06c-.12,1.08.02,2.26.04,3.36-.57.09-1.3.19-2.17-.18-1.26-.54,1.32-3.49,2.13-3.18Z"/>
        <path class="cls-4" d="M45.09,315.18c-.23-.52.22-1.44-.08-1.91.78-.11,1.69-.32,2.56.07s2.08,1.25,1.55,3.14c-1.77-.55-2.75-1.32-4.04-1.3Z"/>
        <path class="cls-4" d="M366.72,84.8c-1.02,1.27-.33,4.66-2.92,4.26.03-.99.05-1.99.5-3.02.39-.88,1.34-1.35,2.42-1.24Z"/>
        <path class="cls-4" d="M369.53,45.03c-1.3.53-2.16-.54-2.03-1.65.12-1.02-.05-2.62,1.22-2.65,1.07,1.2.93,2.8.81,4.3Z"/>
        <path class="cls-4" d="M39.51,96.74c.22.94-1.08,1.02-1.71,1.03s-1.89-.13-1.67-1.07c.47-.15,1.02-.89,1.67-.9.75,0,1.15.78,1.71.94Z"/>
        <path class="cls-4" d="M313.84,396.31c-.84,1.63-2.24.11-3.12.14-.27-1.13.53-1.43,1.5-1.37.79.05,1.84.15,1.63,1.23Z"/>
        <path class="cls-4" d="M51.24,178.71l.03-3.2c.27.25,1.11.07,1.46.23.75.33.65,1.49.5,2.36-.13.72-1.51.31-1.99.61Z"/>
        <path class="cls-4" d="M335.69,337.19c0,.74-.19,2.39,0,3.16-.49.31-1.11.22-1.54-.08-.74-.53-.62-1.61-.44-2.46.14-.67,1.29-1.06,1.97-.61Z"/>
        <path class="cls-4" d="M46.09,151.66c.11-.98.19-1.97.19-2.96.75.12,2.61,1.47,1.98,2.47-.52.83-1.57.48-2.17.49Z"/>
        <path class="cls-4" d="M98.34,17.06c.43.52.15.97-.16,1.39-.38.51-.94.81-1.48.48-.66-.41-1.32-1.32-.71-1.98.77.1,1.58.09,2.35.1Z"/>
        <path class="cls-3" d="M28.24,18.94l.08,1c.16.44-.14.95-.6.95-.64,0-1.14-.59-1.51-1.03.4-.85,1.29-.75,2.04-.92Z"/>
        <path class="cls-4" d="M170.18,20.83c.25.62-.25.99-.68,1.1-.91.24-2.07-.21-1.71-1.13.46-.25.84-.82,1.43-.6.37.14.69.48.96.63Z"/>
        <path class="cls-3" d="M12.55,28.08c.39.53.17.94-.21,1.29-.59.55-1.31.75-2.01.65.24-.51-.11-1.71.65-1.94.59-.18,1.13,0,1.57,0Z"/>
        <path class="cls-3" d="M5.48,35.87c-.24.36-.11,1-.32,1.44-.3.6-.79,1.31-1.6.81-.06-.65-.36-1.72.35-2.15.47-.28,1.17-.08,1.58-.1Z"/>
        <path class="cls-4" d="M368.6,39.06c-.48.46-1.03.21-1.41-.16-.7-.66-.49-1.55-.36-2.25.85-.79,1.4.3,1.57.91.16.56.16,1.04.2,1.5Z"/>
        <path class="cls-4" d="M50.29,173.71c-.81.44-1.6-.09-1.86-.72s.01-1.19-.14-1.64c.55-.4.92,0,1.21.26.73.65.54,1.46.78,2.1Z"/>
        <path class="cls-4" d="M45.98,283.39c-.04-.55-.41-1.44,0-2,1.86-.22,1.85,2.23,0,2Z"/>
        <path class="cls-4" d="M47.28,247.62c0-.91.78-1.58.89-2.34.65-.27,1,.34,1.1.72.22.83-.1,1.21-.52,1.48-.54.35-1.01.57-1.48.14Z"/>
        <path class="cls-4" d="M47.24,255.47v-2.06c.48-.25.95-.18,1.51.02.37.14.73.68.54,1.49-.14.58-1.42.44-2.05.55Z"/>
        <path class="cls-4" d="M317.9,395.13c-.72.07-1.36,1.26-2.3,1.03-.35-.46-.18-.92.07-1.49.18-.4.82-.67,1.46-.53.38.09.97.33.77.99Z"/>
        <path class="cls-4" d="M48.93,183.29c.16.42.33.99.24,1.68-.08.58-.99,1.4-1.75.8,0-1.54.65-1.73,1.51-2.48Z"/>
        <path class="cls-3" d="M325.46,49.05l1.06.02-.74,19.62c-.04,1.06-.33,2.27-.09,3.3.58,2.5-.35,5.52-.19,7.98-1.51,3.1-2.34,6.58-.65,10.2v41.64c0,.99-.43,2.07-.18,3.02-.85.98-1.57,2.08-2.09,3.28-.82.04-1.8.73-2.61.6-2.63-.61-4.93.75-6.28,3.06-.9,1.54.6,2.84.98,4.05.55,1.76,1.51,2.52,2.89,3.61,1.48,1.17,4.41,1.88,5.42,3.71,1.37,2.48.78,5.87.78,8.35l.05,23.28c0,1.19.01,2.45-.04,3.64-.02.51-1.2.95-1.03,1.69s.71,1.3,1.1,1.77l-.05,5.68-1.22,2.1c-3.57,1.07-6.78,3.18-9.63,5.54-1.3,1.07-2.78,1.67-2.45,3.86.83,5.58,11.67,6.11,13.18,9.42.07.83.08,1.91,1,2.23l.15,1.75c-2.37,3.31-.22,7.65-.2,11.23l.08,15.64v2.26s0,3.71,0,3.71l.12,3.32c.03.97.19,1.99.14,2.96-.08,1.39-.44,2.95.67,4.03-.91,2.48-.83,5.12-.89,7.73-.05,2.09.08,4.16.09,6.24l.02,5.64c.03,7.08.97,14.37.96,21.2l-.02,8.77.04,1.32v2.65s.06,2.38.06,2.38c.03.6.11,1.21.1,1.82-.04,7.02.72,14.07.71,20.97l-.02,8.8c0,.71.02,1.55,0,2.27-.11,4.25.25,8.55-.89,12.67-.2.72.07,1.55-.07,2.28l-.15.98c-2.25.47-1.7,3.28-2.56,4.9l-3.2,6-.15,1c-.33.04-.66.05-.99,0-3.37,3.98-2.32-20.11-2.23-21.14.35-3.86-.65-7.84-.73-11.87-.06-2.81-2.96-4.35-4.51-6.57l-4.06,4.3c1.04-1.47-.37-2.78-.79-3.87.2-3.52,2.63-5.49,3.65-8.73,5.8-.68,4.29-18.15-.48-19.81l-4.45-6.38c-1.2-4.83.82-10.36-3.05-14.44-14.77-15.55-16.94-2.51-27.69-14-4.41-4.71-12.6-7.28-18.54-4.15-3.99,2.11-6.8,7.91-11.95,7.57-11.65-.79-23.71,5.62-24.64,18.29-.32,4.32-.45,7.25-3.92,10.38-9.58,8.65-2.2,18.93-7.13,18.56-.09-1.05-1.64-.82-2.4-.89-.53-.05-1.08.09-1.62,0h-2.37s-3.65-.04-3.65-.04c-2.44-.02-4.88-.15-7.32.03-.99.07-2.01.23-3,.23l-71.7-.14c-.59,0-1.2-.04-1.79-.05l-3.33-.07c-2.64-.06-5.25.1-7.87.12-3.66.03-7.39.33-10.97-.02l-2.78-.28c-1.96-1.91-4.76-.48-7.32-.56-4.96-.16-9.63-1.19-13.96.52-2.49.98-6.01-.72-8.58-.07l-.07-1.03c1.02-.06,3.81-.1,3.79-1.84-.11-8.15.68-15.76.76-23.85l.45-43.97c.05-4.54.69-8.99,1.54-13.28.48-2.45,2.7-4.32,2.18-6.69,1.97-.35,3.5-3.2,4.15-4.67.98-2.23-1.82-4.12-3-5.24-1.09-1.02-1.27-2.42-4.29-2.03,1.01-2.25,1.46-5.08.92-8-1.5-8.12-.78-30.04,1.49-35.19,2.8-6.36-1.51-11.91-1.95-17.94l-4.45-61.55-.6-14.05c-.46-10.75-.62-21.05-.1-31.75.34-6.85,2.93-14.86,9.71-17.32,9.35-3.38,19.41-1.64,29.09-1.08,7.39.42,14.36-.31,21.61.66,6.31.84,12.49.66,18.92.86l34.72,1.1c15.09.48,34.87.51,50.07.08l35.88-1.01c8.21-.23,16.93-1.09,24.74.39,5.77,1.09,10.48-1.18,16.12-2.35,6.86-1.42,14.03-.54,21.02-1.46,5.73-.76-1.86,10.06,3.26,10.16ZM187.08,57.38c-1.61-.09-3.46.97-5.09.48-.87-.27-1.48-1.35-2.49-1.18-1.21.21-2.36.95-1.69,2.16l-2.64.12c.22-1.14-.91-1.09-1.67-1.18-1.19-.13-2.21.78-1.65,1.98l-9.64,2.02c-.89-.6-2.04-.78-3.01-.36-1.26.54-2.16,1.13-2.23,2.44-.56.3-1.48.47-1.88,1-1.16-.21-2.42-.12-3.04.98-.24.42-.84.63-1.01,1.12-.38.01-.77.35-1.15.33-1.89-.1-2.73,1.12-3.68,2.41-2.22,3.02-6,4.54-8.93,7.32-11.3,10.75-18.55,24.61-20.2,39.69-.77,6.99-2.18,14.58,1.03,20.87.12.46.25,1.46.13,1.94-.24.94.78,1.61.8,2.37.05,2.17,2.86,5.2,1.73,7.58-1.91,4.06-.91,7.82-1.77,11.32-1.12,4.56,1.39,7.38,3.94,10.82,1.78,2.41,3.12,3.92,5.31,5.96,5.16,4.8,11.5,9.16,18.62,10.62-.18,1.94.09,3.84,1.18,5.39.12,1.55.09,3.53,0,5.12-.11,1.94-.06,3.84-.01,5.78.03,1.34.36,2.06.85,3.22.37.88.94,2.15,1.39,2.92.33,1.68,1.04,2.16,2.63,2.73.95.34,1.71,1.46,2.92,1.38-.23,2.81,5.72,1.73,9.35,1.82.93.02,1.96-.19,2.88-.06,12.21,1.78,24.94,1.48,37.87.89l10.28-.47c6.01-.28,11.61-4.05,12.88-9.95s.48-12.09.01-18.06c3-1.53,6.61-1.42,7.87-3.91,7.16-1.03,13.98-7.94,18.78-13.31.61-.13,1.61-.12,1.93-.74.41-.8.1-1.6.16-2.3.06-.61-.23-1.54.01-2.09.73-1.5,1-3.09,1.11-4.74.03-.49.88-1,.87-1.65-.02-.69-.85-1.15-.89-1.68l-.23-3.63c-.07-1.07.55-2.86-.75-3.34-.8-10.81,2.78-6.37,3.04-17.69.04-1.55,1.79-3.42.71-5.27-.22-.37,0-1.22,0-1.66.17-8.54-.01-17.49-3.75-24.99,2.26,4.54-4.9-16.16-8.9-15.25-.21-1.02-.61-1.99-1.22-2.83-.3-.41-.66-.85-1.14-1.05-.24-.1-.61-.14-.87-.15-.13-1.63-1.28-2.76-2.68-3.45-.49-.24-1.2-.95-1.52-1.39-.52-.71-.91-1.42-1.73-1.85-.45-.23-.67-.87-1.09-1.16-1.58-1.09-2.91-2.64-4.86-2.95-.35-1.09-1.55-1.84-2.15-2.75-.19-.35.29-1.42.4-1.81.3-1.08-.54-1.43-1.81-1.62-.61-.09-1.03,1.18-1.75,1.34-1.15.27-2.45-.52-3.58-.59-.04-2.19-2.38-2.14-3.95-2.65-4.02-1.29-8.08-3.42-12.35-3.78-.04-.47.35-1.27-.02-1.59-2.61.05-22.89-3.58-21.67-.99ZM184.81,239.36l-45.64.32c.18-.56-.16-1.04-.61-1.2-.85-.29-1.93.2-1.64,1.1h-6.67c.23-.6-.22-.96-.67-1.11-.9-.29-1.86.26-1.6,1.15h-3.73c.22-.6-.19-1.01-.65-1.15-.85-.26-1.96.18-1.67,1.08-8.06.18-16.15-.5-24.78.26-1.81.16-1.8,3.71-1.68,5.01.14,1.42,1.36,3.56,3.75,3.57l80.36.25c13.55.04,26.44-.7,39.86.17,5.69.37,11.05.38,16.29-.33.96-.13,2.26-.32,4-.29l21.09.38c6.41.12,12.5.8,18.88-.32,1.72-.3,2.23-2.7,2.23-4.69,0-.84-1.15-1.66-1.16-2.94l-.02-1.65c-.02-1.11-1.42-.34-2.3.59l-69.49-.27c-7.77-.03-14.84-.5-22.83.05.39-.43.21-.86-.15-1.38-.42-.62-.61-.62-1.04,0-.36.52-.55.94-.15,1.37ZM100.16,273.3c1.37-.3,3.81.31,4.99-.6,5.16,1.57,10.8.47,16.19.49.57,0,1.16.04,1.73.03l8.87-.14c2.23-.03,5,.39,7.13-.5,3.21,1.48,7.24,1,10.45-.78,2.06,1.94,4.36,1.54,6.54,1.28.91-.11,2.02.02,2.93.02h4.16c2.54,0,5.24-.22,7.76-.52.03,1.03,1.57.59,2.26.68.54.07,1.11.01,1.66,0,3.1-.08,6.42.93,9.23-.62.5-.27,1.37.17,1.91-.03.43,1.3,2.18.55,3.21.6,4.6.24,9.04-.88,13.58.02,3.43.68,7.09.3,10.26-.65,1.84-.32,4.86.55,6.71-.1,3.63,1.29,8.51,1.32,12.26-.07,1.05-.39,2.58.21,3.72-.03,1.59-.34,2.3-1.52,2.06-3.14-.07-.49-.08-1.2,0-1.67.86-5.12-15.18-3.17-18.85-3.11l-1.82.05c.18-1-1.14-1.08-1.71-1.13-1-.09-2.62-.08-2.64,1.14-.67.02-1.35-.02-2.02-.1-1.54-.37-3.14-.44-4.61.17-.57.24-1.38-.15-1.98,0-1.85-.11-3.96-1.78-5.34-.04l-2.03.09c-13.64-3.56-7.03-.18-11.72-.19l-66.95-.08c-4.19,0-20.73-1.45-22.17,1.27-1.2,2.27-.09,6.44.5,7.04.81.82,2.69.84,3.74.61ZM185.89,299.26c3.13,0,5.06-1.97,5.12-4.36.18-8.64-13.22-4.59-21.02-4.69l-71.59.34c-2.21.01-3.21,3.61-2.61,4.88.66,1.41,2.08,3.73,4.55,3.73l85.56.1Z"/>
        <path class="cls-5" d="M318.67,383.21c-.78,1.44-2.42,2.1-3,3.57-6.71.63-13.47.35-20.62.2l-.22-7.61c.9.21,1.04-.93.83-1.64-.15-.52-.31-1.05-.95-.75l-.1-5.59.03-1.34.05-1.63c.87-.38,1.14-1.32,1.17-2.21,2.14-1.37,4.27-3.17,4.89-5.7.81.48,1.55-.32,1.68-.9l.32-1.46c.34-1.52,1.22-3.03,1.18-4.68.84.74,1.58-.25,1.61-.89s.04-1.22-.16-1.62c-1.23-2.45.85-4.84.97-6.92.41,1.09,1.82,2.41.79,3.87l4.06-4.3c1.56,2.23,4.46,3.77,4.51,6.57.08,4.04,1.07,8.01.73,11.87-.09,1.03-1.14,25.12,2.23,21.14Z"/>
        <path class="cls-3" d="M22.01,70.85c-.01,3.59.44,7.18.15,10.77-.68-.14-1.41.09-1.81.7-.25.38-.3.86-.21,1.31h-1.86c-1.25-1.2-2.78-2.36-4.58-2.09-.01-1.96-1.24-4.15-2.43-5.67l.17-1.91c7.13,2.95-3.68-15.73,5.95-14.8,2.55-2.05-.97,25.61,3.12,14.08-.1-1.14.11-1.87.37-2.27.18-.27.72-.25,1.13-.13Z"/>
        <path class="cls-4" d="M127.99,28.2c-2.81,1.57-22.13-.69-27.73-1.08-8.43-.59-16.46-.67-24.12-2.32-.92-2.59,11.74-.83,9.71-.41,4.78-.97,8.55-.71,13.31.43,7.92,1.89,24.51,0,28.83,3.39Z"/>
        <path class="cls-4" d="M322.57,199.65c-.22.38.16,1.06.09,1.53-.32,2.04-5.21.98-3.98,3.62.58,1.24,1.49.54,2.61.25,1.29-.35,1.43,2.05,2.24,2.39,1.55-.99,2.7-1.83,4.19-1.44-.88,1.4-.83,2.98-.99,4.54-.18,1.74,1.14,3.14.22,5.36-4.84-2.04-10.04-4.24-11.89-8.49l-.85-1.95c-.27-.61-.5-1.13-1.27-.27,2.85-2.35,6.06-4.46,9.63-5.54Z"/>
        <path class="cls-3" d="M41.59,86.48c-1.2,1.75-6.69,1.93-8.15.36-1.78-1.9-.73-5.31-.92-7.77,3.36-.14,5.88-1.02,9.18-.7.37,2.4,1.37,5.96-.1,8.11Z"/>
        <path class="cls-3" d="M41.56,72.83c-3.44-.1-5.91.1-8.84-.39-1.17-2.22-1.73-4.58-.65-6.77,3.09-.17,5.82.14,9.13.47.92,2.19.74,4.48.35,6.69Z"/>
        <path class="cls-4" d="M334.52,274.59c-3.43,2.06-1.23-10.56-1.49-13.69-.03-.36-1.42-25.17.73-22.61.11,12,.97,24.19.76,36.29Z"/>
        <path class="cls-4" d="M326.7,344.3c.01-6.9-.74-13.95-.71-20.97,7.88,5.51-2.46,4.16,3.57,14.83-1.73,3.26-.31,7-2.86,6.14Z"/>
        <path class="cls-4" d="M53.48,38.87c-1.09,1.14-1.95,24.78-2.09,23.9l-1.61.06c-.79.03,1.33-10.23,1.09-11.34-1.03-4.83-.85-9.35,2.62-12.62Z"/>
        <path class="cls-4" d="M325.8,306.4c.01-6.83-.93-14.12-.96-21.2,5.8-1.83-1.59,7.33,3.65,15.43l-2.69,5.78Z"/>
        <path class="cls-4" d="M319.8,382.21l3.2-6c.7-.17,1.45-.26,2.02-.73.54,1,1.42,1.63,2.93,2.06-.71,1.82-.76,3.79-2,5.69-2.5-.62-4.29-1.44-6.15-1.02Z"/>
        <path class="cls-4" d="M334.52,276.22l.15,16.35c-.59.64-1.98-.25-1.98-1.18v-14c.01-.96,1.2-1.79,1.83-1.17Z"/>
        <path class="cls-4" d="M52.12,81c-2.99,3.92-2.11-17.14-.74-14.32,1.89,4.43.68,9.53.74,14.32Z"/>
        <path class="cls-3" d="M55.38,271.58l-.12-14.14h1c1.34-1.2,2.05,17.78-.87,14.14Z"/>
        <path class="cls-4" d="M315.67,386.78c.58-1.47,2.23-2.13,3-3.57.33.05.66.04.99,0,.42,1.23,2.14,2.09,2.21,3.64.07,1.64-2.52,1.32-3.88,1.56-.82.14-1.56-.81-2.32-1.63Z"/>
        <path class="cls-4" d="M324.61,233.67c-.02-3.58-2.17-7.92.2-11.23,2.46-.25.63,13.33-.2,11.23Z"/>
        <path class="cls-4" d="M54.26,301.17c-.24,1.88.5,4.38,0,6.17-1.09,1.63-.58,3.19-1,4.99-.33,0-1.38.2-1.83-.22.43-2.26.23-13.4,2.82-10.94Z"/>
        <path class="cls-4" d="M54.26,134.82c-1.23.24-2.08-.3-1.76-1.48,1.5-5.44-2.87-4.78.84-8.52.05,3.28.88,6.49.92,9.99Z"/>
        <path class="cls-3" d="M54.37,297.53l-.11-10.15h1c1.43-.12,1.96,12.61-.89,10.15Z"/>
        <path class="cls-4" d="M55.25,278.21v9.16s-.99,0-.99,0c.04,4.03-3.22-11.11.99-9.16Z"/>
        <path class="cls-4" d="M53.16,112.9c-3.14,2.45-2.04-11.24-.79-9.3,2.04,2.71.75,6.21.79,9.3Z"/>
        <path class="cls-3" d="M53.41,316.5c0-1.33-.45-2.86-.15-4.17.42-1.8-.09-3.36,1-4.99,1.33-1.68,2.02,11.69-.85,9.16Z"/>
        <path class="cls-4" d="M334.66,296.16c0,5.43,2.22,5.86.04,8.36-1.44-2.01-2.29-5.1-1.82-7.88.12-.71,1.54-.97,1.78-.48Z"/>
        <path class="cls-4" d="M63.2,26.26c-.67,2.24-2.95,3.38-4.88,4.49.73-.82-.97-3.75,1.26-4.03l3.62-.46Z"/>
        <path class="cls-4" d="M62.16,173.44c-1.14-.84-2.77-.7-4.18-1.56-.79-.48-.31-1.79-.43-2.32,2.35.28,3.89,1.77,4.62,3.88Z"/>
        <path class="cls-4" d="M18.28,83.62c-.89.94-2.21,1.46-3.71.59-1.03-.6-2.54-1.48-.87-2.67,1.8-.27,3.33.89,4.58,2.08Z"/>
        <path class="cls-5" d="M325.57,371.31c-.22,1.38-.26,2.79-.54,4.17-.57.47-1.32.56-2.02.73.86-1.62.31-4.43,2.56-4.9Z"/>
        <path class="cls-4" d="M325.62,265.59c-1.11-1.08-.75-2.64-.67-4.03.82.48,2.11.1,2.5.69.37.55.47,2.04.08,2.48-.49.54-1.25.74-1.91.87Z"/>
        <path class="cls-4" d="M324.82,279.56c0-2.09-.14-4.16-.09-6.24,1.69.16,1.97,2.15,2.07,3.58.09,1.26-.18,3.25-1.98,2.66Z"/>
        <path class="cls-4" d="M55.13,151.83c-1.8.6-2-1.3-2.02-2.69-.02-.93.89-1.87,1.28-2.61,1.57,1.22.69,3.56.74,5.3Z"/>
        <path class="cls-3" d="M36.22,58.83c-1.33.41-2.17,1-2.97.4s-.86-1.6-.81-2.47c.72-.1,1.45-.12,2.32-.04.99.09,1.6.98,1.46,2.11Z"/>
        <path class="cls-3" d="M60.03,243.53c-.47,1.82-1.64,3.41-3.5,3.9-.12-2.35,1.99-2.74,3.5-3.9Z"/>
        <path class="cls-5" d="M69.31,229.52c-1.04-.02-2.15.16-3.44-.1-.78-.16-1.31-.91-.85-1.93,3.02-.39,3.2,1.01,4.29,2.03Z"/>
        <path class="cls-4" d="M44.18,37.82c-.75-.74-.91-1.8-.86-2.82,1.23-.17,2.43.11,2.67.55.31.55.2,1.63-.53,1.92-.33.13-.8.23-1.28.34Z"/>
        <path class="cls-3" d="M54.26,329.29h-1c-.48-.6-1.55-1.49-1.06-2.38l.99-1.81c1.44.75,1.05,2.8,1.07,4.19Z"/>
        <path class="cls-4" d="M35.75,26.43c.91-.6.82.12.97.38.51.91.4,1.48-.22,1.69-.67.23-1.61.26-1.85-.24-.36-.75.53-1.44,1.1-1.83Z"/>
        <path class="cls-4" d="M23.57,32.49c.58-1.44,1.81-.12,2.21.25.93.86.4,1.69-.17,1.92-1.52.59-3.11.48-2.04-2.17Z"/>
        <path class="cls-4" d="M56.15,252.29c.35,1.53-.38,3.73.11,5.15h-1c-.01-1.3-.49-2.48-.87-4.15-.22-.96,1.22-1.53,1.76-1Z"/>
        <path class="cls-4" d="M324.81,258.6l-.12-3.32c.67-.55,1.8.07,1.95.7.19.83.29,1.86-.42,2.46-.37.31-.9.58-1.42.17Z"/>
        <path class="cls-4" d="M331.75,214.54c-.79.42-1.69.04-1.97-.66-.33-.83-.22-1.66-.13-2.38,1.31.51,2.13,1.57,2.1,3.04Z"/>
        <circle class="cls-4" cx="29.31" cy="29.92" r="1.11"/>
        <path class="cls-4" d="M333.56,217.69c-.78.56-1.54-.2-1.71-.82s-.09-1.11-.06-1.57c.82-.6,1.48.22,1.7.87.19.55.06,1.06.06,1.52Z"/>
        <path class="cls-4" d="M324.66,220.69c-.92-.32-.93-1.4-1-2.23.41.06.99-.01,1.48.19.38.16.67.57.43,1.12-.16.36-.57.67-.91.93Z"/>
        <path class="cls-4" d="M326.68,355.38c.02-.72,0-1.56,0-2.27.68-.53,1.67.01,2,.66s-.05,1.17-.51,1.48c-.5.33-1,.53-1.49.13Z"/>
        <path class="cls-4" d="M325.72,370.33c.15-.73-.12-1.57.07-2.28.64-.48,1.46,0,1.88.67.32.5.11,1.14-.54,1.37-.34.12-.88.18-1.42.24Z"/>
        <path class="cls-4" d="M325.89,321.51l-.05-2.38c.67.08,1.52.21,1.81.79.25.5.01,1.01-.45,1.25-.34.18-.81.25-1.31.34Z"/>
        <path class="cls-4" d="M324.68,251.57v-2.26c.63-.52,1.46-.09,2,.65.34.46.1,1.16-.56,1.33-.37.1-.88.22-1.44.29Z"/>
        <path class="cls-4" d="M22.16,81.62c-.03.42.34,1.09.13,1.66-.32.87-1.46.35-2.15.35-.1-.45-.04-.93.21-1.31.4-.61,1.13-.85,1.81-.7Z"/>
        <path class="cls-4" d="M56.28,166.69c-.21-.25-1.12.05-1.49-.2s-.66-.56-.4-1.12c.19-.39.75-.64.99-.89,1.02.04.66,1.52.9,2.21Z"/>
        <circle class="cls-4" cx="48.77" cy="279.39" r=".63"/>
        <path class="cls-4" d="M325.82,316.49l-.04-1.32c.5.06.92.12,1.37.28.57.21.58.49.03.76-.37.18-1.09.13-1.35.28Z"/>
        <path class="cls-4" d="M333.58,182.57l-.31,14.45c-.06,2.69-1.71,6.37-3.41,7.31.64-2.21-.46-4.37-.8-6.91-.15-1.16,1.9-1.79,2.1-3.02,1.99-11.94-2.07-13.77,1.62-16.67.55,1.44.84,3.25.8,4.83Z"/>
        <path class="cls-5" d="M348.75,86.63l-8.93.28-2.33-.02c-1.09.1-1.9-.65-2.77-1.11-.45-1.31.6-2.71.6-4.35l-.03-15.5c-.01-6.87.35-14.06,1.44-20.82,1.26-.57.79-2.28.8-3.41-.04-2.11.9-4.54,1.13-6.57,1.03-.15.81-1.53,1.02-2.31.05-1.51,1.72-2.54,2.19-3.76,1.14,1.73,7.7-.7,9.79,2.94,4.62,8.02,7.46,17.4,6.8,26.88-.32,4.63-1.43,8.63-.03,13.19-.12,1.31-2.21,2.42-2.45,3.91-1.37,8.42-8.19,4.77-7.23,10.64Z"/>
        <path class="cls-3" d="M354.72,31.06c.4,1.28.98,2.69,2.39,3.04.02,1.22.29,2.42.53,3.61.56,2.8.34,6.08,2.07,8.38-.24.41-.29,1.42-.23,1.9.22,1.78-.62,5.12,1.84,5.15l.19,12.71c.09,6.17-1.08,11.52-3.19,16.74-2.01.38-3.73,2.28-4.88,3.9-1.56.14-3.12.1-4.68.15-.96-5.87,5.87-2.22,7.23-10.64.24-1.49,2.34-2.6,2.45-3.91-1.41-4.55-.3-8.55.03-13.19.66-9.48-2.18-18.86-6.8-26.88-2.09-3.64-8.65-1.21-9.79-2.94.99-2.54,3.47-4.29,6.78-3.02,2.58.99,4.36,3.31,6.08,5.01Z"/>
        <path class="cls-4" d="M335.28,65.93l.03,15.5c0,1.64-1.05,3.04-.6,4.35-.56-.3-1.79.45-2.01-.56-.14-.64.02-1.24.3-2.02,2.32-6.62-2.14-14.95,2.28-17.27Z"/>
        <path class="cls-4" d="M359.7,46.08c-1.73-2.29-1.5-5.58-2.07-8.38,2.93.94,3.6,5.94,2.07,8.38Z"/>
        <path class="cls-5" d="M329.39,36.65c-.2,2.2-.1,4.81-1.84,6.38-1.71-2.11-.22-5.18,1.84-6.38Z"/>
        <path class="cls-4" d="M361.31,53.12c-2.46-.03-1.62-3.36-1.84-5.15.34.04,1.54-.43,1.83.09,1.01,1.86,0,3.54.01,5.05Z"/>
        <path class="cls-4" d="M357.11,34.1c-1.41-.35-1.98-1.76-2.39-3.04.5.47,1.9.15,2.14,1.03.21.76.23,1.38.25,2.01Z"/>
        <path class="cls-4" d="M333.34,28.63c.09.73.45,1.54.24,2.62-.16.82-1.38.37-1.98.68-.1-.66-.1-1.51.2-2.26.2-.5.66-1.67,1.54-1.04Z"/>
        <path class="cls-4" d="M325.69,72c-.24-1.04.05-2.24.09-3.3.72-.47,1.79.12,1.87.69.14.98.27,1.97-.46,2.46-.49.33-1.02.61-1.5.16Z"/>
        <path class="cls-4" d="M337.52,41.7c-.01,1.13.46,2.84-.8,3.41-.5-.61-1.48-1.49-.94-2.47.32-.59,1.07-.83,1.74-.94Z"/>
        <path class="cls-5" d="M327.49,45.67c.39,1.26-.94,2.36-.97,3.4l-1.06-.02c-.03-.71.05-1.68.34-2.39.22-.56.77-1.69,1.7-.99Z"/>
        <path class="cls-4" d="M339.67,32.82c-.21.77.02,2.16-1.02,2.31-.19-.42-1.14-.92-.86-1.59.31-.75,1.56-.44,1.88-.72Z"/>
        <path class="cls-4" d="M339.82,86.9c-.08.69-.21,1.61-.73,1.86-.62.3-1.14.04-1.36-.51-.14-.35-.19-.84-.25-1.37l2.33.02Z"/>
        <path class="cls-4" d="M258,29.82c-7.03,2.06-14.75.84-22.63,1.52-14.43,1.26-28.71.26-43.35.47-7,.1-13.54-.91-19.91-.96-.03-.35.12-1.01.57-1.02l9.84-.27c2.91-.08,3.97-1.44,6.87-.2,4.47,1.9,9.71-.18,14.45.24,2,.18,3.88.54,5.18-1.04.84-1.02.27-2.57.55-3.99.19-.98,2.7-.95,3.23-.03.29.51-.41,1.54-.68,2.63-.58,2.39,1.93,2.52,3.42,2.98,1.23.38,2.65-1.37,3.76-1.64,3.47,2.36,22.19,1.04,25.91-.2-3.68-2.76-7.29.07-11.06-2.4,3.26-2.09,7.19.21,10.39-.61,1.36,7.25,9.94,1.29,13.46,4.53Z"/>
        <path class="cls-4" d="M279.77,28.81c-6.63.69-13.29,1.35-19.94.87.24-1.29-.8-2.8.68-4.16,1.92.85,2.23,2.28,3.44,3.3,3.21-.47,6.22-.8,9.24-1.9-.04-.91-.35-3.53.68-3.73,3.9-.76,5.04,3.34,5.91,5.61Z"/>
        <path class="cls-4" d="M169.1,30.83c-6.69-.05-13.69.18-20.15-1.31,2.77-.9,5.71-.4,9.05-.44l10.03-.13c1.01-.01,1.69,1.18,1.07,1.88Z"/>
        <path class="cls-4" d="M294.78,27.93c-.45,1.07-1.11,2.04-1.95,2.85-.63-.52-.4-1.46-.83-3.31-.23-.99,2.12-.09,2.78.45Z"/>
        <path class="cls-4" d="M289.83,35.01c-2.53.23-4.46.31-5.25-1.99,2-.35,4.77-.38,5.25,1.99Z"/>
        <path class="cls-4" d="M323.82,184.77l-.05-23.28c3.53-3.87.99,24.23,1.83,22.44-.32.69-.95,1.43-1.78.83Z"/>
        <path class="cls-4" d="M323.78,197.55l.05-5.68,1.03-.07c1.44.42,1.99,1.88,1.87,3.25-.14,1.58-1.55,2.24-2.95,2.5Z"/>
        <path class="cls-4" d="M322.58,138.11c.52-1.2,1.23-2.29,2.09-3.28l1,3.8c-1.41-.11-2.17-.56-3.08-.52Z"/>
        <path class="cls-4" d="M319.98,138.71c1.49,1.9-5.35,2.63-6.28,3.06,1.35-2.3,3.65-3.67,6.28-3.06Z"/>
        <path class="cls-4" d="M317.57,149.43c-1.38-1.1-2.34-1.85-2.89-3.61.86.09,1.79.35,2.29,1.06.54.76.6,1.7.6,2.56Z"/>
        <path class="cls-5" d="M324.87,191.8l-1.03.07c-.38-.47-.93-1.06-1.1-1.77s1.01-1.18,1.03-1.69c1.07.74,1.02,2.19,1.09,3.39Z"/>
        <circle class="cls-4" cx="325.69" cy="201.56" r="1.11"/>
        <circle class="cls-4" cx="325.19" cy="145.18" r=".5"/>
        <path class="cls-3" d="M10.23,65c-.37-1.82-1.81-3.39-.08-5.23,1.25.07,1.32,1.64,1.29,2.57s-.02,2.52-1.21,2.66Z"/>
        <path class="cls-3" d="M10.21,54c-.12-.26-.46-.59-.6-.92-.25-.62.57-.98.67-1.42.63-.28.92.26,1.06.73.27.89-.24,1.87-1.14,1.62Z"/>
        <path class="cls-4" d="M6.58,69.91c-.08,2.68-2.46,2.68-2.35,0,.06-1.5,2.09-1.5,2.35,0Z"/>
        <path class="cls-1" d="M177.81,58.85c.39-.02.79,0,1.19.01-.04,1.17,1.04,1.17,1,0,.62.12,1.41-.2,2,0,2.86.98,6.64,1.84,9.17-.08,5.9-.14,11.73.69,17.61,1.18,4.27.36,8.33,2.48,12.35,3.78.5,1.79,2.21,2.54,3.95,2.65,1.13.07,2.43.85,3.58.59.06,1.62,1.78,2.04,3.17,2.09.6.91,1.8,1.66,2.15,2.75,1.03,3.24,4.14,6.26,7.67,5.96.32.44,1.04,1.15,1.52,1.39.19.82.16,1.73.44,2.66.25.87,1.44.74,2.24.79.26.01.63.05.87.15v1.03c-.01.71-.11,1.59.26,2.4.31.69,1.43.61,2.09.45,4-.91,11.16,19.79,8.9,15.25-1.42,2.13-1.25,5.36-.19,8.08,4.57,11.7-.36,17.4,3.94,16.92,0,.44-.22,1.29,0,1.66-1.91-.57-1.82,1.37-1.54,2.65.18.86-.44,2.43.83,2.62-.26,11.32-3.84,6.88-3.04,17.69-.29.68-1.73,1.52-1.12,2.59.36.63,1.14,1.33,1.87.75l.23,3.63c-.95-.23-1.13,1-1.14,1.68s.21,1.88,1.16,1.65c-.11,1.65-.38,3.24-1.11,4.74-.8-.49-1.6.13-1.87.76-.35.82-.11,1.61-.14,2.33l-.09,2.04c-4.8,5.36-11.62,12.28-18.78,13.31-3.64.52-7.47,1.33-10.83,4.27,1.9,3.89,1.78,8.03,2.11,12.27.64,8.16-5.44,13.77-13.22,13.68-3.32-.04-6.52,1.94-9.98.25-3.94-1.92-8.05-.07-11.88-.28-6.85-.37-13.12-.48-20.11.39-1.82.23-4.74-1.6-5,.92-.92-.13-1.94.08-2.88.06,1.86-3.32-7.92-1.7-9.35-1.82-1.2.09-1.97-1.04-2.92-1.38-.68-1.09-1.4-2.22-2.63-2.73-.44-.77-1.01-2.04-1.39-2.92,1.34.16,1.43-1.47,1.13-2.61-.17-.66-1.28-1.04-1.98-.6-.04-1.94-.1-3.84.01-5.78,1.41.63,1.89-.53,2.14-1.61.29-1.27-1.12-2.41-1.14-3.5-.03-1.92-.05-3.72-1.3-5.36l-7.4-4.81c-1.67-1.08,1.14-4.73.87-6.62l8.76,2.81c-.29.47-.18.95.04,1.5.17.43.76.68,1.47.52.37-.08.95-.34.76-.99,6.23,2.84,4.32,7.04,4.67,12.78-1.45-.6-1.88.7-1.95,1.67-.12,1.64.25,3.29,2.06,2.68v1.63c-1.22-.64-2.09.43-2.07,1.67.01,1.04.58,2.28,1.91,1.68-.03.6-.27,1.44-.04,1.99-1.13-.11-2.49-.11-3.26.83-1.2,1.47.81,2.36,1.84,4.72,1.27-.7.59-2.89,2.5-2.99,1.66-.08,3.3.33,4.94.27-.61,1.43.62,1.97,1.63,2.05,2.47.21,2.51-.3,2.52-2.2l.07-11.66c.01-1.75,2.45-2.08,3.49-2.12,1.59-.06,3.34.4,4.15,2.25,1.49,3.39-.79,7.06.13,10.47.72,2.65,7.85,2.88,9.21.73,2.35-3.91-1.71-13.03,3.4-13.78,2.48-.37,4.42.46,4.6,3.42.21,3.62-.44,6.95.05,10.59,3.17.64,6.3.7,9.42-.35,1.41-4.54-2.01-11.75,3.17-13.15,1.58-.43,4.62-.62,4.77,1.18l.98,11.37c.21,2.42,6.45,1.23,9.08.67l.9-19.76c.17-3.64,1.42-5.94,5.18-6.92,11.24-2.92,28.61-10.38,24.78-25.01-1.78-6.78-.45-12.91,1.74-19.2,1.42-4.08.93-8.5,1.69-12.32.28.31,1.05.17,1.44-.05.31-.18.92-.52.09-1-.33-.19-1.01-.09-1.53-.15l.08-4.95c1.28-.65,2.15-1.94,2.61-3.42-1.26-.42-1.76-1.03-2.31-1.41,4.55,3.1-9.95-23.36-9.4-20.35l-.37-2.04c-.11-.58-1.03-.75-1.8-.58-.43-.2-.71-.83-1.15-.99-1-2.55-3.11-4.64-5.52-5.9-2.94-1.54-5.53-3.93-8.04-6.06-.1-.38-.04-1-.26-1.45-.4-.79-1.36-.35-1.98-.48-2.01-.42-3.74-1.56-5.7-2.13-.13-3.38-15.34-7.06-20.24-6.82-2.51.12-21.66-.85-20.7.88-.93-.48-2.78.45-3.85.09-.42-.1-.98-.1-1.52.02-.51.11-1.57.69-.94,1.49-1.29,0-2.56.29-3.82.52-3.82.72-8.55,1.42-10.85,4.71-.27-.04-.58-.03-.85.02-1.81.3-4.48.68-4.33,2.93-.27,0-.67.06-.91.17-6.94,3.26-14.78,8.59-16.6,15.83-.35.22-1.14-.09-1.67.18-.71.37-.68,1.32-.52,2.08.05.23-.04.51-.03.75-.48-.42-.99-.21-1.46.09-.88.56-.25,1.53-.4,2.21-.34,1.47-.55,3.21-1.3,4.55-.93,1.67-1.73,3.37-1.89,5.33l-.14,1.71c-.97.06-.79,1.54-.87,2.26-.06.57-.24,1.47-.09,1.99l-.61.14c-2.14-.9-2.6.57-2.36,2.26.19,1.29-.22,3.21,1.22,3.67-.24.41-.18,1.27-.22,1.76-1.32.11-2.78-.55-4.33,1.06,3.17,3.35,2.96,7.5,1.83,11.54-3.07-1.48-1.69-4.35-2.79-6.13-4.88-7.84,2.34-10.48-2.65-11.43,1.65-15.09,8.91-28.95,20.2-39.69,2.93-2.78,6.71-4.3,8.93-7.32,1.45-.4,2.91-1.06,3.68-2.41.38.02.77-.32,1.15-.33.33,0,.68-.14,1.01-.13.69.03,1.44.17,2.28-.17.63-.26.51-1.22.76-1.8.4-.53,1.32-.7,1.88-1,1.84-.43,3.95-.57,5.24-2.08l9.64-2.02c1.12-.23,2.43.18,3.32-.8l2.64-.12Z"/>
        <path class="cls-4" d="M278.47,239.59l.1,1.07c2.06,1.56-18.4,1.36-19.02,1.34l-21.57-.64c-2.83-.08-4.99.59-7.83.54l-38.16-.78c-5.06-.1-9.65,2.04-14.61.83-4.05-.99-8.19-.26-11.64,2.32-.73,2.79,16.32,1.82,17.13,1.8l9.12-.24,12.6.3,8.75-.03c6.88-.03,13.5,1.36,20.53.68,1.21-.12,1.74,1.07,1.87,1.71-5.24.72-10.6.7-16.29.33-13.42-.87-26.31-.13-39.86-.17l-80.36-.25c-2.39,0-3.62-2.15-3.75-3.57-.12-1.3-.13-4.85,1.68-5.01,8.63-.76,16.72-.08,24.78-.26,1.03,1.14,1.81.37,2.31.06h3.73c.41.01.83.87,1.37.56.33-.19.67-.4.91-.59h6.67c1,.99,1.77.55,2.25.09l45.64-.32c.89,0,1.11.02,1.34,0,7.99-.55,15.06-.08,22.83-.05l69.49.27Z"/>
        <path class="cls-4" d="M185.89,299.26l-85.56-.1c-2.47,0-3.89-2.32-4.55-3.73-.59-1.27.4-4.87,2.61-4.88l71.59-.34c7.8.1,21.2-3.94,21.02,4.69-.05,2.39-1.99,4.36-5.12,4.36Z"/>
        <path class="cls-1" d="M198.79,264.56c.78.77,1.84.99,3.11,1.51,1.03.42,2.11.16,2.23-1.47.6-.15,1.41.24,1.98,0,.8.51,1.75.72,2.72,1.2,1.1.55,2.04.26,1.9-1.37.67.08,1.34.12,2.02.1,1.23,1.21,3.12,1.19,4.35,0l1.82-.05c1.6,2.87,11.28-.64,18.85,3.11-.08.47-.07,1.18,0,1.67-.84-.51-1.51.29-1.79.87-.38.78-.37,1.55-.27,2.27-1.14.24-2.67-.36-3.72.03.24-.74-1-2.04-2.03-1.75-6.61,1.83-10.87-3.46-10.22,1.82-1.85.65-4.87-.21-6.71.1,1.81-1.58-12.99-2.23-10.26.65-4.55-.9-8.99.22-13.58-.02.65-1.01-.5-2.1-1.7-1.85-.54.11-1.19.51-1.51,1.25-.54.2-1.41-.24-1.91.03,1.56-1.83-11.76-2.18-9.23.62-.54.01-1.12.07-1.66,0,.41-.46.18-.85-.14-1.37-.29-.46-.71-.66-1.29-.32-.31.18-.58.68-.83,1.01-2.52.29-5.22.52-7.76.52.15-.98-.32-1.86-.89-2.29-1.03-.78-2.13-.52-2.85.41-.32.42-.38,1.21-.42,1.88-.91,0-2.02-.13-2.93-.02,1.97-5.36-13.89-1.8-16.99-.5-2.13.89-4.9.47-7.13.5-.2-.8.02-1.8-.72-2.67l-6.13,1.4c-.65.15-1.45-.05-1.91.19-.3.16-.24.85-.11,1.23-.57,0-1.16-.03-1.73-.03.69-.74-.06-1.37-.85-1.54-.33-.07-.9,0-1.55.03-4.84.3-10.05-1.88-13.8,1.01-1.18.91-3.62.3-4.99.6.34-2.02-3.65-2.36-3.65-4.36.03-5.99,13.4-2.42,19.09-2.46,5.26-.04,10.27-1.49,15.24.42,7.43-1.31,14.65-1.46,22.19-.81,4.53.39,8.77-.49,13.09-.37,3.59.1,30.1,1.2,30.63-1.08l2.03-.09Z"/>
        <path class="cls-1" d="M280.79,240.65c.02,1.29,1.17,2.11,1.16,2.94-9.75,8.43-21.3-.89-32.23,2.75-3.08,1.03-10.05-2.44-9.98,1.87-1.74-.03-3.05.15-4,.29-.13-.64-.67-1.83-1.87-1.71-7.03.68-13.65-.7-20.53-.68l-8.75.03-12.6-.3-9.12.24c-.8.02-17.86.98-17.13-1.8,3.45-2.59,7.59-3.31,11.64-2.32,4.96,1.21,9.55-.94,14.61-.83l38.16.78c2.84.06,5-.62,7.83-.54l21.57.64c.62.02,21.08.21,19.02-1.34h2.22Z"/>
        <path class="cls-1" d="M127.11,140.45c5.22,11.44-.56,11.3.12,21.03-.34.31-.76.6-.94.91-.4.71-.08,1.05.34,1.26.59.29,1.06.39,1.48.07.12.54.15,1.13.17,1.68.03.97.05,1.97.51,2.98.4.89,1.35,1.35,2.43,1.23l.81,1.18c-.64,2.51-1.36,5.51-3.77,6.77-2.19-2.03-3.53-3.55-5.31-5.96,1.06.36,1.41-.62.97-1.28-.26-.4-1.26-.76-1.5-1.28-1.38-3-.97-6.33-3.41-8.26.86-3.5-.14-7.26,1.77-11.32,1.12-2.38-1.68-5.41-1.73-7.58.64.29.95-.3,1.07-.74.21-.75-.03-1.15-.5-1.49s-.87-.56-1.37-.14c.12-.47-.01-1.47-.13-1.94,1.19-1.82,4.39-3.37,6.19-1.12,1.13,1.41.99,3.69,2.8,3.98Z"/>
        <path class="cls-4" d="M196.75,264.65c-.53,2.28-27.04,1.18-30.63,1.08-4.32-.12-8.56.76-13.09.37-7.53-.65-14.76-.49-22.19.81-4.97-1.91-9.98-.46-15.24-.42-5.69.04-19.06-3.54-19.09,2.46,0,2,3.99,2.34,3.65,4.36-1.05.23-2.93.21-3.74-.61-.59-.6-1.7-4.77-.5-7.04,1.44-2.72,17.98-1.27,22.17-1.27l66.95.08c4.68,0-1.92-3.37,11.72.19Z"/>
        <path class="cls-4" d="M236.96,184.97c-1.27,2.49-4.88,2.38-7.87,3.91.47,5.96,1.28,12.06-.01,18.06s-6.87,9.67-12.88,9.95l-10.28.47c-12.93.59-25.66.89-37.87-.89.26-2.52,3.18-.69,5-.92,6.99-.87,13.26-.76,20.11-.39,3.83.21,7.93-1.65,11.88.28,3.47,1.69,6.66-.29,9.98-.25,7.78.09,13.86-5.51,13.22-13.68-.33-4.23-.21-8.38-2.11-12.27,3.36-2.94,7.19-3.75,10.83-4.27Z"/>
        <path class="cls-4" d="M137.99,174.42l3.24,2.36c.27,1.89-2.54,5.54-.87,6.62l7.4,4.81c-.37-.49-.69-.78-.87-.03-7.12-1.46-13.46-5.82-18.62-10.62,2.41-1.26,3.13-4.26,3.77-6.77,2.07,1.06,4.12,2.28,5.96,3.61Z"/>
        <path class="cls-4" d="M125.04,121.68c-.07,1,.27,2,.28,2.99.01.61-.01,1.26-.05,1.86-.15,2.14-.71,4.5.7,6.31.04,2.02.32,4.03,1.16,5.87.22.48-.15,1.22-.01,1.74-1.81-.29-1.67-2.57-2.8-3.98-1.81-2.24-5-.7-6.19,1.12-3.21-6.29-1.8-13.88-1.03-20.87,4.99.95-2.23,3.6,2.65,11.43,1.11,1.77-.28,4.65,2.79,6.13,1.13-4.04,1.35-8.19-1.83-11.54,1.55-1.61,3.02-.95,4.33-1.06Z"/>
        <path class="cls-4" d="M239.75,248.21c-.07-4.31,6.89-.84,9.98-1.87,10.93-3.65,22.48,5.68,32.23-2.75,0,1.98-.52,4.38-2.23,4.69-6.38,1.12-12.47.44-18.88.32l-21.09-.38Z"/>
        <path class="cls-4" d="M261.71,126.88c-4.3.48.63-5.21-3.94-16.92-1.06-2.72-1.23-5.95.19-8.08,3.73,7.5,3.91,16.45,3.75,24.99Z"/>
        <path class="cls-5" d="M208.77,59.96c-5.88-.49-11.71-1.32-17.61-1.18-.96-1.06-2.67-1.32-4.08-1.39-1.22-2.59,19.06,1.03,21.67.99.37.32-.02,1.12.02,1.59Z"/>
        <path class="cls-4" d="M237.77,267.59c-7.57-3.74-17.25-.23-18.85-3.11,3.67-.06,19.71-2.01,18.85,3.11Z"/>
        <path class="cls-4" d="M156.07,273.1c-2.18.25-4.48.65-6.54-1.28-3.2,1.78-7.24,2.26-10.45.78,3.09-1.29,18.95-4.86,16.99.5Z"/>
        <path class="cls-4" d="M121.35,273.2c-5.39-.02-11.04,1.08-16.19-.49,3.75-2.89,8.96-.71,13.8-1.01.65-.04,1.22-.1,1.55-.03.79.17,1.54.79.85,1.54Z"/>
        <path class="cls-4" d="M231.99,272.43c-3.75,1.39-8.63,1.37-12.26.07-.64-5.29,3.61,0,10.22-1.82,1.04-.29,2.28,1.01,2.03,1.75Z"/>
        <path class="cls-4" d="M122.95,171.61c-2.55-3.44-5.06-6.26-3.94-10.82,2.44,1.93,2.02,5.25,3.41,8.26.24.52,1.24.88,1.5,1.28.43.66.09,1.64-.97,1.28Z"/>
        <path class="cls-4" d="M131.95,273.09l-8.87.14c-.13-.38-.19-1.07.11-1.23.46-.24,1.26-.04,1.91-.19l6.13-1.4c.74.87.52,1.87.72,2.67Z"/>
        <path class="cls-4" d="M213.02,272.6c-3.17.95-6.83,1.33-10.26.65-2.74-2.89,12.06-2.23,10.26-.65Z"/>
        <path class="cls-4" d="M165.17,216.53c-3.63-.09-9.58.99-9.35-1.82,1.43.12,11.21-1.51,9.35,1.82Z"/>
        <path class="cls-4" d="M238.82,74.76c.31.43.68.81,1.09,1.16.82.42,1.21,1.14,1.73,1.85-3.53.3-6.64-2.71-7.67-5.96,1.95.31,3.28,1.87,4.86,2.95Z"/>
        <path class="cls-4" d="M184.07,272.66c-2.81,1.55-6.13.53-9.23.62-2.53-2.8,10.79-2.45,9.23-.62Z"/>
        <path class="cls-4" d="M187.08,57.38c1.41.08,3.12.34,4.08,1.39-2.53,1.93-6.31,1.07-9.17.08v-1c1.62.49,3.47-.57,5.09-.48Z"/>
        <path class="cls-4" d="M210.73,264.44c.14,1.63-.8,1.92-1.9,1.37-.97-.48-1.92-.7-2.72-1.2,1.48-.61,3.07-.54,4.61-.17Z"/>
        <path class="cls-4" d="M163.16,273.12h-4.16c.04-.67.1-1.46.42-1.88.72-.94,1.82-1.19,2.85-.41.57.43,1.04,1.31.89,2.29Z"/>
        <path class="cls-4" d="M148.06,198.69c.09-1.59.12-3.56,0-5.12h1c.02,1.1,1.43,2.23,1.14,3.5-.25,1.08-.73,2.24-2.14,1.61Z"/>
        <path class="cls-5" d="M149.06,193.58h-1c-1.09-1.55-1.36-3.45-1.18-5.39.19-.75.5-.46.87.03,1.26,1.65,1.27,3.44,1.3,5.36Z"/>
        <path class="cls-4" d="M261.71,128.54c1.08,1.85-.67,3.72-.71,5.27-1.28-.19-.65-1.76-.83-2.62-.27-1.28-.36-3.22,1.54-2.65Z"/>
        <path class="cls-4" d="M204.13,264.6c-.12,1.63-1.2,1.89-2.23,1.47-1.27-.52-2.33-.74-3.11-1.51,1.38-1.74,3.49-.06,5.34.04Z"/>
        <path class="cls-5" d="M162.21,61.79c-1.3,1.5-3.4,1.65-5.24,2.08.07-1.31.97-1.9,2.23-2.44.97-.41,2.12-.24,3.01.36Z"/>
        <path class="cls-4" d="M225.07,66.38c-1.75-.1-3.45-.85-3.95-2.65,1.58.51,3.91.45,3.95,2.65Z"/>
        <path class="cls-5" d="M231.82,69.05c-1.38-.05-3.1-.46-3.17-2.09.72-.17,1.14-1.44,1.75-1.34,1.27.19,2.11.54,1.81,1.62-.11.39-.6,1.46-.4,1.81Z"/>
        <path class="cls-5" d="M149.9,67.3c-.76,1.35-2.23,2.01-3.68,2.41.95-1.29,1.78-2.51,3.68-2.41Z"/>
        <path class="cls-4" d="M245.84,82.6c-.8-.05-1.99.08-2.24-.79-.27-.93-.24-1.85-.44-2.66,1.4.69,2.55,1.82,2.68,3.45Z"/>
        <path class="cls-5" d="M181.99,57.86v1c-.59-.2-1.38.12-2,0-.32-.06-.67,0-1,0-.39-.01-.79-.03-1.19-.01-.67-1.21.49-1.95,1.69-2.16,1.01-.18,1.62.91,2.49,1.18Z"/>
        <path class="cls-4" d="M217.1,264.53c-1.23,1.2-3.12,1.21-4.35,0,.02-1.22,1.64-1.23,2.64-1.14.57.05,1.89.14,1.71,1.13Z"/>
        <path class="cls-4" d="M152.91,213.34c-1.58-.56-2.3-1.05-2.63-2.73,1.22.51,1.95,1.64,2.63,2.73Z"/>
        <path class="cls-4" d="M258.95,161.8c-.95.22-1.17-.97-1.16-1.65s.19-1.91,1.14-1.68c.03.53.87.99.89,1.68.01.65-.83,1.16-.87,1.65Z"/>
        <path class="cls-4" d="M258.7,154.84c-.73.58-1.51-.12-1.87-.75-.61-1.07.83-1.91,1.12-2.59,1.3.48.68,2.27.75,3.34Z"/>
        <path class="cls-5" d="M175.17,58.97c-.89.99-2.2.57-3.32.8-.56-1.2.46-2.11,1.65-1.98.76.08,1.89.04,1.67,1.18Z"/>
        <path class="cls-4" d="M155.09,64.87c-.25.58-.13,1.55-.76,1.8-.84.34-1.59.21-2.28.17v-1c.62-1.1,1.88-1.19,3.04-.98Z"/>
        <path class="cls-4" d="M148.89,207.69c-.49-1.16-.82-1.87-.85-3.22.7-.44,1.8-.06,1.98.6.3,1.14.22,2.77-1.13,2.61Z"/>
        <path class="cls-4" d="M189.18,273.23c-1.02-.05-2.77.71-3.21-.6.32-.73.97-1.13,1.51-1.25,1.2-.25,2.35.83,1.7,1.85Z"/>
        <path class="cls-4" d="M237.77,269.26c.24,1.62-.47,2.8-2.06,3.14-.1-.72-.12-1.49.27-2.27.28-.57.95-1.37,1.79-.87Z"/>
        <path class="cls-4" d="M249.07,86.64c-.66.15-1.78.23-2.09-.45-.37-.81-.27-1.69-.27-2.4l1.15.02c.61.85,1,1.82,1.22,2.83Z"/>
        <path class="cls-5" d="M255.74,171.67l.09-2.04,2-1c-.07.7.25,1.49-.16,2.3-.32.62-1.31.61-1.93.74Z"/>
        <path class="cls-4" d="M257.84,166.54c-.24.55.04,1.48-.01,2.09l-2,1c.03-.72-.21-1.51.14-2.33.27-.63,1.07-1.25,1.87-.76Z"/>
        <path class="cls-4" d="M119.05,141.89c-.02-.75-1.03-1.42-.8-2.37.5-.42.92-.18,1.37.14s.71.73.5,1.49c-.12.43-.43,1.02-1.07.74Z"/>
        <path class="cls-5" d="M124.25,239.62c-.5.31-1.28,1.08-2.31-.06-.29-.9.82-1.34,1.67-1.08.46.14.87.55.65,1.14Z"/>
        <path class="cls-5" d="M130.26,239.6c-.24.19-.58.4-.91.59-.54.3-.95-.55-1.37-.55-.26-.89.7-1.45,1.6-1.15.45.15.91.51.67,1.12Z"/>
        <path class="cls-5" d="M139.18,239.68c-.48.47-1.25.91-2.25-.09-.28-.9.8-1.4,1.64-1.1.45.15.79.64.61,1.2Z"/>
        <path class="cls-5" d="M280.79,240.65h-2.22s-.1-1.06-.1-1.06c.88-.93,2.29-1.7,2.3-.59l.02,1.65Z"/>
        <path class="cls-4" d="M173.18,273.28c-.69-.09-2.24.35-2.26-.68.25-.33.52-.83.83-1.01.58-.33,1-.13,1.29.32.33.52.56.91.14,1.37Z"/>
        <path class="cls-5" d="M186.15,239.37c-.22.02-.44,0-1.34,0-.4-.43-.21-.85.15-1.37.43-.62.62-.62,1.04,0,.35.52.53.95.15,1.38Z"/>
        <path class="cls-5" d="M239.91,75.91c-.41-.34-.78-.73-1.09-1.16.42.29.64.92,1.09,1.16Z"/>
        <path class="cls-5" d="M152.05,66.84c-.32-.02-.68.12-1.01.13.16-.5.77-.71,1.01-1.12v1Z"/>
        <path class="cls-5" d="M247.85,83.81l-1.15-.02v-1.03c.49.2.85.64,1.15,1.05Z"/>
        <path class="cls-5" d="M199.74,66.04c-.91,3.56,4.03-.2,12.08,3.57,2.82,1.32,5.5,2.48,8.15,3.25,1.96.57,3.69,1.71,5.7,2.13-.68.77.24,1.39.87,1.71.42.22.92.26,1.38.21,2.5,2.13,5.09,4.53,8.04,6.06.89,2.59,2.93,4.95,5.52,5.9.44.16.71.79,1.15.99l7.07,14.13c-.66-1.32,4.66,14.68,4.2,13.67l-.08,4.95c-.05.39.08.82,0,1.2-.76,3.82-.26,8.24-1.69,12.32-2.19,6.29-3.52,12.42-1.74,19.2,3.83,14.63-13.54,22.09-24.78,25.01-3.77.98-5.02,3.28-5.18,6.92l-.9,19.76c-2.63.56-8.87,1.76-9.08-.67l-.98-11.37c-.15-1.8-3.19-1.61-4.77-1.18-5.17,1.41-1.76,8.61-3.17,13.15-3.12,1.05-6.25.99-9.42.35-.49-3.64.16-6.97-.05-10.59-.17-2.97-2.11-3.79-4.6-3.42-5.11.75-1.05,9.87-3.4,13.78-1.36,2.16-8.49,1.92-9.21-.73-.92-3.41,1.36-7.08-.13-10.47-.81-1.85-2.56-2.31-4.15-2.25-1.03.04-3.48.37-3.49,2.12l-.07,11.66-4.15.14c-1.64.06-3.29-.35-4.94-.27l-1.08-2.56c-.23-.55,0-1.39.04-1.99l.16-3.35v-1.63c0-1.45-.02-2.9-.11-4.35-.35-5.74,1.56-9.94-4.67-12.78l-2.27-1.03-8.76-2.81-3.24-2.36c.24-1.95-.73-3.79-2.74-5-2.37-3.55-3.42-7.41-4.18-11.73,1.44-3.01,3.87-5.49,6.85-6.22l7.28,7.03c.84,2.17.4,4.73-.06,7.24,1.3,1,4.45,2.18,6.03,3.81,1.02-.72.94-2.37,1.14-3.21.29-1.24,1.66.02,2.6-.38,11.06-4.63,11.79-.24,11.9-6.33,3.7-3.4,8.29-6.38,10.61-11.41,3.16-6.84,2.93-14.8-1.16-21.01-3.8-5.76-10.66-9.89-18.11-9.77-20.73.34-20.16,13.64-22.91,13.41-1.48-.12-1.59,1.1-2.7,2.89-.95-2.37.07-4.79-.52-7.18-.21-.84.17-1.79.04-2.65,1.6-.82.9-2.98,1.04-4.44.84-8.54,5.15-15.96,10.64-23.19,7.75-10.2,28.43-23.18,42.22-25.97-1.96-3.85-4.91-1.8-6.89-3.4-.97-1.73,18.19-.76,20.7-.88ZM211.09,160.64c.33,4.97,11.53,3.91,12.7,6.18l2,3.89c.7,1.37,3.77-.51,5.25-.87,9.77-2.4,15.02-15.55,12.2-19.03-.47-.58-1.41-.95-2.4-1.12,5.12-11.3,1.19-25.62-11.14-30.7-7.59-3.13-17.6-1.55-23.78,3.76-4.4,3.78-7.18,10.24-7.39,15.64-.56,14.59,12.41,20.11,12.56,22.26ZM194.56,179.58c1.87.25,4.57.78,5.1-2.72,1.01-6.62-3.62-20.44-11.56-21.58-6.04-1.8-18.95,22.63-8.59,24.45,6.15,1.08,4.94-10.88,8.1-14.46,3.97,4.13.86,13.5,6.94,14.32Z"/>
        <path class="cls-4" d="M253.91,117.67c.46,1.01-4.86-14.99-4.2-13.67l-7.07-14.13c.76-.17,1.69,0,1.8.58l.37,2.04c-.55-3.01,13.95,23.45,9.4,20.35.55.38,1.05.99,2.31,1.41-.46,1.48-1.32,2.77-2.61,3.42Z"/>
        <path class="cls-5" d="M151.99,76.88c-.05,2.3-2.36,3.15-4.14,4.61-4.52,3.7-7.81,8.34-12.46,11.22,1.82-7.24,9.67-12.57,16.6-15.83Z"/>
        <path class="cls-4" d="M219.98,72.86c-2.65-.77-5.33-1.93-8.15-3.25-8.06-3.77-13,0-12.08-3.57,4.89-.23,20.1,3.44,20.24,6.82Z"/>
        <path class="cls-3" d="M125.32,124.67c-.02-.99-.36-1.99-.28-2.99.04-.49-.03-1.36.22-1.76,1.14-1.76,1.09-3.88,1.13-5.93l.61-.14c1.39.4,1.04,11.95-1.68,10.82Z"/>
        <path class="cls-5" d="M168.92,69.05c1.21,2.1-9.87,4.86-10.85,4.71,2.3-3.28,7.03-3.99,10.85-4.71Z"/>
        <path class="cls-4" d="M156.84,204.72l1.08,2.56c-1.9.1-1.22,2.29-2.5,2.99-1.02-2.36-3.04-3.25-1.84-4.72.77-.94,2.13-.94,3.26-.83Z"/>
        <path class="cls-4" d="M241.49,88.88c-2.59-.94-4.63-3.31-5.52-5.9,2.42,1.26,4.53,3.35,5.52,5.9Z"/>
        <path class="cls-4" d="M126.39,113.99c-.05,2.05,0,4.17-1.13,5.93-1.45-.45-1.03-2.37-1.22-3.67-.25-1.69.22-3.16,2.36-2.26Z"/>
        <path class="cls-3" d="M128.1,107.89c.16-1.97.96-3.66,1.89-5.33,1.49.39.77,2.16.48,3.01-.42,1.24-.92,2.73-2.37,2.32Z"/>
        <path class="cls-4" d="M156.93,193.4c.09,1.45.11,2.9.11,4.35-1.81.62-2.18-1.04-2.06-2.68.07-.97.5-2.27,1.95-1.67Z"/>
        <path class="cls-4" d="M167.01,207.41c-.01,1.9-.05,2.41-2.52,2.2-1.01-.08-2.24-.62-1.63-2.05l4.15-.14Z"/>
        <path class="cls-5" d="M157.22,73.77c.13,2.29-2.4,2.92-4.33,2.93-.15-2.25,2.52-2.63,4.33-2.93Z"/>
        <path class="cls-4" d="M157.04,199.38l-.16,3.35c-1.33.6-1.9-.64-1.91-1.68-.02-1.24.85-2.31,2.07-1.67Z"/>
        <path class="cls-3" d="M127.1,111.86c.08-.72-.11-2.2.87-2.26.45.28.78.59.97.9.36.62.07,1.07-.35,1.27-.6.28-1.05.42-1.48.08Z"/>
        <path class="cls-4" d="M133.16,95.71c.01.45-.06.94-.24,1.43-.23.61-.82,1.58-1.62.87.16-.68-.48-1.65.4-2.21.47-.3.98-.51,1.46-.09Z"/>
        <path class="cls-4" d="M135.38,92.7l-.38,1.51c-.16.65-1,1.1-1.81.75-.16-.76-.19-1.71.52-2.08.53-.28,1.32.04,1.67-.18Z"/>
        <path class="cls-4" d="M152.26,180.62c.19.65-.38.91-.76.99-.71.16-1.3-.09-1.47-.52-.22-.55-.33-1.03-.04-1.5l2.27,1.03Z"/>
        <path class="cls-4" d="M227.93,76.92c-.46.04-.95,0-1.38-.21-.63-.32-1.55-.94-.87-1.71.63.13,1.58-.32,1.98.48.22.44.16,1.07.26,1.45Z"/>
        <path class="cls-5" d="M175.2,67.01c-.09.41-.21.91-.46,1.18-.57.63-1.36.34-2,.34-.63-.8.43-1.38.94-1.49.54-.12,1.1-.12,1.52-.02Z"/>
        <path class="cls-4" d="M253.83,123.82c.08-.39-.05-.81,0-1.2.53.07,1.2-.04,1.53.15.83.48.21.82-.09,1-.39.23-1.16.37-1.44.05Z"/>
        <path class="cls-4" d="M179,58.86c.33,0,.68-.06,1,0,.04,1.17-1.04,1.17-1,0Z"/>
        <path class="cls-3" d="M132,126.57c.59,2.39-.43,4.81.52,7.18,1.12-1.79,1.23-3.02,2.7-2.89-.92,7.06-.36,14.15,2.69,20.61-2.98.73-5.41,3.21-6.85,6.22.76,4.32,1.81,8.18,4.18,11.73,2.01,1.21,2.98,3.05,2.74,5-1.84-1.34-3.89-2.55-5.96-3.61l-.81-1.18c-.41-1.71-.8-4.34-2.94-4.21-.02-.55-.05-1.14-.17-1.68-.15-.72.11-2.17-.88-2.24-.68-9.74,5.1-9.59-.12-21.03-.14-.52.23-1.26.01-1.74,6.6-1.57,1.02-14.76,4.87-12.15Z"/>
        <path class="cls-4" d="M131.22,169.63c-1.08.12-2.02-.34-2.43-1.23-.46-1.01-.48-2.01-.51-2.98,2.14-.13,2.53,2.5,2.94,4.21Z"/>
        <path class="cls-4" d="M128.11,163.73c-.42.32-.89.23-1.48-.07-.42-.21-.74-.56-.34-1.26.18-.31.6-.6.94-.91.99.07.73,1.53.88,2.24Z"/>
        <path class="cls-3" d="M125.96,132.84c-1.41-1.81-.85-4.17-.7-6.31,1.83-.58,2.02,1.63,1.94,2.69-.11,1.38.15,3.21-1.24,3.63Z"/>
        <g>
          <path class="cls-1" d="M65.27,15.96c.1.37.1,1.58.32,2.22.21.6,1.94.55,2.32.02.5-.68.83-1.55,1.28-2.26,1.11.11,2.92-.03,4.12-.02-2.93,4.27,21.53,1.83,19.02.9,1.17.24,2.46-.04,3.64.12-.6.66.05,1.57.71,1.98.53.33,1.1.02,1.48-.48.32-.42.59-.88.16-1.39.51,0,1.16.15,1.65,0-4.21,2.41,21.16,3.99,18.32,1.79,2.2.72,5.64.22,7.99.4,3.01,2.01,3.3,5.44,3.78,8.85-.53.15-1.61-.17-2.09.1-4.31-3.4-20.9-1.5-28.83-3.39-4.76-1.14-8.53-1.39-13.31-.43,2.03-.41-10.63-2.17-9.71.41-4.14-.89-9.05.97-12.95,1.46l-3.62.46c-2.22.28-.53,3.21-1.26,4.03-1.92,2.17-2.75,6.14-4.84,8.11-3.46,3.27-3.65,7.8-2.62,12.62.24,1.11-1.88,11.37-1.09,11.34l1.61-.06c.18,1.16-.47,2.82,0,3.91-1.37-2.83-2.25,18.24.74,14.32l.25,22.61c-1.25-1.94-2.35,11.75.79,9.3l.18,11.93c-3.71,3.73.65,3.08-.84,8.52-.32,1.17.54,1.72,1.76,1.48l.13,11.7c-.39.75-1.3,1.68-1.28,2.61.03,1.39.23,3.29,2.02,2.69.13,4.14.41,8.56.25,12.66-.24.25-.8.5-.99.89-.26.55.02.86.4,1.12s1.27-.05,1.49.2c.53.63,1.07,2.07,1.26,2.87.13.53-.35,1.84.43,2.32,1.41.86,3.05.73,4.18,1.56.65,1,2.72,1.51,2.89,2.9.53,4.26-7.12,6.07-7.52,9.28-2.21,17.84.29,16.51-.45,32.96-.21,4.64,3.47,9.48,7.95,8.91-.45,1.02.08,1.78.85,1.93,1.29.26,2.4.08,3.44.1,1.18,1.11,3.99,3.01,3,5.24-.65,1.47-2.18,4.32-4.15,4.67-3.17.57-5.51,2.08-8.14,4.1-1.51,1.16-3.62,1.55-3.5,3.9.08,1.58-.74,3.27-.38,4.87-.54-.54-1.98.04-1.76,1,.39,1.68.86,2.85.87,4.15l.12,14.14-.13,6.63c-4.21-1.95-.95,13.19-.99,9.16l.11,10.15c.01,1.1.03,2.53-.11,3.64-2.59-2.47-2.39,8.67-2.82,10.94.45.42,1.5.22,1.83.22-.3,1.31.14,2.84.15,4.17,0,2.87,0,5.74-.22,8.6l-.99,1.81c-.49.89.58,1.78,1.06,2.38-.15,1.87,1.16,2.04,2.52,2.2,1.69.2,2.63-.97,3.74-1.4,2.57-.66,6.08,1.05,8.58.07-.21.78,1.1,1.13,2.12,1.13h16.99c1.01,0,2.39-.29,2.17-1.09l2.78.28c-.02.6-.15,2.86.79,2.75,10.12-1.18,8.82,1.93,10.18-2.72,2.62-.02,5.23-.17,7.87-.12-.57,1.26.47,1.99,1.65,1.98,1.07-.01,2.29-.63,1.68-1.91.58.01,1.2.05,1.79.05-.15.67-.72,2.93.18,3.07,3.76.33,7.23-.71,11,.64,2-2.13,3.76,0,5.79-.2l13.88-1.37c2.35-.23,4.38,1.3,6.92,1.3h10.57c3.91-.02,22.06,1.78,23.36-3.29.99,0,2.01-.16,3-.23-1.54,2.59,5.55,2,6.46,1.73.57-.17,1.44-.87.86-1.76l3.65.03c.09.52.15.99.32,1.34.22.44.74.74,1.27.5.58-.26.7-1.17.77-1.83.54.09,1.08-.05,1.62,0-.57.66.08,1.41.71,1.85.95.66,1.15-.94,1.69-.96,4.93.36-2.45-9.91,7.13-18.56,3.47-3.13,3.6-6.07,3.92-10.38.93-12.66,12.99-19.07,24.64-18.29,5.15.35,7.96-5.46,11.95-7.57,5.94-3.14,14.13-.57,18.54,4.15,10.75,11.5,12.92-1.54,27.69,14,3.87,4.07,1.85,9.61,3.05,14.44l4.45,6.38c-4.79,6.8-.73,4.19-.67,15.08,3.05.63,1.27,2.95,1.15,4.74-1.02,3.24-3.45,5.21-3.65,8.73-.12,2.08-2.19,4.46-.97,6.92-.56-.57-.94-.07-1.15.27-.5.85-.32,1.58-.3,2.24.03,1.65-.84,3.16-1.18,4.68-.49-.23-1.05-.15-1.37.12-.77.64-.47,1.57-.63,2.23-.62,2.53-2.75,4.33-4.89,5.7-.44.28-1.73-.35-2.11.54-.25.58.46,1.36.94,1.66l-.05,1.63c-.51.07-.95.11-1.36.27-.64.25-.64.54,0,.77.41.15.82.24,1.32.3l.1,5.59c-.14.27-.51.58-.62.96-.17.58.53,1.03.74,1.42l.22,7.61c7.15.16,13.91.44,20.62-.2.76.82,1.5,1.77,2.32,1.63,1.36-.23,3.95.08,3.88-1.56-.07-1.55-1.79-2.41-2.21-3.64l.15-1c1.86-.42,3.65.4,6.15,1.02,1.24-1.89,1.29-3.87,2-5.69-1.5-.43-2.39-1.06-2.93-2.06.28-1.38.33-2.79.54-4.17l.15-.98c.54-.06,1.08-.11,1.42-.24.65-.24.86-.87.54-1.37-.43-.67-1.24-1.16-1.88-.67,1.14-4.13.78-8.42.89-12.67.49.4.99.2,1.49-.13.46-.31.83-.84.51-1.48s-1.32-1.19-2-.66l.02-8.8c2.55.86,1.13-2.87,2.86-6.14-6.03-10.67,4.31-9.32-3.57-14.83,0-.61-.07-1.21-.1-1.82.5-.09.97-.16,1.31-.34.46-.24.69-.75.45-1.25-.29-.58-1.14-.71-1.81-.79v-2.65c.26-.15.98-.1,1.35-.28.55-.27.54-.55-.03-.76-.45-.16-.87-.22-1.37-.28l.02-8.77,2.69-5.78c-5.24-8.1,2.16-17.25-3.65-15.43l-.02-5.64c1.8.59,2.06-1.4,1.98-2.66-.1-1.44-.37-3.43-2.07-3.58.07-2.6-.02-5.25.89-7.73.66-.13,1.42-.33,1.91-.87.39-.43.29-1.93-.08-2.48-.4-.59-1.68-.21-2.5-.69.06-.97-.11-1.99-.14-2.96.52.42,1.05.15,1.42-.17.71-.6.61-1.63.42-2.46-.15-.63-1.28-1.25-1.95-.7v-3.71c.55-.07,1.06-.19,1.43-.29.66-.17.9-.86.56-1.33-.54-.73-1.37-1.17-1.99-.65l-.08-15.64c.83,2.1,2.66-11.48.2-11.23l-.15-1.75c.34-.26.75-.57.91-.93.25-.55-.05-.96-.43-1.12-.48-.2-1.07-.13-1.48-.19-1.51-3.31-12.35-3.84-13.18-9.42-.32-2.19,1.15-2.78,2.45-3.86.77-.85,1-.34,1.27.27l.85,1.95c1.86,4.24,7.05,6.44,11.89,8.49.92-2.22-.4-3.62-.22-5.36,1.08-.02,1.97.59,2.92.97-.09.72-.2,1.55.13,2.38.28.7,1.18,1.08,1.97.66,0,.25.06.51.04.76-.04.46-.1.98.06,1.57s.92,1.37,1.71.82l.2,20.6c-2.15-2.56-.76,22.25-.73,22.61.26,3.12-1.94,15.74,1.49,13.69,0,.54,0,1.09,0,1.63-.63-.61-1.82.21-1.82,1.17v14c-.01.93,1.38,1.82,1.97,1.18v3.6c-.24-.49-1.66-.23-1.78.48-.47,2.78.38,5.87,1.82,7.88.11.6-.26,1.35-.08,1.93-.64.01-1.33.15-1.46.71s.27,1.09.3,1.75l.87,20.35c.03.73-.15,1.32.26,1.74.24.25.7.37,1.13.29l-.03,5.9c-.68-.45-1.83-.05-1.97.61-.18.85-.3,1.94.44,2.46.42.3,1.05.39,1.54.08.48,1.9.82,3.74.61,5.72-.81-.31-3.4,2.65-2.13,3.18.87.37,1.6.26,2.17.18.02,1.19-.03,2.47-.03,3.64-1.75-.02-2.34,1.23-2.52,2.69-.2,1.63,1.1,2.64,2.52,1.72,0,3.64-.37,7.21-.74,10.85-4.04.49-1.29,3.62-4.61,11.21-.37.85.09,2.19.83,1.86-.9,1.3-1.64,3.25-3.19,3.98-2.38,1.15-4.57,2.86-4.76,5.63-1.91,1.47-3.21,3.87-5.95,4.13.21-.66-.39-.9-.77-.99-.64-.14-1.28.12-1.46.53-.25.57-.43,1.03-.07,1.49-.56-.13-1.19.21-1.76.15.21-1.08-.84-1.18-1.63-1.23-.97-.06-1.77.24-1.5,1.37-5.03.19-10.31,1.03-15.55-.2-.65,3.19-.16,6.23-.31,8.72-.23.44-1.4,1.01-1.1,1.59.39.75,1.18,1.35,1.79.76l-.09,1.79c-1.2.33-2.58.66-3.39,1.64.95,2.11,2.09,3.12,3.71,3.24.05.97.16,2.96-.57,3.98-.45.64-1.3.97-2.34,1.13l-5.51-5.46c-1.7-1.69-4.83,1.02-5.57,2.58-5.41-2.38-10.18-6.04-15-9.44-.8-.75-1.57-1.51-2.56-1.98-2.86-1.37-4.78,1.38-7.41,2.33-.82.3-1.89,0-2.85.68-.6.42-.95,1.32-.94,2.26l-.98.19c-.64-.08-1.64-.23-2.13.41-.28.37-.13,1.07-.13,1.47l-11.61,7.38c-2.29,1.46-4.78,1.86-6.68.56-4.78-3.27.11-13.66-2.01-23.9-5.77.77-10.85.27-16.55.22l-10.85-.1c-1.07-.01-2.27-.15-3.33,0-5.17.72-10.56.86-15.69.03-.42-.37-.89-1.11-1.6-1.1s-1.19.73-1.62,1.1c-7.78.49-17.99.54-25.74.03-.44-.44-.95-1.19-1.63-1.18-.73,0-1.83.19-1.58,1.12l-18.83.17c-4.57.04-8.72,1.13-12.87.78-1.08-.09-2.18,0-3.27,0l-2.63-.02c2.61-1.65-14.51-1.05-15.17-1-9.12.62-17.79.86-26.94-.17-.88-.1-1.65.17-1.96.63-.22.33-.02,1.03-.03,1.46h-3.99c-.05-.5.16-1.08,0-1.49-.23-.53-.87-.76-1.47-.51-.74.3-.57,1.26-.51,2-1.56-.21-3.49.32-4.99,0-3.98-2.51-17.68.5-25.41-2.45,1.7-3.49,4.22-4.27,6.37-5.69h4.96c.23.19.49.63.9.79.51.19,1.04-.35,1.32-.8h1.78c1.93,1.95,6.3,2,8.18-.03,1.22.17,2.58-.25,3.79.03.56.13.97,1.24,1.64,1.25,1.18.03,2.27-.8,1.65-1.91.85-.06,1.76.12,2.61,0-3.48,2.68,15.83,2.72,12.36-.02,3.56-.16,7.38.48,10.89-.03.05.32.01.91.26,1.09.3.22.96.45,1.67.35,15.9-2.19,34.82,2.84,36.92-2.51l14.74-.12c-2.55,1.52,15.86,1.66,13.3-.08.52.18,1.23.13,1.78.13-.33.49-.22,1.02.08,1.51s.85.82,1.47.51c.66-.33,1.17-1.32.65-2,1.21,0,2.56-.42,3.76-.17.56.12.99,1.22,1.64,1.25,1.21.05,2.22-.82,1.63-1.92l4.65-.03c-.58,1.27.51,1.96,1.66,1.96s2.25-.67,1.66-1.94c.54.02,1.13.08,1.66,0-.59,1.39.65,1.89,1.66,1.94,1.5.08,3.3-.12,2.68-1.91l8.63-.04c-.6,1.85,1.43,1.97,2.67,2,1.4.03,3.25-.35,2.73-2.11l31.73-.3c.57,0,1.93.34,2.67-.12.77-3.32.21-6.6.04-9.73-.03-.55-.14-1.22-.02-1.75.34-1.61.15-3.3.39-4.92.11-.78,1.38-1.38.84-2.49-.46-.95-1.18-1.18-2.05-1.65l-4.07-2.23c-.62-2.45-3.06-3.87-4.32-6.43s-.84-5.51-2.57-7.51c-.41-.47-.22-1.47-.86-1.86-.16-2.4.89-5.86-.94-8.09-1.28-1.57-4.39-.53-5.96-.83.42-.49.21-.99-.13-1.49-.31-.46-.86-.84-1.48-.5s-1.31,1.32-.71,1.99l-28.58.08c-.25-.22-.55-.56-.95-.71-.55-.21-1.07.39-1.45.69h-17.55c-2.22-2.35-5.11-.73-7.41-.01-2.97.22-6.58.14-9.55.02-2.26-.88-5.17-2.25-7.41-.03h-3.53c-3.33-1.71-8.17-1.8-11.4.04l-17.61-.16c2.75-2.84-12.23-2.77-9.24-.02-.57-.07-1.15,0-1.72,0,.59-.59-.19-1.91-1.18-1.91l-44.83.05c-.76.06-1.53.55-1.23,1.08h-1.68c.23-.95-.97-1.16-1.65-1.15s-1.89.18-1.67,1.13c-1.65.14-4.04-.31-5.66,0-2.48-1.86-6.83-1.8-9.34-.02-2.16-.89-5.19.51-6.73,1.89-.34.26-1.18.02-1.52.1-.42.11-.71.76-.56,1.34.09.34.38.7.93.54-.7.44-1.14,1.85-1.99,2.06-2.98.74-2.08,4.34-2.88,6.9-.49-.29-1.03-.22-1.52.06s-.81.84-.51,1.48c.33.7,1.33.95,2.04.56-.02,1.77-.25,3.74,1.05,5.1l.36,2.82c.68,5.37,2.68,10.13,4.57,15.15-1.56,2.74,1.71,4.72,2.59,7.22.78,2.21-3.41,4.21-5.24,4.16l-1.2-.3c-.95-1.07-2.01-2.29-3.07-3.24-.16-.76-.15-2.05-1.17-2.05-1.86-4.45-4.73-8.88-5.02-13.77l.32-2.26c1.17-.45,1.57-1.64,1.75-2.5.37-1.78-1.13-2.87-2.75-2.61,0-.59-.18-1.19-.21-1.78.87.28,3.32-.81,2.84-1.88-.83-1.89-2.76-3.26-2.81-4.97l-.13-4.3c0-.24.03-.51.03-.75.94.6,1.87-.08,1.87-.75v-3.1s3.19-7.29,3.19-7.29c2.79-2.17,5.04-5.07,8.83-6.05-.16,1.34,1.48,1.43,2.6,1.12.64-.18,1.16-1.27.65-1.96,6.4-1.66,13.63-.21,20.84.14,1.77.09,1.61-1.69,2.2-2.01,2.3-1.26,4.8-4.36,3.16-6.84-.52-.78-1.43-1.19-2.41-1.24.34-1.33-.46-3.07.85-4.15,1.28-.02,2.26.75,4.04,1.3.53-1.88-.68-2.74-1.55-3.14s-1.78-.18-2.56-.07c-.95-1.5-.37-3.19-.5-4.81,6.81-1.91-.53-9.47,5.24-11.34-1.65-1.23-3.34-.53-4.48-1.69l.13-4.06c1.28,0,5.29-1.07,3.63-1.63l-3.52-1.2c-.17-1.64.42-3.57.46-5.15,1.86.23,1.87-2.22,0-2-.17-1.97-.33-5,.3-7.04.78-.12,2.45.24,2.8-.57.47-1.09.11-2.44-.4-3.31-.38-.64-1.5-.87-2.43-1.05.05-4.6-.29-9.52.99-13.95.63-.11,1.91.03,2.05-.55.19-.8-.17-1.35-.54-1.49-.56-.21-1.03-.28-1.5-.02,0-1.93.02-3.85.03-5.78.47.43.93.21,1.48-.14.42-.27.73-.65.52-1.48-.1-.38-.46-.99-1.1-.72.65-4.44,3.63-7.53,8.51-10.42-3.51-3.14-5.84-5.82-7.46-9.42,1.32-.83,2.53-2.31,1.44-3.82-.7-.97-1.92-1.71-3.11-2.03l-.13-33.81c.77.6,1.68-.22,1.75-.8.09-.69-.08-1.25-.24-1.68.58-1.32.87-3.67,2.32-4.58.47-.3,1.86.11,1.99-.61.16-.87.25-2.03-.5-2.36-.35-.16-1.2.02-1.46-.23-.28-.52-.77-1.23-.99-1.8-.24-.63-.06-1.45-.78-2.1-.3-.27-.66-.66-1.21-.26-.27-.79.18-1.9-.16-2.65-.18-.4-.93-18.25-2.13-16.04.1-.31.07-.67.1-1,.6-.01,1.65.34,2.17-.49.63-1-1.23-2.35-1.98-2.47,0-.34-.18-.67-.2-1.01.87-2.76-.38-5.67.13-9.2.63-4.3,3.49-9.99,1.42-14.18-1.18-2.4-4.53-3.4-3.08-7.21.96-2.52-.37-12.26-1.99-10.4l-.09-7c-.02-1.17-.22-2.02-.96-2.67-.46-.4-1.32-.1-2-.29-.56-.15-.95-.94-1.71-.94-.65,0-1.2.74-1.67.9-1.38-.27-2.74.94-3.92,1.2-2.94.1-6.01-.48-8.65,1.08-2.83-6.64.04-5.31-3.39-6.44-.69-3.61-5.5-3.23-8.65-3.58-3.38-2.15-6.88-5.83-7.23-10.02,1.73-.18,2.72-1.74,3.44-3.73,1.44-.2,2.48.41,3.55.65,1.19,1.52,2.42,3.71,2.43,5.67-1.67,1.19-.16,2.07.87,2.67,1.5.87,2.82.35,3.71-.59h1.86c.68.01,1.83.53,2.15-.34.21-.57-.16-1.24-.13-1.66.29-3.59-.17-7.18-.15-10.77l.13-34.1c0-1.98-2.25-3.22-1.78-5.53.24-1.19,1.7-2.41,1.19-3.41-.44-.86-1.72-.75-2.43-.87-.31-.62-.13-1.29-.17-1.94-.05-.7.33-1.59.15-2.26.8-1.2,1.8-2.27,3.11-2.9l2.29-.14c-.54,2.97-1.14,5.92,1.69,8.54l4.44-3.16c1.56-1.11-.44-4.87-2.33-5.15l-.08-1c4.64-1.07,6.5,1.15,9.28,4.69.99,1.27,3.56,1.47,4.21,3.19l1.05,4.89c2.71-.36,4.46,2.47,6.45,3.11,2.66.28,3.48-6.73,5.44-6.97,1.17-.14.47-2.32-.33-2.01-1.83,1.56-3.13,3.22-5.27,3.02,2.11-7.13,8.74-12.79,16.21-12.89ZM35.75,26.43c-.58.38-1.46,1.07-1.1,1.83.24.5,1.18.47,1.85.24.62-.21.73-.78.22-1.69-.15-.26-.06-.98-.97-.38ZM30.42,29.92c0-.61-.5-1.11-1.11-1.11s-1.11.5-1.11,1.11.5,1.11,1.11,1.11,1.11-.5,1.11-1.11ZM23.57,32.49c-1.07,2.65.52,2.76,2.04,2.17.58-.22,1.1-1.05.17-1.92-.4-.37-1.63-1.69-2.21-.25ZM44.18,37.82c.48-.11.95-.21,1.28-.34.73-.29.84-1.36.53-1.92-.25-.45-1.44-.73-2.67-.55-3.26.46-6.2-1.14-10.37-1.25-.8,3.34-.58,6.4-.58,10.09,3.59,0,7.18.77,10.37-.68,1.45-.66.97-3.51,1.45-5.34ZM32.44,56.76c-.05.87,0,1.86.81,2.47s1.64.01,2.97-.4c1.4-.43,4.34,1.1,5.5-.45,1.01-1.35.9-5.52-.32-6.67-2.57-1.1-6.02.07-8.76.61-.91.52-.38,3.04-.2,4.45ZM41.56,72.83c.39-2.21.57-4.5-.35-6.69-3.31-.33-6.04-.65-9.13-.47-1.09,2.19-.52,4.55.65,6.77,2.93.49,5.4.29,8.84.39ZM41.59,86.48c1.47-2.15.47-5.71.1-8.11-3.3-.32-5.82.56-9.18.7.19,2.46-.85,5.87.92,7.77,1.46,1.57,6.95,1.39,8.15-.36ZM49.4,279.39c0-.35-.28-.63-.63-.63s-.63.28-.63.63.28.63.63.63.63-.28.63-.63ZM255.9,287.5c-11.2,9.49-16.87.53-23.98,9.84-1.07,1.4-3.26,1.82-2.99,4.97-2.21-1.76-.21,6.09-1.73,8.32-2.51,3.67-5.25,7.66-7.36,11.16-3.6,5.97.22,8.89,3.7,12.94,3.74,4.34,2.77,12.72,3.83,18s5.16,5.56,9.27,6.98c3.81,1.32,6.8,3.25,11.34,2.49,5.27-.88,7.03,7.69,15.23,8.1,7.42.37,1.99-6.9,22.65-10.58,14.86-2.65,5.91-13.57,13.07-23.33,2.03-2.76,5.74-5.54,6.05-9.03.49-5.67-4.21-9.09-7.14-13.01-1.28-3.85,1.48-13.12-2.06-11.15,0-.56,0-1.21-.1-1.76-.08-.47-.73-.77-.99-1.12-6.36-8.5-19.19-5.18-25.02-12.79-1.1-1.44-2.85-1.4-3.94-2.11-3.49-2.28-6.92-.37-9.81,2.08ZM8.47,348.25c0-.61-.5-1.11-1.11-1.11s-1.11.5-1.11,1.11.5,1.11,1.11,1.11,1.11-.5,1.11-1.11ZM238.7,391.31c-.1.91.14,1.85.13,2.76-.93-.34-.93,1.01-.94,1.58s-.03,1.92.92,1.58c0,.58-.07,1.17-.05,1.76-3.61-.99.51,3.66-1.87,7.14-.4,1.01,1.14,1.11,2.06,1.34.79.21,1.75-.12,2.05-1.29l.81-.02c.42-.3.79-.65,1.13-1.04.19-.22.66-.46.68-.78,11.21-1.86,13.32-14.63,23.55-8.62,5.47,3.22,10.06,7.6,15.5,10.22.44.21.71.82,1.19,1,.25.05.61-.13.84,0,.73.41,1.13-.14,1.06-.85-.03-.3,0-.6,0-.9,1.73-1.6.88-4.92.02-6.93l-.43-28.48c-4.77-.61-9.26,1.26-12.41,4.6-6.15,6.54-15,5.48-21.09-.06-2.97-3.57-5.79-5.91-10.46-5.13-1.87.31-4.35,1.87-5.03,4.62s1.51,5.53.75,8.05c-.59,1.95-.06,3.31.12,5.16.11,1.08-1.91,2.01-.7,2.97.77.61,1.22,1.38,2.17,1.33Z"/>
          <path class="cls-4" d="M39.21,390c-2.14,1.42-4.67,2.2-6.37,5.69,7.73,2.95,21.43-.06,25.41,2.45v1c-5.78-.96-16.39.42-21.81-.14-2.54-1.18-5.66-.65-8.19-1.87l-7.94-3.84-5.58-5.55c1.83.05,6.02-1.95,5.24-4.16-.89-2.5-4.16-4.48-2.59-7.22,10.48,11.93,8.34,8.92,21.84,13.66Z"/>
          <path class="cls-4" d="M8.37,336.17l-3.19,7.29v3.1c0,.67-.92,1.35-1.87.75.03-4.47,1.78-8.59,5.06-11.14Z"/>
          <path class="cls-4" d="M3.37,359.23c-.05-.82-.13-1.77-.93-2.19.07-1.45.03-3.04.01-4.49l.95-.17c.05,1.71,1.97,3.08,2.81,4.97.47,1.07-1.98,2.16-2.84,1.88Z"/>
          <path class="cls-4" d="M4.59,366.12l-1.15-.12c0-1.17-.29-2.42-.22-3.6.03-.46.36-.92.36-1.39,1.63-.26,3.12.84,2.75,2.61-.18.86-.58,2.05-1.75,2.5Z"/>
          <path class="cls-4" d="M183.09,396.33c.27.95-1.08.77-1.6.77s-1.88.17-1.61-.78c.43-.37.91-1.1,1.62-1.1s1.18.73,1.6,1.1Z"/>
          <path class="cls-4" d="M20.46,329.28c.5.69-.01,1.79-.65,1.96-1.12.31-2.76.22-2.6-1.12l3.26-.84Z"/>
          <path class="cls-4" d="M154.14,396.35c.3.96-1.04.7-1.56.73-.62.03-1.18-.45-1.66-.79-.25-.93.86-1.11,1.58-1.12.68,0,1.19.74,1.63,1.18Z"/>
          <path class="cls-3" d="M216.97,348.19c.64.38.46,1.39.86,1.86-1.78.71.08,2.75.21,4.17.45,4.8,2.93,7.72,6.67,9.77l4.07,2.23c0,1.39-.31,3.5,1.21,4.14-.24,1.62-.05,3.3-.39,4.92-1.37.62-2.61-1.71-4.08-1.71-9.2-.04-18.21-.24-27.5.09l-8.15.28c-5.13.18-9.78.14-14.88-.04-5.47-.2-10.84.98-16.41.06-6.7-1.11-13.51-.79-20.15.1-4.49-1.85-8.88.22-13.38.03-6.37-.26-12.59.91-18.8-.07-3.59-.57-6.56-.2-10-.17-6.36.04-12.64-1.66-19.03.7-5.32-1.82-10.56-.91-16.06-1.27s-10.52-1.45-15.85-.87c-4.73.51-8.15-1.24-12.33-2.53l-15.82-4.91c-.03-5.23-.6-11.6,2.32-16.67,2.01-2.16,7.87-1.62,10.71-1.1,4.88.9,8.55.35,13.1.28,6.04-.1,55.99-.18,57.77.15,4.19.77,8.03,2.16,12.11-.58,5.18,2.62,19.39,1.34,26.21,1.34h61.04c3.38-.02,6.48,1.24,9.54-1.09,2.33,2.1,4.68.86,6.99.92Z"/>
          <path class="cls-5" d="M17.18,364.96l15.82,4.91c4.18,1.3,7.59,3.05,12.33,2.53,5.33-.58,10.54.52,15.85.87s10.74-.54,16.06,1.27c6.39-2.36,12.67-.66,19.03-.7,3.44-.02,6.41-.39,10,.17,6.21.98,12.43-.19,18.8.07,4.5.18,8.88-1.88,13.38-.03,6.65-.89,13.45-1.21,20.15-.1,5.57.92,10.94-.26,16.41-.06,5.1.18,9.75.22,14.88.04l8.15-.28c9.29-.32,18.3-.13,27.5-.09,1.47,0,2.71,2.33,4.08,1.71-.11.54,0,1.2.02,1.75-1.24-.94-2.6-.14-2.68.88l-.24,3.14c-.21,2.69-1.52,3.99.21,5.83l-31.73.3-5.4.11-8.63.04c-1.44,0-2.89-.26-4.34-.03-.53.08-1.12.02-1.66,0-1.11-.05-2.21-.02-3.32-.01l-4.65.03c-1.03,0-2.85-.59-3.27.67-1.2-.26-2.55.17-3.76.17h-2.21c-.55-.02-1.26.04-1.78-.14-4.09-1.44-9.26-1.51-13.3.08l-14.74.12c-10.22.08-29.63-.26-38.85,1.08-3.51.51-7.34-.13-10.89.03-4.1.19-8.26-.58-12.36.02-.85.12-1.76-.06-2.61,0-1.04.07-2.85-.63-3.29.65-1.21-.27-2.57.15-3.79-.03-2.47-1.32-5.74-1.38-8.18.02h-1.78c.36-.87-.85-.81-1.53-.74-.48.05-1.05.09-.69.75h-4.96c-13.49-4.72-11.35-1.72-21.84-13.65-1.89-5.03-3.88-9.78-4.57-15.15,2.18.54,2.32,2.99,4.37,3.76Z"/>
          <path class="cls-4" d="M187.8,330.65c-1.31,5.07-19.45,3.27-23.36,3.28h-10.57c-2.54.02-4.57-1.52-6.92-1.28l-13.88,1.37c-2.03.2-3.79-1.93-5.79.2-3.77-1.35-7.24-.31-11-.64-.89-.15-.32-2.4-.18-3.07l71.7.14Z"/>
          <path class="cls-4" d="M91.35,339.17c-15.75-.36-31.71-.76-47.23-.78-.31-.53.47-1.02,1.23-1.08l44.83-.05c.98,0,1.77,1.32,1.18,1.91Z"/>
          <path class="cls-4" d="M128.14,388.21c-2.1,5.36-21.02.32-36.92,2.51-.71.1-1.37-.13-1.67-.35-.25-.18-.21-.77-.26-1.09,9.22-1.34,28.62-.99,38.85-1.08Z"/>
          <path class="cls-4" d="M89.37,330.2c.22.8-1.16,1.08-2.17,1.08h-16.99c-1.02,0-2.33-.35-2.12-1.13,4.32-1.71,9-.68,13.96-.52,2.56.08,5.36-1.34,7.32.56Z"/>
          <path class="cls-3" d="M229.64,377.03c.17,3.13.74,6.41-.04,9.73-.74.46-2.1.11-2.67.12-1.73-1.84-.42-3.14-.21-5.83l.24-3.14c.08-1.02,1.44-1.82,2.68-.88Z"/>
          <path class="cls-5" d="M14.26,344.28l-1.82,14.1c-1.3-1.36-1.08-3.33-1.05-5.1,0-.66-.21-1.47-.01-2.1.8-2.56-.11-6.15,2.88-6.9Z"/>
          <path class="cls-5" d="M224.72,363.99c-3.74-2.05-6.23-4.97-6.67-9.77-.13-1.42-1.99-3.46-.21-4.17,1.73,2,1.28,4.89,2.57,7.51s3.7,3.98,4.32,6.43Z"/>
          <path class="cls-4" d="M103.11,330.5c-1.35,4.65-.05,1.55-10.18,2.72-.95.11-.81-2.15-.79-2.75,3.57.36,7.31.05,10.97.02Z"/>
          <path class="cls-4" d="M156.18,388.02c2.56,1.73-15.85,1.6-13.3.08,4.05-1.59,9.21-1.51,13.3-.08Z"/>
          <path class="cls-4" d="M78.39,389.32c3.47,2.73-15.84,2.69-12.36.02,4.1-.6,8.26.17,12.36-.02Z"/>
          <path class="cls-4" d="M131.33,339.32c1.41,2.17-14.29,0-11.4.03,3.23-1.84,8.06-1.75,11.4-.03Z"/>
          <path class="cls-4" d="M33.47,338.37c-2.97,1.66-6.35,1.22-9.34-.02,2.51-1.78,6.86-1.83,9.34.02Z"/>
          <path class="cls-4" d="M102.32,339.19c-3.07-.03-6.17.35-9.24-.02-2.99-2.76,11.99-2.83,9.24.02Z"/>
          <path class="cls-4" d="M56.35,389.96c-1.89,2.03-6.26,1.98-8.18.02,2.44-1.4,5.71-1.35,8.18-.02Z"/>
          <path class="cls-4" d="M198.12,330.4c.58.89-.29,1.59-.86,1.76-.91.27-8,.86-6.46-1.73,2.44-.18,4.88-.05,7.32-.03Z"/>
          <path class="cls-4" d="M142.27,339.34c-1.97,1.49-5.49,1.61-7.41-.03,2.25-2.22,5.16-.84,7.41.03Z"/>
          <path class="cls-4" d="M159.23,339.33c-1.96,1.5-5.48,1.6-7.41-.02,2.3-.71,5.18-2.34,7.41.02Z"/>
          <path class="cls-4" d="M59.44,329.06l.07,1.03c-1.1.43-2.05,1.6-3.74,1.4-1.35-.16-2.67-.33-2.52-2.2h1c1.59,0,3.64-.13,5.18-.23Z"/>
          <path class="cls-4" d="M195.2,387.18c.52,1.76-1.33,2.14-2.73,2.11-1.24-.03-3.27-.15-2.67-2l5.4-.11Z"/>
          <path class="cls-4" d="M181.17,387.33c.62,1.79-1.19,1.98-2.68,1.91-1-.05-2.24-.55-1.66-1.94,1.45-.23,2.9.04,4.34.03Z"/>
          <path class="cls-4" d="M175.17,387.3c.58,1.28-.54,1.94-1.66,1.94s-2.24-.68-1.66-1.96c1.11,0,2.21-.03,3.32.01Z"/>
          <path class="cls-4" d="M167.19,387.32c.59,1.11-.42,1.97-1.63,1.92-.65-.03-1.08-1.13-1.64-1.25.43-1.27,2.24-.67,3.27-.67Z"/>
          <path class="cls-4" d="M63.43,389.33c.62,1.11-.48,1.94-1.65,1.91-.67-.02-1.08-1.13-1.64-1.25.44-1.28,2.26-.58,3.29-.65Z"/>
          <path class="cls-4" d="M114.32,330.46c.61,1.28-.61,1.89-1.68,1.91-1.18.02-2.22-.72-1.65-1.98l3.33.07Z"/>
          <path class="cls-4" d="M42.44,338.38c-.47.41-1.02.77-1.65.83s-1.2-.67-1.66-.84c-.23-.95.99-1.13,1.67-1.13s1.88.2,1.65,1.15Z"/>
          <path class="cls-4" d="M179.18,339.35c.26.64-.3.77-.76.82-.74.07-1.82.01-1.64-.84.38-.3.9-.89,1.45-.69.4.15.7.48.95.71Z"/>
          <path class="cls-4" d="M17.4,340.24c0,.85-.46,1.54-1.16,1.98-.55.16-.84-.2-.93-.54-.15-.58.14-1.23.56-1.34.34-.08,1.18.16,1.52-.1Z"/>
          <path class="cls-4" d="M208.16,331.33c-.54.02-.74,1.63-1.69.96-.63-.44-1.29-1.19-.71-1.85.77.07,2.31-.15,2.4.89Z"/>
          <path class="cls-4" d="M11.38,351.18c-.2.63.02,1.44.01,2.1-.71.38-1.72.14-2.04-.56-.3-.64.03-1.2.51-1.48s1.03-.34,1.52-.06Z"/>
          <path class="cls-4" d="M204.14,330.44c-.08.66-.19,1.57-.77,1.83-.53.23-1.05-.07-1.27-.5-.17-.35-.24-.82-.32-1.34h2.37Z"/>
          <circle class="cls-4" cx="7.36" cy="348.25" r="1.11"/>
          <path class="cls-4" d="M160.16,388.16c.51.68,0,1.67-.65,2-.62.31-1.19-.03-1.47-.51s-.4-1.02-.08-1.51h2.21Z"/>
          <path class="cls-4" d="M46.39,389.99c-.28.45-.8.99-1.32.8-.42-.15-.67-.6-.9-.79-.36-.66.21-.7.69-.75.68-.07,1.89-.13,1.53.75Z"/>
          <path class="cls-4" d="M210.07,339.27c-.74-.14-1.56-.01-2.32,0-.6-.67.07-1.64.71-1.99s1.17.04,1.48.5c.33.5.54,1.01.13,1.49Z"/>
          <path class="cls-4" d="M65.24,398.15c-.66,0-1.34.09-2,0-.06-.74-.23-1.69.51-2,.61-.25,1.24-.02,1.47.51.17.41-.04.99,0,1.49Z"/>
          <g>
            <path class="cls-4" d="M292.89,419.1c-.44,5.21-10.93-.78-11.08-2.88.73-1.56,3.86-4.27,5.57-2.58l5.51,5.46Z"/>
            <path class="cls-4" d="M295.47,409.11c-.08,1.6.23,3.25.32,4.88-1.62-.12-2.76-1.13-3.71-3.24.81-.98,2.19-1.31,3.39-1.64Z"/>
            <path class="cls-4" d="M256.85,407.14c-.68,1.57-2.14,2.62-3.79,2.94,0-.94.35-1.84.94-2.26.96-.67,2.02-.38,2.85-.68Z"/>
            <path class="cls-4" d="M266.82,406.78c-.86-.61-2.4-.54-2.56-1.98.98.47,1.76,1.23,2.56,1.98Z"/>
            <path class="cls-4" d="M252.07,410.27c.33.79-.18,1.34-.8,1.62-.44.2-1.09.03-1.45.25,0-.39-.16-1.1.13-1.47.49-.64,1.48-.49,2.13-.41Z"/>
            <path class="cls-4" d="M295.56,407.33c-.61.59-1.4-.02-1.79-.76-.3-.58.87-1.15,1.1-1.59,1.06.11.73,1.63.69,2.35Z"/>
            <path class="cls-2" d="M294.67,300.32c.15.5.44,1.02.99,1.12.1.55.1,1.2.1,1.76l-.06,7.08c-.02,2.25,1.28,2.94,2.13,4.08,2.93,3.91,7.63,7.34,7.14,13.01-.3,3.49-4.02,6.27-6.05,9.03-7.16,9.76,1.79,20.68-13.07,23.33-20.66,3.68-15.23,10.96-22.65,10.58-8.2-.41-9.97-8.98-15.23-8.1-4.54.76-7.53-1.17-11.34-2.49-4.11-1.42-8.22-1.72-9.27-6.98s-.08-13.66-3.83-18c-3.49-4.05-7.3-6.97-3.7-12.94,2.11-3.51,4.85-7.49,7.36-11.16,1.53-2.23-.47-10.08,1.73-8.32l.51,6.04c1.36-3.15-.07-7.04,3.15-9.53,1.91-.82,1.06-1.72-.67-1.49,7.11-9.31,12.78-.35,23.98-9.84-1.4,4.35,12.78-1.47,9.81-2.08,1.09.71,2.84.67,3.94,2.11,5.84,7.61,18.66,4.29,25.02,12.79ZM291.47,326.93c0-16.64-13.49-30.12-30.12-30.12s-30.12,13.49-30.12,30.12,13.49,30.12,30.12,30.12,30.12-13.49,30.12-30.12Z"/>
            <path class="cls-2" d="M285.77,398.25l-1.78-4.2c-.27,4.5-.16,8.17-1.32,11.89-5.44-2.62-10.03-7-15.5-10.22-10.23-6.01-12.35,6.76-23.55,8.62.04-.65-.08-1.32.15-1.96l3.15-.44c-.21-.99-.84-.84-1.55-.87s-1.05,1.11-1.6,1.31c-.96.28-2.47-.18-3.1.86-.52.85-.57,2.31.33,2.93-.3,1.16-1.26,1.49-2.05,1.29-.92-.24-2.46-.34-2.06-1.34,2.97,1.71,1.92-5.51,1.87-7.14-.02-.58.05-1.17.05-1.76l.02-3.16c0-.91-.23-1.85-.13-2.76.67-6.23-.5-13.3.69-19.55,3.22-2.26,9.55-.1,12.47,2.55,6.09,5.54,14.93,6.6,21.09.06,3.14-3.34,7.63-5.21,12.41-4.6l.43,28.48Z"/>
            <path class="cls-4" d="M310.01,335.31c.11-1.79,1.9-4.11-1.15-4.74-.06-10.88-4.11-8.28.67-15.08,4.77,1.66,6.28,19.13.48,19.81Z"/>
            <path class="cls-4" d="M251.85,374.31c-2.92-2.65-9.24-4.81-12.47-2.55-1.18,6.25-.02,13.32-.69,19.55-.95.05-1.4-.72-2.17-1.33-1.2-.96.81-1.89.7-2.97-.18-1.85-.71-3.21-.12-5.16.76-2.52-1.4-5.42-.75-8.05s3.16-4.31,5.03-4.62c4.68-.77,7.49,1.56,10.46,5.13Z"/>
            <path class="cls-3" d="M265.71,285.41c2.97.62-11.21,6.44-9.81,2.08,2.89-2.45,6.32-4.36,9.81-2.08Z"/>
            <path class="cls-5" d="M285.77,398.25l-.02,6.93c0,.3-.03.6,0,.9-.66-.49-1.45.07-1.06.85-.23-.13-.58.06-.84,0-.35-.39-.74-.74-1.19-1,1.16-3.72,1.05-7.39,1.32-11.89l1.78,4.2Z"/>
            <path class="cls-3" d="M231.91,297.34c1.73-.23,2.58.67.67,1.49-3.23,2.49-1.79,6.38-3.15,9.53l-.51-6.04c-.27-3.15,1.92-3.57,2.99-4.97Z"/>
            <path class="cls-4" d="M297.83,314.35c-.85-1.13-2.15-1.82-2.13-4.08l.06-7.08c3.54-1.97.78,7.3,2.06,11.15Z"/>
            <path class="cls-3" d="M243.76,402.39c.55-.2.93-1.34,1.6-1.31s1.34-.12,1.55.87l-3.15.44Z"/>
            <path class="cls-3" d="M243.76,402.39c-.22.64-.11,1.31-.15,1.96-.02.32-.48.56-.68.78-.5.16-1.53.3-1.13,1.04l-.81.02c-.9-.63-.85-2.09-.33-2.93.64-1.05,2.15-.59,3.1-.86Z"/>
            <path class="cls-4" d="M238.75,398.99c.05,1.63,1.1,8.85-1.87,7.14,2.38-3.49-1.74-8.13,1.87-7.14Z"/>
            <path class="cls-4" d="M285.76,405.19l.02-6.93c.86,2.02,1.72,5.34-.02,6.93Z"/>
            <path class="cls-5" d="M230.01,370.36c-1.52-.64-1.21-2.75-1.21-4.14.87.47,1.59.7,2.05,1.65.54,1.11-.73,1.71-.84,2.49Z"/>
            <path class="cls-4" d="M305.39,350.96c.2.4.19.99.16,1.62s-.77,1.63-1.61.89c-.01-.66-.2-1.39.3-2.24.2-.34.58-.84,1.15-.27Z"/>
            <path class="cls-4" d="M302.76,358.15l-.32,1.46c-.13.57-.87,1.38-1.68.9.16-.66-.14-1.6.63-2.23.32-.27.88-.35,1.37-.12Z"/>
            <path class="cls-4" d="M295.86,366.2c-.03.88-.3,1.83-1.17,2.21-.48-.3-1.19-1.08-.94-1.66.38-.89,1.67-.26,2.11-.54Z"/>
            <path class="cls-4" d="M294.83,379.36c-.22-.39-.92-.84-.74-1.42.11-.38.49-.7.62-.96.64-.3.8.23.95.75.2.71.07,1.84-.83,1.64Z"/>
            <path class="cls-4" d="M238.8,397.23c-.95.34-.93-1.02-.92-1.58s.01-1.92.94-1.58l-.02,3.16Z"/>
            <path class="cls-4" d="M294.65,370.04l-.03,1.34c-.5-.06-.91-.15-1.32-.3-.65-.23-.65-.53,0-.77.42-.16.85-.19,1.36-.27Z"/>
            <path class="cls-4" d="M295.66,301.44c-.55-.1-.84-.61-.99-1.12.26.35.91.65.99,1.12Z"/>
            <path class="cls-2" d="M241.8,406.17c-.4-.74.64-.88,1.13-1.04-.34.39-.71.74-1.13,1.04Z"/>
            <path class="cls-4" d="M283.86,406.95c-.49-.18-.75-.79-1.19-1,.45.26.85.61,1.19,1Z"/>
            <path class="cls-4" d="M284.7,406.94c-.4-.78.4-1.34,1.06-.85.07.71-.32,1.26-1.06.85Z"/>
            <path class="cls-1" d="M291.47,326.93c0,16.64-13.49,30.12-30.12,30.12s-30.12-13.49-30.12-30.12,13.49-30.12,30.12-30.12,30.12,13.49,30.12,30.12ZM284.26,326.64c0-12.52-10.15-22.66-22.66-22.66s-22.66,10.15-22.66,22.66,10.15,22.66,22.66,22.66,22.66-10.15,22.66-22.66Z"/>
            <circle class="cls-2" cx="261.6" cy="326.64" r="22.66"/>
          </g>
        </g>
        <path class="cls-1" d="M166.8,159.63c-13.68,4.15-11.1,1.06-21.6-1.14l-7.28-7.03c-3.05-6.46-3.61-13.55-2.69-20.61,2.75.23,2.18-13.07,22.91-13.41,7.45-.12,14.31,4.01,18.11,9.77,4.1,6.21,4.32,14.18,1.16,21.01-2.32,5.03-6.91,8.01-10.61,11.41ZM170.83,137.63c-.27-1.06-.31-2.95-.69-3.94-.14-2.56-1.95-5.6-5-5.87-.3-.03-.61-.23-.92-.24.51-.53.27-1-.18-1.35-.7-.55-1.5-.35-2.2-.38l-1.73-.06-2.01.14c-.23.02-.53.13-.74.06-7.48-2.37-14.81,6.29-14.73,13.49.1,8.99,8.41,15,17,13.74,8.13-1.19,13.07-8.22,11.19-15.6Z"/>
        <path class="cls-1" d="M240.85,149.68c-.11.24-.05.55-.13.79-.81-.54-1.31.16-1.63.78-.19.37-.04,1.18-.31,1.44-2.56,2.42-4.88,5.63-8.63,7.13-6.22,2.48-12.94,2.03-19.05.82-.14-2.15-13.12-7.67-12.56-22.26.21-5.4,2.99-11.86,7.39-15.64,6.18-5.31,16.19-6.89,23.78-3.76,12.33,5.08,16.26,19.4,11.14,30.7ZM232.62,130.42c-3.96-4.36-10.01-5.83-15.66-4.39-4.11,1.05-9.03,4.95-10.29,10.26-1.67,7,2.49,13.91,8.04,16.11,6.96,2.76,13.4,1.38,17.62-3.86,3.91-4.85,5.2-12.72.29-18.12Z"/>
        <path class="cls-1" d="M194.56,179.58c-6.07-.82-2.96-10.19-6.94-14.32-3.16,3.58-1.96,15.54-8.1,14.46-10.36-1.81,2.55-26.25,8.59-24.45,7.94,1.14,12.57,14.96,11.56,21.58-.53,3.5-3.23,2.98-5.1,2.72Z"/>
        <path class="cls-3" d="M211.09,160.64c6.1,1.21,12.83,1.66,19.05-.82,3.75-1.5,6.07-4.71,8.63-7.13.41,0,1.08.15,1.54-.13.64-.4.5-1.44.4-2.08.08-.25.03-.56.13-.79.99.17,1.93.55,2.4,1.12,2.82,3.48-2.43,16.63-12.2,19.03-1.48.36-4.54,2.24-5.25.87l-2-3.89c-1.17-2.27-12.36-1.21-12.7-6.18Z"/>
        <path class="cls-3" d="M166.8,159.63c-.11,6.09-.84,1.7-11.9,6.33-.94.39-2.31-.86-2.6.38-.2.84-.12,2.49-1.14,3.21-1.58-1.64-4.73-2.81-6.03-3.81.47-2.51.9-5.06.06-7.24,10.5,2.2,7.92,5.29,21.6,1.14Z"/>
        <path class="cls-3" d="M133.08,119.48c-.14,1.46.56,3.62-1.04,4.44-.75-.75-1.04-1.79-1.06-2.66-.02-1.19.93-2.36,2.1-1.78Z"/>
        <path class="cls-5" d="M157.37,126c-.64,3.03,5.59,4.04,8.51,5.57.04,2.31,1.02,4.48,2.67,6.45.97.03,1.64-.22,2.29-.38,1.88,7.38-3.06,14.4-11.19,15.6-8.59,1.26-16.9-4.75-17-13.74-.08-7.2,7.25-15.86,14.73-13.49ZM150.31,135.7c-.73.28-.83.83-.99,2.23-.14,1.2.35,1.92.78,2.95.67,1.6,1.26,4.42,3.37,5.46,3.95,1.94,8.62-.46,10.13-4.66,1.27-3.54-.81-6.9-4.19-8.91-2.85-1.7-7.4-1.03-9.11,2.94Z"/>
        <path class="cls-5" d="M170.14,133.69c-1.06-1.35-2.48-2.48-4.26-2.13l-.74-3.74c3.05.27,4.87,3.31,5,5.87Z"/>
        <path class="cls-3" d="M160.12,125.8l1.73.06c-.62.79.23,1.45.85,1.63.55.17,1.05.08,1.53.09.3,0,.61.21.92.24l.74,3.74c-2.92-1.53-9.15-2.54-8.51-5.57.21.07.51-.05.74-.06-.33.97.69.95,1.39.71.5-.17,1.01-.22.62-.85Z"/>
        <path class="cls-3" d="M170.14,133.69c.38.99.42,2.89.69,3.94-.65.17-1.32.42-2.29.38-1.64-1.97-2.62-4.14-2.67-6.45,1.79-.35,3.2.78,4.26,2.13Z"/>
        <path class="cls-5" d="M164.22,127.59c-.48-.01-.98.08-1.53-.09-.62-.19-1.47-.84-.85-1.63.7.03,1.49-.17,2.2.38.45.35.69.81.18,1.35Z"/>
        <path class="cls-5" d="M160.12,125.8c.4.62-.11.67-.62.85-.7.24-1.72.26-1.39-.71l2.01-.14Z"/>
        <path class="cls-5" d="M232.62,130.42c4.91,5.4,3.62,13.26-.29,18.12-4.22,5.24-10.66,6.62-17.62,3.86-5.55-2.2-9.71-9.11-8.04-16.11,1.27-5.31,6.18-9.21,10.29-10.26,5.64-1.44,11.69.03,15.66,4.39ZM226.91,140.2c.84-3.8-2.37-6.62-4.23-7.8-2.36-1.5-7.03-1.4-8.64,1.38-2.3,3.97.2,10.79,5.05,11.81,2.97.63,7.12-2.23,7.82-5.4Z"/>
        <path class="cls-5" d="M240.71,150.48c.1.65.24,1.68-.4,2.08-.46.28-1.13.13-1.54.13.27-.26.12-1.07.31-1.44.32-.62.82-1.32,1.63-.78Z"/>
        <path class="cls-3" d="M163.61,141.67c-1.51,4.2-6.19,6.6-10.13,4.66-2.11-1.04-2.7-3.86-3.37-5.46,11.27-2.14,1.35,1,13.5.79Z"/>
        <path class="cls-3" d="M149.32,137.93c.16-1.4.26-1.95.99-2.23.88-.13,1.04,1.02.73,1.48-.43.64-1.11,1.26-1.72.75Z"/>
      </g>
    </g>
  </g>
</svg>