<?xml version="1.0" encoding="UTF-8"?>
<svg id="Layer_2" data-name="Layer 2" xmlns="http://www.w3.org/2000/svg" viewBox="0 0 313.88 378.93">
  <defs>
    <style>
      .cls-1 {
        fill: #e3e9e3;
      }

      .cls-2 {
        fill: #2f3b34;
      }

      .cls-3 {
        fill: #b3e547;
      }

      .cls-4 {
        fill: #afbbad;
      }
    </style>
  </defs>
  <g id="Layer_1-2" data-name="Layer 1">
    <g>
      <path class="cls-4" d="M210.24,369.52c1.55,2.66-9.26,3.84-8.4,3.63-2.44-1.03,8.23-3.57,8.4-3.63Z"/>
      <path class="cls-4" d="M97.63,368.31c-.7.01-1.6.41-2.23-.36-.34-.41-.57-.94-.13-1.42l1.47.23c.61.1,1.65.71.89,1.55Z"/>
      <path class="cls-4" d="M123.53,375.45c-.4.4-1.18,1.26-1.66,1.03-.72-.34-1.25-1.27-.72-1.83.77.08,2.15-.17,2.37.8Z"/>
      <g>
        <path class="cls-2" d="M146.99.67c-.48,1.75,1.64,1.59,2.79,1.82.99.2,1.79-.97,2.64-1.05,4.85-.43,9.77-.34,14.64,0,2.05.14,4.35,2.05,6.36-.06,1.85.18,4.93-.66,6.76-.31,1.25.24,1.56.27,2.89.15,9.99-.88,18.63,7.54,18.18,18.04-.33,7.74.5,15.23-.59,22.86-1.21,8.44-9.97,12.52-18.01,12.38-1.14,4.68-.67,8.97-.36,13.74,16.01,2.23,30.61,7.47,44.79,13.9.09,2.43,1.41,2.23,2.95,2.68,4.65,1.36,8.09,4.92,12.73,7.39,13.04-11.34-6.44-12.79,1.48-20.75l14.99-15.06c2.07-2.08,5.38-3.46,8.12-1.46,11.28,8.22,21.33,17.7,30.56,28.15,7.18,8.12-8.81,21.84-14.84,26.99-4.68,3.99-8.94-6.1-12.54-3.56-2.22,1.56-3.49,3.82-5.36,4.91,14.15,10.62,23.4,24.62,31.74,39.73,7.1,12.87,11.07,26.35,13.97,41.04,8.02,40.64-.22,83.46-23.83,117.46-18.26,26.29-46.93,50-76.83,59.86-.17.06-10.84,2.6-8.4,3.63-25.8,6.37-52.26,7.96-78.3,2.3-.22-.98-1.6-.73-2.37-.8-8.27-.81-19.36-6.42-23.53-6.33.76-.85-.29-1.46-.89-1.55l-1.47-.23c-10.24-1.6-18.61-9.89-27.83-15.85-25.25-16.33-29.86-29.48-35.81-34.04.21-.74-.1-1.46-.75-1.98-.38-.3-.79-.55-1.32-.23-6.59-10.39-16.45-26.04-20.28-38.23C3.54,257.99.1,239.24,0,219.97c-.04-8.1,3.85-32.76,6-40.66,7.72-28.35,23.33-51.32,44.47-71.31,7.32-6.92,14.49-13.25,22.87-17.92,1.43.21,2.86-.56,3.09-2.05-1.54.23,24.22-16.01,52.39-18.82,1.23-.12,2.05-.8,2.61-1.49.61-.75-.06-1.72.13-2.53.17-.72.7-1.34.56-2.17-.47-2.88.74-5.81-.43-8.95-5.97.96-10.9-.94-14.56-4.23s-4.01-8.41-3.83-13.61c.2-5.84-.79-11.4.11-16.73.39-2.31,1.72-4.69.92-7.33.26-2.23,1.92-3.82,3.01-5.7.75.27,1.46-.13,1.94-.79.27-.38.43-.83.21-1.34,3.82-2.26,7.85-3.21,12.65-3.32l14.85-.35ZM176.05,13.2l-14.69.21c-11.59.16-22.61-.62-34.06.39-3.64.32-2.92,6.25-2.07,8.48-.46,1.17,0,2.81-.07,4-.23,3.48-1.28,6.68-.7,10.15.4,2.4-.13,6.7,3.83,6.74,6.98.07,13.87-.79,20.96.12.24-7.08-.66-13.13.44-19.66.27-1.63.38-3.04-1.24-3.38.42-1.22.59-2.54,1.03-3.29,1.2-2.05,2.9.09,3.94.28l-.12,24.76c3.6,2.38,7.29.51,11.02.47s7.33,1.84,11.01-.33c.03-8.58.05-16.91-1.08-24.96,1.69-1.03,3.37-.1,4.95-.63l.28,18.64c.03,2.29.14,5.36,1.18,7.17,1.87,1.62,8.56.78,8.95-2.01,1.11-8.08.49-15.68.37-23.1-.05-3.33-3.58-4.96-6.6-4.76-2.44.16-5.4-1.14-7.34.72ZM170.71,68.45l-.86-14.83-14.5.45c-4.11.13-7.94-.94-11.91.1l-.57,13.86c9.86-.6,18.07-.25,27.84.43ZM256.27,76.35l12.42,12.32,11.48,9.99c4.1-2.44,6.03-6.02,8.94-9.44-3.77-4.79-8.17-7.91-12.39-11.84-1.79-1.67-4.67-4.75-6.55-6.3-1.53-1.26-2.65-6.4-5.79-5.01.31-1.08-12.66,11.26-8.11,10.28ZM12.1,227.03c.83,21.71,5.64,43.26,16.53,62.62,8.68,15.44,20.18,31.75,34.08,42.73,20.7,16.35,40.65,27.05,66.88,31.89,5.88,1.08,11.09,2.49,17.36,2.77,27.32,1.19,54.89-4.39,79.09-17.61,17.08-9.33,31.87-21.13,43.43-36.42l7.32-9.68c5.35-7.08,10.35-14.84,13.34-23.26l3.42-9.65c6.9-19.49,11.37-35.7,8.22-55.65-.7-4.42.26-8.83-1.37-13.88-2.4-7.42-2.92-15.33-5.62-22.77l-3.77-10.39c-.23-.63-.48-1.26-.87-1.82.05-.32-.28-.72-.16-1.02.68-1.79-1.5-2.64-1.95-3.84-5.46-14.44-15.74-26.86-26.82-38.14-20.55-20.93-40.06-33.88-69-40.66l-8.16-1.91c-28.69-6.73-58.67-2.28-86.1,9.64-28.08,12.21-50.02,34.01-66.97,59.32-3.37,5.03-5.61,10.47-7.92,16.06-7.66,18.59-11.71,42.1-10.96,61.67ZM259.11,104.35c.84-2.29,3.29-3.84,2.91-6.4-.38-2.22-3.65-5.66-6.01-5.91-1.94-.21-5.34,4.06-4.65,5.84,1.23,3.17,5.14,3.97,7.74,6.47Z"/>
        <path class="cls-4" d="M230.05,84.83c-1.53-.45-2.86-.26-2.95-2.68,1.3.59,3.09.64,2.95,2.68Z"/>
        <path class="cls-4" d="M76.43,88.02c-.23,1.49-1.66,2.26-3.09,2.05.11-.66.36-1.64.84-1.71l2.25-.33Z"/>
        <path class="cls-4" d="M31.61,316.64c-.45-.35-1.65.14-1.85-.7-.13-.53-.15-1.13-.21-1.51.52-.32.94-.08,1.32.23.65.52.96,1.24.75,1.98Z"/>
        <path class="cls-4" d="M288.03,161.06c.45,1.19,2.63,2.05,1.95,3.84-.34-.25-.99-.22-1.46.04-.32.18-.96.54-.07,1.01.4.21,1.14-.09,1.7-.04.39.56.64,1.19.87,1.82-.83-.21-1.9-.09-1.97.83-.04.44-.39,1.44-.03,2.13,5.62,10.78,8.77,32.4,11.14,45.14.78-.15,1.06-.87,1.62-1.05,3.15,19.95-1.32,36.16-8.22,55.65l-3.42,9.65c-2.98,8.43-7.98,16.18-13.34,23.26l-7.32,9.68c-11.55,15.28-26.35,27.09-43.43,36.42-24.2,13.22-51.77,18.8-79.09,17.61-6.27-.27-11.48-1.68-17.36-2.77-26.23-4.83-46.19-15.53-66.88-31.89-13.9-10.98-25.4-27.29-34.08-42.73-10.88-19.37-15.69-40.91-16.53-62.62,1.27.62.1,2.75,2.9,2.98-.88-4.82,1.17-8.89,1.31-13.33.2-6.38,1.39-12.16,2.43-18.38,1.57-9.41,2.79-15.81,7.15-24.8l7.87-16.21c7.27-14.98,17.46-22.59,19.66-26.32,2.85-4.84,9.05-7.13,12.6-11.21,3.98-4.57,8.16-7.84,12.8-11.4,3.45-2.65,7.16-4.03,10.61-6.34,19.13-12.81,40.67-19.5,63.84-19.42l10.96.04c10.08.04,19.16,1.6,28.68,4.24,5.05,1.4,9.98,2.15,14.94,4.1,26.91,10.57,47.64,26.94,64.89,50.33,2.89,3.92,9.71,12.24,11.1,17.57.54,2.06,2.65,2.97,4.21,2.18ZM283.88,222.74c0-70.14-56.86-127-127-127S29.88,152.6,29.88,222.74s56.86,127,127,127,127-56.86,127-127ZM287.96,163.48c0-.28-.22-.5-.5-.5s-.5.22-.5.5.22.5.5.5.5-.22.5-.5Z"/>
        <path class="cls-1" d="M288.03,161.06c-1.55.79-3.66-.12-4.21-2.18-1.4-5.33-8.21-13.65-11.1-17.57-17.25-23.39-37.98-39.76-64.89-50.33-4.96-1.95-9.89-2.7-14.94-4.1-9.53-2.65-18.6-4.21-28.68-4.24l-10.96-.04c-23.17-.08-44.72,6.6-63.84,19.42-3.45,2.31-7.15,3.7-10.61,6.34-4.64,3.56-8.82,6.83-12.8,11.4-3.55,4.08-9.74,6.37-12.6,11.21-2.2,3.73-12.39,11.34-19.66,26.32l-7.87,16.21c-4.36,8.99-5.58,15.4-7.15,24.8-1.04,6.23-2.23,12.01-2.43,18.38-.14,4.44-2.18,8.51-1.31,13.33-2.79-.22-1.63-2.36-2.9-2.98-.75-19.56,3.31-43.07,10.96-61.67,2.3-5.59,4.55-11.04,7.92-16.06,16.95-25.31,38.89-47.11,66.97-59.32,27.43-11.92,57.41-16.37,86.1-9.64l8.16,1.91c28.94,6.79,48.45,19.74,69,40.66,11.08,11.28,21.35,23.7,26.82,38.14Z"/>
        <path class="cls-4" d="M270.17,71.08c1.88,1.55,4.76,4.63,6.55,6.3,4.22,3.93,8.62,7.05,12.39,11.84-2.92,3.42-4.84,7-8.94,9.44l-11.48-9.99-12.42-12.32c7.22-1.37,2.33-6.08,13.9-5.27Z"/>
        <path class="cls-1" d="M291.02,167.73l3.77,10.39c2.7,7.44,3.22,15.35,5.62,22.77,1.63,5.04.67,9.45,1.37,13.88-.56.18-.84.91-1.62,1.05-2.37-12.74-5.52-34.36-11.14-45.14-.36-.69,0-1.69.03-2.13.08-.92,1.14-1.04,1.97-.83Z"/>
        <path class="cls-4" d="M259.11,104.35c-2.6-2.5-6.52-3.31-7.74-6.47-.69-1.78,2.71-6.04,4.65-5.84,2.35.25,5.63,3.69,6.01,5.91.38,2.55-2.07,4.11-2.91,6.4Z"/>
        <path class="cls-1" d="M270.17,71.08c-11.58-.81-6.68,3.9-13.9,5.27-4.55.98,8.42-11.36,8.11-10.28,3.14-1.39,4.27,3.75,5.79,5.01Z"/>
        <path class="cls-1" d="M289.98,164.89c-.11.3.21.7.16,1.02-.55-.05-1.29.25-1.7.04-.89-.47-.25-.83.07-1.01.47-.27,1.12-.29,1.46-.04Z"/>
        <path class="cls-2" d="M283.88,222.74c0,70.14-56.86,127-127,127s-127-56.86-127-127,56.86-127,127-127,127,56.86,127,127ZM103.48,120.06c-6.9,2.76-13.73,6.89-18.95,12.11-1.57.92-3.34,2.42-4.75,3.64-5.97,5.19-11.82,11.03-15.32,18.18-14.41,16.36-21.62,38.62-23.19,60.79s2.06,26.13,3.43,36.13l.79,5.79c.07.51.07,1.63.93,1.14.07.29.23.72.14,1-.58,1.74,1.85,2.82,2.12,4.38.62,3.59,2.31,6.27,3.67,9.45,17.33,40.47,60.87,66.38,103.89,66.29,1.78,0,4.24-.72,5.92-.34,4.34.98,8.35-.48,12.99-1.01,14.71-1.68,28.01-6.32,40.66-14.11,11.34-6.98,22.58-14.81,29.28-25.84,3.8-2.34,5.66-6.78,8.37-10.55,19.71-27.39,23.24-62.87,15.51-95.1-4.1-17.12-14.61-34.51-26.23-47.7-15.79-17.93-47.36-34.97-71.33-35.85-2.07-.08-4.4-.3-6.12-.59-17.65-3-11.65.12-24.64.73-10.39.49-19.83,2.87-29.29,7.27-2.89,1.34-6.5,1.45-7.91,4.2Z"/>
        <circle class="cls-1" cx="287.47" cy="163.48" r=".5"/>
        <g>
          <path class="cls-4" d="M114.34,12.17c.8,2.64-.53,5.02-.92,7.33-1.67-2.03-2.34-6.75.92-7.33Z"/>
          <path class="cls-4" d="M173.43,1.38c-2.01,2.11-4.31.2-6.36.06,1.38-1.79,4.9-1.73,6.36-.06Z"/>
          <path class="cls-4" d="M152.43,1.44c-.85.08-1.64,1.25-2.64,1.05-1.15-.23-3.27-.07-2.79-1.82,1.79-.04,4.35-1.21,5.43.77Z"/>
          <path class="cls-4" d="M183.09,1.22c-1.34.12-1.64.09-2.89-.15-.2-1.2.59-1.08,1.47-1.06s1.48.19,1.42,1.21Z"/>
          <path class="cls-4" d="M119.5,4.34c.22.51.06.96-.21,1.34-.47.66-1.19,1.06-1.94.79.3-.52-.17-1.63.64-1.96.49-.19,1.19.01,1.5-.18Z"/>
          <path class="cls-4" d="M132.13,63.01c.14.83-.39,1.45-.56,2.17-.54.29-1.1-.07-1.25-.51-.26-.75.06-1.14.49-1.49s.81-.62,1.32-.17Z"/>
          <path class="cls-4" d="M162.19,17.47c.94,4.14-1.33,22.27,1.5,22.61,5.26.63.59-17.92,3.57-20.98,2.27-.17,4.97-.69,6.99-1.93,1.12,8.04,1.1,16.38,1.08,24.96-3.68,2.17-7.27.29-11.01.33s-7.41,1.91-11.02-.47l.12-24.76c2.37.41,6.43.04,8.78.25Z"/>
          <path class="cls-4" d="M135.22,19.23c.53,1.55-1.89,23.59,2.44,21.56.71-.33,2.34-1.46,2.36-2.69l.23-17.89c2.68-1.08,5.48-.88,8.2.03,1.62.35,1.52,1.75,1.24,3.38-1.09,6.53-.19,12.58-.44,19.66-7.08-.91-13.98-.05-20.96-.12-3.96-.04-3.42-4.34-3.83-6.74,3.32,1.33.67-5.96,2.98-9.89-1.17-.48-1.75-.23-2.28-.25.08-1.2-.39-2.84.07-4,1.84.21,1.77-2.06,2.3-3.9,2.44.3,2.62,2.55,4.21,3.59.84-1.87,1.94-2.95,3.46-2.73Z"/>
          <path class="cls-4" d="M170.71,68.45c-9.77-.68-17.98-1.03-27.84-.43l.57-13.86c3.97-1.05,7.79.02,11.91-.1l14.5-.45.86,14.83Z"/>
          <path class="cls-1" d="M189.99,17.25c-3.79-.75-7.07-1.94-10.78-.7-1.59.53-3.27-.4-4.95.63-2.03,1.24-4.73,1.76-6.99,1.93-.13-1.23-.85-2.16-1.73-2.64-1.48-.8-2.47.81-3.33,1.01-2.34-.2-6.41.17-8.78-.25-1.04-.18-2.73-2.33-3.94-.28-.44.75-.62,2.08-1.03,3.29-2.71-.91-5.51-1.11-8.2-.03.01-1.05.06-3.02-.63-3.7-.8-.79-2.4-.64-3.25.21-.53.54-.94,1.46-1.16,2.51-1.52-.22-2.62.87-3.46,2.73-1.6-1.04-1.77-3.29-4.21-3.59-.53,1.84-.46,4.11-2.3,3.9-.85-2.23-1.57-8.16,2.07-8.48,11.45-1,22.47-.22,34.06-.39l14.69-.21c2.12.07,6.86,3.53,7.34-.72,3.02-.19,6.55,1.44,6.6,4.76Z"/>
          <path class="cls-4" d="M189.99,17.25c.12,7.42.74,15.02-.37,23.1-.38,2.79-7.07,3.63-8.95,2.01-1.04-1.81-1.14-4.88-1.18-7.17l-.28-18.64c3.71-1.23,6.99-.04,10.78.7Z"/>
          <path class="cls-1" d="M124.47,36.43c-.58-3.46.47-6.67.7-10.15.53.02,1.11-.22,2.28.25-2.31,3.93.34,11.22-2.98,9.89Z"/>
          <path class="cls-4" d="M183.39,12.48c-.47,4.25-5.22.79-7.34.72,1.94-1.86,4.9-.57,7.34-.72Z"/>
          <path class="cls-2" d="M167.26,19.1c-2.98,3.06,1.7,21.62-3.57,20.98-2.83-.34-.56-18.47-1.5-22.61.86-.21,1.86-1.82,3.33-1.01.88.48,1.6,1.41,1.73,2.64Z"/>
          <path class="cls-2" d="M140.25,20.21l-.23,17.89c-.02,1.23-1.65,2.36-2.36,2.69-4.33,2.03-1.91-20.01-2.44-21.56.22-1.04.63-1.97,1.16-2.51.84-.85,2.44-1,3.25-.21.69.67.64,2.65.63,3.7Z"/>
        </g>
        <path class="cls-4" d="M77.4,148.02c.11.38.8.82.96,1.84-1.34.18-1.1,2.28-2,3.16-12.79,12.45-27.02,42.81-26.06,60.82.09,1.63-3.55,3.01-2.78,4.86-.98-.02-2.36.13-3.02.66-1.66,1.33-.86,6.44-.39,7.53,1.09,2.54,12.24,0,15.49,1.8-2.6,2.25-6.77.87-10.52.32-1.17,2.1,1.19,3.25,1.2,4.89.06,12.73,3.65,24.24,9.33,35.67,5.69,11.47,17.4,22.57,15.83,30.15,1.31-.4,1.71-1.29,2.65-1.2.29,3.53,2.7,6.73,6.43,6.29-.17,2.59,3.12,1.21,4.53,2.16,5.58,3.76,10.49,7.75,16.52,10.71,20.47,10.04,25.77,9.27,46.72,14-.11,1.27,1.16,2.56,1.12,3.82-.06,1.86,1.64,2.33,2.86,3.46-43.03.09-86.56-25.82-103.89-66.29-1.36-3.18-3.05-5.86-3.67-9.45-.27-1.56-2.7-2.64-2.12-4.38.87.03,2.55.23,2.77-.6.36-1.39-1.1-5.89-2.22-7.31-.47-.6-1.37-.59-2.42-.02-1.37-10-5.05-13.2-3.43-36.13s8.79-44.43,23.19-60.79c5.88,4.42,4.12-8.2,12.93-5.97Z"/>
        <path class="cls-4" d="M245.11,297.66c-6.7,11.03-17.94,18.86-29.28,25.84-12.66,7.79-25.95,12.43-40.66,14.11-4.64.53-8.65,1.98-12.99,1.01.07-1.23-.29-2.44-1.12-3.37.03-1.53,1.19-3.05,1.1-4.58,15.44,1.43,50.55-12.35,61.07-23.89,3.31-3.63,7.15.66,9.33.98,1.44.21.97-1.91,1.88-2.7,3.02-2.62,5.59-5.68,4.51-9.47,1.34-.02,2.72-.87,4.33-.5.87.2,1.22,1.77,1.84,2.56Z"/>
        <path class="cls-1" d="M103.48,120.06c4.92,2.41-5.47,2.91-5.87,8.19-2.36,1.18-12.93,8.13-13.08,3.92,5.22-5.22,12.05-9.35,18.95-12.11Z"/>
        <path class="cls-1" d="M46.57,258.84c.09-.28-.07-.71-.14-1-.11-.44-.25-1.56-.93-1.14l-.79-5.79c1.04-.57,1.94-.58,2.42.02,1.12,1.42,2.58,5.92,2.22,7.31-.22.84-1.9.63-2.77.6Z"/>
        <path class="cls-1" d="M161.05,335.25c.83.93,1.19,2.14,1.12,3.37-1.68-.38-4.14.34-5.92.34-1.23-1.13-2.92-1.6-2.86-3.46,2.53.79,5.08.01,7.66-.25Z"/>
        <path class="cls-4" d="M46.43,257.84c-.87.49-.87-.63-.93-1.14.68-.41.82.7.93,1.14Z"/>
        <g>
          <path class="cls-1" d="M152.83,116.12c-.34,3.87-1.59,11.41-.49,16.06.52,2.18,3.69,1.82,5.14,1.8l-.13,4.29c.03.89.03,1.78-.02,2.67-.13,2.72-.14,5.44.02,8.15l-.03,1.83c-.02,1.05-.02,2.11.01,3.16l-.04,3.82v1.18c-.18.43-.01,1.34-.01,1.86l.03,9.11.08,7.73c.02,2.15-.79,4.52.75,6.32-.15.5.21,1.21,0,1.68-2.11,4.71.83,14.39-.88,17.08-6.86-.46-12.78,3.82-16.11,8.54-4.7,6.66-4.28,12.89-2.54,20.33-1.98,6.05-11.91,10-9.71,15.22.88,2.1,2.91,6.1,6.2,4.35,4.56-2.43,7.64-7.1,11.42-11.28,11.91,5.4,17.52,4.05,26.61-5.09,2.29-.74,2.92,1.03,4.16,2.77,3.84,5.38,8.96,9.49,13.83,14.01,8.6,7.99,16.53,15.94,24.56,24.48,2.8,2.98,10.64,7.12,17.72,14.2,1.86,1.86,4.79,2.62,5.53,5.22,1.08,3.78-1.49,6.84-4.51,9.47-.91.79-.44,2.91-1.88,2.7-2.18-.32-6.02-4.61-9.33-.98-10.52,11.54-45.63,25.32-61.07,23.89-.51-9.2,1.86-17.77-4.43-18.02-8.01-.32-4.45,7.31-5.45,19.03-20.95-4.73-26.25-3.96-46.72-14-6.03-2.96-10.94-6.95-16.52-10.71-1.41-.95-4.71.43-4.53-2.16.27-3.42,6.34-5.36,11.47-12.71,1.81-2.6-3.58-7.48-5.9-5.7-4.73,3.62-8.77,7.75-12,12.12-.93-.09-1.34.8-2.65,1.2,1.57-7.57-10.13-18.67-15.83-30.15-5.68-11.44-9.26-22.94-9.33-35.67,0-1.64-2.37-2.79-1.2-4.89,3.74.55,7.92,1.93,10.52-.32,1.81-.12,4.18-.28,4.89-2.56,1.07-.4,2.19-1.25,2.6-2.12,1.08-2.27.5-2.49-1.66-3.26-1.47-.53-2.32-2.28-4.9-2.07-4.24.34-8.33.13-13.01.02-.77-1.85,2.87-3.23,2.78-4.86-.97-18.01,13.27-48.37,26.06-60.82.91-.88.66-2.98,2-3.16,4.1,2.62,7.07,6.73,10.9,10.28,2.08,1.93,4.79-.21,5.93-1.74,1.54-2.05,1.13-4.5-.84-6.5-6.78-6.87-10.05-11.9-15.12-8.61-1.25.81-1.83,2.32-1.83,4.72-8.82-2.23-7.05,10.39-12.93,5.97,3.5-7.15,9.35-12.99,15.32-18.18,1.48,1.09,1.68,2.98,2.96,3.5,2.27.94,3.75,1.17,5.59-.28,4.09-3.21,24.64-15.24,29.43-16.81,11.44-3.74,23.37-5.21,35.07-6.11ZM235.61,297.43c-3.59-3.85-7.22-7.05-10.99-10.29-1.96-1.68-5.3.45-5.44,2.06-.17,1.97.09,4.27,1.9,5.67,3.21,2.47,5.56,5.55,8.75,8.29,1.98,1.69,7.49-3.9,5.78-5.72Z"/>
          <path class="cls-3" d="M165.32,107.87c1.72.29,4.04.52,6.12.59,23.97.88,55.54,17.93,71.33,35.85,11.62,13.2,22.12,30.58,26.23,47.7,7.73,32.23,4.2,67.71-15.51,95.1-2.71,3.76-4.57,8.21-8.37,10.55-.63-.8-.97-2.36-1.84-2.56-1.6-.37-2.98.48-4.33.5-.74-2.61-3.67-3.36-5.53-5.22-7.08-7.07-14.91-11.22-17.72-14.2-8.03-8.54-15.96-16.48-24.56-24.48-4.87-4.52-10-8.63-13.83-14.01-1.24-1.74-1.87-3.51-4.16-2.77,7.24-12.55,4.05-10.08,3.44-21.77,3.52-4.09,6.9-7.74,9.7-12.47,2.56-4.33,17.37-16.58,25.52-30.12,1.2-2-1.16-3.91-2.53-4.49-3.44-1.45-21.76,16.58-25.52,20.36-4.83,4.87-10.33,8.93-14.48,14.32-1.61,2.09-2.87,2.68-5.86,2.1-.18-3.47-4.65-2.02-4.23-5.46.12-.96.65-1.97,1.84-2.98-4.04-4.1-.74-8.99-2.88-8.66.21-.47-.16-1.18,0-1.68,1.36-.46,1.08-2.27,1.21-3.65.1-1.08-.13-3.24-1.96-2.67l-.08-7.73c3.12.41.45-11-.03-9.11,0-.52-.17-1.42.02-1.86.52-.46-.02-.76-.01-1.18l.04-3.82c.11-.47,1.04-.97.87-1.61-.15-.56.08-1.91-.89-1.55l.03-1.83c3.31-1.3,1.74-5.92-.02-8.15.04-.89.04-1.78.02-2.67,2.91.53,1.53-3.81,2.73-5.14,2.35-2.6,2.02-18.21.94-22.1,0-.99.28-2.21,1.03-2.52,1.21-.5,2.27-.45,3.26-.65ZM223.86,160.24c4.99-4.2,9.78-8.28,13.24-13.57,1.3-1.98-4.56-6.67-6.22-5.17-3.99,3.59-6.31,7.82-10.65,10.65-1.96,1.28-2.36,3.98-1.49,5.71.67,1.33,3,4.17,5.12,2.38ZM268.07,228.53c2.23-2.4,3.16-8.44,0-9.2-5.54-1.33-11.42-.32-16.92-.23-3.21.05-3.59,4.07-2.99,5.95,1.71,5.4,11.48,1.43,19.9,3.48Z"/>
          <path class="cls-4" d="M165.32,107.87c-.99.21-2.06.16-3.26.65-.75.31-1.02,1.53-1.03,2.52-2.23.42-5.14-.97-7.43.38-1.47.87-.67,3.57-.77,4.7-11.7.89-23.63,2.36-35.07,6.11-4.78,1.57-25.34,13.6-29.43,16.81-1.84,1.45-3.32,1.21-5.59.28-1.28-.53-1.47-2.42-2.96-3.5,1.41-1.22,3.18-2.72,4.75-3.64.15,4.21,10.72-2.74,13.08-3.92.41-5.27,10.79-5.78,5.87-8.19,1.41-2.75,5.01-2.85,7.91-4.2,9.46-4.4,18.9-6.78,29.29-7.27,12.99-.61,6.99-3.73,24.64-.73Z"/>
          <path class="cls-2" d="M173.14,234.92c-9.1,9.14-14.7,10.49-26.61,5.09-3.78,4.18-6.86,8.85-11.42,11.28-3.29,1.75-5.32-2.25-6.2-4.35-2.2-5.22,7.72-9.17,9.71-15.22-1.74-7.44-2.16-13.67,2.54-20.33,3.33-4.72,9.25-9,16.11-8.54,2.52.17,4.53-.3,6.15.01,2.98.58,4.24-.01,5.86-2.1,4.16-5.39,9.65-9.45,14.48-14.32,3.76-3.79,22.08-21.82,25.52-20.36,1.37.58,3.73,2.49,2.53,4.49-8.14,13.54-22.96,25.78-25.52,30.12-2.8,4.74-6.18,8.39-9.7,12.47.61,11.69,3.8,9.21-3.44,21.77ZM153.89,233.29c7.12,2.34,13.54-2.02,14.75-8.37,1.05-5.53-2.07-10.86-8.03-13.75-3.63-1.76-8.1-.04-10.93,2.71-2.47,2.4-5.05,6.39-3.73,10.34,1.13,3.39,4.22,7.85,7.93,9.06Z"/>
          <path class="cls-2" d="M162.15,330.67c.08,1.52-1.07,3.05-1.1,4.58-2.58.26-5.13,1.04-7.66.25.04-1.25-1.22-2.55-1.12-3.82,1-11.72-2.56-19.35,5.45-19.03,6.29.25,3.91,8.82,4.43,18.02Z"/>
          <path class="cls-2" d="M161.03,111.04c1.08,3.89,1.41,19.5-.94,22.1-.85.22-1.7.84-2.6.85-1.45.02-4.62.38-5.14-1.8-1.11-4.65.14-12.19.49-16.06.1-1.13-.7-3.83.77-4.7,2.28-1.35,5.2.05,7.43-.38Z"/>
          <path class="cls-2" d="M78.36,149.86c-.16-1.02-.85-1.46-.96-1.84,0-2.4.57-3.91,1.83-4.72,5.06-3.28,8.34,1.74,15.12,8.61,1.97,2,2.39,4.44.84,6.5-1.15,1.53-3.86,3.67-5.93,1.74-3.83-3.55-6.8-7.66-10.9-10.28Z"/>
          <path class="cls-2" d="M47.51,218.7c4.68.11,8.76.32,13.01-.02,2.58-.21,3.43,1.55,4.9,2.07-.03,1.83-.56,3.6-.94,5.38-.7,2.28-3.08,2.44-4.89,2.56-3.24-1.8-14.4.74-15.49-1.8-.47-1.09-1.27-6.2.39-7.53.66-.53,2.04-.68,3.02-.66Z"/>
          <path class="cls-2" d="M84.51,304.81c-3.73.44-6.14-2.76-6.43-6.29,3.23-4.37,7.27-8.5,12-12.12,2.32-1.78,7.72,3.1,5.9,5.7-5.13,7.35-11.2,9.29-11.47,12.71Z"/>
          <path class="cls-2" d="M235.61,297.43c1.7,1.83-3.8,7.42-5.78,5.72-3.19-2.74-5.54-5.81-8.75-8.29-1.82-1.4-2.07-3.7-1.9-5.67.14-1.61,3.49-3.74,5.44-2.06,3.77,3.24,7.4,6.44,10.99,10.29Z"/>
          <path class="cls-4" d="M163.41,202.86c-1.61-.31-3.62.16-6.15-.01,1.72-2.69-1.23-12.37.88-17.08,2.13-.33-1.16,4.56,2.88,8.66-1.19,1.01-1.73,2.02-1.84,2.98-.42,3.44,4.05,1.99,4.23,5.46Z"/>
          <path class="cls-4" d="M158.15,184.09c-1.55-1.8-.73-4.17-.75-6.32,1.83-.57,2.06,1.59,1.96,2.67-.13,1.37.15,3.19-1.21,3.65Z"/>
          <path class="cls-4" d="M157.35,149.09c-.15-2.71-.15-5.43-.02-8.15,1.76,2.23,3.32,6.85.02,8.15Z"/>
          <path class="cls-4" d="M157.35,138.28l.13-4.29c.9-.01,1.75-.63,2.6-.85-1.2,1.32.18,5.66-2.73,5.14Z"/>
          <path class="cls-4" d="M157.32,170.05l-.03-9.11c.48-1.89,3.15,9.52.03,9.11Z"/>
          <path class="cls-4" d="M64.48,226.13c.38-1.78.92-3.55.94-5.38,2.16.77,2.74.99,1.66,3.26-.41.87-1.53,1.72-2.6,2.12Z"/>
          <path class="cls-4" d="M157.34,154.08c-.04-1.05-.03-2.11-.01-3.16.96-.36.74.99.89,1.55.17.64-.77,1.14-.87,1.61Z"/>
          <path class="cls-4" d="M157.31,159.08v-1.18c-.02.42.52.72,0,1.18Z"/>
          <path class="cls-2" d="M268.07,228.53c-8.42-2.05-18.19,1.92-19.9-3.48-.6-1.88-.22-5.9,2.99-5.95,5.5-.08,11.39-1.1,16.92.23,3.15.76,2.22,6.8,0,9.2Z"/>
          <path class="cls-2" d="M223.86,160.24c-2.12,1.79-4.45-1.05-5.12-2.38-.87-1.74-.47-4.44,1.49-5.71,4.34-2.83,6.66-7.06,10.65-10.65,1.66-1.49,7.52,3.19,6.22,5.17-3.46,5.29-8.26,9.37-13.24,13.57Z"/>
          <path class="cls-4" d="M153.89,233.29c-3.71-1.22-6.8-5.67-7.93-9.06-1.32-3.95,1.26-7.94,3.73-10.34,2.83-2.75,7.29-4.47,10.93-2.71,5.97,2.88,9.09,8.22,8.03,13.75-1.21,6.35-7.64,10.71-14.75,8.37Z"/>
        </g>
      </g>
    </g>
  </g>
</svg>