<?xml version="1.0" encoding="UTF-8"?>
<svg id="Layer_2" data-name="Layer 2" xmlns="http://www.w3.org/2000/svg" viewBox="0 0 385.01 387.99">
  <defs>
    <style>
      .cls-1 {
        fill: #beccbd;
      }

      .cls-2 {
        fill: #323d36;
      }

      .cls-3 {
        fill: #c0ed08;
      }

      .cls-4 {
        fill: #e3eae3;
      }
    </style>
  </defs>
  <g id="Layer_1-2" data-name="Layer 1">
    <g>
      <path class="cls-1" d="M231.19,304.26c-3.46-1.41-6.49-4.37-7.94-7.82,3.45,1.35,6.33,4.51,7.94,7.82Z"/>
      <path class="cls-1" d="M213.06,285.41c-3.31-.63-6.29-3.38-6.65-6.78,2.68,1.76,5.03,4,6.65,6.78Z"/>
      <path class="cls-1" d="M237.15,310.42c-2.16-.27-3.72-1.8-3.95-3.95,2.15.17,3.62,1.87,3.95,3.95Z"/>
      <path class="cls-1" d="M2.67,374.06c-.41,1.83-.5,3.93-1.87,5.31-.95-.9-.95-1.94-.52-2.92.53-1.23.98-2.89,2.4-2.39Z"/>
      <path class="cls-1" d="M277.87,175.54c-1.35,1.41-.67,1.97-2.78,2.93.05-1.57,1.27-2.69,2.78-2.93Z"/>
      <path class="cls-1" d="M382.97,323.5l-.08-3.44c.67.16,1.69.32,1.91.84.34.81.29,1.85-.48,2.27-.32.18-.86.24-1.35.33Z"/>
      <path class="cls-1" d="M241.34,314.35c-.53-.34-1.75.19-2.06-.67-.3-.81-.3-1.61-.18-2.34,1.36.4,2.32,1.56,2.24,3.01Z"/>
      <path class="cls-1" d="M40.76,375.35c.56.78-.18,1.53-.81,1.7-.59.16-1.11-.04-1.56,0-.52-.54-.24-.97.21-1.27.72-.48,1.48-.5,2.16-.43Z"/>
      <path class="cls-1" d="M35.87,377.24c.59.79-.32,1.5-.91,1.78-.54.25-1.13-.06-1.57.02-.57-.57-.19-.98.22-1.27.79-.55,1.56-.47,2.26-.53Z"/>
      <path class="cls-1" d="M2.71,385.22c-.55-.15-1.66.09-1.85-.63-.17-.64.07-1.17.01-1.59.56-.54.89-.22,1.22.23.47.64.66,1.32.61,2Z"/>
      <g>
        <path class="cls-2" d="M341.76,4.17c-.55.77.19,1.42.84,1.73.43.21.92.26,1.38.22,2.18,2.75,5.41,5.36,7.85,7.87-.15.72.06,1.52.72,1.92.41.25.94.28,1.4.2,3.71,4.18,7.89,8.23,12.1,11.96.26,1.93,1.73,3.38,3.62,3.76,1.79,3.64,5.79,5.26,8.35,9.15,6.34,9.64,7.87,24.39-.39,33.81-10.76,12.27-22.5,23.03-34.15,34.56l-13.56,13.4-18.9,18.91-16.48,16.49-16.68,17.41c-1.51.24-2.73,1.36-2.78,2.93-3.8,1.72-9.69,9.89-15.53,14.65l45.67,46.35c6.4,6.49,12.33,12.59,18.75,19.05l8.48,8.53c3.43,3.45,6.35,6.63,9.83,10.13l35.29,35.48c2.36,2.37,4.94,4.31,5.31,7.4l.08,3.44c-.59,3.97-4.03,6.81-7.01,9.88l-18.32,18.84c-8.84,9.09-18.23,17.24-26.58,26.95-2.47,2.87-5.87,4.8-8.48,7.48-5.4,5.57-16.91-7.83-19.93-11.03-6.36-6.74-12.86-13.04-19.51-19.48l-19.71-19.1c-4.5-4.36-20.49-21.67-22.1-22.7.08-1.45-.89-2.61-2.24-3.01-.65-.19-1.26-.83-1.94-.92-.33-2.08-1.8-3.78-3.95-3.95-.11-.99-1.3-1.7-2.01-2.21-1.61-3.31-4.49-6.48-7.94-7.82-.17-.41-.87-.85-1.16-1.15-.21-2.01-1.75-3.47-3.72-3.79-1.06-2.53-3.96-3.76-5.31-6.09-1.62-2.79-3.97-5.02-6.65-6.78-3.09-2.04-4.44-6.18-8-7.61.88-.9-8.26-11.06-7.88-6.99-6.06,4.98-10.9,11.09-16.83,17.07l-73.9,74.46c-15.65,4.52-29.75,10.68-45.15,15.47l-13.9,4.32c-.68-.08-1.44-.05-2.16.43-.45.3-.74.73-.21,1.27l-2.51.2c-.7.05-1.47-.02-2.26.53-.4.28-.79.69-.22,1.27-13.36,2.44-27.02,12.09-30.68,6.18.04-.67-.14-1.36-.61-2-.34-.45-.67-.77-1.22-.23-.15-1.11.18-2.56-.07-3.62,1.37-1.38,1.46-3.48,1.87-5.31.55-2.46.91-5.3,2.09-7.6,1.83-3.58,2.78-7.46,3.91-11.31,1.38-4.74,2.61-9.56,4.34-14.6l17.89-52.07c4.27-6.87,11.24-12.21,16.8-17.99l28.32-29.45,46.28-46.94c-17.24-15.51-29.22-29.87-44.72-44.37.14-.7,0-1.55-.65-1.85-.48-.22-1.01-.22-1.45-.2l-19.36-19.36-20.55-20.63c-.11-1.58-1.23-2.81-2.85-2.75L3.51,75.09c-3.86-3.95-4.1-9.65-.1-13.67L39.83,24.79c1.46-.06,2.5-1.17,2.68-2.59,5.83-4.71,10.83-10.71,16.06-16.05,1.41.04,2.7-.8,3.02-2.2,2.7-2.08,6.9-2.75,9.87.23l48.8,48.97,53.21,54.49c5.82,5.96,11.19,10.94,16.89,18.08l13.9-14.01,48.19-48.34c4.2-4.21,7.11-8.67,11.76-12.39,4.21-3.36,7.11-8.13,11.08-11.84,9.55-8.91,18.27-18.07,26.9-27.28,1.52-1.62,3.93-2.59,4.7-4.92,3.45-.15,13.62-13.49,34.86-2.77ZM302.72,41.07c.33.61.77,1.38,1.38,1.83.43.32.87.8,1.21,1.22,11.85,14.62,29.88,28.7,42.76,44.49l13.24-13.45c4.09-4.16,9.66-8.08,10.19-14.41.59-7-3.3-13.41-8.19-18.19-6.2-6.06-11.91-11.81-17.55-18.37-1.96-2.28-4.14-4.51-6.7-5.16-3.85-5.27-10.52-8.88-17.25-6.24-7.73,3.04-13.28,9.15-18.81,15.04l-7.39,7.86c2.84,2.1,4.73,4.3,7.12,5.39ZM42.66,38.96c-10.06,8.95-19.38,18.59-29.51,29.23,6.25,7.68,13.03,14.18,19.94,21.11l36.85,36.97,14.92,15.05c3.92,3.96,7.81,7.35,11.47,11.55,4.5,5.16,9.75,9.47,14.52,14.4l18.5,19.09,39.58-40.01c4.16-4.2,8.59-7.68,11.39-12.36.63-1.05,1.35-2.05.88-3.5-.44-1.37-2.4-1.53-3.59-1.92-2.15-3.98-6.63-6.61-10.5-10.38-7.26,5.5-12.98,11.67-19.32,17.95-1.26,1.25-3.58,1-4.48.29s-2.09-3.57-.96-4.76l19.6-20.78c-5.26-4.78-10.21-8.99-14.69-14.55-4.98,1.74-13.48,17.75-18.07,12.38-1.05-1.22-1.84-3.5-.08-5.2l12.83-12.39-15.68-15.81-11.22,11.03c-6.23,6.13-10.13,12.44-13.75,9.1-1.91-1.77-2.25-4.85.22-6.65,3.86-2.81,6.53-6.55,9.91-9.87s7.39-5.55,9.45-10.09c-5.38-4.49-10.13-8.72-14.99-14.04-4.29,1.78-12.97,15.78-16.99,12.2-1.61-1.43-1.61-4.07-.71-5.97l12.02-11.94-13.78-13.35c-5.87,5.28-12.58,10.58-16.72,16.33.67-.94-5.29,5.83-9.09,3.38-1.13-.73-1.77-2.83-2.07-4.52,3.37-2.21,6.38-5.57,8.24-9.11.75-.2,1.22-1.17,1.83-1.53,4.68-2.78,8.1-6.81,12.56-11.24l-15.25-13.9-9.43,8.92c-5.05,4.77-9.05,10.61-13.85,14.88ZM289.06,61.9c.31.24.87.74,1.03,1.07.45,1.31,1.4,2.21,2.35,3.16l22.3,22.04c4.52,4.47,8,9.61,13.34,13.48.93.67,1.91,4.29,3.82,3.19,3.71-2.13,5.84-5.91,9.39-9.22l-15.7-14.35c-5.49-5.02-10.29-10.15-15.26-15.71-1.67-1.87-3.07-3.94-5.27-4.45l-16.53-18.71c-3.98,3.34-6.81,5.81-9.69,9.7,3.49,3.65,6.57,7.07,10.2,9.82ZM273.34,66.96c7.46,8.84,16.57,17.51,25.29,26.43l20.63,21.08c.55.56,1.33.96,1.95.95s.3-1.25.67-1.43c.97-.47,1.65-1.41,2.3-2.24-.15.19,3.48-1.01,2.75-2.35-.64-1.18-2.27-.25-2.76-.69l-13.07-12.84c.39-1.78-1.13-2.23-2.15-3.06-8.02-6.59-26.7-26.29-34.75-35.14-2.46-.05-5.28,3-5.03,5,.31,2.49,3.09,3.01,4.17,4.3ZM184.39,147.74c-1.98,1.98-4.57,3.51-6.12,6.01-1.67,2.68-4.78,4.24-7.12,6.75l-11.56,12.42-23.45,23.53-73.51,74.97c-1.39.59-2.51,1.66-3.15,3.03-.08.18-.08.57-.04.77-1.47,0-2.28,1.08-3.08,2.11-2.72,3.48-7.13,6.23-9.42,10.29-1.76,3.11,2.42,5.11,3.8,6.71,4.46,5.12,11.62,3.21,16.23-1.51l28.59-29.26,55.58-56.24,57.74-58.97,7.52-7.47c6.79-6.75,12.95-13.39,19.69-20.25l36.79-37.41c-1.91-3.44-5.06-7.02-8.72-8.4-.22-1.48-1.19-3.51-3.34-4.09l-34.68,34.91-16.88,17.17-24.87,24.95ZM276.28,91.95c-9.7,8.06-17.86,17.57-27.07,26.92l-52.43,53.18-14.99,15.07-19.31,19.67-54.02,54.67-41.78,43.05.11,2.83c.2,4.95,2.54,9.31,7.53,11.07,3.62,1.27,7.73,1.63,10.86-1.45l34.62-34.12c1.75-1.72,2.61-3.96,4.53-5.51,6.66-5.36,12.32-11.44,18.32-17.6l17.76-18.23,41.06-40.65c5-4.95,9.75-9.54,14.38-14.75,5.66-6.36,11.8-11.94,17.86-17.95l9.53-9.43,7.78-8.11,18.7-18.29,25.68-26.13c-4.68-4.49-8.37-10.26-14.15-13.52-.34-.93-.58-2.61-1.6-2.87-1.42-.37-2.42.69-3.36,2.15ZM299.87,109.71l-216.57,219.81,13.74,13.54,216.57-219.81-13.74-13.54ZM361.79,331.21c1.77-.58,2.25-2.76,4.28-3.98,1.19-.72,2.28-.48,2.64-2.78.18-1.15,1.7-1.66,1.14-3.27-.49-1.42-2.04-1.49-3.11-3-2.72-3.83-5.68-8.16-10.52-10.16-3.69,3.37-6.63,6.56-9.58,10.04-2.91,3.44-6.6,5.99-10.02,9.01-1.56,1.38-3.92.25-4.82-.92-1.31-1.7-.77-3.41.88-5.15,6.22-6.56,12.87-12.33,18.52-19.42-1.78-2.99-4.64-4.33-6.81-6.58-2.92-3.03-5.12-6.85-8.92-8.68-3.61,3.06-13.29,15.47-16.6,13.63-7.27-4.04,6.4-13.76,10.82-18.11,2.2-2.16-12.12-12.06-14.61-16.93-4,5.71-8.85,9.48-13.27,14.33-2.57,2.81-4.56,6.4-8.73,7.18-1.92.36-3.71-.41-4.47-1.94-.64-1.29-.19-3,1.22-4.36l20.04-19.39c-.89-2.75-3.17-3.43-4.77-5.12-3.27-3.46-6.1-7.27-10.07-10.22l-14.32,13.57c-1.96,1.86-4.41-.48-4.92-2.34-.57-2.05.62-3.4,2.31-5.12l11.57-11.78-14.35-14.51-14.48,13.99c-2.55,2.47-5.15,4.9-8.05,7.03-1.52,1.12-3.54-1.28-3.85-2.46-.4-1.52.57-3.33,1.88-4.65,6.43-6.48,12.59-12.47,18.74-19.72l-17.42-17.67c-6.12,6.29-12.44,11.46-17.94,17.75-3.51,4.02-7.3,7.18-11.03,10.97l-14.93,15.15-9.34,9.98,26.7,26.54,92.64,93.05,9.74-9c3.78-3.5,6.61-7.98,10.54-11.3s7.65-6.89,11.16-10.92c3.84-4.41,9.11-7.32,12.14-12.76ZM34.81,346.43c.4.36,1.1.95,1.66,1.08.81,1.42,2.09,2.69,3.75,3.04.64,3.27,1.6,6.69,3.21,10.08.57,1.21,3.5.61,4.63.2l40.3-14.28c-6.47-5.02-9.97-10.16-9.03-18.02-13.12.82-20.68-8.6-22.53-20.14,3.01-6.76-3.85-.77-8.9-4.44-2.55-1.85-4.85-3.86-8.38-4.82l-14.14,39.86c-.44,1.23-.46,2.54-.22,3.37.37,1.29,1.91,1.49,3.44,2l6.2,2.06ZM33.8,365.65c-.85-3.18-.5-6.31-2.38-8.48s-7.5-4.91-9.72-3.33c-3.26,4.12-2.86,10-5.56,14.27-6.71,10.6,14.11-1.36,17.67-2.45Z"/>
        <path class="cls-1" d="M198.41,271.02c-5.35-2.14-6.12-9.19-7.88-6.99-.38-4.07,8.76,6.08,7.88,6.99Z"/>
        <path class="cls-1" d="M8.66,355.15c-1.12,3.85-2.08,7.73-3.91,11.31-.53.34-1-.48-.93-1.12l2.91-9.06c.33-1.03,1.33-1.45,1.93-1.13Z"/>
        <path class="cls-1" d="M306.9,6.94c-.78,2.33-3.19,3.3-4.7,4.92.12-2.7,1.98-4.8,4.7-4.92Z"/>
        <path class="cls-1" d="M369.67,31.81c-1.89-.38-3.37-1.83-3.62-3.76,1.54,1.36,2.56,1.59,3.62,3.76Z"/>
        <path class="cls-1" d="M222.09,295.29c-1.98-.48-2.99-2.07-3.72-3.79,1.97.33,3.51,1.78,3.72,3.79Z"/>
        <path class="cls-1" d="M35.57,107.69c-1-1.01-1.89-1.77-2.85-2.75,1.63-.06,2.75,1.17,2.85,2.75Z"/>
        <path class="cls-1" d="M343.98,6.11c-.46.05-.95,0-1.38-.22-.65-.31-1.4-.96-.84-1.73.62-.03,1.62-.22,2,.46.25.45.11,1.11.22,1.48Z"/>
        <path class="cls-1" d="M353.95,16.1c-.46.08-.99.05-1.4-.2-.66-.4-.87-1.2-.72-1.92.53.18,1.55.03,1.85.71.21.46.2,1.02.27,1.41Z"/>
        <path class="cls-1" d="M77.59,149.73c-.38-.34-1.51-.05-1.82-.73-.19-.41-.22-.93-.28-1.33.44-.02.97-.02,1.45.2.65.3.79,1.15.65,1.85Z"/>
        <path class="cls-1" d="M281.23,92.67c5.78,3.26,9.47,9.03,14.15,13.52l-25.68,26.13-18.7,18.29-7.78,8.11-9.53,9.43c-6.06,6-12.2,11.59-17.86,17.95-4.63,5.2-9.38,9.8-14.38,14.75l-41.06,40.65-17.76,18.23c-6,6.16-11.66,12.24-18.32,17.6-1.92,1.54-2.78,3.78-4.53,5.51l-34.62,34.12c-3.13,3.08-7.24,2.73-10.86,1.45-4.99-1.76-7.33-6.11-7.53-11.07.85-.02,2.27.32,2.68-.54.36-.76.23-2.05-.43-2.18-.83-.16-1.68.07-2.37-.11l41.78-43.05,54.02-54.67,19.31-19.67,14.99-15.07,52.43-53.18c9.21-9.35,17.37-18.86,27.07-26.92.32.93.95,1.47,1.62,1.62,1.22.28,2.95.3,3.34-.9Z"/>
        <rect class="cls-1" x="44.16" y="216.74" width="308.58" height="19.29" transform="translate(-102.09 208.85) rotate(-45.42)"/>
        <path class="cls-1" d="M50.74,294.33c1.31-.04,2.88.6,4.31-1.34-2.64-1.36-4.56-2.57-5.64-5.76,3.83-.99,6.47-3.21,9.08-5.88l26.73-27.25c8.8-8.97,17.5-17.41,26.14-26.59,2.64-2.8,6.22-4.39,8.63-7.42s5.12-5.78,8.78-7.23c.97-.76.36-3.96,1.95-4.86,3.29-1.86,5.04-4.89,7.6-7.47,4.52-4.57,9.47-8.4,13.29-13.59,4.5-1.72,7.07-5.6,9.85-9.13,2.6-3.3,5.57-5.86,8.53-8.75l32.18-31.33c3.43-3.34,5.74-7.37,9.6-10.55,2.02-1.66,4.03-3.26,5.88-5.28l12.28-13.34c4.06-4.41,7.89-8.63,12.3-12.63l10.98-9.96c4-3.63,6.6-8.34,10.96-11.17,3.66,1.39,6.81,4.96,8.72,8.4l-36.79,37.41c-6.74,6.86-12.9,13.5-19.69,20.25l-7.52,7.47-57.74,58.97-55.58,56.24-28.59,29.26c-4.61,4.72-11.78,6.63-16.23,1.51Z"/>
        <path class="cls-1" d="M305.31,44.12c1.03.73,1.44-1.13,1.6-1.77.32-1.3-1.06-1.71-1.93-1.24-.7.38-.73,1.21-.88,1.79-.61-.45-1.05-1.21-1.38-1.83.58-.68,1.29-1.45,1.2-2.48-.1-1.09-2.09-1.67-2.37-2.86-.37-1.6,1.99-1.8,2.97-1.84,1.82-.08,1.93,2.81,2.85,3.97,5.81,7.33,12.68-14.04,30.18-11.46,3.99.59,6.23,5.55,10.98,5-1.69-4.44-5.36-6.76-8.23-9.68-.85-.87-.77-2.05-1.24-2.69,2.56.65,4.75,2.89,6.7,5.16,5.64,6.57,11.36,12.32,17.55,18.37,4.9,4.78,8.78,11.19,8.19,18.19-.53,6.33-6.1,10.25-10.19,14.41l-13.24,13.45c-12.88-15.79-30.91-29.87-42.76-44.49Z"/>
        <path class="cls-4" d="M264.16,74.81c-4.35,2.83-6.96,7.55-10.96,11.17l-10.98,9.96c-4.41,4-8.23,8.22-12.3,12.63l-12.28,13.34c-1.85,2.01-3.86,3.61-5.88,5.28-3.86,3.18-6.17,7.21-9.6,10.55l-32.18,31.33c-2.96,2.88-5.93,5.45-8.53,8.75-2.78,3.52-5.35,7.41-9.85,9.13-3.82,5.19-8.77,9.02-13.29,13.59-2.55,2.58-4.31,5.61-7.6,7.47-1.59.9-.98,4.1-1.95,4.86-3.66,1.45-6.38,4.21-8.78,7.23s-5.99,4.61-8.63,7.42c-8.64,9.18-17.34,17.62-26.14,26.59l-26.73,27.25c-2.62,2.67-5.25,4.89-9.08,5.88,1.07,3.19,3,4.4,5.64,5.76-1.43,1.94-3,1.3-4.31,1.34-1.39-1.59-5.56-3.59-3.8-6.71,2.3-4.06,6.7-6.8,9.42-10.29.74.02,1.65.33,2.64.05.72-.2.56-1.47.44-2.16-.03-.2-.04-.58.04-.77.96.16,2.35.37,2.92-.64.4-.7.19-1.66.23-2.4l73.51-74.97,23.45-23.53,11.56-12.42c2.34-2.51,5.45-4.07,7.12-6.75,3.04-.42,5.87-2.88,6.12-6.01l24.87-24.95,16.88-17.17,34.68-34.91c2.15.58,3.12,2.61,3.34,4.09Z"/>
        <path class="cls-1" d="M56.81,308.4c1.85,11.54,9.41,20.96,22.53,20.14-.94,7.85,2.56,12.99,9.03,18.02l-40.3,14.28c-1.14.4-4.06,1-4.63-.2-1.61-3.38-2.57-6.81-3.21-10.08-.23-1.18.92-2.62-.66-3.74-.99-.7-2.18-.56-3.09.7-.56-.13-1.26-.72-1.66-1.08,2.28-7.63,10.61-27.51,14.76-34.77,1.74-3.04,4.04-4.43,7.24-3.26Z"/>
        <path class="cls-1" d="M305.07,61.1c2.2.52,3.6,2.59,5.27,4.45,4.97,5.56,9.77,10.7,15.26,15.71l15.7,14.35c-3.55,3.31-5.69,7.09-9.39,9.22-1.91,1.1-2.89-2.52-3.82-3.19-5.34-3.87-8.82-9.01-13.34-13.48l-22.3-22.04c1.14.56,1.82-1.19,1.82-2.02,0-.91-1.11-1.94-1.75-1.91-.81.04-1.78.26-2.43.77-.17-.33-.72-.83-1.03-1.07,1.77.06.76-7.21,5.3-7.4,4.08,4.25,6.65,9.58,12.69,11.5-.91-1.69-1.08-3.88-1.98-4.9Z"/>
        <path class="cls-4" d="M339.05,19.01c.47.65.39,1.82,1.24,2.69,2.87,2.93,6.54,5.25,8.23,9.68-4.75.55-6.99-4.41-10.98-5-17.5-2.58-24.37,18.79-30.18,11.46-.92-1.16-1.03-4.05-2.85-3.97-.98.04-3.34.25-2.97,1.84.28,1.18,2.27,1.77,2.37,2.86.09,1.03-.62,1.8-1.2,2.48-2.39-1.09-4.28-3.3-7.12-5.39l7.39-7.86c5.53-5.89,11.09-12,18.81-15.04,6.73-2.65,13.4.97,17.25,6.24Z"/>
        <path class="cls-4" d="M56.81,308.4c-3.2-1.17-5.5.22-7.24,3.26-4.16,7.27-12.48,27.15-14.76,34.77l-6.2-2.06c-1.53-.51-3.08-.71-3.44-2-.24-.83-.21-2.14.22-3.37l14.14-39.86c3.53.96,5.83,2.97,8.38,4.82,5.05,3.67,11.9-2.32,8.9,4.44Z"/>
        <path class="cls-4" d="M308.95,92.8c-.09.7-.18,1.52.22,2.3.32.62,1.31.63,1.93.77l13.07,12.84c.12,1.01.12,2.03,0,3.04-.65.83-1.33,1.77-2.3,2.24-2.16.49-1.68-2.33-2.56-3.69-4.45-6.93-17.24-18.12-17.86-18.84l-9.72-11.2c-4.21-4.85-10.02-7.79-13.97-13.07-1.29-.59-3.41-.08-4.43-.23-1.09-1.29-3.86-1.81-4.17-4.3-.25-2,2.57-5.05,5.03-5,8.05,8.86,26.73,28.55,34.75,35.14Z"/>
        <path class="cls-1" d="M321.88,113.99c-.37.18-.05,1.42-.67,1.43s-1.4-.39-1.95-.95l-20.63-21.08c-8.72-8.91-17.83-17.59-25.29-26.43,1.02.15,3.14-.36,4.43.23,3.95,5.27,9.76,8.21,13.97,13.07l9.72,11.2c.63.72,13.42,11.91,17.86,18.84.87,1.36.4,4.18,2.56,3.69Z"/>
        <path class="cls-3" d="M33.8,365.65c-3.56,1.09-24.38,13.05-17.67,2.45,2.7-4.27,2.3-10.15,5.56-14.27,2.23-1.58,7.92,1.25,9.72,3.33s1.53,5.31,2.38,8.48Z"/>
        <path class="cls-4" d="M305.07,61.1c.9,1.02,1.07,3.21,1.98,4.9-6.04-1.92-8.61-7.25-12.69-11.5-4.54.19-3.53,7.47-5.3,7.4-3.63-2.76-6.71-6.17-10.2-9.82,2.88-3.88,5.71-6.36,9.69-9.7l16.53,18.71Z"/>
        <path class="cls-4" d="M281.23,92.67c-.39,1.2-2.12,1.18-3.34.9-.67-.15-1.3-.69-1.62-1.62.94-1.46,1.94-2.52,3.36-2.15,1.01.26,1.26,1.94,1.6,2.87Z"/>
        <path class="cls-4" d="M40.22,350.56c-1.66-.35-2.94-1.63-3.75-3.04.91-1.26,2.1-1.4,3.09-.7,1.58,1.13.43,2.56.66,3.74Z"/>
        <path class="cls-4" d="M292.45,66.13c-.96-.95-1.91-1.85-2.35-3.16.66-.52,1.62-.73,2.43-.77.63-.03,1.76,1,1.75,1.91,0,.83-.68,2.58-1.82,2.02Z"/>
        <path class="cls-4" d="M66.78,307.35l-.11-2.83c.69.17,1.54-.06,2.37.11.66.13.79,1.42.43,2.18-.41.86-1.84.52-2.68.54Z"/>
        <path class="cls-1" d="M178.27,153.75c1.55-2.5,4.15-4.02,6.12-6.01-.25,3.13-3.08,5.59-6.12,6.01Z"/>
        <path class="cls-1" d="M324.19,111.74c.12-1.01.11-2.03,0-3.04.49.44,2.11-.49,2.76.69.73,1.34-2.9,2.54-2.75,2.35Z"/>
        <path class="cls-4" d="M305.31,44.12c-.34-.42-.78-.9-1.21-1.22.15-.58.18-1.41.88-1.79.86-.47,2.25-.06,1.93,1.24-.16.64-.57,2.5-1.6,1.77Z"/>
        <g>
          <path class="cls-1" d="M366.74,318.18c-5.62-.21-2.8,7.41-6.09,8.9-2.15.98-2.33,2.39-3.38,5,1.12-1.26,2.91-.95,4.53-.87-3.03,5.44-8.3,8.34-12.14,12.76-3.52,4.04-7.09,7.48-11.16,10.92s-6.76,7.8-10.54,11.3l-9.74,9-92.64-93.05-26.7-26.54,9.34-9.98,14.93-15.15c3.73-3.79,7.52-6.95,11.03-10.97,5.5-6.29,11.82-11.46,17.94-17.75l17.42,17.67c-6.15,7.25-12.3,13.25-18.74,19.72-1.31,1.32-2.28,3.13-1.88,4.65.31,1.17,2.33,3.58,3.85,2.46,2.9-2.14,5.5-4.57,8.05-7.03l14.48-13.99,14.35,14.51-11.57,11.78c-1.69,1.72-2.88,3.07-2.31,5.12.52,1.86,2.96,4.2,4.92,2.34l14.32-13.57c3.97,2.94,6.8,6.76,10.07,10.22,1.6,1.69,3.88,2.37,4.77,5.12l-20.04,19.39c-1.41,1.36-1.87,3.07-1.22,4.36.76,1.53,2.54,2.3,4.47,1.94,4.17-.78,6.17-4.37,8.73-7.18,4.43-4.85,9.28-8.62,13.27-14.33,2.49,4.87,16.81,14.77,14.61,16.93-4.42,4.35-18.09,14.07-10.82,18.11,3.32,1.84,12.99-10.57,16.6-13.63,3.81,1.83,6,5.65,8.92,8.68,2.17,2.25,5.02,3.59,6.81,6.58-5.64,7.1-12.3,12.86-18.52,19.42-1.65,1.74-2.19,3.45-.88,5.15.9,1.17,3.27,2.3,4.82.92,3.41-3.02,7.11-5.57,10.02-9.01,2.95-3.48,5.89-6.67,9.58-10.04,4.84,2,7.8,6.33,10.52,10.16Z"/>
          <path class="cls-4" d="M366.74,318.18c1.07,1.51,2.62,1.58,3.11,3,.55,1.61-.96,2.13-1.14,3.27-1.33.39-2.12,1.55-2.64,2.78-2.03,1.22-2.51,3.4-4.28,3.98-1.62-.08-3.41-.4-4.53.87,1.06-2.61,1.24-4.02,3.38-5,3.29-1.5.47-9.11,6.09-8.9Z"/>
          <path class="cls-1" d="M368.71,324.45c-.36,2.31-1.45,2.06-2.64,2.78.52-1.23,1.31-2.39,2.64-2.78Z"/>
        </g>
        <path class="cls-1" d="M59.48,274.46c.64-1.37,1.76-2.44,3.15-3.03-.03.74.17,1.7-.23,2.4-.57,1.01-1.95.79-2.92.64Z"/>
        <path class="cls-1" d="M311.11,95.86c-.63-.13-1.62-.14-1.93-.77-.39-.78-.31-1.59-.22-2.3,1.02.84,2.54,1.29,2.15,3.06Z"/>
        <path class="cls-1" d="M59.44,275.22c.12.69.28,1.96-.44,2.16-.99.28-1.9-.03-2.64-.05.81-1.03,1.62-2.12,3.08-2.11Z"/>
        <g>
          <path class="cls-1" d="M42.51,22.2c-.18,1.42-1.22,2.54-2.68,2.59.96-.97,1.6-1.72,2.68-2.59Z"/>
          <path class="cls-1" d="M61.59,3.95c-.33,1.4-1.62,2.24-3.02,2.2.06-.66.04-1.59.66-1.99.7-.45,1.85.07,2.37-.21Z"/>
          <path class="cls-1" d="M68.63,40.3c-.61.36-1.08,1.33-1.83,1.53.46-4.73-14.66,9.38-8.24,9.11.3,1.69.94,3.79,2.07,4.52,3.8,2.45,9.76-4.32,9.09-3.38,2.57,8.34,12.98-14.81,18.37-10.22,1.56,1.32,1.49,3.11.4,5.39.23,2.17,1.48,2.12,2.26-.35,1.73-.25,2.23,1.35,2.62,2.74.22.79-.08,2.13-.99,3.04l-5.02,5.05c-.66.67-.83,1.43-.48,2.14.22.44.76.87,1.32,1.17-.9,1.9-.89,4.54.71,5.97,4.02,3.58,12.69-10.42,16.99-12.2,4.86,5.32,9.61,9.55,14.99,14.04-2.07,4.54-6.18,6.88-9.45,10.09s-6.05,7.06-9.91,9.87c-2.47,1.8-2.13,4.89-.22,6.65,3.62,3.34,7.52-2.97,13.75-9.1l11.22-11.03,15.68,15.81-12.83,12.39c-1.76,1.7-.97,3.97.08,5.2,4.59,5.37,13.09-10.63,18.07-12.38,4.48,5.56,9.43,9.77,14.69,14.55l-19.6,20.78c-1.13,1.2.1,4.09.96,4.76s3.22.95,4.48-.29c6.34-6.28,12.06-12.45,19.32-17.95,3.87,3.77,8.35,6.4,10.5,10.38.38,2.57-.68,4.63-2.4,7.08,2.2-.52,3.35-1.75,5.11-1.66-2.8,4.68-7.23,8.16-11.39,12.36l-39.58,40.01-18.5-19.09c-4.77-4.92-10.02-9.23-14.52-14.4-3.66-4.2-7.55-7.59-11.47-11.55l-14.92-15.05-36.85-36.97c-6.91-6.93-13.7-13.44-19.94-21.11,10.13-10.63,19.45-20.28,29.51-29.23.58,3.76,10.15-5.74,10.99-6.93,2.66-3.76,6.5-5.97,9.49-9.44,1.49-1.73,3.63-2.07,5.64-1.59,2.5.6,4.93,8.24,4.88,7.51.1,1.52-1.59,1.99-2.8,2.91-.28.22-7.49,12.12-2.24,8.88Z"/>
          <path class="cls-4" d="M68.63,40.3c-5.26,3.24,1.96-8.67,2.24-8.88,1.21-.92,2.9-1.39,2.8-2.91.05.73-2.38-6.92-4.88-7.51-2-.48-4.15-.14-5.64,1.59-2.99,3.47-6.83,5.68-9.49,9.44-.84,1.19-10.41,10.69-10.99,6.93,4.8-4.27,8.81-10.11,13.85-14.88l9.43-8.92,15.25,13.9c-4.46,4.43-7.88,8.46-12.56,11.24Z"/>
          <path class="cls-4" d="M88.19,61.04c-.56-.3-1.1-.72-1.32-1.17-.35-.72-.19-1.48.48-2.14l5.02-5.05c.91-.91,1.21-2.25.99-3.04-.38-1.39-.89-2.98-2.62-2.74-.78,2.47-2.03,2.52-2.26.35,1.09-2.28,1.15-4.07-.4-5.39-5.39-4.59-15.8,18.57-18.37,10.22,4.13-5.75,10.85-11.05,16.72-16.33l13.78,13.35-12.02,11.94Z"/>
          <path class="cls-4" d="M66.8,41.84c-1.87,3.54-4.87,6.9-8.24,9.11-6.41.27,8.7-13.83,8.24-9.11Z"/>
          <path class="cls-4" d="M180.32,133.99c-1.76-.09-2.92,1.14-5.11,1.66,1.72-2.44,2.78-4.51,2.4-7.08,1.19.39,3.15.55,3.59,1.92.47,1.45-.25,2.44-.88,3.5Z"/>
        </g>
      </g>
    </g>
  </g>
</svg>