<?xml version="1.0" encoding="UTF-8"?>
<svg id="Layer_2" data-name="Layer 2" xmlns="http://www.w3.org/2000/svg" viewBox="0 0 391.23 383.12">
  <defs>
    <style>
      .cls-1 {
        fill: #bfcdbc;
      }

      .cls-2 {
        fill: #c0ed08;
      }

      .cls-3 {
        fill: #364038;
      }

      .cls-4 {
        fill: #e3eae3;
      }
    </style>
  </defs>
  <g id="Layer_1-2" data-name="Layer 1">
    <g>
      <path class="cls-1" d="M2.32,382.77c-.65-.03-1.85.88-2.25-.2-.2-.53.09-1.22.09-1.65.43-.02.89.04,1.27.26.55.32,1.53.85.89,1.59Z"/>
      <g>
        <path class="cls-1" d="M253.68,381.95c.5-.7,1.14-1.28,1.85-1.75.36.73.76,1.49-.35,2.19-.45.28-.97-.27-1.5-.44Z"/>
        <g>
          <path class="cls-1" d="M84.65,293c5.55,1.77,4.87-6.27,11.48-2.17,6.03,3.74,10.18,9.19,14.65,14.5,3.33,3.95,4.41,8.18,6.07,12.94,1.98,5.68,4.97,10.61,4.73,17.11-.03.82.54,2.19,1.04,2.84s2.1-.13,2.93-.29c3.21,3.75.17,16.2,5.73,14.35,1.05-.35.97-1.76,1.76-3l25.18-39.48,19.8,11.1c-4.07,8.38-7.43,15.79-11.14,23.53l-14.2,29.68c-1.13,2.37-1.97,4.61-1.94,6.89-11.25,1.62-22.8,1.28-34.08-.09l-.19-35.64c-.02-4.09-.78-7.93-.7-12.06.04-2.26-1.41-4.19-2.77-4.78-1.13-.49-4.51-.74-4.76,1.04-1.5,10.65,1.1,31.43.38,42.65-.23,3.52-.03,6.87,1.17,9.67-2.81-1.71-4.16-1.04-7.4-.26-2.37.57-6.12-.25-8.87-.25l-18.3.02c-7.69,0-15.04.19-22.32-.14l-.52-11.64c-.25-5.51,3.05-34.96-2.13-36.31-8.3-2.16-5.2,9.86-5.66,23.89-1.3-.37-1.5-2.25-1.53-3.85l-.32-19.19c-2.42,2.94-1.41,6.29-1.45,9.67l-.38,34.23c-.02,1.54-.95,2.47-1.64,3.08.26-.23-28.01.4-30.44-.19v-44.62c.02-22.96,7.96-42.22,27.84-54.17,2.33-1.4,4.09-3.49,6.88-3.48,17.98,23.43,38.11,13.47,41.08,14.41Z"/>
          <path class="cls-3" d="M124.79,181.3c.09,1.43-.5,3.48.88,4.38-.04,1.18.17,2.47.2,3.66.06,2.8-.88,5.85.76,8.28-.52,7.76,1.71,15.47,3.72,23.35,3.56,13.99-9.31,7.99-7.14,18.8,3.17,15.84-14.75,30.44-30.95,29.7-.69,1.51-.68,3.49,1.05,4.13,1.09.41,2.69,1.08,4.24,1.05-.67.82.49,1.12.94,1.4.41.25,1.13.03,1.41.3,1.51,1.44,4.1,1.64,5.94,3.12,17.72,14.24,21.91,30.06,28.11,51.75l17.28-27.37c6.13-9.72-.62-18.01,14.3-30.8,5.13-4.4,10.68-11.45,18.26-11.17,5.88.22,6.82,8.84,7.27,13.8,7.1-3.48,12.42-8.15,19.79-9.38,6.34-1.06,13.39,3.41,15.85,9.74,2.07,5.32,1.29,12.79-1.33,18.06-8.77,17.62-24.54,16.61-38.88,25.99-3.48,12.08-8.64,22.78-14.1,33.81-4.29,8.65-7.07,17.66-11.92,25.88-1.18,1.99-3.35,3.26-5.2,3.29-1.74.02-3.47-.59-4.51-2.06-.03-2.29.81-4.52,1.94-6.89l14.2-29.68c3.7-7.74,7.06-15.15,11.14-23.53l-19.8-11.1-25.18,39.48c-.79,1.24-.71,2.65-1.76,3-5.55,1.84-2.52-10.61-5.73-14.35-.1-.83.28-1.73.1-2.55-.46-2.15-.29-4.75-1.91-6.36l-.07-1.64c-.02-.43.08-.93-.08-1.5-.14-.5-.66-1.6-1.48-.95-.15-3.32-1.64-6.35-2.31-9.57-.09-.42-.04-.91-.25-1.46-.18-.47-.59-1.63-1.42-.96-3.92-12.76-13.49-23.86-25.79-30.11-2.04,5.3-4.19,8.09-7.69,10.16-2.97-.95-23.1,9.01-41.08-14.41-2.8-.02-4.56,2.08-6.88,3.48-19.89,11.95-27.82,31.21-27.83,54.17v44.62c-1.65,1.83-4.19,2.05-6.54,1.93.63-.73-.34-1.27-.89-1.59-.38-.22-.84-.28-1.27-.26l.15-55.77c.04-15.91,11.51-37.53,24.64-46.8.68.04,1.41-.1,2.04-.64.37-.32.61-.73.2-1.26,1.71-.38,3.07-1.6,4.72-2.11,2.32-.72,5.67-1.12,6.3-3.77l.83-.08c.68-.06,1.42-.2,1.74-.78.25-.46.21-.96.31-1.38.6-2.48.86-5.27.94-7.78.87.14.77-1.01.88-1.69.08-.48.22-1.61-.72-1.51.31-.77.25-1.87.13-2.67,2.16,1.66,1.57-5.46,1.5-4.48.09-1.33.22-2.68,0-4.13-.24-1.58-2.24-1.21-3.57-2.09l-7.76-5.15c-7.31-4.85-10.33-13.12-14-20.79-7.19-15-9.73-34.24-3.29-49.33,1.56-3.64,5.57-5.51,7.84-8.1.63,0,1.26-.19,1.98-.62.4-.24.93-.49.3-1.06l1.86-.36c5.62-1.07,1.55-8.01,10.61-17.11,2.98-2.99,7.26-5.34,11.01-6.85,1.76-.71,4.07-.33,5.34-2.02.48.14,1.18-.3,1.62-.07,2.23,1.13,4.43-.71,6.32-.78,3.43-.12,7.23-.54,10.63-.02,2.16.33,3.82,1.38,6.33.81,1.86-.42,4.8.25,6.66.21,1.98,1.26,4.04.76,6.32.78,1.81.01,3.88-.25,5.65,0s2.75-.38,4.33-.76c4.05-.97,8.71-.51,12.65-3.27,3.23-2.26,8.04-3.53,11.32.32,6.15,7.21,9.32,17.77,8.28,27.58-.78,7.42-6.09,13-10.95,17.97l1.49,5.96ZM49.56,236.94c-5.62-6.21-12.37-8.29-14.21-15.51-3.28-5.55-.85-11.26,2.18-16.18,4.28-6.95,11.92-9.85,19.53-4.69,7.81-9.28-.87-16.15,6.38-24.17,4.42-4.89,26.7-1.14,39.95-3.07,9.55-1.4,19.08-7.03,21.12-16.52,1.57-7.32.03-14.28-4.72-19.8-12.4,7.69-25.7,5.74-39.04,4.77-6.64-.48-13.09-.5-19.84-.46-10.44.05-20.22,6.61-22.47,16.66-2.92,13.01-14.25,5.85-17.3,21.79-.93,4.83-1.71,9.35-.64,14.21,2.02,9.09,4.11,18.03,9.1,25.91,4.78,7.54,10.56,16.77,19.97,17.06ZM111.66,180.52c-3.42.45-6.91,1.85-10.81,1.86l-25.96.08c-10.61.03.71,12.52-11.7,28.26-1.22,1.55-3,2.19-4.74,2.03-4.13-.39-3.94-5.82-8.1-6.14-1.9-.15-3.75.61-5.11,2.26-3.14,3.81-3.08,8.65-.78,12.45,2.6,4.3,7.22,5.63,12.41,5.41,2.12-.09,1.93,2.98,2.18,4.11.38,1.77-1.91,3.35-3.33,4.49-1.9,9.7-3.73,19.86-4.92,29.74-.83,6.89,1.69,10.38,6.02,14.38,7.44,6.87,18.49,9.96,26.59,2.25,1-3.72.91-9.25.04-13.07-7.08-2.6-17.32-4.46-19.59-12.21-.58-2,.37-4.27,1.65-4.79,6.76-2.75,3.34,8.1,28.32,7.92,6.12-.04,11.9-1.33,16.02-5.7,3.81-4.05,6.34-9.94,4.4-15.94-5.11-.36-10.12-.94-14.56.36-.48-.41-1.72.23-2.43.1-1.03-.18-1.46.81-1.41,1.91.02.44-.11.96,0,1.58.08.46.67.4,1.14.41l7.93.23c.33,1.63.62,3.47-.22,5.08s-2.74,1.39-4.98,1.8c-6.14,1.11-13.22-3.16-12.63-9.89.61-6.96,7.52-9.8,13.67-9.29,6.18.51,19.3-.28,19.78-6.72.07-.92.37-1.96.24-2.88-.56-3.83-1.24-7.88-2.92-11.36,0-1.53-.27-3.08-.19-4.61.37-6.82.24-13.77-1.78-20.3-.36-1.17-.16-2.49-.6-3.51-1.07-2.46-2.28-.49-3.64-.32ZM170.66,280.34c-6.47,4.86-9.44,13.04-7.83,21.82,10.06,4.14,15.64,10.09,24.31,6.68,11.46-4.5,32.02-9.3,32.01-26.1,0-2.57-1.82-5.31-3.34-6.25-2.17-1.35-5.97-1.49-8.48-.26-5.25,2.57-27.2,15.85-28.81,7.09-.58-5.59,5.6-7.65,4-11.35-1.69-3.89-12.12,8.56-11.86,8.36Z"/>
          <path class="cls-3" d="M116.66,380.92c-1.84.39-4.83,2.12-6.86.87-1.21-2.8-1.4-6.15-1.17-9.67.72-11.22-1.88-32-.38-42.65.25-1.78,3.63-1.53,4.76-1.04,1.36.59,2.81,2.52,2.77,4.78-.08,4.13.68,7.97.7,12.06l.19,35.64Z"/>
          <path class="cls-3" d="M52.91,381.16c-2.14-.1-4.43,1.62-6.75.77l-1.4-4.03c-.06-.86-.02-1.73,0-2.59.03-1.38.78-3.44-.62-4.29l.46-13.93c.46-14.03-2.64-26.05,5.66-23.89,5.18,1.35,1.89,30.8,2.13,36.31l.52,11.64Z"/>
          <path class="cls-1" d="M44.75,375.32c-1.26.65-1.92-.68-1.93-1.75-.02-.98.62-1.88,1.32-2.54,1.4.85.65,2.91.62,4.29Z"/>
          <path class="cls-1" d="M44.75,377.9l1.4,4.03c-1.22-.44-2.17.34-2.84-1.79-.34-1.09-.3-2,1.44-2.23Z"/>
          <path class="cls-4" d="M118.13,312.95c.18.57-.64,1.66.21,2.3.42.31.97.55,1.45.12.66,3.22,2.16,6.25,2.31,9.57.03.66-.49,1.53.2,2.28.33.37.86.61,1.37.17l.07,1.64c-1.59,1.88-.64,6,1.91,6.36.18.81-.2,1.72-.1,2.55-.83.16-2.41.96-2.93.29s-1.07-2.02-1.04-2.84c.24-6.51-2.75-11.43-4.73-17.11-1.66-4.76-2.74-8.99-6.07-12.94-4.47-5.31-8.62-10.76-14.65-14.5-6.61-4.1-5.93,3.94-11.48,2.17,3.49-2.07,5.64-4.86,7.69-10.16,12.3,6.25,21.86,17.35,25.79,30.11Z"/>
          <path class="cls-1" d="M111.66,180.52c2.18,5.32,1.27,45.76,8.88,42.97-.48,6.44-13.6,7.23-19.78,6.72-6.16-.51-13.06,2.34-13.67,9.29-.59,6.73,6.49,11,12.63,9.89,2.24-.41,4.14-.2,4.98-1.8s.55-3.45.22-5.08c.71-.22,1.37-.49,1.62-.95,1.92-3.45-4.81-1.54-6.85-3.29,4.44-1.29,9.45-.71,14.56-.36,1.93,6-.59,11.89-4.4,15.94-4.12,4.38-9.9,5.66-16.02,5.7-24.98.18-21.57-10.67-28.32-7.92-1.29.52-2.24,2.8-1.65,4.79,2.26,7.74,12.51,9.61,19.59,12.21.86,3.82.96,9.35-.04,13.07-8.09,7.7-19.14,4.62-26.59-2.25-4.33-4-6.85-7.5-6.02-14.38,1.19-9.89,3.02-20.04,4.92-29.74,1.42-1.15,3.72-2.73,3.33-4.49-.24-1.13-.06-4.2-2.18-4.11-5.19.22-9.8-1.12-12.41-5.41-2.3-3.79-2.36-8.64.78-12.45,1.36-1.65,3.21-2.4,5.11-2.26,4.16.32,3.97,5.75,8.1,6.14,1.74.16,3.52-.48,4.74-2.03,12.41-15.74,1.09-28.23,11.7-28.26l25.96-.08c3.9-.01,7.39-1.41,10.81-1.86Z"/>
          <path class="cls-1" d="M49.56,236.94c-9.41-.29-15.19-9.52-19.97-17.06-4.99-7.88-7.08-16.83-9.1-25.91-1.08-4.85-.29-9.38.64-14.21,3.06-15.94,14.38-8.78,17.3-21.79,2.26-10.05,12.04-16.61,22.47-16.66,6.75-.03,13.2-.02,19.84.46,13.34.97,26.64,2.92,39.04-4.77,4.75,5.52,6.29,12.48,4.72,19.8-2.04,9.49-11.56,15.12-21.12,16.52-13.25,1.94-35.53-1.81-39.95,3.07-7.25,8.02,1.43,14.9-6.38,24.17-7.61-5.16-15.26-2.26-19.53,4.69-3.03,4.92-5.46,10.64-2.18,16.18,1.84,7.22,8.58,9.3,14.21,15.51Z"/>
          <path class="cls-1" d="M170.66,280.34c.05.63-.2,1.24.21,2.14,2.26-1.46,5.62-.58,7.65.84,1.61,8.76,23.55-4.52,28.81-7.09,2.51-1.23,6.31-1.09,8.48.26,1.52.94,3.34,3.68,3.34,6.25,0,16.8-20.55,21.6-32.01,26.1-8.67,3.4-14.24-2.55-24.31-6.68-1.61-8.78,1.35-16.96,7.83-21.82Z"/>
          <path class="cls-4" d="M115.9,184.34c-2.01,1.37-1.07,4.2-.5,6.54,1.39,5.75-1.26,15.34,2.28,13.76-.08,1.53.18,3.08.19,4.61-2.27-1,1.46,14.39,2.92,11.36.13.92-.17,1.96-.24,2.88-7.61,2.79-6.7-37.65-8.88-42.97,1.36-.18,2.57-2.14,3.64.32.44,1.01.24,2.34.6,3.51Z"/>
          <path class="cls-4" d="M178.52,283.33c-2.03-1.42-5.39-2.3-7.65-.84-.4-.9-.15-1.51-.21-2.14-.26.2,10.17-12.26,11.86-8.36s-4.58,5.76-4,11.35Z"/>
          <path class="cls-1" d="M117.67,204.64c-3.54,1.58-.89-8.01-2.28-13.76-.57-2.34-1.51-5.17.5-6.54,2.01,6.52,2.15,13.48,1.78,20.3Z"/>
          <path class="cls-4" d="M99.68,238.27c2.04,1.74,8.77-.17,6.85,3.29-.26.46-.91.73-1.62.95l-7.93-.23c-.24-.66-.15-2.08-1.14-2-.05-1.1.38-2.1,1.41-1.91.72.13,1.96-.5,2.43-.1Z"/>
          <path class="cls-1" d="M120.78,220.61c-1.45,3.03-5.19-12.37-2.92-11.36,1.68,3.48,2.36,7.54,2.92,11.36Z"/>
          <path class="cls-1" d="M125.64,335.38c-2.55-.35-3.5-4.48-1.91-6.36,1.62,1.61,1.45,4.21,1.91,6.36Z"/>
          <path class="cls-1" d="M123.66,327.38c-.5.44-1.03.2-1.37-.17-.68-.75-.17-1.62-.2-2.28.82-.64,1.34.45,1.48.95.16.57.06,1.06.08,1.5Z"/>
          <path class="cls-1" d="M119.79,315.37c-.48.42-1.04.19-1.45-.12-.86-.64-.04-1.73-.21-2.3.83-.67,1.24.49,1.42.96.21.55.16,1.03.25,1.46Z"/>
          <path class="cls-1" d="M96.98,242.28c-.47-.01-1.06.05-1.14-.41-.11-.63.02-1.14,0-1.58.99-.08.89,1.34,1.14,2Z"/>
        </g>
        <g>
          <g>
            <path class="cls-3" d="M270.58,32.67c.05,1.42-.66,3.46.79,4.34l.11,1.64c.36,1.22-1.05,2.75-.73,4.31.48,2.35,4.26,3.64,5.88,1.94.53.09,1.13-.11,1.65.01,9.18,2.12,18.86.5,28.31.89l2.62.11c.19,1.04,1.58.71,2.36.89,24.83,9.31,19.81,32.52,20.04,53.83.15,13.86-9.77,25.08-23.56,27.87l.16,17.27c.04,4.44-7.16,4.12-10.14,2.15-5.28-3.5-9.76-6.84-14.41-10.3.12-2.21-1.93-2.86-3.32-3.96-2.04-1.63-3.8-4.56-7.08-4.86-6.1-.57-11.93.22-17.6,0-2.14-.08-4.21.05-6.34,0l-12.62-.24c-.14-.99-1.61-.73-2.35-.75l-2.64-.07c-.94-1.44-2.64-1.93-4.28-2.08-12.35-7.26-4.46-7.78-13.25-7.37l-22.29,1.05c-10.02,8.4-24.78,25.04-36.21,31.35-3.53,1.95-7.67-2.42-7.69-6.02l-.17-26.21c-19.28,1.5-38.96-13.23-39.71-33.26-.65-17.36-.35-34.53-.11-51.87.08-5.37,1.99-10.03,3.78-14.4,1.44-.22,2.12-1.68,2.11-3.03C129.1-5.06,150.23,1.43,155.88.65l4.7-.65c-8.79,1.22,53.81.58,52.5.58l17.75-.05c14.76-.05,27.63,6.3,35.36,18.59,2.64,4.19,4.2,8.85,4.38,13.55ZM115.95,54.6c.13.77.03,1.6.03,2.38v7.58c0,4.11-1.16,8.53.67,12.3.29.77-.22,1.92-.01,2.74-2.04,2.1-.41,4.28.21,6.3,1.15,3.73,1.94,7.61,4.01,10.99.7,1.14,1.13,2.53,2.69,2.72.14.31.13.67.25.99,7.44,7.68,15.5,10.12,26.66,9.59,2.54-.12,5.79-1.53,6.75,1.89,1.19,4.23-1.21,19.48.29,26.9l15.97-14.61c4.75-4.34,9.71-8.15,13.44-13.73l15.4-.51c3.44-.11,6.75,1.14,10.2.16.52-2.34-.95-4.41-.95-6.68l.05-33.91c.01-7.75,4.84-14.28,10.96-19.22,10.04-8.1,23.17-4.76,35.11-4.96,1.29-.02,2.67.14,3.58-.36,1.73-.95,1.12-2.66,1.26-4.25,1.57-17.39-12.85-31.41-27.89-32.05-2.41-.1-34.65.15-34.89.2-4.54,1.13-8.7,0-13.08.21-17.21.82-25.31-.41-42.01-.4-6.68,0-13.12,2.56-18.49,6.57-8.43,6.29-10.88,17.28-9.86,27.37.42,4.12-.94,8-.32,11.77ZM220.39,102.64c-.22,6.11,10.06,16.98,17.29,17.02l40.35.24c8.67,6.48,9.96,11.4,20.83,18.34,3.21-8.23-4.54-18.85,3.56-18.47,10.13.47,18.32-5.72,20.13-16.03,1.45-8.25,1.17-16.86.45-24.95l-.62-6.97c-.1-1.15-.49-1.72-.87-3.21-2.62-10.28-13.29-15.62-24.07-14.97-6.71.41-13.12.29-19.61.33l-10.47.06-12.82-.03c-6.7-.02-13.1-.54-19.92.66-8.55,1.51-14.52,8.08-14.69,16.98l-.51,26.1c-.03,1.75.33,3.21.99,4.91Z"/>
            <path class="cls-1" d="M257.66,45.54c-11.94.2-25.07-3.15-35.11,4.96-6.12,4.94-10.95,11.46-10.96,19.22l-.05,33.91c0,2.28,1.46,4.35.95,6.68-3.45.98-6.76-.28-10.2-.16l-15.4.51c-3.73,5.58-8.69,9.39-13.44,13.73l-15.97,14.61c-1.5-7.42.9-22.67-.29-26.9-.96-3.42-4.21-2.01-6.75-1.89-11.16.53-19.22-1.91-26.66-9.59,1.67-.3,2.65,1.68,5.46.63-5.85-6.83-6.72-14.96-6.53-23.5l.62-27.89c.17-7.53-.5-15.51,3.5-22.03,5.12-8.33,14.55-11.06,23.89-10.99l45.35.37,27.97.07,11.67.19c11.84.19,22,8.9,22.75,21.36.14,2.33-1.27,4.72-.82,6.72ZM150.58,67.58c5.75,1.66,10.4-2.99,9.96-8.12-.38-4.36-4.43-8.78-9.36-7.32-3.71,1.1-5.74,4.1-5.66,7.1.09,3.37.88,7.13,5.07,8.34ZM189.14,67.07c4.19-2.13,5.79-6.3,4.8-9.08-1.65-4.62-4.58-6.25-9.6-5.37-4.55.8-6.3,6.12-5.01,10,1.29,3.88,5.48,6.65,9.81,4.45Z"/>
            <path class="cls-2" d="M323,78.78c.72,8.09,1,16.7-.45,24.95-1.81,10.3-9.99,16.5-20.13,16.03-8.1-.38-.34,10.24-3.56,18.47-10.86-6.94-12.16-11.86-20.83-18.34l-40.35-.24c-7.23-.04-17.51-10.91-17.29-17.02,2.58-.02,2.8-3.09,2.88-5.54l.82-23.71c.33-9.62,9.93-12.9,18.43-12.09,5.61.54,11.13-.19,16.73-.05l31.53.78c5.21.13,10.29-.57,15.72.06,7.1.82,11.47,5.2,11.97,12.64l1.32,19.79c3.28.95-.05-15.32,3.21-15.74ZM320.27,99.64c2.05-.65,1.41-4.05.11-3.97-1.78.1-1.39,4.17-.11,3.97Z"/>
            <path class="cls-4" d="M257.66,45.54c-.46-2.01.96-4.39.82-6.72-.75-12.46-10.91-21.17-22.75-21.36l-11.67-.19-27.97-.07-45.35-.37c-9.34-.08-18.76,2.66-23.89,10.99-4.01,6.52-3.34,14.5-3.5,22.03l-.62,27.89c-.19,8.54.68,16.68,6.53,23.5-2.81,1.06-3.79-.93-5.46-.63-.12-.31-.11-.68-.25-.99-.54-1.21-1.47-2.19-2.69-2.72-2.07-3.38-2.87-7.26-4.01-10.99,1.5-1.54,1.69-5.02-.21-6.3-.21-.82.3-1.97.01-2.74,1.46,2.45,2.23-15.63-.67-12.3v-7.58c.7.61,1.53-.19,1.81-.74.32-.64-.04-1.12-.48-1.47s-.84-.62-1.35-.17c-.63-3.77.73-7.65.32-11.77-1.02-10.09,1.44-21.08,9.86-27.37,5.37-4,11.81-6.56,18.49-6.57,16.71-.01,24.81,1.22,42.01.4,4.39-.21,8.54.92,13.08-.21.23-.06,32.47-.31,34.89-.2,15.04.65,29.47,14.66,27.89,32.05-.14,1.58.47,3.29-1.26,4.25-.91.5-2.29.34-3.58.36Z"/>
            <path class="cls-4" d="M321.51,68.6c-1.33-.15-1.39,1.49-1.11,2.63.17.68,1.28.98,1.98.58l.62,6.97c-3.26.42.08,16.69-3.21,15.74l-1.32-19.79c-.5-7.44-4.88-11.82-11.97-12.64-5.42-.63-10.5.07-15.72-.06l-31.53-.78c-5.6-.14-11.11.59-16.73.05-8.5-.82-18.1,2.47-18.43,12.09l-.82,23.71c-.09,2.46-.31,5.53-2.88,5.54-.66-1.7-1.02-3.15-.99-4.91l.51-26.1c.17-8.9,6.14-15.47,14.69-16.98,6.82-1.21,13.22-.68,19.92-.66l12.82.03,10.47-.06c6.49-.04,12.9.08,19.61-.33,10.79-.65,21.45,4.69,24.07,14.97Z"/>
            <path class="cls-1" d="M116.64,76.87c-1.82-3.78-.67-8.19-.67-12.3,2.9-3.33,2.13,14.76.67,12.3Z"/>
            <path class="cls-1" d="M116.84,85.91c-.62-2.03-2.25-4.21-.21-6.3,1.9,1.28,1.71,4.77.21,6.3Z"/>
            <path class="cls-1" d="M123.54,99.63c-1.56-.19-1.99-1.58-2.69-2.72,1.22.53,2.15,1.51,2.69,2.72Z"/>
            <path class="cls-1" d="M322.38,71.81c-.7.4-1.81.09-1.98-.58-.29-1.14-.23-2.78,1.11-2.63.38,1.5.77,2.06.87,3.21Z"/>
            <path class="cls-1" d="M115.98,56.98c0-.78.1-1.62-.03-2.38.51-.45.92-.18,1.35.17s.81.83.48,1.47c-.28.56-1.11,1.35-1.81.74Z"/>
            <path class="cls-3" d="M150.58,67.58c-4.18-1.21-4.98-4.97-5.07-8.34-.08-3,1.95-6.01,5.66-7.1,4.92-1.45,8.98,2.96,9.36,7.32.45,5.13-4.2,9.78-9.96,8.12Z"/>
            <path class="cls-3" d="M189.14,67.07c-4.33,2.2-8.51-.57-9.81-4.45-1.3-3.89.46-9.21,5.01-10,5.02-.88,7.95.75,9.6,5.37.99,2.78-.61,6.96-4.8,9.08Z"/>
            <path class="cls-4" d="M320.27,99.64c-1.28.2-1.67-3.87.11-3.97,1.3-.07,1.94,3.32-.11,3.97Z"/>
          </g>
          <g>
            <path class="cls-3" d="M309.2,162.38l2.36.02,9.59.2c1.03.12,2.08,1.38,3.39.81.76-.33,1.8.28,2.6.1,1.83,2.03,4.74,2.55,7.38,2.89,5.93.77,10.38,4.83,15.41,8.71,11.85,9.14,19.96,22.95,21.31,38.3.41,4.71.47,9.35.47,13.94l.02,9.13c.02,9.84-1.16,19.83,3.32,28.95,5.5,11.19,12.14,10.73,13.72,30.18.64,7.9-3.48,14.68-9.56,21.01,7.01,9.89,11.45,20.71,11.18,32.37-.04,1.76-.83,4.11.74,5.35l.12,25.75c0,1.38-1.3,1.85-1.87,2.04l-4.3.09c-1.32-.5-2.95-.77-3.72-2.13-.03-.65.12-1.32.1-1.96l-.54-20.84c-.6-23.05-2.26-12.86-4.5-25.24-.42-2.33-1.51-4.22-3.11-5.9-.68-.71-.64-2.62-2.06-2.81-.56-3.3-4.15-4.42-6.76-6.21-.24-.16-.64-.07-.91-.19-5.98-6-15.94-9.94-24.87-9.48-6.58,10.42-20.22,27.18-33.93,23.19-10-2.91-13.58-12.64-13.81-23.26-13.52,4.93-25.62,14.4-30.48,27.52-4.43,11.95-3.72,24.98-4.65,37.11l-.23,2.97.04,2.32-.09,2.92c-.71.47-1.35,1.05-1.85,1.75-1.83.08-3.77.61-6.08-.1-.56-6.67-.23-13.21-.01-19.52.89.13.84-1.07.87-1.69.03-.52.12-1.84-.82-1.63.55-11.9,1.84-23.95,8.01-34.74,1.49-2.6,4.38-3.75,5.36-7.03-6.73-5.81-14.45-13.07-13.81-21.7.05-.65.32-1.39-.18-2.27-.19-.35-.6-.86-1.16-.28l.61-8.49c1.32-.46.9-2.32,1.02-3.44,1.42-6.98,6.24-13.15,6.92-20.78,1.25-14.17-1.35-27.77-2.19-41.91-1.16-19.61,9.26-37.42,25.75-47.24,4.25-2.53,8.06-4.48,12.3-5.58l11.35-2.95c2.41-.63,5.14-.24,7.58-.22ZM288.08,190.69c8.73-1.27.09,5.25,12.22,20.79,2.35,3.01,4.63,4.46,7.85,6.48,9.71,6.1,20.53,9.38,32.06,8.43,8.8-.73,13.12,6.4,13.48,13.97.5,10.8-5.04,19.04-16.13,21.56-.45,8.65.74,28.26,3.98,36.31,11.33,1.94,21.29,6,31.27,12.08,4.27-2.22,6.39-6.99,6.85-11.88,1.88-19.94-16.99-22.14-16.74-44.96l.34-30.98c.2-18.22-8.92-34.64-23.02-43.75-16.04-10.37-34.48-10.44-51.13-2.76-12.71,5.86-23.63,15.09-27,29.14-3.53,14.71,5.03,43.12-1.13,64.92-1.51,5.35-4.91,9.61-5.53,15.3-.97,8.94,1.26,18.96,9.33,23.82,4.69,2.83,15.18-8.25,23.21-9.86,3.44-.69,5.24-1.65,5.12-5.49-.09-2.95-2.16-2.8-5.17-4.01-11.05-4.43-20.05-15.12-21.22-27.2-1.02-10.54-2.89-39.39.65-47.49s18.29-24.07,20.73-24.42ZM338.37,251.68c3.58.96,4.33-3.19,5.14-5.07s5.15-4.23,1.71-7.37l-.88-2.77c-.18-.6-.48-1.18-.95-1.6-.65-.56-2.22-.93-2.19.39-.97.11-2.08-.17-3.85.28-1.95.5-3.47,2.05-5.41,1.99-2.52-.08-3.33-2.89-5.31-4.2-2.43-1.61-5.92-.39-8.68-1.25-12.21-3.79-27.69-14.07-31.78-28.01-12.88,9.16-12.79,15.61-12.62,30.33.12,10.96-.11,21.54,2.98,32.17,2.81,9.65,12.76,17.18,22.47,17.38,15.81.31,17.85-11.58,22.87-10.63,4.51.85-1.14,10-3.45,11.99-4.7,4.05-11.01,5.27-16.61,7.09.66,18.27-5.61,11.78-1.89,21.62,1.16,3.08,3.17,6.72,5.7,7.8,3.72,1.58,7.58.34,10.41-1.95,5.95-4.84,11.25-9.94,15.11-16.6,1.65-2.85,1.07-6.24.58-9.43-2.02-12.98-1.89-25.85-1.11-38.96,3.21-.87,5.89-.81,7.77-3.18Z"/>
            <path class="cls-1" d="M363.56,316.91c-.3.31-1.16.48-1.28.87-.23.73.16,1.44.57,1.48,1,.08,1.29-.18,1.45-.56.19-.44.4-1.2.17-1.6,2.61,1.79,6.19,2.91,6.76,6.21-.66.64-2.02.75-2.24,1.43-.4,1.23,1.04,2.44,1.8,2.59.98.2,1.8-.68,2.5-1.22,1.6,1.69,2.68,3.57,3.11,5.9-6.21-.67,2.12,7.12,2.46,21.57l.57,24.25c.24.5,1.81.3,2.01.26.02.64-.13,1.32-.1,1.96-8.32,2.27-18.46.45-28.24,1.58.22-1.35,1.22-2.79,1.23-4.61l.14-22.9c.01-2.49-.82-4.4-2.92-4.91-1.41-.34-5.03-.56-5.08,1.85l-.5,24.1c-.03,1.32.04,2.44-.82,2.99-.91-.79-.73-2.03-2.04-3.45l-1.93,6.36-51.5-.15c-4.59-.01-9.06.06-13.52.71-1.16.17-2.55,2.06-3.91,1.29-.65-.37-1.49-.85-1.88-1.82,1.43.65,3.03.95,4.09.36,1.24-.69,1.61-2.82,1.32-4.38-1.92-10.31-1.16-20.35-.54-30.47-.57-2.76-5.2-.74-6.55-.18-8.2-3.71-6.28,21.22-5.75,25.27.4,3.1,1.56,6.86-2.79,7.94l-1.28-12.91-3.05,5.24c.93-12.14.23-25.16,4.65-37.11,4.86-13.12,16.96-22.6,30.48-27.52.23,10.62,3.81,20.35,13.81,23.26,13.71,3.99,27.35-12.77,33.93-23.19,8.93-.45,18.9,3.48,24.87,9.48Z"/>
            <path class="cls-3" d="M270.37,381.12c-.61-.27-1.51,0-2.09-.33-.93-.54-.34-1.65-.6-2.57-3.22-11.06-1.58-21.3,1.02-31.77,1.34-.57,5.98-2.59,6.55.18-.62,10.12-1.38,20.16.54,30.47.29,1.55-.07,3.68-1.32,4.38-1.06.59-2.66.29-4.09-.36Z"/>
            <path class="cls-3" d="M353.09,381.65c-2.21.26-4.94,1.1-7.14-.15-1.07-.61-.23-2.81-.81-3.31.86-.55.8-1.67.82-2.99l.5-24.1c.05-2.42,3.67-2.19,5.08-1.85,2.1.51,2.94,2.42,2.92,4.91l-.14,22.9c-.01,1.82-1.01,3.25-1.23,4.61Z"/>
            <path class="cls-1" d="M255.62,377.28l-.04-2.32c.63-.46,1.42-.04,1.9.65.32.46.12,1.12-.53,1.33-.34.11-.8.24-1.34.33Z"/>
            <path class="cls-1" d="M288.08,190.69c-2.43.35-17.16,16.26-20.73,24.42s-1.67,36.95-.65,47.49c1.17,12.08,10.16,22.77,21.22,27.2,3.02,1.21,5.09,1.06,5.17,4.01.12,3.84-1.68,4.81-5.12,5.49-8.02,1.61-18.51,12.69-23.21,9.86-8.07-4.86-10.3-14.88-9.33-23.82.62-5.69,4.02-9.95,5.53-15.3,6.15-21.8-2.4-50.21,1.13-64.92,3.37-14.05,14.29-23.28,27-29.14,16.66-7.68,35.09-7.61,51.13,2.76,14.1,9.12,23.22,25.54,23.02,43.75l-.34,30.98c-.25,22.82,18.62,25.02,16.74,44.96-.46,4.9-2.58,9.66-6.85,11.88-9.97-6.09-19.94-10.15-31.27-12.08-3.24-8.05-4.44-27.66-3.98-36.31,11.09-2.52,16.63-10.76,16.13-21.56-.35-7.58-4.68-14.7-13.48-13.97-11.53.96-22.35-2.32-32.06-8.43-3.22-2.03-5.5-3.47-7.85-6.48-12.13-15.53-3.49-22.05-12.22-20.79Z"/>
            <path class="cls-1" d="M337.33,235.54c-.29,2.49-.72,5.46,2.79,6.46.87,3.58-.54,7.31-3.74,8.89,1.03.91,1.58.81,1.98.79-1.88,2.38-4.56,2.32-7.77,3.18-.78,13.11-.91,25.98,1.11,38.96.5,3.18,1.07,6.58-.58,9.43-3.86,6.66-9.16,11.77-15.11,16.6-2.82,2.29-6.68,3.53-10.41,1.95-2.53-1.07-4.54-4.72-5.7-7.8-3.72-9.84,2.55-3.34,1.89-21.62,5.6-1.82,11.91-3.04,16.61-7.09,2.31-1.99,7.95-11.14,3.45-11.99-5.03-.95-7.07,10.95-22.87,10.63-9.72-.19-19.66-7.73-22.47-17.38-3.09-10.62-2.86-21.21-2.98-32.17-.16-14.72-.26-21.17,12.62-30.33,4.09,13.95,19.57,24.22,31.78,28.01,2.76.86,6.25-.36,8.68,1.25,1.98,1.31,2.78,4.12,5.31,4.2,1.94.06,3.46-1.49,5.41-1.99Z"/>
            <path class="cls-4" d="M376.39,332.02c2.24,12.38,3.9,2.19,4.5,25.24l.54,20.84c-.2.04-1.77.24-2.01-.26l-.57-24.25c-.34-14.45-8.67-22.24-2.46-21.57Z"/>
            <path class="cls-4" d="M341.19,235.26c.77.93,1.96,1.31,3.15,1.21l.88,2.77c-1.44,2.07-1.14,4.92-1.71,7.37-.81,1.88-1.56,6.03-5.14,5.07-.4.02-.95.12-1.98-.79,3.2-1.58,4.61-5.31,3.74-8.89-3.51-1-3.08-3.97-2.79-6.46,1.78-.45,2.88-.17,3.85-.28Z"/>
            <path class="cls-1" d="M343.51,246.61c.56-2.45.27-5.3,1.71-7.37,3.45,3.14-.92,5.54-1.71,7.37Z"/>
            <path class="cls-4" d="M373.29,326.12c-.7.53-1.52,1.41-2.5,1.22-.76-.15-2.2-1.37-1.8-2.59.22-.67,1.58-.79,2.24-1.43,1.42.18,1.38,2.09,2.06,2.81Z"/>
            <path class="cls-1" d="M344.34,236.47c-1.19.1-2.38-.28-3.15-1.21-.02-1.32,1.55-.95,2.19-.39.48.41.77,1,.95,1.6Z"/>
            <path class="cls-4" d="M364.47,317.1c.24.41.02,1.17-.17,1.6-.16.38-.45.64-1.45.56-.41-.03-.8-.75-.57-1.48.13-.39.98-.57,1.28-.87.26.12.67.03.91.19Z"/>
          </g>
        </g>
      </g>
    </g>
  </g>
</svg>