<?xml version="1.0" encoding="UTF-8"?>
<svg id="Layer_2" data-name="Layer 2" xmlns="http://www.w3.org/2000/svg" viewBox="0 0 449.21 396.63">
  <defs>
    <style>
      .cls-1 {
        fill: #39413c;
      }

      .cls-2 {
        fill: #c1cdbe;
      }

      .cls-3 {
        fill: #e1e9e2;
      }
    </style>
  </defs>
  <g id="Layer_1-2" data-name="Layer 1">
    <g>
      <path class="cls-2" d="M447.86,189.54c-.56.29-.67-.59-1.18-1.3l1.17-74.9c.56-.32.97.46,1.07,1.27l.07,70.78c0,1.84-.07,3.23-1.13,4.15Z"/>
      <path class="cls-2" d="M447.82,306.26c-1.45-20.19-.08-40.99.01-61.18.53-.31,1,.46,1.1,1.24v58.7c-.08.78-.59,1.54-1.11,1.24Z"/>
      <path class="cls-2" d="M447.86,110.7c-.54.29-.78-.54-1.08-1.25.93-14.34-1.09-28.39,1.04-42,.52-.3,1.04.47,1.06,1.22l.13,37.93c0,1.76-.12,3.2-1.15,4.1Z"/>
      <path class="cls-2" d="M447.8,337.17c-2.08-8.92-.12-18.36-.98-28.02.19-.71.47-1.54,1.01-1.2,2.71,8.45.17,17.74,1.28,27.1.12.99-.76,2.36-1.32,2.12Z"/>
      <path class="cls-2" d="M447.83,226.44c-.02-4.75-1.49-10.63.03-15.31,1.66-1.41,1.56,17.97-.03,15.31Z"/>
      <path class="cls-2" d="M447.84,208.48c-1.53-4.74-1.51-10.64.02-15.32,1.66-1.4,1.55,17.95-.02,15.32Z"/>
      <path class="cls-2" d="M447.86,22.89c-.39-2.6-3.9-10.36-3.97-11.23,7.56,3.32,3.97,15.69,3.97,11.23Z"/>
      <path class="cls-2" d="M447.84,243.4c-1.58-2.32-1.4-5.87,0-8.3,1.91,2.15,1.75,6.03,0,8.3Z"/>
      <path class="cls-2" d="M443.68,10.72c-1.48-.16-2.42-1.38-2.68-2.79,1.12.73,2.39,1.32,2.68,2.79Z"/>
      <path class="cls-2" d="M447.85,232.43c-.93.19-.85-1.09-.85-1.66s-.09-1.85.85-1.66c0,.55,1.04.9,1.06,1.66s-.92,1.13-1.06,1.67Z"/>
      <path class="cls-2" d="M436.99,4.77c-.47.1-.99.06-1.41-.19-.63-.37-1.3-1.05-.89-1.82.63.17,1.58-.16,2.03.63.21.38.19.98.27,1.38Z"/>
      <path class="cls-2" d="M447.85,56.82c-.65.26-.72-.28-.8-.76-.12-.68-.13-1.86.77-1.58.35.36.91.86.74,1.4-.12.4-.54.68-.71.93Z"/>
      <path class="cls-2" d="M445.94,379.06c.21-.73-.12-2.14.9-2.27-.03.46,1.38.75.96,1.51-.37.67-1.34.61-1.85.76Z"/>
      <g>
        <path class="cls-1" d="M434.69,2.76c-.4.77.27,1.45.89,1.82.42.25.93.29,1.41.19,1.09,1.2,2.64,2.26,4,3.15.26,1.41,1.2,2.63,2.68,2.79.06.31.19.63.21.95.07.87,3.58,8.63,3.97,11.23l-.04,31.59c-.9-.28-.88.89-.77,1.58.08.48.15,1.02.8.76-.22,3.41.5,7.22-.03,10.64-2.13,13.61-.1,27.66-1.04,42,.29.71.53,1.55,1.08,1.25l-.02,2.63-1.17,74.9c.51.72.63,1.59,1.18,1.3v3.63c-1.52,4.67-1.54,10.57-.02,15.32.26.8-.18,1.82.01,2.65-1.52,4.67-.05,10.55-.03,15.31v2.67c-.92-.19-.83,1.09-.83,1.66s-.08,1.85.85,1.66c-.22.83.13,1.81-.01,2.66-1.39,2.44-1.57,5.98,0,8.3v1.68c-.1,20.19-1.47,40.99-.02,61.18.04.53-.15,1.19.01,1.69-.55-.34-.82.49-1.01,1.2.86,9.65-1.1,19.09.98,28.02.27,1.15-.36,2.62,0,3.74-1.37,1.15-1.35,4.08,0,5.24-.65,2.68.93,6.11.01,8.71-1.31,3.69-.46,13.77-.74,18.27l-.23,3.66c-1.01.13-.69,1.54-.9,2.27-1.22,6.76-12.99,16.61-20.3,16.66l-61.7.43-66.93.19c-5.18.01-10.39-1.15-15.41,0-3.12.72-5.37-.32-8.46-.31l-86.36.32-14.23.1-19.31.18c-7.58.07-15.01-1.12-22.61-.39-3.62.35-6.54-.06-10.13-.06l-84.43-.08c-8.89,0-21.28.82-28.21-6.41C4.57,386.27,0,380.6,0,374.77L.14,23.03c0-9.06,6.7-16.75,13.58-19.94C20.16.11,25.9,0,32.44.3,43.94.82,55.09-.09,66.67,0l27.8.24c7.91.07,15.31-.09,23.12.05l12.25.22,163.2.03,8.41-.02,124.42.2c3.53,0,6.11,1.3,8.82,2.05ZM34.69,9.55c-3.49.62-17.27-1.82-16.77,3.05-5.9-.58-9.3,7.93-9.19,15.14l.34,21.93c.01.8-.58,2.54.9,3,2.74.85,5.31.78,7.68.81l3.36.04c3.88.05,7.75.06,11.62.02,1.42-.01,2.92-.02,4.33-.02h7.64s7.31.03,7.31.03l8.64-.04c3.13-.02,6.21-.02,9.34,0l7.64.03,99.07-.72c4.99-.04,10.36-.12,15.74.25,5.48.38,10.46.99,15.08-1.43-.53,2.06,1.1,1.95,2.53,2.16s2.42-.98,3.56-.97h5.8c0,1.07,1.58.66,2.28.66h2.62c2.11,0,4.22.03,6.34.02l6.63-.02c9.41-.03,19.01-.59,28.23-.68l9.09-.09-.06,1.95,7.69-1.41c1.02.61,2.83-.05,3.97.23,1.75.43,3.58-.01,5.33,0l14.07.09c1.63.01,22.92,2.58,21.82-.1,4.54.29,9.12.05,13.66,0,10.7-.13,21.58,1.03,32.11-.58.93-.14,2.07.27,2.99-.04.09,1.06,1.49.67,2.2.6l6.86-.73c1.56-.17,3.47-.33,4.99-.06,3.02.55,6.05-.31,9.3-.26l17.61.25,21.91.16-.26-30.13c-.06-7.01-6.33-11.62-12.44-13.21-4.15-1.08-7.34-.29-11.32-.14-12.89.47-25.43.18-38.38,0-4.72-.07-9.58-.21-14.16.04-7.58.42-14.54-.29-22.21-.29h-75.34c-3.83,0-7.65.64-11.49.26-7.56-.75-14.73-.32-22.22-.32h-25.94s-48.14.16-48.14.16c-9.05.03-17.98-1.48-26.43.43-.96.09-2.04-.15-2.99.11.15-.93-.8-1.06-1.5-1.06s-1.65.12-1.5,1.06c-.95-.17-2.04.12-2.99,0-2.68-1.65-7.58-1.92-10.08.16-10.26-.91-20.63-.06-30.93-.17l-5.93-.06-37.79-.14c.39-.91-.86-.77-1.52-.71-.5.05-1.06.05-.7.73ZM8.84,63.68l-.3,241.16c0,6.25-.52,11.19-.12,17.26,1.17,17.85-.49,35.27-.25,52.59,0,.47-.33,1.02-.13,1.61.21.63,1.01,1.53,1.8.92.36,1.79,1.73,3.42,2.91,4.71.11.35.13.93.3,1.31.34.76,1.48.36,1.89.71,1.33,1.13,2.99,1.96,4.7,2.13.2.47.24,1.32.88,1.67.54.29,1.09-.37,1.45-.68,4.19.41,8.56.53,13.28.54l123.04.09,40.34.03,52.55.11c.44.45,1,.92,1.67,1.02.72.12,1.19-.9,1.68-1l4.64-.04c.27.06.52.62.92.75.55.17,1.04-.41,1.4-.73,5.82.48,11.78-.9,17.6-.74-.57.6,0,1.41.74,1.82.57.32,1.19-.87,1.62-1.07,3.83-.11,40.3-.79,41.73-.6,5.26.67,10.05.34,15.11.29l12.96-.14c6.35-.07,12.27.47,18.57.07,4.5-.28,8.93.34,13.06.33s8.23.43,12.33,0c.86-.09,1.76-.02,2.62-.01l25.16.2c1.02,0,1.69-.84,2.14-1.12l1.65-.05c.42-.01.9.05,1.49-.14.51-.16.82-.89.9-1.55,5.49-.99,9.63-10.27,9.63-17.36l.09-305.71c-1.93-.67-4.74-.77-5.94.3-2.65-1.58-6.1-.63-9.14-.62l-10.63.03-4.34-.02-39.64.25c-4.55.03-8.63-.05-13.19-.07l-58.75-.26c-4.47-.02-8.95,1.5-12.9.76-3.33-.62-6.63-1.25-10.24-.7-1.46.22-3.16.14-4.63.07-.07,0-16.43-.81-14.17.6l-7.8-.64c-2.11-.17-3.49.65-5.25.65h-13.87c-.47-1.28-2.16-.6-3.2-.63-2.45-.06-5.31.56-7.7.64.33-.99-1.02-.58-1.53-.76-.62-.22-1.12.81-1.56.75-.89-.12-2.11.19-2.98-.02-6.1-1.43-12.82-1.11-18.96-.07-1.67.28-4.21.32-5.9.09-10.14-1.35-20.85-1.25-31.02-.07-1.02.12-3.01.23-3.99.03-7.47-1.54-15.49.24-22.95-.05l-15.81-.62c-1-.04-2.67-.63-3.15.61-7.38-.67-15.35-.37-22.78-.59l-3.35-.1h-3.6s-2.35.08-2.35.08h-1.67s-2.34.02-2.34.02l-3.64.03c-2.45.02-4.89-.05-7.34-.04l-5.65.03c-.78,0-1.57-.01-2.35-.01-.88,0-1.77.03-2.65-.02-1.8-.09-3.59-.13-5.39-.08l-3.57.1c-1.44.04-2.89-.13-4.33,0-.54.05-1.11.02-1.66,0-4.77-.17-9.55.02-14.31.01h-4.66c-.44-.01-.88-.01-1.31-.02l-5.63-.09c-.45,0-1.03-.13-1.63.07-.77.27-.59,1.27-.59,1.98Z"/>
        <path class="cls-2" d="M447.06,373.13c.28-4.49-.56-14.57.74-18.27.8-.23,1.14,1.09,1.13,2.12l-.02,15c0,.96-1.24,1.71-1.86,1.15Z"/>
        <path class="cls-2" d="M447.8,346.15c-1.35-1.16-1.37-4.09,0-5.24.56.8,1.28,1.5,1.32,2.62s-.89,1.84-1.31,2.63Z"/>
        <path class="cls-3" d="M16.7,61.72c-.36.43-.2.87.13,1.39.41.63.62.63,1.04,0,.35-.52.52-.95.14-1.38h4.66c-.57.64.17,1.86,1.15,1.86h12.01c.97,0,1.74-1.22,1.15-1.86.55.02,1.11.04,1.66,0-.61,1.82,1.11,2.05,2.67,1.97,1.01-.06,2.26-.55,1.67-1.96l3.57-.1c-.53,1.77,1.34,2.13,2.73,2.11,1.27-.02,3.26-.17,2.66-2.03.88.04,1.77.02,2.65.02-.56.68.11,1.57.71,1.88s1.12-.02,1.47-.49c.33-.44.58-.88.16-1.38l5.65-.03c-.59.88.29,1.59.87,1.77.97.3,8.06.82,6.47-1.73l3.64-.03c-.54.69.11,1.6.71,1.89.64.32,1.14-.04,1.47-.49s.59-.91.16-1.41h1.67c-.55.69.11,1.65.69,1.91.73.32,1.18-.11,1.48-.51.4-.53.69-1,.18-1.48h3.6c-.6.66.1,1.8.72,1.94.83.2,1.87.29,2.46-.42.32-.38.59-.91.17-1.43,7.44.22,15.4-.08,22.78.59.5.65,1.31,1.92,2.46,1.31.62-.33,1.19-1.21.69-1.91l15.81.62c-.2,1.01.79,1.36,1.9,1.35l19.07-.05c1.04,0,2.37-.45,1.98-1.26.99.2,2.97.09,3.99-.03-.19,1.01.8,1.33,1.91,1.32l27.07-.03c1.09,0,2.17-.44,2.04-1.22,1.68.22,4.23.19,5.9-.09-.2,1,.78,1.36,1.9,1.36l15.08-.05c1.04,0,2.37-.42,1.98-1.24.87.2,2.09-.1,2.98.02-.37.99.59,1.35,1.46,1.24.65-.08,1.17-.84,1.63-1.24,2.39-.08,5.25-.7,7.7-.64-.62,1.03.43,2.1,1.66,1.88.55-.1,1.13-.68,1.54-1.24h13.87c.28,1.46,2.09,1.3,3.55,1.3.83,0,2.34-.58,1.7-1.96l7.8.64c.62.44,1.43,1.37,2.89,1.35l10.08-.17c.99-.02,1.85-1.08,1.2-1.78,1.47.07,3.18.15,4.63-.07-2.75,3.02,12.09,2.25,10.24.7,3.94.74,8.42-.78,12.9-.76l58.75.26c4.56.02,8.64.09,13.19.07l39.64-.25c-.61,1.81,1.13,2.05,2.67,1.96.99-.06,2.28-.53,1.67-1.94l10.63-.03c-1.9,1.91,6.01,3.38,9.14.62,1.21-1.06,4.01-.97,5.94-.3l-.09,305.71c0,7.09-4.14,16.37-9.63,17.36-.68-.19-1.52-.24-2.2.37-.37.33-.65.79-.19,1.32l-1.65.05c.29-.56-.49-.86-1.21-.86l-24.9-.05c-.95,0-1.81,1.22-1.18,1.83-.86,0-1.76-.08-2.62.01,3.47-2.71-15.78-2.74-12.33,0-4.13.02-8.57-.61-13.06-.33-6.3.4-12.22-.14-18.57-.07l-12.96.14c-5.06.06-9.85.38-15.11-.29-1.43-.18-37.9.49-41.73.6-.13-.99-1.62-.73-2.36-.75-5.83-.16-11.78,1.22-17.6.74.27-.87-.88-.89-1.59-.81-.48.05-1.03.15-.73.8l-4.64.04c.15-.91-1.08-.87-1.69-.88-.57-.01-1.84-.07-1.67.85l-52.55-.11-40.34-.03-123.04-.09c-4.73,0-9.09-.13-13.28-.54-.23-1.05-1.46-.99-2.33-.98-1.71-.17-3.37-1-4.7-2.13.2-.73-.02-1.58-.68-1.84-.53-.21-1.06-.22-1.51-.18-1.18-1.3-2.55-2.92-2.91-4.71-.13-.63,0-1.42-.56-2.24-.2-.29-.51-.86-1.11-.29-.25-17.32,1.41-34.74.25-52.59-.4-6.07.11-11.02.12-17.26l.3-241.16c.47.08.99.06,1.36-.21.58-.42,1.48-1.12.86-1.84l5.63.09ZM31.78,81.63c-.53.83-1.18,1.68-1.17,2.72-.67.28-1.9.58-1.89,2.14l.09,16.07c0,1.05.46,2.37,1.27,1.97-.24.93.28,2.06-.01,3.01-1.94,1.69-2.34,6.57.07,7.98-.52,1.24.81,3.74-.13,4.89-1.72-1.79-1.82,17.61.11,14.07l-.02,27.94c-1.01-.19-1.32.8-1.32,1.9l-.04,17.17c0,1.41.66,2.37,1.26,2.99.4,6.78.18,14.05.12,20.85-.44.37-1.23.8-1.26,1.51s.87,1.15,1.2,1.56c.09,3.13.95,6.56.62,9.72-1.34-.63-1.85.67-1.97,1.69-.17,1.53.61,2.42,1.91,2.71.1,1.2.49,2.62,1.18,3.69.31.77-.06,1.84.72,1.98.34.06,10.53,1.09,8.45-1.81,4.82.09,9.94.18,14.7.72.44.54,1.05,1.12,1.62,1.22,1.25.22,2.23-.86,1.65-1.92l2.63.02c-.63,1.41.72,1.87,1.68,1.93,1.56.1,3.27-.17,2.67-1.98l32.75.47c5.45.08,10.61-.11,16.13-.09l17.82.07,16.97-.26c14.02-.22,27.5.79,41.47-.17,3.09-.21,6.78.03,9.33.64.47.42.9,1.3,1.56,1.34,1.31.08,2.39-1.03,1.74-2.09h13.55c-.49.48-.2.97.17,1.48.32.44.83.84,1.48.5s1.23-1.31.68-2c1.88,0,3.77-.1,5.66,0-.63.93.32,1.69.91,1.87.88.27,2.1.19,3.27.18l3.38-.02c.81,0,2.37-.39,1.79-1.9,1.87.28,3.98.11,5.81.57,1.13.28,1.78,2.02,3.48,1.5,1.43-.44,4.17.36,3.67-2.12,2.42-.22,5.45.12,7.74.69.43.31.78,1.18,1.55,1.22s1.06-1.07,1.53-1.21c1.45-.22,3.43-.21,4.89,0,.51.23.98,1.18,1.69,1.3,1.13.2,1.83-.7,2.39-1.38l17.96-.09c12.6-.06,24.78-.93,37.26-.42l15.52.64c.42.38.92,1.09,1.61,1.08s1.19-.77,1.61-1.11c3.84.44,7.83-.92,11.69-.69-.44.51-.17.94.17,1.38.35.46.86.81,1.48.49s1.22-1.21.7-1.9c2.86.74,5.78.86,8.63.05-.43.45-.18.82.15,1.35.28.45.94.78,1.27.33l.76-1.06c.9-.19,2.05-.08,2.99-.06-1.04,2.15,7,1.55,6.08.08l3.81-.07c.16,1.36,1.45,1.33,2.55,1.39,1.3.07,3.29-.23,2.69-2.03.53.08,1.12,0,1.66,0-.59,1.27.49,2,1.66,1.99,1.1,0,2.28-.66,1.68-1.94l6.64-.02c-.41.47-.19.9.15,1.38.31.43.71.76,1.4.43.36-.17.48-.9.7-1.21,4.07-1.26,8.54.08,12.72-.59-.44.52-.13.98.17,1.4.53.74,1.6.61,2.4.36.55-.17.67-1.23.75-1.88,1.32,0,2.92-.49,2.92-2.98l.02-61.77c0-2.36,1.1-4.76.67-7.08-1.43-7.7-.39-14.95-.41-22.48l-.1-44c0-1.83,1.06-3.47-.12-5.1-.83-1.14-2.43-1.36-3.97-1.42-.26-.69-.54-1.97-2.09-1.96l-36.01.09c-.98,0-1.72,1.31-1.15,1.91h-1.66c.43-.51.16-.98-.16-1.42-.36-.5-.93-.82-1.48-.49-.65.41-1.39,1.31-.76,1.98h-10.57c.61-1.41-.61-2-1.67-2.06-1.6-.09-3.3.19-2.67,2.07-1.89.1-3.77-.08-5.65-.08.57-.6-.15-1.92-1.22-1.92h-79.73c-1.07,0-1.86,1.25-1.24,1.86h-2.62c.63-.66-.22-1.81-1.19-1.82l-13.03-.06c-1.11,0-2.11.49-2.02,1.24-.44-.15-1.37.02-1.84,0,2.07-1.63-14.28-2.3-11.23.65l-2.64-.02c.62-.63-.21-1.84-1.17-1.84h-14c-.96,0-1.72,1.27-1.15,1.88l-3.65-.02c.6-.63-.2-1.85-1.16-1.86l-14.02-.04c-1.07,0-2.22.41-2.06,1.19-.66-.22-2.06-.02-2.77-.02.21-.8-1.05-1.16-2.09-1.16l-13.02.03c-.97,0-1.7,1.25-1.14,1.87h-3.66c2.99-2.82-13.32-2.75-10.33-.04-.86-.06-1.77-.05-2.63.01.61-1.84-1.46-1.97-2.68-2-1.41-.04-3.22.37-2.76,2.11l-5.54-.12c.59-.6-.19-1.87-1.18-1.87h-41.92c-.97,0-1.79,1.44-1.16,2h-1.64c.47-.48.21-.96-.16-1.48-.3-.41-.75-.82-1.48-.51-.59.25-1.18,1.21-.69,1.91h-1.72c2.18-2.99-8.33-1.82-8.38-1.81-.58.17-1.45.97-.86,1.89-1.57.01-3.14.12-4.71,0,2.62-3.17-10.92-2.34-9.22-.8-1-.04-2.78-.22-3.77-.05.21-1.14-.83-1.15-1.62-1.22-1.17-.11-2.24.76-1.66,1.96-.51-.15-1.13,0-1.67,0,.41-.5.17-.95-.15-1.39-.34-.47-.86-.8-1.47-.49s-1.21,1.21-.7,1.9c-.55,0-1.12-.03-1.67,0,.58-1.9-1.52-1.97-2.67-2.01-1.72-.06-4.18-.12-3.67,2.1-3.54.06-7.08.02-10.62,0,.46-.49.18-1.05-.16-1.51-.53-.72-1.56-.63-2.46-.44-.58.12-1.34,1.26-.73,1.94l-3.62-.1c1.45-2.71-5.45-1.95-6.48-1.77-.87.15-.31,1.28-.72,1.93ZM30.81,247.1c-.55.04-1.06.05-1.43.18-.58.19-.77.72-.55,1.42.16.54,1.38.44,1.89.68l.02,4.86c-.64.38-1.75.9-1.89,1.54-.28,1.25.82,2.49,1.96,2.37-.27.48.17,1.34.02,1.88-.54.5-.87,1.14-1.03,1.79-.26,1.05.64,1.9,1.07,2.6v12.52c-.19.26-.54.57-.69.96-.2.57.47,1.05.72,1.44-.36,3.71.43,8.14-.71,11.8-.56,1.8-3.38,13.1.88,11.87.45-.13,1.27.58,1.7.36.25,1.03,1.08,1.71,2.02,1.96,1.14.31,3.09.31,3.07-1.21,8.03-.62,16.02-.68,24.04-.72-1.06,3.77,16.21,2.45,18.81.86,2.62.94,17.49,3.41,14.97-1.03h2.03c-1.58,3.64,3.72.95,9.34,2.67.93.29,1.3-1.8.76-2.47l5.65-.18c-.59,1.26.57,1.92,1.68,1.92s2.33-.64,1.69-1.9h6.58c-.67.68.24,1.77,1.21,1.78l15.04.15c1.85.02,1.7-1.44,2.07-2.1.6-.52,1.81-.76,1.86-1.89.29-.31,1.61.13,1.89-.73.25-.74-.76-1.13-1.03-1.52-.82-12.79.75-34.51-.74-46.59.62.53,1.4.01,1.86-.72s-1-1.11-1.09-1.63c-.19-1.1.3-2.73-.56-3.72-.81-.94-2.65-1.88-4.59-1.89l-105.46-.18c-2.09,0-2.87,1.53-3.06,2.83ZM169.46,303.08c.19.33-.01,1.13.15,1.48.4.87,1.48.66,2.38.51.58-.1,1.17-1.17.69-1.86l8.65.03c.09.51.15.98.32,1.35.21.44.72.73,1.24.48.58-.27.7-1.16.78-1.82.88.04,1.76.02,2.64.01-.61,2.01,1.66,1.7,2.71,2.01,1.64.48,2.52-1.06,3.61-1.29,5.78-1.22,11.72-.65,17.59-.61-2.2,2.57,10.72,2.46,8.47.03.79.22,1.71-.09,2.51-.02-.52.58.12,1.42.82,1.68.54.19,1.23-.62,1.56-1.07.82-.24,1.92.25,2.71-.05-2.21,1.69,14.37,1.73,12.22-.01,1.11.41,2.61-.29,3.76.02.67.78,1.59,1.26,2.62,1.27s1.97-.47,2.65-1.23h2.69c1.34,1.8,4.94,1.8,6.27-.01h2.72c.28,0,.49.65.89.77.57.17,1.01-.51,1.37-.8,3.05-1,19.77,2.47,19.77-1.91l.09-57.09c-4.27-1.02-7.66-.43-10.88-.55-.24-.16-.48-.64-.89-.77-.54-.17-1.03.43-1.34.8l-48.57-.28c-4.61-.03-8.91-.2-13.44-.14l-33.71.38c-1.8.02-3.2.52-3.97,1.37-1.12,1.24-.97,2.7-.97,4.52l-.02,49.82c0,1.53,1.22,2.48,1.93,2.98ZM309.06,366.12c.45,1.12,1.18,2.19,2.65,2.04s3.33-.33,2.69-2.17h21.64c-.38.39-.12,1.02.08,1.45.16.34.75.76,1.46.55.54-.15.53-1.21.72-1.93l8.63-.08c-.53.5-.17,1.02.19,1.5.53.71,1.53.63,2.47.44.59-.12,1.29-1.26.71-1.96l9.64.11c-.44.55-.12,1.08.18,1.33,1.31,1.09,8.8,1.12,7.13-1.35h13.64c-3.01,2.81,13.54,2.82,10.29-.1,8.26-.08,16.7.39,25.56-.28l.86-27.87c.14-4.5-.72-8.5-.47-12.58,1.26.61,1.93-.57,1.93-1.68s-.65-2.3-1.91-1.68c.1-.86-.05-1.78,0-2.63.32-.17,1.05-.13,1.34-.31.44-.27.63-.7.46-1.25-.21-.67-1.35-.56-1.82-.8v-3.63c1.83.58,1.95-1.53,1.95-2.68,0-1.56.23-4.19-1.92-3.68.08-.85.04-1.75,0-2.6,1.27.63,1.89-.62,1.9-1.69.01-1.14-.69-2.27-1.95-1.67l.03-20.6c1.4.61,1.85-.71,1.91-1.67.09-1.52-.16-3.32-1.94-2.69-.04-7.83-.38-15.75.49-23.99.2-1.92.7-3.75-.46-5.42-.88-1.26-2.72-2.24-5.22-2.24h-107.19c-2.02,2.71-1.15,5.03-1.15,7.98l-.19,112.32c1.69,1.94,3.97,1.23,5.65,1.49ZM263.12,308.59c-1.57.97-.61,2.7.68,2.5.53-.08.94-.93,1.29-1.54.45-.79-.49-1.88-1.97-.96ZM254.27,311.11c-1.96-1.26-3.98-2.49-6.06-1.3,1.2,2.96,3.98,2.81,6.06,1.3ZM78.66,317.79l-2.74.14c.47-.52.17-.92-.17-1.35-.38-.46-.87-.8-1.48-.48s-1.21,1.19-.69,1.87h-7.66c3.71-2.79-17-2.75-13.3-.02-.33-.02-.77-.06-1.65,0,.62-1.78-1.39-1.97-2.67-1.96s-3.29.16-2.67,1.94c-.63-.07-1.34-.1-2.64,0,.59-1.83-1.55-1.93-2.68-1.93-1.56,0-4.18-.24-3.68,1.9-.31-.04-.73-.11-1.57-.1.48-.54.03-.92-.23-1.24-.46-.57-1.02-.77-1.48-.47-.7.45-1.17,1.34-.61,1.98-1.37.28-1.76,1.74-1.86,2.67-.15,1.39.1,4.23,2.1,4.25l29.71.42c2.55.04,4.64-.08,7.21-.09l69.69-.2c2.15,0,3.55-.76,4.3-2.34.48-1.03,1.33-3.72-.61-4.2-4.16-1.03-8.52-.67-12.44-.68.63-.71-.21-1.74-1.21-1.75l-44.65-.41c-2.67-.02-5.88-1.15-6.29,2.04ZM169.46,318.12c-1.96.61-2.07,2.79-1.72,4.37.49,2.17,2.32,2.93,4.73,2.78,6.81-.42,13.25.3,20,.37l22.76.25c.81,0,1.62-.01,2.43-.02l18.23-.25c16.53-.23,26.08.1,43.44-.81,1.94-.1,2.95-5.16,1.49-6.17-2.06-1.44-5.2-.85-7.33-.67.46-.56.12-1.08-.19-1.33-1.36-1.08-8.81-1.07-7.14,1.32l-14.65.04c6.36-3.1-25.04-2.3-19.28-.04l-23.62.02c.56-1.4-.61-1.91-1.65-1.96-1.52-.07-3.28.12-2.67,1.93h-22.61c.62-1.8-1.39-1.93-2.66-1.96-1.34-.03-3.31.18-2.59,2.02h-5.75c.31-.39.24-.83-.12-1.39-.27-.42-.6-.83-1.02-.02-.21.41-.09,1.02-.07,1.53ZM32.72,345.01c.16.41-.1,1.2.11,1.54.26.44.98.76,1.47.47.62-.38,1.23-1.21.7-1.87,5.94.38,11.9.76,18.25.28,16.07-1.2,30.27.87,40.63,0,4.95-.42,9.9,1.16,15.05-.06,4.69-1.11,39.03,2.05,35.68-3.11.58-.08,1.1-.13,1.45-.27.59-.25.63-.78.57-1.44-.09-.97-1.72-.21-2.02-.67-.38-.58-.45-1.88-2.02-1.89l-48.75-.2c-3.26-.01-5.99-.06-9.27-.04l-47.76.2c-2.3,0-4.66-.72-5.65,1.76-.63,1.59-.38,4.3,1.56,5.3ZM218.03,345.15l60.22.02c2.34,0,3.97-1.86,3.88-3.62-.07-1.36-.58-3.61-2.84-3.6l-109.69.17c-2.36,0-2.25,3.85-1.53,4.97.69,1.06,2.48,2.03,4.42,2.04l17.68.14,27.85-.13ZM30.11,357.98v8.01s80.54.06,80.54.06v-8.01s-80.54-.06-80.54-.06ZM184.33,365.98c-.44.48-.2.98.15,1.49.3.44.82.83,1.48.51s1.12-1.32.64-2h18.67c-.48.51-.18,1.05.17,1.52.52.71,1.53.62,2.47.45.6-.12,1.22-1.27.68-1.96l36.63-.28c2.48-.02,2.45-3.52,1.95-5.02-.61-1.81-2.24-2.7-4.73-2.68l-72.57.38c-2.21.01-2.48,3.65-1.94,4.83.51,1.11,1.66,2.71,3.64,2.71l12.76.06Z"/>
        <path class="cls-2" d="M417.04,52.67c.35-.84.04-1.77-.66-1.91-3.39-.65-11.29.81-22.3-1.13-1.24-.22-3.03.09-3.73.74-.46.43-.09,1.69-.2,2.31-1.53-.28-3.44-.11-4.99.06,2.82-5.57-12.09-2.15-15.87-2.66-5.51-.74-10.36-.07-15.62-.11l-61.32-.43c-3.55-1.16-6.43.96-9.79.17l-200.71-.26-72.77.22-.34-21.93c-.11-7.22,3.29-15.72,9.19-15.14,6.7-.54,13.69.95,20.78-.07,6.54-.94,12.44-.61,19.09-.14l13,.92c1.18.08,2.34-.16,3.1-.67s.81-1.95.81-2.98l5.93.06c-7,5.52,29.55,2.22,32.03,2.17l25.97-.53c-2.92-1.7-6.18.67-8.02-1.74,8.45-1.91,17.39-.4,26.43-.43l48.14-.16h25.94c7.49,0,14.65-.44,22.22.32,3.84.38,7.66-.25,11.49-.25h75.34c7.67-.01,14.63.7,22.21.28,4.58-.25,9.44-.11,14.16-.04,12.95.18,25.49.47,38.38,0,3.98-.14,7.17-.93,11.32.14,6.12,1.59,12.38,6.2,12.44,13.21l.26,30.13-21.91-.16ZM23.48,37.36c2.5,4.31,5.83,6.52,9.89,6.6s7.85-.95,10.08-4.5c4.14-6.57,3.87-13-1.52-17.63-4.83-4.14-13.01-4.52-16.74.8-3.41,4.86-4.73,9.54-1.71,14.73ZM76.34,41.11c4.87-4.64,5.5-11.49,2.5-15.95-3.1-4.62-7.93-7.54-14.27-6.15-8.05,1.76-11.35,11.28-7.73,18.36,3.41,6.66,13.44,9.51,19.5,3.74ZM111.33,41.75c4.05-3.09,5.63-9.21,4.79-13.6-.91-4.78-4.91-7.2-8.17-8.37-4.37-1.57-8.95-1.28-12.16,1.84-3.04,2.96-5.2,5.95-5.12,9.62.07,3.44,1.04,6.86,4.16,9.62,3.97,3.51,11.6,4.62,16.49.89Z"/>
        <path class="cls-3" d="M385.14,52.74l-6.86.73c.46-.46.2-.81-.16-1.33-.31-.44-.93-.76-1.26-.31l-.78,1.04c-.92.31-2.05-.1-2.99.04.14-.91-.81-1.37-1.9-1.37l-29.03.11c-.96,0-1.77,1.24-1.17,1.85-4.54.05-9.13.3-13.66,0-1.37-.09-2.9-1.28-5.1-1.06-5.8.58-11.25.38-16.81-.73-.29.93.14,1.4.09,1.89l-14.07-.09c.61-1.79-1.39-1.97-2.67-1.97s-3.26.17-2.66,1.97c-1.14-.28-2.95.38-3.97-.23-2.3-1.38-5.04-.56-7.63-.54l-9.09.09c.18-.77-1-1.2-2.07-1.2l-24.98.03c-.96,0-1.8,1.24-1.17,1.85l-6.63.02c.49-2.18-2.03-2.01-3.65-1.98-1.14.02-3.28.1-2.69,1.95h-2.62c.45-.45.2-.82-.16-1.35-.31-.45-.71-.64-1.24-.29-.29.19-.6.7-.88.99h-5.8c-.78-1.35-4.54-2.01-6.09-1.2-4.63,2.43-9.6,1.82-15.08,1.43-5.38-.38-10.75-.29-15.74-.25.19-.67-.98-1.3-2.18-1.3l-95.66.11c-1.11,0-1.8,1.32-1.24,1.91l-7.64-.03c.58-1.51-1-1.9-1.8-1.9l-3.37-.03c-1.12,0-2.39-.03-3.24.18-.58.15-1.54.75-.93,1.75l-8.64.04c.56-.88-.28-1.61-.88-1.79-.81-.24-7.97-.88-6.43,1.76h-7.64c.6-1.83-1.14-2.03-2.67-1.96-1.03.05-2.25.57-1.66,1.97-3.88.04-7.75.03-11.62-.02.6-1.26-.53-1.97-1.67-1.96-1.08,0-2.31.65-1.69,1.92-2.37-.03-4.94.04-7.68-.81-1.48-.46-.89-2.2-.9-3l72.77-.22,200.71.26c3.36.79,6.24-1.33,9.79-.17l61.32.43c5.26.04,10.11-.63,15.62.11,3.78.51,18.69-2.91,15.87,2.66Z"/>
        <path class="cls-2" d="M176.62,52.82l-99.07.72c-.56-.59.13-1.91,1.24-1.91l95.66-.11c1.2,0,2.36.63,2.18,1.3Z"/>
        <path class="cls-3" d="M34.69,9.55c.34.28.8,1.05,1.34.79.4-.19.66-.58.87-.82l37.79.14c0,1.04-.02,2.46-.81,2.98s-1.93.75-3.1.67l-13-.92c-6.65-.47-12.55-.8-19.09.14-7.09,1.02-14.08-.47-20.78.07-.5-4.88,13.28-2.43,16.77-3.05Z"/>
        <path class="cls-3" d="M111.55,9.89c3.15.28,7.11,2.38,10.08-.16.96.12,2.05-.17,2.99,0,.47.09.82.99,1.5.99s1-.85,1.49-.99c.95-.26,2.02-.02,2.99-.11,1.84,2.41,5.1.04,8.02,1.74l-25.97.53c-2.48.05-39.03,3.35-32.03-2.17,10.29.11,20.67-.74,30.93.17Z"/>
        <path class="cls-2" d="M373.1,52.91c-10.53,1.61-21.41.46-32.11.58-.6-.61.2-1.84,1.17-1.85l29.03-.11c1.09,0,2.05.46,1.9,1.37Z"/>
        <path class="cls-2" d="M186.58,62.42c.12.78-.95,1.22-2.04,1.22l-27.07.03c-1.1,0-2.1-.31-1.91-1.32,10.17-1.18,20.88-1.28,31.02.07Z"/>
        <path class="cls-3" d="M417.04,52.67l-17.61-.25c-3.25-.05-6.28.81-9.3.26.11-.62-.26-1.88.2-2.31.7-.65,2.5-.96,3.73-.74,11.01,1.94,18.92.47,22.3,1.13.7.14,1.01,1.07.66,1.91Z"/>
        <path class="cls-2" d="M265.43,52.82c-9.22.09-18.82.65-28.23.68-.62-.61.22-1.85,1.17-1.85l24.98-.03c1.07,0,2.25.43,2.07,1.2Z"/>
        <path class="cls-2" d="M425.16,386.86c-.44.29-1.12,1.13-2.14,1.12l-25.16-.2c-.63-.61.23-1.83,1.18-1.83l24.9.05c.73,0,1.5.3,1.21.86Z"/>
        <path class="cls-2" d="M151.56,62.38c.39.81-.94,1.25-1.98,1.26l-19.07.05c-1.11,0-2.1-.34-1.9-1.35,7.46.29,15.48-1.49,22.95.05Z"/>
        <path class="cls-2" d="M327.33,53.5c1.1,2.68-20.18.11-21.82.1.05-.49-.39-.96-.09-1.89,5.56,1.11,11.01,1.31,16.81.73,2.19-.22,3.73.97,5.1,1.06Z"/>
        <path class="cls-2" d="M211.44,62.39c.39.82-.94,1.24-1.98,1.24l-15.08.05c-1.12,0-2.1-.35-1.9-1.36,6.14-1.04,12.86-1.36,18.96.07Z"/>
        <path class="cls-2" d="M269.51,61.79c.65.7-.22,1.76-1.2,1.78l-10.08.17c-1.45.02-2.27-.9-2.89-1.35-2.26-1.41,14.1-.61,14.17-.6Z"/>
        <path class="cls-2" d="M36.98,61.73c.59.64-.18,1.86-1.15,1.86h-12.01c-.97,0-1.72-1.21-1.15-1.85,4.77.01,9.54-.19,14.31-.01Z"/>
        <path class="cls-2" d="M395.24,387.79c-4.11.43-8.23-.01-12.33,0-3.45-2.74,15.8-2.71,12.33,0Z"/>
        <path class="cls-2" d="M121.63,9.73c-2.97,2.54-6.93.44-10.08.16,2.5-2.08,7.4-1.81,10.08-.16Z"/>
        <path class="cls-2" d="M284.38,62.42c1.85,1.54-12.99,2.31-10.24-.7,3.61-.55,6.91.08,10.24.7Z"/>
        <path class="cls-2" d="M432.97,62.34c-3.13,2.76-11.05,1.29-9.14-.62,3.04,0,6.49-.95,9.14.62Z"/>
        <path class="cls-2" d="M282.15,53.27l-7.69,1.41.06-1.95c2.59-.02,5.33-.84,7.63.54Z"/>
        <path class="cls-2" d="M69.92,53.51c-3.13-.01-6.21,0-9.34,0-.6-.99.35-1.6.93-1.75.84-.21,2.11-.19,3.24-.18l3.37.03c.8,0,2.38.39,1.8,1.9Z"/>
        <path class="cls-2" d="M69.92,61.75c1.58,2.56-5.51,2.03-6.47,1.73-.57-.18-1.46-.89-.87-1.77,2.45-.01,4.89.05,7.34.04Z"/>
        <path class="cls-2" d="M51.93,53.55l-7.31-.03c-1.54-2.64,5.62-2,6.43-1.76.61.18,1.45.91.88,1.79Z"/>
        <path class="cls-2" d="M213.54,52.84c-1.14,0-2.15,1.19-3.56.97s-3.05-.1-2.53-2.16c1.54-.81,5.31-.14,6.09,1.19Z"/>
        <path class="cls-2" d="M230.57,53.52c-2.12,0-4.22-.02-6.34-.02-.6-1.85,1.55-1.93,2.69-1.95,1.63-.03,4.15-.2,3.65,1.98Z"/>
        <path class="cls-2" d="M291.44,53.5c-1.75-.01-3.58.43-5.33,0-.6-1.79,1.38-1.97,2.66-1.97s3.28.18,2.67,1.97Z"/>
        <path class="cls-2" d="M247.54,61.75c.64,1.38-.88,1.96-1.7,1.96-1.46,0-3.27.16-3.55-1.31,1.77,0,3.15-.83,5.25-.65Z"/>
        <path class="cls-2" d="M51.93,61.71c.6,1.86-1.39,2.01-2.66,2.03-1.39.02-3.26-.34-2.73-2.11,1.8-.05,3.6-.01,5.39.08Z"/>
        <path class="cls-2" d="M36.98,53.52c-1.41,0-2.91,0-4.33.02-.59-1.4.63-1.92,1.66-1.97,1.54-.08,3.28.13,2.67,1.95Z"/>
        <path class="cls-2" d="M413.2,61.75c.61,1.4-.68,1.88-1.67,1.94-1.55.09-3.28-.15-2.67-1.96l4.34.02Z"/>
        <path class="cls-2" d="M42.97,61.73c.59,1.41-.66,1.9-1.67,1.96-1.55.09-3.27-.14-2.67-1.97,1.45-.12,2.89.05,4.33,0Z"/>
        <path class="cls-2" d="M217.52,62.41c-.46.39-.98,1.16-1.63,1.24-.87.11-1.83-.25-1.46-1.24.45.06.95-.97,1.56-.75.5.18,1.85-.23,1.53.76Z"/>
        <path class="cls-2" d="M21.02,53.53l-3.36-.04c-.62-1.27.6-1.92,1.69-1.92,1.14,0,2.28.7,1.67,1.96Z"/>
        <path class="cls-2" d="M127.62,9.73c-.49.14-.8.98-1.49.99s-1.04-.9-1.5-.99c-.15-.93.8-1.06,1.5-1.06s1.65.12,1.5,1.06Z"/>
        <path class="cls-2" d="M254.54,387.87c-.49.1-.96,1.11-1.68,1-.67-.11-1.23-.57-1.67-1.02-.17-.92,1.1-.87,1.67-.85.6.01,1.83-.03,1.69.88Z"/>
        <path class="cls-2" d="M228.42,62.41c-.41.56-.99,1.14-1.54,1.24-1.23.22-2.28-.86-1.66-1.88,1.05.03,2.74-.65,3.2.64Z"/>
        <path class="cls-2" d="M112.81,61.71c.5.7-.07,1.58-.69,1.91-1.15.61-1.96-.66-2.46-1.31.48-1.23,2.15-.64,3.15-.61Z"/>
        <path class="cls-2" d="M86.87,61.73c.42.52.15,1.05-.17,1.43-.59.71-1.63.62-2.46.42-.62-.15-1.31-1.28-.72-1.95l3.35.1Z"/>
        <path class="cls-2" d="M14.94,383.96c-.41-.35-1.55.05-1.89-.71-.17-.39-.19-.96-.3-1.31.45-.04.98-.03,1.51.18.65.26.88,1.11.68,1.84Z"/>
        <path class="cls-2" d="M56.93,61.74c.42.51.17.95-.16,1.38-.35.47-.86.81-1.47.49s-1.27-1.2-.71-1.88c.78,0,1.57.01,2.35.01Z"/>
        <path class="cls-2" d="M11.06,61.63c.62.72-.28,1.41-.86,1.84-.37.27-.89.3-1.36.21,0-.71-.18-1.71.59-1.98.59-.21,1.18-.08,1.63-.07Z"/>
        <path class="cls-2" d="M79.92,61.63c.5.48.21.95-.18,1.48-.3.4-.75.82-1.48.51-.58-.25-1.24-1.22-.69-1.91l2.35-.07Z"/>
        <path class="cls-2" d="M378.28,53.47c-.7.07-2.1.46-2.2-.6l.78-1.04c.34-.45.95-.13,1.26.31.36.52.62.86.16,1.33Z"/>
        <path class="cls-2" d="M221.61,53.5c-.69,0-2.27.41-2.28-.65.28-.29.59-.8.88-.99.53-.35.93-.16,1.24.29.36.53.6.9.16,1.35Z"/>
        <path class="cls-2" d="M9.84,377.23c-.79.61-1.59-.29-1.8-.92-.2-.59.14-1.15.13-1.61.6-.57.91,0,1.11.29.57.82.43,1.61.56,2.24Z"/>
        <path class="cls-2" d="M429.2,385.12c-.09.66-.39,1.39-.9,1.55-.59.19-1.07.13-1.49.14-.46-.53-.18-.99.19-1.32.67-.61,1.51-.56,2.2-.37Z"/>
        <path class="cls-2" d="M21.97,387.08c-.37.31-.92.97-1.45.68-.64-.34-.68-1.19-.88-1.67.87-.01,2.1-.07,2.33.98Z"/>
        <path class="cls-2" d="M75.9,61.71c.43.5.18.95-.16,1.41s-.83.81-1.47.49c-.6-.29-1.24-1.2-.71-1.89l2.34-.02Z"/>
        <path class="cls-2" d="M36.9,9.53c-.21.24-.47.62-.87.82-.54.26-1-.51-1.34-.79-.36-.68.19-.68.7-.73.66-.06,1.9-.2,1.52.71Z"/>
        <path class="cls-2" d="M261.5,387.84c-.36.32-.85.91-1.4.73-.4-.13-.65-.69-.92-.75-.3-.65.26-.75.73-.8.71-.08,1.86-.05,1.59.81Z"/>
        <path class="cls-2" d="M281.47,387.85c-.43.2-1.05,1.39-1.62,1.07-.74-.41-1.31-1.22-.74-1.82.74.02,2.23-.24,2.36.75Z"/>
        <path class="cls-2" d="M16.7,61.72c.44,0,.88,0,1.31.01.38.43.2.86-.14,1.38-.42.62-.63.62-1.04,0-.34-.52-.49-.96-.13-1.39Z"/>
        <path class="cls-1" d="M144.48,250.06c-.9.11-.85,1.64-.77,2.34,1.49,12.08-.07,33.8.74,46.59-1.03.06-.64,1.55-.86,2.25-.05,1.12-1.26,1.36-1.86,1.89-6.11.05-12.22.17-18.31.17h-6.58c-1.1,0-2.27-.06-3.37-.02l-5.65.18c-3.36.1-6.73-.2-10.1-.2h-2.03s-33.78.17-33.78.17c-8.02.04-16.01.1-24.04.72-1.47.11-3.4-1.63-5.09-.76-.43.22-1.25-.49-1.7-.36-1.17-3.55,2.04-11.95-.88-11.87,1.14-3.66.35-8.09.71-11.8.9.23.95-.91.8-1.61-.1-.48-.2-1-.84-.8v-12.52c1.24,1,1.32-5.53-.03-4.39.16-.54-.28-1.4-.02-1.88.78-1.43-.07-2.59-.07-3.91l-.02-4.86.09-2.28c.19-1.3.97-2.83,3.06-2.83l105.46.18c1.94,0,3.78.95,4.59,1.89.85.99.36,2.63.56,3.72ZM111.6,258.77c4.17-1.51,7.7-4.32,11.97-5.53.58-.16,1.24.17,1.58-.05.49-.32.69-1.01.48-1.49-.37-.87-.97-.24-2.16-.38-2.68-.31-5.36.28-8.89.28l-65.97-.03,37.88,18.75,17.46-7.65c2.81-.91,5.69-1.55,7.64-3.9ZM79.94,274.4c-2.79-3.66-6.13-2.37-8.7-4.05-2.94-1.92-5.84-3.38-9.09-4.91l-24.15-11.36-.1,40.5,19.39-9.58,22.65-10.6ZM132.32,292.14c.67,1.41,2.38,2.44,3.67,1.82.8-.39.43-1.84.5-2.65s.05-1.67-.01-3.33l-.1-2.83.32-31.41-14.18,7.21-28.77,13.38c13.52,6.45,25.91,11.39,38.57,17.81ZM125.89,297.19c-3.02-3.36-6.9-4.3-10.78-5.79-10.3-3.96-17.13-9.86-28.39-13.67l-22.28,11.06c-5.36,2.66-11.25,3.73-16.16,8,10.96,1.25,20.52.14,30.6.19l47.02.22Z"/>
        <path class="cls-1" d="M268.21,244.43c-.36.89.87.79,1.52.71.49-.06,1.04-.08.7-.74,3.23.12,6.62-.47,10.88.55l-.09,57.09c0,4.38-16.72.91-19.77,1.91.33-.88-.88-.83-1.54-.74-.48.07-1.03.12-.71.77h-2.72c-1.84-1.36-4.43-1.35-6.27,0h-2.69c-1.14-1.38-4.12-1.4-5.27-.03-1.15-.31-2.65.39-3.76-.02-3.77-1.38-8.46-1.44-12.22.01-.79.31-1.89-.19-2.71.05-.13-1.07-1.65-.54-2.38-.61-.8-.08-1.72.24-2.51.02-2.81-.78-5.65,0-8.47-.03-5.87-.05-11.8-.62-17.59.61-1.59-1.63-4.22-.73-6.31-.72-.88,0-1.76.03-2.64-.01l-2.34-.02-8.65-.03-3.22-.14c-.71-.5-1.93-1.46-1.93-2.98l.02-49.82c0-1.82-.15-3.28.97-4.52.77-.85,2.17-1.35,3.97-1.37l33.71-.38c4.54-.05,8.84.12,13.44.14l48.57.28ZM191.43,254.6c.28,1.18,1.49,2.06,2.96,2.49,3.59,1.05,25.42,10.66,29.84,13.47l38.96-18.89-65.91-.1c-3.71,0-7.53-.96-11.88.14.87,2.14,3.93,3,6.02,2.88ZM216.68,273.78c-4.56-1.95-7.78-4.38-11.7-6.07l-12.51-5.39c-5.99-2.58-11.48-5.8-17.95-8.33l-.15,40.82,34.08-16.53c2.84-1.38,6.07-1.05,8.23-4.51ZM268.76,292.05c1.19.58,5.2,3.75,5.22.79l.16-39.19-20.78,10.6c-6.74,3.44-14.05,5.38-21.05,10.16l36.45,17.63ZM264.36,296.52c-4-2.77-8.03-4.43-12.38-5.94-8.32-2.9-16.06-6.92-23.6-11.25-3.54-2.04-5.84-.95-9.01.53l-15.87,7.41c-6.36,2.97-12.55,5.6-18.68,9.7l72.42.32c2.53.01,4.98,1.92,7.12-.76Z"/>
        <path class="cls-1" d="M417.14,275.99l.02,4.36-.03,20.6c0,1.12,0,2.24.04,3.36.04.85.08,1.75,0,2.6-.21,2.12-.04,4.24-.03,6.36v3.63s.02,2.36.02,2.36c-.04.85.11,1.77,0,2.63-.14,1.12.05,2.25-.02,3.36-.25,4.08.61,8.08.47,12.58l-.86,27.87c-8.86.67-17.29.2-25.56.28l-10.29.1h-13.64l-7.31.02-9.64-.11h-3.37s-8.63.08-8.63.08l-2.27-.09h-21.64c-1.78-.03-3.57,0-5.35.15-1.68-.26-3.97.45-5.65-1.49l.19-112.32c0-2.96-.86-5.28,1.15-7.97h107.19c2.5-.01,4.34.96,5.22,2.23,1.17,1.67.67,3.5.46,5.42-.87,8.24-.53,16.16-.49,23.99ZM311.22,264.24l-.18,94.7,86.04-.09c3.54,0,7.03-.48,11.18.09,1.64-.43.58-3.67.95-4.83,1.36-4.35.79-13.28.66-18.24-.03-1.21-.06-2.43,0-3.64.23-4.1.22-8.22.02-12.32-.04-.88-.02-1.77,0-2.65.23-9.1.19-18.21-.04-27.31-.09-3.45-.19-7.28-.63-10.69,1.39,2.74.66-17.38.67-17.22-.19-2.96.73-6.43-.33-9.47-.54-1.56-3.36-.45-4.48-.45l-83.88-.04c-1.33,0-2.67-.07-3.99-.03l-1.99.05c-.85.02-3.29-.62-3.64.42-.84,4.01-.36,7.98-.36,11.72Z"/>
        <path class="cls-1" d="M169.46,318.12c.4,0,.81-.13,1.22-.13h5.75c1.76.02,3.5-.05,5.25-.05h22.61s4.32.03,4.32.03l23.62-.02,19.28.04,14.65-.04c2.44,0,4.87.2,7.32,0,2.13-.18,5.27-.76,7.33.67,1.46,1.02.45,6.07-1.49,6.17-17.35.9-26.91.58-43.44.81l-18.23.25c.67-.7-.22-1.49-.77-1.78-.63-.34-1.09.05-1.47.48s-.71.8-.19,1.33l-22.76-.25c-6.74-.07-13.18-.79-20-.37-2.41.15-4.24-.61-4.73-2.78-.36-1.58-.24-3.75,1.72-4.37Z"/>
        <path class="cls-1" d="M144.59,339.88v2.39c3.36,5.16-30.98,2-35.67,3.11-5.15,1.22-10.1-.36-15.05.06-10.37.87-24.56-1.2-40.63,0-6.35.47-12.31.1-18.25-.28l-2.27-.15c-1.94-.99-2.19-3.7-1.56-5.3.99-2.48,3.35-1.75,5.65-1.76l47.76-.2c3.28-.01,6.01.03,9.27.04l48.75.2c1.57,0,1.64,1.31,2.02,1.89Z"/>
        <path class="cls-1" d="M218.03,345.15l-27.85.13-17.68-.14c-1.94-.02-3.74-.98-4.42-2.04-.73-1.12-.83-4.97,1.53-4.97l109.69-.17c2.26,0,2.77,2.24,2.84,3.6.09,1.76-1.55,3.62-3.88,3.62l-60.22-.02Z"/>
        <path class="cls-1" d="M35.04,317.8c.84-.01,1.26.06,1.57.1,2.73.34,4.55.16,6.36.02,1.3-.1,2.01-.07,2.64,0,2.39.26,3.86.12,5.34.02.88-.06,1.32-.02,1.65,0,5.05.33,9.17.02,13.3.02h7.66s2.34-.04,2.34-.04l2.74-.14,52.15.12c3.92,0,8.28-.36,12.44.68,1.94.48,1.09,3.18.61,4.2-.75,1.59-2.15,2.34-4.3,2.34l-69.69.2c-2.56,0-4.66.12-7.21.09l-29.71-.42c-1.99-.03-2.25-2.86-2.1-4.25.1-.92.49-2.38,1.86-2.67,1.22-.25,1.87-.27,2.33-.28Z"/>
        <rect class="cls-1" x="66.37" y="321.74" width="8.01" height="80.55" transform="translate(-291.69 432.11) rotate(-89.96)"/>
        <path class="cls-1" d="M208.6,365.98h-3.32s-18.67,0-18.67,0h-2.27s-12.76-.05-12.76-.05c-1.97,0-3.13-1.6-3.64-2.71-.54-1.19-.27-4.82,1.94-4.83l72.57-.38c2.48-.01,4.12.87,4.73,2.68.5,1.49.53,5-1.95,5.02l-36.63.28Z"/>
        <path class="cls-2" d="M349.32,81.49l-82.18-.06c-.62-.61.17-1.85,1.24-1.85h79.73c1.07,0,1.79,1.32,1.22,1.91Z"/>
        <path class="cls-2" d="M130.8,317.91l-52.15-.12c.4-3.19,3.62-2.06,6.29-2.04l44.65.41c1,0,1.84,1.04,1.21,1.75Z"/>
        <path class="cls-2" d="M95.68,303.24c2.52,4.44-12.35,1.96-14.97,1.03-2.6,1.6-19.87,2.91-18.81-.86l33.78-.17Z"/>
        <path class="cls-2" d="M148.74,81.46l-44.26.12c-.62-.56.2-2.01,1.16-2.01h41.92c.98,0,1.77,1.29,1.18,1.88Z"/>
        <path class="cls-2" d="M413.19,81.46l-39.26.04c-.56-.6.17-1.9,1.15-1.91l36.01-.09c1.55,0,1.83,1.27,2.09,1.96Z"/>
        <path class="cls-2" d="M29.99,184.47c-.6-.63-1.26-1.59-1.26-2.99l.04-17.17c0-1.1.31-2.09,1.32-1.9,0,6.63,1.65,13.6.46,20.92-.06.68.2,1.53-.56,1.14Z"/>
        <path class="cls-2" d="M30.61,84.34c-.05,6.71,1.12,13.66-.53,20.18-.81.39-1.26-.93-1.27-1.97l-.09-16.07c0-1.56,1.22-1.86,1.89-2.14Z"/>
        <path class="cls-2" d="M251.51,318l-19.28-.04c-5.76-2.26,25.64-3.06,19.28.04Z"/>
        <path class="cls-2" d="M141.73,303.13c-.37.67-.22,2.12-2.07,2.1l-15.04-.15c-.96,0-1.87-1.11-1.21-1.78,6.09,0,12.21-.11,18.31-.17Z"/>
        <path class="cls-2" d="M212.61,81.47c-5.58-.03-11.9,1.11-17.25-.7-.16-.78.99-1.19,2.06-1.19l14.02.04c.97,0,1.77,1.22,1.16,1.86Z"/>
        <path class="cls-2" d="M192.6,80.74c-4.86,1.82-11.05.75-16.25.74-.56-.62.17-1.87,1.14-1.87l13.02-.03c1.04,0,2.3.36,2.09,1.16Z"/>
        <path class="cls-2" d="M232.58,81.45c-5.43-.04-10.88.07-16.32.04-.57-.61.18-1.88,1.15-1.88h14c.96,0,1.79,1.21,1.17,1.84Z"/>
        <path class="cls-2" d="M264.52,81.43c-5.4-.01-11.06,1.14-16.24-.62-.09-.76.91-1.25,2.02-1.24l13.03.06c.97,0,1.82,1.15,1.19,1.81Z"/>
        <path class="cls-2" d="M30.11,134.47c-1.93,3.54-1.82-15.86-.11-14.07,2.46,4.25.11,9.7.11,14.07Z"/>
        <path class="cls-2" d="M65.9,317.96c-4.13,0-8.25.31-13.3-.02-3.7-2.73,17.01-2.77,13.3.02Z"/>
        <path class="cls-2" d="M107.82,303.45c.53.67.17,2.75-.76,2.47-5.62-1.72-10.92.97-9.34-2.67,3.37,0,6.74.31,10.1.2Z"/>
        <path class="cls-2" d="M31.07,303.02c-4.26,1.24-1.44-10.06-.88-11.87,2.92-.08-.29,8.32.88,11.87Z"/>
        <path class="cls-2" d="M238.5,303.94c2.15,1.74-14.43,1.7-12.22.01,3.76-1.45,8.45-1.39,12.22-.01Z"/>
        <path class="cls-2" d="M246.44,80.81c-3.31,1.63-7.57.68-11.23.65-3.05-2.95,13.3-2.29,11.23-.65Z"/>
        <path class="cls-2" d="M391.21,365.98c3.25,2.92-13.3,2.9-10.29.1l10.29-.1Z"/>
        <path class="cls-2" d="M172.69,81.48c-3.44,0-6.89.19-10.33-.04-2.99-2.71,13.32-2.78,10.33.04Z"/>
        <path class="cls-2" d="M84.85,81.59c-3.03-.24-6.6.72-9.22-.8-1.7-1.53,11.85-2.37,9.22.8Z"/>
        <path class="cls-2" d="M40.96,226.37c2.07,2.9-8.11,1.87-8.45,1.81-.78-.14-.41-1.2-.72-1.98l9.17.17Z"/>
        <path class="cls-2" d="M98.8,81.5l-9.24.08c-.59-.93.28-1.73.86-1.89.05-.02,10.57-1.18,8.38,1.81Z"/>
        <path class="cls-2" d="M234.57,226.41c.58,1.51-.98,1.9-1.79,1.9l-3.38.02c-1.17,0-2.39.09-3.27-.18-.58-.18-1.53-.94-.91-1.87,3.09.17,6.27-.33,9.35.13Z"/>
        <path class="cls-2" d="M218.68,303.41c2.25,2.42-10.66,2.53-8.47-.03,2.81.02,5.66-.75,8.47.03Z"/>
        <path class="cls-2" d="M30.14,115.51c-2.4-1.41-2.01-6.29-.07-7.98,1.37,2.44,1.12,5.48.07,7.98Z"/>
        <path class="cls-2" d="M367.28,366.08c1.67,2.47-5.83,2.44-7.13,1.35-.3-.25-.62-.78-.18-1.33l7.31-.02Z"/>
        <path class="cls-2" d="M247.53,226.36c.51,2.48-2.23,1.69-3.67,2.12-1.7.52-2.35-1.22-3.48-1.5,1.96-1.54,4.78-.4,7.15-.62Z"/>
        <path class="cls-2" d="M273.48,317.95c-2.46.2-4.88-.01-7.32,0-1.67-2.4,5.77-2.4,7.14-1.32.31.25.64.77.19,1.33Z"/>
        <path class="cls-2" d="M38.97,81.47l-7.19.16c.41-.64-.15-1.78.72-1.93,1.03-.18,7.93-.94,6.48,1.77Z"/>
        <path class="cls-2" d="M254.27,311.11c-2.08,1.51-4.86,1.66-6.06-1.3,2.08-1.19,4.1.04,6.06,1.3Z"/>
        <path class="cls-2" d="M62.91,81.49c-2.11.15-4.23.05-6.34.08-.51-2.21,1.95-2.16,3.67-2.1,1.14.04,3.25.11,2.67,2.01Z"/>
        <path class="cls-2" d="M417.15,313.27c0-2.12-.18-4.24.03-6.36,2.15-.51,1.92,2.12,1.92,3.68,0,1.15-.12,3.26-1.95,2.68Z"/>
        <path class="cls-2" d="M256.48,303.98c-1.34,1.82-4.93,1.81-6.27,0,1.84-1.36,4.43-1.36,6.27,0Z"/>
        <path class="cls-2" d="M37.85,304.13c.02,1.51-1.93,1.51-3.07,1.21-.94-.25-1.77-.93-2.02-1.96,1.69-.87,3.62.87,5.09.76Z"/>
        <path class="cls-2" d="M42.97,317.92c-1.81.14-3.62.31-6.36-.02-.5-2.14,2.11-1.9,3.68-1.9,1.13,0,3.27.09,2.68,1.93Z"/>
        <path class="cls-2" d="M375.19,227.08c.92,1.47-7.12,2.06-6.08-.08,1.83-1.18,4.28-1.13,6.08.08Z"/>
        <path class="cls-2" d="M192.63,303.99c-1.09.23-1.97,1.77-3.61,1.29-1.04-.31-3.32,0-2.71-2.01,2.09-.01,4.72-.91,6.31.72Z"/>
        <path class="cls-2" d="M159.73,81.46c-1.81.12-3.62.15-5.44.11-.46-1.74,1.35-2.15,2.76-2.11,1.23.03,3.29.15,2.68,2Z"/>
        <path class="cls-2" d="M247.52,304c-.68.77-1.62,1.23-2.65,1.23s-1.95-.49-2.62-1.27c1.15-1.38,4.13-1.35,5.27.04Z"/>
        <path class="cls-2" d="M384.25,226.36c.6,1.8-1.4,2.1-2.69,2.03-1.1-.06-2.39-.03-2.55-1.39,1.64-.88,3.39-.91,5.24-.64Z"/>
        <path class="cls-2" d="M50.95,317.94c-1.48.1-2.96.23-5.34-.02-.61-1.79,1.42-1.93,2.67-1.94s3.29.18,2.67,1.96Z"/>
        <path class="cls-2" d="M181.68,317.94c-1.75,0-3.49.07-5.25.07-.72-1.84,1.24-2.05,2.59-2.02,1.27.03,3.28.15,2.66,1.96Z"/>
        <path class="cls-2" d="M314.41,365.99c.63,1.84-1.23,2.02-2.69,2.17s-2.21-.92-2.65-2.04c1.78-.14,3.56-.18,5.35-.13Z"/>
        <path class="cls-2" d="M30.81,258.14c-1.15.12-2.24-1.12-1.96-2.37.14-.64,1.25-1.17,1.89-1.54,0,1.33.86,2.48.07,3.91Z"/>
        <path class="cls-2" d="M65.91,226.37c.6,1.81-1.1,2.08-2.67,1.98-.97-.06-2.31-.52-1.68-1.93,1.45.01,2.9-.07,4.35-.05Z"/>
        <path class="cls-2" d="M267.32,226.99c-.56.68-1.26,1.58-2.39,1.38-.71-.13-1.18-1.07-1.69-1.3.69-1.2,3.32-1.26,4.08-.07Z"/>
        <path class="cls-2" d="M30.67,218.11c-.15,1.44.34,2.96-.06,4.4-1.3-.3-2.08-1.18-1.91-2.71.12-1.03.62-2.32,1.97-1.69Z"/>
        <path class="cls-2" d="M30.86,264.42c-.43-.7-1.33-1.56-1.07-2.6.16-.66.5-1.3,1.03-1.79,1.35-1.13,1.27,5.39.04,4.39Z"/>
        <path class="cls-2" d="M417.16,280.34l-.02-4.36c1.78-.63,2.03,1.17,1.94,2.69-.06.96-.51,2.29-1.91,1.67Z"/>
        <path class="cls-2" d="M208.6,317.97l-4.32-.03c-.6-1.81,1.15-2,2.67-1.93,1.03.05,2.21.55,1.65,1.96Z"/>
        <path class="cls-2" d="M359.31,81.58c-1.44,0-2.9-.08-4.33,0-.64-1.87,1.07-2.16,2.67-2.07,1.06.06,2.27.65,1.67,2.07Z"/>
        <path class="cls-2" d="M263.12,308.59c1.48-.92,2.41.17,1.97.96-.35.61-.76,1.46-1.29,1.54-1.29.2-2.25-1.53-.68-2.5Z"/>
        <path class="cls-2" d="M417.18,304.31c-.05-1.12-.05-2.24-.04-3.36,1.26-.6,1.96.53,1.95,1.67-.01,1.07-.63,2.32-1.9,1.69Z"/>
        <path class="cls-2" d="M417.15,325.25c.07-1.12-.12-2.24.02-3.36,1.27-.62,1.91.59,1.91,1.68s-.67,2.29-1.93,1.68Z"/>
        <path class="cls-2" d="M30.05,208.39c-.32-.41-1.23-.82-1.2-1.56s.82-1.15,1.26-1.51c.88-.09.69,1.01.66,1.52s.21,1.89-.73,1.55Z"/>
        <path class="cls-2" d="M208.6,365.98c.53.7-.08,1.85-.68,1.96-.93.18-1.95.27-2.47-.45-.35-.47-.65-1.01-.17-1.51h3.32Z"/>
        <path class="cls-2" d="M350.32,365.98c.58.69-.12,1.84-.71,1.96-.94.18-1.94.27-2.47-.44-.36-.48-.72-1.01-.19-1.5h3.37Z"/>
        <path class="cls-2" d="M71.86,80.73c-1.04.41-2.03,1.11-3.28.74-.58-1.2.49-2.07,1.66-1.96.79.07,1.83.08,1.62,1.22Z"/>
        <path class="cls-2" d="M341.27,227.08c-.42.35-.9,1.11-1.61,1.11s-1.19-.71-1.61-1.08c-.26-.94,1.07-.78,1.62-.79.52,0,1.87-.19,1.6.76Z"/>
        <path class="cls-2" d="M414.17,226.28c-.08.65-.2,1.71-.75,1.88-.81.25-1.87.38-2.4-.36-.3-.42-.61-.88-.17-1.4,1.09-.18,2.23-.02,3.33-.12Z"/>
        <path class="cls-2" d="M389.24,226.41c.6,1.28-.57,1.94-1.68,1.94-1.17,0-2.25-.72-1.66-1.99l3.34.05Z"/>
        <path class="cls-2" d="M116.84,303.29c.64,1.26-.62,1.89-1.69,1.9s-2.27-.65-1.68-1.92c1.1-.03,2.26.02,3.37.02Z"/>
        <path class="cls-2" d="M45.96,81.58h-3.36c-.61-.69.15-1.83.73-1.95.91-.19,1.94-.28,2.46.44.34.46.62,1.02.16,1.51Z"/>
        <path class="cls-2" d="M172.68,303.21c.48.69-.11,1.76-.69,1.86-.9.15-1.98.37-2.38-.51-.16-.36.04-1.16-.15-1.48l3.22.14Z"/>
        <path class="cls-2" d="M258.35,227.06c-.48.14-.77,1.25-1.53,1.21s-1.12-.91-1.55-1.22c-.33-.95,1.04-.71,1.56-.74.56-.03,1.65-.16,1.52.75Z"/>
        <path class="cls-2" d="M203.69,226.29c.65,1.06-.43,2.17-1.74,2.09-.66-.04-1.09-.92-1.56-1.34.43-1.17,2.27-.75,3.3-.75Z"/>
        <path class="cls-2" d="M58.93,226.39c.58,1.05-.39,2.14-1.65,1.92-.57-.1-1.18-.68-1.62-1.22.43-1.26,2.24-.71,3.26-.7Z"/>
        <path class="cls-2" d="M143.71,252.4c-.09-.7-.13-2.23.77-2.34.09.51,1.54.92,1.09,1.63s-1.24,1.25-1.86.72Z"/>
        <path class="cls-2" d="M30.81,247.1l-.09,2.28c-.51-.24-1.73-.15-1.89-.68-.21-.7-.03-1.23.55-1.42.38-.13.88-.13,1.43-.18Z"/>
        <path class="cls-2" d="M270.44,244.4c.34.67-.21.69-.7.74-.66.08-1.89.18-1.52-.71.31-.38.8-.98,1.34-.8.41.13.65.61.89.77Z"/>
        <path class="cls-2" d="M143.59,301.24c.22-.7-.16-2.19.86-2.25.27.39,1.28.78,1.03,1.52-.29.86-1.61.42-1.89.73Z"/>
        <path class="cls-2" d="M398.13,226.99c-.21.31-.34,1.04-.7,1.21-.69.32-1.09,0-1.4-.43-.34-.49-.56-.91-.15-1.38.67,0,2.17-.35,2.25.61Z"/>
        <path class="cls-2" d="M366.12,227.05l-.76,1.06c-.33.45-.98.12-1.27-.33-.33-.53-.58-.9-.15-1.35.64-.18,2.16-.29,2.18.63Z"/>
        <path class="cls-2" d="M183.67,303.26c-.08.66-.2,1.54-.78,1.82-.52.24-1.03-.04-1.24-.48-.17-.36-.24-.83-.32-1.35l2.34.02Z"/>
        <path class="cls-2" d="M355.31,226.37c.52.68-.09,1.58-.7,1.9s-1.12-.03-1.48-.49-.6-.88-.17-1.38c.74.04,1.62-.21,2.34-.02Z"/>
        <path class="cls-2" d="M30.9,279.35c-.25-.39-.92-.88-.72-1.44.14-.39.5-.7.68-.96.64-.2.74.31.84.8.14.7.1,1.84-.8,1.61Z"/>
        <path class="cls-2" d="M223.57,304c-.33.45-1.03,1.26-1.56,1.07-.7-.25-1.34-1.1-.82-1.68.73.07,2.26-.46,2.38.61Z"/>
        <path class="cls-2" d="M219.57,226.27c.55.68-.03,1.67-.68,2s-1.16-.07-1.48-.5c-.37-.51-.65-1-.17-1.48h2.33Z"/>
        <path class="cls-2" d="M261.46,303.95c-.36.29-.79.97-1.37.8-.4-.12-.61-.77-.89-.77-.32-.65.23-.7.71-.77.66-.09,1.87-.14,1.54.74Z"/>
        <path class="cls-2" d="M102.85,81.58l-2.33-.08c-.49-.7.1-1.66.69-1.91.72-.31,1.18.1,1.48.51.38.52.63,1.01.16,1.48Z"/>
        <path class="cls-2" d="M66.91,81.47h-2.32c-.51-.67.09-1.58.7-1.88s1.13.02,1.47.49c.32.44.56.89.15,1.39Z"/>
        <path class="cls-2" d="M75.91,317.92l-2.34.04c-.52-.68.09-1.56.69-1.87s1.1.02,1.48.48c.34.42.64.82.17,1.35Z"/>
        <path class="cls-2" d="M34.98,345.15c.54.66-.07,1.49-.7,1.87-.49.3-1.2-.03-1.47-.47-.2-.34.05-1.13-.11-1.54l2.27.15Z"/>
        <path class="cls-2" d="M217.65,325.86c-.8.01-1.62.03-2.43.02-.51-.53-.19-.89.19-1.33s.84-.81,1.47-.48c.55.29,1.44,1.08.77,1.78Z"/>
        <path class="cls-2" d="M372.27,81.5l-2.4.07c-.63-.66.11-1.57.76-1.98.54-.34,1.11,0,1.48.49.32.44.59.91.16,1.42Z"/>
        <path class="cls-2" d="M417.16,319.26v-2.36c.45.24,1.6.13,1.81.8.17.55-.02.98-.46,1.25-.3.18-1.02.14-1.34.31Z"/>
        <path class="cls-2" d="M186.6,365.97c.48.69.02,1.68-.64,2s-1.18-.06-1.48-.51c-.35-.51-.59-1.01-.15-1.49h2.27Z"/>
        <path class="cls-2" d="M338.32,366.07c-.19.72-.18,1.78-.72,1.93-.71.2-1.31-.21-1.46-.55-.2-.43-.47-1.06-.08-1.47l2.27.09Z"/>
        <path class="cls-2" d="M35.04,317.8c-.46,0-1.11.03-2.33.28-.56-.65-.09-1.53.61-1.98.47-.3,1.02-.1,1.48.47.26.32.72.7.23,1.24Z"/>
        <path class="cls-2" d="M144.6,342.27v-2.39c.29.45,1.93-.3,2.02.67.06.67.02,1.2-.57,1.44-.35.15-.87.19-1.45.27Z"/>
        <path class="cls-2" d="M170.67,317.99c-.4,0-.81.13-1.22.13-.02-.51-.14-1.12.07-1.53.42-.81.75-.4,1.02.02.36.56.43,1,.12,1.38Z"/>
        <path class="cls-1" d="M76.34,41.11c-6.06,5.77-16.09,2.92-19.5-3.74-3.62-7.08-.32-16.59,7.73-18.36,6.34-1.39,11.17,1.53,14.27,6.15,2.99,4.45,2.37,11.31-2.5,15.95ZM73.2,30.26c-.41-2.43-3.59-3.9-5.23-4.26-1.81-.4-4.7.42-5.18,2.51-.87,3.84,1.07,7.43,4.47,8.04,2.87.51,6.62-2.2,5.93-6.28Z"/>
        <path class="cls-1" d="M111.33,41.75c-4.89,3.73-12.53,2.62-16.49-.89-3.12-2.76-4.09-6.18-4.16-9.62-.08-3.68,2.08-6.66,5.12-9.62,3.21-3.12,7.78-3.41,12.16-1.84,3.26,1.17,7.25,3.59,8.17,8.37.84,4.39-.74,10.52-4.79,13.6ZM101.3,36.3c4.08,1.64,7.13-.59,7.47-4.04.28-2.82-1.12-4.92-4.49-6.01-2.87-.92-5.78-.2-6.75,3.03-.46,1.53-.95,2.84-1.85,4.01,2.57.02,3.58,2.18,5.63,3.01Z"/>
        <path class="cls-1" d="M23.48,37.36c-3.01-5.19-1.7-9.87,1.71-14.73,3.73-5.32,11.91-4.94,16.74-.8,5.39,4.63,5.66,11.06,1.52,17.63-2.23,3.55-5.9,4.58-10.08,4.5s-7.39-2.29-9.89-6.6ZM39.53,32.98c.94-3.07-1.48-5.9-3.65-6.75-2.35-.93-6.2-.4-6.99,2.38-1.03,3.57.67,7,3.61,7.95,2.45.79,5.97-.08,7.04-3.57Z"/>
        <path class="cls-2" d="M79.94,274.4l-22.65,10.6-19.39,9.58.1-40.5,24.15,11.36c3.26,1.53,6.15,2.99,9.09,4.91,2.57,1.68,5.91.38,8.7,4.05Z"/>
        <path class="cls-2" d="M136.38,285.14c-.68-.13-1.43-.22-2.4.28-.7,2.48-1.4,4.56-1.66,6.72-12.66-6.42-25.06-11.36-38.57-17.81l28.77-13.38,14.18-7.21-.32,31.41Z"/>
        <path class="cls-2" d="M125.89,297.19l-47.02-.22c-10.08-.05-19.63,1.06-30.6-.19,4.92-4.27,10.8-5.34,16.16-8l22.28-11.06c11.27,3.82,18.09,9.71,28.39,13.67,3.88,1.49,7.76,2.43,10.78,5.79Z"/>
        <path class="cls-2" d="M114.59,251.61c-1.75,2.62-4.37,4.36-7.19,6.56,1.44,1.1,2.89.47,4.2.6-1.95,2.35-4.84,2.99-7.64,3.9l-17.46,7.65-37.88-18.75,65.97.03Z"/>
        <path class="cls-3" d="M123.47,251.33l.09,1.92c-4.27,1.21-7.8,4.02-11.97,5.53-1.3-.13-2.76.5-4.2-.6,2.82-2.2,5.44-3.94,7.19-6.56,3.53,0,6.21-.59,8.89-.28Z"/>
        <path class="cls-3" d="M136.38,285.14l.1,2.83c-1.24-.62-1.94.57-1.96,1.68s.72,2.23,1.97,1.65c-.07.81.3,2.26-.5,2.65-1.29.62-3-.4-3.67-1.82.26-2.15.96-4.24,1.66-6.72.97-.5,1.72-.41,2.4-.28Z"/>
        <path class="cls-2" d="M136.48,287.97c.06,1.66.08,2.51.01,3.33-1.25.58-1.99-.5-1.97-1.65s.73-2.3,1.96-1.68Z"/>
        <path class="cls-2" d="M123.56,253.25l-.09-1.92c1.18.14,1.78-.49,2.16.38.2.48.01,1.17-.48,1.49-.34.22-1-.12-1.58.05Z"/>
        <path class="cls-2" d="M216.68,273.78c-2.15,3.46-5.39,3.13-8.23,4.51l-34.08,16.53.15-40.82c6.47,2.53,11.96,5.75,17.95,8.33l12.51,5.39c3.92,1.69,7.15,4.12,11.7,6.07Z"/>
        <path class="cls-2" d="M268.76,292.05l-36.45-17.63c7-4.79,14.31-6.72,21.05-10.16l20.78-10.6-.16,39.19c-.01,2.96-4.02-.22-5.22-.79Z"/>
        <path class="cls-2" d="M264.36,296.52c-2.13,2.68-4.59.77-7.12.76l-72.42-.32c6.13-4.1,12.32-6.73,18.68-9.7l15.87-7.41c3.18-1.48,5.47-2.57,9.01-.53,7.53,4.33,15.28,8.35,23.6,11.25,4.35,1.52,8.38,3.18,12.38,5.94Z"/>
        <path class="cls-2" d="M191.43,254.6c2.16-.13,4.12-.67,6.68.69,0-1.91-.99-2.58-.82-3.71l65.91.1-38.96,18.89c-4.42-2.81-26.25-12.43-29.84-13.47-1.47-.43-2.68-1.32-2.96-2.49ZM200.46,256.71c0-.28-.22-.5-.5-.5s-.5.22-.5.5.22.5.5.5.5-.22.5-.5Z"/>
        <path class="cls-3" d="M197.29,251.58c-.17,1.13.81,1.79.82,3.71-2.56-1.35-4.52-.81-6.68-.69s-5.15-.74-6.02-2.88c4.35-1.1,8.17-.15,11.88-.14Z"/>
        <path class="cls-2" d="M317.22,252.04c-.5,2,.59,2.35,2.51,2.25,1.38-.07,1.79-.68,1.48-2.22l83.88.04c1.47,12.73.87,25.59.94,38.99l.18,39.28-.19,24.14c-3.73,2.33-15.84-.85-12.64,3.21.21.27,2.94-1.46,3.68-.27.2.32.1.91.03,1.37l-86.04.09.18-94.7c6.22,1.11,1.72-5.57,4.01-12.15l1.99-.05Z"/>
        <path class="cls-3" d="M409.9,262.03c-.65-.57-1.83.18-1.84,1.15l-.14,13.09c-.02,1.43.79,2.35,1.31,2.98.43,3.41.54,7.25.63,10.69-.62-.65-1.82.23-1.82,1.19v24.96c0,.96,1.27,1.76,1.87,1.16-.02.88-.05,1.77,0,2.65-2.73-3.45-2.84,15.73-.02,12.32-.07,1.21-.04,2.43,0,3.64-.63-.61-1.82.2-1.82,1.17l-.04,15.02c0,1.08.42,2.22,1.2,2.05-.36,1.16.69,4.4-.95,4.83-4.15-.57-7.64-.09-11.18-.09.07-.46.17-1.04-.03-1.37-.74-1.19-3.47.54-3.68.27-3.2-4.06,8.91-.88,12.64-3.21l.19-24.14-.18-39.28c-.06-13.4.54-26.26-.94-38.99,1.11,0,3.94-1.11,4.48.45,1.06,3.04.15,6.5.33,9.47Z"/>
        <path class="cls-2" d="M409.85,289.95c.23,9.1.28,18.21.04,27.31-.6.6-1.87-.2-1.87-1.16v-24.96c0-.96,1.21-1.84,1.83-1.19Z"/>
        <path class="cls-3" d="M315.23,252.1c-2.28,6.58,2.21,13.25-4.01,12.15,0-3.74-.48-7.71.36-11.72.35-1.04,2.79-.4,3.64-.42Z"/>
        <path class="cls-2" d="M409.88,335.87c.13,4.96.7,13.89-.66,18.24-.79.17-1.21-.98-1.2-2.05l.04-15.02c0-.97,1.19-1.78,1.82-1.17Z"/>
        <path class="cls-2" d="M409.9,262.03c-.01-.16.72,19.97-.67,17.22-.52-.63-1.33-1.55-1.31-2.98l.14-13.09c.01-.97,1.19-1.73,1.84-1.15Z"/>
        <path class="cls-2" d="M409.9,319.91c.2,4.1.22,8.22-.02,12.32-2.83,3.41-2.72-15.77.02-12.32Z"/>
        <path class="cls-3" d="M321.21,252.08c.31,1.54-.11,2.15-1.48,2.22-1.92.09-3.01-.25-2.51-2.25,1.32-.04,2.66.03,3.99.03Z"/>
        <path class="cls-2" d="M73.2,30.26c.69,4.08-3.06,6.8-5.93,6.28-3.4-.61-5.34-4.21-4.47-8.04.47-2.09,3.37-2.91,5.18-2.51,1.63.36,4.82,1.83,5.23,4.26Z"/>
        <path class="cls-2" d="M101.3,36.3c-2.05-.82-3.06-2.99-5.63-3.01.9-1.18,1.39-2.48,1.85-4.01.97-3.22,3.88-3.95,6.75-3.03,3.37,1.09,4.77,3.19,4.49,6.01-.34,3.45-3.38,5.68-7.47,4.04Z"/>
        <path class="cls-2" d="M39.53,32.98c-1.07,3.49-4.59,4.37-7.04,3.57-2.93-.95-4.63-4.38-3.61-7.95.8-2.78,4.65-3.3,6.99-2.38,2.17.85,4.59,3.68,3.65,6.75Z"/>
        <circle class="cls-3" cx="199.96" cy="256.71" r=".5"/>
        <g>
          <path class="cls-1" d="M75.63,80.78c2.63,1.52,6.2.57,9.22.8,1.57.12,3.14.01,4.71,0l9.24-.08h1.72s2.33.07,2.33.07h1.64s44.26-.12,44.26-.12l5.54.12c1.82.04,3.63.01,5.44-.11.86-.06,1.77-.07,2.63-.01,3.44.23,6.89.03,10.33.04h3.66c5.2,0,11.38,1.08,16.25-.74.7,0,2.1-.2,2.77.02,5.35,1.81,11.66.67,17.25.7l3.65.02c5.44.03,10.89-.08,16.32-.04l2.64.02c3.66.03,7.92.98,11.23-.65.46,0,1.39-.16,1.84,0,5.18,1.76,10.84.61,16.24.62h2.62s82.18.07,82.18.07c1.89,0,3.77.19,5.65.08,1.44-.08,2.89,0,4.33,0h10.57s2.4-.08,2.4-.08h1.66s39.26-.03,39.26-.03c1.54.05,3.15.28,3.97,1.42,1.18,1.63.11,3.26.12,5.1l.1,44c.02,7.53-1.02,14.78.41,22.48.43,2.32-.67,4.72-.67,7.08l-.02,61.77c0,2.49-1.6,2.98-2.92,2.98-1.1.1-2.23-.06-3.33.12-4.18.67-8.64-.66-12.72.59-.07-.96-1.57-.61-2.25-.61l-6.64.02-3.34-.05c-.54,0-1.13.08-1.66,0-1.86-.27-3.6-.23-5.24.64l-3.81.07c-1.8-1.22-4.25-1.26-6.08-.08-.94-.03-2.09-.13-2.99.06-.01-.91-1.54-.81-2.18-.63-2.86.81-5.77.69-8.63-.05-.72-.19-1.6.07-2.34.02-3.86-.23-7.85,1.13-11.69.69.27-.95-1.09-.77-1.6-.76-.55,0-1.87-.15-1.62.79l-15.52-.64c-12.48-.51-24.67.36-37.26.42l-17.96.09c-.75-1.19-3.39-1.13-4.08.07-1.46-.22-3.44-.23-4.89,0,.12-.91-.96-.78-1.52-.75-.52.03-1.89-.21-1.56.74-2.29-.58-5.32-.91-7.74-.69s-5.19-.92-7.15.62c-1.82-.46-3.94-.29-5.81-.57-3.08-.46-6.25.04-9.35-.13-1.88-.1-3.77-.01-5.66,0h-2.33s-13.55.01-13.55.01c-1.03,0-2.87-.42-3.3.75-2.55-.6-6.23-.85-9.33-.64-13.97.96-27.45-.05-41.47.17l-16.97.26-17.82-.07c-5.52-.02-10.67.17-16.13.09l-32.75-.47c-1.45-.02-2.9.06-4.35.05l-2.63-.02c-1.03,0-2.83-.56-3.26.7-4.77-.54-9.88-.63-14.7-.72l-9.17-.17c-.69-1.07-1.08-2.48-1.18-3.69.4-1.44-.09-2.96.06-4.4.33-3.16-.54-6.59-.62-9.72.94.33.7-1.02.73-1.55s.22-1.61-.66-1.52c.06-6.8.28-14.07-.12-20.85.76.39.5-.46.56-1.14,1.19-7.32-.46-14.29-.46-20.92l.02-27.94c0-4.37,2.35-9.82-.11-14.07.94-1.14-.39-3.65.13-4.89,1.05-2.5,1.3-5.54-.07-7.98.29-.95-.23-2.08.01-3.01,1.66-6.52.48-13.48.53-20.18-.02-1.04.64-1.89,1.17-2.72l7.19-.16,3.62.1h3.36c3.54.02,7.08.07,10.62,0,2.11-.04,4.23.07,6.34-.08.55-.04,1.11,0,1.67,0h2.32c.53-.01,1.16-.16,1.67-.01,1.26.37,2.25-.33,3.28-.74.99-.17,2.77.01,3.77.05ZM90.57,101.56c1.64.71,2.91,2.57,5.45,2.83,4.49.47,8.21,2.89,12.38,4.38l44.16,15.7c4.41,1.57,8.59,3.35,12.95,4.84l26.16,8.97c40.14,13.76,24.24,14.84,57.62,2.46l22.71-8.43,38.66-13.32,22.77-8.21c2.82-1.02,6.32-1.6,7.73-4.17,3.68.52,7.33-1.2,10.94-2.96,6.65-3.24,14.42-3.67,20.1-7.88l1.99-.32c6.09-.97,11.98-3.01,18.5-5.73-2.81-3.16-5.88-.54-8.88-.63l-10.6-.33-8.05-.25-6.92.05c-1.68.01-3.53.06-5.22,0-3.57-.13-7.13-.05-10.7.01-2.41.04-4.85-.01-7.26-.01l-10.7.02h-18.27s-6.73.1-6.73.1c-30,.5-61.28,5.36-90,.77l-4.75-.76c-1.06-.17-2.24-.13-3.34-.12l-10.63.1c-1.45.01-3.02-.45-4.24.63l-1.92-.02c-.33,0-.66.08-.99.05-5.59-.49-11.3-.63-16.93-.64l-44.93-.05-25.78-.07-5.34.1c-11.61.22-23.24-.88-35.66.07,6.53,5.32,13.7,4.41,19.98,7.79,5.06,2.72,10.81,2.91,15.72,5.03ZM38.01,159.47l-.2,2.78c-.28,3.78-.17,7.61.17,12.33.02.33.1.77.09,1.64l-.28,41.21c3.98-.07,5.49-3.03,9.03-3.79,11.09-2.37,21.27-8.01,32.6-11.27,4.82-1.39,8.85-3.09,13.71-4.82l95.66-34.03c7.5-2.67,14-5.88,21.71-8.12.9-.26,3-.31,2.79-1.5-.57-3.33-4-1.44-5.72-2.53-5.57-3.55-12.1-4.97-18.83-7.42l-66.33-24.12-28.02-10-39.65-14.19c-5.27-1.89-10.15-3.69-16.72-6.7l-.02,70.51ZM265.2,142.38c-11.3,2.11-17.26,7.47-30.54,10.18-.69.14-.29,1.75-.01,2.07.38.43,1.55-.1,2.58.4,14.6,6.99,30.58,10.81,45.95,17.23,12.06,5.03,23.85,8.61,36.21,13.05l58.24,20.92,25.74,10.15c1.44.57,5.5,3.46,5.52.75l.44-94.54-.39-32.73c-7.32,1.72-11.9,4.55-17.79,6.66l-22.26,7.97c-4.76,1.7-9.69,2.96-14.37,4.75l-14.88,5.7-25.48,9.32-29.53,10.44c-6.6,2.33-13.31,3.7-19.42,7.7ZM97.89,218.97c7.14-.03,14.32.55,21.47-.35-.6.64.17,1.34.9,1.6.56.2,1.17-.56,1.58-.96l36.53-.09c.78,0,1.58.08,2.35,0,4.12-.44,8.81.9,12.8-.56,2.71,1.49,6.38,1.04,8.98-.29,2.21.31,5.86-.82,7.98,0,1.88.73,3.05.84,5.18.99,4.91.35,9.89-1.5,14.77-.87,14.11,1.8,28.58.32,42.87.65l4.87.11c2.45.06,4.88.25,7.33-.02,3.53-.39,7.13-.14,10.69-.12l7.04.03,16.85.11c3.78.03,7.54.26,11.32,0,1.52-.1,3.12,0,4.65,0l46.07.11c.66,0,1.34.06,2,0,2.02-.19,4.53.7,6.08-.8,5.81,1.33,11.89.71,17.81.63,1.52-.02,3.59,2.02,5.28-1.05-1.35-1.08-2.94-1.33-4.31-1.48-2.68-.29-5.08-1.6-7.71-2.24-.77-.19-1.42-.85-2.3-1.06l-3.9-.96c-3.46-3.52-9.19-3.23-13.74-5.4-4.88-2.33-9.24-3.6-14.45-5.5l-122.28-44.71c-4.92,1.93-9.22,4.16-14.28,5.55-9.54,2.63-18.16,6.9-27.46,10.01l-28.04,9.38-77.47,27.44c-5.5,1.95-10.13,3.4-15.19,6.25-3.03,1.71-7.76.1-10.18,3.78l45.92-.17Z"/>
          <path class="cls-2" d="M237.22,155.03c2.97.08,5.5-.99,8.28-2.56,4.75-2.68,10.32-3.35,15.33-5.4l7.57-3.1c-1.59-.79-2.72-.48-3.21-1.59,6.11-4,12.83-5.36,19.42-7.7l29.53-10.44,25.48-9.32,14.88-5.7c4.67-1.79,9.61-3.05,14.37-4.75l22.26-7.97c5.89-2.11,10.47-4.94,17.79-6.66l.39,32.73-.44,94.54c-.01,2.71-4.07-.18-5.52-.75l-25.74-10.15-58.24-20.92c-12.36-4.44-24.15-8.01-36.21-13.05-15.37-6.42-31.35-10.24-45.95-17.23Z"/>
          <path class="cls-2" d="M54.75,95.66l39.65,14.19,28.02,10,66.33,24.12c6.73,2.45,13.26,3.87,18.83,7.42-.45.87-1.52,1.49-1.23,2.96,1.83.47,3.83-.28,4.15,1.07-7.72,2.24-14.21,5.45-21.71,8.12l-95.66,34.03c-4.87,1.73-8.9,3.43-13.71,4.82-11.33,3.26-21.51,8.9-32.6,11.27-.42-2.2-3.49-1.07-6.21-1.33.15-3.69,1.65-38.44-2.54-36.1,0-.88-.07-1.31-.09-1.64,2.68,3.55,2.77-16.27-.17-12.33l.2-2.78c5.38,1.87,2.51-8.1,2.57-15.41.09-11.79.74-23.34.05-35.06-.31-5.2.13-10.18.09-15.74,3.75-.15,15.55,9.97,14.03,2.4Z"/>
          <path class="cls-2" d="M375.06,212.34c-1.18,1.36-2.95-.34-4.69.86,1.39.7,3.62-.26,3.82,2.46-20.49,1.12-40.43.23-60.93.28l-25.99.06c-1.43,0-3.07-.49-3.79.75-.33.56-.26,1.52-.25,2.31l-7.04-.03c-.14-.79.76-1.54.29-2.53-3.25.06-27.43-2.33-23.17,2.56-14.29-.33-28.76,1.15-42.87-.65,3.57-3.58-17.57-2.27-20.03-2.28l-52.49-.26-15.31.16-23.92.35c-.91.01-.66,2.32-.8,2.58l-45.92.17c2.42-3.67,7.15-2.07,10.18-3.78,5.05-2.85,9.69-4.3,15.19-6.25l77.47-27.44,28.04-9.38c9.3-3.11,17.92-7.38,27.46-10.01,5.06-1.4,9.36-3.62,14.28-5.55l122.28,44.71c5.21,1.91,9.57,3.17,14.45,5.5,4.54,2.17,10.28,1.88,13.74,5.4ZM219.42,216.3v1h18.46v-1h-18.46ZM251.34,216.87c-2.62-.89-3.97-1.01-5.04.04,2.03.67,3.62.67,5.04-.04Z"/>
          <path class="cls-2" d="M166.58,88.69c-.07.46-.43,3,.87,3.01l40.01.17c.84,0,1.92-.38,2.2-.79.24-.35-.36-1.22-.28-1.63,28.72,4.59,60-.27,90-.77.15.86-.45,1.35-.93,1.6-.56.29-1.67-.14-2.2,1.1,6.05,1.23,12.31,1.33,19.01,1.24l19.9-.26c3.82-.05,7.34-.58,10.96-.47,2.95.09,21.21,2.76,19.06-3.39l8.05.25c-.91,2.32-3.09,5.77-5.56,6.22l-11.1,2.05c5.01-.93-14.09,7.18-15.4,9.57-1.41,2.57-4.91,3.15-7.73,4.17l-22.77,8.21-38.66,13.32-22.71,8.43c-33.38,12.38-17.49,11.3-57.62-2.46l-26.16-8.97c-4.36-1.49-8.54-3.27-12.95-4.84l-44.16-15.7c-4.17-1.48-7.88-3.91-12.38-4.38-2.54-.26-3.8-2.12-5.45-2.83.71-2.62-1.44-3.51-3.62-4.14l-10.07-2.92c3.84-1.3,7.15-1.76,10.74-1.97l11.01-.63c9.69-.56,18.96.39,28.12-.37-1.64-2.58-5.06-.47-5.09-2.89l44.93.05ZM128.61,90.56v1h18.46v-1h-18.46ZM163.54,90.56h-13.47v1h13.47v-1ZM214.43,90.56v2h5.99v-2h-5.99Z"/>
          <path class="cls-3" d="M90.53,88.67c-.6,1.85,1.4,1.98,2.66,2.01,1.4.04,3.29-.32,2.68-2.11l25.78.07c.03,2.43,3.45.31,5.09,2.89-9.16.76-18.43-.18-28.12.37l-11.01.63c-3.59.21-6.9.67-10.74,1.97l10.07,2.92c2.18.63,4.34,1.52,3.62,4.14-4.91-2.12-10.66-2.31-15.72-5.03-6.29-3.38-13.45-2.48-19.98-7.79,12.43-.95,24.05.15,35.66-.07Z"/>
          <path class="cls-3" d="M210.44,218.41c-4.88-.62-9.86,1.22-14.77.87.62-1.68-1.23-2.3-2.68-2.09-.79.12-2.32-.16-2.5,1.09-2.12-.82-5.77.31-7.98,0-2.71-2.63-6.36-.67-8.98.29-3.99,1.47-8.68.13-12.8.56.54-.69-.12-1.56-.71-1.85-.63-.31-1.12.03-1.47.49s-.61.86-.17,1.37l-36.53.09c-.21-.96-1.73-.73-2.48-.63-7.15.91-14.33.33-21.47.35.15-.26-.11-2.57.8-2.58l23.92-.35,15.31-.16,52.49.26c2.46.01,23.6-1.31,20.03,2.28Z"/>
          <path class="cls-3" d="M54.75,95.66c1.52,7.57-10.28-2.55-14.03-2.4.04,5.56-.39,10.54-.09,15.74.69,11.72.04,23.27-.05,35.06-.06,7.31,2.81,17.28-2.57,15.41l.02-70.51c6.57,3.02,11.45,4.82,16.72,6.7Z"/>
          <path class="cls-3" d="M375.06,212.34l3.9.96c-.49.63-.12,1.53.63,1.98.53.33,1.88,0,1.67-.92,2.63.64,5.03,1.95,7.71,2.24-.41.81-.74,1.65-.97,2.52-5.92.08-12,.7-17.81-.63-1.11-.25-1.9-1.9-3.55-1.44-1.28.36-2.99.22-2.53,2.23-.66.06-1.33,0-2,0,.18-.59.22-1.94-.99-1.94l-42.93-.13c-.92,0-1.52.25-1.98.64-.36.31-.58.82-.17,1.32-1.53,0-3.13-.1-4.65,0,3.19-2.82-14.39-2.72-11.32,0l-16.85-.11c-.01-.79-.08-1.75.25-2.31.72-1.24,2.35-.75,3.79-.75l25.99-.06c20.51-.05,40.44.84,60.93-.28-.2-2.71-2.43-1.75-3.82-2.46,1.74-1.2,3.51.5,4.69-.86Z"/>
          <path class="cls-3" d="M306.1,88.56c-.57.57.15,2,1.1,2h15.95c1.12,0,1.86-1.5,1.22-1.99l10.7-.02c-.54.84.19,1.69.78,1.89.99.33,4.57.29,5.57,0,.6-.17,1.51-.94.91-1.88,3.57-.06,7.13-.14,10.7-.01-.62,1.9,1.19,2.12,2.61,2.12s3.24-.23,2.62-2.12l6.92-.05c2.14,6.14-16.11,3.48-19.06,3.39-3.62-.11-7.14.42-10.96.47l-19.9.26c-6.7.09-12.96-.02-19.01-1.24.53-1.24,1.64-.81,2.2-1.1.49-.25,1.08-.75.93-1.6l6.73-.11Z"/>
          <path class="cls-3" d="M374.21,95.45c.56-.63.01-1.55-.63-1.89-.52-.27-1.3-.03-1.46.5-.15.5.2,1.24.1,1.71-5.68,4.21-13.45,4.64-20.1,7.88-3.61,1.76-7.26,3.48-10.94,2.96,1.31-2.39,20.41-10.5,15.4-9.57l11.1-2.05c2.46-.46,4.65-3.91,5.56-6.22l10.6.33c2.99.09,6.07-2.52,8.88.63-6.51,2.72-12.4,4.76-18.5,5.73Z"/>
          <path class="cls-3" d="M46.81,213.65c-3.54.76-5.05,3.71-9.03,3.79l.28-41.21c4.2-2.34,2.69,32.4,2.54,36.1,2.72.26,5.79-.88,6.21,1.33Z"/>
          <path class="cls-3" d="M183.5,89.33c-.11,1.5,1.16,1.39.99-.05l1.92.02c-.04,1.51,1.33,1.28,2.56,1.34,1.05.06,2.23-.62,1.68-1.97l10.63-.1c-.65,1.23.45,2.08,1.67,2.08,1.09,0,2.26-.63,1.67-1.96l4.75.76c-.08.42.52,1.29.28,1.63-.28.41-1.36.79-2.2.79l-40.01-.17c-1.3,0-.94-2.55-.87-3.01,5.63,0,11.33.15,16.93.64Z"/>
          <path class="cls-3" d="M265.2,142.38c.49,1.1,1.62.8,3.21,1.59l-7.57,3.1c-5,2.05-10.58,2.71-15.33,5.4-2.78,1.57-5.31,2.64-8.28,2.56-1.03-.49-2.2.04-2.58-.4-.28-.32-.68-1.93.01-2.07,13.28-2.71,19.24-8.06,30.54-10.18Z"/>
          <path class="cls-2" d="M362.12,219.29l-46.07-.11c-.42-.51-.2-1.02.17-1.32.46-.38,1.06-.64,1.98-.64l42.93.13c1.22,0,1.18,1.36.99,1.94Z"/>
          <path class="cls-3" d="M276.19,219.03c-3.56-.02-7.15-.27-10.69.12.61-.9-.32-1.56-.87-1.72-1.21-.34-7.76-.75-6.45,1.74l-4.87-.11c-4.26-4.89,19.92-2.5,23.17-2.56.47.99-.43,1.74-.29,2.53Z"/>
          <path class="cls-2" d="M324.37,88.57c.64.49-.1,1.98-1.22,1.98h-15.95c-.95,0-1.66-1.42-1.1-1.99h18.27Z"/>
          <path class="cls-3" d="M37.97,174.59c-.34-4.72-.44-8.55-.17-12.33,2.94-3.94,2.85,15.88.17,12.33Z"/>
          <path class="cls-2" d="M311.4,219.18c-3.78.26-7.55.02-11.32,0-3.06-2.72,14.51-2.81,11.32,0Z"/>
          <path class="cls-3" d="M210.5,155.42c-.32-1.36-2.32-.6-4.15-1.07-.29-1.47.78-2.09,1.23-2.96,1.72,1.09,5.14-.8,5.72,2.53.21,1.19-1.89,1.24-2.79,1.5Z"/>
          <path class="cls-2" d="M182.5,218.29c-2.6,1.33-6.27,1.79-8.98.29,2.62-.96,6.27-2.92,8.98-.29Z"/>
          <path class="cls-2" d="M388.01,219.12c.22-.88.56-1.72.97-2.52,1.37.15,2.96.39,4.31,1.48-1.68,3.06-3.76,1.02-5.28,1.05Z"/>
          <path class="cls-2" d="M265.5,219.15c-2.44.27-4.88.08-7.33.02-1.3-2.49,5.24-2.08,6.45-1.74.56.16,1.48.82.87,1.72Z"/>
          <path class="cls-2" d="M342.33,88.57c.59.94-.31,1.71-.91,1.88-1,.29-4.58.32-5.57,0-.58-.19-1.31-1.05-.78-1.89,2.41,0,4.85.05,7.26.01Z"/>
          <path class="cls-2" d="M370.2,218.5c-1.55,1.5-4.06.61-6.08.8-.46-2.02,1.25-1.88,2.53-2.23,1.65-.46,2.44,1.18,3.55,1.44Z"/>
          <path class="cls-2" d="M358.25,88.56c.62,1.89-1.21,2.12-2.62,2.12s-3.23-.22-2.61-2.12c1.69.06,3.54.01,5.22,0Z"/>
          <path class="cls-2" d="M95.87,88.57c.61,1.8-1.28,2.15-2.68,2.11-1.27-.03-3.26-.16-2.66-2.01l5.34-.1Z"/>
          <path class="cls-2" d="M195.66,219.29c-2.13-.15-3.3-.26-5.18-.99.18-1.25,1.71-.98,2.5-1.09,1.45-.21,3.3.4,2.68,2.09Z"/>
          <path class="cls-2" d="M190.65,88.67c.55,1.35-.62,2.03-1.68,1.97-1.23-.07-2.6.16-2.56-1.34,1.22-1.07,2.79-.61,4.24-.63Z"/>
          <path class="cls-2" d="M204.62,88.69c.59,1.32-.59,1.95-1.67,1.96-1.22,0-2.33-.84-1.67-2.08,1.11-.01,2.28-.05,3.34.12Z"/>
          <path class="cls-2" d="M160.72,219.15c-.77.08-1.57,0-2.35,0-.45-.51-.17-.93.17-1.37s.84-.8,1.47-.49c.58.29,1.25,1.16.71,1.85Z"/>
          <path class="cls-2" d="M374.21,95.45l-1.99.32c.1-.47-.26-1.21-.1-1.71.16-.53.94-.78,1.46-.5.64.34,1.2,1.26.63,1.89Z"/>
          <path class="cls-2" d="M121.84,219.25c-.41.41-1.01,1.16-1.58.96-.72-.25-1.5-.95-.9-1.6.75-.09,2.26-.32,2.48.63Z"/>
          <path class="cls-2" d="M381.26,214.36c.2.93-1.14,1.25-1.67.92-.74-.46-1.11-1.35-.63-1.98.87.22,1.52.87,2.3,1.06Z"/>
          <path class="cls-2" d="M183.5,89.33c.32.03.66-.05.99-.05.17,1.44-1.1,1.55-.99.05Z"/>
          <rect class="cls-3" x="219.42" y="216.3" width="18.46" height="1"/>
          <path class="cls-3" d="M251.34,216.87c-1.43.71-3.01.71-5.04.04,1.07-1.05,2.43-.92,5.04-.04Z"/>
          <rect class="cls-3" x="128.61" y="90.56" width="18.46" height="1"/>
          <rect class="cls-3" x="150.07" y="90.56" width="13.47" height="1"/>
          <rect class="cls-3" x="214.43" y="90.56" width="5.99" height="2"/>
        </g>
      </g>
    </g>
  </g>
</svg>