<?xml version="1.0" encoding="UTF-8"?>
<svg id="Layer_2" data-name="Layer 2" xmlns="http://www.w3.org/2000/svg" viewBox="0 0 345.52 369.02">
  <defs>
    <style>
      .cls-1 {
        fill: #c0ed08;
      }

      .cls-2 {
        fill: #bcc9bb;
      }

      .cls-3 {
        fill: #303b34;
      }

      .cls-4 {
        fill: #e3eae3;
      }
    </style>
  </defs>
  <g id="Layer_1-2" data-name="Layer 1">
    <g>
      <path class="cls-2" d="M1.75,360.79c0,.71.6,2.13-.47,2.26-.19-.46-1.62-.55-1.21-1.45.28-.6,1.1-1.37,1.68-.81Z"/>
      <g>
        <path class="cls-3" d="M177.62,337.27c1.1-.05,1.01-1.59,1.06-2.39l.1-1.56c1.69-2.05,1.28-4.93,1.91-7.35,2.19-8.36,2.32-16.92,1.99-25.53-.16-4.3-1.28-8.54-3.01-12.45-.86-1.94-.53-4.19-2.01-5.93-.88-1.04-.18-2.92-2.44-2.87-1.48.03-2.15,1.62-3.32,2.04-10.19,3.67-19,10.56-29.22,14.15l-2.75.97c-4.37-.4-13.91-10.07-16.14-13.03-1.88-2.5-10.64-12.71-14.25-11.26-.94.37-2,1.45-3.18,2.51-4.81,4.3-11.27,5.16-15.39,9.46-2.25.28-4.66.05-6.89.09l-4.06-3.98c.35-9.91,6.19-17.56,12.98-25.93-2.58-3.81-4.92-6.9-9.18-9.09-2.51,4.64-7.15,4.71-11.67,5.69-3.45.75-24.18,6.81-23.02,11.47-3.04-.39-4.05.65-6.51,2.67-8.27,6.81-14.49,14.87-19.7,24.36-1.06,1.93-4.23,3.6-1.94,6.11,3.36-1.23,8.44-4.12,11.37-1.42,2.35,2.17-.39,7-1.66,9.6-9.79,19.98-16.01,31.58-19.76,54.9,22.01-5.04,41.44-13.85,59.8-25.7,1.81-1.17,3.5-.29,4.59.34,3.89,2.23.18,8.72,3.62,7.7s6.7-2.94,8.29-5.41c.6-.18,1.35-.76,1.77-1.19,1.73.08,2.59-1.71,3.08-2.9,4.47.13,17.82-18.92,14.27-14.94,11.85-13.31,1.67-40.06,14.49-32.15,1.89,6.03,1.22,12.58-.1,18.72-1.08,1.2-1.02,2.85-.81,4.37-.58,5.23-3.63,9.64-5.25,14.59-.76-.67-1.4.22-1.72.86-.21.42-.23.91-.16,1.37-9.82,13.71-23.48,23.6-39.07,30.61-2.1.95-3.54,3.68-6.16,2.13-4.46-2.65,1.57-9.88-1.65-12.25-10.08,8.39-21.08,13.23-33.08,17.19-5.82,1.92-11.54,3.1-17.33,5.5-3.63,1.51-8.14,2.42-11.75.91-2.02-.84-1.89-3.81-2.45-5.19,1.07-.13.47-1.55.47-2.26.17-20.44,7.98-39.82,19.95-57.3-5.15.43-8.36,2.9-12.78,1.52s.4-8.07.3-10.6c.82.7,1.3-.3,1.58-.87.22-.47.07-1.03.25-1.45,5.27-12.81,13.1-24.36,23.88-33.89,19.9-17.6,44.5-14.37,44.89-17.51s-10.36-7.7-11.46-13.55c-.96-5.12,2.8-10.25,4.6-14.84,1.49-3.81,10.95-24.44,9.4-25.96-4.41-4.33-27.04-3.3-34.28-1.96s-14.75,2.54-21.64,5.3c-2.68,1.07-5.53,2.91-7.94.74-6.09-5.49,2.45-16.45,6.52-24.79.75.58,1.39-.25,1.72-.8.27-.46.17-1.01.27-1.45.2-.84,1.12-1.82,1.01-2.73,2.16-1.04,2.8-3.47,4.09-5.17,10.12-13.27,21.55-26.02,35.31-36.02,32.41-23.55,61.66-14.37,63.65-14.97-1.2.36,16.9-20.15,20.2-23.31l17.81-17.01c9.6-9.17,19.89-17.02,31.32-23.72l18.15-10.65c2.02-1.19,6.06-.77,6.26-3.84l2.84-.34c1.39-.17,2.72-.85,2.88-2.35,2.71.2,4.62-2.18,7.24-3.08,11.8-4.03,23.01-8.34,35.18-11.79,19.18-5.45,38.77-6.98,58.51-8.19,3.94-.24,7.19-.67,10.01,1.91,2.37,2.16,2.83,4.97,3.08,8.7.96,14.47,1.67,28.31-.29,43.04-4.15,31.14-12.98,61.34-27.06,89.17-13.99,27.67-40.56,62.52-64.25,83.35,4.18,5.16,4.51,10.79,4.73,16.9.45,12.4-1.24,24-5.89,35.18-5.46,13.12-12.67,24.14-22.72,34.19-6.39,6.38-11.85,13.28-19.33,18.59-9.25,6.57-17.71,13.77-28.17,18.22-1.41.33-4.14-2.28-4.7-3.58-1.22-2.82.24-6.12.72-8.59ZM308.59,12.78c-1.06.04-2.87-.37-3.3.86l-3.65.15c-1.55.06-4.62-.63-4.49,1.64-.85-.13-1.76.13-2.61.12-.74-1.05-1.42-.01-2.19.04l-3.79.26c-2.07.14-4.58.14-6.02,1.88-.62-.07-1.3.28-1.91.15-.92-.2-1.58.68-2.34.8-2.64.43-5.14,1.4-7.72,2.07-.79.21-1.8.07-2.26.93l-1.58.1c-.44.03-.97-.02-1.52.18-.5.17-1.5.72-.92,1.54-1.92.65-6.5.08-7.26,2.43-1.07,3.33,2.69,6.17,3.29,8.82.72,3.2,1.37,6.58,4.06,9.4,13.45,24.2,34.82,38.4,60.95,47.7,5.88-20.38,8.45-40.22,7.61-61.49-4.97,1.04-6.55,5.13-5.53,9.49.25,1.07-3.37,1.22-3.23.23,1.06-7.49,1.24-13.96,1.43-21.08.1-3.83,7.71.36,7.9-3.67.06-1.26-.76-1.92-1.93-2.47-5.35-2.54-11.89-.47-18.16-.24l-4.83.18ZM98.99,201.29c3.75,7.15,11.15,10.81,16.88,18.74,3.5-1.67,5-4.73,7.33-7.23l15.44-16.59,12.51-11.44c5.84-5.34,27.95-21.41,34.61-10.63,3.69,5.97,1.75,11.81-1.57,17.68-11.25,19.92-26.74,36.47-44.04,52.09l28.48,26.62c11.89-2.06,30.93-15.76,41.32-22.8,17.35-11.77,37.92-29.55,51.75-45.15,27.01-30.47,49.48-61.87,60.78-102.21-6.17-2.05-12.44-2.94-18.09-5.99-15.41-8.34-32.13-19.94-42.04-34.45l-9.76-14.29-6.07-16.05c-5.45.77-10.3,3.41-15.24,5.91-56.81,28.77-103.95,79.9-129.88,137.52l-10.03,22.29,7.62,5.98ZM84.93,121.51c-.68,0-1.15.52-2.21,1.07-4.29,2.18-8.64,4.48-12.76,7.93-1.21-.36-1.25,1.2-2.25,2-12.79,10.15-26.47,28.5-36.04,42.51,1.93,2.52,3.15-.26,5.43-.4,19.04-1.15,29.39-4.44,50.31,1.12,2.36-2.75,2.12-5.79,3.56-8.41l10.62-19.33c2.74-4.98,5.25-9.86,8.18-14.65,2.4-3.93,5.91-6.95,7.03-11.77,2.44-2.02,5.35-3.58,7.5-7.55-13.98-2.03-27.51,1.22-39.37,7.48ZM93.92,270.45c24.78-17.4,44.67-38.13,64.63-60.11,6.56-7.22,11.58-14.52,15.92-23.1,1.13-2.24,3.38-4.35,1.35-7.04-16.82,8.3-34.01,25.74-45.45,39.8l-12.46,15.3-7.18,8.75c-6.31,7.69-12.56,16.74-16.81,26.4ZM99.19,241.26c.55-.21,9.96-10.41,10.5-13.04l-22.23-22.08-7.61,17.92c3.85,3.58,15.96,18.47,19.34,17.2ZM189.75,332.36c16.71-9.97,29.82-22.13,40.32-36.75,12.22-15.46,21.85-41.44,15.3-61.91l-20.15,16.28c-11.77,9.51-23.96,17.17-38.01,24.54,7.42,20.08,8.99,36.76,2.54,57.84ZM157.16,275.33l-9.39-8.96c-5-4.77-10.11-8.74-15.14-14.71l-13.16,12.57,22.09,20.08c5.69-2.81,10.33-5.32,15.61-8.98Z"/>
        <path class="cls-2" d="M224.82,25.94c-.19,3.06-4.24,2.65-6.26,3.84.18-2.87,3.78-3.54,6.26-3.84Z"/>
        <path class="cls-2" d="M230.55,23.24c-.17,1.5-1.49,2.19-2.88,2.35.06-1.49,1.41-2.46,2.88-2.35Z"/>
        <path class="cls-2" d="M32.12,155.46c-1.29,1.69-1.93,4.13-4.09,5.17-.31-2.58,1.53-4.79,4.09-5.17Z"/>
        <path class="cls-2" d="M27.02,163.36c-.1.44,0,.99-.27,1.45-.33.55-.97,1.37-1.72.8.27-.56-.16-1.58.67-2.11.37-.24.81-.47,1.32-.14Z"/>
        <path class="cls-2" d="M252.59,45.63l9.76,14.29c9.91,14.51,26.63,26.11,42.04,34.45,5.65,3.05,11.91,3.94,18.09,5.99-11.3,40.35-33.77,71.75-60.78,102.21-13.83,15.6-34.4,33.39-51.75,45.15-10.39,7.05-29.43,20.74-41.32,22.8l-28.48-26.62c17.3-15.63,32.79-32.18,44.04-52.09,3.32-5.87,5.26-11.71,1.57-17.68-6.67-10.79-28.77,5.29-34.61,10.63l-12.51,11.44-15.44,16.59c-2.33,2.5-3.83,5.57-7.33,7.23-5.73-7.92-13.13-11.59-16.88-18.74,3.62-1.03,3.56-5.51,5.13-8.75l5.11-10.54,10.87-19.22c6.78-11.99,13.93-23.55,22.77-34.09l6.87-8.19c13.68-16.32,21.16-26.23,37.67-40.09s14.87-13.09,32.4-24.53l10.81-7.06,16.52-7.3c1.29,1.16,1.45,2.9,1.85,3.55.57.93,2.59,1.24,3.6.55ZM230.53,169.43c.1.74.32,1.6.89,1.81.96.34,2.63.62,3.2-.38-1.24-.6-1.84-.76-2.05-1.47,2.65-2.08,6.4-.97,9.77-2.19,8.19-2.96,15.3-7.93,21.19-14.88,11.47-13.54,13.03-34.39,4.06-50-3.39-5.9-7.82-11.49-13.02-15.24-22.93-16.53-53.29-8.38-66.52,17.99-11.45,22.82-.3,51.18,23.16,60.6,6.6,2.65,12.94,2.71,19.32,3.77ZM229.01,171.54c-2.65-2.08-4.3-1.06-6.5-.75,2.02,1.16,4.4,2.87,6.5.75Z"/>
        <path class="cls-2" d="M260.31,34.74c24.52-8.45,40.69-14.38,67.22-18.63,2.01-.32,4.38-1.53,4.04-3.26,1.17.55,1.99,1.21,1.93,2.47-.19,4.04-7.8-.16-7.9,3.67-.18,7.11-.37,13.59-1.43,21.08-.14.98,3.49.84,3.23-.23-1.02-4.36.55-8.45,5.53-9.49.84,21.28-1.73,41.12-7.61,61.49-26.13-9.3-47.5-23.5-60.95-47.7-2.69-2.82-3.34-6.2-4.06-9.4Z"/>
        <path class="cls-4" d="M252.59,45.63c-1.01.7-3.03.39-3.6-.55-.4-.65-.56-2.39-1.85-3.55l-16.52,7.3-10.81,7.06c-17.53,11.44-16.73,11.38-32.4,24.53-16.51,13.85-23.99,23.76-37.67,40.09l-6.87,8.19c-8.84,10.54-15.99,22.1-22.77,34.09l-10.87,19.22-5.11,10.54c-1.57,3.23-1.5,7.72-5.13,8.75l-7.62-5.98,10.03-22.29c25.93-57.62,73.08-108.75,129.88-137.52,4.94-2.5,9.79-5.14,15.24-5.91l6.07,16.05Z"/>
        <path class="cls-2" d="M116.79,121.58c-1.13,4.82-4.63,7.84-7.03,11.77-2.93,4.79-5.45,9.66-8.18,14.65l-10.62,19.33c-1.44,2.62-1.2,5.66-3.56,8.41-20.92-5.56-31.27-2.27-50.31-1.12.24-1.13-.3-3.93,1.22-4.7,2.19-1.1,13.51-13.59,16.05-16.06,6.39-6.21,12.96-12.25,20.22-17.42,3.8-2.71,8.16-4.49,12.17-6.92,8.52-5.17,18.44-7.75,27.59-10.77.94,1.31,1.34,2.69,2.45,2.84Z"/>
        <path class="cls-2" d="M93.92,270.45c4.25-9.66,10.49-18.71,16.81-26.4l7.18-8.75,12.46-15.3c11.45-14.06,28.63-31.49,45.45-39.8,2.03,2.69-.21,4.8-1.35,7.04-4.34,8.57-9.36,15.88-15.92,23.1-19.97,21.98-39.85,42.71-64.63,60.11Z"/>
        <path class="cls-4" d="M116.79,121.58c-1.11-.15-1.52-1.53-2.45-2.84-9.15,3.02-19.07,5.6-27.59,10.77-4,2.43-8.37,4.21-12.17,6.92-7.26,5.17-13.83,11.22-20.22,17.42-2.55,2.48-13.87,14.96-16.05,16.06-1.53.77-.98,3.56-1.22,4.7-2.28.14-3.5,2.93-5.43.4,9.58-14.01,23.26-32.35,36.04-42.51.67.07,1.64.13,2.1-.55.25-.38.16-1.02.16-1.45,4.13-3.46,8.48-5.75,12.76-7.93-.22.67.37.9.75.98.67.14,1.3-.11,1.45-.53.2-.56.26-1.05.01-1.52,11.86-6.26,25.38-9.51,39.37-7.48-2.14,3.97-5.06,5.53-7.5,7.55Z"/>
        <path class="cls-4" d="M331.57,12.84c.34,1.73-2.04,2.94-4.04,3.26-26.53,4.25-42.7,10.18-67.22,18.63-.6-2.65-4.37-5.49-3.29-8.82.76-2.35,5.34-1.78,7.26-2.43.62-.21,1.6.57,2.24-.35.29-.41.72-.84.2-1.36l1.58-.1c.28.45.6.76.92.93.56.3,1.15.1,1.3-.37.2-.59.31-1.05.03-1.49,2.59-.67,5.08-1.64,7.72-2.07-.28.63.3.97.72,1.09.76.21,1.16-.04,1.48-.5s.54-.9.13-1.39c.61.13,1.29-.21,1.91-.15,2.09.78,5.82.86,6.02-1.88l3.79-.26c-.25.89.7,1.5,1.59,1.17.44-.16.77-.66.6-1.22.85.01,1.76-.25,2.61-.12.92.14,2.39.6,3.55.28.59-.16,1.62-.97.94-1.92l3.65-.15c.52.8,1.69,1.49,2.6,1.12.71-.29,1.25-1.33.7-1.98l4.83-.18c6.27-.23,12.8-2.3,18.16.24Z"/>
        <path class="cls-2" d="M99.19,241.26c-3.38,1.27-15.49-13.62-19.34-17.2l7.61-17.92,22.23,22.08c-.55,2.62-9.96,12.83-10.5,13.04Z"/>
        <path class="cls-2" d="M288.55,15.85c-.2,2.73-3.93,2.66-6.02,1.88,1.44-1.74,3.95-1.73,6.02-1.88Z"/>
        <path class="cls-2" d="M301.63,13.79c.69.96-.35,1.76-.94,1.92-1.16.32-2.63-.15-3.55-.28-.13-2.27,2.93-1.58,4.49-1.64Z"/>
        <path class="cls-2" d="M308.59,12.78c.55.65.01,1.68-.7,1.98-.91.37-2.08-.32-2.6-1.12.43-1.23,2.25-.82,3.3-.86Z"/>
        <path class="cls-2" d="M294.53,15.55c.17.56-.16,1.05-.6,1.22-.89.33-1.85-.29-1.59-1.17.77-.05,1.45-1.09,2.19-.04Z"/>
        <path class="cls-2" d="M69.95,130.51c0,.43.1,1.07-.16,1.45-.46.69-1.43.62-2.1.55,1.01-.8,1.04-2.36,2.25-2Z"/>
        <path class="cls-2" d="M84.93,121.51c.24.47.18.96-.01,1.52-.15.42-.78.67-1.45.53-.38-.08-.98-.31-.75-.98,1.06-.54,1.53-1.07,2.21-1.07Z"/>
        <path class="cls-2" d="M280.63,17.87c.4.49.19.93-.13,1.39s-.72.71-1.48.5c-.42-.12-1-.46-.72-1.09.77-.12,1.42-1.01,2.34-.8Z"/>
        <path class="cls-2" d="M270.56,20.74c.28.44.16.9-.03,1.49-.16.47-.74.67-1.3.37-.32-.17-.64-.49-.92-.93.46-.86,1.46-.72,2.26-.93Z"/>
        <path class="cls-2" d="M266.72,21.78c.52.52.08.95-.2,1.36-.64.92-1.62.14-2.24.35-.58-.81.42-1.36.92-1.54.56-.19,1.09-.15,1.52-.18Z"/>
        <path class="cls-3" d="M232.57,169.38c-.5.25-1.46-.12-2.04.05-6.38-1.06-12.72-1.12-19.32-3.77-23.46-9.41-34.61-37.77-23.16-60.6,13.23-26.37,43.59-34.52,66.52-17.99,5.2,3.75,9.63,9.34,13.02,15.24,8.97,15.61,7.41,36.46-4.06,50-5.89,6.95-13,11.91-21.19,14.88-3.37,1.22-7.12.11-9.77,2.19ZM215.64,91.43c-4.61-.45-6.98,4.5-10.28,6.42s-3.94,3.78-5.81,6.53c-4.38,6.42-7.08,14.02-6.77,21.99.07,1.84-1.17,5.63,1.64,5.42-.78,6.17,3.04,10.7,6.41,14.89,7.1,8.83,18.5,14.16,30.2,13.26,12.22-.94,20.85-6.81,27.61-16.63,8.82-12.81,7.98-29.53-1.92-42.3-8.83-11.39-23.83-15.72-37.9-12.07-1.72.45-3.1.9-3.19,2.48Z"/>
        <path class="cls-4" d="M229.01,171.54c-2.09,2.12-4.48.41-6.5-.75,2.19-.31,3.85-1.32,6.5.75Z"/>
        <path class="cls-4" d="M232.57,169.38c.22.72.81.87,2.05,1.47-.57,1-2.25.72-3.2.38-.57-.2-.79-1.06-.89-1.81.58-.16,1.54.2,2.04-.05Z"/>
        <path class="cls-2" d="M200.84,146.69c.92-.13,2.21-.32,2.6-1.05.73-1.35.19-2.76-.03-3.94,3.48,1.84,5.31,5.61,8.76,8.2,6.61,4.97,22.75,4.96,29.51,1.62,4.54-2.24,9.26-6.34,12.39-10.47,7.42-9.76,7.58-24.56.54-34.21-6.66-9.11-16.78-14.76-27.76-13.89-2.86.23-5.82.89-8.17,1.43-.09-.64,1.1-1.98.58-2.34-.88-.61-2.82-.53-3.63-.61.09-1.57,1.47-2.03,3.19-2.48,14.07-3.65,29.07.67,37.9,12.07,9.9,12.77,10.74,29.49,1.92,42.3-6.76,9.82-15.39,15.69-27.61,16.63-11.69.9-23.1-4.44-30.2-13.26Z"/>
        <path class="cls-4" d="M215.64,91.43c.81.08,2.75,0,3.63.61.52.37-.66,1.7-.58,2.34-6.87,1.56-12.25,6.51-15.36,12.86-1.29,2.62-3.41,4.52-3.67,7.2-.48-.42-1.02-.21-1.43.13-.73.61-.45,1.49-.37,2.21.05.5.02,1.19,0,1.68,0,.28-.69.47-.84.88-.19.54.34,1.06.7,1.42-.97,7.51,1.62,14.63,5.7,20.94.22,1.18.76,2.59.03,3.94-.4.73-1.68.92-2.6,1.05-3.37-4.19-7.19-8.72-6.41-14.89.11-.9.33-2.45.31-3.62-.02-.79-.41-2.4-1.95-1.8-.31-7.97,2.39-15.57,6.77-21.99-.02,2.73,5.52-6.15,5.81-6.53,3.29-1.93,5.67-6.87,10.28-6.42Z"/>
        <path class="cls-2" d="M205.36,97.85c-.29.38-5.83,9.26-5.81,6.53,1.87-2.75,2.55-4.62,5.81-6.53Z"/>
        <path class="cls-2" d="M194.42,131.79c-2.81.21-1.57-3.58-1.64-5.42,1.53-.6,1.93,1.01,1.95,1.8.03,1.17-.19,2.72-.31,3.62Z"/>
        <path class="cls-3" d="M203.41,141.7c-4.08-6.31-6.68-13.43-5.7-20.94.81.21.84-.84.89-1.63.03-.42-.06-1.07-.75-.67.02-.48.05-1.18,0-1.68.82.71,1.36-.29,1.57-.88.18-.52.19-1.01.24-1.47.26-2.67,2.38-4.58,3.67-7.2,3.12-6.35,8.5-11.3,15.36-12.86,2.35-.54,5.31-1.2,8.17-1.43,10.98-.87,21.1,4.77,27.76,13.89,7.05,9.64,6.88,24.44-.54,34.21-3.14,4.13-7.85,8.23-12.39,10.47-6.76,3.34-22.9,3.34-29.51-1.62-3.45-2.59-5.28-6.35-8.76-8.2ZM250.96,123.54c0-12.23-9.91-22.14-22.14-22.14s-22.14,9.91-22.14,22.14,9.91,22.14,22.14,22.14,22.14-9.91,22.14-22.14Z"/>
        <path class="cls-2" d="M197.71,120.76c-.36-.36-.88-.88-.7-1.42.14-.41.83-.6.84-.88.69-.39.78.25.75.67-.05.79-.08,1.84-.89,1.63Z"/>
        <path class="cls-2" d="M199.65,114.44c-.04.46-.05.95-.24,1.47-.21.59-.75,1.58-1.57.88-.08-.72-.35-1.6.37-2.21.41-.35.95-.55,1.43-.13Z"/>
        <circle class="cls-1" cx="228.82" cy="123.54" r="22.14"/>
        <g>
          <path class="cls-2" d="M53.99,272.21c-5.64,8.54-8.7,18.67-10.99,28.86l-3.88,17.25c-.57,2.54-1.72,4.87-.11,7.21,4.3,6.22,19.93-3.37,29.8-3.5-.16.74-.34,1.79.12,2.32,1.05,1.22,9.25,1.32,9.86-2.16-2-.51-3.41.1-4.8-.14-.44-1.24.97-2.16,2.37-2.4,20.34-3.52,35.28-33.49,25.94-34.49-1.58-.17-4.15.88-4.24,3.11-.13,3.22-2.25,4.81-3.66,7.3-10.32,18.23-28.18,15.65-43.5,22.65-.73.33-1.92-.08-2.32-.26-.74-.33-.59-1.61-.27-2.69,2.83-9.43,4.24-18.52,7.71-27.07,2.8-1.09-1.37,6.29.95,5.41.9-.34,3.95-10.59,3.27-9,.86-2.01,2.6-4.32,3.84-6.21,1.9-2.88,11.98-8.31,12.87-7.63,3.5,2.65-3.54,8.87-.32,12.92,5.13,6.44,10.53,3.84,14.84,3.09.76-.13-.08-2.64-.53-2.77,4.12-4.3,10.58-5.16,15.39-9.46,1.18-1.06,2.25-2.14,3.18-2.51,3.61-1.44,12.37,8.76,14.25,11.26-1.04.11-2.05.43-2.97.93-12.82-7.91-2.64,18.84-14.49,32.15-.2-.48.1-1.22-1.1-2.32-1.84,7.34-18.45,15.29-13.17,17.26-.5,1.19-1.35,2.98-3.08,2.9-.93-.08-2.04-2.21-2.1-.5-.02.7.05,1.53.33,1.69-1.59,2.47-4.99,4.43-8.29,5.41s.28-5.47-3.62-7.7c-1.09-.62-2.78-1.5-4.59-.34-18.36,11.85-37.78,20.66-59.8,25.7,3.75-23.31,9.97-34.92,19.76-54.9,1.27-2.6,4.02-7.43,1.66-9.6-2.93-2.7-8.01.2-11.37,1.42-2.29-2.51.88-4.19,1.94-6.11,5.2-9.49,11.43-17.55,19.7-24.36,2.46-2.03,3.47-3.06,6.51-2.67,3.94.51,7.4-2.84,11.81-2.66.12,2.72-2.66,3.07-4.57,4.22-.54.33-4.75,8.56-2.38,8.38Z"/>
          <path class="cls-2" d="M182.67,300.44c-1.32,3.61-5.22-14.97-3.01-12.45,1.73,3.91,2.85,8.15,3.01,12.45Z"/>
          <path class="cls-2" d="M177.65,282.06c-1.94-.11-3.92-.16-5.76-.83,1.17-.42,1.85-2.01,3.32-2.04,2.25-.05,1.55,1.83,2.44,2.87Z"/>
          <path class="cls-2" d="M180.69,325.97c-.63,2.42-.22,5.3-1.91,7.35-1.67-2.06-.86-6.81,1.91-7.35Z"/>
          <path class="cls-2" d="M119.91,307.33c-.22-1.52-.28-3.17.81-4.37,1.16.06,1.18,1.61,1.18,2.73,0,.92-.9,1.59-1.99,1.64Z"/>
          <path class="cls-2" d="M142.68,295.38c-.24.71-.44,1.69-1.44,1.96-.62.17-1.03-.44-1.31-1l2.75-.97Z"/>
          <path class="cls-2" d="M11.05,292.08c-.17.42-.02.98-.25,1.45-.27.58-.76,1.57-1.58.87-.03-.71-.32-1.58.42-2.19.4-.33.92-.54,1.4-.14Z"/>
          <path class="cls-2" d="M114.67,321.92c-.18.57.36,1.61-.47,1.97-.44.19-.98.23-1.41.26-.07-.46-.05-.96.16-1.37.32-.64.96-1.53,1.72-.86Z"/>
          <path class="cls-2" d="M178.68,334.87c-.05.8.04,2.34-1.06,2.39-.31-.49-1.14-1.12-.86-1.58.5-.85,1.32-1.42,1.92-.81Z"/>
          <path class="cls-2" d="M189.75,332.36c6.45-21.08,4.88-37.76-2.54-57.84,14.05-7.37,26.24-15.03,38.01-24.54l20.15-16.28c6.55,20.47-3.08,46.45-15.3,61.91-10.5,14.62-23.61,26.78-40.32,36.75Z"/>
          <path class="cls-4" d="M80.01,280.13c-.05,1.5-.09,2.48,1.49,3.95.8.75,1.38,1.29,2.57.02,2.23-.04,4.64.19,6.89-.09.46.13,1.29,2.63.53,2.77-4.3.75-9.7,3.35-14.84-3.09-3.23-4.05,3.82-10.27.32-12.92-.89-.68-10.98,4.75-12.87,7.63-1.24,1.88-2.98,4.2-3.84,6.21.68-1.59-2.37,8.66-3.27,9-2.33.88,1.85-6.5-.95-5.41,2.7-6.66,5.24-15.11,12.69-17.93.34.44,1.08,1.1,1.59.89.85-.35.28-1.67.6-2.05,1.46-1.71,4.19-1.73,6.46-2.55,1.72-.63,1.68-2.42,1.37-3.6-2.02-7.82-21.2,3.84-24.77,9.24-2.37.17,1.84-8.06,2.38-8.38,1.9-1.15,4.68-1.49,4.57-4.22-4.41-.17-7.87,3.17-11.81,2.66-1.16-4.66,19.57-10.72,23.02-11.47,4.52-.98,9.16-1.06,11.67-5.69,4.27,2.19,6.61,5.28,9.18,9.09-6.8,8.37-12.64,16.02-12.98,25.93ZM82.89,252.77c0-.28-.22-.5-.5-.5s-.5.22-.5.5.22.5.5.5.5-.22.5-.5ZM79.8,253.78c-2.19-.98-6.09-1.41-7.46.8-.67,1.6,2.85,2.51,4.15,2.55,1.74.05,3.13-.27,3.31-3.35ZM86.04,254.35c-.07-1.5-2.23-1.5-2.3,0-.12,2.68,2.42,2.68,2.3,0Z"/>
          <path class="cls-2" d="M157.16,275.33c-5.28,3.66-9.92,6.17-15.61,8.98l-22.09-20.08,13.16-12.57c5.02,5.97,10.14,9.93,15.14,14.71l9.39,8.96Z"/>
          <path class="cls-4" d="M106.33,316.38c3.54-3.98-9.81,15.07-14.27,14.94-5.28-1.97,11.34-9.92,13.17-17.26,1.2,1.1.9,1.84,1.1,2.32Z"/>
          <path class="cls-2" d="M84.08,284.11c-1.19,1.26-1.77.72-2.57-.02-1.58-1.47-1.54-2.45-1.49-3.95l4.06,3.98Z"/>
          <path class="cls-4" d="M88.97,334.22c-.42.43-1.17,1.02-1.77,1.19-.29-.17-.36-1-.33-1.69.06-1.71,1.17.43,2.1.5Z"/>
          <path class="cls-3" d="M70.92,269.12c-.89,0-1.83.29-2.19,1.16-7.45,2.82-9.99,11.27-12.69,17.93-3.47,8.55-4.88,17.64-7.71,27.07-.32,1.08-.47,2.36.27,2.69.4.18,1.58.6,2.32.26,15.31-7,33.18-4.42,43.5-22.65,1.41-2.49,3.53-4.08,3.66-7.3.09-2.23,2.66-3.28,4.24-3.11,9.33,1.01-5.6,30.97-25.94,34.49-1.4.24-2.81,1.16-2.37,2.4-1.72-.3-3.46-.05-5.18-.02-9.87.13-25.5,9.72-29.8,3.5-1.62-2.34-.47-4.67.11-7.21l3.88-17.25c2.29-10.2,5.35-20.33,10.99-28.86,3.57-5.4,22.75-17.06,24.77-9.24.3,1.18.34,2.97-1.37,3.6-2.26.83-5,.84-6.46,2.55Z"/>
          <path class="cls-4" d="M68.81,322.03c1.72-.02,3.46-.28,5.18.02,1.39.25,2.8-.36,4.8.14-.61,3.47-8.81,3.38-9.86,2.16-.46-.53-.27-1.58-.12-2.32Z"/>
          <path class="cls-2" d="M79.8,253.78c-.18,3.08-1.57,3.41-3.31,3.35-1.29-.04-4.82-.95-4.15-2.55,1.37-2.21,5.27-1.78,7.46-.8Z"/>
          <path class="cls-2" d="M86.04,254.35c.12,2.68-2.42,2.68-2.3,0,.07-1.5,2.23-1.5,2.3,0Z"/>
          <path class="cls-2" d="M70.92,269.12c-.32.38.24,1.69-.6,2.05-.5.21-1.24-.45-1.59-.89.36-.87,1.3-1.16,2.19-1.16Z"/>
          <circle class="cls-2" cx="82.4" cy="252.77" r=".5"/>
        </g>
      </g>
    </g>
  </g>
</svg>